M48
; DRILL file {KiCad (5.99.0-9565-gc0f3e53b52)} date Thursday, April 08, 2021 at 11:44:07 AM
; FORMAT={-:-/ absolute / inch / decimal}
; #@! TF.CreationDate,2021-04-08T11:44:07+02:00
; #@! TF.GenerationSoftware,Kicad,Pcbnew,(5.99.0-9565-gc0f3e53b52)
FMAT,2
INCH
T1C0.0157
T2C0.0394
%
G90
G05
T1
X8.3129Y-3.6772
X8.3157Y-3.7287
X8.3157Y-3.7894
X8.3169Y-3.8472
X8.502Y-3.6654
X8.5531Y-3.5315
X8.5997Y-3.994
X8.602Y-4.0354
X8.7343Y-4.0315
X8.7402Y-4.5295
X8.7677Y-4.1732
X8.8209Y-5.1398
T2
X7.2835Y-3.0591
X7.2835Y-3.1591
X7.2835Y-3.2591
X7.2835Y-3.3591
X8.1732Y-2.8661
X8.2732Y-2.8661
X8.3732Y-2.8661
X8.4732Y-2.8661
X8.526Y-4.3378
X8.526Y-4.4378
X8.526Y-4.5378
X8.526Y-4.6378
X8.626Y-4.3378
X8.626Y-4.4378
X8.626Y-4.5378
X8.626Y-4.6378
X8.6693Y-3.1654
X8.6693Y-3.2654
X8.6693Y-3.4823
X8.6693Y-3.5823
X8.6693Y-3.6823
X8.6693Y-3.7823
X8.8705Y-3.085
X8.8705Y-3.185
X8.8705Y-3.285
X8.8705Y-3.385
X8.8705Y-3.485
X8.8705Y-3.585
X8.8705Y-3.685
X8.8705Y-3.785
X8.8705Y-3.885
X8.8705Y-3.985
X8.8705Y-4.085
X8.8705Y-4.185
X8.8705Y-4.285
X8.8705Y-4.385
X8.8705Y-4.485
X8.939Y-5.1411
X8.939Y-5.2411
X9.5955Y-4.8346
X9.6955Y-4.8346
X9.7955Y-4.8346
X9.8955Y-4.8346
X9.9705Y-3.085
X9.9705Y-3.185
X9.9705Y-3.285
X9.9705Y-3.385
X9.9705Y-3.485
X9.9705Y-3.585
X9.9705Y-3.685
X9.9705Y-3.785
X9.9705Y-3.885
X9.9705Y-3.985
X9.9705Y-4.085
X9.9705Y-4.185
X9.9705Y-4.285
X9.9705Y-4.385
X9.9705Y-4.485
X9.9955Y-4.8346
T0
M30
