%TF.GenerationSoftware,KiCad,Pcbnew,(6.0.0-0)*%
%TF.CreationDate,2022-01-05T18:50:32+01:00*%
%TF.ProjectId,Smogly1,536d6f67-6c79-4312-9e6b-696361645f70,rev?*%
%TF.SameCoordinates,Original*%
%TF.FileFunction,Soldermask,Bot*%
%TF.FilePolarity,Negative*%
%FSLAX46Y46*%
G04 Gerber Fmt 4.6, Leading zero omitted, Abs format (unit mm)*
G04 Created by KiCad (PCBNEW (6.0.0-0)) date 2022-01-05 18:50:32*
%MOMM*%
%LPD*%
G01*
G04 APERTURE LIST*
%ADD10R,1.700000X1.700000*%
%ADD11O,1.700000X1.700000*%
%ADD12R,1.000000X1.000000*%
%ADD13O,1.000000X1.000000*%
G04 APERTURE END LIST*
D10*
%TO.C,J2*%
X197000000Y-72810000D03*
D11*
X199540000Y-72810000D03*
X202080000Y-72810000D03*
X204620000Y-72810000D03*
%TD*%
D10*
%TO.C,J1*%
X227050000Y-133125000D03*
D11*
X227050000Y-130585000D03*
%TD*%
D10*
%TO.C,J8*%
X220200000Y-88450000D03*
D11*
X220200000Y-90990000D03*
X220200000Y-93530000D03*
X220200000Y-96070000D03*
%TD*%
D10*
%TO.C,J6*%
X220200000Y-80400000D03*
D11*
X220200000Y-82940000D03*
%TD*%
D12*
%TO.C,J9*%
X169980000Y-131080000D03*
D13*
X171250000Y-131080000D03*
X169980000Y-129810000D03*
X171250000Y-129810000D03*
X169980000Y-128540000D03*
X171250000Y-128540000D03*
X169980000Y-127270000D03*
X171250000Y-127270000D03*
X169980000Y-126000000D03*
X171250000Y-126000000D03*
%TD*%
D10*
%TO.C,J10*%
X225310000Y-80000000D03*
D11*
X225310000Y-82540000D03*
X225310000Y-85080000D03*
X225310000Y-87620000D03*
X225310000Y-90160000D03*
X225310000Y-92700000D03*
X225310000Y-95240000D03*
X225310000Y-97780000D03*
X225310000Y-100320000D03*
X225310000Y-102860000D03*
X225310000Y-105400000D03*
X225310000Y-107940000D03*
X225310000Y-110480000D03*
X225310000Y-113020000D03*
X225310000Y-115560000D03*
%TD*%
D10*
%TO.C,J5*%
X219100000Y-117800000D03*
D11*
X216560000Y-117800000D03*
X219100000Y-115260000D03*
X216560000Y-115260000D03*
X219100000Y-112720000D03*
X216560000Y-112720000D03*
X219100000Y-110180000D03*
X216560000Y-110180000D03*
%TD*%
D10*
%TO.C,J11*%
X253250000Y-80000000D03*
D11*
X253250000Y-82540000D03*
X253250000Y-85080000D03*
X253250000Y-87620000D03*
X253250000Y-90160000D03*
X253250000Y-92700000D03*
X253250000Y-95240000D03*
X253250000Y-97780000D03*
X253250000Y-100320000D03*
X253250000Y-102860000D03*
X253250000Y-105400000D03*
X253250000Y-107940000D03*
X253250000Y-110480000D03*
X253250000Y-113020000D03*
X253250000Y-115560000D03*
%TD*%
D10*
%TO.C,J4*%
X243725000Y-122800000D03*
D11*
X246265000Y-122800000D03*
X248805000Y-122800000D03*
X251345000Y-122800000D03*
X253885000Y-122800000D03*
%TD*%
D10*
%TO.C,J3*%
X185000000Y-77700000D03*
D11*
X185000000Y-80240000D03*
X185000000Y-82780000D03*
X185000000Y-85320000D03*
%TD*%
M02*
