%TF.GenerationSoftware,KiCad,Pcbnew,(6.0.0-0)*%
%TF.CreationDate,2022-01-05T18:50:31+01:00*%
%TF.ProjectId,Smogly1,536d6f67-6c79-4312-9e6b-696361645f70,rev?*%
%TF.SameCoordinates,Original*%
%TF.FileFunction,Copper,L2,Bot*%
%TF.FilePolarity,Positive*%
%FSLAX46Y46*%
G04 Gerber Fmt 4.6, Leading zero omitted, Abs format (unit mm)*
G04 Created by KiCad (PCBNEW (6.0.0-0)) date 2022-01-05 18:50:31*
%MOMM*%
%LPD*%
G01*
G04 APERTURE LIST*
%TA.AperFunction,ComponentPad*%
%ADD10R,1.700000X1.700000*%
%TD*%
%TA.AperFunction,ComponentPad*%
%ADD11O,1.700000X1.700000*%
%TD*%
%TA.AperFunction,ComponentPad*%
%ADD12R,1.000000X1.000000*%
%TD*%
%TA.AperFunction,ComponentPad*%
%ADD13O,1.000000X1.000000*%
%TD*%
%TA.AperFunction,ViaPad*%
%ADD14C,0.800000*%
%TD*%
%TA.AperFunction,Conductor*%
%ADD15C,0.450000*%
%TD*%
%TA.AperFunction,Conductor*%
%ADD16C,0.350000*%
%TD*%
G04 APERTURE END LIST*
D10*
%TO.P,J2,1,Pin_1*%
%TO.N,+5V*%
X197000000Y-72810000D03*
D11*
%TO.P,J2,2,Pin_2*%
%TO.N,GND*%
X199540000Y-72810000D03*
%TO.P,J2,3,Pin_3*%
%TO.N,Net-(J11-Pad3)*%
X202080000Y-72810000D03*
%TO.P,J2,4,Pin_4*%
%TO.N,Net-(J11-Pad2)*%
X204620000Y-72810000D03*
%TD*%
D10*
%TO.P,J1,1,Pin_1*%
%TO.N,+5V*%
X227050000Y-133125000D03*
D11*
%TO.P,J1,2,Pin_2*%
%TO.N,GND*%
X227050000Y-130585000D03*
%TD*%
D10*
%TO.P,J8,1,Pin_1*%
%TO.N,Net-(J11-Pad11)*%
X220200000Y-88450000D03*
D11*
%TO.P,J8,2,Pin_2*%
%TO.N,Net-(J11-Pad10)*%
X220200000Y-90990000D03*
%TO.P,J8,3,Pin_3*%
%TO.N,Net-(J11-Pad9)*%
X220200000Y-93530000D03*
%TO.P,J8,4,Pin_4*%
%TO.N,Net-(J11-Pad8)*%
X220200000Y-96070000D03*
%TD*%
D10*
%TO.P,J6,1,Pin_1*%
%TO.N,Net-(J10-Pad13)*%
X220200000Y-80400000D03*
D11*
%TO.P,J6,2,Pin_2*%
%TO.N,Net-(J11-Pad1)*%
X220200000Y-82940000D03*
%TD*%
D12*
%TO.P,J9,1,Pin_1*%
%TO.N,+5V*%
X169980000Y-131080000D03*
D13*
%TO.P,J9,2,Pin_2*%
X171250000Y-131080000D03*
%TO.P,J9,3,Pin_3*%
%TO.N,GND*%
X169980000Y-129810000D03*
%TO.P,J9,4,Pin_4*%
X171250000Y-129810000D03*
%TO.P,J9,5,Pin_5*%
%TO.N,N/C*%
X169980000Y-128540000D03*
%TO.P,J9,6,Pin_6*%
X171250000Y-128540000D03*
%TO.P,J9,7,Pin_7*%
%TO.N,Net-(J11-Pad3)*%
X169980000Y-127270000D03*
%TO.P,J9,8,Pin_8*%
%TO.N,N/C*%
X171250000Y-127270000D03*
%TO.P,J9,9,Pin_9*%
%TO.N,Net-(J11-Pad2)*%
X169980000Y-126000000D03*
%TO.P,J9,10,Pin_10*%
%TO.N,N/C*%
X171250000Y-126000000D03*
%TD*%
D10*
%TO.P,J10,1,Pin_1*%
%TO.N,N/C*%
X225310000Y-80000000D03*
D11*
%TO.P,J10,2,Pin_2*%
X225310000Y-82540000D03*
%TO.P,J10,3,Pin_3*%
X225310000Y-85080000D03*
%TO.P,J10,4,Pin_4*%
X225310000Y-87620000D03*
%TO.P,J10,5,Pin_5*%
X225310000Y-90160000D03*
%TO.P,J10,6,Pin_6*%
X225310000Y-92700000D03*
%TO.P,J10,7,Pin_7*%
X225310000Y-95240000D03*
%TO.P,J10,8,Pin_8*%
X225310000Y-97780000D03*
%TO.P,J10,9,Pin_9*%
X225310000Y-100320000D03*
%TO.P,J10,10,Pin_10*%
X225310000Y-102860000D03*
%TO.P,J10,11,Pin_11*%
%TO.N,+3V3*%
X225310000Y-105400000D03*
%TO.P,J10,12,Pin_12*%
%TO.N,N/C*%
X225310000Y-107940000D03*
%TO.P,J10,13,Pin_13*%
%TO.N,Net-(J10-Pad13)*%
X225310000Y-110480000D03*
%TO.P,J10,14,Pin_14*%
%TO.N,GND*%
X225310000Y-113020000D03*
%TO.P,J10,15,Pin_15*%
%TO.N,+5V*%
X225310000Y-115560000D03*
%TD*%
D10*
%TO.P,J5,1,Pin_1*%
%TO.N,+3V3*%
X219100000Y-117800000D03*
D11*
%TO.P,J5,2,Pin_2*%
X216560000Y-117800000D03*
%TO.P,J5,3,Pin_3*%
%TO.N,+5V*%
X219100000Y-115260000D03*
%TO.P,J5,4,Pin_4*%
X216560000Y-115260000D03*
%TO.P,J5,5,Pin_5*%
%TO.N,GND*%
X219100000Y-112720000D03*
%TO.P,J5,6,Pin_6*%
X216560000Y-112720000D03*
%TO.P,J5,7,Pin_7*%
X219100000Y-110180000D03*
%TO.P,J5,8,Pin_8*%
X216560000Y-110180000D03*
%TD*%
D10*
%TO.P,J11,1,Pin_1*%
%TO.N,Net-(J11-Pad1)*%
X253250000Y-80000000D03*
D11*
%TO.P,J11,2,Pin_2*%
%TO.N,Net-(J11-Pad2)*%
X253250000Y-82540000D03*
%TO.P,J11,3,Pin_3*%
%TO.N,Net-(J11-Pad3)*%
X253250000Y-85080000D03*
%TO.P,J11,4,Pin_4*%
%TO.N,Net-(J11-Pad4)*%
X253250000Y-87620000D03*
%TO.P,J11,5,Pin_5*%
%TO.N,Net-(J11-Pad5)*%
X253250000Y-90160000D03*
%TO.P,J11,6,Pin_6*%
%TO.N,Net-(J11-Pad6)*%
X253250000Y-92700000D03*
%TO.P,J11,7,Pin_7*%
%TO.N,Net-(J11-Pad7)*%
X253250000Y-95240000D03*
%TO.P,J11,8,Pin_8*%
%TO.N,Net-(J11-Pad8)*%
X253250000Y-97780000D03*
%TO.P,J11,9,Pin_9*%
%TO.N,Net-(J11-Pad9)*%
X253250000Y-100320000D03*
%TO.P,J11,10,Pin_10*%
%TO.N,Net-(J11-Pad10)*%
X253250000Y-102860000D03*
%TO.P,J11,11,Pin_11*%
%TO.N,Net-(J11-Pad11)*%
X253250000Y-105400000D03*
%TO.P,J11,12,Pin_12*%
%TO.N,N/C*%
X253250000Y-107940000D03*
%TO.P,J11,13,Pin_13*%
X253250000Y-110480000D03*
%TO.P,J11,14,Pin_14*%
X253250000Y-113020000D03*
%TO.P,J11,15,Pin_15*%
X253250000Y-115560000D03*
%TD*%
D10*
%TO.P,J4,1,Pin_1*%
%TO.N,+5V*%
X243725000Y-122800000D03*
D11*
%TO.P,J4,2,Pin_2*%
%TO.N,N/C*%
X246265000Y-122800000D03*
%TO.P,J4,3,Pin_3*%
X248805000Y-122800000D03*
%TO.P,J4,4,Pin_4*%
X251345000Y-122800000D03*
%TO.P,J4,5,Pin_5*%
%TO.N,GND*%
X253885000Y-122800000D03*
%TD*%
D10*
%TO.P,J3,1,Pin_1*%
%TO.N,Net-(J11-Pad4)*%
X185000000Y-77700000D03*
D11*
%TO.P,J3,2,Pin_2*%
%TO.N,Net-(J11-Pad5)*%
X185000000Y-80240000D03*
%TO.P,J3,3,Pin_3*%
%TO.N,Net-(J11-Pad7)*%
X185000000Y-82780000D03*
%TO.P,J3,4,Pin_4*%
%TO.N,Net-(J11-Pad6)*%
X185000000Y-85320000D03*
%TD*%
D14*
%TO.N,Net-(J11-Pad2)*%
X204710000Y-82650000D03*
X179530000Y-110700000D03*
%TO.N,Net-(J11-Pad3)*%
X177260000Y-110270000D03*
X204395000Y-84785000D03*
X202170000Y-82540000D03*
%TO.N,+5V*%
X173280000Y-131090000D03*
X197000000Y-82560000D03*
%TO.N,GND*%
X167630000Y-96810000D03*
X222760000Y-92220000D03*
X175350000Y-129730000D03*
X190130000Y-85950000D03*
X248470000Y-99025000D03*
X210980000Y-74980000D03*
X218760000Y-125220000D03*
X227350000Y-88660000D03*
X191790000Y-82020000D03*
X168928400Y-118623600D03*
X188560000Y-88140000D03*
X247295000Y-100525000D03*
X234540000Y-125290000D03*
X199540000Y-82550000D03*
X175010000Y-118760000D03*
X177580000Y-118800000D03*
X250295000Y-81525000D03*
X194490000Y-97100000D03*
X238260000Y-132500000D03*
X216160000Y-106110000D03*
X224050000Y-130550000D03*
X171870000Y-118760000D03*
X250295000Y-91375000D03*
X221370000Y-99260000D03*
X166670000Y-118870000D03*
X218500000Y-105580000D03*
X222740000Y-94890000D03*
X250320000Y-94000000D03*
X218490000Y-99010000D03*
X222000000Y-115050000D03*
X230070000Y-124110000D03*
X249720000Y-97525000D03*
X250295000Y-89025000D03*
X250320000Y-86500000D03*
X250320000Y-84050000D03*
X191050000Y-83990000D03*
X240590000Y-103720000D03*
X222750000Y-89700000D03*
X187920000Y-73150000D03*
X220470000Y-104450000D03*
%TO.N,+3V3*%
X228630000Y-110660000D03*
%TO.N,Net-(J11-Pad5)*%
X200770000Y-89960000D03*
%TO.N,Net-(J11-Pad4)*%
X200830000Y-88540000D03*
%TO.N,Net-(J11-Pad6)*%
X200370000Y-93330000D03*
%TO.N,Net-(J11-Pad7)*%
X204240000Y-91800000D03*
%TO.N,Net-(J11-Pad1)*%
X250850000Y-79990000D03*
X243395000Y-80025000D03*
%TD*%
D15*
%TO.N,Net-(J11-Pad7)*%
X204240000Y-91800000D02*
X204845000Y-91800000D01*
X204845000Y-91800000D02*
X219575800Y-77069200D01*
X227389200Y-77069200D02*
X245560000Y-95240000D01*
X219575800Y-77069200D02*
X227389200Y-77069200D01*
X245560000Y-95240000D02*
X253250000Y-95240000D01*
%TO.N,Net-(J11-Pad5)*%
X200770000Y-89960000D02*
X202970000Y-89960000D01*
X202970000Y-89960000D02*
X218553200Y-74376800D01*
X244880000Y-90160000D02*
X253250000Y-90160000D01*
X218553200Y-74376800D02*
X229096800Y-74376800D01*
X229096800Y-74376800D02*
X244880000Y-90160000D01*
%TO.N,Net-(J11-Pad4)*%
X200830000Y-88540000D02*
X202550000Y-88540000D01*
X202550000Y-88540000D02*
X218084800Y-73005200D01*
X218084800Y-73005200D02*
X229643050Y-73005200D01*
X229643050Y-73005200D02*
X244257850Y-87620000D01*
X244257850Y-87620000D02*
X253250000Y-87620000D01*
%TO.N,Net-(J11-Pad6)*%
X200370000Y-93330000D02*
X201365000Y-93330000D01*
X201365000Y-93330000D02*
X218895800Y-75799200D01*
X218895800Y-75799200D02*
X228419200Y-75799200D01*
X228419200Y-75799200D02*
X245320000Y-92700000D01*
X245320000Y-92700000D02*
X253250000Y-92700000D01*
%TO.N,Net-(J11-Pad2)*%
X179620000Y-107720000D02*
X204690000Y-82650000D01*
D16*
X179530000Y-110700000D02*
X179620000Y-110610000D01*
D15*
X204710000Y-82650000D02*
X216560000Y-70800000D01*
X179620000Y-110610000D02*
X179620000Y-107720000D01*
X231595000Y-70800000D02*
X243335000Y-82540000D01*
X216560000Y-70800000D02*
X231595000Y-70800000D01*
X243335000Y-82540000D02*
X253250000Y-82540000D01*
%TO.N,Net-(J11-Pad3)*%
X177680000Y-107020000D02*
X202160000Y-82540000D01*
X177260000Y-110270000D02*
X177680000Y-109850000D01*
X230565000Y-71770000D02*
X243875000Y-85080000D01*
X243875000Y-85080000D02*
X253250000Y-85080000D01*
D16*
X202160000Y-82540000D02*
X202170000Y-82540000D01*
D15*
X204395000Y-84785000D02*
X217410000Y-71770000D01*
X217410000Y-71770000D02*
X230565000Y-71770000D01*
X177680000Y-109850000D02*
X177680000Y-107020000D01*
%TO.N,+5V*%
X174060000Y-130310000D02*
X173280000Y-131090000D01*
X197000000Y-82560000D02*
X174060000Y-105500000D01*
X174060000Y-105500000D02*
X174060000Y-130310000D01*
%TO.N,GND*%
X222000000Y-115050000D02*
X222000000Y-128500000D01*
X175910000Y-129220000D02*
X175910000Y-106180000D01*
X175350000Y-129730000D02*
X175400000Y-129730000D01*
X175400000Y-129730000D02*
X175910000Y-129220000D01*
X222000000Y-128500000D02*
X224050000Y-130550000D01*
X175910000Y-106180000D02*
X199540000Y-82550000D01*
%TO.N,+3V3*%
X228630000Y-108720000D02*
X225310000Y-105400000D01*
X228630000Y-110660000D02*
X228630000Y-108720000D01*
%TO.N,Net-(J11-Pad1)*%
X243430000Y-79990000D02*
X250850000Y-79990000D01*
D16*
X243395000Y-80025000D02*
X243430000Y-79990000D01*
%TD*%
%TA.AperFunction,Conductor*%
%TO.N,GND*%
G36*
X249772743Y-68770002D02*
G01*
X249819236Y-68823658D01*
X249830622Y-68875856D01*
X249840845Y-77961563D01*
X249854377Y-77961555D01*
X249854378Y-77961555D01*
X256773923Y-77957299D01*
X256842056Y-77977259D01*
X256888581Y-78030886D01*
X256900000Y-78083299D01*
X256900000Y-117475684D01*
X256879998Y-117543805D01*
X256826342Y-117590298D01*
X256771119Y-117601651D01*
X256345145Y-117591907D01*
X255767876Y-117578701D01*
X255767875Y-117578701D01*
X255749765Y-117578287D01*
X255749758Y-117592545D01*
X255746264Y-124718492D01*
X255726229Y-124786603D01*
X255672550Y-124833069D01*
X255619660Y-124844429D01*
X251500522Y-124824683D01*
X249827245Y-124816662D01*
X249827236Y-124830338D01*
X249827236Y-124830340D01*
X249820265Y-136024078D01*
X249800220Y-136092187D01*
X249746536Y-136138646D01*
X249694265Y-136150000D01*
X165376000Y-136150000D01*
X165307879Y-136129998D01*
X165261386Y-136076342D01*
X165250000Y-136024000D01*
X165250000Y-134019646D01*
X225899500Y-134019646D01*
X225902618Y-134045846D01*
X225948061Y-134148153D01*
X226027287Y-134227241D01*
X226037924Y-134231944D01*
X226037926Y-134231945D01*
X226097462Y-134258265D01*
X226129673Y-134272506D01*
X226155354Y-134275500D01*
X227944646Y-134275500D01*
X227948350Y-134275059D01*
X227948353Y-134275059D01*
X227955746Y-134274179D01*
X227970846Y-134272382D01*
X228073153Y-134226939D01*
X228152241Y-134147713D01*
X228197506Y-134045327D01*
X228200500Y-134019646D01*
X228200500Y-132230354D01*
X228197382Y-132204154D01*
X228151939Y-132101847D01*
X228072713Y-132022759D01*
X228062076Y-132018056D01*
X228062074Y-132018055D01*
X228002538Y-131991735D01*
X227970327Y-131977494D01*
X227944646Y-131974500D01*
X227228804Y-131974500D01*
X227160683Y-131954498D01*
X227114190Y-131900842D01*
X227104086Y-131830568D01*
X227133580Y-131765988D01*
X227193306Y-131727604D01*
X227210724Y-131723804D01*
X227313898Y-131708845D01*
X227325081Y-131706160D01*
X227514283Y-131641934D01*
X227524786Y-131637258D01*
X227699124Y-131539625D01*
X227708596Y-131533115D01*
X227862219Y-131405348D01*
X227870348Y-131397219D01*
X227998115Y-131243596D01*
X228004625Y-131234124D01*
X228102258Y-131059786D01*
X228106934Y-131049283D01*
X228171160Y-130860078D01*
X228172396Y-130854933D01*
X228170694Y-130842993D01*
X228157126Y-130839000D01*
X225946030Y-130839000D01*
X225932499Y-130842973D01*
X225931207Y-130851962D01*
X225959897Y-130964928D01*
X225963735Y-130975766D01*
X226047386Y-131157218D01*
X226053137Y-131167179D01*
X226168455Y-131330350D01*
X226175921Y-131339092D01*
X226319047Y-131478520D01*
X226327981Y-131485754D01*
X226494112Y-131596760D01*
X226504225Y-131602251D01*
X226687805Y-131681123D01*
X226698738Y-131684675D01*
X226879634Y-131725607D01*
X226941660Y-131760150D01*
X226975165Y-131822743D01*
X226969511Y-131893514D01*
X226926492Y-131949993D01*
X226859768Y-131974249D01*
X226851826Y-131974500D01*
X226155354Y-131974500D01*
X226151650Y-131974941D01*
X226151647Y-131974941D01*
X226144254Y-131975821D01*
X226129154Y-131977618D01*
X226026847Y-132023061D01*
X225947759Y-132102287D01*
X225902494Y-132204673D01*
X225899500Y-132230354D01*
X225899500Y-134019646D01*
X165250000Y-134019646D01*
X165250000Y-131624646D01*
X169179500Y-131624646D01*
X169182618Y-131650846D01*
X169186456Y-131659486D01*
X169186456Y-131659487D01*
X169223314Y-131742467D01*
X169228061Y-131753153D01*
X169307287Y-131832241D01*
X169317924Y-131836944D01*
X169317926Y-131836945D01*
X169368223Y-131859181D01*
X169409673Y-131877506D01*
X169435354Y-131880500D01*
X170524646Y-131880500D01*
X170528350Y-131880059D01*
X170528353Y-131880059D01*
X170535746Y-131879179D01*
X170550846Y-131877382D01*
X170569465Y-131869112D01*
X170642518Y-131836663D01*
X170653153Y-131831939D01*
X170692929Y-131792093D01*
X170755211Y-131758014D01*
X170826031Y-131763017D01*
X170851090Y-131775675D01*
X170886789Y-131799036D01*
X170893381Y-131801488D01*
X170893384Y-131801489D01*
X170950535Y-131822743D01*
X171055116Y-131861636D01*
X171062097Y-131862567D01*
X171062099Y-131862568D01*
X171226149Y-131884457D01*
X171226153Y-131884457D01*
X171233130Y-131885388D01*
X171240142Y-131884750D01*
X171240146Y-131884750D01*
X171404960Y-131869751D01*
X171404961Y-131869751D01*
X171411981Y-131869112D01*
X171582782Y-131813615D01*
X171618884Y-131792094D01*
X171730992Y-131725265D01*
X171730994Y-131725264D01*
X171737044Y-131721657D01*
X171867099Y-131597807D01*
X171883871Y-131572564D01*
X171962582Y-131454093D01*
X171966483Y-131448222D01*
X172007938Y-131339092D01*
X172027757Y-131286919D01*
X172027758Y-131286914D01*
X172030257Y-131280336D01*
X172031237Y-131273364D01*
X172054700Y-131106416D01*
X172054700Y-131106411D01*
X172055251Y-131102493D01*
X172055529Y-131082611D01*
X172574394Y-131082611D01*
X172592999Y-131251135D01*
X172600867Y-131272634D01*
X172646459Y-131397219D01*
X172651266Y-131410356D01*
X172655502Y-131416659D01*
X172655502Y-131416660D01*
X172668574Y-131436113D01*
X172745830Y-131551083D01*
X172751442Y-131556190D01*
X172751445Y-131556193D01*
X172865612Y-131660077D01*
X172865616Y-131660080D01*
X172871233Y-131665191D01*
X172877906Y-131668814D01*
X172877910Y-131668817D01*
X173013558Y-131742467D01*
X173013560Y-131742468D01*
X173020235Y-131746092D01*
X173027584Y-131748020D01*
X173176883Y-131787188D01*
X173176885Y-131787188D01*
X173184233Y-131789116D01*
X173270609Y-131790473D01*
X173346161Y-131791660D01*
X173346164Y-131791660D01*
X173353760Y-131791779D01*
X173361165Y-131790083D01*
X173361166Y-131790083D01*
X173466371Y-131765988D01*
X173519029Y-131753928D01*
X173670498Y-131677747D01*
X173799423Y-131567634D01*
X173898361Y-131429947D01*
X173908250Y-131405348D01*
X173958766Y-131279687D01*
X173958767Y-131279685D01*
X173961601Y-131272634D01*
X173975767Y-131173096D01*
X174005168Y-131108473D01*
X174011415Y-131101754D01*
X174421364Y-130691805D01*
X174425173Y-130688152D01*
X174462385Y-130653934D01*
X174468712Y-130648116D01*
X174490465Y-130613032D01*
X174497182Y-130603260D01*
X174522128Y-130570395D01*
X174527224Y-130557524D01*
X174537292Y-130537507D01*
X174538627Y-130535354D01*
X174544582Y-130525750D01*
X174548761Y-130511368D01*
X174556094Y-130486126D01*
X174559939Y-130474897D01*
X174571968Y-130444514D01*
X174571968Y-130444512D01*
X174575130Y-130436527D01*
X174576577Y-130422758D01*
X174580890Y-130400776D01*
X174584751Y-130387488D01*
X174585500Y-130377288D01*
X174585500Y-130344471D01*
X174586190Y-130331300D01*
X174586558Y-130327799D01*
X225929774Y-130327799D01*
X225936506Y-130331000D01*
X226777885Y-130331000D01*
X226793124Y-130326525D01*
X226794329Y-130325135D01*
X226796000Y-130317452D01*
X226796000Y-130312885D01*
X227304000Y-130312885D01*
X227308475Y-130328124D01*
X227309865Y-130329329D01*
X227317548Y-130331000D01*
X228155196Y-130331000D01*
X228168727Y-130327027D01*
X228169896Y-130318893D01*
X228129785Y-130176670D01*
X228125663Y-130165931D01*
X228037292Y-129986733D01*
X228031282Y-129976925D01*
X227911731Y-129816827D01*
X227904041Y-129808287D01*
X227757315Y-129672654D01*
X227748190Y-129665653D01*
X227579209Y-129559034D01*
X227568965Y-129553814D01*
X227383377Y-129479772D01*
X227372356Y-129476507D01*
X227321770Y-129466445D01*
X227308894Y-129467597D01*
X227304000Y-129482753D01*
X227304000Y-130312885D01*
X226796000Y-130312885D01*
X226796000Y-129479823D01*
X226792194Y-129466861D01*
X226777278Y-129464925D01*
X226756780Y-129468447D01*
X226745660Y-129471427D01*
X226558207Y-129540582D01*
X226547829Y-129545532D01*
X226376119Y-129647688D01*
X226366807Y-129654453D01*
X226216587Y-129786194D01*
X226208670Y-129794537D01*
X226084975Y-129951443D01*
X226078704Y-129961100D01*
X225985679Y-130137912D01*
X225981273Y-130148549D01*
X225929993Y-130313698D01*
X225929774Y-130327799D01*
X174586558Y-130327799D01*
X174587494Y-130318893D01*
X174590180Y-130293338D01*
X174587942Y-130280103D01*
X174587264Y-130276096D01*
X174585500Y-130255084D01*
X174585500Y-123694646D01*
X242574500Y-123694646D01*
X242577618Y-123720846D01*
X242623061Y-123823153D01*
X242631294Y-123831372D01*
X242631295Y-123831373D01*
X242656901Y-123856934D01*
X242702287Y-123902241D01*
X242712924Y-123906944D01*
X242712926Y-123906945D01*
X242747858Y-123922388D01*
X242804673Y-123947506D01*
X242830354Y-123950500D01*
X244619646Y-123950500D01*
X244623350Y-123950059D01*
X244623353Y-123950059D01*
X244630746Y-123949179D01*
X244645846Y-123947382D01*
X244704881Y-123921160D01*
X244737518Y-123906663D01*
X244748153Y-123901939D01*
X244827241Y-123822713D01*
X244832084Y-123811760D01*
X244858265Y-123752538D01*
X244872506Y-123720327D01*
X244875500Y-123694646D01*
X244875500Y-123010673D01*
X244895502Y-122942552D01*
X244949158Y-122896059D01*
X245019432Y-122885955D01*
X245084012Y-122915449D01*
X245122396Y-122975175D01*
X245123658Y-122980784D01*
X245123796Y-122980749D01*
X245175845Y-123185690D01*
X245264369Y-123377714D01*
X245386405Y-123550391D01*
X245390539Y-123554418D01*
X245530727Y-123690983D01*
X245537865Y-123697937D01*
X245542661Y-123701142D01*
X245542664Y-123701144D01*
X245685936Y-123796875D01*
X245713677Y-123815411D01*
X245718985Y-123817692D01*
X245718986Y-123817692D01*
X245902650Y-123896600D01*
X245902653Y-123896601D01*
X245907953Y-123898878D01*
X245913582Y-123900152D01*
X245913583Y-123900152D01*
X246108550Y-123944269D01*
X246108553Y-123944269D01*
X246114186Y-123945544D01*
X246119957Y-123945771D01*
X246119959Y-123945771D01*
X246181989Y-123948208D01*
X246325470Y-123953846D01*
X246331179Y-123953018D01*
X246331183Y-123953018D01*
X246529015Y-123924333D01*
X246529019Y-123924332D01*
X246534730Y-123923504D01*
X246621579Y-123894023D01*
X246729483Y-123857395D01*
X246729488Y-123857393D01*
X246734955Y-123855537D01*
X246778103Y-123831373D01*
X246914395Y-123755046D01*
X246914399Y-123755043D01*
X246919442Y-123752219D01*
X247082012Y-123617012D01*
X247217219Y-123454442D01*
X247220043Y-123449399D01*
X247220046Y-123449395D01*
X247317713Y-123274998D01*
X247317714Y-123274996D01*
X247320537Y-123269955D01*
X247322393Y-123264488D01*
X247322395Y-123264483D01*
X247386647Y-123075200D01*
X247388504Y-123069730D01*
X247389333Y-123064015D01*
X247410090Y-122920860D01*
X247439660Y-122856315D01*
X247499432Y-122818003D01*
X247570429Y-122818087D01*
X247630109Y-122856542D01*
X247659525Y-122921158D01*
X247660515Y-122930695D01*
X247663796Y-122980749D01*
X247665217Y-122986345D01*
X247665218Y-122986350D01*
X247686446Y-123069933D01*
X247715845Y-123185690D01*
X247804369Y-123377714D01*
X247926405Y-123550391D01*
X247930539Y-123554418D01*
X248070727Y-123690983D01*
X248077865Y-123697937D01*
X248082661Y-123701142D01*
X248082664Y-123701144D01*
X248225936Y-123796875D01*
X248253677Y-123815411D01*
X248258985Y-123817692D01*
X248258986Y-123817692D01*
X248442650Y-123896600D01*
X248442653Y-123896601D01*
X248447953Y-123898878D01*
X248453582Y-123900152D01*
X248453583Y-123900152D01*
X248648550Y-123944269D01*
X248648553Y-123944269D01*
X248654186Y-123945544D01*
X248659957Y-123945771D01*
X248659959Y-123945771D01*
X248721989Y-123948208D01*
X248865470Y-123953846D01*
X248871179Y-123953018D01*
X248871183Y-123953018D01*
X249069015Y-123924333D01*
X249069019Y-123924332D01*
X249074730Y-123923504D01*
X249161579Y-123894023D01*
X249269483Y-123857395D01*
X249269488Y-123857393D01*
X249274955Y-123855537D01*
X249318103Y-123831373D01*
X249454395Y-123755046D01*
X249454399Y-123755043D01*
X249459442Y-123752219D01*
X249622012Y-123617012D01*
X249757219Y-123454442D01*
X249760043Y-123449399D01*
X249760046Y-123449395D01*
X249857713Y-123274998D01*
X249857714Y-123274996D01*
X249860537Y-123269955D01*
X249862393Y-123264488D01*
X249862395Y-123264483D01*
X249926647Y-123075200D01*
X249928504Y-123069730D01*
X249929333Y-123064015D01*
X249950090Y-122920860D01*
X249979660Y-122856315D01*
X250039432Y-122818003D01*
X250110429Y-122818087D01*
X250170109Y-122856542D01*
X250199525Y-122921158D01*
X250200515Y-122930695D01*
X250203796Y-122980749D01*
X250205217Y-122986345D01*
X250205218Y-122986350D01*
X250226446Y-123069933D01*
X250255845Y-123185690D01*
X250344369Y-123377714D01*
X250466405Y-123550391D01*
X250470539Y-123554418D01*
X250610727Y-123690983D01*
X250617865Y-123697937D01*
X250622661Y-123701142D01*
X250622664Y-123701144D01*
X250765936Y-123796875D01*
X250793677Y-123815411D01*
X250798985Y-123817692D01*
X250798986Y-123817692D01*
X250982650Y-123896600D01*
X250982653Y-123896601D01*
X250987953Y-123898878D01*
X250993582Y-123900152D01*
X250993583Y-123900152D01*
X251188550Y-123944269D01*
X251188553Y-123944269D01*
X251194186Y-123945544D01*
X251199957Y-123945771D01*
X251199959Y-123945771D01*
X251261989Y-123948208D01*
X251405470Y-123953846D01*
X251411179Y-123953018D01*
X251411183Y-123953018D01*
X251609015Y-123924333D01*
X251609019Y-123924332D01*
X251614730Y-123923504D01*
X251701579Y-123894023D01*
X251809483Y-123857395D01*
X251809488Y-123857393D01*
X251814955Y-123855537D01*
X251858103Y-123831373D01*
X251994395Y-123755046D01*
X251994399Y-123755043D01*
X251999442Y-123752219D01*
X252162012Y-123617012D01*
X252297219Y-123454442D01*
X252300043Y-123449399D01*
X252300046Y-123449395D01*
X252397713Y-123274998D01*
X252397714Y-123274996D01*
X252400537Y-123269955D01*
X252402393Y-123264488D01*
X252402395Y-123264483D01*
X252466647Y-123075200D01*
X252468504Y-123069730D01*
X252469935Y-123059865D01*
X252490435Y-122918479D01*
X252520005Y-122853934D01*
X252579777Y-122815622D01*
X252650774Y-122815706D01*
X252710454Y-122854161D01*
X252739870Y-122918777D01*
X252740861Y-122928320D01*
X252743914Y-122974902D01*
X252745715Y-122986272D01*
X252794896Y-123179923D01*
X252798737Y-123190769D01*
X252882386Y-123372218D01*
X252888137Y-123382179D01*
X253003455Y-123545350D01*
X253010921Y-123554092D01*
X253154047Y-123693520D01*
X253162981Y-123700754D01*
X253329112Y-123811760D01*
X253339225Y-123817251D01*
X253522805Y-123896123D01*
X253533738Y-123899675D01*
X253613331Y-123917685D01*
X253627405Y-123916796D01*
X253631000Y-123907397D01*
X253631000Y-123907165D01*
X254139000Y-123907165D01*
X254142966Y-123920671D01*
X254154964Y-123922388D01*
X254160078Y-123921160D01*
X254349283Y-123856934D01*
X254359786Y-123852258D01*
X254534124Y-123754625D01*
X254543596Y-123748115D01*
X254697219Y-123620348D01*
X254705348Y-123612219D01*
X254833115Y-123458596D01*
X254839625Y-123449124D01*
X254937258Y-123274786D01*
X254941934Y-123264283D01*
X255006160Y-123075078D01*
X255007396Y-123069933D01*
X255005694Y-123057993D01*
X254992126Y-123054000D01*
X254157115Y-123054000D01*
X254141876Y-123058475D01*
X254140671Y-123059865D01*
X254139000Y-123067548D01*
X254139000Y-123907165D01*
X253631000Y-123907165D01*
X253631000Y-122527885D01*
X254139000Y-122527885D01*
X254143475Y-122543124D01*
X254144865Y-122544329D01*
X254152548Y-122546000D01*
X254990196Y-122546000D01*
X255003727Y-122542027D01*
X255004896Y-122533893D01*
X254964785Y-122391670D01*
X254960663Y-122380931D01*
X254872292Y-122201733D01*
X254866282Y-122191925D01*
X254746731Y-122031827D01*
X254739041Y-122023287D01*
X254592315Y-121887654D01*
X254583190Y-121880653D01*
X254414209Y-121774034D01*
X254403965Y-121768814D01*
X254218377Y-121694772D01*
X254207356Y-121691507D01*
X254156770Y-121681445D01*
X254143894Y-121682597D01*
X254139000Y-121697753D01*
X254139000Y-122527885D01*
X253631000Y-122527885D01*
X253631000Y-121694823D01*
X253627194Y-121681861D01*
X253612278Y-121679925D01*
X253591780Y-121683447D01*
X253580660Y-121686427D01*
X253393207Y-121755582D01*
X253382829Y-121760532D01*
X253211119Y-121862688D01*
X253201807Y-121869453D01*
X253051587Y-122001194D01*
X253043670Y-122009537D01*
X252919975Y-122166443D01*
X252913704Y-122176100D01*
X252820679Y-122352912D01*
X252816273Y-122363549D01*
X252757025Y-122554356D01*
X252754632Y-122565614D01*
X252740308Y-122686634D01*
X252712437Y-122751932D01*
X252653689Y-122791795D01*
X252582714Y-122793569D01*
X252522048Y-122756690D01*
X252490950Y-122692866D01*
X252489712Y-122683366D01*
X252481081Y-122589440D01*
X252474362Y-122565614D01*
X252463690Y-122527775D01*
X252423686Y-122385931D01*
X252412649Y-122363549D01*
X252332719Y-122201469D01*
X252330165Y-122196290D01*
X252203651Y-122026867D01*
X252076236Y-121909086D01*
X252052622Y-121887257D01*
X252052620Y-121887255D01*
X252048381Y-121883337D01*
X252019696Y-121865238D01*
X251874434Y-121773584D01*
X251874433Y-121773584D01*
X251869554Y-121770505D01*
X251673160Y-121692152D01*
X251667503Y-121691027D01*
X251667497Y-121691025D01*
X251471442Y-121652028D01*
X251471440Y-121652028D01*
X251465775Y-121650901D01*
X251460000Y-121650825D01*
X251459996Y-121650825D01*
X251353976Y-121649437D01*
X251254346Y-121648133D01*
X251248649Y-121649112D01*
X251248648Y-121649112D01*
X251051650Y-121682962D01*
X251051649Y-121682962D01*
X251045953Y-121683941D01*
X250847575Y-121757127D01*
X250842614Y-121760079D01*
X250842613Y-121760079D01*
X250796553Y-121787482D01*
X250665856Y-121865238D01*
X250506881Y-122004655D01*
X250375976Y-122170708D01*
X250373287Y-122175819D01*
X250373285Y-122175822D01*
X250359792Y-122201469D01*
X250277523Y-122357836D01*
X250214820Y-122559773D01*
X250214141Y-122565510D01*
X250200088Y-122684239D01*
X250172217Y-122749537D01*
X250113469Y-122789401D01*
X250042494Y-122791174D01*
X249981828Y-122754295D01*
X249950730Y-122690471D01*
X249949490Y-122680958D01*
X249944716Y-122628995D01*
X249941081Y-122589440D01*
X249934362Y-122565614D01*
X249923690Y-122527775D01*
X249883686Y-122385931D01*
X249872649Y-122363549D01*
X249792719Y-122201469D01*
X249790165Y-122196290D01*
X249663651Y-122026867D01*
X249536236Y-121909086D01*
X249512622Y-121887257D01*
X249512620Y-121887255D01*
X249508381Y-121883337D01*
X249479696Y-121865238D01*
X249334434Y-121773584D01*
X249334433Y-121773584D01*
X249329554Y-121770505D01*
X249133160Y-121692152D01*
X249127503Y-121691027D01*
X249127497Y-121691025D01*
X248931442Y-121652028D01*
X248931440Y-121652028D01*
X248925775Y-121650901D01*
X248920000Y-121650825D01*
X248919996Y-121650825D01*
X248813976Y-121649437D01*
X248714346Y-121648133D01*
X248708649Y-121649112D01*
X248708648Y-121649112D01*
X248511650Y-121682962D01*
X248511649Y-121682962D01*
X248505953Y-121683941D01*
X248307575Y-121757127D01*
X248302614Y-121760079D01*
X248302613Y-121760079D01*
X248256553Y-121787482D01*
X248125856Y-121865238D01*
X247966881Y-122004655D01*
X247835976Y-122170708D01*
X247833287Y-122175819D01*
X247833285Y-122175822D01*
X247819792Y-122201469D01*
X247737523Y-122357836D01*
X247674820Y-122559773D01*
X247674141Y-122565510D01*
X247660088Y-122684239D01*
X247632217Y-122749537D01*
X247573469Y-122789401D01*
X247502494Y-122791174D01*
X247441828Y-122754295D01*
X247410730Y-122690471D01*
X247409490Y-122680958D01*
X247404716Y-122628995D01*
X247401081Y-122589440D01*
X247394362Y-122565614D01*
X247383690Y-122527775D01*
X247343686Y-122385931D01*
X247332649Y-122363549D01*
X247252719Y-122201469D01*
X247250165Y-122196290D01*
X247123651Y-122026867D01*
X246996236Y-121909086D01*
X246972622Y-121887257D01*
X246972620Y-121887255D01*
X246968381Y-121883337D01*
X246939696Y-121865238D01*
X246794434Y-121773584D01*
X246794433Y-121773584D01*
X246789554Y-121770505D01*
X246593160Y-121692152D01*
X246587503Y-121691027D01*
X246587497Y-121691025D01*
X246391442Y-121652028D01*
X246391440Y-121652028D01*
X246385775Y-121650901D01*
X246380000Y-121650825D01*
X246379996Y-121650825D01*
X246273976Y-121649437D01*
X246174346Y-121648133D01*
X246168649Y-121649112D01*
X246168648Y-121649112D01*
X245971650Y-121682962D01*
X245971649Y-121682962D01*
X245965953Y-121683941D01*
X245767575Y-121757127D01*
X245762614Y-121760079D01*
X245762613Y-121760079D01*
X245716553Y-121787482D01*
X245585856Y-121865238D01*
X245426881Y-122004655D01*
X245295976Y-122170708D01*
X245293287Y-122175819D01*
X245293285Y-122175822D01*
X245279792Y-122201469D01*
X245197523Y-122357836D01*
X245134820Y-122559773D01*
X245134141Y-122565510D01*
X245126627Y-122628995D01*
X245098756Y-122694292D01*
X245040008Y-122734156D01*
X244969034Y-122735930D01*
X244908367Y-122699051D01*
X244877269Y-122635227D01*
X244875500Y-122614185D01*
X244875500Y-121905354D01*
X244872382Y-121879154D01*
X244826939Y-121776847D01*
X244818444Y-121768366D01*
X244755945Y-121705977D01*
X244747713Y-121697759D01*
X244737076Y-121693056D01*
X244737074Y-121693055D01*
X244677538Y-121666735D01*
X244645327Y-121652494D01*
X244619646Y-121649500D01*
X242830354Y-121649500D01*
X242826650Y-121649941D01*
X242826647Y-121649941D01*
X242819254Y-121650821D01*
X242804154Y-121652618D01*
X242795514Y-121656456D01*
X242795513Y-121656456D01*
X242729131Y-121685942D01*
X242701847Y-121698061D01*
X242622759Y-121777287D01*
X242577494Y-121879673D01*
X242574500Y-121905354D01*
X242574500Y-123694646D01*
X174585500Y-123694646D01*
X174585500Y-117769754D01*
X215404967Y-117769754D01*
X215418796Y-117980749D01*
X215420217Y-117986345D01*
X215420218Y-117986350D01*
X215442784Y-118075200D01*
X215470845Y-118185690D01*
X215559369Y-118377714D01*
X215681405Y-118550391D01*
X215685539Y-118554418D01*
X215825727Y-118690983D01*
X215832865Y-118697937D01*
X215837661Y-118701142D01*
X215837664Y-118701144D01*
X215980936Y-118796875D01*
X216008677Y-118815411D01*
X216013985Y-118817692D01*
X216013986Y-118817692D01*
X216197650Y-118896600D01*
X216197653Y-118896601D01*
X216202953Y-118898878D01*
X216208582Y-118900152D01*
X216208583Y-118900152D01*
X216403550Y-118944269D01*
X216403553Y-118944269D01*
X216409186Y-118945544D01*
X216414957Y-118945771D01*
X216414959Y-118945771D01*
X216476989Y-118948208D01*
X216620470Y-118953846D01*
X216626179Y-118953018D01*
X216626183Y-118953018D01*
X216824015Y-118924333D01*
X216824019Y-118924332D01*
X216829730Y-118923504D01*
X216916579Y-118894023D01*
X217024483Y-118857395D01*
X217024488Y-118857393D01*
X217029955Y-118855537D01*
X217073103Y-118831373D01*
X217209395Y-118755046D01*
X217209399Y-118755043D01*
X217214442Y-118752219D01*
X217377012Y-118617012D01*
X217512219Y-118454442D01*
X217515043Y-118449399D01*
X217515046Y-118449395D01*
X217612713Y-118274998D01*
X217612714Y-118274996D01*
X217615537Y-118269955D01*
X217617393Y-118264488D01*
X217617395Y-118264483D01*
X217681647Y-118075200D01*
X217683504Y-118069730D01*
X217698804Y-117964211D01*
X217728374Y-117899665D01*
X217788146Y-117861353D01*
X217859143Y-117861437D01*
X217918823Y-117899892D01*
X217948239Y-117964508D01*
X217949500Y-117982291D01*
X217949500Y-118694646D01*
X217952618Y-118720846D01*
X217998061Y-118823153D01*
X218006294Y-118831372D01*
X218006295Y-118831373D01*
X218032363Y-118857395D01*
X218077287Y-118902241D01*
X218087924Y-118906944D01*
X218087926Y-118906945D01*
X218125382Y-118923504D01*
X218179673Y-118947506D01*
X218205354Y-118950500D01*
X219994646Y-118950500D01*
X219998350Y-118950059D01*
X219998353Y-118950059D01*
X220005746Y-118949179D01*
X220020846Y-118947382D01*
X220123153Y-118901939D01*
X220202241Y-118822713D01*
X220247506Y-118720327D01*
X220250500Y-118694646D01*
X220250500Y-116905354D01*
X220247382Y-116879154D01*
X220201939Y-116776847D01*
X220193444Y-116768366D01*
X220138828Y-116713846D01*
X220122713Y-116697759D01*
X220112076Y-116693056D01*
X220112074Y-116693055D01*
X220029614Y-116656600D01*
X220020327Y-116652494D01*
X219994646Y-116649500D01*
X219282291Y-116649500D01*
X219214170Y-116629498D01*
X219167677Y-116575842D01*
X219157573Y-116505568D01*
X219187067Y-116440988D01*
X219246793Y-116402604D01*
X219264211Y-116398804D01*
X219364013Y-116384333D01*
X219364014Y-116384333D01*
X219369730Y-116383504D01*
X219448987Y-116356600D01*
X219564483Y-116317395D01*
X219564488Y-116317393D01*
X219569955Y-116315537D01*
X219587563Y-116305676D01*
X219749395Y-116215046D01*
X219749399Y-116215043D01*
X219754442Y-116212219D01*
X219917012Y-116077012D01*
X220052219Y-115914442D01*
X220055043Y-115909399D01*
X220055046Y-115909395D01*
X220152713Y-115734998D01*
X220152714Y-115734996D01*
X220155537Y-115729955D01*
X220157393Y-115724488D01*
X220157395Y-115724483D01*
X220214483Y-115556305D01*
X220223496Y-115529754D01*
X224154967Y-115529754D01*
X224168796Y-115740749D01*
X224170217Y-115746345D01*
X224170218Y-115746350D01*
X224192090Y-115832469D01*
X224220845Y-115945690D01*
X224309369Y-116137714D01*
X224431405Y-116310391D01*
X224435539Y-116314418D01*
X224559474Y-116435150D01*
X224582865Y-116457937D01*
X224587661Y-116461142D01*
X224587664Y-116461144D01*
X224727046Y-116554276D01*
X224758677Y-116575411D01*
X224763985Y-116577692D01*
X224763986Y-116577692D01*
X224947650Y-116656600D01*
X224947653Y-116656601D01*
X224952953Y-116658878D01*
X224958582Y-116660152D01*
X224958583Y-116660152D01*
X225153550Y-116704269D01*
X225153553Y-116704269D01*
X225159186Y-116705544D01*
X225164957Y-116705771D01*
X225164959Y-116705771D01*
X225226989Y-116708208D01*
X225370470Y-116713846D01*
X225376179Y-116713018D01*
X225376183Y-116713018D01*
X225574015Y-116684333D01*
X225574019Y-116684332D01*
X225579730Y-116683504D01*
X225661839Y-116655632D01*
X225774483Y-116617395D01*
X225774488Y-116617393D01*
X225779955Y-116615537D01*
X225784998Y-116612713D01*
X225959395Y-116515046D01*
X225959399Y-116515043D01*
X225964442Y-116512219D01*
X226127012Y-116377012D01*
X226262219Y-116214442D01*
X226265043Y-116209399D01*
X226265046Y-116209395D01*
X226362713Y-116034998D01*
X226362714Y-116034996D01*
X226365537Y-116029955D01*
X226367393Y-116024488D01*
X226367395Y-116024483D01*
X226431647Y-115835200D01*
X226433504Y-115829730D01*
X226448765Y-115724483D01*
X226463314Y-115624140D01*
X226463314Y-115624138D01*
X226463846Y-115620470D01*
X226465429Y-115560000D01*
X226446081Y-115349440D01*
X226388686Y-115145931D01*
X226377553Y-115123354D01*
X226297719Y-114961469D01*
X226295165Y-114956290D01*
X226168651Y-114786867D01*
X226032996Y-114661469D01*
X226017622Y-114647257D01*
X226017620Y-114647255D01*
X226013381Y-114643337D01*
X225834554Y-114530505D01*
X225638160Y-114452152D01*
X225632500Y-114451026D01*
X225632496Y-114451025D01*
X225433764Y-114411495D01*
X225370854Y-114378587D01*
X225335722Y-114316892D01*
X225339522Y-114245998D01*
X225381048Y-114188412D01*
X225440265Y-114163220D01*
X225573898Y-114143844D01*
X225585081Y-114141160D01*
X225774283Y-114076934D01*
X225784786Y-114072258D01*
X225959124Y-113974625D01*
X225968596Y-113968115D01*
X226122219Y-113840348D01*
X226130348Y-113832219D01*
X226258115Y-113678596D01*
X226264625Y-113669124D01*
X226362258Y-113494786D01*
X226366934Y-113484283D01*
X226431160Y-113295078D01*
X226432396Y-113289933D01*
X226430694Y-113277993D01*
X226417126Y-113274000D01*
X224206030Y-113274000D01*
X224192499Y-113277973D01*
X224191207Y-113286962D01*
X224219897Y-113399928D01*
X224223735Y-113410766D01*
X224307386Y-113592218D01*
X224313137Y-113602179D01*
X224428455Y-113765350D01*
X224435921Y-113774092D01*
X224579047Y-113913520D01*
X224587981Y-113920754D01*
X224754112Y-114031760D01*
X224764225Y-114037251D01*
X224947805Y-114116123D01*
X224958738Y-114119675D01*
X225153615Y-114163771D01*
X225170753Y-114166027D01*
X225170480Y-114168100D01*
X225228986Y-114187816D01*
X225273326Y-114243264D01*
X225280650Y-114313882D01*
X225248633Y-114377249D01*
X225187439Y-114413247D01*
X225178081Y-114415224D01*
X225010953Y-114443941D01*
X224812575Y-114517127D01*
X224807614Y-114520079D01*
X224807613Y-114520079D01*
X224790089Y-114530505D01*
X224630856Y-114625238D01*
X224471881Y-114764655D01*
X224340976Y-114930708D01*
X224338287Y-114935819D01*
X224338285Y-114935822D01*
X224291098Y-115025510D01*
X224242523Y-115117836D01*
X224179820Y-115319773D01*
X224154967Y-115529754D01*
X220223496Y-115529754D01*
X220223504Y-115529730D01*
X220237243Y-115434981D01*
X220253314Y-115324140D01*
X220253314Y-115324138D01*
X220253846Y-115320470D01*
X220255429Y-115260000D01*
X220236081Y-115049440D01*
X220178686Y-114845931D01*
X220167553Y-114823354D01*
X220087719Y-114661469D01*
X220085165Y-114656290D01*
X219958651Y-114486867D01*
X219841514Y-114378587D01*
X219807622Y-114347257D01*
X219807620Y-114347255D01*
X219803381Y-114343337D01*
X219624554Y-114230505D01*
X219428160Y-114152152D01*
X219422500Y-114151026D01*
X219422496Y-114151025D01*
X219223764Y-114111495D01*
X219160854Y-114078587D01*
X219125722Y-114016892D01*
X219129522Y-113945998D01*
X219171048Y-113888412D01*
X219230265Y-113863220D01*
X219363898Y-113843844D01*
X219375081Y-113841160D01*
X219564283Y-113776934D01*
X219574786Y-113772258D01*
X219749124Y-113674625D01*
X219758596Y-113668115D01*
X219912219Y-113540348D01*
X219920348Y-113532219D01*
X220048115Y-113378596D01*
X220054625Y-113369124D01*
X220152258Y-113194786D01*
X220156934Y-113184283D01*
X220221160Y-112995078D01*
X220222396Y-112989933D01*
X220220694Y-112977993D01*
X220207126Y-112974000D01*
X217996030Y-112974000D01*
X217982499Y-112977973D01*
X217981207Y-112986962D01*
X218009897Y-113099928D01*
X218013735Y-113110766D01*
X218097386Y-113292218D01*
X218103137Y-113302179D01*
X218218455Y-113465350D01*
X218225921Y-113474092D01*
X218369047Y-113613520D01*
X218377981Y-113620754D01*
X218544112Y-113731760D01*
X218554225Y-113737251D01*
X218737805Y-113816123D01*
X218748738Y-113819675D01*
X218943615Y-113863771D01*
X218960753Y-113866027D01*
X218960480Y-113868100D01*
X219018986Y-113887816D01*
X219063326Y-113943264D01*
X219070650Y-114013882D01*
X219038633Y-114077249D01*
X218977439Y-114113247D01*
X218968081Y-114115224D01*
X218800953Y-114143941D01*
X218602575Y-114217127D01*
X218597614Y-114220079D01*
X218597613Y-114220079D01*
X218439282Y-114314276D01*
X218420856Y-114325238D01*
X218261881Y-114464655D01*
X218130976Y-114630708D01*
X218128287Y-114635819D01*
X218128285Y-114635822D01*
X218114792Y-114661469D01*
X218032523Y-114817836D01*
X217969820Y-115019773D01*
X217969141Y-115025510D01*
X217955088Y-115144239D01*
X217927217Y-115209537D01*
X217868469Y-115249401D01*
X217797494Y-115251174D01*
X217736828Y-115214295D01*
X217705730Y-115150471D01*
X217704490Y-115140958D01*
X217702873Y-115123354D01*
X217696081Y-115049440D01*
X217638686Y-114845931D01*
X217627553Y-114823354D01*
X217547719Y-114661469D01*
X217545165Y-114656290D01*
X217418651Y-114486867D01*
X217301514Y-114378587D01*
X217267622Y-114347257D01*
X217267620Y-114347255D01*
X217263381Y-114343337D01*
X217084554Y-114230505D01*
X216888160Y-114152152D01*
X216882500Y-114151026D01*
X216882496Y-114151025D01*
X216683764Y-114111495D01*
X216620854Y-114078587D01*
X216585722Y-114016892D01*
X216589522Y-113945998D01*
X216631048Y-113888412D01*
X216690265Y-113863220D01*
X216823898Y-113843844D01*
X216835081Y-113841160D01*
X217024283Y-113776934D01*
X217034786Y-113772258D01*
X217209124Y-113674625D01*
X217218596Y-113668115D01*
X217372219Y-113540348D01*
X217380348Y-113532219D01*
X217508115Y-113378596D01*
X217514625Y-113369124D01*
X217612258Y-113194786D01*
X217616934Y-113184283D01*
X217681160Y-112995081D01*
X217683845Y-112983898D01*
X217712811Y-112784118D01*
X217713441Y-112776736D01*
X217714830Y-112723704D01*
X217714587Y-112716305D01*
X217696117Y-112515285D01*
X217694020Y-112503971D01*
X217682408Y-112462799D01*
X217979774Y-112462799D01*
X217986506Y-112466000D01*
X220205196Y-112466000D01*
X220218727Y-112462027D01*
X220219896Y-112453893D01*
X220179785Y-112311670D01*
X220175663Y-112300931D01*
X220087292Y-112121733D01*
X220081282Y-112111925D01*
X219961731Y-111951827D01*
X219954041Y-111943287D01*
X219807315Y-111807654D01*
X219798190Y-111800653D01*
X219629209Y-111694034D01*
X219618965Y-111688814D01*
X219433385Y-111614775D01*
X219422347Y-111611505D01*
X219222283Y-111571710D01*
X219159373Y-111538803D01*
X219124241Y-111477108D01*
X219128041Y-111406213D01*
X219169567Y-111348627D01*
X219228784Y-111323435D01*
X219363898Y-111303845D01*
X219375081Y-111301160D01*
X219564283Y-111236934D01*
X219574786Y-111232258D01*
X219749124Y-111134625D01*
X219758596Y-111128115D01*
X219912219Y-111000348D01*
X219920348Y-110992219D01*
X220048115Y-110838596D01*
X220054625Y-110829124D01*
X220152258Y-110654786D01*
X220156934Y-110644283D01*
X220221160Y-110455078D01*
X220222396Y-110449933D01*
X220222370Y-110449754D01*
X224154967Y-110449754D01*
X224168796Y-110660749D01*
X224170217Y-110666345D01*
X224170218Y-110666350D01*
X224192026Y-110752218D01*
X224220845Y-110865690D01*
X224309369Y-111057714D01*
X224431405Y-111230391D01*
X224452724Y-111251159D01*
X224561566Y-111357188D01*
X224582865Y-111377937D01*
X224587661Y-111381142D01*
X224587664Y-111381144D01*
X224726567Y-111473956D01*
X224758677Y-111495411D01*
X224763985Y-111497692D01*
X224763986Y-111497692D01*
X224947650Y-111576600D01*
X224947653Y-111576601D01*
X224952953Y-111578878D01*
X224958582Y-111580152D01*
X224958583Y-111580152D01*
X225153550Y-111624269D01*
X225153553Y-111624269D01*
X225159186Y-111625544D01*
X225164958Y-111625771D01*
X225170687Y-111626525D01*
X225170417Y-111628578D01*
X225228983Y-111648295D01*
X225273341Y-111703729D01*
X225280687Y-111774344D01*
X225248690Y-111837722D01*
X225187507Y-111873739D01*
X225178105Y-111875726D01*
X225016780Y-111903447D01*
X225005660Y-111906427D01*
X224818207Y-111975582D01*
X224807829Y-111980532D01*
X224636119Y-112082688D01*
X224626807Y-112089453D01*
X224476587Y-112221194D01*
X224468670Y-112229537D01*
X224344975Y-112386443D01*
X224338704Y-112396100D01*
X224245679Y-112572912D01*
X224241273Y-112583549D01*
X224189993Y-112748698D01*
X224189774Y-112762799D01*
X224196506Y-112766000D01*
X226415196Y-112766000D01*
X226428727Y-112762027D01*
X226429896Y-112753893D01*
X226389785Y-112611670D01*
X226385663Y-112600931D01*
X226297292Y-112421733D01*
X226291282Y-112411925D01*
X226171731Y-112251827D01*
X226164041Y-112243287D01*
X226017315Y-112107654D01*
X226008190Y-112100653D01*
X225839209Y-111994034D01*
X225828965Y-111988814D01*
X225643385Y-111914775D01*
X225632347Y-111911505D01*
X225433753Y-111872003D01*
X225370843Y-111839096D01*
X225335711Y-111777401D01*
X225339511Y-111706506D01*
X225381036Y-111648920D01*
X225440253Y-111623728D01*
X225574015Y-111604333D01*
X225574019Y-111604332D01*
X225579730Y-111603504D01*
X225662761Y-111575319D01*
X225774483Y-111537395D01*
X225774488Y-111537393D01*
X225779955Y-111535537D01*
X225784998Y-111532713D01*
X225959395Y-111435046D01*
X225959399Y-111435043D01*
X225964442Y-111432219D01*
X226127012Y-111297012D01*
X226262219Y-111134442D01*
X226265043Y-111129399D01*
X226265046Y-111129395D01*
X226362713Y-110954998D01*
X226362714Y-110954996D01*
X226365537Y-110949955D01*
X226367393Y-110944488D01*
X226367395Y-110944483D01*
X226431647Y-110755200D01*
X226433504Y-110749730D01*
X226437122Y-110724783D01*
X226463314Y-110544140D01*
X226463314Y-110544138D01*
X226463846Y-110540470D01*
X226465429Y-110480000D01*
X226446081Y-110269440D01*
X226388686Y-110065931D01*
X226384531Y-110057504D01*
X226297719Y-109881469D01*
X226295165Y-109876290D01*
X226168651Y-109706867D01*
X226060441Y-109606839D01*
X226017622Y-109567257D01*
X226017620Y-109567255D01*
X226013381Y-109563337D01*
X225834554Y-109450505D01*
X225638160Y-109372152D01*
X225632503Y-109371027D01*
X225632497Y-109371025D01*
X225435234Y-109331788D01*
X225372324Y-109298881D01*
X225337192Y-109237186D01*
X225340992Y-109166291D01*
X225382517Y-109108705D01*
X225441734Y-109083513D01*
X225574015Y-109064333D01*
X225574019Y-109064332D01*
X225579730Y-109063504D01*
X225658987Y-109036600D01*
X225774483Y-108997395D01*
X225774488Y-108997393D01*
X225779955Y-108995537D01*
X225790094Y-108989859D01*
X225959395Y-108895046D01*
X225959399Y-108895043D01*
X225964442Y-108892219D01*
X226127012Y-108757012D01*
X226262219Y-108594442D01*
X226265043Y-108589399D01*
X226265046Y-108589395D01*
X226362713Y-108414998D01*
X226362714Y-108414996D01*
X226365537Y-108409955D01*
X226367393Y-108404488D01*
X226367395Y-108404483D01*
X226431647Y-108215200D01*
X226433504Y-108209730D01*
X226463846Y-108000470D01*
X226465429Y-107940000D01*
X226446081Y-107729440D01*
X226423421Y-107649091D01*
X226400307Y-107567136D01*
X226401067Y-107496144D01*
X226440088Y-107436832D01*
X226504981Y-107408033D01*
X226575143Y-107418889D01*
X226610671Y-107443840D01*
X228067595Y-108900764D01*
X228101621Y-108963076D01*
X228104500Y-108989859D01*
X228104500Y-110149553D01*
X228081587Y-110222004D01*
X228008113Y-110326547D01*
X227946524Y-110484513D01*
X227945532Y-110492046D01*
X227945532Y-110492047D01*
X227930011Y-110609947D01*
X227924394Y-110652611D01*
X227942999Y-110821135D01*
X227965505Y-110882634D01*
X227998084Y-110971660D01*
X228001266Y-110980356D01*
X228005502Y-110986659D01*
X228005502Y-110986660D01*
X228014700Y-111000348D01*
X228095830Y-111121083D01*
X228101442Y-111126190D01*
X228101445Y-111126193D01*
X228215612Y-111230077D01*
X228215616Y-111230080D01*
X228221233Y-111235191D01*
X228227906Y-111238814D01*
X228227910Y-111238817D01*
X228363558Y-111312467D01*
X228363560Y-111312468D01*
X228370235Y-111316092D01*
X228377584Y-111318020D01*
X228526883Y-111357188D01*
X228526885Y-111357188D01*
X228534233Y-111359116D01*
X228620609Y-111360473D01*
X228696161Y-111361660D01*
X228696164Y-111361660D01*
X228703760Y-111361779D01*
X228711165Y-111360083D01*
X228711166Y-111360083D01*
X228771586Y-111346245D01*
X228869029Y-111323928D01*
X229020498Y-111247747D01*
X229149423Y-111137634D01*
X229248361Y-110999947D01*
X229256237Y-110980356D01*
X229308766Y-110849687D01*
X229308767Y-110849685D01*
X229311601Y-110842634D01*
X229323051Y-110762179D01*
X229334909Y-110678862D01*
X229334909Y-110678859D01*
X229335490Y-110674778D01*
X229335562Y-110667932D01*
X229335602Y-110664135D01*
X229335602Y-110664129D01*
X229335645Y-110660000D01*
X229333840Y-110645080D01*
X229321029Y-110539220D01*
X229315276Y-110491680D01*
X229255345Y-110333077D01*
X229224689Y-110288473D01*
X229177660Y-110220045D01*
X229155500Y-110148678D01*
X229155500Y-108734435D01*
X229155611Y-108729159D01*
X229157727Y-108678666D01*
X229158087Y-108670081D01*
X229148665Y-108629908D01*
X229146502Y-108618239D01*
X229143242Y-108594442D01*
X229140901Y-108577354D01*
X229135403Y-108564649D01*
X229128369Y-108543380D01*
X229127171Y-108538271D01*
X229127170Y-108538269D01*
X229125209Y-108529907D01*
X229121071Y-108522381D01*
X229121070Y-108522377D01*
X229105330Y-108493747D01*
X229100114Y-108483102D01*
X229083720Y-108445217D01*
X229075009Y-108434460D01*
X229062515Y-108415867D01*
X229062038Y-108414998D01*
X229055847Y-108403737D01*
X229049164Y-108395995D01*
X229025960Y-108372791D01*
X229017134Y-108362990D01*
X228998518Y-108340001D01*
X228993112Y-108333325D01*
X228978856Y-108323194D01*
X228962756Y-108309587D01*
X226460877Y-105807708D01*
X226426851Y-105745396D01*
X226430502Y-105680864D01*
X226430299Y-105680815D01*
X226430568Y-105679696D01*
X226430657Y-105678116D01*
X226431647Y-105675200D01*
X226433504Y-105669730D01*
X226454471Y-105525131D01*
X226463314Y-105464140D01*
X226463314Y-105464138D01*
X226463846Y-105460470D01*
X226465429Y-105400000D01*
X226446081Y-105189440D01*
X226440370Y-105169188D01*
X226390255Y-104991496D01*
X226388686Y-104985931D01*
X226377553Y-104963354D01*
X226297719Y-104801469D01*
X226295165Y-104796290D01*
X226168651Y-104626867D01*
X226013381Y-104483337D01*
X225834554Y-104370505D01*
X225638160Y-104292152D01*
X225632503Y-104291027D01*
X225632497Y-104291025D01*
X225435234Y-104251788D01*
X225372324Y-104218881D01*
X225337192Y-104157186D01*
X225340992Y-104086291D01*
X225382517Y-104028705D01*
X225441734Y-104003513D01*
X225574015Y-103984333D01*
X225574019Y-103984332D01*
X225579730Y-103983504D01*
X225658987Y-103956600D01*
X225774483Y-103917395D01*
X225774488Y-103917393D01*
X225779955Y-103915537D01*
X225784998Y-103912713D01*
X225959395Y-103815046D01*
X225959399Y-103815043D01*
X225964442Y-103812219D01*
X226127012Y-103677012D01*
X226262219Y-103514442D01*
X226265043Y-103509399D01*
X226265046Y-103509395D01*
X226362713Y-103334998D01*
X226362714Y-103334996D01*
X226365537Y-103329955D01*
X226367393Y-103324488D01*
X226367395Y-103324483D01*
X226431647Y-103135200D01*
X226433504Y-103129730D01*
X226463846Y-102920470D01*
X226465429Y-102860000D01*
X226446081Y-102649440D01*
X226388686Y-102445931D01*
X226377553Y-102423354D01*
X226297719Y-102261469D01*
X226295165Y-102256290D01*
X226168651Y-102086867D01*
X226013381Y-101943337D01*
X225834554Y-101830505D01*
X225638160Y-101752152D01*
X225632503Y-101751027D01*
X225632497Y-101751025D01*
X225435234Y-101711788D01*
X225372324Y-101678881D01*
X225337192Y-101617186D01*
X225340992Y-101546291D01*
X225382517Y-101488705D01*
X225441734Y-101463513D01*
X225574015Y-101444333D01*
X225574019Y-101444332D01*
X225579730Y-101443504D01*
X225658987Y-101416600D01*
X225774483Y-101377395D01*
X225774488Y-101377393D01*
X225779955Y-101375537D01*
X225784998Y-101372713D01*
X225959395Y-101275046D01*
X225959399Y-101275043D01*
X225964442Y-101272219D01*
X226127012Y-101137012D01*
X226262219Y-100974442D01*
X226265043Y-100969399D01*
X226265046Y-100969395D01*
X226362713Y-100794998D01*
X226362714Y-100794996D01*
X226365537Y-100789955D01*
X226367393Y-100784488D01*
X226367395Y-100784483D01*
X226431647Y-100595200D01*
X226433504Y-100589730D01*
X226463846Y-100380470D01*
X226465429Y-100320000D01*
X226446081Y-100109440D01*
X226388686Y-99905931D01*
X226377553Y-99883354D01*
X226297719Y-99721469D01*
X226295165Y-99716290D01*
X226168651Y-99546867D01*
X226013381Y-99403337D01*
X225834554Y-99290505D01*
X225638160Y-99212152D01*
X225632503Y-99211027D01*
X225632497Y-99211025D01*
X225435234Y-99171788D01*
X225372324Y-99138881D01*
X225337192Y-99077186D01*
X225340992Y-99006291D01*
X225382517Y-98948705D01*
X225441734Y-98923513D01*
X225574015Y-98904333D01*
X225574019Y-98904332D01*
X225579730Y-98903504D01*
X225658987Y-98876600D01*
X225774483Y-98837395D01*
X225774488Y-98837393D01*
X225779955Y-98835537D01*
X225784998Y-98832713D01*
X225959395Y-98735046D01*
X225959399Y-98735043D01*
X225964442Y-98732219D01*
X226127012Y-98597012D01*
X226262219Y-98434442D01*
X226265043Y-98429399D01*
X226265046Y-98429395D01*
X226362713Y-98254998D01*
X226362714Y-98254996D01*
X226365537Y-98249955D01*
X226367393Y-98244488D01*
X226367395Y-98244483D01*
X226431647Y-98055200D01*
X226433504Y-98049730D01*
X226463846Y-97840470D01*
X226465429Y-97780000D01*
X226446081Y-97569440D01*
X226388686Y-97365931D01*
X226377553Y-97343354D01*
X226297719Y-97181469D01*
X226295165Y-97176290D01*
X226227303Y-97085411D01*
X226172104Y-97011491D01*
X226172103Y-97011490D01*
X226168651Y-97006867D01*
X226068286Y-96914090D01*
X226017622Y-96867257D01*
X226017620Y-96867255D01*
X226013381Y-96863337D01*
X225980014Y-96842284D01*
X225839434Y-96753584D01*
X225839433Y-96753584D01*
X225834554Y-96750505D01*
X225638160Y-96672152D01*
X225632503Y-96671027D01*
X225632497Y-96671025D01*
X225435234Y-96631788D01*
X225372324Y-96598881D01*
X225337192Y-96537186D01*
X225340992Y-96466291D01*
X225382517Y-96408705D01*
X225441734Y-96383513D01*
X225574015Y-96364333D01*
X225574019Y-96364332D01*
X225579730Y-96363504D01*
X225666602Y-96334015D01*
X225774483Y-96297395D01*
X225774488Y-96297393D01*
X225779955Y-96295537D01*
X225784998Y-96292713D01*
X225959395Y-96195046D01*
X225959399Y-96195043D01*
X225964442Y-96192219D01*
X226127012Y-96057012D01*
X226262219Y-95894442D01*
X226265043Y-95889399D01*
X226265046Y-95889395D01*
X226362713Y-95714998D01*
X226362714Y-95714996D01*
X226365537Y-95709955D01*
X226367393Y-95704488D01*
X226367395Y-95704483D01*
X226431647Y-95515200D01*
X226433504Y-95509730D01*
X226442771Y-95445822D01*
X226463314Y-95304140D01*
X226463314Y-95304138D01*
X226463846Y-95300470D01*
X226465429Y-95240000D01*
X226446081Y-95029440D01*
X226388686Y-94825931D01*
X226377553Y-94803354D01*
X226297719Y-94641469D01*
X226295165Y-94636290D01*
X226227303Y-94545411D01*
X226172104Y-94471491D01*
X226172103Y-94471490D01*
X226168651Y-94466867D01*
X226068286Y-94374090D01*
X226017622Y-94327257D01*
X226017620Y-94327255D01*
X226013381Y-94323337D01*
X225980014Y-94302284D01*
X225839434Y-94213584D01*
X225839433Y-94213584D01*
X225834554Y-94210505D01*
X225638160Y-94132152D01*
X225632503Y-94131027D01*
X225632497Y-94131025D01*
X225435234Y-94091788D01*
X225372324Y-94058881D01*
X225337192Y-93997186D01*
X225340992Y-93926291D01*
X225382517Y-93868705D01*
X225441734Y-93843513D01*
X225574015Y-93824333D01*
X225574019Y-93824332D01*
X225579730Y-93823504D01*
X225648523Y-93800152D01*
X225774483Y-93757395D01*
X225774488Y-93757393D01*
X225779955Y-93755537D01*
X225787101Y-93751535D01*
X225959395Y-93655046D01*
X225959399Y-93655043D01*
X225964442Y-93652219D01*
X226127012Y-93517012D01*
X226262219Y-93354442D01*
X226265043Y-93349399D01*
X226265046Y-93349395D01*
X226362713Y-93174998D01*
X226362714Y-93174996D01*
X226365537Y-93169955D01*
X226367393Y-93164488D01*
X226367395Y-93164483D01*
X226414173Y-93026676D01*
X226433504Y-92969730D01*
X226442771Y-92905822D01*
X226463314Y-92764140D01*
X226463314Y-92764138D01*
X226463846Y-92760470D01*
X226465429Y-92700000D01*
X226446081Y-92489440D01*
X226388686Y-92285931D01*
X226383457Y-92275326D01*
X226297719Y-92101469D01*
X226295165Y-92096290D01*
X226227303Y-92005411D01*
X226172104Y-91931491D01*
X226172103Y-91931490D01*
X226168651Y-91926867D01*
X226068286Y-91834090D01*
X226017622Y-91787257D01*
X226017620Y-91787255D01*
X226013381Y-91783337D01*
X225980014Y-91762284D01*
X225839434Y-91673584D01*
X225839433Y-91673584D01*
X225834554Y-91670505D01*
X225638160Y-91592152D01*
X225632503Y-91591027D01*
X225632497Y-91591025D01*
X225435234Y-91551788D01*
X225372324Y-91518881D01*
X225337192Y-91457186D01*
X225340992Y-91386291D01*
X225382517Y-91328705D01*
X225441734Y-91303513D01*
X225574015Y-91284333D01*
X225574019Y-91284332D01*
X225579730Y-91283504D01*
X225666602Y-91254015D01*
X225774483Y-91217395D01*
X225774488Y-91217393D01*
X225779955Y-91215537D01*
X225812950Y-91197059D01*
X225959395Y-91115046D01*
X225959399Y-91115043D01*
X225964442Y-91112219D01*
X226127012Y-90977012D01*
X226262219Y-90814442D01*
X226265043Y-90809399D01*
X226265046Y-90809395D01*
X226362713Y-90634998D01*
X226362714Y-90634996D01*
X226365537Y-90629955D01*
X226367393Y-90624488D01*
X226367395Y-90624483D01*
X226431647Y-90435200D01*
X226433504Y-90429730D01*
X226435672Y-90414783D01*
X226463314Y-90224140D01*
X226463314Y-90224138D01*
X226463846Y-90220470D01*
X226465429Y-90160000D01*
X226446081Y-89949440D01*
X226388686Y-89745931D01*
X226377553Y-89723354D01*
X226297719Y-89561469D01*
X226295165Y-89556290D01*
X226189284Y-89414498D01*
X226172104Y-89391491D01*
X226172103Y-89391490D01*
X226168651Y-89386867D01*
X226068286Y-89294090D01*
X226017622Y-89247257D01*
X226017620Y-89247255D01*
X226013381Y-89243337D01*
X225870232Y-89153016D01*
X225839434Y-89133584D01*
X225839433Y-89133584D01*
X225834554Y-89130505D01*
X225638160Y-89052152D01*
X225632503Y-89051027D01*
X225632497Y-89051025D01*
X225435234Y-89011788D01*
X225372324Y-88978881D01*
X225337192Y-88917186D01*
X225340992Y-88846291D01*
X225382517Y-88788705D01*
X225441734Y-88763513D01*
X225574015Y-88744333D01*
X225574019Y-88744332D01*
X225579730Y-88743504D01*
X225658987Y-88716600D01*
X225774483Y-88677395D01*
X225774488Y-88677393D01*
X225779955Y-88675537D01*
X225784998Y-88672713D01*
X225959395Y-88575046D01*
X225959399Y-88575043D01*
X225964442Y-88572219D01*
X226127012Y-88437012D01*
X226262219Y-88274442D01*
X226265043Y-88269399D01*
X226265046Y-88269395D01*
X226362713Y-88094998D01*
X226362714Y-88094996D01*
X226365537Y-88089955D01*
X226367393Y-88084488D01*
X226367395Y-88084483D01*
X226421289Y-87925713D01*
X226433504Y-87889730D01*
X226434612Y-87882094D01*
X226463314Y-87684140D01*
X226463314Y-87684138D01*
X226463846Y-87680470D01*
X226465429Y-87620000D01*
X226446081Y-87409440D01*
X226388686Y-87205931D01*
X226377553Y-87183354D01*
X226297719Y-87021469D01*
X226295165Y-87016290D01*
X226168651Y-86846867D01*
X226013381Y-86703337D01*
X225834554Y-86590505D01*
X225638160Y-86512152D01*
X225632503Y-86511027D01*
X225632497Y-86511025D01*
X225435234Y-86471788D01*
X225372324Y-86438881D01*
X225337192Y-86377186D01*
X225340992Y-86306291D01*
X225382517Y-86248705D01*
X225441734Y-86223513D01*
X225574015Y-86204333D01*
X225574019Y-86204332D01*
X225579730Y-86203504D01*
X225658987Y-86176600D01*
X225774483Y-86137395D01*
X225774488Y-86137393D01*
X225779955Y-86135537D01*
X225785246Y-86132574D01*
X225959395Y-86035046D01*
X225959399Y-86035043D01*
X225964442Y-86032219D01*
X226127012Y-85897012D01*
X226262219Y-85734442D01*
X226265043Y-85729399D01*
X226265046Y-85729395D01*
X226362713Y-85554998D01*
X226362714Y-85554996D01*
X226365537Y-85549955D01*
X226367393Y-85544488D01*
X226367395Y-85544483D01*
X226423069Y-85380470D01*
X226433504Y-85349730D01*
X226441365Y-85295520D01*
X226463314Y-85144140D01*
X226463314Y-85144138D01*
X226463846Y-85140470D01*
X226465429Y-85080000D01*
X226446081Y-84869440D01*
X226388686Y-84665931D01*
X226377553Y-84643354D01*
X226297719Y-84481469D01*
X226295165Y-84476290D01*
X226168651Y-84306867D01*
X226024539Y-84173651D01*
X226017622Y-84167257D01*
X226017620Y-84167255D01*
X226013381Y-84163337D01*
X225890087Y-84085544D01*
X225839434Y-84053584D01*
X225839433Y-84053584D01*
X225834554Y-84050505D01*
X225638160Y-83972152D01*
X225632503Y-83971027D01*
X225632497Y-83971025D01*
X225435234Y-83931788D01*
X225372324Y-83898881D01*
X225337192Y-83837186D01*
X225340992Y-83766291D01*
X225382517Y-83708705D01*
X225441734Y-83683513D01*
X225574015Y-83664333D01*
X225574019Y-83664332D01*
X225579730Y-83663504D01*
X225658987Y-83636600D01*
X225774483Y-83597395D01*
X225774488Y-83597393D01*
X225779955Y-83595537D01*
X225785246Y-83592574D01*
X225959395Y-83495046D01*
X225959399Y-83495043D01*
X225964442Y-83492219D01*
X226127012Y-83357012D01*
X226262219Y-83194442D01*
X226265043Y-83189399D01*
X226265046Y-83189395D01*
X226362713Y-83014998D01*
X226362714Y-83014996D01*
X226365537Y-83009955D01*
X226367393Y-83004488D01*
X226367395Y-83004483D01*
X226423069Y-82840470D01*
X226433504Y-82809730D01*
X226441365Y-82755520D01*
X226463314Y-82604140D01*
X226463314Y-82604138D01*
X226463846Y-82600470D01*
X226465429Y-82540000D01*
X226446081Y-82329440D01*
X226442241Y-82315822D01*
X226415267Y-82220180D01*
X226388686Y-82125931D01*
X226377553Y-82103354D01*
X226297719Y-81941469D01*
X226295165Y-81936290D01*
X226168651Y-81766867D01*
X226024539Y-81633651D01*
X226017622Y-81627257D01*
X226017620Y-81627255D01*
X226013381Y-81623337D01*
X225834554Y-81510505D01*
X225638160Y-81432152D01*
X225632503Y-81431027D01*
X225632497Y-81431025D01*
X225476916Y-81400079D01*
X225414006Y-81367172D01*
X225378874Y-81305477D01*
X225382674Y-81234582D01*
X225424199Y-81176996D01*
X225490266Y-81151002D01*
X225501497Y-81150500D01*
X226204646Y-81150500D01*
X226208350Y-81150059D01*
X226208353Y-81150059D01*
X226215746Y-81149179D01*
X226230846Y-81147382D01*
X226333153Y-81101939D01*
X226412241Y-81022713D01*
X226424751Y-80994418D01*
X226453675Y-80928992D01*
X226457506Y-80920327D01*
X226460500Y-80894646D01*
X226460500Y-79105354D01*
X226457382Y-79079154D01*
X226411939Y-78976847D01*
X226332713Y-78897759D01*
X226322076Y-78893056D01*
X226322074Y-78893055D01*
X226262538Y-78866735D01*
X226230327Y-78852494D01*
X226204646Y-78849500D01*
X224415354Y-78849500D01*
X224411650Y-78849941D01*
X224411647Y-78849941D01*
X224406951Y-78850500D01*
X224389154Y-78852618D01*
X224286847Y-78898061D01*
X224207759Y-78977287D01*
X224162494Y-79079673D01*
X224159500Y-79105354D01*
X224159500Y-80894646D01*
X224162618Y-80920846D01*
X224208061Y-81023153D01*
X224216294Y-81031372D01*
X224216295Y-81031373D01*
X224247835Y-81062858D01*
X224287287Y-81102241D01*
X224297924Y-81106944D01*
X224297926Y-81106945D01*
X224357462Y-81133265D01*
X224389673Y-81147506D01*
X224415354Y-81150500D01*
X225124988Y-81150500D01*
X225193109Y-81170502D01*
X225239602Y-81224158D01*
X225249706Y-81294432D01*
X225220212Y-81359012D01*
X225160486Y-81397396D01*
X225146326Y-81400680D01*
X225016650Y-81422962D01*
X225016649Y-81422962D01*
X225010953Y-81423941D01*
X224812575Y-81497127D01*
X224807614Y-81500079D01*
X224807613Y-81500079D01*
X224728104Y-81547382D01*
X224630856Y-81605238D01*
X224471881Y-81744655D01*
X224340976Y-81910708D01*
X224338287Y-81915819D01*
X224338285Y-81915822D01*
X224291241Y-82005238D01*
X224242523Y-82097836D01*
X224179820Y-82299773D01*
X224154967Y-82509754D01*
X224168796Y-82720749D01*
X224170217Y-82726345D01*
X224170218Y-82726350D01*
X224212517Y-82892900D01*
X224220845Y-82925690D01*
X224223262Y-82930933D01*
X224231458Y-82948712D01*
X224309369Y-83117714D01*
X224431405Y-83290391D01*
X224493590Y-83350969D01*
X224548524Y-83404483D01*
X224582865Y-83437937D01*
X224587661Y-83441142D01*
X224587664Y-83441144D01*
X224714175Y-83525676D01*
X224758677Y-83555411D01*
X224763985Y-83557692D01*
X224763986Y-83557692D01*
X224947650Y-83636600D01*
X224947653Y-83636601D01*
X224952953Y-83638878D01*
X224958582Y-83640152D01*
X224958583Y-83640152D01*
X225153550Y-83684269D01*
X225153553Y-83684269D01*
X225159186Y-83685544D01*
X225164958Y-83685771D01*
X225170687Y-83686525D01*
X225170327Y-83689257D01*
X225226604Y-83708216D01*
X225270950Y-83763659D01*
X225278282Y-83834276D01*
X225246271Y-83897647D01*
X225185081Y-83933651D01*
X225175704Y-83935632D01*
X225016650Y-83962962D01*
X225016649Y-83962962D01*
X225010953Y-83963941D01*
X224812575Y-84037127D01*
X224807614Y-84040079D01*
X224807613Y-84040079D01*
X224717239Y-84093846D01*
X224630856Y-84145238D01*
X224471881Y-84284655D01*
X224340976Y-84450708D01*
X224338287Y-84455819D01*
X224338285Y-84455822D01*
X224290384Y-84546867D01*
X224242523Y-84637836D01*
X224179820Y-84839773D01*
X224154967Y-85049754D01*
X224168796Y-85260749D01*
X224170217Y-85266345D01*
X224170218Y-85266350D01*
X224213677Y-85437467D01*
X224220845Y-85465690D01*
X224223262Y-85470933D01*
X224258432Y-85547223D01*
X224309369Y-85657714D01*
X224431405Y-85830391D01*
X224582865Y-85977937D01*
X224587661Y-85981142D01*
X224587664Y-85981144D01*
X224714175Y-86065676D01*
X224758677Y-86095411D01*
X224763985Y-86097692D01*
X224763986Y-86097692D01*
X224947650Y-86176600D01*
X224947653Y-86176601D01*
X224952953Y-86178878D01*
X224958582Y-86180152D01*
X224958583Y-86180152D01*
X225153550Y-86224269D01*
X225153553Y-86224269D01*
X225159186Y-86225544D01*
X225164958Y-86225771D01*
X225170687Y-86226525D01*
X225170327Y-86229257D01*
X225226604Y-86248216D01*
X225270950Y-86303659D01*
X225278282Y-86374276D01*
X225246271Y-86437647D01*
X225185081Y-86473651D01*
X225175704Y-86475632D01*
X225016650Y-86502962D01*
X225016649Y-86502962D01*
X225010953Y-86503941D01*
X224812575Y-86577127D01*
X224807614Y-86580079D01*
X224807613Y-86580079D01*
X224790089Y-86590505D01*
X224630856Y-86685238D01*
X224471881Y-86824655D01*
X224340976Y-86990708D01*
X224338287Y-86995819D01*
X224338285Y-86995822D01*
X224324792Y-87021469D01*
X224242523Y-87177836D01*
X224179820Y-87379773D01*
X224154967Y-87589754D01*
X224168796Y-87800749D01*
X224170217Y-87806345D01*
X224170218Y-87806350D01*
X224192784Y-87895200D01*
X224220845Y-88005690D01*
X224223262Y-88010933D01*
X224266435Y-88104582D01*
X224309369Y-88197714D01*
X224431405Y-88370391D01*
X224582865Y-88517937D01*
X224587661Y-88521142D01*
X224587664Y-88521144D01*
X224730936Y-88616875D01*
X224758677Y-88635411D01*
X224763985Y-88637692D01*
X224763986Y-88637692D01*
X224947650Y-88716600D01*
X224947653Y-88716601D01*
X224952953Y-88718878D01*
X224958582Y-88720152D01*
X224958583Y-88720152D01*
X225153550Y-88764269D01*
X225153553Y-88764269D01*
X225159186Y-88765544D01*
X225164958Y-88765771D01*
X225170687Y-88766525D01*
X225170327Y-88769257D01*
X225226604Y-88788216D01*
X225270950Y-88843659D01*
X225278282Y-88914276D01*
X225246271Y-88977647D01*
X225185081Y-89013651D01*
X225175704Y-89015632D01*
X225016650Y-89042962D01*
X225016649Y-89042962D01*
X225010953Y-89043941D01*
X224812575Y-89117127D01*
X224807614Y-89120079D01*
X224807613Y-89120079D01*
X224788993Y-89131157D01*
X224630856Y-89225238D01*
X224471881Y-89364655D01*
X224340976Y-89530708D01*
X224338287Y-89535819D01*
X224338285Y-89535822D01*
X224303992Y-89601002D01*
X224242523Y-89717836D01*
X224179820Y-89919773D01*
X224154967Y-90129754D01*
X224168796Y-90340749D01*
X224170217Y-90346345D01*
X224170218Y-90346350D01*
X224213226Y-90515689D01*
X224220845Y-90545690D01*
X224223262Y-90550933D01*
X224258431Y-90627220D01*
X224309369Y-90737714D01*
X224431405Y-90910391D01*
X224487996Y-90965520D01*
X224571395Y-91046763D01*
X224582865Y-91057937D01*
X224587661Y-91061142D01*
X224587664Y-91061144D01*
X224707513Y-91141224D01*
X224758677Y-91175411D01*
X224763985Y-91177692D01*
X224763986Y-91177692D01*
X224947650Y-91256600D01*
X224947653Y-91256601D01*
X224952953Y-91258878D01*
X224958582Y-91260152D01*
X224958583Y-91260152D01*
X225153550Y-91304269D01*
X225153553Y-91304269D01*
X225159186Y-91305544D01*
X225164958Y-91305771D01*
X225170687Y-91306525D01*
X225170327Y-91309257D01*
X225226604Y-91328216D01*
X225270950Y-91383659D01*
X225278282Y-91454276D01*
X225246271Y-91517647D01*
X225185081Y-91553651D01*
X225175704Y-91555632D01*
X225016650Y-91582962D01*
X225016649Y-91582962D01*
X225010953Y-91583941D01*
X224812575Y-91657127D01*
X224807614Y-91660079D01*
X224807613Y-91660079D01*
X224790089Y-91670505D01*
X224630856Y-91765238D01*
X224471881Y-91904655D01*
X224340976Y-92070708D01*
X224338287Y-92075819D01*
X224338285Y-92075822D01*
X224304394Y-92140239D01*
X224242523Y-92257836D01*
X224179820Y-92459773D01*
X224154967Y-92669754D01*
X224168796Y-92880749D01*
X224170217Y-92886345D01*
X224170218Y-92886350D01*
X224192784Y-92975200D01*
X224220845Y-93085690D01*
X224223262Y-93090933D01*
X224258432Y-93167223D01*
X224309369Y-93277714D01*
X224431405Y-93450391D01*
X224487996Y-93505520D01*
X224571395Y-93586763D01*
X224582865Y-93597937D01*
X224587661Y-93601142D01*
X224587664Y-93601144D01*
X224725304Y-93693112D01*
X224758677Y-93715411D01*
X224763985Y-93717692D01*
X224763986Y-93717692D01*
X224947650Y-93796600D01*
X224947653Y-93796601D01*
X224952953Y-93798878D01*
X224958582Y-93800152D01*
X224958583Y-93800152D01*
X225153550Y-93844269D01*
X225153553Y-93844269D01*
X225159186Y-93845544D01*
X225164958Y-93845771D01*
X225170687Y-93846525D01*
X225170327Y-93849257D01*
X225226604Y-93868216D01*
X225270950Y-93923659D01*
X225278282Y-93994276D01*
X225246271Y-94057647D01*
X225185081Y-94093651D01*
X225175704Y-94095632D01*
X225016650Y-94122962D01*
X225016649Y-94122962D01*
X225010953Y-94123941D01*
X224812575Y-94197127D01*
X224807614Y-94200079D01*
X224807613Y-94200079D01*
X224790089Y-94210505D01*
X224630856Y-94305238D01*
X224471881Y-94444655D01*
X224340976Y-94610708D01*
X224338287Y-94615819D01*
X224338285Y-94615822D01*
X224302496Y-94683846D01*
X224242523Y-94797836D01*
X224179820Y-94999773D01*
X224154967Y-95209754D01*
X224168796Y-95420749D01*
X224170217Y-95426345D01*
X224170218Y-95426350D01*
X224192784Y-95515200D01*
X224220845Y-95625690D01*
X224223262Y-95630933D01*
X224258432Y-95707223D01*
X224309369Y-95817714D01*
X224431405Y-95990391D01*
X224487996Y-96045520D01*
X224571395Y-96126763D01*
X224582865Y-96137937D01*
X224587661Y-96141142D01*
X224587664Y-96141144D01*
X224730936Y-96236875D01*
X224758677Y-96255411D01*
X224763985Y-96257692D01*
X224763986Y-96257692D01*
X224947650Y-96336600D01*
X224947653Y-96336601D01*
X224952953Y-96338878D01*
X224958582Y-96340152D01*
X224958583Y-96340152D01*
X225153550Y-96384269D01*
X225153553Y-96384269D01*
X225159186Y-96385544D01*
X225164958Y-96385771D01*
X225170687Y-96386525D01*
X225170327Y-96389257D01*
X225226604Y-96408216D01*
X225270950Y-96463659D01*
X225278282Y-96534276D01*
X225246271Y-96597647D01*
X225185081Y-96633651D01*
X225175704Y-96635632D01*
X225016650Y-96662962D01*
X225016649Y-96662962D01*
X225010953Y-96663941D01*
X224812575Y-96737127D01*
X224807614Y-96740079D01*
X224807613Y-96740079D01*
X224790089Y-96750505D01*
X224630856Y-96845238D01*
X224471881Y-96984655D01*
X224340976Y-97150708D01*
X224338287Y-97155819D01*
X224338285Y-97155822D01*
X224302496Y-97223846D01*
X224242523Y-97337836D01*
X224179820Y-97539773D01*
X224154967Y-97749754D01*
X224168796Y-97960749D01*
X224170217Y-97966345D01*
X224170218Y-97966350D01*
X224192784Y-98055200D01*
X224220845Y-98165690D01*
X224309369Y-98357714D01*
X224431405Y-98530391D01*
X224582865Y-98677937D01*
X224587661Y-98681142D01*
X224587664Y-98681144D01*
X224730936Y-98776875D01*
X224758677Y-98795411D01*
X224763985Y-98797692D01*
X224763986Y-98797692D01*
X224947650Y-98876600D01*
X224947653Y-98876601D01*
X224952953Y-98878878D01*
X224958582Y-98880152D01*
X224958583Y-98880152D01*
X225153550Y-98924269D01*
X225153553Y-98924269D01*
X225159186Y-98925544D01*
X225164958Y-98925771D01*
X225170687Y-98926525D01*
X225170327Y-98929257D01*
X225226604Y-98948216D01*
X225270950Y-99003659D01*
X225278282Y-99074276D01*
X225246271Y-99137647D01*
X225185081Y-99173651D01*
X225175704Y-99175632D01*
X225016650Y-99202962D01*
X225016649Y-99202962D01*
X225010953Y-99203941D01*
X224812575Y-99277127D01*
X224807614Y-99280079D01*
X224807613Y-99280079D01*
X224790089Y-99290505D01*
X224630856Y-99385238D01*
X224471881Y-99524655D01*
X224340976Y-99690708D01*
X224338287Y-99695819D01*
X224338285Y-99695822D01*
X224324792Y-99721469D01*
X224242523Y-99877836D01*
X224179820Y-100079773D01*
X224154967Y-100289754D01*
X224168796Y-100500749D01*
X224170217Y-100506345D01*
X224170218Y-100506350D01*
X224192784Y-100595200D01*
X224220845Y-100705690D01*
X224309369Y-100897714D01*
X224431405Y-101070391D01*
X224582865Y-101217937D01*
X224587661Y-101221142D01*
X224587664Y-101221144D01*
X224730936Y-101316875D01*
X224758677Y-101335411D01*
X224763985Y-101337692D01*
X224763986Y-101337692D01*
X224947650Y-101416600D01*
X224947653Y-101416601D01*
X224952953Y-101418878D01*
X224958582Y-101420152D01*
X224958583Y-101420152D01*
X225153550Y-101464269D01*
X225153553Y-101464269D01*
X225159186Y-101465544D01*
X225164958Y-101465771D01*
X225170687Y-101466525D01*
X225170327Y-101469257D01*
X225226604Y-101488216D01*
X225270950Y-101543659D01*
X225278282Y-101614276D01*
X225246271Y-101677647D01*
X225185081Y-101713651D01*
X225175704Y-101715632D01*
X225016650Y-101742962D01*
X225016649Y-101742962D01*
X225010953Y-101743941D01*
X224812575Y-101817127D01*
X224807614Y-101820079D01*
X224807613Y-101820079D01*
X224790089Y-101830505D01*
X224630856Y-101925238D01*
X224471881Y-102064655D01*
X224340976Y-102230708D01*
X224338287Y-102235819D01*
X224338285Y-102235822D01*
X224324792Y-102261469D01*
X224242523Y-102417836D01*
X224179820Y-102619773D01*
X224154967Y-102829754D01*
X224168796Y-103040749D01*
X224170217Y-103046345D01*
X224170218Y-103046350D01*
X224192784Y-103135200D01*
X224220845Y-103245690D01*
X224309369Y-103437714D01*
X224431405Y-103610391D01*
X224582865Y-103757937D01*
X224587661Y-103761142D01*
X224587664Y-103761144D01*
X224730936Y-103856875D01*
X224758677Y-103875411D01*
X224763985Y-103877692D01*
X224763986Y-103877692D01*
X224947650Y-103956600D01*
X224947653Y-103956601D01*
X224952953Y-103958878D01*
X224958582Y-103960152D01*
X224958583Y-103960152D01*
X225153550Y-104004269D01*
X225153553Y-104004269D01*
X225159186Y-104005544D01*
X225164958Y-104005771D01*
X225170687Y-104006525D01*
X225170327Y-104009257D01*
X225226604Y-104028216D01*
X225270950Y-104083659D01*
X225278282Y-104154276D01*
X225246271Y-104217647D01*
X225185081Y-104253651D01*
X225175704Y-104255632D01*
X225016650Y-104282962D01*
X225016649Y-104282962D01*
X225010953Y-104283941D01*
X224812575Y-104357127D01*
X224807614Y-104360079D01*
X224807613Y-104360079D01*
X224790089Y-104370505D01*
X224630856Y-104465238D01*
X224471881Y-104604655D01*
X224340976Y-104770708D01*
X224338287Y-104775819D01*
X224338285Y-104775822D01*
X224324792Y-104801469D01*
X224242523Y-104957836D01*
X224179820Y-105159773D01*
X224154967Y-105369754D01*
X224168796Y-105580749D01*
X224170217Y-105586345D01*
X224170218Y-105586350D01*
X224212366Y-105752305D01*
X224220845Y-105785690D01*
X224309369Y-105977714D01*
X224431405Y-106150391D01*
X224582865Y-106297937D01*
X224587661Y-106301142D01*
X224587664Y-106301144D01*
X224730936Y-106396875D01*
X224758677Y-106415411D01*
X224763985Y-106417692D01*
X224763986Y-106417692D01*
X224947650Y-106496600D01*
X224947653Y-106496601D01*
X224952953Y-106498878D01*
X224958582Y-106500152D01*
X224958583Y-106500152D01*
X225153550Y-106544269D01*
X225153553Y-106544269D01*
X225159186Y-106545544D01*
X225164958Y-106545771D01*
X225170687Y-106546525D01*
X225170327Y-106549257D01*
X225226604Y-106568216D01*
X225270950Y-106623659D01*
X225278282Y-106694276D01*
X225246271Y-106757647D01*
X225185081Y-106793651D01*
X225175704Y-106795632D01*
X225016650Y-106822962D01*
X225016649Y-106822962D01*
X225010953Y-106823941D01*
X224812575Y-106897127D01*
X224807614Y-106900079D01*
X224807613Y-106900079D01*
X224641829Y-106998710D01*
X224630856Y-107005238D01*
X224471881Y-107144655D01*
X224340976Y-107310708D01*
X224338287Y-107315819D01*
X224338285Y-107315822D01*
X224324792Y-107341469D01*
X224242523Y-107497836D01*
X224199567Y-107636178D01*
X224182189Y-107692145D01*
X224179820Y-107699773D01*
X224154967Y-107909754D01*
X224168796Y-108120749D01*
X224170217Y-108126345D01*
X224170218Y-108126350D01*
X224192784Y-108215200D01*
X224220845Y-108325690D01*
X224223262Y-108330933D01*
X224279581Y-108453099D01*
X224309369Y-108517714D01*
X224431405Y-108690391D01*
X224582865Y-108837937D01*
X224587661Y-108841142D01*
X224587664Y-108841144D01*
X224676892Y-108900764D01*
X224758677Y-108955411D01*
X224763985Y-108957692D01*
X224763986Y-108957692D01*
X224947650Y-109036600D01*
X224947653Y-109036601D01*
X224952953Y-109038878D01*
X224958582Y-109040152D01*
X224958583Y-109040152D01*
X225153550Y-109084269D01*
X225153553Y-109084269D01*
X225159186Y-109085544D01*
X225164958Y-109085771D01*
X225170687Y-109086525D01*
X225170327Y-109089257D01*
X225226604Y-109108216D01*
X225270950Y-109163659D01*
X225278282Y-109234276D01*
X225246271Y-109297647D01*
X225185081Y-109333651D01*
X225175704Y-109335632D01*
X225016650Y-109362962D01*
X225016649Y-109362962D01*
X225010953Y-109363941D01*
X224812575Y-109437127D01*
X224807614Y-109440079D01*
X224807613Y-109440079D01*
X224790089Y-109450505D01*
X224630856Y-109545238D01*
X224471881Y-109684655D01*
X224340976Y-109850708D01*
X224338287Y-109855819D01*
X224338285Y-109855822D01*
X224303717Y-109921525D01*
X224242523Y-110037836D01*
X224179820Y-110239773D01*
X224154967Y-110449754D01*
X220222370Y-110449754D01*
X220220694Y-110437993D01*
X220207126Y-110434000D01*
X217996030Y-110434000D01*
X217982499Y-110437973D01*
X217981207Y-110446962D01*
X218009897Y-110559928D01*
X218013735Y-110570766D01*
X218097386Y-110752218D01*
X218103137Y-110762179D01*
X218218455Y-110925350D01*
X218225921Y-110934092D01*
X218369047Y-111073520D01*
X218377981Y-111080754D01*
X218544112Y-111191760D01*
X218554225Y-111197251D01*
X218737805Y-111276123D01*
X218748738Y-111279675D01*
X218943615Y-111323771D01*
X218960753Y-111326027D01*
X218960570Y-111327419D01*
X219021370Y-111347899D01*
X219065719Y-111403339D01*
X219073055Y-111473956D01*
X219041048Y-111537328D01*
X218979860Y-111573336D01*
X218970476Y-111575319D01*
X218806780Y-111603447D01*
X218795660Y-111606427D01*
X218608207Y-111675582D01*
X218597829Y-111680532D01*
X218426119Y-111782688D01*
X218416807Y-111789453D01*
X218266587Y-111921194D01*
X218258670Y-111929537D01*
X218134975Y-112086443D01*
X218128704Y-112096100D01*
X218035679Y-112272912D01*
X218031273Y-112283549D01*
X217979993Y-112448698D01*
X217979774Y-112462799D01*
X217682408Y-112462799D01*
X217639785Y-112311670D01*
X217635663Y-112300931D01*
X217547292Y-112121733D01*
X217541282Y-112111925D01*
X217421731Y-111951827D01*
X217414041Y-111943287D01*
X217267315Y-111807654D01*
X217258190Y-111800653D01*
X217089209Y-111694034D01*
X217078965Y-111688814D01*
X216893385Y-111614775D01*
X216882347Y-111611505D01*
X216682283Y-111571710D01*
X216619373Y-111538803D01*
X216584241Y-111477108D01*
X216588041Y-111406213D01*
X216629567Y-111348627D01*
X216688784Y-111323435D01*
X216823898Y-111303845D01*
X216835081Y-111301160D01*
X217024283Y-111236934D01*
X217034786Y-111232258D01*
X217209124Y-111134625D01*
X217218596Y-111128115D01*
X217372219Y-111000348D01*
X217380348Y-110992219D01*
X217508115Y-110838596D01*
X217514625Y-110829124D01*
X217612258Y-110654786D01*
X217616934Y-110644283D01*
X217681160Y-110455081D01*
X217683845Y-110443898D01*
X217712811Y-110244118D01*
X217713441Y-110236736D01*
X217714830Y-110183704D01*
X217714587Y-110176305D01*
X217696117Y-109975285D01*
X217694020Y-109963971D01*
X217682408Y-109922799D01*
X217979774Y-109922799D01*
X217986506Y-109926000D01*
X218827885Y-109926000D01*
X218843124Y-109921525D01*
X218844329Y-109920135D01*
X218846000Y-109912452D01*
X218846000Y-109907885D01*
X219354000Y-109907885D01*
X219358475Y-109923124D01*
X219359865Y-109924329D01*
X219367548Y-109926000D01*
X220205196Y-109926000D01*
X220218727Y-109922027D01*
X220219896Y-109913893D01*
X220179785Y-109771670D01*
X220175663Y-109760931D01*
X220087292Y-109581733D01*
X220081282Y-109571925D01*
X219961731Y-109411827D01*
X219954041Y-109403287D01*
X219807315Y-109267654D01*
X219798190Y-109260653D01*
X219629209Y-109154034D01*
X219618965Y-109148814D01*
X219433377Y-109074772D01*
X219422356Y-109071507D01*
X219371770Y-109061445D01*
X219358894Y-109062597D01*
X219354000Y-109077753D01*
X219354000Y-109907885D01*
X218846000Y-109907885D01*
X218846000Y-109074823D01*
X218842194Y-109061861D01*
X218827278Y-109059925D01*
X218806780Y-109063447D01*
X218795660Y-109066427D01*
X218608207Y-109135582D01*
X218597829Y-109140532D01*
X218426119Y-109242688D01*
X218416807Y-109249453D01*
X218266587Y-109381194D01*
X218258670Y-109389537D01*
X218134975Y-109546443D01*
X218128704Y-109556100D01*
X218035679Y-109732912D01*
X218031273Y-109743549D01*
X217979993Y-109908698D01*
X217979774Y-109922799D01*
X217682408Y-109922799D01*
X217639785Y-109771670D01*
X217635663Y-109760931D01*
X217547292Y-109581733D01*
X217541282Y-109571925D01*
X217421731Y-109411827D01*
X217414041Y-109403287D01*
X217267315Y-109267654D01*
X217258190Y-109260653D01*
X217089209Y-109154034D01*
X217078965Y-109148814D01*
X216893377Y-109074772D01*
X216882356Y-109071507D01*
X216831770Y-109061445D01*
X216818894Y-109062597D01*
X216814000Y-109077753D01*
X216814000Y-110308000D01*
X216793998Y-110376121D01*
X216740342Y-110422614D01*
X216688000Y-110434000D01*
X215456030Y-110434000D01*
X215442499Y-110437973D01*
X215441207Y-110446962D01*
X215469897Y-110559928D01*
X215473735Y-110570766D01*
X215557386Y-110752218D01*
X215563137Y-110762179D01*
X215678455Y-110925350D01*
X215685921Y-110934092D01*
X215829047Y-111073520D01*
X215837981Y-111080754D01*
X216004112Y-111191760D01*
X216014225Y-111197251D01*
X216197805Y-111276123D01*
X216208738Y-111279675D01*
X216403615Y-111323771D01*
X216420753Y-111326027D01*
X216420570Y-111327419D01*
X216481370Y-111347899D01*
X216525719Y-111403339D01*
X216533055Y-111473956D01*
X216501048Y-111537328D01*
X216439860Y-111573336D01*
X216430476Y-111575319D01*
X216266780Y-111603447D01*
X216255660Y-111606427D01*
X216068207Y-111675582D01*
X216057829Y-111680532D01*
X215886119Y-111782688D01*
X215876807Y-111789453D01*
X215726587Y-111921194D01*
X215718670Y-111929537D01*
X215594975Y-112086443D01*
X215588704Y-112096100D01*
X215495679Y-112272912D01*
X215491273Y-112283549D01*
X215439993Y-112448698D01*
X215439774Y-112462799D01*
X215446506Y-112466000D01*
X216688000Y-112466000D01*
X216756121Y-112486002D01*
X216802614Y-112539658D01*
X216814000Y-112592000D01*
X216814000Y-112848000D01*
X216793998Y-112916121D01*
X216740342Y-112962614D01*
X216688000Y-112974000D01*
X215456030Y-112974000D01*
X215442499Y-112977973D01*
X215441207Y-112986962D01*
X215469897Y-113099928D01*
X215473735Y-113110766D01*
X215557386Y-113292218D01*
X215563137Y-113302179D01*
X215678455Y-113465350D01*
X215685921Y-113474092D01*
X215829047Y-113613520D01*
X215837981Y-113620754D01*
X216004112Y-113731760D01*
X216014225Y-113737251D01*
X216197805Y-113816123D01*
X216208738Y-113819675D01*
X216403615Y-113863771D01*
X216420753Y-113866027D01*
X216420480Y-113868100D01*
X216478986Y-113887816D01*
X216523326Y-113943264D01*
X216530650Y-114013882D01*
X216498633Y-114077249D01*
X216437439Y-114113247D01*
X216428081Y-114115224D01*
X216260953Y-114143941D01*
X216062575Y-114217127D01*
X216057614Y-114220079D01*
X216057613Y-114220079D01*
X215899282Y-114314276D01*
X215880856Y-114325238D01*
X215721881Y-114464655D01*
X215590976Y-114630708D01*
X215588287Y-114635819D01*
X215588285Y-114635822D01*
X215574792Y-114661469D01*
X215492523Y-114817836D01*
X215429820Y-115019773D01*
X215404967Y-115229754D01*
X215418796Y-115440749D01*
X215420217Y-115446345D01*
X215420218Y-115446350D01*
X215442784Y-115535200D01*
X215470845Y-115645690D01*
X215559369Y-115837714D01*
X215681405Y-116010391D01*
X215685539Y-116014418D01*
X215816947Y-116142430D01*
X215832865Y-116157937D01*
X215837661Y-116161142D01*
X215837664Y-116161144D01*
X215924084Y-116218888D01*
X216008677Y-116275411D01*
X216013985Y-116277692D01*
X216013986Y-116277692D01*
X216197650Y-116356600D01*
X216197653Y-116356601D01*
X216202953Y-116358878D01*
X216208582Y-116360152D01*
X216208583Y-116360152D01*
X216403550Y-116404269D01*
X216403553Y-116404269D01*
X216409186Y-116405544D01*
X216414958Y-116405771D01*
X216420687Y-116406525D01*
X216420327Y-116409257D01*
X216476604Y-116428216D01*
X216520950Y-116483659D01*
X216528282Y-116554276D01*
X216496271Y-116617647D01*
X216435081Y-116653651D01*
X216425705Y-116655632D01*
X216420070Y-116656600D01*
X216266650Y-116682962D01*
X216266649Y-116682962D01*
X216260953Y-116683941D01*
X216062575Y-116757127D01*
X216057614Y-116760079D01*
X216057613Y-116760079D01*
X216011553Y-116787482D01*
X215880856Y-116865238D01*
X215721881Y-117004655D01*
X215590976Y-117170708D01*
X215588287Y-117175819D01*
X215588285Y-117175822D01*
X215574792Y-117201469D01*
X215492523Y-117357836D01*
X215429820Y-117559773D01*
X215404967Y-117769754D01*
X174585500Y-117769754D01*
X174585500Y-110262611D01*
X176554394Y-110262611D01*
X176572999Y-110431135D01*
X176631266Y-110590356D01*
X176635502Y-110596659D01*
X176635502Y-110596660D01*
X176648574Y-110616113D01*
X176725830Y-110731083D01*
X176731442Y-110736190D01*
X176731445Y-110736193D01*
X176845612Y-110840077D01*
X176845616Y-110840080D01*
X176851233Y-110845191D01*
X176857906Y-110848814D01*
X176857910Y-110848817D01*
X176993558Y-110922467D01*
X176993560Y-110922468D01*
X177000235Y-110926092D01*
X177007584Y-110928020D01*
X177156883Y-110967188D01*
X177156885Y-110967188D01*
X177164233Y-110969116D01*
X177250609Y-110970473D01*
X177326161Y-110971660D01*
X177326164Y-110971660D01*
X177333760Y-110971779D01*
X177341165Y-110970083D01*
X177341166Y-110970083D01*
X177429050Y-110949955D01*
X177499029Y-110933928D01*
X177650498Y-110857747D01*
X177762393Y-110762179D01*
X177773651Y-110752564D01*
X177773652Y-110752563D01*
X177779423Y-110747634D01*
X177818961Y-110692611D01*
X178824394Y-110692611D01*
X178842999Y-110861135D01*
X178866499Y-110925350D01*
X178896054Y-111006113D01*
X178901266Y-111020356D01*
X178905502Y-111026659D01*
X178905502Y-111026660D01*
X178918574Y-111046113D01*
X178995830Y-111161083D01*
X179001442Y-111166190D01*
X179001445Y-111166193D01*
X179115612Y-111270077D01*
X179115616Y-111270080D01*
X179121233Y-111275191D01*
X179127906Y-111278814D01*
X179127910Y-111278817D01*
X179263558Y-111352467D01*
X179263560Y-111352468D01*
X179270235Y-111356092D01*
X179277584Y-111358020D01*
X179426883Y-111397188D01*
X179426885Y-111397188D01*
X179434233Y-111399116D01*
X179520609Y-111400473D01*
X179596161Y-111401660D01*
X179596164Y-111401660D01*
X179603760Y-111401779D01*
X179611165Y-111400083D01*
X179611166Y-111400083D01*
X179671586Y-111386245D01*
X179769029Y-111363928D01*
X179920498Y-111287747D01*
X180049423Y-111177634D01*
X180148361Y-111039947D01*
X180156237Y-111020356D01*
X180208766Y-110889687D01*
X180208767Y-110889685D01*
X180211601Y-110882634D01*
X180229737Y-110755200D01*
X180234909Y-110718862D01*
X180234909Y-110718859D01*
X180235490Y-110714778D01*
X180235645Y-110700000D01*
X180233840Y-110685080D01*
X180228902Y-110644283D01*
X180215276Y-110531680D01*
X180155345Y-110373077D01*
X180157082Y-110372421D01*
X180145500Y-110325266D01*
X180145500Y-109922799D01*
X215439774Y-109922799D01*
X215446506Y-109926000D01*
X216287885Y-109926000D01*
X216303124Y-109921525D01*
X216304329Y-109920135D01*
X216306000Y-109912452D01*
X216306000Y-109074823D01*
X216302194Y-109061861D01*
X216287278Y-109059925D01*
X216266780Y-109063447D01*
X216255660Y-109066427D01*
X216068207Y-109135582D01*
X216057829Y-109140532D01*
X215886119Y-109242688D01*
X215876807Y-109249453D01*
X215726587Y-109381194D01*
X215718670Y-109389537D01*
X215594975Y-109546443D01*
X215588704Y-109556100D01*
X215495679Y-109732912D01*
X215491273Y-109743549D01*
X215439993Y-109908698D01*
X215439774Y-109922799D01*
X180145500Y-109922799D01*
X180145500Y-107989859D01*
X180165502Y-107921738D01*
X180182405Y-107900764D01*
X192043415Y-96039754D01*
X219044967Y-96039754D01*
X219058796Y-96250749D01*
X219060217Y-96256345D01*
X219060218Y-96256350D01*
X219082784Y-96345200D01*
X219110845Y-96455690D01*
X219113262Y-96460933D01*
X219147169Y-96534483D01*
X219199369Y-96647714D01*
X219321405Y-96820391D01*
X219472865Y-96967937D01*
X219477661Y-96971142D01*
X219477664Y-96971144D01*
X219620936Y-97066875D01*
X219648677Y-97085411D01*
X219653985Y-97087692D01*
X219653986Y-97087692D01*
X219837650Y-97166600D01*
X219837653Y-97166601D01*
X219842953Y-97168878D01*
X219848582Y-97170152D01*
X219848583Y-97170152D01*
X220043550Y-97214269D01*
X220043553Y-97214269D01*
X220049186Y-97215544D01*
X220054957Y-97215771D01*
X220054959Y-97215771D01*
X220116989Y-97218208D01*
X220260470Y-97223846D01*
X220266179Y-97223018D01*
X220266183Y-97223018D01*
X220464015Y-97194333D01*
X220464019Y-97194332D01*
X220469730Y-97193504D01*
X220548987Y-97166600D01*
X220664483Y-97127395D01*
X220664488Y-97127393D01*
X220669955Y-97125537D01*
X220674998Y-97122713D01*
X220849395Y-97025046D01*
X220849399Y-97025043D01*
X220854442Y-97022219D01*
X221017012Y-96887012D01*
X221152219Y-96724442D01*
X221155043Y-96719399D01*
X221155046Y-96719395D01*
X221252713Y-96544998D01*
X221252714Y-96544996D01*
X221255537Y-96539955D01*
X221257393Y-96534488D01*
X221257395Y-96534483D01*
X221321647Y-96345200D01*
X221323504Y-96339730D01*
X221329643Y-96297395D01*
X221353314Y-96134140D01*
X221353314Y-96134138D01*
X221353846Y-96130470D01*
X221355429Y-96070000D01*
X221336081Y-95859440D01*
X221278686Y-95655931D01*
X221267553Y-95633354D01*
X221187719Y-95471469D01*
X221185165Y-95466290D01*
X221058651Y-95296867D01*
X220903381Y-95153337D01*
X220724554Y-95040505D01*
X220528160Y-94962152D01*
X220522503Y-94961027D01*
X220522497Y-94961025D01*
X220325234Y-94921788D01*
X220262324Y-94888881D01*
X220227192Y-94827186D01*
X220230992Y-94756291D01*
X220272517Y-94698705D01*
X220331734Y-94673513D01*
X220464015Y-94654333D01*
X220464019Y-94654332D01*
X220469730Y-94653504D01*
X220548987Y-94626600D01*
X220664483Y-94587395D01*
X220664488Y-94587393D01*
X220669955Y-94585537D01*
X220674998Y-94582713D01*
X220849395Y-94485046D01*
X220849399Y-94485043D01*
X220854442Y-94482219D01*
X221017012Y-94347012D01*
X221152219Y-94184442D01*
X221155043Y-94179399D01*
X221155046Y-94179395D01*
X221252713Y-94004998D01*
X221252714Y-94004996D01*
X221255537Y-93999955D01*
X221257393Y-93994488D01*
X221257395Y-93994483D01*
X221321647Y-93805200D01*
X221323504Y-93799730D01*
X221325672Y-93784783D01*
X221353314Y-93594140D01*
X221353314Y-93594138D01*
X221353846Y-93590470D01*
X221355429Y-93530000D01*
X221336081Y-93319440D01*
X221278686Y-93115931D01*
X221267553Y-93093354D01*
X221187719Y-92931469D01*
X221185165Y-92926290D01*
X221079284Y-92784498D01*
X221062104Y-92761491D01*
X221062103Y-92761490D01*
X221058651Y-92756867D01*
X220922278Y-92630805D01*
X220907622Y-92617257D01*
X220907620Y-92617255D01*
X220903381Y-92613337D01*
X220724554Y-92500505D01*
X220528160Y-92422152D01*
X220522503Y-92421027D01*
X220522497Y-92421025D01*
X220325234Y-92381788D01*
X220262324Y-92348881D01*
X220227192Y-92287186D01*
X220230992Y-92216291D01*
X220272517Y-92158705D01*
X220331734Y-92133513D01*
X220464015Y-92114333D01*
X220464019Y-92114332D01*
X220469730Y-92113504D01*
X220548987Y-92086600D01*
X220664483Y-92047395D01*
X220664488Y-92047393D01*
X220669955Y-92045537D01*
X220731486Y-92011078D01*
X220849395Y-91945046D01*
X220849399Y-91945043D01*
X220854442Y-91942219D01*
X221017012Y-91807012D01*
X221152219Y-91644442D01*
X221155043Y-91639399D01*
X221155046Y-91639395D01*
X221252713Y-91464998D01*
X221252714Y-91464996D01*
X221255537Y-91459955D01*
X221257393Y-91454488D01*
X221257395Y-91454483D01*
X221321647Y-91265200D01*
X221323504Y-91259730D01*
X221329643Y-91217395D01*
X221353314Y-91054140D01*
X221353314Y-91054138D01*
X221353846Y-91050470D01*
X221355429Y-90990000D01*
X221336081Y-90779440D01*
X221278686Y-90575931D01*
X221267553Y-90553354D01*
X221187719Y-90391469D01*
X221185165Y-90386290D01*
X221058651Y-90216867D01*
X220903381Y-90073337D01*
X220724554Y-89960505D01*
X220528160Y-89882152D01*
X220522503Y-89881027D01*
X220522497Y-89881025D01*
X220366916Y-89850079D01*
X220304006Y-89817172D01*
X220268874Y-89755477D01*
X220272674Y-89684582D01*
X220314199Y-89626996D01*
X220380266Y-89601002D01*
X220391497Y-89600500D01*
X221094646Y-89600500D01*
X221098350Y-89600059D01*
X221098353Y-89600059D01*
X221105746Y-89599179D01*
X221120846Y-89597382D01*
X221188866Y-89567169D01*
X221212518Y-89556663D01*
X221223153Y-89551939D01*
X221302241Y-89472713D01*
X221347506Y-89370327D01*
X221350500Y-89344646D01*
X221350500Y-87555354D01*
X221347382Y-87529154D01*
X221301939Y-87426847D01*
X221222713Y-87347759D01*
X221212076Y-87343056D01*
X221212074Y-87343055D01*
X221152538Y-87316735D01*
X221120327Y-87302494D01*
X221094646Y-87299500D01*
X219305354Y-87299500D01*
X219301650Y-87299941D01*
X219301647Y-87299941D01*
X219294254Y-87300821D01*
X219279154Y-87302618D01*
X219176847Y-87348061D01*
X219168628Y-87356294D01*
X219168627Y-87356295D01*
X219145190Y-87379773D01*
X219097759Y-87427287D01*
X219052494Y-87529673D01*
X219049500Y-87555354D01*
X219049500Y-89344646D01*
X219052618Y-89370846D01*
X219098061Y-89473153D01*
X219106294Y-89481372D01*
X219106295Y-89481373D01*
X219118989Y-89494045D01*
X219177287Y-89552241D01*
X219187924Y-89556944D01*
X219187926Y-89556945D01*
X219247462Y-89583265D01*
X219279673Y-89597506D01*
X219305354Y-89600500D01*
X220014988Y-89600500D01*
X220083109Y-89620502D01*
X220129602Y-89674158D01*
X220139706Y-89744432D01*
X220110212Y-89809012D01*
X220050486Y-89847396D01*
X220036326Y-89850680D01*
X219906650Y-89872962D01*
X219906649Y-89872962D01*
X219900953Y-89873941D01*
X219702575Y-89947127D01*
X219697614Y-89950079D01*
X219697613Y-89950079D01*
X219680089Y-89960505D01*
X219520856Y-90055238D01*
X219361881Y-90194655D01*
X219230976Y-90360708D01*
X219228287Y-90365819D01*
X219228285Y-90365822D01*
X219194662Y-90429730D01*
X219132523Y-90547836D01*
X219069820Y-90749773D01*
X219044967Y-90959754D01*
X219058796Y-91170749D01*
X219060217Y-91176345D01*
X219060218Y-91176350D01*
X219082784Y-91265200D01*
X219110845Y-91375690D01*
X219113262Y-91380933D01*
X219147169Y-91454483D01*
X219199369Y-91567714D01*
X219321405Y-91740391D01*
X219472865Y-91887937D01*
X219477661Y-91891142D01*
X219477664Y-91891144D01*
X219582413Y-91961135D01*
X219648677Y-92005411D01*
X219653985Y-92007692D01*
X219653986Y-92007692D01*
X219837650Y-92086600D01*
X219837653Y-92086601D01*
X219842953Y-92088878D01*
X219848582Y-92090152D01*
X219848583Y-92090152D01*
X220043550Y-92134269D01*
X220043553Y-92134269D01*
X220049186Y-92135544D01*
X220054958Y-92135771D01*
X220060687Y-92136525D01*
X220060327Y-92139257D01*
X220116604Y-92158216D01*
X220160950Y-92213659D01*
X220168282Y-92284276D01*
X220136271Y-92347647D01*
X220075081Y-92383651D01*
X220065704Y-92385632D01*
X219906650Y-92412962D01*
X219906649Y-92412962D01*
X219900953Y-92413941D01*
X219702575Y-92487127D01*
X219697614Y-92490079D01*
X219697613Y-92490079D01*
X219680089Y-92500505D01*
X219520856Y-92595238D01*
X219361881Y-92734655D01*
X219230976Y-92900708D01*
X219228287Y-92905819D01*
X219228285Y-92905822D01*
X219194662Y-92969730D01*
X219132523Y-93087836D01*
X219069820Y-93289773D01*
X219044967Y-93499754D01*
X219058796Y-93710749D01*
X219060217Y-93716345D01*
X219060218Y-93716350D01*
X219098788Y-93868216D01*
X219110845Y-93915690D01*
X219113262Y-93920933D01*
X219148415Y-93997186D01*
X219199369Y-94107714D01*
X219321405Y-94280391D01*
X219472865Y-94427937D01*
X219477661Y-94431142D01*
X219477664Y-94431144D01*
X219620936Y-94526875D01*
X219648677Y-94545411D01*
X219653985Y-94547692D01*
X219653986Y-94547692D01*
X219837650Y-94626600D01*
X219837653Y-94626601D01*
X219842953Y-94628878D01*
X219848582Y-94630152D01*
X219848583Y-94630152D01*
X220043550Y-94674269D01*
X220043553Y-94674269D01*
X220049186Y-94675544D01*
X220054958Y-94675771D01*
X220060687Y-94676525D01*
X220060327Y-94679257D01*
X220116604Y-94698216D01*
X220160950Y-94753659D01*
X220168282Y-94824276D01*
X220136271Y-94887647D01*
X220075081Y-94923651D01*
X220065704Y-94925632D01*
X219906650Y-94952962D01*
X219906649Y-94952962D01*
X219900953Y-94953941D01*
X219702575Y-95027127D01*
X219697614Y-95030079D01*
X219697613Y-95030079D01*
X219680089Y-95040505D01*
X219520856Y-95135238D01*
X219361881Y-95274655D01*
X219230976Y-95440708D01*
X219228287Y-95445819D01*
X219228285Y-95445822D01*
X219194662Y-95509730D01*
X219132523Y-95627836D01*
X219069820Y-95829773D01*
X219044967Y-96039754D01*
X192043415Y-96039754D01*
X199995323Y-88087846D01*
X200057635Y-88053820D01*
X200128450Y-88058885D01*
X200185286Y-88101432D01*
X200210097Y-88167952D01*
X200201811Y-88222710D01*
X200146524Y-88364513D01*
X200145532Y-88372046D01*
X200145532Y-88372047D01*
X200125904Y-88521144D01*
X200124394Y-88532611D01*
X200142999Y-88701135D01*
X200165826Y-88763513D01*
X200195156Y-88843659D01*
X200201266Y-88860356D01*
X200295830Y-89001083D01*
X200301442Y-89006190D01*
X200301445Y-89006193D01*
X200415612Y-89110077D01*
X200415616Y-89110080D01*
X200421233Y-89115191D01*
X200427911Y-89118817D01*
X200427914Y-89118819D01*
X200435384Y-89122875D01*
X200485705Y-89172958D01*
X200500961Y-89242296D01*
X200476308Y-89308875D01*
X200433052Y-89345571D01*
X200373369Y-89376375D01*
X200367647Y-89381367D01*
X200367645Y-89381368D01*
X200310039Y-89431621D01*
X200245604Y-89487831D01*
X200241237Y-89494045D01*
X200154021Y-89618141D01*
X200148113Y-89626547D01*
X200086524Y-89784513D01*
X200085532Y-89792046D01*
X200085532Y-89792047D01*
X200067962Y-89925510D01*
X200064394Y-89952611D01*
X200082999Y-90121135D01*
X200141266Y-90280356D01*
X200235830Y-90421083D01*
X200241442Y-90426190D01*
X200241445Y-90426193D01*
X200355612Y-90530077D01*
X200355616Y-90530080D01*
X200361233Y-90535191D01*
X200367906Y-90538814D01*
X200367910Y-90538817D01*
X200503558Y-90612467D01*
X200503560Y-90612468D01*
X200510235Y-90616092D01*
X200517584Y-90618020D01*
X200666883Y-90657188D01*
X200666885Y-90657188D01*
X200674233Y-90659116D01*
X200760609Y-90660473D01*
X200836161Y-90661660D01*
X200836164Y-90661660D01*
X200843760Y-90661779D01*
X200851165Y-90660083D01*
X200851166Y-90660083D01*
X200918847Y-90644582D01*
X201009029Y-90623928D01*
X201160498Y-90547747D01*
X201166269Y-90542818D01*
X201166272Y-90542816D01*
X201198033Y-90515689D01*
X201262823Y-90486658D01*
X201279864Y-90485500D01*
X202955565Y-90485500D01*
X202960842Y-90485611D01*
X203019919Y-90488087D01*
X203060105Y-90478662D01*
X203071771Y-90476500D01*
X203104136Y-90472067D01*
X203104138Y-90472066D01*
X203112646Y-90470901D01*
X203120527Y-90467490D01*
X203120529Y-90467490D01*
X203125347Y-90465405D01*
X203146610Y-90458373D01*
X203151723Y-90457174D01*
X203151729Y-90457172D01*
X203158085Y-90455681D01*
X203160090Y-90455211D01*
X203160164Y-90455527D01*
X203225664Y-90450215D01*
X203288298Y-90483644D01*
X203322916Y-90545629D01*
X203318526Y-90616490D01*
X203289151Y-90662680D01*
X201184236Y-92767595D01*
X201121924Y-92801621D01*
X201095141Y-92804500D01*
X200881250Y-92804500D01*
X200813129Y-92784498D01*
X200797431Y-92772576D01*
X200778392Y-92755612D01*
X200778389Y-92755610D01*
X200772721Y-92750560D01*
X200751238Y-92739185D01*
X200684225Y-92703704D01*
X200622881Y-92671224D01*
X200458441Y-92629919D01*
X200450843Y-92629879D01*
X200450841Y-92629879D01*
X200373668Y-92629475D01*
X200288895Y-92629031D01*
X200281508Y-92630805D01*
X200281504Y-92630805D01*
X200143163Y-92664019D01*
X200124032Y-92668612D01*
X200117288Y-92672093D01*
X200117285Y-92672094D01*
X200003448Y-92730850D01*
X199973369Y-92746375D01*
X199967647Y-92751367D01*
X199967645Y-92751368D01*
X199910039Y-92801621D01*
X199845604Y-92857831D01*
X199748113Y-92996547D01*
X199686524Y-93154513D01*
X199685532Y-93162046D01*
X199685532Y-93162047D01*
X199667962Y-93295510D01*
X199664394Y-93322611D01*
X199682999Y-93491135D01*
X199697222Y-93530000D01*
X199720610Y-93593910D01*
X199741266Y-93650356D01*
X199835830Y-93791083D01*
X199841442Y-93796190D01*
X199841445Y-93796193D01*
X199955612Y-93900077D01*
X199955616Y-93900080D01*
X199961233Y-93905191D01*
X199967906Y-93908814D01*
X199967910Y-93908817D01*
X200103558Y-93982467D01*
X200103560Y-93982468D01*
X200110235Y-93986092D01*
X200117584Y-93988020D01*
X200266883Y-94027188D01*
X200266885Y-94027188D01*
X200274233Y-94029116D01*
X200360609Y-94030473D01*
X200436161Y-94031660D01*
X200436164Y-94031660D01*
X200443760Y-94031779D01*
X200451165Y-94030083D01*
X200451166Y-94030083D01*
X200511586Y-94016245D01*
X200609029Y-93993928D01*
X200760498Y-93917747D01*
X200766269Y-93912818D01*
X200766272Y-93912816D01*
X200798033Y-93885689D01*
X200862823Y-93856658D01*
X200879864Y-93855500D01*
X201350565Y-93855500D01*
X201355842Y-93855611D01*
X201414919Y-93858087D01*
X201455105Y-93848662D01*
X201466771Y-93846500D01*
X201499136Y-93842067D01*
X201499138Y-93842066D01*
X201507646Y-93840901D01*
X201515527Y-93837490D01*
X201515529Y-93837490D01*
X201520347Y-93835405D01*
X201541610Y-93828373D01*
X201546729Y-93827172D01*
X201546731Y-93827171D01*
X201555093Y-93825210D01*
X201591275Y-93805319D01*
X201601905Y-93800112D01*
X201639783Y-93783720D01*
X201646459Y-93778314D01*
X201646461Y-93778313D01*
X201650542Y-93775008D01*
X201669126Y-93762520D01*
X201681263Y-93755847D01*
X201689005Y-93749164D01*
X201712209Y-93725960D01*
X201722010Y-93717134D01*
X201744999Y-93698518D01*
X201751675Y-93693112D01*
X201761806Y-93678856D01*
X201775413Y-93662756D01*
X203393065Y-92045104D01*
X203455377Y-92011078D01*
X203526192Y-92016143D01*
X203583028Y-92058690D01*
X203600485Y-92090897D01*
X203611266Y-92120356D01*
X203705830Y-92261083D01*
X203711442Y-92266190D01*
X203711445Y-92266193D01*
X203825612Y-92370077D01*
X203825616Y-92370080D01*
X203831233Y-92375191D01*
X203837906Y-92378814D01*
X203837910Y-92378817D01*
X203973558Y-92452467D01*
X203973560Y-92452468D01*
X203980235Y-92456092D01*
X203987584Y-92458020D01*
X204136883Y-92497188D01*
X204136885Y-92497188D01*
X204144233Y-92499116D01*
X204230609Y-92500473D01*
X204306161Y-92501660D01*
X204306164Y-92501660D01*
X204313760Y-92501779D01*
X204321165Y-92500083D01*
X204321166Y-92500083D01*
X204391930Y-92483876D01*
X204479029Y-92463928D01*
X204630498Y-92387747D01*
X204636269Y-92382818D01*
X204636272Y-92382816D01*
X204668033Y-92355689D01*
X204732823Y-92326658D01*
X204749864Y-92325500D01*
X204830565Y-92325500D01*
X204835842Y-92325611D01*
X204894919Y-92328087D01*
X204935105Y-92318662D01*
X204946771Y-92316500D01*
X204979136Y-92312067D01*
X204979138Y-92312066D01*
X204987646Y-92310901D01*
X204995527Y-92307490D01*
X204995529Y-92307490D01*
X205000347Y-92305405D01*
X205021610Y-92298373D01*
X205026729Y-92297172D01*
X205026731Y-92297171D01*
X205035093Y-92295210D01*
X205071275Y-92275319D01*
X205081905Y-92270112D01*
X205119783Y-92253720D01*
X205126459Y-92248314D01*
X205126461Y-92248313D01*
X205130542Y-92245008D01*
X205149126Y-92232520D01*
X205161263Y-92225847D01*
X205169005Y-92219164D01*
X205192209Y-92195960D01*
X205202010Y-92187134D01*
X205224999Y-92168518D01*
X205231675Y-92163112D01*
X205241806Y-92148856D01*
X205255413Y-92132756D01*
X214478415Y-82909754D01*
X219044967Y-82909754D01*
X219058796Y-83120749D01*
X219060217Y-83126345D01*
X219060218Y-83126350D01*
X219107858Y-83313928D01*
X219110845Y-83325690D01*
X219113262Y-83330933D01*
X219160735Y-83433910D01*
X219199369Y-83517714D01*
X219321405Y-83690391D01*
X219472865Y-83837937D01*
X219477661Y-83841142D01*
X219477664Y-83841144D01*
X219570993Y-83903504D01*
X219648677Y-83955411D01*
X219653985Y-83957692D01*
X219653986Y-83957692D01*
X219837650Y-84036600D01*
X219837653Y-84036601D01*
X219842953Y-84038878D01*
X219848582Y-84040152D01*
X219848583Y-84040152D01*
X220043550Y-84084269D01*
X220043553Y-84084269D01*
X220049186Y-84085544D01*
X220054957Y-84085771D01*
X220054959Y-84085771D01*
X220116989Y-84088208D01*
X220260470Y-84093846D01*
X220266179Y-84093018D01*
X220266183Y-84093018D01*
X220464015Y-84064333D01*
X220464019Y-84064332D01*
X220469730Y-84063504D01*
X220542276Y-84038878D01*
X220664483Y-83997395D01*
X220664488Y-83997393D01*
X220669955Y-83995537D01*
X220711712Y-83972152D01*
X220849395Y-83895046D01*
X220849399Y-83895043D01*
X220854442Y-83892219D01*
X221017012Y-83757012D01*
X221152219Y-83594442D01*
X221155043Y-83589399D01*
X221155046Y-83589395D01*
X221252713Y-83414998D01*
X221252714Y-83414996D01*
X221255537Y-83409955D01*
X221257393Y-83404488D01*
X221257395Y-83404483D01*
X221312867Y-83241066D01*
X221323504Y-83209730D01*
X221324346Y-83203928D01*
X221353314Y-83004140D01*
X221353314Y-83004138D01*
X221353846Y-83000470D01*
X221355429Y-82940000D01*
X221336081Y-82729440D01*
X221332004Y-82714982D01*
X221299708Y-82600470D01*
X221278686Y-82525931D01*
X221270709Y-82509754D01*
X221187719Y-82341469D01*
X221185165Y-82336290D01*
X221066838Y-82177831D01*
X221062104Y-82171491D01*
X221062103Y-82171490D01*
X221058651Y-82166867D01*
X220903381Y-82023337D01*
X220849254Y-81989185D01*
X220729434Y-81913584D01*
X220729433Y-81913584D01*
X220724554Y-81910505D01*
X220528160Y-81832152D01*
X220522503Y-81831027D01*
X220522497Y-81831025D01*
X220366916Y-81800079D01*
X220304006Y-81767172D01*
X220268874Y-81705477D01*
X220272674Y-81634582D01*
X220314199Y-81576996D01*
X220380266Y-81551002D01*
X220391497Y-81550500D01*
X221094646Y-81550500D01*
X221098350Y-81550059D01*
X221098353Y-81550059D01*
X221105746Y-81549179D01*
X221120846Y-81547382D01*
X221196937Y-81513584D01*
X221212518Y-81506663D01*
X221223153Y-81501939D01*
X221302241Y-81422713D01*
X221308651Y-81408216D01*
X221338741Y-81340152D01*
X221347506Y-81320327D01*
X221350500Y-81294646D01*
X221350500Y-79505354D01*
X221347382Y-79479154D01*
X221341925Y-79466867D01*
X221306663Y-79387482D01*
X221301939Y-79376847D01*
X221291298Y-79366224D01*
X221249031Y-79324031D01*
X221222713Y-79297759D01*
X221212076Y-79293056D01*
X221212074Y-79293055D01*
X221152538Y-79266735D01*
X221120327Y-79252494D01*
X221094646Y-79249500D01*
X219305354Y-79249500D01*
X219301650Y-79249941D01*
X219301647Y-79249941D01*
X219294254Y-79250821D01*
X219279154Y-79252618D01*
X219270514Y-79256456D01*
X219270513Y-79256456D01*
X219191010Y-79291770D01*
X219176847Y-79298061D01*
X219168628Y-79306294D01*
X219168627Y-79306295D01*
X219143742Y-79331224D01*
X219097759Y-79377287D01*
X219093056Y-79387924D01*
X219093055Y-79387926D01*
X219067575Y-79445560D01*
X219052494Y-79479673D01*
X219049500Y-79505354D01*
X219049500Y-81294646D01*
X219052618Y-81320846D01*
X219056456Y-81329486D01*
X219056456Y-81329487D01*
X219080789Y-81384269D01*
X219098061Y-81423153D01*
X219106294Y-81431372D01*
X219106295Y-81431373D01*
X219109219Y-81434292D01*
X219177287Y-81502241D01*
X219187924Y-81506944D01*
X219187926Y-81506945D01*
X219247462Y-81533265D01*
X219279673Y-81547506D01*
X219305354Y-81550500D01*
X220014988Y-81550500D01*
X220083109Y-81570502D01*
X220129602Y-81624158D01*
X220139706Y-81694432D01*
X220110212Y-81759012D01*
X220050486Y-81797396D01*
X220036326Y-81800680D01*
X219906650Y-81822962D01*
X219906649Y-81822962D01*
X219900953Y-81823941D01*
X219702575Y-81897127D01*
X219697614Y-81900079D01*
X219697613Y-81900079D01*
X219561849Y-81980850D01*
X219520856Y-82005238D01*
X219361881Y-82144655D01*
X219230976Y-82310708D01*
X219228287Y-82315819D01*
X219228285Y-82315822D01*
X219188374Y-82391680D01*
X219132523Y-82497836D01*
X219069820Y-82699773D01*
X219044967Y-82909754D01*
X214478415Y-82909754D01*
X219756564Y-77631605D01*
X219818876Y-77597579D01*
X219845659Y-77594700D01*
X227119341Y-77594700D01*
X227187462Y-77614702D01*
X227208436Y-77631605D01*
X245178195Y-95601364D01*
X245181848Y-95605173D01*
X245221884Y-95648712D01*
X245256968Y-95670465D01*
X245266736Y-95677179D01*
X245299605Y-95702128D01*
X245307586Y-95705288D01*
X245307588Y-95705289D01*
X245312474Y-95707223D01*
X245332490Y-95717291D01*
X245344250Y-95724582D01*
X245352494Y-95726977D01*
X245352496Y-95726978D01*
X245383874Y-95736094D01*
X245395103Y-95739939D01*
X245425486Y-95751968D01*
X245425488Y-95751968D01*
X245433473Y-95755130D01*
X245447098Y-95756562D01*
X245447242Y-95756577D01*
X245469222Y-95760890D01*
X245482512Y-95764751D01*
X245489093Y-95765234D01*
X245489097Y-95765235D01*
X245490404Y-95765331D01*
X245490417Y-95765331D01*
X245492712Y-95765500D01*
X245525529Y-95765500D01*
X245538700Y-95766190D01*
X245576662Y-95770180D01*
X245585134Y-95768747D01*
X245585135Y-95768747D01*
X245593896Y-95767265D01*
X245614909Y-95765500D01*
X252147225Y-95765500D01*
X252215346Y-95785502D01*
X252250122Y-95818780D01*
X252300028Y-95889395D01*
X252371405Y-95990391D01*
X252427996Y-96045520D01*
X252511395Y-96126763D01*
X252522865Y-96137937D01*
X252527661Y-96141142D01*
X252527664Y-96141144D01*
X252670936Y-96236875D01*
X252698677Y-96255411D01*
X252703985Y-96257692D01*
X252703986Y-96257692D01*
X252887650Y-96336600D01*
X252887653Y-96336601D01*
X252892953Y-96338878D01*
X252898582Y-96340152D01*
X252898583Y-96340152D01*
X253093550Y-96384269D01*
X253093553Y-96384269D01*
X253099186Y-96385544D01*
X253104958Y-96385771D01*
X253110687Y-96386525D01*
X253110327Y-96389257D01*
X253166604Y-96408216D01*
X253210950Y-96463659D01*
X253218282Y-96534276D01*
X253186271Y-96597647D01*
X253125081Y-96633651D01*
X253115704Y-96635632D01*
X252956650Y-96662962D01*
X252956649Y-96662962D01*
X252950953Y-96663941D01*
X252752575Y-96737127D01*
X252747614Y-96740079D01*
X252747613Y-96740079D01*
X252730089Y-96750505D01*
X252570856Y-96845238D01*
X252411881Y-96984655D01*
X252280976Y-97150708D01*
X252278287Y-97155819D01*
X252278285Y-97155822D01*
X252242496Y-97223846D01*
X252182523Y-97337836D01*
X252119820Y-97539773D01*
X252094967Y-97749754D01*
X252108796Y-97960749D01*
X252110217Y-97966345D01*
X252110218Y-97966350D01*
X252132784Y-98055200D01*
X252160845Y-98165690D01*
X252249369Y-98357714D01*
X252371405Y-98530391D01*
X252522865Y-98677937D01*
X252527661Y-98681142D01*
X252527664Y-98681144D01*
X252670936Y-98776875D01*
X252698677Y-98795411D01*
X252703985Y-98797692D01*
X252703986Y-98797692D01*
X252887650Y-98876600D01*
X252887653Y-98876601D01*
X252892953Y-98878878D01*
X252898582Y-98880152D01*
X252898583Y-98880152D01*
X253093550Y-98924269D01*
X253093553Y-98924269D01*
X253099186Y-98925544D01*
X253104958Y-98925771D01*
X253110687Y-98926525D01*
X253110327Y-98929257D01*
X253166604Y-98948216D01*
X253210950Y-99003659D01*
X253218282Y-99074276D01*
X253186271Y-99137647D01*
X253125081Y-99173651D01*
X253115704Y-99175632D01*
X252956650Y-99202962D01*
X252956649Y-99202962D01*
X252950953Y-99203941D01*
X252752575Y-99277127D01*
X252747614Y-99280079D01*
X252747613Y-99280079D01*
X252730089Y-99290505D01*
X252570856Y-99385238D01*
X252411881Y-99524655D01*
X252280976Y-99690708D01*
X252278287Y-99695819D01*
X252278285Y-99695822D01*
X252264792Y-99721469D01*
X252182523Y-99877836D01*
X252119820Y-100079773D01*
X252094967Y-100289754D01*
X252108796Y-100500749D01*
X252110217Y-100506345D01*
X252110218Y-100506350D01*
X252132784Y-100595200D01*
X252160845Y-100705690D01*
X252249369Y-100897714D01*
X252371405Y-101070391D01*
X252522865Y-101217937D01*
X252527661Y-101221142D01*
X252527664Y-101221144D01*
X252670936Y-101316875D01*
X252698677Y-101335411D01*
X252703985Y-101337692D01*
X252703986Y-101337692D01*
X252887650Y-101416600D01*
X252887653Y-101416601D01*
X252892953Y-101418878D01*
X252898582Y-101420152D01*
X252898583Y-101420152D01*
X253093550Y-101464269D01*
X253093553Y-101464269D01*
X253099186Y-101465544D01*
X253104958Y-101465771D01*
X253110687Y-101466525D01*
X253110327Y-101469257D01*
X253166604Y-101488216D01*
X253210950Y-101543659D01*
X253218282Y-101614276D01*
X253186271Y-101677647D01*
X253125081Y-101713651D01*
X253115704Y-101715632D01*
X252956650Y-101742962D01*
X252956649Y-101742962D01*
X252950953Y-101743941D01*
X252752575Y-101817127D01*
X252747614Y-101820079D01*
X252747613Y-101820079D01*
X252730089Y-101830505D01*
X252570856Y-101925238D01*
X252411881Y-102064655D01*
X252280976Y-102230708D01*
X252278287Y-102235819D01*
X252278285Y-102235822D01*
X252264792Y-102261469D01*
X252182523Y-102417836D01*
X252119820Y-102619773D01*
X252094967Y-102829754D01*
X252108796Y-103040749D01*
X252110217Y-103046345D01*
X252110218Y-103046350D01*
X252132784Y-103135200D01*
X252160845Y-103245690D01*
X252249369Y-103437714D01*
X252371405Y-103610391D01*
X252522865Y-103757937D01*
X252527661Y-103761142D01*
X252527664Y-103761144D01*
X252670936Y-103856875D01*
X252698677Y-103875411D01*
X252703985Y-103877692D01*
X252703986Y-103877692D01*
X252887650Y-103956600D01*
X252887653Y-103956601D01*
X252892953Y-103958878D01*
X252898582Y-103960152D01*
X252898583Y-103960152D01*
X253093550Y-104004269D01*
X253093553Y-104004269D01*
X253099186Y-104005544D01*
X253104958Y-104005771D01*
X253110687Y-104006525D01*
X253110327Y-104009257D01*
X253166604Y-104028216D01*
X253210950Y-104083659D01*
X253218282Y-104154276D01*
X253186271Y-104217647D01*
X253125081Y-104253651D01*
X253115704Y-104255632D01*
X252956650Y-104282962D01*
X252956649Y-104282962D01*
X252950953Y-104283941D01*
X252752575Y-104357127D01*
X252747614Y-104360079D01*
X252747613Y-104360079D01*
X252730089Y-104370505D01*
X252570856Y-104465238D01*
X252411881Y-104604655D01*
X252280976Y-104770708D01*
X252278287Y-104775819D01*
X252278285Y-104775822D01*
X252264792Y-104801469D01*
X252182523Y-104957836D01*
X252119820Y-105159773D01*
X252094967Y-105369754D01*
X252108796Y-105580749D01*
X252110217Y-105586345D01*
X252110218Y-105586350D01*
X252152366Y-105752305D01*
X252160845Y-105785690D01*
X252249369Y-105977714D01*
X252371405Y-106150391D01*
X252522865Y-106297937D01*
X252527661Y-106301142D01*
X252527664Y-106301144D01*
X252670936Y-106396875D01*
X252698677Y-106415411D01*
X252703985Y-106417692D01*
X252703986Y-106417692D01*
X252887650Y-106496600D01*
X252887653Y-106496601D01*
X252892953Y-106498878D01*
X252898582Y-106500152D01*
X252898583Y-106500152D01*
X253093550Y-106544269D01*
X253093553Y-106544269D01*
X253099186Y-106545544D01*
X253104958Y-106545771D01*
X253110687Y-106546525D01*
X253110327Y-106549257D01*
X253166604Y-106568216D01*
X253210950Y-106623659D01*
X253218282Y-106694276D01*
X253186271Y-106757647D01*
X253125081Y-106793651D01*
X253115704Y-106795632D01*
X252956650Y-106822962D01*
X252956649Y-106822962D01*
X252950953Y-106823941D01*
X252752575Y-106897127D01*
X252747614Y-106900079D01*
X252747613Y-106900079D01*
X252581829Y-106998710D01*
X252570856Y-107005238D01*
X252411881Y-107144655D01*
X252280976Y-107310708D01*
X252278287Y-107315819D01*
X252278285Y-107315822D01*
X252264792Y-107341469D01*
X252182523Y-107497836D01*
X252139567Y-107636178D01*
X252122189Y-107692145D01*
X252119820Y-107699773D01*
X252094967Y-107909754D01*
X252108796Y-108120749D01*
X252110217Y-108126345D01*
X252110218Y-108126350D01*
X252132784Y-108215200D01*
X252160845Y-108325690D01*
X252163262Y-108330933D01*
X252219581Y-108453099D01*
X252249369Y-108517714D01*
X252371405Y-108690391D01*
X252522865Y-108837937D01*
X252527661Y-108841142D01*
X252527664Y-108841144D01*
X252616892Y-108900764D01*
X252698677Y-108955411D01*
X252703985Y-108957692D01*
X252703986Y-108957692D01*
X252887650Y-109036600D01*
X252887653Y-109036601D01*
X252892953Y-109038878D01*
X252898582Y-109040152D01*
X252898583Y-109040152D01*
X253093550Y-109084269D01*
X253093553Y-109084269D01*
X253099186Y-109085544D01*
X253104958Y-109085771D01*
X253110687Y-109086525D01*
X253110327Y-109089257D01*
X253166604Y-109108216D01*
X253210950Y-109163659D01*
X253218282Y-109234276D01*
X253186271Y-109297647D01*
X253125081Y-109333651D01*
X253115704Y-109335632D01*
X252956650Y-109362962D01*
X252956649Y-109362962D01*
X252950953Y-109363941D01*
X252752575Y-109437127D01*
X252747614Y-109440079D01*
X252747613Y-109440079D01*
X252730089Y-109450505D01*
X252570856Y-109545238D01*
X252411881Y-109684655D01*
X252280976Y-109850708D01*
X252278287Y-109855819D01*
X252278285Y-109855822D01*
X252243717Y-109921525D01*
X252182523Y-110037836D01*
X252119820Y-110239773D01*
X252094967Y-110449754D01*
X252108796Y-110660749D01*
X252110217Y-110666345D01*
X252110218Y-110666350D01*
X252132026Y-110752218D01*
X252160845Y-110865690D01*
X252249369Y-111057714D01*
X252371405Y-111230391D01*
X252392724Y-111251159D01*
X252501566Y-111357188D01*
X252522865Y-111377937D01*
X252527661Y-111381142D01*
X252527664Y-111381144D01*
X252666567Y-111473956D01*
X252698677Y-111495411D01*
X252703985Y-111497692D01*
X252703986Y-111497692D01*
X252887650Y-111576600D01*
X252887653Y-111576601D01*
X252892953Y-111578878D01*
X252898582Y-111580152D01*
X252898583Y-111580152D01*
X253093550Y-111624269D01*
X253093553Y-111624269D01*
X253099186Y-111625544D01*
X253104958Y-111625771D01*
X253110687Y-111626525D01*
X253110327Y-111629257D01*
X253166604Y-111648216D01*
X253210950Y-111703659D01*
X253218282Y-111774276D01*
X253186271Y-111837647D01*
X253125081Y-111873651D01*
X253115704Y-111875632D01*
X252956650Y-111902962D01*
X252956649Y-111902962D01*
X252950953Y-111903941D01*
X252752575Y-111977127D01*
X252747614Y-111980079D01*
X252747613Y-111980079D01*
X252730089Y-111990505D01*
X252570856Y-112085238D01*
X252411881Y-112224655D01*
X252280976Y-112390708D01*
X252278287Y-112395819D01*
X252278285Y-112395822D01*
X252264792Y-112421469D01*
X252182523Y-112577836D01*
X252119820Y-112779773D01*
X252094967Y-112989754D01*
X252108796Y-113200749D01*
X252110217Y-113206345D01*
X252110218Y-113206350D01*
X252131446Y-113289933D01*
X252160845Y-113405690D01*
X252249369Y-113597714D01*
X252371405Y-113770391D01*
X252375539Y-113774418D01*
X252466697Y-113863220D01*
X252522865Y-113917937D01*
X252527661Y-113921142D01*
X252527664Y-113921144D01*
X252666457Y-114013882D01*
X252698677Y-114035411D01*
X252703985Y-114037692D01*
X252703986Y-114037692D01*
X252887650Y-114116600D01*
X252887653Y-114116601D01*
X252892953Y-114118878D01*
X252898582Y-114120152D01*
X252898583Y-114120152D01*
X253093550Y-114164269D01*
X253093553Y-114164269D01*
X253099186Y-114165544D01*
X253104958Y-114165771D01*
X253110687Y-114166525D01*
X253110327Y-114169257D01*
X253166604Y-114188216D01*
X253210950Y-114243659D01*
X253218282Y-114314276D01*
X253186271Y-114377647D01*
X253125081Y-114413651D01*
X253115704Y-114415632D01*
X252956650Y-114442962D01*
X252956649Y-114442962D01*
X252950953Y-114443941D01*
X252752575Y-114517127D01*
X252747614Y-114520079D01*
X252747613Y-114520079D01*
X252730089Y-114530505D01*
X252570856Y-114625238D01*
X252411881Y-114764655D01*
X252280976Y-114930708D01*
X252278287Y-114935819D01*
X252278285Y-114935822D01*
X252231098Y-115025510D01*
X252182523Y-115117836D01*
X252119820Y-115319773D01*
X252094967Y-115529754D01*
X252108796Y-115740749D01*
X252110217Y-115746345D01*
X252110218Y-115746350D01*
X252132090Y-115832469D01*
X252160845Y-115945690D01*
X252249369Y-116137714D01*
X252371405Y-116310391D01*
X252375539Y-116314418D01*
X252499474Y-116435150D01*
X252522865Y-116457937D01*
X252527661Y-116461142D01*
X252527664Y-116461144D01*
X252667046Y-116554276D01*
X252698677Y-116575411D01*
X252703985Y-116577692D01*
X252703986Y-116577692D01*
X252887650Y-116656600D01*
X252887653Y-116656601D01*
X252892953Y-116658878D01*
X252898582Y-116660152D01*
X252898583Y-116660152D01*
X253093550Y-116704269D01*
X253093553Y-116704269D01*
X253099186Y-116705544D01*
X253104957Y-116705771D01*
X253104959Y-116705771D01*
X253166989Y-116708208D01*
X253310470Y-116713846D01*
X253316179Y-116713018D01*
X253316183Y-116713018D01*
X253514015Y-116684333D01*
X253514019Y-116684332D01*
X253519730Y-116683504D01*
X253601839Y-116655632D01*
X253714483Y-116617395D01*
X253714488Y-116617393D01*
X253719955Y-116615537D01*
X253724998Y-116612713D01*
X253899395Y-116515046D01*
X253899399Y-116515043D01*
X253904442Y-116512219D01*
X254067012Y-116377012D01*
X254202219Y-116214442D01*
X254205043Y-116209399D01*
X254205046Y-116209395D01*
X254302713Y-116034998D01*
X254302714Y-116034996D01*
X254305537Y-116029955D01*
X254307393Y-116024488D01*
X254307395Y-116024483D01*
X254371647Y-115835200D01*
X254373504Y-115829730D01*
X254388765Y-115724483D01*
X254403314Y-115624140D01*
X254403314Y-115624138D01*
X254403846Y-115620470D01*
X254405429Y-115560000D01*
X254386081Y-115349440D01*
X254328686Y-115145931D01*
X254317553Y-115123354D01*
X254237719Y-114961469D01*
X254235165Y-114956290D01*
X254108651Y-114786867D01*
X253972996Y-114661469D01*
X253957622Y-114647257D01*
X253957620Y-114647255D01*
X253953381Y-114643337D01*
X253774554Y-114530505D01*
X253578160Y-114452152D01*
X253572503Y-114451027D01*
X253572497Y-114451025D01*
X253375234Y-114411788D01*
X253312324Y-114378881D01*
X253277192Y-114317186D01*
X253280992Y-114246291D01*
X253322517Y-114188705D01*
X253381734Y-114163513D01*
X253514015Y-114144333D01*
X253514019Y-114144332D01*
X253519730Y-114143504D01*
X253623930Y-114108133D01*
X253714483Y-114077395D01*
X253714488Y-114077393D01*
X253719955Y-114075537D01*
X253725810Y-114072258D01*
X253899395Y-113975046D01*
X253899399Y-113975043D01*
X253904442Y-113972219D01*
X254067012Y-113837012D01*
X254202219Y-113674442D01*
X254205043Y-113669399D01*
X254205046Y-113669395D01*
X254302713Y-113494998D01*
X254302714Y-113494996D01*
X254305537Y-113489955D01*
X254307393Y-113484488D01*
X254307395Y-113484483D01*
X254371647Y-113295200D01*
X254373504Y-113289730D01*
X254388794Y-113184283D01*
X254403314Y-113084140D01*
X254403314Y-113084138D01*
X254403846Y-113080470D01*
X254405429Y-113020000D01*
X254386081Y-112809440D01*
X254328686Y-112605931D01*
X254317649Y-112583549D01*
X254237719Y-112421469D01*
X254235165Y-112416290D01*
X254108651Y-112246867D01*
X253973282Y-112121733D01*
X253957622Y-112107257D01*
X253957620Y-112107255D01*
X253953381Y-112103337D01*
X253924696Y-112085238D01*
X253779434Y-111993584D01*
X253779433Y-111993584D01*
X253774554Y-111990505D01*
X253578160Y-111912152D01*
X253572503Y-111911027D01*
X253572497Y-111911025D01*
X253375234Y-111871788D01*
X253312324Y-111838881D01*
X253277192Y-111777186D01*
X253280992Y-111706291D01*
X253322517Y-111648705D01*
X253381734Y-111623513D01*
X253514015Y-111604333D01*
X253514019Y-111604332D01*
X253519730Y-111603504D01*
X253602761Y-111575319D01*
X253714483Y-111537395D01*
X253714488Y-111537393D01*
X253719955Y-111535537D01*
X253724998Y-111532713D01*
X253899395Y-111435046D01*
X253899399Y-111435043D01*
X253904442Y-111432219D01*
X254067012Y-111297012D01*
X254202219Y-111134442D01*
X254205043Y-111129399D01*
X254205046Y-111129395D01*
X254302713Y-110954998D01*
X254302714Y-110954996D01*
X254305537Y-110949955D01*
X254307393Y-110944488D01*
X254307395Y-110944483D01*
X254371647Y-110755200D01*
X254373504Y-110749730D01*
X254377122Y-110724783D01*
X254403314Y-110544140D01*
X254403314Y-110544138D01*
X254403846Y-110540470D01*
X254405429Y-110480000D01*
X254386081Y-110269440D01*
X254328686Y-110065931D01*
X254324531Y-110057504D01*
X254237719Y-109881469D01*
X254235165Y-109876290D01*
X254108651Y-109706867D01*
X254000441Y-109606839D01*
X253957622Y-109567257D01*
X253957620Y-109567255D01*
X253953381Y-109563337D01*
X253774554Y-109450505D01*
X253578160Y-109372152D01*
X253572503Y-109371027D01*
X253572497Y-109371025D01*
X253375234Y-109331788D01*
X253312324Y-109298881D01*
X253277192Y-109237186D01*
X253280992Y-109166291D01*
X253322517Y-109108705D01*
X253381734Y-109083513D01*
X253514015Y-109064333D01*
X253514019Y-109064332D01*
X253519730Y-109063504D01*
X253598987Y-109036600D01*
X253714483Y-108997395D01*
X253714488Y-108997393D01*
X253719955Y-108995537D01*
X253730094Y-108989859D01*
X253899395Y-108895046D01*
X253899399Y-108895043D01*
X253904442Y-108892219D01*
X254067012Y-108757012D01*
X254202219Y-108594442D01*
X254205043Y-108589399D01*
X254205046Y-108589395D01*
X254302713Y-108414998D01*
X254302714Y-108414996D01*
X254305537Y-108409955D01*
X254307393Y-108404488D01*
X254307395Y-108404483D01*
X254371647Y-108215200D01*
X254373504Y-108209730D01*
X254403846Y-108000470D01*
X254405429Y-107940000D01*
X254386081Y-107729440D01*
X254328686Y-107525931D01*
X254322063Y-107512499D01*
X254237719Y-107341469D01*
X254235165Y-107336290D01*
X254108651Y-107166867D01*
X253967796Y-107036662D01*
X253957622Y-107027257D01*
X253957620Y-107027255D01*
X253953381Y-107023337D01*
X253774554Y-106910505D01*
X253578160Y-106832152D01*
X253572503Y-106831027D01*
X253572497Y-106831025D01*
X253384600Y-106793651D01*
X253375234Y-106791788D01*
X253312324Y-106758881D01*
X253277192Y-106697186D01*
X253280992Y-106626291D01*
X253322517Y-106568705D01*
X253381734Y-106543513D01*
X253514015Y-106524333D01*
X253514019Y-106524332D01*
X253519730Y-106523504D01*
X253602304Y-106495474D01*
X253714483Y-106457395D01*
X253714488Y-106457393D01*
X253719955Y-106455537D01*
X253724998Y-106452713D01*
X253899395Y-106355046D01*
X253899399Y-106355043D01*
X253904442Y-106352219D01*
X254067012Y-106217012D01*
X254202219Y-106054442D01*
X254205043Y-106049399D01*
X254205046Y-106049395D01*
X254302713Y-105874998D01*
X254302714Y-105874996D01*
X254305537Y-105869955D01*
X254307393Y-105864488D01*
X254307395Y-105864483D01*
X254362639Y-105701738D01*
X254373504Y-105669730D01*
X254394471Y-105525131D01*
X254403314Y-105464140D01*
X254403314Y-105464138D01*
X254403846Y-105460470D01*
X254405429Y-105400000D01*
X254386081Y-105189440D01*
X254380370Y-105169188D01*
X254330255Y-104991496D01*
X254328686Y-104985931D01*
X254317553Y-104963354D01*
X254237719Y-104801469D01*
X254235165Y-104796290D01*
X254108651Y-104626867D01*
X253953381Y-104483337D01*
X253774554Y-104370505D01*
X253578160Y-104292152D01*
X253572503Y-104291027D01*
X253572497Y-104291025D01*
X253375234Y-104251788D01*
X253312324Y-104218881D01*
X253277192Y-104157186D01*
X253280992Y-104086291D01*
X253322517Y-104028705D01*
X253381734Y-104003513D01*
X253514015Y-103984333D01*
X253514019Y-103984332D01*
X253519730Y-103983504D01*
X253598987Y-103956600D01*
X253714483Y-103917395D01*
X253714488Y-103917393D01*
X253719955Y-103915537D01*
X253724998Y-103912713D01*
X253899395Y-103815046D01*
X253899399Y-103815043D01*
X253904442Y-103812219D01*
X254067012Y-103677012D01*
X254202219Y-103514442D01*
X254205043Y-103509399D01*
X254205046Y-103509395D01*
X254302713Y-103334998D01*
X254302714Y-103334996D01*
X254305537Y-103329955D01*
X254307393Y-103324488D01*
X254307395Y-103324483D01*
X254371647Y-103135200D01*
X254373504Y-103129730D01*
X254403846Y-102920470D01*
X254405429Y-102860000D01*
X254386081Y-102649440D01*
X254328686Y-102445931D01*
X254317553Y-102423354D01*
X254237719Y-102261469D01*
X254235165Y-102256290D01*
X254108651Y-102086867D01*
X253953381Y-101943337D01*
X253774554Y-101830505D01*
X253578160Y-101752152D01*
X253572503Y-101751027D01*
X253572497Y-101751025D01*
X253375234Y-101711788D01*
X253312324Y-101678881D01*
X253277192Y-101617186D01*
X253280992Y-101546291D01*
X253322517Y-101488705D01*
X253381734Y-101463513D01*
X253514015Y-101444333D01*
X253514019Y-101444332D01*
X253519730Y-101443504D01*
X253598987Y-101416600D01*
X253714483Y-101377395D01*
X253714488Y-101377393D01*
X253719955Y-101375537D01*
X253724998Y-101372713D01*
X253899395Y-101275046D01*
X253899399Y-101275043D01*
X253904442Y-101272219D01*
X254067012Y-101137012D01*
X254202219Y-100974442D01*
X254205043Y-100969399D01*
X254205046Y-100969395D01*
X254302713Y-100794998D01*
X254302714Y-100794996D01*
X254305537Y-100789955D01*
X254307393Y-100784488D01*
X254307395Y-100784483D01*
X254371647Y-100595200D01*
X254373504Y-100589730D01*
X254403846Y-100380470D01*
X254405429Y-100320000D01*
X254386081Y-100109440D01*
X254328686Y-99905931D01*
X254317553Y-99883354D01*
X254237719Y-99721469D01*
X254235165Y-99716290D01*
X254108651Y-99546867D01*
X253953381Y-99403337D01*
X253774554Y-99290505D01*
X253578160Y-99212152D01*
X253572503Y-99211027D01*
X253572497Y-99211025D01*
X253375234Y-99171788D01*
X253312324Y-99138881D01*
X253277192Y-99077186D01*
X253280992Y-99006291D01*
X253322517Y-98948705D01*
X253381734Y-98923513D01*
X253514015Y-98904333D01*
X253514019Y-98904332D01*
X253519730Y-98903504D01*
X253598987Y-98876600D01*
X253714483Y-98837395D01*
X253714488Y-98837393D01*
X253719955Y-98835537D01*
X253724998Y-98832713D01*
X253899395Y-98735046D01*
X253899399Y-98735043D01*
X253904442Y-98732219D01*
X254067012Y-98597012D01*
X254202219Y-98434442D01*
X254205043Y-98429399D01*
X254205046Y-98429395D01*
X254302713Y-98254998D01*
X254302714Y-98254996D01*
X254305537Y-98249955D01*
X254307393Y-98244488D01*
X254307395Y-98244483D01*
X254371647Y-98055200D01*
X254373504Y-98049730D01*
X254403846Y-97840470D01*
X254405429Y-97780000D01*
X254386081Y-97569440D01*
X254328686Y-97365931D01*
X254317553Y-97343354D01*
X254237719Y-97181469D01*
X254235165Y-97176290D01*
X254167303Y-97085411D01*
X254112104Y-97011491D01*
X254112103Y-97011490D01*
X254108651Y-97006867D01*
X254008286Y-96914090D01*
X253957622Y-96867257D01*
X253957620Y-96867255D01*
X253953381Y-96863337D01*
X253920014Y-96842284D01*
X253779434Y-96753584D01*
X253779433Y-96753584D01*
X253774554Y-96750505D01*
X253578160Y-96672152D01*
X253572503Y-96671027D01*
X253572497Y-96671025D01*
X253375234Y-96631788D01*
X253312324Y-96598881D01*
X253277192Y-96537186D01*
X253280992Y-96466291D01*
X253322517Y-96408705D01*
X253381734Y-96383513D01*
X253514015Y-96364333D01*
X253514019Y-96364332D01*
X253519730Y-96363504D01*
X253606602Y-96334015D01*
X253714483Y-96297395D01*
X253714488Y-96297393D01*
X253719955Y-96295537D01*
X253724998Y-96292713D01*
X253899395Y-96195046D01*
X253899399Y-96195043D01*
X253904442Y-96192219D01*
X254067012Y-96057012D01*
X254202219Y-95894442D01*
X254205043Y-95889399D01*
X254205046Y-95889395D01*
X254302713Y-95714998D01*
X254302714Y-95714996D01*
X254305537Y-95709955D01*
X254307393Y-95704488D01*
X254307395Y-95704483D01*
X254371647Y-95515200D01*
X254373504Y-95509730D01*
X254382771Y-95445822D01*
X254403314Y-95304140D01*
X254403314Y-95304138D01*
X254403846Y-95300470D01*
X254405429Y-95240000D01*
X254386081Y-95029440D01*
X254328686Y-94825931D01*
X254317553Y-94803354D01*
X254237719Y-94641469D01*
X254235165Y-94636290D01*
X254167303Y-94545411D01*
X254112104Y-94471491D01*
X254112103Y-94471490D01*
X254108651Y-94466867D01*
X254008286Y-94374090D01*
X253957622Y-94327257D01*
X253957620Y-94327255D01*
X253953381Y-94323337D01*
X253920014Y-94302284D01*
X253779434Y-94213584D01*
X253779433Y-94213584D01*
X253774554Y-94210505D01*
X253578160Y-94132152D01*
X253572503Y-94131027D01*
X253572497Y-94131025D01*
X253375234Y-94091788D01*
X253312324Y-94058881D01*
X253277192Y-93997186D01*
X253280992Y-93926291D01*
X253322517Y-93868705D01*
X253381734Y-93843513D01*
X253514015Y-93824333D01*
X253514019Y-93824332D01*
X253519730Y-93823504D01*
X253588523Y-93800152D01*
X253714483Y-93757395D01*
X253714488Y-93757393D01*
X253719955Y-93755537D01*
X253727101Y-93751535D01*
X253899395Y-93655046D01*
X253899399Y-93655043D01*
X253904442Y-93652219D01*
X254067012Y-93517012D01*
X254202219Y-93354442D01*
X254205043Y-93349399D01*
X254205046Y-93349395D01*
X254302713Y-93174998D01*
X254302714Y-93174996D01*
X254305537Y-93169955D01*
X254307393Y-93164488D01*
X254307395Y-93164483D01*
X254354173Y-93026676D01*
X254373504Y-92969730D01*
X254382771Y-92905822D01*
X254403314Y-92764140D01*
X254403314Y-92764138D01*
X254403846Y-92760470D01*
X254405429Y-92700000D01*
X254386081Y-92489440D01*
X254328686Y-92285931D01*
X254323457Y-92275326D01*
X254237719Y-92101469D01*
X254235165Y-92096290D01*
X254167303Y-92005411D01*
X254112104Y-91931491D01*
X254112103Y-91931490D01*
X254108651Y-91926867D01*
X254008286Y-91834090D01*
X253957622Y-91787257D01*
X253957620Y-91787255D01*
X253953381Y-91783337D01*
X253920014Y-91762284D01*
X253779434Y-91673584D01*
X253779433Y-91673584D01*
X253774554Y-91670505D01*
X253578160Y-91592152D01*
X253572503Y-91591027D01*
X253572497Y-91591025D01*
X253375234Y-91551788D01*
X253312324Y-91518881D01*
X253277192Y-91457186D01*
X253280992Y-91386291D01*
X253322517Y-91328705D01*
X253381734Y-91303513D01*
X253514015Y-91284333D01*
X253514019Y-91284332D01*
X253519730Y-91283504D01*
X253606602Y-91254015D01*
X253714483Y-91217395D01*
X253714488Y-91217393D01*
X253719955Y-91215537D01*
X253752950Y-91197059D01*
X253899395Y-91115046D01*
X253899399Y-91115043D01*
X253904442Y-91112219D01*
X254067012Y-90977012D01*
X254202219Y-90814442D01*
X254205043Y-90809399D01*
X254205046Y-90809395D01*
X254302713Y-90634998D01*
X254302714Y-90634996D01*
X254305537Y-90629955D01*
X254307393Y-90624488D01*
X254307395Y-90624483D01*
X254371647Y-90435200D01*
X254373504Y-90429730D01*
X254375672Y-90414783D01*
X254403314Y-90224140D01*
X254403314Y-90224138D01*
X254403846Y-90220470D01*
X254405429Y-90160000D01*
X254386081Y-89949440D01*
X254328686Y-89745931D01*
X254317553Y-89723354D01*
X254237719Y-89561469D01*
X254235165Y-89556290D01*
X254129284Y-89414498D01*
X254112104Y-89391491D01*
X254112103Y-89391490D01*
X254108651Y-89386867D01*
X254008286Y-89294090D01*
X253957622Y-89247257D01*
X253957620Y-89247255D01*
X253953381Y-89243337D01*
X253810232Y-89153016D01*
X253779434Y-89133584D01*
X253779433Y-89133584D01*
X253774554Y-89130505D01*
X253578160Y-89052152D01*
X253572503Y-89051027D01*
X253572497Y-89051025D01*
X253375234Y-89011788D01*
X253312324Y-88978881D01*
X253277192Y-88917186D01*
X253280992Y-88846291D01*
X253322517Y-88788705D01*
X253381734Y-88763513D01*
X253514015Y-88744333D01*
X253514019Y-88744332D01*
X253519730Y-88743504D01*
X253598987Y-88716600D01*
X253714483Y-88677395D01*
X253714488Y-88677393D01*
X253719955Y-88675537D01*
X253724998Y-88672713D01*
X253899395Y-88575046D01*
X253899399Y-88575043D01*
X253904442Y-88572219D01*
X254067012Y-88437012D01*
X254202219Y-88274442D01*
X254205043Y-88269399D01*
X254205046Y-88269395D01*
X254302713Y-88094998D01*
X254302714Y-88094996D01*
X254305537Y-88089955D01*
X254307393Y-88084488D01*
X254307395Y-88084483D01*
X254361289Y-87925713D01*
X254373504Y-87889730D01*
X254374612Y-87882094D01*
X254403314Y-87684140D01*
X254403314Y-87684138D01*
X254403846Y-87680470D01*
X254405429Y-87620000D01*
X254386081Y-87409440D01*
X254328686Y-87205931D01*
X254317553Y-87183354D01*
X254237719Y-87021469D01*
X254235165Y-87016290D01*
X254108651Y-86846867D01*
X253953381Y-86703337D01*
X253774554Y-86590505D01*
X253578160Y-86512152D01*
X253572503Y-86511027D01*
X253572497Y-86511025D01*
X253375234Y-86471788D01*
X253312324Y-86438881D01*
X253277192Y-86377186D01*
X253280992Y-86306291D01*
X253322517Y-86248705D01*
X253381734Y-86223513D01*
X253514015Y-86204333D01*
X253514019Y-86204332D01*
X253519730Y-86203504D01*
X253598987Y-86176600D01*
X253714483Y-86137395D01*
X253714488Y-86137393D01*
X253719955Y-86135537D01*
X253725246Y-86132574D01*
X253899395Y-86035046D01*
X253899399Y-86035043D01*
X253904442Y-86032219D01*
X254067012Y-85897012D01*
X254202219Y-85734442D01*
X254205043Y-85729399D01*
X254205046Y-85729395D01*
X254302713Y-85554998D01*
X254302714Y-85554996D01*
X254305537Y-85549955D01*
X254307393Y-85544488D01*
X254307395Y-85544483D01*
X254363069Y-85380470D01*
X254373504Y-85349730D01*
X254381365Y-85295520D01*
X254403314Y-85144140D01*
X254403314Y-85144138D01*
X254403846Y-85140470D01*
X254405429Y-85080000D01*
X254386081Y-84869440D01*
X254328686Y-84665931D01*
X254317553Y-84643354D01*
X254237719Y-84481469D01*
X254235165Y-84476290D01*
X254108651Y-84306867D01*
X253964539Y-84173651D01*
X253957622Y-84167257D01*
X253957620Y-84167255D01*
X253953381Y-84163337D01*
X253830087Y-84085544D01*
X253779434Y-84053584D01*
X253779433Y-84053584D01*
X253774554Y-84050505D01*
X253578160Y-83972152D01*
X253572503Y-83971027D01*
X253572497Y-83971025D01*
X253375234Y-83931788D01*
X253312324Y-83898881D01*
X253277192Y-83837186D01*
X253280992Y-83766291D01*
X253322517Y-83708705D01*
X253381734Y-83683513D01*
X253514015Y-83664333D01*
X253514019Y-83664332D01*
X253519730Y-83663504D01*
X253598987Y-83636600D01*
X253714483Y-83597395D01*
X253714488Y-83597393D01*
X253719955Y-83595537D01*
X253725246Y-83592574D01*
X253899395Y-83495046D01*
X253899399Y-83495043D01*
X253904442Y-83492219D01*
X254067012Y-83357012D01*
X254202219Y-83194442D01*
X254205043Y-83189399D01*
X254205046Y-83189395D01*
X254302713Y-83014998D01*
X254302714Y-83014996D01*
X254305537Y-83009955D01*
X254307393Y-83004488D01*
X254307395Y-83004483D01*
X254363069Y-82840470D01*
X254373504Y-82809730D01*
X254381365Y-82755520D01*
X254403314Y-82604140D01*
X254403314Y-82604138D01*
X254403846Y-82600470D01*
X254405429Y-82540000D01*
X254386081Y-82329440D01*
X254382241Y-82315822D01*
X254355267Y-82220180D01*
X254328686Y-82125931D01*
X254317553Y-82103354D01*
X254237719Y-81941469D01*
X254235165Y-81936290D01*
X254108651Y-81766867D01*
X253964539Y-81633651D01*
X253957622Y-81627257D01*
X253957620Y-81627255D01*
X253953381Y-81623337D01*
X253774554Y-81510505D01*
X253578160Y-81432152D01*
X253572503Y-81431027D01*
X253572497Y-81431025D01*
X253416916Y-81400079D01*
X253354006Y-81367172D01*
X253318874Y-81305477D01*
X253322674Y-81234582D01*
X253364199Y-81176996D01*
X253430266Y-81151002D01*
X253441497Y-81150500D01*
X254144646Y-81150500D01*
X254148350Y-81150059D01*
X254148353Y-81150059D01*
X254155746Y-81149179D01*
X254170846Y-81147382D01*
X254273153Y-81101939D01*
X254352241Y-81022713D01*
X254364751Y-80994418D01*
X254393675Y-80928992D01*
X254397506Y-80920327D01*
X254400500Y-80894646D01*
X254400500Y-79105354D01*
X254397382Y-79079154D01*
X254351939Y-78976847D01*
X254272713Y-78897759D01*
X254262076Y-78893056D01*
X254262074Y-78893055D01*
X254202538Y-78866735D01*
X254170327Y-78852494D01*
X254144646Y-78849500D01*
X252355354Y-78849500D01*
X252351650Y-78849941D01*
X252351647Y-78849941D01*
X252346951Y-78850500D01*
X252329154Y-78852618D01*
X252226847Y-78898061D01*
X252147759Y-78977287D01*
X252102494Y-79079673D01*
X252099500Y-79105354D01*
X252099500Y-80894646D01*
X252102618Y-80920846D01*
X252148061Y-81023153D01*
X252156294Y-81031372D01*
X252156295Y-81031373D01*
X252187835Y-81062858D01*
X252227287Y-81102241D01*
X252237924Y-81106944D01*
X252237926Y-81106945D01*
X252297462Y-81133265D01*
X252329673Y-81147506D01*
X252355354Y-81150500D01*
X253064988Y-81150500D01*
X253133109Y-81170502D01*
X253179602Y-81224158D01*
X253189706Y-81294432D01*
X253160212Y-81359012D01*
X253100486Y-81397396D01*
X253086326Y-81400680D01*
X252956650Y-81422962D01*
X252956649Y-81422962D01*
X252950953Y-81423941D01*
X252752575Y-81497127D01*
X252747614Y-81500079D01*
X252747613Y-81500079D01*
X252668104Y-81547382D01*
X252570856Y-81605238D01*
X252411881Y-81744655D01*
X252280976Y-81910708D01*
X252267517Y-81936290D01*
X252261793Y-81947169D01*
X252212373Y-81998141D01*
X252150285Y-82014500D01*
X243604859Y-82014500D01*
X243536738Y-81994498D01*
X243515764Y-81977595D01*
X241555780Y-80017611D01*
X242689394Y-80017611D01*
X242707999Y-80186135D01*
X242740754Y-80275642D01*
X242762884Y-80336113D01*
X242766266Y-80345356D01*
X242860830Y-80486083D01*
X242866442Y-80491190D01*
X242866445Y-80491193D01*
X242980612Y-80595077D01*
X242980616Y-80595080D01*
X242986233Y-80600191D01*
X242992906Y-80603814D01*
X242992910Y-80603817D01*
X243128558Y-80677467D01*
X243128560Y-80677468D01*
X243135235Y-80681092D01*
X243142584Y-80683020D01*
X243291883Y-80722188D01*
X243291885Y-80722188D01*
X243299233Y-80724116D01*
X243385609Y-80725473D01*
X243461161Y-80726660D01*
X243461164Y-80726660D01*
X243468760Y-80726779D01*
X243476165Y-80725083D01*
X243476166Y-80725083D01*
X243566111Y-80704483D01*
X243634029Y-80688928D01*
X243785498Y-80612747D01*
X243864013Y-80545689D01*
X243928802Y-80516658D01*
X243945843Y-80515500D01*
X250337878Y-80515500D01*
X250405999Y-80535502D01*
X250422670Y-80548300D01*
X250441233Y-80565191D01*
X250470643Y-80581159D01*
X250583558Y-80642467D01*
X250583560Y-80642468D01*
X250590235Y-80646092D01*
X250597584Y-80648020D01*
X250746883Y-80687188D01*
X250746885Y-80687188D01*
X250754233Y-80689116D01*
X250840609Y-80690473D01*
X250916161Y-80691660D01*
X250916164Y-80691660D01*
X250923760Y-80691779D01*
X250931165Y-80690083D01*
X250931166Y-80690083D01*
X250991586Y-80676245D01*
X251089029Y-80653928D01*
X251240498Y-80577747D01*
X251347822Y-80486083D01*
X251363651Y-80472564D01*
X251363652Y-80472563D01*
X251369423Y-80467634D01*
X251468361Y-80329947D01*
X251477530Y-80307139D01*
X251528766Y-80179687D01*
X251528767Y-80179685D01*
X251531601Y-80172634D01*
X251553664Y-80017611D01*
X251554909Y-80008862D01*
X251554909Y-80008859D01*
X251555490Y-80004778D01*
X251555562Y-79997932D01*
X251555602Y-79994135D01*
X251555602Y-79994129D01*
X251555645Y-79990000D01*
X251535276Y-79821680D01*
X251475345Y-79663077D01*
X251436234Y-79606171D01*
X251383614Y-79529608D01*
X251383613Y-79529607D01*
X251379312Y-79523349D01*
X251363304Y-79509086D01*
X251258392Y-79415612D01*
X251258388Y-79415610D01*
X251252721Y-79410560D01*
X251102881Y-79331224D01*
X250938441Y-79289919D01*
X250930843Y-79289879D01*
X250930841Y-79289879D01*
X250853668Y-79289475D01*
X250768895Y-79289031D01*
X250761508Y-79290805D01*
X250761504Y-79290805D01*
X250638836Y-79320256D01*
X250604032Y-79328612D01*
X250597288Y-79332093D01*
X250597285Y-79332094D01*
X250489113Y-79387926D01*
X250453369Y-79406375D01*
X250422332Y-79433451D01*
X250357850Y-79463157D01*
X250339504Y-79464500D01*
X243862860Y-79464500D01*
X243798390Y-79444297D01*
X243797721Y-79445560D01*
X243647881Y-79366224D01*
X243483441Y-79324919D01*
X243475843Y-79324879D01*
X243475841Y-79324879D01*
X243398668Y-79324475D01*
X243313895Y-79324031D01*
X243306508Y-79325805D01*
X243306504Y-79325805D01*
X243163162Y-79360220D01*
X243149032Y-79363612D01*
X243142288Y-79367093D01*
X243142285Y-79367094D01*
X243058072Y-79410560D01*
X242998369Y-79441375D01*
X242992647Y-79446367D01*
X242992645Y-79446368D01*
X242971860Y-79464500D01*
X242870604Y-79552831D01*
X242773113Y-79691547D01*
X242711524Y-79849513D01*
X242710532Y-79857046D01*
X242710532Y-79857047D01*
X242690546Y-80008862D01*
X242689394Y-80017611D01*
X241555780Y-80017611D01*
X231976805Y-70438636D01*
X231973152Y-70434827D01*
X231938934Y-70397615D01*
X231933116Y-70391288D01*
X231898044Y-70369542D01*
X231888262Y-70362819D01*
X231877951Y-70354992D01*
X231855396Y-70337872D01*
X231847409Y-70334710D01*
X231847406Y-70334708D01*
X231842517Y-70332772D01*
X231822516Y-70322713D01*
X231810750Y-70315418D01*
X231771119Y-70303904D01*
X231759895Y-70300060D01*
X231729516Y-70288033D01*
X231729513Y-70288032D01*
X231721528Y-70284871D01*
X231712991Y-70283974D01*
X231712984Y-70283972D01*
X231707761Y-70283423D01*
X231685784Y-70279112D01*
X231678822Y-70277089D01*
X231678820Y-70277089D01*
X231672488Y-70275249D01*
X231665673Y-70274749D01*
X231664596Y-70274669D01*
X231664583Y-70274669D01*
X231662288Y-70274500D01*
X231629461Y-70274500D01*
X231616290Y-70273810D01*
X231578338Y-70269821D01*
X231569872Y-70271253D01*
X231569869Y-70271253D01*
X231561102Y-70272736D01*
X231540090Y-70274500D01*
X216574435Y-70274500D01*
X216569159Y-70274389D01*
X216556894Y-70273875D01*
X216510081Y-70271913D01*
X216469895Y-70281338D01*
X216458229Y-70283500D01*
X216425864Y-70287933D01*
X216425862Y-70287934D01*
X216417354Y-70289099D01*
X216409473Y-70292510D01*
X216409471Y-70292510D01*
X216404653Y-70294595D01*
X216383390Y-70301627D01*
X216378274Y-70302827D01*
X216378270Y-70302828D01*
X216369907Y-70304790D01*
X216362380Y-70308928D01*
X216362375Y-70308930D01*
X216333741Y-70324672D01*
X216323081Y-70329895D01*
X216285217Y-70346280D01*
X216274459Y-70354992D01*
X216255867Y-70367485D01*
X216249525Y-70370971D01*
X216249521Y-70370974D01*
X216243738Y-70374153D01*
X216235995Y-70380835D01*
X216212786Y-70404044D01*
X216202986Y-70412869D01*
X216173325Y-70436888D01*
X216168349Y-70443890D01*
X216168348Y-70443891D01*
X216163201Y-70451134D01*
X216149590Y-70467240D01*
X204702878Y-81913953D01*
X204640566Y-81947979D01*
X204634072Y-81949058D01*
X204628895Y-81949031D01*
X204621508Y-81950805D01*
X204621504Y-81950805D01*
X204512369Y-81977007D01*
X204464032Y-81988612D01*
X204457288Y-81992093D01*
X204457285Y-81992094D01*
X204320224Y-82062837D01*
X204313369Y-82066375D01*
X204307647Y-82071367D01*
X204307645Y-82071368D01*
X204294498Y-82082837D01*
X204185604Y-82177831D01*
X204088113Y-82316547D01*
X204026524Y-82474513D01*
X204025532Y-82482046D01*
X204025532Y-82482047D01*
X204017583Y-82542426D01*
X203988860Y-82607354D01*
X203981756Y-82615075D01*
X179258636Y-107338195D01*
X179254827Y-107341848D01*
X179211288Y-107381884D01*
X179206760Y-107389187D01*
X179206759Y-107389188D01*
X179189543Y-107416955D01*
X179182820Y-107426737D01*
X179157872Y-107459604D01*
X179154710Y-107467591D01*
X179154708Y-107467594D01*
X179152772Y-107472483D01*
X179142713Y-107492484D01*
X179135418Y-107504250D01*
X179129119Y-107525931D01*
X179123905Y-107543877D01*
X179120060Y-107555105D01*
X179108033Y-107585484D01*
X179108032Y-107585487D01*
X179104871Y-107593472D01*
X179103974Y-107602009D01*
X179103972Y-107602016D01*
X179103423Y-107607239D01*
X179099112Y-107629215D01*
X179095249Y-107642512D01*
X179094500Y-107652712D01*
X179094500Y-107685539D01*
X179093810Y-107698710D01*
X179089821Y-107736662D01*
X179091253Y-107745128D01*
X179091253Y-107745131D01*
X179092736Y-107753898D01*
X179094500Y-107774910D01*
X179094500Y-110092994D01*
X179074498Y-110161115D01*
X179051331Y-110187941D01*
X179005604Y-110227831D01*
X178993179Y-110245510D01*
X178913591Y-110358753D01*
X178908113Y-110366547D01*
X178846524Y-110524513D01*
X178845532Y-110532046D01*
X178845532Y-110532047D01*
X178826742Y-110674778D01*
X178824394Y-110692611D01*
X177818961Y-110692611D01*
X177878361Y-110609947D01*
X177886237Y-110590356D01*
X177938766Y-110459687D01*
X177938767Y-110459685D01*
X177941601Y-110452634D01*
X177955767Y-110353096D01*
X177985168Y-110288473D01*
X177991415Y-110281754D01*
X178041364Y-110231805D01*
X178045173Y-110228152D01*
X178082385Y-110193934D01*
X178088712Y-110188116D01*
X178110465Y-110153032D01*
X178117182Y-110143260D01*
X178136935Y-110117236D01*
X178142128Y-110110395D01*
X178147224Y-110097524D01*
X178157292Y-110077507D01*
X178160056Y-110073049D01*
X178164582Y-110065750D01*
X178176094Y-110026126D01*
X178179939Y-110014897D01*
X178191968Y-109984514D01*
X178191968Y-109984512D01*
X178195130Y-109976527D01*
X178196577Y-109962758D01*
X178200890Y-109940776D01*
X178202908Y-109933830D01*
X178204751Y-109927488D01*
X178205500Y-109917288D01*
X178205500Y-109884471D01*
X178206190Y-109871300D01*
X178209282Y-109841882D01*
X178210180Y-109833338D01*
X178207265Y-109816104D01*
X178205500Y-109795091D01*
X178205500Y-107289859D01*
X178225502Y-107221738D01*
X178242405Y-107200764D01*
X202165888Y-83277281D01*
X202228200Y-83243255D01*
X202237946Y-83241688D01*
X202243760Y-83241779D01*
X202251165Y-83240083D01*
X202251166Y-83240083D01*
X202321703Y-83223928D01*
X202409029Y-83203928D01*
X202560498Y-83127747D01*
X202673223Y-83031470D01*
X202683651Y-83022564D01*
X202683652Y-83022563D01*
X202689423Y-83017634D01*
X202788361Y-82879947D01*
X202791194Y-82872900D01*
X202848766Y-82729687D01*
X202848767Y-82729685D01*
X202851601Y-82722634D01*
X202866909Y-82615075D01*
X202874909Y-82558862D01*
X202874909Y-82558859D01*
X202875490Y-82554778D01*
X202875645Y-82540000D01*
X202873943Y-82525931D01*
X202868632Y-82482047D01*
X202855276Y-82371680D01*
X202795345Y-82213077D01*
X202760894Y-82162951D01*
X202703614Y-82079608D01*
X202703613Y-82079607D01*
X202699312Y-82073349D01*
X202691485Y-82066375D01*
X202578392Y-81965612D01*
X202578388Y-81965610D01*
X202572721Y-81960560D01*
X202550947Y-81949031D01*
X202484695Y-81913953D01*
X202422881Y-81881224D01*
X202258441Y-81839919D01*
X202250843Y-81839879D01*
X202250841Y-81839879D01*
X202173668Y-81839475D01*
X202088895Y-81839031D01*
X202081508Y-81840805D01*
X202081504Y-81840805D01*
X201938162Y-81875220D01*
X201924032Y-81878612D01*
X201917288Y-81882093D01*
X201917285Y-81882094D01*
X201780117Y-81952892D01*
X201773369Y-81956375D01*
X201767647Y-81961367D01*
X201767645Y-81961368D01*
X201710188Y-82011491D01*
X201645604Y-82067831D01*
X201641237Y-82074045D01*
X201563928Y-82184045D01*
X201548113Y-82206547D01*
X201486524Y-82364513D01*
X201485532Y-82372046D01*
X201485532Y-82372047D01*
X201476067Y-82443942D01*
X201447345Y-82508869D01*
X201440240Y-82516591D01*
X177318636Y-106638195D01*
X177314827Y-106641848D01*
X177271288Y-106681884D01*
X177266760Y-106689187D01*
X177266759Y-106689188D01*
X177249543Y-106716955D01*
X177242820Y-106726737D01*
X177217872Y-106759604D01*
X177214710Y-106767591D01*
X177214708Y-106767594D01*
X177212772Y-106772483D01*
X177202713Y-106792484D01*
X177195418Y-106804250D01*
X177186690Y-106834292D01*
X177183905Y-106843877D01*
X177180060Y-106855105D01*
X177168033Y-106885484D01*
X177168032Y-106885487D01*
X177164871Y-106893472D01*
X177163974Y-106902009D01*
X177163972Y-106902016D01*
X177163423Y-106907239D01*
X177159112Y-106929215D01*
X177155249Y-106942512D01*
X177154500Y-106952712D01*
X177154500Y-106985539D01*
X177153810Y-106998710D01*
X177149821Y-107036662D01*
X177151253Y-107045128D01*
X177151253Y-107045131D01*
X177152736Y-107053898D01*
X177154500Y-107074910D01*
X177154500Y-109475558D01*
X177134498Y-109543679D01*
X177080842Y-109590172D01*
X177057916Y-109598076D01*
X177021416Y-109606839D01*
X177021414Y-109606840D01*
X177014032Y-109608612D01*
X177007288Y-109612093D01*
X177007285Y-109612094D01*
X176874073Y-109680850D01*
X176863369Y-109686375D01*
X176735604Y-109797831D01*
X176722762Y-109816104D01*
X176644480Y-109927488D01*
X176638113Y-109936547D01*
X176576524Y-110094513D01*
X176575532Y-110102046D01*
X176575532Y-110102047D01*
X176556829Y-110244118D01*
X176554394Y-110262611D01*
X174585500Y-110262611D01*
X174585500Y-105769859D01*
X174605502Y-105701738D01*
X174622405Y-105680764D01*
X197007063Y-83296106D01*
X197069375Y-83262080D01*
X197071471Y-83261743D01*
X197073760Y-83261779D01*
X197079678Y-83260424D01*
X197079682Y-83260423D01*
X197178691Y-83237747D01*
X197239029Y-83223928D01*
X197390498Y-83147747D01*
X197484731Y-83067264D01*
X197513651Y-83042564D01*
X197513652Y-83042563D01*
X197519423Y-83037634D01*
X197618361Y-82899947D01*
X197629234Y-82872900D01*
X197678766Y-82749687D01*
X197678767Y-82749685D01*
X197681601Y-82742634D01*
X197702361Y-82596763D01*
X197704909Y-82578862D01*
X197704909Y-82578859D01*
X197705490Y-82574778D01*
X197705645Y-82560000D01*
X197685276Y-82391680D01*
X197625345Y-82233077D01*
X197607111Y-82206547D01*
X197533614Y-82099608D01*
X197533613Y-82099607D01*
X197529312Y-82093349D01*
X197506865Y-82073349D01*
X197408392Y-81985612D01*
X197408388Y-81985610D01*
X197402721Y-81980560D01*
X197364948Y-81960560D01*
X197319109Y-81936290D01*
X197252881Y-81901224D01*
X197088441Y-81859919D01*
X197080843Y-81859879D01*
X197080841Y-81859879D01*
X197003668Y-81859475D01*
X196918895Y-81859031D01*
X196911508Y-81860805D01*
X196911504Y-81860805D01*
X196768539Y-81895129D01*
X196754032Y-81898612D01*
X196747288Y-81902093D01*
X196747285Y-81902094D01*
X196624222Y-81965612D01*
X196603369Y-81976375D01*
X196597647Y-81981367D01*
X196597645Y-81981368D01*
X196526069Y-82043808D01*
X196475604Y-82087831D01*
X196467327Y-82099608D01*
X196382588Y-82220180D01*
X196378113Y-82226547D01*
X196316524Y-82384513D01*
X196315532Y-82392046D01*
X196315532Y-82392047D01*
X196304551Y-82475458D01*
X196275829Y-82540385D01*
X196268724Y-82548107D01*
X173698636Y-105118195D01*
X173694827Y-105121848D01*
X173651288Y-105161884D01*
X173646760Y-105169187D01*
X173646759Y-105169188D01*
X173629543Y-105196955D01*
X173622820Y-105206737D01*
X173597872Y-105239604D01*
X173594710Y-105247591D01*
X173594708Y-105247594D01*
X173592772Y-105252483D01*
X173582713Y-105272484D01*
X173575418Y-105284250D01*
X173563905Y-105323877D01*
X173560060Y-105335105D01*
X173548033Y-105365484D01*
X173548032Y-105365487D01*
X173544871Y-105373472D01*
X173543974Y-105382009D01*
X173543972Y-105382016D01*
X173543423Y-105387239D01*
X173539112Y-105409215D01*
X173535249Y-105422512D01*
X173534500Y-105432712D01*
X173534500Y-105465539D01*
X173533810Y-105478710D01*
X173529821Y-105516662D01*
X173531253Y-105525128D01*
X173531253Y-105525131D01*
X173532736Y-105533898D01*
X173534500Y-105554910D01*
X173534500Y-130040139D01*
X173514498Y-130108260D01*
X173497596Y-130129234D01*
X173272878Y-130353953D01*
X173210566Y-130387978D01*
X173204069Y-130389058D01*
X173198895Y-130389031D01*
X173034032Y-130428612D01*
X173027288Y-130432093D01*
X173027285Y-130432094D01*
X172893767Y-130501008D01*
X172883369Y-130506375D01*
X172877647Y-130511367D01*
X172877645Y-130511368D01*
X172836719Y-130547070D01*
X172755604Y-130617831D01*
X172714475Y-130676351D01*
X172670738Y-130738584D01*
X172658113Y-130756547D01*
X172596524Y-130914513D01*
X172595532Y-130922046D01*
X172595532Y-130922047D01*
X172577399Y-131059786D01*
X172574394Y-131082611D01*
X172055529Y-131082611D01*
X172055565Y-131080000D01*
X172035546Y-130901528D01*
X171976485Y-130731927D01*
X171950246Y-130689935D01*
X171885049Y-130585599D01*
X171881316Y-130579625D01*
X171836191Y-130534184D01*
X171802384Y-130471753D01*
X171807696Y-130400956D01*
X171838706Y-130354153D01*
X171861614Y-130332339D01*
X171870613Y-130321614D01*
X171962134Y-130183864D01*
X171968538Y-130171402D01*
X172002903Y-130080934D01*
X172003994Y-130066876D01*
X171998802Y-130064000D01*
X169239460Y-130064000D01*
X169225929Y-130067973D01*
X169224945Y-130074821D01*
X169246961Y-130141006D01*
X169252830Y-130153707D01*
X169287814Y-130211473D01*
X169305993Y-130280103D01*
X169284182Y-130347666D01*
X169269212Y-130365761D01*
X169235977Y-130399054D01*
X169235976Y-130399056D01*
X169227759Y-130407287D01*
X169223056Y-130417924D01*
X169223055Y-130417926D01*
X169196735Y-130477462D01*
X169182494Y-130509673D01*
X169179500Y-130535354D01*
X169179500Y-131624646D01*
X165250000Y-131624646D01*
X165250000Y-128528753D01*
X169174514Y-128528753D01*
X169175201Y-128535760D01*
X169175201Y-128535763D01*
X169176005Y-128543963D01*
X169192039Y-128707486D01*
X169194262Y-128714168D01*
X169194262Y-128714169D01*
X169202967Y-128740336D01*
X169248726Y-128877896D01*
X169341759Y-129031512D01*
X169346648Y-129036575D01*
X169346649Y-129036576D01*
X169395664Y-129087332D01*
X169428596Y-129150228D01*
X169422296Y-129220945D01*
X169393185Y-129264882D01*
X169361151Y-129296252D01*
X169352309Y-129307093D01*
X169262713Y-129446118D01*
X169256486Y-129458663D01*
X169227254Y-129538977D01*
X169226360Y-129553050D01*
X169231866Y-129556000D01*
X171990600Y-129556000D01*
X172004131Y-129552027D01*
X172005066Y-129545522D01*
X171978349Y-129468801D01*
X171972297Y-129456168D01*
X171884655Y-129315912D01*
X171875954Y-129304935D01*
X171836183Y-129264885D01*
X171802375Y-129202455D01*
X171807687Y-129131657D01*
X171838696Y-129084856D01*
X171861992Y-129062671D01*
X171861995Y-129062668D01*
X171867099Y-129057807D01*
X171884570Y-129031512D01*
X171962582Y-128914093D01*
X171966483Y-128908222D01*
X171981168Y-128869564D01*
X172027757Y-128746919D01*
X172027758Y-128746914D01*
X172030257Y-128740336D01*
X172055251Y-128562493D01*
X172055565Y-128540000D01*
X172035546Y-128361528D01*
X172029427Y-128343955D01*
X171978803Y-128198584D01*
X171976485Y-128191927D01*
X171881316Y-128039625D01*
X171836544Y-127994540D01*
X171802737Y-127932110D01*
X171808048Y-127861313D01*
X171839058Y-127814510D01*
X171867099Y-127787807D01*
X171884570Y-127761512D01*
X171962582Y-127644093D01*
X171966483Y-127638222D01*
X171981168Y-127599564D01*
X172027757Y-127476919D01*
X172027758Y-127476914D01*
X172030257Y-127470336D01*
X172055251Y-127292493D01*
X172055565Y-127270000D01*
X172035546Y-127091528D01*
X172029427Y-127073955D01*
X171978803Y-126928584D01*
X171976485Y-126921927D01*
X171881316Y-126769625D01*
X171836544Y-126724540D01*
X171802737Y-126662110D01*
X171808048Y-126591313D01*
X171839058Y-126544510D01*
X171867099Y-126517807D01*
X171884570Y-126491512D01*
X171962582Y-126374093D01*
X171966483Y-126368222D01*
X171981168Y-126329564D01*
X172027757Y-126206919D01*
X172027758Y-126206914D01*
X172030257Y-126200336D01*
X172055251Y-126022493D01*
X172055565Y-126000000D01*
X172035546Y-125821528D01*
X172029427Y-125803955D01*
X171978803Y-125658584D01*
X171976485Y-125651927D01*
X171881316Y-125499625D01*
X171797075Y-125414794D01*
X171759733Y-125377190D01*
X171759729Y-125377187D01*
X171754770Y-125372193D01*
X171743761Y-125365206D01*
X171696860Y-125335442D01*
X171603136Y-125275963D01*
X171573352Y-125265357D01*
X171440586Y-125218081D01*
X171440581Y-125218080D01*
X171433951Y-125215719D01*
X171426965Y-125214886D01*
X171426961Y-125214885D01*
X171299177Y-125199648D01*
X171255624Y-125194455D01*
X171248621Y-125195191D01*
X171248620Y-125195191D01*
X171084025Y-125212490D01*
X171084021Y-125212491D01*
X171077017Y-125213227D01*
X171070346Y-125215498D01*
X170913677Y-125268832D01*
X170913674Y-125268833D01*
X170907007Y-125271103D01*
X170901009Y-125274793D01*
X170901007Y-125274794D01*
X170830526Y-125318155D01*
X170754045Y-125365206D01*
X170749014Y-125370132D01*
X170749011Y-125370135D01*
X170703407Y-125414794D01*
X170640742Y-125448164D01*
X170569983Y-125442358D01*
X170525845Y-125413555D01*
X170489733Y-125377191D01*
X170489732Y-125377190D01*
X170484770Y-125372193D01*
X170473761Y-125365206D01*
X170426860Y-125335442D01*
X170333136Y-125275963D01*
X170303352Y-125265357D01*
X170170586Y-125218081D01*
X170170581Y-125218080D01*
X170163951Y-125215719D01*
X170156965Y-125214886D01*
X170156961Y-125214885D01*
X170029177Y-125199648D01*
X169985624Y-125194455D01*
X169978621Y-125195191D01*
X169978620Y-125195191D01*
X169814025Y-125212490D01*
X169814021Y-125212491D01*
X169807017Y-125213227D01*
X169800346Y-125215498D01*
X169643677Y-125268832D01*
X169643674Y-125268833D01*
X169637007Y-125271103D01*
X169631009Y-125274793D01*
X169631007Y-125274794D01*
X169560526Y-125318155D01*
X169484045Y-125365206D01*
X169479014Y-125370132D01*
X169479011Y-125370135D01*
X169471807Y-125377190D01*
X169355732Y-125490859D01*
X169351913Y-125496784D01*
X169351912Y-125496786D01*
X169345631Y-125506532D01*
X169258446Y-125641817D01*
X169197022Y-125810578D01*
X169174514Y-125988753D01*
X169175201Y-125995760D01*
X169175201Y-125995763D01*
X169176005Y-126003963D01*
X169192039Y-126167486D01*
X169194262Y-126174168D01*
X169194262Y-126174169D01*
X169202967Y-126200336D01*
X169248726Y-126337896D01*
X169341759Y-126491512D01*
X169395317Y-126546972D01*
X169428249Y-126609868D01*
X169421950Y-126680584D01*
X169392838Y-126724522D01*
X169355732Y-126760859D01*
X169351913Y-126766784D01*
X169351912Y-126766786D01*
X169345631Y-126776532D01*
X169258446Y-126911817D01*
X169197022Y-127080578D01*
X169174514Y-127258753D01*
X169175201Y-127265760D01*
X169175201Y-127265763D01*
X169176005Y-127273963D01*
X169192039Y-127437486D01*
X169194262Y-127444168D01*
X169194262Y-127444169D01*
X169202967Y-127470336D01*
X169248726Y-127607896D01*
X169341759Y-127761512D01*
X169395317Y-127816972D01*
X169428249Y-127879868D01*
X169421950Y-127950584D01*
X169392838Y-127994522D01*
X169355732Y-128030859D01*
X169351913Y-128036784D01*
X169351912Y-128036786D01*
X169345631Y-128046532D01*
X169258446Y-128181817D01*
X169197022Y-128350578D01*
X169174514Y-128528753D01*
X165250000Y-128528753D01*
X165250000Y-85289754D01*
X183844967Y-85289754D01*
X183858796Y-85500749D01*
X183860217Y-85506345D01*
X183860218Y-85506350D01*
X183898931Y-85658780D01*
X183910845Y-85705690D01*
X183999369Y-85897714D01*
X184121405Y-86070391D01*
X184272865Y-86217937D01*
X184277661Y-86221142D01*
X184277664Y-86221144D01*
X184401157Y-86303659D01*
X184448677Y-86335411D01*
X184453985Y-86337692D01*
X184453986Y-86337692D01*
X184637650Y-86416600D01*
X184637653Y-86416601D01*
X184642953Y-86418878D01*
X184648582Y-86420152D01*
X184648583Y-86420152D01*
X184843550Y-86464269D01*
X184843553Y-86464269D01*
X184849186Y-86465544D01*
X184854957Y-86465771D01*
X184854959Y-86465771D01*
X184915075Y-86468133D01*
X185060470Y-86473846D01*
X185066179Y-86473018D01*
X185066183Y-86473018D01*
X185264015Y-86444333D01*
X185264019Y-86444332D01*
X185269730Y-86443504D01*
X185348987Y-86416600D01*
X185464483Y-86377395D01*
X185464488Y-86377393D01*
X185469955Y-86375537D01*
X185474998Y-86372713D01*
X185649395Y-86275046D01*
X185649399Y-86275043D01*
X185654442Y-86272219D01*
X185817012Y-86137012D01*
X185952219Y-85974442D01*
X185955043Y-85969399D01*
X185955046Y-85969395D01*
X186052713Y-85794998D01*
X186052714Y-85794996D01*
X186055537Y-85789955D01*
X186057393Y-85784488D01*
X186057395Y-85784483D01*
X186117552Y-85607264D01*
X186123504Y-85589730D01*
X186125482Y-85576094D01*
X186153314Y-85384140D01*
X186153314Y-85384138D01*
X186153846Y-85380470D01*
X186155429Y-85320000D01*
X186136081Y-85109440D01*
X186078686Y-84905931D01*
X186067553Y-84883354D01*
X185987719Y-84721469D01*
X185985165Y-84716290D01*
X185875243Y-84569086D01*
X185862104Y-84551491D01*
X185862103Y-84551490D01*
X185858651Y-84546867D01*
X185703381Y-84403337D01*
X185524554Y-84290505D01*
X185328160Y-84212152D01*
X185322503Y-84211027D01*
X185322497Y-84211025D01*
X185125234Y-84171788D01*
X185062324Y-84138881D01*
X185027192Y-84077186D01*
X185030992Y-84006291D01*
X185072517Y-83948705D01*
X185131734Y-83923513D01*
X185264015Y-83904333D01*
X185264019Y-83904332D01*
X185269730Y-83903504D01*
X185348987Y-83876600D01*
X185464483Y-83837395D01*
X185464488Y-83837393D01*
X185469955Y-83835537D01*
X185474998Y-83832713D01*
X185649395Y-83735046D01*
X185649399Y-83735043D01*
X185654442Y-83732219D01*
X185817012Y-83597012D01*
X185952219Y-83434442D01*
X185955043Y-83429399D01*
X185955046Y-83429395D01*
X186052713Y-83254998D01*
X186052714Y-83254996D01*
X186055537Y-83249955D01*
X186057393Y-83244488D01*
X186057395Y-83244483D01*
X186111361Y-83085502D01*
X186123504Y-83049730D01*
X186125241Y-83037754D01*
X186153314Y-82844140D01*
X186153314Y-82844138D01*
X186153846Y-82840470D01*
X186155429Y-82780000D01*
X186136081Y-82569440D01*
X186078686Y-82365931D01*
X186067553Y-82343354D01*
X185987719Y-82181469D01*
X185985165Y-82176290D01*
X185858651Y-82006867D01*
X185749719Y-81906171D01*
X185707622Y-81867257D01*
X185707620Y-81867255D01*
X185703381Y-81863337D01*
X185696620Y-81859071D01*
X185529434Y-81753584D01*
X185529433Y-81753584D01*
X185524554Y-81750505D01*
X185328160Y-81672152D01*
X185322503Y-81671027D01*
X185322497Y-81671025D01*
X185125234Y-81631788D01*
X185062324Y-81598881D01*
X185027192Y-81537186D01*
X185030992Y-81466291D01*
X185072517Y-81408705D01*
X185131734Y-81383513D01*
X185264015Y-81364333D01*
X185264019Y-81364332D01*
X185269730Y-81363504D01*
X185348987Y-81336600D01*
X185464483Y-81297395D01*
X185464488Y-81297393D01*
X185469955Y-81295537D01*
X185478210Y-81290914D01*
X185649395Y-81195046D01*
X185649399Y-81195043D01*
X185654442Y-81192219D01*
X185817012Y-81057012D01*
X185952219Y-80894442D01*
X185955043Y-80889399D01*
X185955046Y-80889395D01*
X186052713Y-80714998D01*
X186052714Y-80714996D01*
X186055537Y-80709955D01*
X186057393Y-80704488D01*
X186057395Y-80704483D01*
X186111298Y-80545689D01*
X186123504Y-80509730D01*
X186127847Y-80479783D01*
X186153314Y-80304140D01*
X186153314Y-80304138D01*
X186153846Y-80300470D01*
X186155429Y-80240000D01*
X186136081Y-80029440D01*
X186130278Y-80008862D01*
X186118690Y-79967775D01*
X186078686Y-79825931D01*
X186067553Y-79803354D01*
X185987719Y-79641469D01*
X185985165Y-79636290D01*
X185858651Y-79466867D01*
X185753618Y-79369776D01*
X185707622Y-79327257D01*
X185707620Y-79327255D01*
X185703381Y-79323337D01*
X185524554Y-79210505D01*
X185328160Y-79132152D01*
X185322503Y-79131027D01*
X185322497Y-79131025D01*
X185166916Y-79100079D01*
X185104006Y-79067172D01*
X185068874Y-79005477D01*
X185072674Y-78934582D01*
X185114199Y-78876996D01*
X185180266Y-78851002D01*
X185191497Y-78850500D01*
X185894646Y-78850500D01*
X185898350Y-78850059D01*
X185898353Y-78850059D01*
X185905746Y-78849179D01*
X185920846Y-78847382D01*
X186023153Y-78801939D01*
X186102241Y-78722713D01*
X186147506Y-78620327D01*
X186150500Y-78594646D01*
X186150500Y-76805354D01*
X186147382Y-76779154D01*
X186121258Y-76720339D01*
X186106663Y-76687482D01*
X186101939Y-76676847D01*
X186091890Y-76666815D01*
X186030945Y-76605977D01*
X186022713Y-76597759D01*
X186012076Y-76593056D01*
X186012074Y-76593055D01*
X185933457Y-76558299D01*
X185920327Y-76552494D01*
X185894646Y-76549500D01*
X184105354Y-76549500D01*
X184101650Y-76549941D01*
X184101647Y-76549941D01*
X184094254Y-76550821D01*
X184079154Y-76552618D01*
X184070514Y-76556456D01*
X184070513Y-76556456D01*
X183996924Y-76589143D01*
X183976847Y-76598061D01*
X183968628Y-76606294D01*
X183968627Y-76606295D01*
X183943699Y-76631267D01*
X183897759Y-76677287D01*
X183893056Y-76687924D01*
X183893055Y-76687926D01*
X183874914Y-76728961D01*
X183852494Y-76779673D01*
X183849500Y-76805354D01*
X183849500Y-78594646D01*
X183852618Y-78620846D01*
X183898061Y-78723153D01*
X183977287Y-78802241D01*
X183987924Y-78806944D01*
X183987926Y-78806945D01*
X184047462Y-78833265D01*
X184079673Y-78847506D01*
X184105354Y-78850500D01*
X184814988Y-78850500D01*
X184883109Y-78870502D01*
X184929602Y-78924158D01*
X184939706Y-78994432D01*
X184910212Y-79059012D01*
X184850486Y-79097396D01*
X184836326Y-79100680D01*
X184706650Y-79122962D01*
X184706649Y-79122962D01*
X184700953Y-79123941D01*
X184502575Y-79197127D01*
X184497614Y-79200079D01*
X184497613Y-79200079D01*
X184332920Y-79298061D01*
X184320856Y-79305238D01*
X184161881Y-79444655D01*
X184030976Y-79610708D01*
X184028287Y-79615819D01*
X184028285Y-79615822D01*
X184014792Y-79641469D01*
X183932523Y-79797836D01*
X183869820Y-79999773D01*
X183844967Y-80209754D01*
X183858796Y-80420749D01*
X183860217Y-80426345D01*
X183860218Y-80426350D01*
X183907558Y-80612747D01*
X183910845Y-80625690D01*
X183913262Y-80630933D01*
X183996951Y-80812469D01*
X183999369Y-80817714D01*
X184121405Y-80990391D01*
X184272865Y-81137937D01*
X184277661Y-81141142D01*
X184277664Y-81141144D01*
X184401904Y-81224158D01*
X184448677Y-81255411D01*
X184453985Y-81257692D01*
X184453986Y-81257692D01*
X184637650Y-81336600D01*
X184637653Y-81336601D01*
X184642953Y-81338878D01*
X184648582Y-81340152D01*
X184648583Y-81340152D01*
X184843550Y-81384269D01*
X184843553Y-81384269D01*
X184849186Y-81385544D01*
X184854958Y-81385771D01*
X184860687Y-81386525D01*
X184860327Y-81389257D01*
X184916604Y-81408216D01*
X184960950Y-81463659D01*
X184968282Y-81534276D01*
X184936271Y-81597647D01*
X184875081Y-81633651D01*
X184865704Y-81635632D01*
X184706650Y-81662962D01*
X184706649Y-81662962D01*
X184700953Y-81663941D01*
X184502575Y-81737127D01*
X184497614Y-81740079D01*
X184497613Y-81740079D01*
X184329864Y-81839879D01*
X184320856Y-81845238D01*
X184161881Y-81984655D01*
X184030976Y-82150708D01*
X184028287Y-82155819D01*
X184028285Y-82155822D01*
X183994425Y-82220180D01*
X183932523Y-82337836D01*
X183869820Y-82539773D01*
X183844967Y-82749754D01*
X183858796Y-82960749D01*
X183860217Y-82966345D01*
X183860218Y-82966350D01*
X183909424Y-83160095D01*
X183910845Y-83165690D01*
X183913262Y-83170933D01*
X183996633Y-83351779D01*
X183999369Y-83357714D01*
X184121405Y-83530391D01*
X184272865Y-83677937D01*
X184277661Y-83681142D01*
X184277664Y-83681144D01*
X184384567Y-83752574D01*
X184448677Y-83795411D01*
X184453985Y-83797692D01*
X184453986Y-83797692D01*
X184637650Y-83876600D01*
X184637653Y-83876601D01*
X184642953Y-83878878D01*
X184648582Y-83880152D01*
X184648583Y-83880152D01*
X184843550Y-83924269D01*
X184843553Y-83924269D01*
X184849186Y-83925544D01*
X184854958Y-83925771D01*
X184860687Y-83926525D01*
X184860327Y-83929257D01*
X184916604Y-83948216D01*
X184960950Y-84003659D01*
X184968282Y-84074276D01*
X184936271Y-84137647D01*
X184875081Y-84173651D01*
X184865704Y-84175632D01*
X184706650Y-84202962D01*
X184706649Y-84202962D01*
X184700953Y-84203941D01*
X184502575Y-84277127D01*
X184497614Y-84280079D01*
X184497613Y-84280079D01*
X184459169Y-84302951D01*
X184320856Y-84385238D01*
X184161881Y-84524655D01*
X184030976Y-84690708D01*
X184028287Y-84695819D01*
X184028285Y-84695822D01*
X184014792Y-84721469D01*
X183932523Y-84877836D01*
X183869820Y-85079773D01*
X183844967Y-85289754D01*
X165250000Y-85289754D01*
X165250000Y-80450843D01*
X165270002Y-80382722D01*
X165323658Y-80336229D01*
X165375922Y-80324843D01*
X170638496Y-80321605D01*
X172295489Y-80320586D01*
X172311023Y-73862713D01*
X172311403Y-73704646D01*
X195849500Y-73704646D01*
X195852618Y-73730846D01*
X195898061Y-73833153D01*
X195906294Y-73841372D01*
X195906295Y-73841373D01*
X195930864Y-73865899D01*
X195977287Y-73912241D01*
X195987924Y-73916944D01*
X195987926Y-73916945D01*
X196022858Y-73932388D01*
X196079673Y-73957506D01*
X196105354Y-73960500D01*
X197894646Y-73960500D01*
X197898350Y-73960059D01*
X197898353Y-73960059D01*
X197905746Y-73959179D01*
X197920846Y-73957382D01*
X197942475Y-73947775D01*
X198012518Y-73916663D01*
X198023153Y-73911939D01*
X198035562Y-73899509D01*
X198081102Y-73853889D01*
X198102241Y-73832713D01*
X198107084Y-73821760D01*
X198133265Y-73762538D01*
X198147506Y-73730327D01*
X198150500Y-73704646D01*
X198150500Y-73017461D01*
X198170502Y-72949340D01*
X198224158Y-72902847D01*
X198294432Y-72892743D01*
X198359012Y-72922237D01*
X198397396Y-72981963D01*
X198399849Y-72992864D01*
X198449896Y-73189923D01*
X198453737Y-73200769D01*
X198537386Y-73382218D01*
X198543137Y-73392179D01*
X198658455Y-73555350D01*
X198665921Y-73564092D01*
X198809047Y-73703520D01*
X198817981Y-73710754D01*
X198984112Y-73821760D01*
X198994225Y-73827251D01*
X199177805Y-73906123D01*
X199188738Y-73909675D01*
X199268331Y-73927685D01*
X199282405Y-73926796D01*
X199286000Y-73917397D01*
X199286000Y-73917165D01*
X199794000Y-73917165D01*
X199797966Y-73930671D01*
X199809964Y-73932388D01*
X199815078Y-73931160D01*
X200004283Y-73866934D01*
X200014786Y-73862258D01*
X200189124Y-73764625D01*
X200198596Y-73758115D01*
X200352219Y-73630348D01*
X200360348Y-73622219D01*
X200488115Y-73468596D01*
X200494625Y-73459124D01*
X200592258Y-73284786D01*
X200596934Y-73274283D01*
X200661160Y-73085081D01*
X200663845Y-73073898D01*
X200684932Y-72928459D01*
X200714502Y-72863913D01*
X200774273Y-72825601D01*
X200845270Y-72825685D01*
X200904950Y-72864140D01*
X200934367Y-72928756D01*
X200935358Y-72938298D01*
X200938796Y-72990749D01*
X200940217Y-72996345D01*
X200940218Y-72996350D01*
X200962784Y-73085200D01*
X200990845Y-73195690D01*
X201079369Y-73387714D01*
X201201405Y-73560391D01*
X201264873Y-73622219D01*
X201345727Y-73700983D01*
X201352865Y-73707937D01*
X201357661Y-73711142D01*
X201357664Y-73711144D01*
X201451521Y-73773857D01*
X201528677Y-73825411D01*
X201533985Y-73827692D01*
X201533986Y-73827692D01*
X201717650Y-73906600D01*
X201717653Y-73906601D01*
X201722953Y-73908878D01*
X201728582Y-73910152D01*
X201728583Y-73910152D01*
X201923550Y-73954269D01*
X201923553Y-73954269D01*
X201929186Y-73955544D01*
X201934957Y-73955771D01*
X201934959Y-73955771D01*
X201982401Y-73957635D01*
X202140470Y-73963846D01*
X202146179Y-73963018D01*
X202146183Y-73963018D01*
X202344015Y-73934333D01*
X202344019Y-73934332D01*
X202349730Y-73933504D01*
X202432416Y-73905436D01*
X202544483Y-73867395D01*
X202544488Y-73867393D01*
X202549955Y-73865537D01*
X202555810Y-73862258D01*
X202729395Y-73765046D01*
X202729399Y-73765043D01*
X202734442Y-73762219D01*
X202897012Y-73627012D01*
X203032219Y-73464442D01*
X203035043Y-73459399D01*
X203035046Y-73459395D01*
X203132713Y-73284998D01*
X203132714Y-73284996D01*
X203135537Y-73279955D01*
X203137393Y-73274488D01*
X203137395Y-73274483D01*
X203201647Y-73085200D01*
X203203504Y-73079730D01*
X203215594Y-72996350D01*
X203225090Y-72930860D01*
X203254660Y-72866315D01*
X203314432Y-72828003D01*
X203385429Y-72828087D01*
X203445109Y-72866542D01*
X203474525Y-72931158D01*
X203475515Y-72940695D01*
X203478796Y-72990749D01*
X203480217Y-72996345D01*
X203480218Y-72996350D01*
X203502784Y-73085200D01*
X203530845Y-73195690D01*
X203619369Y-73387714D01*
X203741405Y-73560391D01*
X203804873Y-73622219D01*
X203885727Y-73700983D01*
X203892865Y-73707937D01*
X203897661Y-73711142D01*
X203897664Y-73711144D01*
X203991521Y-73773857D01*
X204068677Y-73825411D01*
X204073985Y-73827692D01*
X204073986Y-73827692D01*
X204257650Y-73906600D01*
X204257653Y-73906601D01*
X204262953Y-73908878D01*
X204268582Y-73910152D01*
X204268583Y-73910152D01*
X204463550Y-73954269D01*
X204463553Y-73954269D01*
X204469186Y-73955544D01*
X204474957Y-73955771D01*
X204474959Y-73955771D01*
X204522401Y-73957635D01*
X204680470Y-73963846D01*
X204686179Y-73963018D01*
X204686183Y-73963018D01*
X204884015Y-73934333D01*
X204884019Y-73934332D01*
X204889730Y-73933504D01*
X204972416Y-73905436D01*
X205084483Y-73867395D01*
X205084488Y-73867393D01*
X205089955Y-73865537D01*
X205095810Y-73862258D01*
X205269395Y-73765046D01*
X205269399Y-73765043D01*
X205274442Y-73762219D01*
X205437012Y-73627012D01*
X205572219Y-73464442D01*
X205575043Y-73459399D01*
X205575046Y-73459395D01*
X205672713Y-73284998D01*
X205672714Y-73284996D01*
X205675537Y-73279955D01*
X205677393Y-73274488D01*
X205677395Y-73274483D01*
X205741647Y-73085200D01*
X205743504Y-73079730D01*
X205756100Y-72992864D01*
X205773314Y-72874140D01*
X205773314Y-72874138D01*
X205773846Y-72870470D01*
X205775429Y-72810000D01*
X205756081Y-72599440D01*
X205752301Y-72586035D01*
X205730854Y-72509990D01*
X205698686Y-72395931D01*
X205687649Y-72373549D01*
X205607719Y-72211469D01*
X205605165Y-72206290D01*
X205478651Y-72036867D01*
X205351236Y-71919086D01*
X205327622Y-71897257D01*
X205327620Y-71897255D01*
X205323381Y-71893337D01*
X205294696Y-71875238D01*
X205149434Y-71783584D01*
X205149433Y-71783584D01*
X205144554Y-71780505D01*
X204948160Y-71702152D01*
X204942503Y-71701027D01*
X204942497Y-71701025D01*
X204746442Y-71662028D01*
X204746440Y-71662028D01*
X204740775Y-71660901D01*
X204735000Y-71660825D01*
X204734996Y-71660825D01*
X204628976Y-71659437D01*
X204529346Y-71658133D01*
X204523649Y-71659112D01*
X204523648Y-71659112D01*
X204326650Y-71692962D01*
X204326649Y-71692962D01*
X204320953Y-71693941D01*
X204122575Y-71767127D01*
X204117614Y-71770079D01*
X204117613Y-71770079D01*
X204071553Y-71797482D01*
X203940856Y-71875238D01*
X203781881Y-72014655D01*
X203650976Y-72180708D01*
X203648287Y-72185819D01*
X203648285Y-72185822D01*
X203634792Y-72211469D01*
X203552523Y-72367836D01*
X203489820Y-72569773D01*
X203489141Y-72575510D01*
X203475088Y-72694239D01*
X203447217Y-72759537D01*
X203388469Y-72799401D01*
X203317494Y-72801174D01*
X203256828Y-72764295D01*
X203225730Y-72700471D01*
X203224490Y-72690958D01*
X203219989Y-72641966D01*
X203216081Y-72599440D01*
X203212301Y-72586035D01*
X203190854Y-72509990D01*
X203158686Y-72395931D01*
X203147649Y-72373549D01*
X203067719Y-72211469D01*
X203065165Y-72206290D01*
X202938651Y-72036867D01*
X202811236Y-71919086D01*
X202787622Y-71897257D01*
X202787620Y-71897255D01*
X202783381Y-71893337D01*
X202754696Y-71875238D01*
X202609434Y-71783584D01*
X202609433Y-71783584D01*
X202604554Y-71780505D01*
X202408160Y-71702152D01*
X202402503Y-71701027D01*
X202402497Y-71701025D01*
X202206442Y-71662028D01*
X202206440Y-71662028D01*
X202200775Y-71660901D01*
X202195000Y-71660825D01*
X202194996Y-71660825D01*
X202088976Y-71659437D01*
X201989346Y-71658133D01*
X201983649Y-71659112D01*
X201983648Y-71659112D01*
X201786650Y-71692962D01*
X201786649Y-71692962D01*
X201780953Y-71693941D01*
X201582575Y-71767127D01*
X201577614Y-71770079D01*
X201577613Y-71770079D01*
X201531553Y-71797482D01*
X201400856Y-71875238D01*
X201241881Y-72014655D01*
X201110976Y-72180708D01*
X201108287Y-72185819D01*
X201108285Y-72185822D01*
X201094792Y-72211469D01*
X201012523Y-72367836D01*
X200949820Y-72569773D01*
X200949141Y-72575510D01*
X200934806Y-72696625D01*
X200906935Y-72761922D01*
X200848187Y-72801786D01*
X200777213Y-72803560D01*
X200716546Y-72766681D01*
X200685448Y-72702857D01*
X200684208Y-72693344D01*
X200676117Y-72605285D01*
X200674020Y-72593971D01*
X200619785Y-72401670D01*
X200615663Y-72390931D01*
X200527292Y-72211733D01*
X200521282Y-72201925D01*
X200401731Y-72041827D01*
X200394041Y-72033287D01*
X200247315Y-71897654D01*
X200238190Y-71890653D01*
X200069209Y-71784034D01*
X200058965Y-71778814D01*
X199873377Y-71704772D01*
X199862356Y-71701507D01*
X199811770Y-71691445D01*
X199798894Y-71692597D01*
X199794000Y-71707753D01*
X199794000Y-73917165D01*
X199286000Y-73917165D01*
X199286000Y-71704823D01*
X199282194Y-71691861D01*
X199267278Y-71689925D01*
X199246780Y-71693447D01*
X199235660Y-71696427D01*
X199048207Y-71765582D01*
X199037829Y-71770532D01*
X198866119Y-71872688D01*
X198856807Y-71879453D01*
X198706587Y-72011194D01*
X198698670Y-72019537D01*
X198574975Y-72176443D01*
X198568704Y-72186100D01*
X198475679Y-72362912D01*
X198471273Y-72373549D01*
X198412025Y-72564356D01*
X198409632Y-72575614D01*
X198401627Y-72643248D01*
X198373757Y-72708545D01*
X198315008Y-72748409D01*
X198244034Y-72750183D01*
X198183367Y-72713304D01*
X198152270Y-72649480D01*
X198150500Y-72628438D01*
X198150500Y-71915354D01*
X198147382Y-71889154D01*
X198101939Y-71786847D01*
X198093444Y-71778366D01*
X198030945Y-71715977D01*
X198022713Y-71707759D01*
X198012076Y-71703056D01*
X198012074Y-71703055D01*
X197952538Y-71676735D01*
X197920327Y-71662494D01*
X197894646Y-71659500D01*
X196105354Y-71659500D01*
X196101650Y-71659941D01*
X196101647Y-71659941D01*
X196094254Y-71660821D01*
X196079154Y-71662618D01*
X196070514Y-71666456D01*
X196070513Y-71666456D01*
X196004131Y-71695942D01*
X195976847Y-71708061D01*
X195897759Y-71787287D01*
X195852494Y-71889673D01*
X195849500Y-71915354D01*
X195849500Y-73704646D01*
X172311403Y-73704646D01*
X172323020Y-68875697D01*
X172343186Y-68807624D01*
X172396954Y-68761261D01*
X172449020Y-68750000D01*
X249704622Y-68750000D01*
X249772743Y-68770002D01*
G37*
%TD.AperFunction*%
%TA.AperFunction,Conductor*%
G36*
X228217462Y-76344702D02*
G01*
X228238436Y-76361605D01*
X244938195Y-93061364D01*
X244941848Y-93065173D01*
X244981884Y-93108712D01*
X245016968Y-93130465D01*
X245026736Y-93137179D01*
X245059605Y-93162128D01*
X245067586Y-93165288D01*
X245067588Y-93165289D01*
X245072474Y-93167223D01*
X245092490Y-93177291D01*
X245104250Y-93184582D01*
X245112494Y-93186977D01*
X245112496Y-93186978D01*
X245143874Y-93196094D01*
X245155103Y-93199939D01*
X245185486Y-93211968D01*
X245185488Y-93211968D01*
X245193473Y-93215130D01*
X245207098Y-93216562D01*
X245207242Y-93216577D01*
X245229222Y-93220890D01*
X245242512Y-93224751D01*
X245249093Y-93225234D01*
X245249097Y-93225235D01*
X245250404Y-93225331D01*
X245250417Y-93225331D01*
X245252712Y-93225500D01*
X245285529Y-93225500D01*
X245298700Y-93226190D01*
X245336662Y-93230180D01*
X245345128Y-93228748D01*
X245345131Y-93228748D01*
X245353904Y-93227264D01*
X245374916Y-93225500D01*
X252147225Y-93225500D01*
X252215346Y-93245502D01*
X252250122Y-93278780D01*
X252286435Y-93330161D01*
X252371405Y-93450391D01*
X252427996Y-93505520D01*
X252511395Y-93586763D01*
X252522865Y-93597937D01*
X252527661Y-93601142D01*
X252527664Y-93601144D01*
X252665304Y-93693112D01*
X252698677Y-93715411D01*
X252703985Y-93717692D01*
X252703986Y-93717692D01*
X252887650Y-93796600D01*
X252887653Y-93796601D01*
X252892953Y-93798878D01*
X252898582Y-93800152D01*
X252898583Y-93800152D01*
X253093550Y-93844269D01*
X253093553Y-93844269D01*
X253099186Y-93845544D01*
X253104958Y-93845771D01*
X253110687Y-93846525D01*
X253110327Y-93849257D01*
X253166604Y-93868216D01*
X253210950Y-93923659D01*
X253218282Y-93994276D01*
X253186271Y-94057647D01*
X253125081Y-94093651D01*
X253115704Y-94095632D01*
X252956650Y-94122962D01*
X252956649Y-94122962D01*
X252950953Y-94123941D01*
X252752575Y-94197127D01*
X252747614Y-94200079D01*
X252747613Y-94200079D01*
X252730089Y-94210505D01*
X252570856Y-94305238D01*
X252411881Y-94444655D01*
X252280976Y-94610708D01*
X252267517Y-94636290D01*
X252261793Y-94647169D01*
X252212373Y-94698141D01*
X252150285Y-94714500D01*
X245829860Y-94714500D01*
X245761739Y-94694498D01*
X245740765Y-94677595D01*
X227771005Y-76707836D01*
X227767352Y-76704027D01*
X227733134Y-76666815D01*
X227727316Y-76660488D01*
X227713106Y-76651677D01*
X227692245Y-76638743D01*
X227682462Y-76632019D01*
X227656440Y-76612267D01*
X227649596Y-76607072D01*
X227641609Y-76603910D01*
X227641606Y-76603908D01*
X227636717Y-76601972D01*
X227616716Y-76591913D01*
X227604950Y-76584618D01*
X227565319Y-76573104D01*
X227554091Y-76569259D01*
X227550535Y-76567851D01*
X227494562Y-76524175D01*
X227471087Y-76457172D01*
X227487564Y-76388114D01*
X227538761Y-76338926D01*
X227596921Y-76324700D01*
X228149341Y-76324700D01*
X228217462Y-76344702D01*
G37*
%TD.AperFunction*%
%TA.AperFunction,Conductor*%
G36*
X228895062Y-74922302D02*
G01*
X228916036Y-74939205D01*
X236711938Y-82735108D01*
X244498207Y-90521377D01*
X244501860Y-90525186D01*
X244541884Y-90568712D01*
X244553527Y-90575931D01*
X244576953Y-90590456D01*
X244586732Y-90597177D01*
X244619604Y-90622127D01*
X244632474Y-90627222D01*
X244652482Y-90637286D01*
X244664250Y-90644582D01*
X244672493Y-90646977D01*
X244672500Y-90646980D01*
X244703893Y-90656101D01*
X244715120Y-90659945D01*
X244745487Y-90671968D01*
X244745489Y-90671969D01*
X244753472Y-90675129D01*
X244762009Y-90676026D01*
X244762016Y-90676028D01*
X244767239Y-90676577D01*
X244789216Y-90680888D01*
X244796178Y-90682911D01*
X244796180Y-90682911D01*
X244802512Y-90684751D01*
X244809327Y-90685251D01*
X244810404Y-90685331D01*
X244810417Y-90685331D01*
X244812712Y-90685500D01*
X244845538Y-90685500D01*
X244858709Y-90686190D01*
X244896661Y-90690179D01*
X244905127Y-90688747D01*
X244905130Y-90688747D01*
X244913897Y-90687264D01*
X244934909Y-90685500D01*
X252147225Y-90685500D01*
X252215346Y-90705502D01*
X252250122Y-90738780D01*
X252300028Y-90809395D01*
X252371405Y-90910391D01*
X252427996Y-90965520D01*
X252511395Y-91046763D01*
X252522865Y-91057937D01*
X252527661Y-91061142D01*
X252527664Y-91061144D01*
X252647513Y-91141224D01*
X252698677Y-91175411D01*
X252703985Y-91177692D01*
X252703986Y-91177692D01*
X252887650Y-91256600D01*
X252887653Y-91256601D01*
X252892953Y-91258878D01*
X252898582Y-91260152D01*
X252898583Y-91260152D01*
X253093550Y-91304269D01*
X253093553Y-91304269D01*
X253099186Y-91305544D01*
X253104958Y-91305771D01*
X253110687Y-91306525D01*
X253110327Y-91309257D01*
X253166604Y-91328216D01*
X253210950Y-91383659D01*
X253218282Y-91454276D01*
X253186271Y-91517647D01*
X253125081Y-91553651D01*
X253115704Y-91555632D01*
X252956650Y-91582962D01*
X252956649Y-91582962D01*
X252950953Y-91583941D01*
X252752575Y-91657127D01*
X252747614Y-91660079D01*
X252747613Y-91660079D01*
X252730089Y-91670505D01*
X252570856Y-91765238D01*
X252411881Y-91904655D01*
X252280976Y-92070708D01*
X252267517Y-92096290D01*
X252261793Y-92107169D01*
X252212373Y-92158141D01*
X252150285Y-92174500D01*
X245589860Y-92174500D01*
X245521739Y-92154498D01*
X245500765Y-92137595D01*
X228801005Y-75437836D01*
X228797352Y-75434027D01*
X228763134Y-75396815D01*
X228757316Y-75390488D01*
X228722244Y-75368742D01*
X228712462Y-75362019D01*
X228686440Y-75342267D01*
X228679596Y-75337072D01*
X228671609Y-75333910D01*
X228671606Y-75333908D01*
X228666717Y-75331972D01*
X228646716Y-75321913D01*
X228634950Y-75314618D01*
X228595319Y-75303104D01*
X228584095Y-75299260D01*
X228553716Y-75287233D01*
X228553713Y-75287232D01*
X228545728Y-75284071D01*
X228537191Y-75283174D01*
X228537184Y-75283172D01*
X228531961Y-75282623D01*
X228509984Y-75278312D01*
X228503022Y-75276289D01*
X228503020Y-75276289D01*
X228496688Y-75274449D01*
X228489873Y-75273949D01*
X228488796Y-75273869D01*
X228488783Y-75273869D01*
X228486488Y-75273700D01*
X228453661Y-75273700D01*
X228440490Y-75273010D01*
X228402538Y-75269021D01*
X228394072Y-75270453D01*
X228394069Y-75270453D01*
X228385302Y-75271936D01*
X228364290Y-75273700D01*
X218910235Y-75273700D01*
X218904959Y-75273589D01*
X218892694Y-75273075D01*
X218845881Y-75271113D01*
X218828690Y-75275145D01*
X218805708Y-75280535D01*
X218794038Y-75282698D01*
X218753154Y-75288299D01*
X218745274Y-75291709D01*
X218740449Y-75293797D01*
X218719180Y-75300831D01*
X218707809Y-75303498D01*
X218707808Y-75303498D01*
X218705707Y-75303991D01*
X218705633Y-75303675D01*
X218640131Y-75308985D01*
X218577498Y-75275554D01*
X218542883Y-75213568D01*
X218547274Y-75142707D01*
X218576648Y-75096521D01*
X218733964Y-74939205D01*
X218796276Y-74905179D01*
X218823059Y-74902300D01*
X228826941Y-74902300D01*
X228895062Y-74922302D01*
G37*
%TD.AperFunction*%
%TA.AperFunction,Conductor*%
G36*
X229441312Y-73550702D02*
G01*
X229462286Y-73567605D01*
X243876057Y-87981377D01*
X243879710Y-87985186D01*
X243919734Y-88028712D01*
X243954803Y-88050456D01*
X243964582Y-88057177D01*
X243997454Y-88082127D01*
X244010324Y-88087222D01*
X244030332Y-88097286D01*
X244042100Y-88104582D01*
X244050343Y-88106977D01*
X244050350Y-88106980D01*
X244081743Y-88116101D01*
X244092970Y-88119945D01*
X244123337Y-88131968D01*
X244123339Y-88131969D01*
X244131322Y-88135129D01*
X244139859Y-88136026D01*
X244139866Y-88136028D01*
X244145089Y-88136577D01*
X244167066Y-88140888D01*
X244174028Y-88142911D01*
X244174030Y-88142911D01*
X244180362Y-88144751D01*
X244187177Y-88145251D01*
X244188254Y-88145331D01*
X244188267Y-88145331D01*
X244190562Y-88145500D01*
X244223388Y-88145500D01*
X244236559Y-88146190D01*
X244274511Y-88150179D01*
X244282977Y-88148747D01*
X244282980Y-88148747D01*
X244291747Y-88147264D01*
X244312759Y-88145500D01*
X252147225Y-88145500D01*
X252215346Y-88165502D01*
X252250122Y-88198780D01*
X252267035Y-88222711D01*
X252371405Y-88370391D01*
X252522865Y-88517937D01*
X252527661Y-88521142D01*
X252527664Y-88521144D01*
X252670936Y-88616875D01*
X252698677Y-88635411D01*
X252703985Y-88637692D01*
X252703986Y-88637692D01*
X252887650Y-88716600D01*
X252887653Y-88716601D01*
X252892953Y-88718878D01*
X252898582Y-88720152D01*
X252898583Y-88720152D01*
X253093550Y-88764269D01*
X253093553Y-88764269D01*
X253099186Y-88765544D01*
X253104958Y-88765771D01*
X253110687Y-88766525D01*
X253110327Y-88769257D01*
X253166604Y-88788216D01*
X253210950Y-88843659D01*
X253218282Y-88914276D01*
X253186271Y-88977647D01*
X253125081Y-89013651D01*
X253115704Y-89015632D01*
X252956650Y-89042962D01*
X252956649Y-89042962D01*
X252950953Y-89043941D01*
X252752575Y-89117127D01*
X252747614Y-89120079D01*
X252747613Y-89120079D01*
X252728993Y-89131157D01*
X252570856Y-89225238D01*
X252411881Y-89364655D01*
X252280976Y-89530708D01*
X252267172Y-89556945D01*
X252261793Y-89567169D01*
X252212373Y-89618141D01*
X252150285Y-89634500D01*
X245149859Y-89634500D01*
X245081738Y-89614498D01*
X245060764Y-89597595D01*
X229478605Y-74015436D01*
X229474952Y-74011627D01*
X229440734Y-73974415D01*
X229434916Y-73968088D01*
X229421993Y-73960075D01*
X229399845Y-73946343D01*
X229390062Y-73939619D01*
X229379751Y-73931792D01*
X229357196Y-73914672D01*
X229349209Y-73911510D01*
X229349206Y-73911508D01*
X229344317Y-73909572D01*
X229324316Y-73899513D01*
X229312550Y-73892218D01*
X229272919Y-73880704D01*
X229261695Y-73876860D01*
X229231316Y-73864833D01*
X229231313Y-73864832D01*
X229223328Y-73861671D01*
X229214791Y-73860774D01*
X229214784Y-73860772D01*
X229209561Y-73860223D01*
X229187584Y-73855912D01*
X229180622Y-73853889D01*
X229180620Y-73853889D01*
X229174288Y-73852049D01*
X229167473Y-73851549D01*
X229166396Y-73851469D01*
X229166383Y-73851469D01*
X229164088Y-73851300D01*
X229131261Y-73851300D01*
X229118090Y-73850610D01*
X229080138Y-73846621D01*
X229071672Y-73848053D01*
X229071669Y-73848053D01*
X229062902Y-73849536D01*
X229041890Y-73851300D01*
X218567635Y-73851300D01*
X218562359Y-73851189D01*
X218550094Y-73850675D01*
X218503281Y-73848713D01*
X218463095Y-73858138D01*
X218451429Y-73860300D01*
X218419064Y-73864733D01*
X218419062Y-73864734D01*
X218410554Y-73865899D01*
X218402673Y-73869310D01*
X218402671Y-73869310D01*
X218397853Y-73871395D01*
X218376590Y-73878427D01*
X218371471Y-73879628D01*
X218371469Y-73879629D01*
X218363107Y-73881590D01*
X218326925Y-73901481D01*
X218316295Y-73906688D01*
X218278417Y-73923080D01*
X218271741Y-73928486D01*
X218271739Y-73928487D01*
X218267658Y-73931792D01*
X218249074Y-73944280D01*
X218236937Y-73950953D01*
X218231943Y-73955264D01*
X218230388Y-73956344D01*
X218163034Y-73978794D01*
X218094235Y-73961265D01*
X218045835Y-73909324D01*
X218033199Y-73839461D01*
X218060340Y-73773857D01*
X218069388Y-73763781D01*
X218265564Y-73567605D01*
X218327876Y-73533579D01*
X218354659Y-73530700D01*
X229373191Y-73530700D01*
X229441312Y-73550702D01*
G37*
%TD.AperFunction*%
%TA.AperFunction,Conductor*%
G36*
X230363262Y-72315502D02*
G01*
X230384236Y-72332405D01*
X243493195Y-85441364D01*
X243496848Y-85445173D01*
X243536884Y-85488712D01*
X243571968Y-85510465D01*
X243581736Y-85517179D01*
X243614605Y-85542128D01*
X243622586Y-85545288D01*
X243622588Y-85545289D01*
X243627474Y-85547223D01*
X243647490Y-85557291D01*
X243659250Y-85564582D01*
X243667494Y-85566977D01*
X243667496Y-85566978D01*
X243698874Y-85576094D01*
X243710103Y-85579939D01*
X243740486Y-85591968D01*
X243740488Y-85591968D01*
X243748473Y-85595130D01*
X243762098Y-85596562D01*
X243762242Y-85596577D01*
X243784222Y-85600890D01*
X243797512Y-85604751D01*
X243804093Y-85605234D01*
X243804097Y-85605235D01*
X243805404Y-85605331D01*
X243805417Y-85605331D01*
X243807712Y-85605500D01*
X243840529Y-85605500D01*
X243853700Y-85606190D01*
X243891662Y-85610180D01*
X243900128Y-85608748D01*
X243900131Y-85608748D01*
X243908904Y-85607264D01*
X243929916Y-85605500D01*
X252147225Y-85605500D01*
X252215346Y-85625502D01*
X252250122Y-85658780D01*
X252371405Y-85830391D01*
X252522865Y-85977937D01*
X252527661Y-85981142D01*
X252527664Y-85981144D01*
X252654175Y-86065676D01*
X252698677Y-86095411D01*
X252703985Y-86097692D01*
X252703986Y-86097692D01*
X252887650Y-86176600D01*
X252887653Y-86176601D01*
X252892953Y-86178878D01*
X252898582Y-86180152D01*
X252898583Y-86180152D01*
X253093550Y-86224269D01*
X253093553Y-86224269D01*
X253099186Y-86225544D01*
X253104958Y-86225771D01*
X253110687Y-86226525D01*
X253110327Y-86229257D01*
X253166604Y-86248216D01*
X253210950Y-86303659D01*
X253218282Y-86374276D01*
X253186271Y-86437647D01*
X253125081Y-86473651D01*
X253115704Y-86475632D01*
X252956650Y-86502962D01*
X252956649Y-86502962D01*
X252950953Y-86503941D01*
X252752575Y-86577127D01*
X252747614Y-86580079D01*
X252747613Y-86580079D01*
X252730089Y-86590505D01*
X252570856Y-86685238D01*
X252411881Y-86824655D01*
X252280976Y-86990708D01*
X252267517Y-87016290D01*
X252261793Y-87027169D01*
X252212373Y-87078141D01*
X252150285Y-87094500D01*
X244527709Y-87094500D01*
X244459588Y-87074498D01*
X244438614Y-87057595D01*
X230024855Y-72643836D01*
X230021202Y-72640027D01*
X229986984Y-72602815D01*
X229981166Y-72596488D01*
X229966964Y-72587682D01*
X229946095Y-72574743D01*
X229936312Y-72568019D01*
X229931355Y-72564256D01*
X229903446Y-72543072D01*
X229895459Y-72539910D01*
X229895456Y-72539908D01*
X229892282Y-72538651D01*
X229889829Y-72536737D01*
X229887973Y-72535691D01*
X229888130Y-72535412D01*
X229836309Y-72494975D01*
X229812834Y-72427972D01*
X229829311Y-72358914D01*
X229880508Y-72309726D01*
X229938668Y-72295500D01*
X230295141Y-72295500D01*
X230363262Y-72315502D01*
G37*
%TD.AperFunction*%
%TA.AperFunction,Conductor*%
G36*
X231393262Y-71345502D02*
G01*
X231414236Y-71362405D01*
X242953195Y-82901364D01*
X242956848Y-82905173D01*
X242996884Y-82948712D01*
X243004184Y-82953238D01*
X243004185Y-82953239D01*
X243031960Y-82970460D01*
X243041730Y-82977174D01*
X243074604Y-83002127D01*
X243087474Y-83007222D01*
X243107482Y-83017286D01*
X243119250Y-83024582D01*
X243127493Y-83026977D01*
X243127500Y-83026980D01*
X243158893Y-83036101D01*
X243170120Y-83039945D01*
X243200487Y-83051968D01*
X243200489Y-83051969D01*
X243208472Y-83055129D01*
X243217009Y-83056026D01*
X243217016Y-83056028D01*
X243222239Y-83056577D01*
X243244216Y-83060888D01*
X243251178Y-83062911D01*
X243251180Y-83062911D01*
X243257512Y-83064751D01*
X243264327Y-83065251D01*
X243265404Y-83065331D01*
X243265417Y-83065331D01*
X243267712Y-83065500D01*
X243300538Y-83065500D01*
X243313709Y-83066190D01*
X243351661Y-83070179D01*
X243360127Y-83068747D01*
X243360130Y-83068747D01*
X243368897Y-83067264D01*
X243389909Y-83065500D01*
X252147225Y-83065500D01*
X252215346Y-83085502D01*
X252250122Y-83118780D01*
X252279321Y-83160095D01*
X252371405Y-83290391D01*
X252433590Y-83350969D01*
X252488524Y-83404483D01*
X252522865Y-83437937D01*
X252527661Y-83441142D01*
X252527664Y-83441144D01*
X252654175Y-83525676D01*
X252698677Y-83555411D01*
X252703985Y-83557692D01*
X252703986Y-83557692D01*
X252887650Y-83636600D01*
X252887653Y-83636601D01*
X252892953Y-83638878D01*
X252898582Y-83640152D01*
X252898583Y-83640152D01*
X253093550Y-83684269D01*
X253093553Y-83684269D01*
X253099186Y-83685544D01*
X253104958Y-83685771D01*
X253110687Y-83686525D01*
X253110327Y-83689257D01*
X253166604Y-83708216D01*
X253210950Y-83763659D01*
X253218282Y-83834276D01*
X253186271Y-83897647D01*
X253125081Y-83933651D01*
X253115704Y-83935632D01*
X252956650Y-83962962D01*
X252956649Y-83962962D01*
X252950953Y-83963941D01*
X252752575Y-84037127D01*
X252747614Y-84040079D01*
X252747613Y-84040079D01*
X252657239Y-84093846D01*
X252570856Y-84145238D01*
X252411881Y-84284655D01*
X252280976Y-84450708D01*
X252267517Y-84476290D01*
X252261793Y-84487169D01*
X252212373Y-84538141D01*
X252150285Y-84554500D01*
X244144859Y-84554500D01*
X244076738Y-84534498D01*
X244055764Y-84517595D01*
X231078764Y-71540595D01*
X231044738Y-71478283D01*
X231049803Y-71407468D01*
X231092350Y-71350632D01*
X231158870Y-71325821D01*
X231167859Y-71325500D01*
X231325141Y-71325500D01*
X231393262Y-71345502D01*
G37*
%TD.AperFunction*%
%TD*%
M02*
