%TF.GenerationSoftware,KiCad,Pcbnew,(5.99.0-10363-g902a2c9f58)*%
%TF.CreationDate,2021-05-11T19:21:33+02:00*%
%TF.ProjectId,Smogly1,536d6f67-6c79-4312-9e6b-696361645f70,rev?*%
%TF.SameCoordinates,Original*%
%TF.FileFunction,Soldermask,Top*%
%TF.FilePolarity,Negative*%
%FSLAX46Y46*%
G04 Gerber Fmt 4.6, Leading zero omitted, Abs format (unit mm)*
G04 Created by KiCad (PCBNEW (5.99.0-10363-g902a2c9f58)) date 2021-05-11 19:21:33*
%MOMM*%
%LPD*%
G01*
G04 APERTURE LIST*
%ADD10R,1.700000X1.700000*%
%ADD11O,1.700000X1.700000*%
%ADD12R,1.000000X1.000000*%
%ADD13O,1.000000X1.000000*%
G04 APERTURE END LIST*
D10*
%TO.C,J2*%
X197000000Y-72810000D03*
D11*
X199540000Y-72810000D03*
X202080000Y-72810000D03*
X204620000Y-72810000D03*
%TD*%
D10*
%TO.C,J1*%
X227050000Y-133125000D03*
D11*
X227050000Y-130585000D03*
%TD*%
D10*
%TO.C,J8*%
X220200000Y-88450000D03*
D11*
X220200000Y-90990000D03*
X220200000Y-93530000D03*
X220200000Y-96070000D03*
%TD*%
D10*
%TO.C,J6*%
X220200000Y-80400000D03*
D11*
X220200000Y-82940000D03*
%TD*%
D12*
%TO.C,J9*%
X169980000Y-131080000D03*
D13*
X171250000Y-131080000D03*
X169980000Y-129810000D03*
X171250000Y-129810000D03*
X169980000Y-128540000D03*
X171250000Y-128540000D03*
X169980000Y-127270000D03*
X171250000Y-127270000D03*
X169980000Y-126000000D03*
X171250000Y-126000000D03*
%TD*%
D10*
%TO.C,J10*%
X253250000Y-115920000D03*
D11*
X253250000Y-113380000D03*
X253250000Y-110840000D03*
X253250000Y-108300000D03*
X253250000Y-105760000D03*
X253250000Y-103220000D03*
X253250000Y-100680000D03*
X253250000Y-98140000D03*
X253250000Y-95600000D03*
X253250000Y-93060000D03*
X253250000Y-90520000D03*
X253250000Y-87980000D03*
X253250000Y-85440000D03*
X253250000Y-82900000D03*
X253250000Y-80360000D03*
%TD*%
D10*
%TO.C,J5*%
X219100000Y-117800000D03*
D11*
X216560000Y-117800000D03*
X219100000Y-115260000D03*
X216560000Y-115260000D03*
X219100000Y-112720000D03*
X216560000Y-112720000D03*
X219100000Y-110180000D03*
X216560000Y-110180000D03*
%TD*%
D10*
%TO.C,J11*%
X225310000Y-115920000D03*
D11*
X225310000Y-113380000D03*
X225310000Y-110840000D03*
X225310000Y-108300000D03*
X225310000Y-105760000D03*
X225310000Y-103220000D03*
X225310000Y-100680000D03*
X225310000Y-98140000D03*
X225310000Y-95600000D03*
X225310000Y-93060000D03*
X225310000Y-90520000D03*
X225310000Y-87980000D03*
X225310000Y-85440000D03*
X225310000Y-82900000D03*
X225310000Y-80360000D03*
%TD*%
D10*
%TO.C,J4*%
X243725000Y-122800000D03*
D11*
X246265000Y-122800000D03*
X248805000Y-122800000D03*
X251345000Y-122800000D03*
X253885000Y-122800000D03*
%TD*%
D10*
%TO.C,J3*%
X185000000Y-77700000D03*
D11*
X185000000Y-80240000D03*
X185000000Y-82780000D03*
X185000000Y-85320000D03*
%TD*%
M02*
