%TF.GenerationSoftware,KiCad,Pcbnew,(5.99.0-10363-g902a2c9f58)*%
%TF.CreationDate,2021-04-20T12:18:22+02:00*%
%TF.ProjectId,Smogly1,536d6f67-6c79-4312-9e6b-696361645f70,rev?*%
%TF.SameCoordinates,Original*%
%TF.FileFunction,Copper,L2,Bot*%
%TF.FilePolarity,Positive*%
%FSLAX46Y46*%
G04 Gerber Fmt 4.6, Leading zero omitted, Abs format (unit mm)*
G04 Created by KiCad (PCBNEW (5.99.0-10363-g902a2c9f58)) date 2021-04-20 12:18:22*
%MOMM*%
%LPD*%
G01*
G04 APERTURE LIST*
%TA.AperFunction,ComponentPad*%
%ADD10O,1.000000X1.000000*%
%TD*%
%TA.AperFunction,ComponentPad*%
%ADD11R,1.000000X1.000000*%
%TD*%
%TA.AperFunction,ComponentPad*%
%ADD12R,1.700000X1.700000*%
%TD*%
%TA.AperFunction,ComponentPad*%
%ADD13O,1.700000X1.700000*%
%TD*%
%TA.AperFunction,ViaPad*%
%ADD14C,0.800000*%
%TD*%
%TA.AperFunction,Conductor*%
%ADD15C,0.350000*%
%TD*%
%TA.AperFunction,Conductor*%
%ADD16C,0.450000*%
%TD*%
G04 APERTURE END LIST*
D10*
%TO.P,J9,10,Pin_10*%
%TO.N,unconnected-(J9-Pad10)*%
X170750000Y-127000000D03*
%TO.P,J9,9,Pin_9*%
%TO.N,Net-(J11-Pad2)*%
X169480000Y-127000000D03*
%TO.P,J9,8,Pin_8*%
%TO.N,unconnected-(J9-Pad8)*%
X170750000Y-128270000D03*
%TO.P,J9,7,Pin_7*%
%TO.N,Net-(J11-Pad3)*%
X169480000Y-128270000D03*
%TO.P,J9,6,Pin_6*%
%TO.N,unconnected-(J9-Pad6)*%
X170750000Y-129540000D03*
%TO.P,J9,5,Pin_5*%
%TO.N,unconnected-(J9-Pad5)*%
X169480000Y-129540000D03*
%TO.P,J9,4,Pin_4*%
%TO.N,GND*%
X170750000Y-130810000D03*
%TO.P,J9,3,Pin_3*%
X169480000Y-130810000D03*
%TO.P,J9,2,Pin_2*%
%TO.N,+5V*%
X170750000Y-132080000D03*
D11*
%TO.P,J9,1,Pin_1*%
X169480000Y-132080000D03*
%TD*%
D12*
%TO.P,J2,1,Pin_1*%
%TO.N,+5V*%
X197000000Y-72810000D03*
D13*
%TO.P,J2,2,Pin_2*%
%TO.N,GND*%
X199540000Y-72810000D03*
%TO.P,J2,3,Pin_3*%
%TO.N,Net-(J11-Pad3)*%
X202080000Y-72810000D03*
%TO.P,J2,4,Pin_4*%
%TO.N,Net-(J11-Pad2)*%
X204620000Y-72810000D03*
%TD*%
D12*
%TO.P,J1,1,Pin_1*%
%TO.N,+5V*%
X227050000Y-133125000D03*
D13*
%TO.P,J1,2,Pin_2*%
%TO.N,GND*%
X227050000Y-130585000D03*
%TD*%
D12*
%TO.P,J8,1,Pin_1*%
%TO.N,Net-(J11-Pad11)*%
X220200000Y-88450000D03*
D13*
%TO.P,J8,2,Pin_2*%
%TO.N,Net-(J11-Pad10)*%
X220200000Y-90990000D03*
%TO.P,J8,3,Pin_3*%
%TO.N,Net-(J11-Pad9)*%
X220200000Y-93530000D03*
%TO.P,J8,4,Pin_4*%
%TO.N,Net-(J11-Pad8)*%
X220200000Y-96070000D03*
%TD*%
D12*
%TO.P,J6,1,Pin_1*%
%TO.N,Net-(J10-Pad13)*%
X220200000Y-80400000D03*
D13*
%TO.P,J6,2,Pin_2*%
%TO.N,Net-(J11-Pad1)*%
X220200000Y-82940000D03*
%TD*%
D12*
%TO.P,J10,1,Pin_1*%
%TO.N,N/C*%
X253250000Y-113920000D03*
D13*
%TO.P,J10,2,Pin_2*%
X253250000Y-111380000D03*
%TO.P,J10,3,Pin_3*%
X253250000Y-108840000D03*
%TO.P,J10,4,Pin_4*%
X253250000Y-106300000D03*
%TO.P,J10,5,Pin_5*%
X253250000Y-103760000D03*
%TO.P,J10,6,Pin_6*%
X253250000Y-101220000D03*
%TO.P,J10,7,Pin_7*%
X253250000Y-98680000D03*
%TO.P,J10,8,Pin_8*%
X253250000Y-96140000D03*
%TO.P,J10,9,Pin_9*%
X253250000Y-93600000D03*
%TO.P,J10,10,Pin_10*%
X253250000Y-91060000D03*
%TO.P,J10,11,Pin_11*%
%TO.N,+3V3*%
X253250000Y-88520000D03*
%TO.P,J10,12,Pin_12*%
%TO.N,N/C*%
X253250000Y-85980000D03*
%TO.P,J10,13,Pin_13*%
%TO.N,Net-(J10-Pad13)*%
X253250000Y-83440000D03*
%TO.P,J10,14,Pin_14*%
%TO.N,GND*%
X253250000Y-80900000D03*
%TO.P,J10,15,Pin_15*%
%TO.N,+5V*%
X253250000Y-78360000D03*
%TD*%
D12*
%TO.P,J5,1,Pin_1*%
%TO.N,+3V3*%
X219100000Y-117800000D03*
D13*
%TO.P,J5,2,Pin_2*%
X216560000Y-117800000D03*
%TO.P,J5,3,Pin_3*%
%TO.N,+5V*%
X219100000Y-115260000D03*
%TO.P,J5,4,Pin_4*%
X216560000Y-115260000D03*
%TO.P,J5,5,Pin_5*%
%TO.N,GND*%
X219100000Y-112720000D03*
%TO.P,J5,6,Pin_6*%
X216560000Y-112720000D03*
%TO.P,J5,7,Pin_7*%
X219100000Y-110180000D03*
%TO.P,J5,8,Pin_8*%
X216560000Y-110180000D03*
%TD*%
D12*
%TO.P,J11,1,Pin_1*%
%TO.N,Net-(J11-Pad1)*%
X225310000Y-113920000D03*
D13*
%TO.P,J11,2,Pin_2*%
%TO.N,Net-(J11-Pad2)*%
X225310000Y-111380000D03*
%TO.P,J11,3,Pin_3*%
%TO.N,Net-(J11-Pad3)*%
X225310000Y-108840000D03*
%TO.P,J11,4,Pin_4*%
%TO.N,Net-(J11-Pad4)*%
X225310000Y-106300000D03*
%TO.P,J11,5,Pin_5*%
%TO.N,Net-(J11-Pad5)*%
X225310000Y-103760000D03*
%TO.P,J11,6,Pin_6*%
%TO.N,Net-(J11-Pad6)*%
X225310000Y-101220000D03*
%TO.P,J11,7,Pin_7*%
%TO.N,Net-(J11-Pad7)*%
X225310000Y-98680000D03*
%TO.P,J11,8,Pin_8*%
%TO.N,Net-(J11-Pad8)*%
X225310000Y-96140000D03*
%TO.P,J11,9,Pin_9*%
%TO.N,Net-(J11-Pad9)*%
X225310000Y-93600000D03*
%TO.P,J11,10,Pin_10*%
%TO.N,Net-(J11-Pad10)*%
X225310000Y-91060000D03*
%TO.P,J11,11,Pin_11*%
%TO.N,Net-(J11-Pad11)*%
X225310000Y-88520000D03*
%TO.P,J11,12,Pin_12*%
%TO.N,N/C*%
X225310000Y-85980000D03*
%TO.P,J11,13,Pin_13*%
X225310000Y-83440000D03*
%TO.P,J11,14,Pin_14*%
X225310000Y-80900000D03*
%TO.P,J11,15,Pin_15*%
X225310000Y-78360000D03*
%TD*%
D12*
%TO.P,J4,1,Pin_1*%
%TO.N,GND*%
X243725000Y-122800000D03*
D13*
%TO.P,J4,2,Pin_2*%
%TO.N,N/C*%
X246265000Y-122800000D03*
%TO.P,J4,3,Pin_3*%
X248805000Y-122800000D03*
%TO.P,J4,4,Pin_4*%
X251345000Y-122800000D03*
%TO.P,J4,5,Pin_5*%
%TO.N,+5V*%
X253885000Y-122800000D03*
%TD*%
D12*
%TO.P,J3,1,Pin_1*%
%TO.N,Net-(J11-Pad4)*%
X185000000Y-77700000D03*
D13*
%TO.P,J3,2,Pin_2*%
%TO.N,Net-(J11-Pad5)*%
X185000000Y-80240000D03*
%TO.P,J3,3,Pin_3*%
%TO.N,Net-(J11-Pad7)*%
X185000000Y-82780000D03*
%TO.P,J3,4,Pin_4*%
%TO.N,Net-(J11-Pad6)*%
X185000000Y-85320000D03*
%TD*%
D14*
%TO.N,Net-(J11-Pad2)*%
X179530000Y-110700000D03*
%TO.N,Net-(J11-Pad3)*%
X177680000Y-110780000D03*
%TO.N,GND*%
X175120000Y-130720000D03*
%TO.N,+5V*%
X197000000Y-82560000D03*
%TO.N,GND*%
X199540000Y-82550000D03*
%TO.N,Net-(J11-Pad3)*%
X202170000Y-82540000D03*
%TO.N,Net-(J11-Pad2)*%
X204710000Y-82650000D03*
X215950000Y-93100000D03*
%TO.N,+5V*%
X233210000Y-130980000D03*
X241050000Y-118990000D03*
%TO.N,GND*%
X224050000Y-130550000D03*
X222000000Y-115050000D03*
%TO.N,Net-(J11-Pad5)*%
X221875500Y-103700000D03*
X211220000Y-94710000D03*
%TO.N,Net-(J11-Pad4)*%
X222700000Y-106000000D03*
X211147565Y-93401308D03*
%TO.N,Net-(J11-Pad6)*%
X218490000Y-102500000D03*
X211250000Y-97720000D03*
%TO.N,Net-(J11-Pad7)*%
X211220000Y-96250000D03*
X218431636Y-101448364D03*
%TD*%
D15*
%TO.N,Net-(J11-Pad2)*%
X179530000Y-110700000D02*
X179620000Y-110610000D01*
X179620000Y-110610000D02*
X179620000Y-107720000D01*
X179620000Y-107720000D02*
X204690000Y-82650000D01*
X204690000Y-82650000D02*
X204710000Y-82650000D01*
%TO.N,Net-(J11-Pad3)*%
X177680000Y-107020000D02*
X202160000Y-82540000D01*
X177680000Y-110780000D02*
X177680000Y-107020000D01*
X202160000Y-82540000D02*
X202170000Y-82540000D01*
D16*
%TO.N,GND*%
X175120000Y-130720000D02*
X175910000Y-129930000D01*
X175910000Y-106180000D02*
X199540000Y-82550000D01*
X175910000Y-129930000D02*
X175910000Y-106180000D01*
%TO.N,+5V*%
X197000000Y-82560000D02*
X174060000Y-105500000D01*
X174060000Y-105500000D02*
X174060000Y-131240000D01*
X174060000Y-131240000D02*
X173220000Y-132080000D01*
X173220000Y-132080000D02*
X170750000Y-132080000D01*
X170750000Y-132080000D02*
X169480000Y-132080000D01*
D15*
%TO.N,Net-(J11-Pad2)*%
X204710000Y-82650000D02*
X204710000Y-82660000D01*
X204710000Y-82660000D02*
X209290000Y-87240000D01*
X209290000Y-87240000D02*
X210870000Y-87240000D01*
X215950000Y-92320000D02*
X215950000Y-93100000D01*
X210870000Y-87240000D02*
X215950000Y-92320000D01*
D16*
%TO.N,+5V*%
X241050000Y-118990000D02*
X240970000Y-118990000D01*
X240970000Y-118990000D02*
X233210000Y-126750000D01*
X233210000Y-126750000D02*
X233210000Y-130980000D01*
%TO.N,GND*%
X222000000Y-115050000D02*
X222000000Y-128500000D01*
X222000000Y-128500000D02*
X224050000Y-130550000D01*
D15*
%TO.N,Net-(J11-Pad5)*%
X212860000Y-94710000D02*
X211220000Y-94710000D01*
X221875500Y-103700000D02*
X221850000Y-103700000D01*
X221850000Y-103700000D02*
X212860000Y-94710000D01*
%TO.N,Net-(J11-Pad4)*%
X222700000Y-102740000D02*
X213361308Y-93401308D01*
X222700000Y-106000000D02*
X222700000Y-102740000D01*
X213361308Y-93401308D02*
X211147565Y-93401308D01*
D16*
%TO.N,Net-(J11-Pad6)*%
X211250000Y-97720000D02*
X212340000Y-97720000D01*
X212340000Y-97720000D02*
X217120000Y-102500000D01*
X217120000Y-102500000D02*
X218490000Y-102500000D01*
D15*
%TO.N,Net-(J11-Pad7)*%
X217888364Y-101448364D02*
X217828364Y-101448364D01*
D16*
X212630000Y-96250000D02*
X211220000Y-96250000D01*
X217828364Y-101448364D02*
X212630000Y-96250000D01*
X218431636Y-101448364D02*
X217888364Y-101448364D01*
%TD*%
%TA.AperFunction,Conductor*%
%TO.N,GND*%
G36*
X232942652Y-68770002D02*
G01*
X232989145Y-68823658D01*
X233000531Y-68875846D01*
X233006732Y-73964533D01*
X233009834Y-76510696D01*
X233023381Y-76510680D01*
X233023382Y-76510680D01*
X240967796Y-76501215D01*
X257773851Y-76481191D01*
X257841994Y-76501112D01*
X257888551Y-76554712D01*
X257900000Y-76607191D01*
X257900000Y-136024000D01*
X257879998Y-136092121D01*
X257826342Y-136138614D01*
X257774000Y-136150000D01*
X165376000Y-136150000D01*
X165307879Y-136129998D01*
X165261386Y-136076342D01*
X165250000Y-136024000D01*
X165250000Y-131580000D01*
X168674500Y-131580000D01*
X168674500Y-132580000D01*
X168674567Y-132581441D01*
X168674567Y-132581458D01*
X168675060Y-132592124D01*
X168675803Y-132608188D01*
X168706528Y-132716173D01*
X168774186Y-132805767D01*
X168869641Y-132864870D01*
X168881113Y-132867014D01*
X168881114Y-132867015D01*
X168974275Y-132884430D01*
X168974277Y-132884430D01*
X168980000Y-132885500D01*
X169980000Y-132885500D01*
X169981441Y-132885433D01*
X169981458Y-132885433D01*
X169995558Y-132884781D01*
X170008188Y-132884197D01*
X170116173Y-132853472D01*
X170205767Y-132785814D01*
X170207662Y-132788324D01*
X170252446Y-132761109D01*
X170323420Y-132762895D01*
X170353887Y-132777429D01*
X170380923Y-132795121D01*
X170380927Y-132795123D01*
X170386818Y-132798978D01*
X170393410Y-132801430D01*
X170393413Y-132801431D01*
X170426017Y-132813556D01*
X170555132Y-132861573D01*
X170562113Y-132862504D01*
X170562115Y-132862505D01*
X170726150Y-132884392D01*
X170726154Y-132884392D01*
X170733131Y-132885323D01*
X170740142Y-132884685D01*
X170740146Y-132884685D01*
X170904947Y-132869687D01*
X170911968Y-132869048D01*
X170981561Y-132846436D01*
X171076057Y-132815733D01*
X171076060Y-132815732D01*
X171082756Y-132813556D01*
X171237005Y-132721605D01*
X171322432Y-132640254D01*
X171385557Y-132607762D01*
X171409324Y-132605500D01*
X173204157Y-132605500D01*
X173209433Y-132605610D01*
X173269925Y-132608145D01*
X173310106Y-132598721D01*
X173321766Y-132596560D01*
X173326615Y-132595896D01*
X173354154Y-132592124D01*
X173354157Y-132592123D01*
X173362662Y-132590958D01*
X173370541Y-132587548D01*
X173370546Y-132587547D01*
X173375371Y-132585459D01*
X173396635Y-132578427D01*
X173401747Y-132577228D01*
X173401751Y-132577226D01*
X173410114Y-132575265D01*
X173417637Y-132571129D01*
X173417640Y-132571128D01*
X173446283Y-132555381D01*
X173456943Y-132550159D01*
X173486929Y-132537183D01*
X173486930Y-132537182D01*
X173494813Y-132533771D01*
X173505571Y-132525059D01*
X173524167Y-132512563D01*
X173530512Y-132509075D01*
X173536297Y-132505895D01*
X173543440Y-132499729D01*
X173566815Y-132476354D01*
X173576615Y-132467529D01*
X173600044Y-132448557D01*
X173600046Y-132448555D01*
X173606718Y-132443152D01*
X173611691Y-132436154D01*
X173611696Y-132436149D01*
X173617051Y-132428613D01*
X173630662Y-132412507D01*
X173768169Y-132275000D01*
X225894500Y-132275000D01*
X225894500Y-133975000D01*
X225894567Y-133976441D01*
X225894567Y-133976458D01*
X225895219Y-133990558D01*
X225895803Y-134003188D01*
X225926528Y-134111173D01*
X225994186Y-134200767D01*
X226089641Y-134259870D01*
X226101113Y-134262014D01*
X226101114Y-134262015D01*
X226194275Y-134279430D01*
X226194277Y-134279430D01*
X226200000Y-134280500D01*
X227900000Y-134280500D01*
X227901441Y-134280433D01*
X227901458Y-134280433D01*
X227915558Y-134279781D01*
X227928188Y-134279197D01*
X228036173Y-134248472D01*
X228125767Y-134180814D01*
X228184870Y-134085359D01*
X228205500Y-133975000D01*
X228205500Y-132275000D01*
X228205236Y-132269275D01*
X228204533Y-132254084D01*
X228204197Y-132246812D01*
X228173472Y-132138827D01*
X228105814Y-132049233D01*
X228010359Y-131990130D01*
X227998887Y-131987986D01*
X227998886Y-131987985D01*
X227905725Y-131970570D01*
X227905723Y-131970570D01*
X227900000Y-131969500D01*
X227263796Y-131969500D01*
X227195675Y-131949498D01*
X227149182Y-131895842D01*
X227139078Y-131825568D01*
X227168572Y-131760988D01*
X227228298Y-131722604D01*
X227245716Y-131718804D01*
X227313915Y-131708916D01*
X227325098Y-131706231D01*
X227514313Y-131642001D01*
X227524816Y-131637325D01*
X227699162Y-131539687D01*
X227708637Y-131533175D01*
X227862276Y-131405394D01*
X227870394Y-131397276D01*
X227998175Y-131243637D01*
X228004687Y-131234162D01*
X228102325Y-131059816D01*
X228107001Y-131049313D01*
X228133037Y-130972612D01*
X232504539Y-130972612D01*
X232523140Y-131141102D01*
X232581395Y-131300290D01*
X232585631Y-131306593D01*
X232585631Y-131306594D01*
X232592958Y-131317497D01*
X232675940Y-131440988D01*
X232801317Y-131555073D01*
X232950288Y-131635957D01*
X233114253Y-131678973D01*
X233202481Y-131680359D01*
X233276147Y-131681516D01*
X233276150Y-131681516D01*
X233283745Y-131681635D01*
X233342841Y-131668100D01*
X233441577Y-131645487D01*
X233441581Y-131645486D01*
X233448980Y-131643791D01*
X233600418Y-131567626D01*
X233688445Y-131492443D01*
X233723544Y-131462466D01*
X233723545Y-131462465D01*
X233729316Y-131457536D01*
X233828234Y-131319877D01*
X233838976Y-131293156D01*
X233888626Y-131169650D01*
X233888627Y-131169648D01*
X233891461Y-131162597D01*
X233915345Y-130994775D01*
X233915500Y-130980000D01*
X233900365Y-130854935D01*
X233896048Y-130819258D01*
X233896048Y-130819257D01*
X233895135Y-130811715D01*
X233892427Y-130804549D01*
X233837902Y-130660250D01*
X233837901Y-130660248D01*
X233835217Y-130653145D01*
X233830918Y-130646890D01*
X233830916Y-130646886D01*
X233757660Y-130540299D01*
X233735500Y-130468932D01*
X233735500Y-127019859D01*
X233755502Y-126951738D01*
X233772405Y-126930764D01*
X237635622Y-123067548D01*
X242570000Y-123067548D01*
X242570000Y-123648532D01*
X242570067Y-123651457D01*
X242570965Y-123670869D01*
X242573294Y-123685147D01*
X242598780Y-123774721D01*
X242609011Y-123795267D01*
X242662485Y-123866079D01*
X242679453Y-123881546D01*
X242754892Y-123928256D01*
X242776298Y-123936549D01*
X242869273Y-123953929D01*
X242880828Y-123955000D01*
X243452885Y-123955000D01*
X243468124Y-123950525D01*
X243469329Y-123949135D01*
X243471000Y-123941452D01*
X243471000Y-123072115D01*
X243466525Y-123056876D01*
X243465135Y-123055671D01*
X243457452Y-123054000D01*
X242588115Y-123054000D01*
X242572876Y-123058475D01*
X242571671Y-123059865D01*
X242570000Y-123067548D01*
X237635622Y-123067548D01*
X238747342Y-121955828D01*
X242570000Y-121955828D01*
X242570000Y-122527885D01*
X242574475Y-122543124D01*
X242575865Y-122544329D01*
X242583548Y-122546000D01*
X243452885Y-122546000D01*
X243468124Y-122541525D01*
X243469329Y-122540135D01*
X243471000Y-122532452D01*
X243471000Y-121663115D01*
X243469659Y-121658548D01*
X243979000Y-121658548D01*
X243979000Y-123936885D01*
X243983475Y-123952124D01*
X243984865Y-123953329D01*
X243992548Y-123955000D01*
X244573532Y-123955000D01*
X244576457Y-123954933D01*
X244595869Y-123954035D01*
X244610147Y-123951706D01*
X244699721Y-123926220D01*
X244720267Y-123915989D01*
X244791079Y-123862515D01*
X244806546Y-123845547D01*
X244853256Y-123770108D01*
X244861549Y-123748702D01*
X244878929Y-123655727D01*
X244880000Y-123644172D01*
X244880000Y-123029088D01*
X244900002Y-122960967D01*
X244953658Y-122914474D01*
X245023932Y-122904370D01*
X245088512Y-122933864D01*
X245128123Y-122998073D01*
X245175778Y-123185714D01*
X245264308Y-123377750D01*
X245386351Y-123550437D01*
X245390485Y-123554464D01*
X245509978Y-123670869D01*
X245537820Y-123697992D01*
X245542616Y-123701197D01*
X245542619Y-123701199D01*
X245613530Y-123748580D01*
X245713643Y-123815473D01*
X245718946Y-123817751D01*
X245718949Y-123817753D01*
X245902624Y-123896666D01*
X245907931Y-123898946D01*
X246114177Y-123945615D01*
X246119946Y-123945842D01*
X246119949Y-123945842D01*
X246200242Y-123948996D01*
X246325474Y-123953916D01*
X246413693Y-123941125D01*
X246529032Y-123924402D01*
X246529037Y-123924401D01*
X246534746Y-123923573D01*
X246540210Y-123921718D01*
X246540215Y-123921717D01*
X246729512Y-123857460D01*
X246729517Y-123857458D01*
X246734984Y-123855602D01*
X246752939Y-123845547D01*
X246812371Y-123812263D01*
X246919482Y-123752278D01*
X247082062Y-123617062D01*
X247217278Y-123454482D01*
X247320602Y-123269984D01*
X247322458Y-123264517D01*
X247322460Y-123264512D01*
X247386717Y-123075215D01*
X247386718Y-123075210D01*
X247388573Y-123069746D01*
X247389401Y-123064037D01*
X247389402Y-123064032D01*
X247410063Y-122921533D01*
X247439633Y-122856987D01*
X247499405Y-122818675D01*
X247570401Y-122818759D01*
X247630082Y-122857214D01*
X247659498Y-122921830D01*
X247660489Y-122931371D01*
X247663726Y-122980760D01*
X247715778Y-123185714D01*
X247804308Y-123377750D01*
X247926351Y-123550437D01*
X247930485Y-123554464D01*
X248049978Y-123670869D01*
X248077820Y-123697992D01*
X248082616Y-123701197D01*
X248082619Y-123701199D01*
X248153530Y-123748580D01*
X248253643Y-123815473D01*
X248258946Y-123817751D01*
X248258949Y-123817753D01*
X248442624Y-123896666D01*
X248447931Y-123898946D01*
X248654177Y-123945615D01*
X248659946Y-123945842D01*
X248659949Y-123945842D01*
X248740242Y-123948996D01*
X248865474Y-123953916D01*
X248953693Y-123941125D01*
X249069032Y-123924402D01*
X249069037Y-123924401D01*
X249074746Y-123923573D01*
X249080210Y-123921718D01*
X249080215Y-123921717D01*
X249269512Y-123857460D01*
X249269517Y-123857458D01*
X249274984Y-123855602D01*
X249292939Y-123845547D01*
X249352371Y-123812263D01*
X249459482Y-123752278D01*
X249622062Y-123617062D01*
X249757278Y-123454482D01*
X249860602Y-123269984D01*
X249862458Y-123264517D01*
X249862460Y-123264512D01*
X249926717Y-123075215D01*
X249926718Y-123075210D01*
X249928573Y-123069746D01*
X249929401Y-123064037D01*
X249929402Y-123064032D01*
X249950063Y-122921533D01*
X249979633Y-122856987D01*
X250039405Y-122818675D01*
X250110401Y-122818759D01*
X250170082Y-122857214D01*
X250199498Y-122921830D01*
X250200489Y-122931371D01*
X250203726Y-122980760D01*
X250255778Y-123185714D01*
X250344308Y-123377750D01*
X250466351Y-123550437D01*
X250470485Y-123554464D01*
X250589978Y-123670869D01*
X250617820Y-123697992D01*
X250622616Y-123701197D01*
X250622619Y-123701199D01*
X250693530Y-123748580D01*
X250793643Y-123815473D01*
X250798946Y-123817751D01*
X250798949Y-123817753D01*
X250982624Y-123896666D01*
X250987931Y-123898946D01*
X251194177Y-123945615D01*
X251199946Y-123945842D01*
X251199949Y-123945842D01*
X251280242Y-123948996D01*
X251405474Y-123953916D01*
X251493693Y-123941125D01*
X251609032Y-123924402D01*
X251609037Y-123924401D01*
X251614746Y-123923573D01*
X251620210Y-123921718D01*
X251620215Y-123921717D01*
X251809512Y-123857460D01*
X251809517Y-123857458D01*
X251814984Y-123855602D01*
X251832939Y-123845547D01*
X251892371Y-123812263D01*
X251999482Y-123752278D01*
X252162062Y-123617062D01*
X252297278Y-123454482D01*
X252400602Y-123269984D01*
X252402458Y-123264517D01*
X252402460Y-123264512D01*
X252466717Y-123075215D01*
X252466718Y-123075210D01*
X252468573Y-123069746D01*
X252469401Y-123064037D01*
X252469402Y-123064032D01*
X252490063Y-122921533D01*
X252519633Y-122856987D01*
X252579405Y-122818675D01*
X252650401Y-122818759D01*
X252710082Y-122857214D01*
X252739498Y-122921830D01*
X252740489Y-122931371D01*
X252743726Y-122980760D01*
X252795778Y-123185714D01*
X252884308Y-123377750D01*
X253006351Y-123550437D01*
X253010485Y-123554464D01*
X253129978Y-123670869D01*
X253157820Y-123697992D01*
X253162616Y-123701197D01*
X253162619Y-123701199D01*
X253233530Y-123748580D01*
X253333643Y-123815473D01*
X253338946Y-123817751D01*
X253338949Y-123817753D01*
X253522624Y-123896666D01*
X253527931Y-123898946D01*
X253734177Y-123945615D01*
X253739946Y-123945842D01*
X253739949Y-123945842D01*
X253820242Y-123948996D01*
X253945474Y-123953916D01*
X254033693Y-123941125D01*
X254149032Y-123924402D01*
X254149037Y-123924401D01*
X254154746Y-123923573D01*
X254160210Y-123921718D01*
X254160215Y-123921717D01*
X254349512Y-123857460D01*
X254349517Y-123857458D01*
X254354984Y-123855602D01*
X254372939Y-123845547D01*
X254432371Y-123812263D01*
X254539482Y-123752278D01*
X254702062Y-123617062D01*
X254837278Y-123454482D01*
X254940602Y-123269984D01*
X254942458Y-123264517D01*
X254942460Y-123264512D01*
X255006717Y-123075215D01*
X255006718Y-123075210D01*
X255008573Y-123069746D01*
X255009401Y-123064037D01*
X255009402Y-123064032D01*
X255038383Y-122864148D01*
X255038916Y-122860474D01*
X255040500Y-122800000D01*
X255027238Y-122655667D01*
X255021680Y-122595181D01*
X255021679Y-122595178D01*
X255021151Y-122589427D01*
X255012784Y-122559758D01*
X254965320Y-122391465D01*
X254965319Y-122391463D01*
X254963752Y-122385906D01*
X254949897Y-122357809D01*
X254872781Y-122201434D01*
X254870226Y-122196253D01*
X254743704Y-122026820D01*
X254588424Y-121883280D01*
X254583541Y-121880199D01*
X254583537Y-121880196D01*
X254414470Y-121773523D01*
X254414465Y-121773521D01*
X254409586Y-121770442D01*
X254213180Y-121692084D01*
X254207520Y-121690958D01*
X254207516Y-121690957D01*
X254011450Y-121651957D01*
X254011447Y-121651957D01*
X254005783Y-121650830D01*
X254000008Y-121650754D01*
X254000004Y-121650754D01*
X253894064Y-121649367D01*
X253794341Y-121648062D01*
X253788644Y-121649041D01*
X253788643Y-121649041D01*
X253706738Y-121663115D01*
X253585935Y-121683873D01*
X253387544Y-121757063D01*
X253205814Y-121865181D01*
X253046830Y-122004606D01*
X252915916Y-122170670D01*
X252817457Y-122357809D01*
X252754750Y-122559758D01*
X252754071Y-122565496D01*
X252740097Y-122683562D01*
X252712227Y-122748859D01*
X252653478Y-122788723D01*
X252582504Y-122790497D01*
X252521837Y-122753618D01*
X252490740Y-122689794D01*
X252489499Y-122680281D01*
X252487238Y-122655667D01*
X252485237Y-122633900D01*
X252481680Y-122595181D01*
X252481679Y-122595178D01*
X252481151Y-122589427D01*
X252472784Y-122559758D01*
X252425320Y-122391465D01*
X252425319Y-122391463D01*
X252423752Y-122385906D01*
X252409897Y-122357809D01*
X252332781Y-122201434D01*
X252330226Y-122196253D01*
X252203704Y-122026820D01*
X252048424Y-121883280D01*
X252043541Y-121880199D01*
X252043537Y-121880196D01*
X251874470Y-121773523D01*
X251874465Y-121773521D01*
X251869586Y-121770442D01*
X251673180Y-121692084D01*
X251667520Y-121690958D01*
X251667516Y-121690957D01*
X251471450Y-121651957D01*
X251471447Y-121651957D01*
X251465783Y-121650830D01*
X251460008Y-121650754D01*
X251460004Y-121650754D01*
X251354064Y-121649367D01*
X251254341Y-121648062D01*
X251248644Y-121649041D01*
X251248643Y-121649041D01*
X251166738Y-121663115D01*
X251045935Y-121683873D01*
X250847544Y-121757063D01*
X250665814Y-121865181D01*
X250506830Y-122004606D01*
X250375916Y-122170670D01*
X250277457Y-122357809D01*
X250214750Y-122559758D01*
X250214071Y-122565496D01*
X250200097Y-122683562D01*
X250172227Y-122748859D01*
X250113478Y-122788723D01*
X250042504Y-122790497D01*
X249981837Y-122753618D01*
X249950740Y-122689794D01*
X249949499Y-122680281D01*
X249947238Y-122655667D01*
X249945237Y-122633900D01*
X249941680Y-122595181D01*
X249941679Y-122595178D01*
X249941151Y-122589427D01*
X249932784Y-122559758D01*
X249885320Y-122391465D01*
X249885319Y-122391463D01*
X249883752Y-122385906D01*
X249869897Y-122357809D01*
X249792781Y-122201434D01*
X249790226Y-122196253D01*
X249663704Y-122026820D01*
X249508424Y-121883280D01*
X249503541Y-121880199D01*
X249503537Y-121880196D01*
X249334470Y-121773523D01*
X249334465Y-121773521D01*
X249329586Y-121770442D01*
X249133180Y-121692084D01*
X249127520Y-121690958D01*
X249127516Y-121690957D01*
X248931450Y-121651957D01*
X248931447Y-121651957D01*
X248925783Y-121650830D01*
X248920008Y-121650754D01*
X248920004Y-121650754D01*
X248814064Y-121649367D01*
X248714341Y-121648062D01*
X248708644Y-121649041D01*
X248708643Y-121649041D01*
X248626738Y-121663115D01*
X248505935Y-121683873D01*
X248307544Y-121757063D01*
X248125814Y-121865181D01*
X247966830Y-122004606D01*
X247835916Y-122170670D01*
X247737457Y-122357809D01*
X247674750Y-122559758D01*
X247674071Y-122565496D01*
X247660097Y-122683562D01*
X247632227Y-122748859D01*
X247573478Y-122788723D01*
X247502504Y-122790497D01*
X247441837Y-122753618D01*
X247410740Y-122689794D01*
X247409499Y-122680281D01*
X247407238Y-122655667D01*
X247405237Y-122633900D01*
X247401680Y-122595181D01*
X247401679Y-122595178D01*
X247401151Y-122589427D01*
X247392784Y-122559758D01*
X247345320Y-122391465D01*
X247345319Y-122391463D01*
X247343752Y-122385906D01*
X247329897Y-122357809D01*
X247252781Y-122201434D01*
X247250226Y-122196253D01*
X247123704Y-122026820D01*
X246968424Y-121883280D01*
X246963541Y-121880199D01*
X246963537Y-121880196D01*
X246794470Y-121773523D01*
X246794465Y-121773521D01*
X246789586Y-121770442D01*
X246593180Y-121692084D01*
X246587520Y-121690958D01*
X246587516Y-121690957D01*
X246391450Y-121651957D01*
X246391447Y-121651957D01*
X246385783Y-121650830D01*
X246380008Y-121650754D01*
X246380004Y-121650754D01*
X246274064Y-121649367D01*
X246174341Y-121648062D01*
X246168644Y-121649041D01*
X246168643Y-121649041D01*
X246086738Y-121663115D01*
X245965935Y-121683873D01*
X245767544Y-121757063D01*
X245585814Y-121865181D01*
X245426830Y-122004606D01*
X245295916Y-122170670D01*
X245197457Y-122357809D01*
X245134750Y-122559758D01*
X245134071Y-122565496D01*
X245131127Y-122590370D01*
X245103257Y-122655667D01*
X245044508Y-122695531D01*
X244973534Y-122697305D01*
X244912867Y-122660426D01*
X244881770Y-122596603D01*
X244880000Y-122575560D01*
X244880000Y-121951468D01*
X244879933Y-121948543D01*
X244879035Y-121929131D01*
X244876706Y-121914853D01*
X244851220Y-121825279D01*
X244840989Y-121804733D01*
X244787515Y-121733921D01*
X244770547Y-121718454D01*
X244695108Y-121671744D01*
X244673702Y-121663451D01*
X244580727Y-121646071D01*
X244569172Y-121645000D01*
X243997115Y-121645000D01*
X243981876Y-121649475D01*
X243980671Y-121650865D01*
X243979000Y-121658548D01*
X243469659Y-121658548D01*
X243466525Y-121647876D01*
X243465135Y-121646671D01*
X243457452Y-121645000D01*
X242876468Y-121645000D01*
X242873543Y-121645067D01*
X242854131Y-121645965D01*
X242839853Y-121648294D01*
X242750279Y-121673780D01*
X242729733Y-121684011D01*
X242658921Y-121737485D01*
X242643454Y-121754453D01*
X242596744Y-121829892D01*
X242588451Y-121851298D01*
X242571071Y-121944273D01*
X242570000Y-121955828D01*
X238747342Y-121955828D01*
X240975543Y-119727627D01*
X241037855Y-119693601D01*
X241066616Y-119690738D01*
X241116147Y-119691516D01*
X241116150Y-119691516D01*
X241123745Y-119691635D01*
X241182841Y-119678100D01*
X241281577Y-119655487D01*
X241281581Y-119655486D01*
X241288980Y-119653791D01*
X241440418Y-119577626D01*
X241569316Y-119467536D01*
X241668234Y-119329877D01*
X241731461Y-119172597D01*
X241755345Y-119004775D01*
X241755500Y-118990000D01*
X241751208Y-118954533D01*
X241736048Y-118829258D01*
X241736048Y-118829257D01*
X241735135Y-118821715D01*
X241732427Y-118814549D01*
X241677902Y-118670250D01*
X241677901Y-118670248D01*
X241675217Y-118663145D01*
X241670918Y-118656890D01*
X241670916Y-118656886D01*
X241583505Y-118529703D01*
X241583504Y-118529701D01*
X241579203Y-118523444D01*
X241452638Y-118410679D01*
X241302829Y-118331359D01*
X241138423Y-118290063D01*
X241130825Y-118290023D01*
X241130823Y-118290023D01*
X241057792Y-118289641D01*
X240968912Y-118289176D01*
X240961533Y-118290948D01*
X240961529Y-118290948D01*
X240811461Y-118326976D01*
X240811457Y-118326977D01*
X240804082Y-118328748D01*
X240653450Y-118406495D01*
X240647728Y-118411487D01*
X240647726Y-118411488D01*
X240598441Y-118454482D01*
X240525711Y-118517928D01*
X240506177Y-118545722D01*
X240433921Y-118648532D01*
X240428240Y-118656615D01*
X240425479Y-118663697D01*
X240383923Y-118770285D01*
X240366665Y-118814549D01*
X240365674Y-118822078D01*
X240364200Y-118827818D01*
X240331254Y-118885577D01*
X232849619Y-126367211D01*
X232845811Y-126370864D01*
X232801243Y-126411847D01*
X232796717Y-126419146D01*
X232796715Y-126419149D01*
X232779498Y-126446918D01*
X232772784Y-126456688D01*
X232747821Y-126489575D01*
X232742727Y-126502443D01*
X232732659Y-126522461D01*
X232725364Y-126534226D01*
X232722969Y-126542470D01*
X232722968Y-126542472D01*
X232713851Y-126573854D01*
X232710006Y-126585083D01*
X232697976Y-126615469D01*
X232694813Y-126623458D01*
X232693915Y-126632003D01*
X232693914Y-126632006D01*
X232693364Y-126637233D01*
X232689053Y-126659205D01*
X232687034Y-126666156D01*
X232687033Y-126666164D01*
X232685191Y-126672503D01*
X232684500Y-126681913D01*
X232684500Y-126714978D01*
X232683810Y-126728148D01*
X232679762Y-126766664D01*
X232681194Y-126775130D01*
X232681194Y-126775133D01*
X232682736Y-126784249D01*
X232684500Y-126805261D01*
X232684500Y-130469802D01*
X232661587Y-130542253D01*
X232588240Y-130646615D01*
X232526665Y-130804549D01*
X232504539Y-130972612D01*
X228133037Y-130972612D01*
X228171228Y-130860106D01*
X228172469Y-130854935D01*
X228170767Y-130842993D01*
X228157199Y-130839000D01*
X225945955Y-130839000D01*
X225932424Y-130842973D01*
X225931132Y-130851962D01*
X225959828Y-130964952D01*
X225963666Y-130975790D01*
X226047323Y-131157255D01*
X226053074Y-131167216D01*
X226168399Y-131330397D01*
X226175865Y-131339139D01*
X226319001Y-131478577D01*
X226327934Y-131485811D01*
X226494078Y-131596824D01*
X226504188Y-131602314D01*
X226687778Y-131681190D01*
X226698721Y-131684745D01*
X226857205Y-131720607D01*
X226919232Y-131755150D01*
X226952736Y-131817744D01*
X226947082Y-131888515D01*
X226904063Y-131944994D01*
X226837338Y-131969250D01*
X226829397Y-131969500D01*
X226200000Y-131969500D01*
X226198559Y-131969567D01*
X226198542Y-131969567D01*
X226184442Y-131970219D01*
X226171812Y-131970803D01*
X226063827Y-132001528D01*
X225974233Y-132069186D01*
X225915130Y-132164641D01*
X225894500Y-132275000D01*
X173768169Y-132275000D01*
X174420369Y-131622800D01*
X174424177Y-131619147D01*
X174442482Y-131602314D01*
X174468757Y-131578153D01*
X174475284Y-131567626D01*
X174490502Y-131543083D01*
X174497226Y-131533300D01*
X174516985Y-131507268D01*
X174516986Y-131507267D01*
X174522179Y-131500425D01*
X174527276Y-131487551D01*
X174537340Y-131467542D01*
X174544636Y-131455774D01*
X174556150Y-131416143D01*
X174559994Y-131404917D01*
X174572023Y-131374533D01*
X174572024Y-131374530D01*
X174575186Y-131366543D01*
X174576633Y-131352774D01*
X174580946Y-131330792D01*
X174582966Y-131323839D01*
X174584809Y-131317497D01*
X174585500Y-131308087D01*
X174585500Y-131275021D01*
X174586190Y-131261850D01*
X174589340Y-131231879D01*
X174590238Y-131223337D01*
X174587264Y-131205753D01*
X174585500Y-131184741D01*
X174585500Y-130327799D01*
X225929698Y-130327799D01*
X225936429Y-130331000D01*
X226777885Y-130331000D01*
X226793124Y-130326525D01*
X226794329Y-130325135D01*
X226796000Y-130317452D01*
X226796000Y-129482676D01*
X227304000Y-129482676D01*
X227304000Y-130312885D01*
X227308475Y-130328124D01*
X227309865Y-130329329D01*
X227317548Y-130331000D01*
X228155271Y-130331000D01*
X228168802Y-130327027D01*
X228169971Y-130318892D01*
X228129853Y-130176644D01*
X228125731Y-130165905D01*
X228037354Y-129986695D01*
X228031344Y-129976887D01*
X227911785Y-129816778D01*
X227904096Y-129808238D01*
X227757354Y-129672592D01*
X227748238Y-129665598D01*
X227579245Y-129558970D01*
X227568994Y-129553746D01*
X227383402Y-129479703D01*
X227372374Y-129476436D01*
X227321770Y-129466371D01*
X227308894Y-129467523D01*
X227304000Y-129482676D01*
X226796000Y-129482676D01*
X226796000Y-129479749D01*
X226792194Y-129466787D01*
X226777279Y-129464851D01*
X226756756Y-129468378D01*
X226745644Y-129471355D01*
X226558176Y-129540516D01*
X226547798Y-129545466D01*
X226376076Y-129647629D01*
X226366764Y-129654394D01*
X226216534Y-129786143D01*
X226208617Y-129794486D01*
X226084909Y-129951408D01*
X226078647Y-129961051D01*
X225985608Y-130137891D01*
X225981207Y-130148515D01*
X225929916Y-130313700D01*
X225929698Y-130327799D01*
X174585500Y-130327799D01*
X174585500Y-115229753D01*
X215404896Y-115229753D01*
X215418726Y-115440760D01*
X215470778Y-115645714D01*
X215559308Y-115837750D01*
X215681351Y-116010437D01*
X215832820Y-116157992D01*
X215837616Y-116161197D01*
X215837619Y-116161199D01*
X215908530Y-116208580D01*
X216008643Y-116275473D01*
X216013946Y-116277751D01*
X216013949Y-116277753D01*
X216095472Y-116312778D01*
X216202931Y-116358946D01*
X216409177Y-116405615D01*
X216414950Y-116405842D01*
X216420299Y-116406546D01*
X216485227Y-116435268D01*
X216524319Y-116494532D01*
X216525164Y-116565524D01*
X216487495Y-116625703D01*
X216425192Y-116655648D01*
X216266632Y-116682894D01*
X216260935Y-116683873D01*
X216062544Y-116757063D01*
X215880814Y-116865181D01*
X215721830Y-117004606D01*
X215590916Y-117170670D01*
X215492457Y-117357809D01*
X215429750Y-117559758D01*
X215404896Y-117769753D01*
X215418726Y-117980760D01*
X215470778Y-118185714D01*
X215559308Y-118377750D01*
X215681351Y-118550437D01*
X215685485Y-118554464D01*
X215783964Y-118650398D01*
X215832820Y-118697992D01*
X215837616Y-118701197D01*
X215837619Y-118701199D01*
X215908530Y-118748580D01*
X216008643Y-118815473D01*
X216013946Y-118817751D01*
X216013949Y-118817753D01*
X216163290Y-118881915D01*
X216202931Y-118898946D01*
X216409177Y-118945615D01*
X216414946Y-118945842D01*
X216414949Y-118945842D01*
X216495242Y-118948996D01*
X216620474Y-118953916D01*
X216708693Y-118941125D01*
X216824032Y-118924402D01*
X216824037Y-118924401D01*
X216829746Y-118923573D01*
X216835210Y-118921718D01*
X216835215Y-118921717D01*
X217024512Y-118857460D01*
X217024517Y-118857458D01*
X217029984Y-118855602D01*
X217214482Y-118752278D01*
X217377062Y-118617062D01*
X217512278Y-118454482D01*
X217615602Y-118269984D01*
X217617458Y-118264517D01*
X217617460Y-118264512D01*
X217681717Y-118075215D01*
X217681718Y-118075210D01*
X217683573Y-118069746D01*
X217684401Y-118064037D01*
X217684402Y-118064032D01*
X217693804Y-117999184D01*
X217723374Y-117934638D01*
X217783146Y-117896326D01*
X217854142Y-117896410D01*
X217913823Y-117934865D01*
X217943239Y-117999481D01*
X217944500Y-118017264D01*
X217944500Y-118650000D01*
X217944567Y-118651441D01*
X217944567Y-118651458D01*
X217944806Y-118656615D01*
X217945803Y-118678188D01*
X217976528Y-118786173D01*
X218044186Y-118875767D01*
X218139641Y-118934870D01*
X218151113Y-118937014D01*
X218151114Y-118937015D01*
X218244275Y-118954430D01*
X218244277Y-118954430D01*
X218250000Y-118955500D01*
X219950000Y-118955500D01*
X219951441Y-118955433D01*
X219951458Y-118955433D01*
X219965558Y-118954781D01*
X219978188Y-118954197D01*
X220086173Y-118923472D01*
X220175767Y-118855814D01*
X220234870Y-118760359D01*
X220247282Y-118693965D01*
X220254430Y-118655725D01*
X220254430Y-118655723D01*
X220255500Y-118650000D01*
X220255500Y-116950000D01*
X220255236Y-116944275D01*
X220254533Y-116929084D01*
X220254197Y-116921812D01*
X220223472Y-116813827D01*
X220155814Y-116724233D01*
X220060359Y-116665130D01*
X220048887Y-116662986D01*
X220048886Y-116662985D01*
X219955725Y-116645570D01*
X219955723Y-116645570D01*
X219950000Y-116644500D01*
X219317264Y-116644500D01*
X219249143Y-116624498D01*
X219202650Y-116570842D01*
X219192546Y-116500568D01*
X219222040Y-116435988D01*
X219281766Y-116397604D01*
X219299184Y-116393804D01*
X219364032Y-116384402D01*
X219364037Y-116384401D01*
X219369746Y-116383573D01*
X219375210Y-116381718D01*
X219375215Y-116381717D01*
X219564512Y-116317460D01*
X219564517Y-116317458D01*
X219569984Y-116315602D01*
X219754482Y-116212278D01*
X219917062Y-116077062D01*
X220052278Y-115914482D01*
X220155602Y-115729984D01*
X220157458Y-115724517D01*
X220157460Y-115724512D01*
X220221717Y-115535215D01*
X220221718Y-115535210D01*
X220223573Y-115529746D01*
X220224401Y-115524037D01*
X220224402Y-115524032D01*
X220253383Y-115324148D01*
X220253916Y-115320474D01*
X220255500Y-115260000D01*
X220238458Y-115074533D01*
X220236680Y-115055181D01*
X220236679Y-115055178D01*
X220236151Y-115049427D01*
X220232488Y-115036436D01*
X220180320Y-114851465D01*
X220180319Y-114851463D01*
X220178752Y-114845906D01*
X220164897Y-114817809D01*
X220087781Y-114661434D01*
X220085226Y-114656253D01*
X219958704Y-114486820D01*
X219803424Y-114343280D01*
X219798541Y-114340199D01*
X219798537Y-114340196D01*
X219629470Y-114233523D01*
X219629465Y-114233521D01*
X219624586Y-114230442D01*
X219428180Y-114152084D01*
X219332965Y-114133144D01*
X219224188Y-114111507D01*
X219161279Y-114078599D01*
X219126147Y-114016904D01*
X219129947Y-113946009D01*
X219171473Y-113888423D01*
X219230690Y-113863232D01*
X219363915Y-113843916D01*
X219375098Y-113841231D01*
X219564313Y-113777001D01*
X219574816Y-113772325D01*
X219749162Y-113674687D01*
X219758637Y-113668175D01*
X219912276Y-113540394D01*
X219920394Y-113532276D01*
X220048175Y-113378637D01*
X220054687Y-113369162D01*
X220152325Y-113194816D01*
X220157001Y-113184313D01*
X220195805Y-113070000D01*
X224154500Y-113070000D01*
X224154500Y-114770000D01*
X224154567Y-114771441D01*
X224154567Y-114771458D01*
X224155219Y-114785558D01*
X224155803Y-114798188D01*
X224186528Y-114906173D01*
X224254186Y-114995767D01*
X224349641Y-115054870D01*
X224361113Y-115057014D01*
X224361114Y-115057015D01*
X224454275Y-115074430D01*
X224454277Y-115074430D01*
X224460000Y-115075500D01*
X226160000Y-115075500D01*
X226161441Y-115075433D01*
X226161458Y-115075433D01*
X226175558Y-115074781D01*
X226188188Y-115074197D01*
X226296173Y-115043472D01*
X226385767Y-114975814D01*
X226444870Y-114880359D01*
X226450272Y-114851465D01*
X226464430Y-114775725D01*
X226464430Y-114775723D01*
X226465500Y-114770000D01*
X226465500Y-113070000D01*
X252094500Y-113070000D01*
X252094500Y-114770000D01*
X252094567Y-114771441D01*
X252094567Y-114771458D01*
X252095219Y-114785558D01*
X252095803Y-114798188D01*
X252126528Y-114906173D01*
X252194186Y-114995767D01*
X252289641Y-115054870D01*
X252301113Y-115057014D01*
X252301114Y-115057015D01*
X252394275Y-115074430D01*
X252394277Y-115074430D01*
X252400000Y-115075500D01*
X254100000Y-115075500D01*
X254101441Y-115075433D01*
X254101458Y-115075433D01*
X254115558Y-115074781D01*
X254128188Y-115074197D01*
X254236173Y-115043472D01*
X254325767Y-114975814D01*
X254384870Y-114880359D01*
X254390272Y-114851465D01*
X254404430Y-114775725D01*
X254404430Y-114775723D01*
X254405500Y-114770000D01*
X254405500Y-113070000D01*
X254405236Y-113064275D01*
X254404533Y-113049084D01*
X254404197Y-113041812D01*
X254373472Y-112933827D01*
X254305814Y-112844233D01*
X254210359Y-112785130D01*
X254198887Y-112782986D01*
X254198886Y-112782985D01*
X254105725Y-112765570D01*
X254105723Y-112765570D01*
X254100000Y-112764500D01*
X253467264Y-112764500D01*
X253399143Y-112744498D01*
X253352650Y-112690842D01*
X253342546Y-112620568D01*
X253372040Y-112555988D01*
X253431766Y-112517604D01*
X253449184Y-112513804D01*
X253514032Y-112504402D01*
X253514037Y-112504401D01*
X253519746Y-112503573D01*
X253525210Y-112501718D01*
X253525215Y-112501717D01*
X253714512Y-112437460D01*
X253714517Y-112437458D01*
X253719984Y-112435602D01*
X253904482Y-112332278D01*
X254067062Y-112197062D01*
X254202278Y-112034482D01*
X254305602Y-111849984D01*
X254307458Y-111844517D01*
X254307460Y-111844512D01*
X254371717Y-111655215D01*
X254371718Y-111655210D01*
X254373573Y-111649746D01*
X254374401Y-111644037D01*
X254374402Y-111644032D01*
X254398613Y-111477045D01*
X254403916Y-111440474D01*
X254405500Y-111380000D01*
X254391931Y-111232325D01*
X254386680Y-111175181D01*
X254386679Y-111175178D01*
X254386151Y-111169427D01*
X254381995Y-111154688D01*
X254330320Y-110971465D01*
X254330319Y-110971463D01*
X254328752Y-110965906D01*
X254316521Y-110941102D01*
X254237781Y-110781434D01*
X254235226Y-110776253D01*
X254226884Y-110765081D01*
X254112161Y-110611450D01*
X254108704Y-110606820D01*
X253953424Y-110463280D01*
X253948541Y-110460199D01*
X253948537Y-110460196D01*
X253779470Y-110353523D01*
X253779465Y-110353521D01*
X253774586Y-110350442D01*
X253578180Y-110272084D01*
X253436592Y-110243920D01*
X253375650Y-110231798D01*
X253312741Y-110198890D01*
X253277609Y-110137195D01*
X253281409Y-110066300D01*
X253322935Y-110008714D01*
X253382151Y-109983523D01*
X253417042Y-109978464D01*
X253514032Y-109964402D01*
X253514037Y-109964401D01*
X253519746Y-109963573D01*
X253525210Y-109961718D01*
X253525215Y-109961717D01*
X253714512Y-109897460D01*
X253714517Y-109897458D01*
X253719984Y-109895602D01*
X253904482Y-109792278D01*
X254067062Y-109657062D01*
X254202278Y-109494482D01*
X254305602Y-109309984D01*
X254307458Y-109304517D01*
X254307460Y-109304512D01*
X254371717Y-109115215D01*
X254371718Y-109115210D01*
X254373573Y-109109746D01*
X254374401Y-109104037D01*
X254374402Y-109104032D01*
X254403383Y-108904148D01*
X254403916Y-108900474D01*
X254405500Y-108840000D01*
X254386151Y-108629427D01*
X254377784Y-108599758D01*
X254330320Y-108431465D01*
X254330319Y-108431463D01*
X254328752Y-108425906D01*
X254314897Y-108397809D01*
X254237781Y-108241434D01*
X254235226Y-108236253D01*
X254108704Y-108066820D01*
X253953424Y-107923280D01*
X253948541Y-107920199D01*
X253948537Y-107920196D01*
X253779470Y-107813523D01*
X253779465Y-107813521D01*
X253774586Y-107810442D01*
X253629807Y-107752681D01*
X253583544Y-107734224D01*
X253578180Y-107732084D01*
X253395005Y-107695648D01*
X253375650Y-107691798D01*
X253312741Y-107658890D01*
X253277609Y-107597195D01*
X253281409Y-107526300D01*
X253322935Y-107468714D01*
X253382151Y-107443523D01*
X253417042Y-107438464D01*
X253514032Y-107424402D01*
X253514037Y-107424401D01*
X253519746Y-107423573D01*
X253525210Y-107421718D01*
X253525215Y-107421717D01*
X253714512Y-107357460D01*
X253714517Y-107357458D01*
X253719984Y-107355602D01*
X253755381Y-107335779D01*
X253874358Y-107269148D01*
X253904482Y-107252278D01*
X254067062Y-107117062D01*
X254202278Y-106954482D01*
X254305602Y-106769984D01*
X254307458Y-106764517D01*
X254307460Y-106764512D01*
X254371717Y-106575215D01*
X254371718Y-106575210D01*
X254373573Y-106569746D01*
X254374401Y-106564037D01*
X254374402Y-106564032D01*
X254403383Y-106364148D01*
X254403916Y-106360474D01*
X254405500Y-106300000D01*
X254386151Y-106089427D01*
X254377784Y-106059758D01*
X254330320Y-105891465D01*
X254330319Y-105891463D01*
X254328752Y-105885906D01*
X254314897Y-105857809D01*
X254237781Y-105701434D01*
X254235226Y-105696253D01*
X254108704Y-105526820D01*
X253953424Y-105383280D01*
X253948541Y-105380199D01*
X253948537Y-105380196D01*
X253779470Y-105273523D01*
X253779465Y-105273521D01*
X253774586Y-105270442D01*
X253578180Y-105192084D01*
X253426169Y-105161847D01*
X253375650Y-105151798D01*
X253312741Y-105118890D01*
X253277609Y-105057195D01*
X253281409Y-104986300D01*
X253322935Y-104928714D01*
X253382151Y-104903523D01*
X253417042Y-104898464D01*
X253514032Y-104884402D01*
X253514037Y-104884401D01*
X253519746Y-104883573D01*
X253525210Y-104881718D01*
X253525215Y-104881717D01*
X253714512Y-104817460D01*
X253714517Y-104817458D01*
X253719984Y-104815602D01*
X253904482Y-104712278D01*
X254067062Y-104577062D01*
X254202278Y-104414482D01*
X254305602Y-104229984D01*
X254307458Y-104224517D01*
X254307460Y-104224512D01*
X254371717Y-104035215D01*
X254371718Y-104035210D01*
X254373573Y-104029746D01*
X254374401Y-104024037D01*
X254374402Y-104024032D01*
X254403383Y-103824148D01*
X254403916Y-103820474D01*
X254405500Y-103760000D01*
X254386151Y-103549427D01*
X254377784Y-103519758D01*
X254330320Y-103351465D01*
X254330319Y-103351463D01*
X254328752Y-103345906D01*
X254314897Y-103317809D01*
X254237781Y-103161434D01*
X254235226Y-103156253D01*
X254108704Y-102986820D01*
X253953424Y-102843280D01*
X253948541Y-102840199D01*
X253948537Y-102840196D01*
X253779470Y-102733523D01*
X253779465Y-102733521D01*
X253774586Y-102730442D01*
X253578180Y-102652084D01*
X253395005Y-102615648D01*
X253375650Y-102611798D01*
X253312741Y-102578890D01*
X253277609Y-102517195D01*
X253281409Y-102446300D01*
X253322935Y-102388714D01*
X253382151Y-102363523D01*
X253417638Y-102358378D01*
X253514032Y-102344402D01*
X253514037Y-102344401D01*
X253519746Y-102343573D01*
X253525210Y-102341718D01*
X253525215Y-102341717D01*
X253714512Y-102277460D01*
X253714517Y-102277458D01*
X253719984Y-102275602D01*
X253904482Y-102172278D01*
X254067062Y-102037062D01*
X254202278Y-101874482D01*
X254305602Y-101689984D01*
X254307458Y-101684517D01*
X254307460Y-101684512D01*
X254371717Y-101495215D01*
X254371718Y-101495210D01*
X254373573Y-101489746D01*
X254374401Y-101484037D01*
X254374402Y-101484032D01*
X254403383Y-101284148D01*
X254403916Y-101280474D01*
X254405500Y-101220000D01*
X254386151Y-101009427D01*
X254377784Y-100979758D01*
X254330320Y-100811465D01*
X254330319Y-100811463D01*
X254328752Y-100805906D01*
X254314897Y-100777809D01*
X254237781Y-100621434D01*
X254235226Y-100616253D01*
X254108704Y-100446820D01*
X253953424Y-100303280D01*
X253948541Y-100300199D01*
X253948537Y-100300196D01*
X253779470Y-100193523D01*
X253779465Y-100193521D01*
X253774586Y-100190442D01*
X253578180Y-100112084D01*
X253395005Y-100075648D01*
X253375650Y-100071798D01*
X253312741Y-100038890D01*
X253277609Y-99977195D01*
X253281409Y-99906300D01*
X253322935Y-99848714D01*
X253382151Y-99823523D01*
X253417042Y-99818464D01*
X253514032Y-99804402D01*
X253514037Y-99804401D01*
X253519746Y-99803573D01*
X253525210Y-99801718D01*
X253525215Y-99801717D01*
X253714512Y-99737460D01*
X253714517Y-99737458D01*
X253719984Y-99735602D01*
X253904482Y-99632278D01*
X254067062Y-99497062D01*
X254202278Y-99334482D01*
X254305602Y-99149984D01*
X254307458Y-99144517D01*
X254307460Y-99144512D01*
X254371717Y-98955215D01*
X254371718Y-98955210D01*
X254373573Y-98949746D01*
X254374401Y-98944037D01*
X254374402Y-98944032D01*
X254403383Y-98744148D01*
X254403916Y-98740474D01*
X254405500Y-98680000D01*
X254386151Y-98469427D01*
X254377784Y-98439758D01*
X254330320Y-98271465D01*
X254330319Y-98271463D01*
X254328752Y-98265906D01*
X254314897Y-98237809D01*
X254237781Y-98081434D01*
X254235226Y-98076253D01*
X254108704Y-97906820D01*
X253953424Y-97763280D01*
X253948541Y-97760199D01*
X253948537Y-97760196D01*
X253779470Y-97653523D01*
X253779465Y-97653521D01*
X253774586Y-97650442D01*
X253578180Y-97572084D01*
X253436592Y-97543920D01*
X253375650Y-97531798D01*
X253312741Y-97498890D01*
X253277609Y-97437195D01*
X253281409Y-97366300D01*
X253322935Y-97308714D01*
X253382151Y-97283523D01*
X253417042Y-97278464D01*
X253514032Y-97264402D01*
X253514037Y-97264401D01*
X253519746Y-97263573D01*
X253525210Y-97261718D01*
X253525215Y-97261717D01*
X253714512Y-97197460D01*
X253714517Y-97197458D01*
X253719984Y-97195602D01*
X253726922Y-97191717D01*
X253797371Y-97152263D01*
X253904482Y-97092278D01*
X254067062Y-96957062D01*
X254202278Y-96794482D01*
X254305602Y-96609984D01*
X254307458Y-96604517D01*
X254307460Y-96604512D01*
X254371717Y-96415215D01*
X254371718Y-96415210D01*
X254373573Y-96409746D01*
X254374401Y-96404037D01*
X254374402Y-96404032D01*
X254396625Y-96250760D01*
X254403916Y-96200474D01*
X254405500Y-96140000D01*
X254386151Y-95929427D01*
X254380785Y-95910398D01*
X254330320Y-95731465D01*
X254330319Y-95731463D01*
X254328752Y-95725906D01*
X254325723Y-95719762D01*
X254237781Y-95541434D01*
X254235226Y-95536253D01*
X254108704Y-95366820D01*
X253953424Y-95223280D01*
X253948541Y-95220199D01*
X253948537Y-95220196D01*
X253779470Y-95113523D01*
X253779465Y-95113521D01*
X253774586Y-95110442D01*
X253578180Y-95032084D01*
X253395005Y-94995648D01*
X253375650Y-94991798D01*
X253312741Y-94958890D01*
X253277609Y-94897195D01*
X253281409Y-94826300D01*
X253322935Y-94768714D01*
X253382151Y-94743523D01*
X253417042Y-94738464D01*
X253514032Y-94724402D01*
X253514037Y-94724401D01*
X253519746Y-94723573D01*
X253525210Y-94721718D01*
X253525215Y-94721717D01*
X253714512Y-94657460D01*
X253714517Y-94657458D01*
X253719984Y-94655602D01*
X253726922Y-94651717D01*
X253841660Y-94587460D01*
X253904482Y-94552278D01*
X254067062Y-94417062D01*
X254202278Y-94254482D01*
X254305602Y-94069984D01*
X254307458Y-94064517D01*
X254307460Y-94064512D01*
X254371717Y-93875215D01*
X254371718Y-93875210D01*
X254373573Y-93869746D01*
X254374401Y-93864037D01*
X254374402Y-93864032D01*
X254400694Y-93682695D01*
X254403916Y-93660474D01*
X254405500Y-93600000D01*
X254388987Y-93420290D01*
X254386680Y-93395181D01*
X254386679Y-93395178D01*
X254386151Y-93389427D01*
X254377784Y-93359758D01*
X254330320Y-93191465D01*
X254330319Y-93191463D01*
X254328752Y-93185906D01*
X254314897Y-93157809D01*
X254237781Y-93001434D01*
X254235226Y-92996253D01*
X254108704Y-92826820D01*
X253953424Y-92683280D01*
X253948541Y-92680199D01*
X253948537Y-92680196D01*
X253779470Y-92573523D01*
X253779465Y-92573521D01*
X253774586Y-92570442D01*
X253578180Y-92492084D01*
X253436592Y-92463920D01*
X253375650Y-92451798D01*
X253312741Y-92418890D01*
X253277609Y-92357195D01*
X253281409Y-92286300D01*
X253322935Y-92228714D01*
X253382151Y-92203523D01*
X253417042Y-92198464D01*
X253514032Y-92184402D01*
X253514037Y-92184401D01*
X253519746Y-92183573D01*
X253525210Y-92181718D01*
X253525215Y-92181717D01*
X253714512Y-92117460D01*
X253714517Y-92117458D01*
X253719984Y-92115602D01*
X253726922Y-92111717D01*
X253797371Y-92072263D01*
X253904482Y-92012278D01*
X254067062Y-91877062D01*
X254202278Y-91714482D01*
X254305602Y-91529984D01*
X254307458Y-91524517D01*
X254307460Y-91524512D01*
X254371717Y-91335215D01*
X254371718Y-91335210D01*
X254373573Y-91329746D01*
X254374401Y-91324037D01*
X254374402Y-91324032D01*
X254403383Y-91124148D01*
X254403916Y-91120474D01*
X254405500Y-91060000D01*
X254386151Y-90849427D01*
X254377784Y-90819758D01*
X254330320Y-90651465D01*
X254330319Y-90651463D01*
X254328752Y-90645906D01*
X254314897Y-90617809D01*
X254237781Y-90461434D01*
X254235226Y-90456253D01*
X254108704Y-90286820D01*
X253953424Y-90143280D01*
X253948541Y-90140199D01*
X253948537Y-90140196D01*
X253779470Y-90033523D01*
X253779465Y-90033521D01*
X253774586Y-90030442D01*
X253578180Y-89952084D01*
X253395005Y-89915648D01*
X253375650Y-89911798D01*
X253312741Y-89878890D01*
X253277609Y-89817195D01*
X253281409Y-89746300D01*
X253322935Y-89688714D01*
X253382151Y-89663523D01*
X253417042Y-89658464D01*
X253514032Y-89644402D01*
X253514037Y-89644401D01*
X253519746Y-89643573D01*
X253525210Y-89641718D01*
X253525215Y-89641717D01*
X253714512Y-89577460D01*
X253714517Y-89577458D01*
X253719984Y-89575602D01*
X253904482Y-89472278D01*
X254067062Y-89337062D01*
X254202278Y-89174482D01*
X254305602Y-88989984D01*
X254307458Y-88984517D01*
X254307460Y-88984512D01*
X254371717Y-88795215D01*
X254371718Y-88795210D01*
X254373573Y-88789746D01*
X254374401Y-88784037D01*
X254374402Y-88784032D01*
X254403383Y-88584148D01*
X254403916Y-88580474D01*
X254405500Y-88520000D01*
X254386151Y-88309427D01*
X254377784Y-88279758D01*
X254330320Y-88111465D01*
X254330319Y-88111463D01*
X254328752Y-88105906D01*
X254314897Y-88077809D01*
X254237781Y-87921434D01*
X254235226Y-87916253D01*
X254108704Y-87746820D01*
X253953424Y-87603280D01*
X253948541Y-87600199D01*
X253948537Y-87600196D01*
X253779470Y-87493523D01*
X253779465Y-87493521D01*
X253774586Y-87490442D01*
X253578180Y-87412084D01*
X253387891Y-87374233D01*
X253375650Y-87371798D01*
X253312741Y-87338890D01*
X253277609Y-87277195D01*
X253281409Y-87206300D01*
X253322935Y-87148714D01*
X253382151Y-87123523D01*
X253417042Y-87118464D01*
X253514032Y-87104402D01*
X253514037Y-87104401D01*
X253519746Y-87103573D01*
X253525210Y-87101718D01*
X253525215Y-87101717D01*
X253714512Y-87037460D01*
X253714517Y-87037458D01*
X253719984Y-87035602D01*
X253904482Y-86932278D01*
X253916077Y-86922635D01*
X254062624Y-86800753D01*
X254067062Y-86797062D01*
X254202278Y-86634482D01*
X254271185Y-86511439D01*
X254302778Y-86455027D01*
X254302779Y-86455025D01*
X254305602Y-86449984D01*
X254307458Y-86444517D01*
X254307460Y-86444512D01*
X254371717Y-86255215D01*
X254371718Y-86255210D01*
X254373573Y-86249746D01*
X254374401Y-86244037D01*
X254374402Y-86244032D01*
X254398988Y-86074464D01*
X254403916Y-86040474D01*
X254405500Y-85980000D01*
X254393524Y-85849665D01*
X254386680Y-85775181D01*
X254386679Y-85775178D01*
X254386151Y-85769427D01*
X254377784Y-85739758D01*
X254330320Y-85571465D01*
X254330319Y-85571463D01*
X254328752Y-85565906D01*
X254314897Y-85537809D01*
X254237781Y-85381434D01*
X254235226Y-85376253D01*
X254108704Y-85206820D01*
X254003345Y-85109427D01*
X253957669Y-85067204D01*
X253953424Y-85063280D01*
X253948541Y-85060199D01*
X253948537Y-85060196D01*
X253779470Y-84953523D01*
X253779465Y-84953521D01*
X253774586Y-84950442D01*
X253578180Y-84872084D01*
X253395005Y-84835648D01*
X253375650Y-84831798D01*
X253312741Y-84798890D01*
X253277609Y-84737195D01*
X253281409Y-84666300D01*
X253322935Y-84608714D01*
X253382151Y-84583523D01*
X253417042Y-84578464D01*
X253514032Y-84564402D01*
X253514037Y-84564401D01*
X253519746Y-84563573D01*
X253525210Y-84561718D01*
X253525215Y-84561717D01*
X253714512Y-84497460D01*
X253714517Y-84497458D01*
X253719984Y-84495602D01*
X253904482Y-84392278D01*
X254067062Y-84257062D01*
X254202278Y-84094482D01*
X254283912Y-83948714D01*
X254302778Y-83915027D01*
X254302779Y-83915025D01*
X254305602Y-83909984D01*
X254307458Y-83904517D01*
X254307460Y-83904512D01*
X254371717Y-83715215D01*
X254371718Y-83715210D01*
X254373573Y-83709746D01*
X254374401Y-83704037D01*
X254374402Y-83704032D01*
X254398988Y-83534464D01*
X254403916Y-83500474D01*
X254405500Y-83440000D01*
X254388989Y-83260314D01*
X254386680Y-83235181D01*
X254386679Y-83235178D01*
X254386151Y-83229427D01*
X254384562Y-83223791D01*
X254330320Y-83031465D01*
X254330319Y-83031463D01*
X254328752Y-83025906D01*
X254324625Y-83017536D01*
X254237781Y-82841434D01*
X254235226Y-82836253D01*
X254108704Y-82666820D01*
X254003345Y-82569427D01*
X253957669Y-82527204D01*
X253953424Y-82523280D01*
X253948541Y-82520199D01*
X253948537Y-82520196D01*
X253779470Y-82413523D01*
X253779465Y-82413521D01*
X253774586Y-82410442D01*
X253578180Y-82332084D01*
X253469158Y-82310398D01*
X253374188Y-82291507D01*
X253311279Y-82258599D01*
X253276147Y-82196904D01*
X253279947Y-82126009D01*
X253321473Y-82068423D01*
X253380690Y-82043232D01*
X253513915Y-82023916D01*
X253525098Y-82021231D01*
X253714313Y-81957001D01*
X253724816Y-81952325D01*
X253899162Y-81854687D01*
X253908637Y-81848175D01*
X254062276Y-81720394D01*
X254070394Y-81712276D01*
X254198175Y-81558637D01*
X254204687Y-81549162D01*
X254302325Y-81374816D01*
X254307001Y-81364313D01*
X254371228Y-81175106D01*
X254372469Y-81169935D01*
X254370767Y-81157993D01*
X254357199Y-81154000D01*
X252145955Y-81154000D01*
X252132424Y-81157973D01*
X252131132Y-81166962D01*
X252159828Y-81279952D01*
X252163666Y-81290790D01*
X252247323Y-81472255D01*
X252253074Y-81482216D01*
X252368399Y-81645397D01*
X252375865Y-81654139D01*
X252519001Y-81793577D01*
X252527934Y-81800811D01*
X252694078Y-81911824D01*
X252704188Y-81917314D01*
X252887778Y-81996190D01*
X252898721Y-81999745D01*
X253093606Y-82043844D01*
X253110743Y-82046100D01*
X253110444Y-82048369D01*
X253168282Y-82067851D01*
X253212631Y-82123292D01*
X253219967Y-82193908D01*
X253187959Y-82257281D01*
X253126771Y-82293288D01*
X253117390Y-82295270D01*
X253054175Y-82306133D01*
X252991597Y-82316886D01*
X252950935Y-82323873D01*
X252752544Y-82397063D01*
X252747583Y-82400015D01*
X252747582Y-82400015D01*
X252609647Y-82482078D01*
X252570814Y-82505181D01*
X252411830Y-82644606D01*
X252280916Y-82810670D01*
X252278227Y-82815781D01*
X252278225Y-82815784D01*
X252265235Y-82840474D01*
X252182457Y-82997809D01*
X252119750Y-83199758D01*
X252094896Y-83409753D01*
X252108726Y-83620760D01*
X252160778Y-83825714D01*
X252249308Y-84017750D01*
X252371351Y-84190437D01*
X252522820Y-84337992D01*
X252527616Y-84341197D01*
X252527619Y-84341199D01*
X252626403Y-84407204D01*
X252698643Y-84455473D01*
X252703946Y-84457751D01*
X252703949Y-84457753D01*
X252887624Y-84536666D01*
X252892931Y-84538946D01*
X253099177Y-84585615D01*
X253104950Y-84585842D01*
X253110299Y-84586546D01*
X253175227Y-84615268D01*
X253214319Y-84674532D01*
X253215164Y-84745524D01*
X253177495Y-84805703D01*
X253115192Y-84835648D01*
X252956632Y-84862894D01*
X252950935Y-84863873D01*
X252752544Y-84937063D01*
X252570814Y-85045181D01*
X252411830Y-85184606D01*
X252280916Y-85350670D01*
X252278227Y-85355781D01*
X252278225Y-85355784D01*
X252265235Y-85380474D01*
X252182457Y-85537809D01*
X252119750Y-85739758D01*
X252094896Y-85949753D01*
X252108726Y-86160760D01*
X252160778Y-86365714D01*
X252249308Y-86557750D01*
X252371351Y-86730437D01*
X252408162Y-86766297D01*
X252512043Y-86867493D01*
X252522820Y-86877992D01*
X252527616Y-86881197D01*
X252527619Y-86881199D01*
X252620119Y-86943005D01*
X252698643Y-86995473D01*
X252703946Y-86997751D01*
X252703949Y-86997753D01*
X252785472Y-87032778D01*
X252892931Y-87078946D01*
X253099177Y-87125615D01*
X253104950Y-87125842D01*
X253110299Y-87126546D01*
X253175227Y-87155268D01*
X253214319Y-87214532D01*
X253215164Y-87285524D01*
X253177495Y-87345703D01*
X253115192Y-87375648D01*
X252956632Y-87402894D01*
X252950935Y-87403873D01*
X252752544Y-87477063D01*
X252747583Y-87480015D01*
X252747582Y-87480015D01*
X252666527Y-87528238D01*
X252570814Y-87585181D01*
X252411830Y-87724606D01*
X252280916Y-87890670D01*
X252182457Y-88077809D01*
X252119750Y-88279758D01*
X252094896Y-88489753D01*
X252108726Y-88700760D01*
X252160778Y-88905714D01*
X252249308Y-89097750D01*
X252371351Y-89270437D01*
X252375485Y-89274464D01*
X252514985Y-89410359D01*
X252522820Y-89417992D01*
X252527616Y-89421197D01*
X252527619Y-89421199D01*
X252598530Y-89468580D01*
X252698643Y-89535473D01*
X252703946Y-89537751D01*
X252703949Y-89537753D01*
X252862801Y-89606001D01*
X252892931Y-89618946D01*
X253099177Y-89665615D01*
X253104950Y-89665842D01*
X253110299Y-89666546D01*
X253175227Y-89695268D01*
X253214319Y-89754532D01*
X253215164Y-89825524D01*
X253177495Y-89885703D01*
X253115192Y-89915648D01*
X252956632Y-89942894D01*
X252950935Y-89943873D01*
X252752544Y-90017063D01*
X252747583Y-90020015D01*
X252747582Y-90020015D01*
X252693439Y-90052227D01*
X252570814Y-90125181D01*
X252411830Y-90264606D01*
X252280916Y-90430670D01*
X252182457Y-90617809D01*
X252119750Y-90819758D01*
X252094896Y-91029753D01*
X252108726Y-91240760D01*
X252160778Y-91445714D01*
X252249308Y-91637750D01*
X252371351Y-91810437D01*
X252522820Y-91957992D01*
X252527616Y-91961197D01*
X252527619Y-91961199D01*
X252666988Y-92054322D01*
X252698643Y-92075473D01*
X252703946Y-92077751D01*
X252703949Y-92077753D01*
X252850043Y-92140520D01*
X252892931Y-92158946D01*
X253099177Y-92205615D01*
X253104950Y-92205842D01*
X253110299Y-92206546D01*
X253175227Y-92235268D01*
X253214319Y-92294532D01*
X253215164Y-92365524D01*
X253177495Y-92425703D01*
X253115192Y-92455648D01*
X252956632Y-92482894D01*
X252950935Y-92483873D01*
X252752544Y-92557063D01*
X252747583Y-92560015D01*
X252747582Y-92560015D01*
X252613639Y-92639703D01*
X252570814Y-92665181D01*
X252411830Y-92804606D01*
X252280916Y-92970670D01*
X252278227Y-92975781D01*
X252278225Y-92975784D01*
X252226022Y-93075005D01*
X252182457Y-93157809D01*
X252119750Y-93359758D01*
X252094896Y-93569753D01*
X252108726Y-93780760D01*
X252160778Y-93985714D01*
X252249308Y-94177750D01*
X252371351Y-94350437D01*
X252522820Y-94497992D01*
X252527616Y-94501197D01*
X252527619Y-94501199D01*
X252668551Y-94595366D01*
X252698643Y-94615473D01*
X252703946Y-94617751D01*
X252703949Y-94617753D01*
X252857948Y-94683916D01*
X252892931Y-94698946D01*
X253099177Y-94745615D01*
X253104950Y-94745842D01*
X253110299Y-94746546D01*
X253175227Y-94775268D01*
X253214319Y-94834532D01*
X253215164Y-94905524D01*
X253177495Y-94965703D01*
X253115192Y-94995648D01*
X252956632Y-95022894D01*
X252950935Y-95023873D01*
X252752544Y-95097063D01*
X252747583Y-95100015D01*
X252747582Y-95100015D01*
X252600473Y-95187536D01*
X252570814Y-95205181D01*
X252411830Y-95344606D01*
X252280916Y-95510670D01*
X252278227Y-95515781D01*
X252278225Y-95515784D01*
X252239837Y-95588748D01*
X252182457Y-95697809D01*
X252119750Y-95899758D01*
X252094896Y-96109753D01*
X252108726Y-96320760D01*
X252160778Y-96525714D01*
X252249308Y-96717750D01*
X252371351Y-96890437D01*
X252522820Y-97037992D01*
X252527616Y-97041197D01*
X252527619Y-97041199D01*
X252665022Y-97133008D01*
X252698643Y-97155473D01*
X252703946Y-97157751D01*
X252703949Y-97157753D01*
X252857948Y-97223916D01*
X252892931Y-97238946D01*
X253099177Y-97285615D01*
X253104950Y-97285842D01*
X253110299Y-97286546D01*
X253175227Y-97315268D01*
X253214319Y-97374532D01*
X253215164Y-97445524D01*
X253177495Y-97505703D01*
X253115192Y-97535648D01*
X252956632Y-97562894D01*
X252950935Y-97563873D01*
X252752544Y-97637063D01*
X252747583Y-97640015D01*
X252747582Y-97640015D01*
X252625558Y-97712612D01*
X252570814Y-97745181D01*
X252411830Y-97884606D01*
X252280916Y-98050670D01*
X252182457Y-98237809D01*
X252119750Y-98439758D01*
X252094896Y-98649753D01*
X252108726Y-98860760D01*
X252160778Y-99065714D01*
X252249308Y-99257750D01*
X252371351Y-99430437D01*
X252522820Y-99577992D01*
X252527616Y-99581197D01*
X252527619Y-99581199D01*
X252598530Y-99628580D01*
X252698643Y-99695473D01*
X252703946Y-99697751D01*
X252703949Y-99697753D01*
X252785472Y-99732778D01*
X252892931Y-99778946D01*
X253099177Y-99825615D01*
X253104950Y-99825842D01*
X253110299Y-99826546D01*
X253175227Y-99855268D01*
X253214319Y-99914532D01*
X253215164Y-99985524D01*
X253177495Y-100045703D01*
X253115192Y-100075648D01*
X252956632Y-100102894D01*
X252950935Y-100103873D01*
X252752544Y-100177063D01*
X252570814Y-100285181D01*
X252411830Y-100424606D01*
X252280916Y-100590670D01*
X252182457Y-100777809D01*
X252119750Y-100979758D01*
X252094896Y-101189753D01*
X252108726Y-101400760D01*
X252160778Y-101605714D01*
X252249308Y-101797750D01*
X252371351Y-101970437D01*
X252522820Y-102117992D01*
X252527616Y-102121197D01*
X252527619Y-102121199D01*
X252595995Y-102166886D01*
X252698643Y-102235473D01*
X252703946Y-102237751D01*
X252703949Y-102237753D01*
X252785472Y-102272778D01*
X252892931Y-102318946D01*
X253099177Y-102365615D01*
X253104950Y-102365842D01*
X253110299Y-102366546D01*
X253175227Y-102395268D01*
X253214319Y-102454532D01*
X253215164Y-102525524D01*
X253177495Y-102585703D01*
X253115192Y-102615648D01*
X252958570Y-102642561D01*
X252950935Y-102643873D01*
X252752544Y-102717063D01*
X252747583Y-102720015D01*
X252747582Y-102720015D01*
X252619391Y-102796281D01*
X252570814Y-102825181D01*
X252411830Y-102964606D01*
X252280916Y-103130670D01*
X252182457Y-103317809D01*
X252119750Y-103519758D01*
X252094896Y-103729753D01*
X252108726Y-103940760D01*
X252160778Y-104145714D01*
X252249308Y-104337750D01*
X252371351Y-104510437D01*
X252522820Y-104657992D01*
X252527616Y-104661197D01*
X252527619Y-104661199D01*
X252598530Y-104708580D01*
X252698643Y-104775473D01*
X252703946Y-104777751D01*
X252703949Y-104777753D01*
X252785472Y-104812778D01*
X252892931Y-104858946D01*
X253099177Y-104905615D01*
X253104950Y-104905842D01*
X253110299Y-104906546D01*
X253175227Y-104935268D01*
X253214319Y-104994532D01*
X253215164Y-105065524D01*
X253177495Y-105125703D01*
X253115192Y-105155648D01*
X252956632Y-105182894D01*
X252950935Y-105183873D01*
X252752544Y-105257063D01*
X252747583Y-105260015D01*
X252747582Y-105260015D01*
X252726656Y-105272465D01*
X252570814Y-105365181D01*
X252411830Y-105504606D01*
X252280916Y-105670670D01*
X252278227Y-105675781D01*
X252278225Y-105675784D01*
X252228730Y-105769859D01*
X252182457Y-105857809D01*
X252119750Y-106059758D01*
X252094896Y-106269753D01*
X252108726Y-106480760D01*
X252160778Y-106685714D01*
X252249308Y-106877750D01*
X252371351Y-107050437D01*
X252522820Y-107197992D01*
X252527616Y-107201197D01*
X252527619Y-107201199D01*
X252668551Y-107295366D01*
X252698643Y-107315473D01*
X252703946Y-107317751D01*
X252703949Y-107317753D01*
X252885760Y-107395865D01*
X252892931Y-107398946D01*
X253099177Y-107445615D01*
X253104950Y-107445842D01*
X253110299Y-107446546D01*
X253175227Y-107475268D01*
X253214319Y-107534532D01*
X253215164Y-107605524D01*
X253177495Y-107665703D01*
X253115192Y-107695648D01*
X252956632Y-107722894D01*
X252950935Y-107723873D01*
X252752544Y-107797063D01*
X252570814Y-107905181D01*
X252411830Y-108044606D01*
X252280916Y-108210670D01*
X252182457Y-108397809D01*
X252119750Y-108599758D01*
X252094896Y-108809753D01*
X252108726Y-109020760D01*
X252160778Y-109225714D01*
X252249308Y-109417750D01*
X252371351Y-109590437D01*
X252522820Y-109737992D01*
X252527616Y-109741197D01*
X252527619Y-109741199D01*
X252573191Y-109771649D01*
X252698643Y-109855473D01*
X252703946Y-109857751D01*
X252703949Y-109857753D01*
X252853551Y-109922027D01*
X252892931Y-109938946D01*
X253099177Y-109985615D01*
X253104950Y-109985842D01*
X253110299Y-109986546D01*
X253175227Y-110015268D01*
X253214319Y-110074532D01*
X253215164Y-110145524D01*
X253177495Y-110205703D01*
X253115192Y-110235648D01*
X252956632Y-110262894D01*
X252950935Y-110263873D01*
X252752544Y-110337063D01*
X252747583Y-110340015D01*
X252747582Y-110340015D01*
X252582930Y-110437973D01*
X252570814Y-110445181D01*
X252411830Y-110584606D01*
X252280916Y-110750670D01*
X252278227Y-110755781D01*
X252278225Y-110755784D01*
X252265399Y-110780162D01*
X252182457Y-110937809D01*
X252119750Y-111139758D01*
X252094896Y-111349753D01*
X252108726Y-111560760D01*
X252160778Y-111765714D01*
X252249308Y-111957750D01*
X252371351Y-112130437D01*
X252522820Y-112277992D01*
X252527616Y-112281197D01*
X252527619Y-112281199D01*
X252573191Y-112311649D01*
X252698643Y-112395473D01*
X252703946Y-112397751D01*
X252703949Y-112397753D01*
X252834616Y-112453892D01*
X252892931Y-112478946D01*
X252993564Y-112501717D01*
X253054948Y-112515607D01*
X253116975Y-112550150D01*
X253150479Y-112612743D01*
X253144825Y-112683515D01*
X253101806Y-112739994D01*
X253035081Y-112764249D01*
X253027140Y-112764500D01*
X252400000Y-112764500D01*
X252398559Y-112764567D01*
X252398542Y-112764567D01*
X252384442Y-112765219D01*
X252371812Y-112765803D01*
X252263827Y-112796528D01*
X252174233Y-112864186D01*
X252115130Y-112959641D01*
X252112986Y-112971113D01*
X252112985Y-112971114D01*
X252109467Y-112989935D01*
X252094500Y-113070000D01*
X226465500Y-113070000D01*
X226465236Y-113064275D01*
X226464533Y-113049084D01*
X226464197Y-113041812D01*
X226433472Y-112933827D01*
X226365814Y-112844233D01*
X226270359Y-112785130D01*
X226258887Y-112782986D01*
X226258886Y-112782985D01*
X226165725Y-112765570D01*
X226165723Y-112765570D01*
X226160000Y-112764500D01*
X225527264Y-112764500D01*
X225459143Y-112744498D01*
X225412650Y-112690842D01*
X225402546Y-112620568D01*
X225432040Y-112555988D01*
X225491766Y-112517604D01*
X225509184Y-112513804D01*
X225574032Y-112504402D01*
X225574037Y-112504401D01*
X225579746Y-112503573D01*
X225585210Y-112501718D01*
X225585215Y-112501717D01*
X225774512Y-112437460D01*
X225774517Y-112437458D01*
X225779984Y-112435602D01*
X225964482Y-112332278D01*
X226127062Y-112197062D01*
X226262278Y-112034482D01*
X226365602Y-111849984D01*
X226367458Y-111844517D01*
X226367460Y-111844512D01*
X226431717Y-111655215D01*
X226431718Y-111655210D01*
X226433573Y-111649746D01*
X226434401Y-111644037D01*
X226434402Y-111644032D01*
X226458613Y-111477045D01*
X226463916Y-111440474D01*
X226465500Y-111380000D01*
X226451931Y-111232325D01*
X226446680Y-111175181D01*
X226446679Y-111175178D01*
X226446151Y-111169427D01*
X226441995Y-111154688D01*
X226390320Y-110971465D01*
X226390319Y-110971463D01*
X226388752Y-110965906D01*
X226376521Y-110941102D01*
X226297781Y-110781434D01*
X226295226Y-110776253D01*
X226286884Y-110765081D01*
X226172161Y-110611450D01*
X226168704Y-110606820D01*
X226013424Y-110463280D01*
X226008541Y-110460199D01*
X226008537Y-110460196D01*
X225839470Y-110353523D01*
X225839465Y-110353521D01*
X225834586Y-110350442D01*
X225638180Y-110272084D01*
X225496592Y-110243920D01*
X225435650Y-110231798D01*
X225372741Y-110198890D01*
X225337609Y-110137195D01*
X225341409Y-110066300D01*
X225382935Y-110008714D01*
X225442151Y-109983523D01*
X225477042Y-109978464D01*
X225574032Y-109964402D01*
X225574037Y-109964401D01*
X225579746Y-109963573D01*
X225585210Y-109961718D01*
X225585215Y-109961717D01*
X225774512Y-109897460D01*
X225774517Y-109897458D01*
X225779984Y-109895602D01*
X225964482Y-109792278D01*
X226127062Y-109657062D01*
X226262278Y-109494482D01*
X226365602Y-109309984D01*
X226367458Y-109304517D01*
X226367460Y-109304512D01*
X226431717Y-109115215D01*
X226431718Y-109115210D01*
X226433573Y-109109746D01*
X226434401Y-109104037D01*
X226434402Y-109104032D01*
X226463383Y-108904148D01*
X226463916Y-108900474D01*
X226465500Y-108840000D01*
X226446151Y-108629427D01*
X226437784Y-108599758D01*
X226390320Y-108431465D01*
X226390319Y-108431463D01*
X226388752Y-108425906D01*
X226374897Y-108397809D01*
X226297781Y-108241434D01*
X226295226Y-108236253D01*
X226168704Y-108066820D01*
X226013424Y-107923280D01*
X226008541Y-107920199D01*
X226008537Y-107920196D01*
X225839470Y-107813523D01*
X225839465Y-107813521D01*
X225834586Y-107810442D01*
X225689807Y-107752681D01*
X225643544Y-107734224D01*
X225638180Y-107732084D01*
X225455005Y-107695648D01*
X225435650Y-107691798D01*
X225372741Y-107658890D01*
X225337609Y-107597195D01*
X225341409Y-107526300D01*
X225382935Y-107468714D01*
X225442151Y-107443523D01*
X225477042Y-107438464D01*
X225574032Y-107424402D01*
X225574037Y-107424401D01*
X225579746Y-107423573D01*
X225585210Y-107421718D01*
X225585215Y-107421717D01*
X225774512Y-107357460D01*
X225774517Y-107357458D01*
X225779984Y-107355602D01*
X225815381Y-107335779D01*
X225934358Y-107269148D01*
X225964482Y-107252278D01*
X226127062Y-107117062D01*
X226262278Y-106954482D01*
X226365602Y-106769984D01*
X226367458Y-106764517D01*
X226367460Y-106764512D01*
X226431717Y-106575215D01*
X226431718Y-106575210D01*
X226433573Y-106569746D01*
X226434401Y-106564037D01*
X226434402Y-106564032D01*
X226463383Y-106364148D01*
X226463916Y-106360474D01*
X226465500Y-106300000D01*
X226446151Y-106089427D01*
X226437784Y-106059758D01*
X226390320Y-105891465D01*
X226390319Y-105891463D01*
X226388752Y-105885906D01*
X226374897Y-105857809D01*
X226297781Y-105701434D01*
X226295226Y-105696253D01*
X226168704Y-105526820D01*
X226013424Y-105383280D01*
X226008541Y-105380199D01*
X226008537Y-105380196D01*
X225839470Y-105273523D01*
X225839465Y-105273521D01*
X225834586Y-105270442D01*
X225638180Y-105192084D01*
X225486169Y-105161847D01*
X225435650Y-105151798D01*
X225372741Y-105118890D01*
X225337609Y-105057195D01*
X225341409Y-104986300D01*
X225382935Y-104928714D01*
X225442151Y-104903523D01*
X225477042Y-104898464D01*
X225574032Y-104884402D01*
X225574037Y-104884401D01*
X225579746Y-104883573D01*
X225585210Y-104881718D01*
X225585215Y-104881717D01*
X225774512Y-104817460D01*
X225774517Y-104817458D01*
X225779984Y-104815602D01*
X225964482Y-104712278D01*
X226127062Y-104577062D01*
X226262278Y-104414482D01*
X226365602Y-104229984D01*
X226367458Y-104224517D01*
X226367460Y-104224512D01*
X226431717Y-104035215D01*
X226431718Y-104035210D01*
X226433573Y-104029746D01*
X226434401Y-104024037D01*
X226434402Y-104024032D01*
X226463383Y-103824148D01*
X226463916Y-103820474D01*
X226465500Y-103760000D01*
X226446151Y-103549427D01*
X226437784Y-103519758D01*
X226390320Y-103351465D01*
X226390319Y-103351463D01*
X226388752Y-103345906D01*
X226374897Y-103317809D01*
X226297781Y-103161434D01*
X226295226Y-103156253D01*
X226168704Y-102986820D01*
X226013424Y-102843280D01*
X226008541Y-102840199D01*
X226008537Y-102840196D01*
X225839470Y-102733523D01*
X225839465Y-102733521D01*
X225834586Y-102730442D01*
X225638180Y-102652084D01*
X225455005Y-102615648D01*
X225435650Y-102611798D01*
X225372741Y-102578890D01*
X225337609Y-102517195D01*
X225341409Y-102446300D01*
X225382935Y-102388714D01*
X225442151Y-102363523D01*
X225477638Y-102358378D01*
X225574032Y-102344402D01*
X225574037Y-102344401D01*
X225579746Y-102343573D01*
X225585210Y-102341718D01*
X225585215Y-102341717D01*
X225774512Y-102277460D01*
X225774517Y-102277458D01*
X225779984Y-102275602D01*
X225964482Y-102172278D01*
X226127062Y-102037062D01*
X226262278Y-101874482D01*
X226365602Y-101689984D01*
X226367458Y-101684517D01*
X226367460Y-101684512D01*
X226431717Y-101495215D01*
X226431718Y-101495210D01*
X226433573Y-101489746D01*
X226434401Y-101484037D01*
X226434402Y-101484032D01*
X226463383Y-101284148D01*
X226463916Y-101280474D01*
X226465500Y-101220000D01*
X226446151Y-101009427D01*
X226437784Y-100979758D01*
X226390320Y-100811465D01*
X226390319Y-100811463D01*
X226388752Y-100805906D01*
X226374897Y-100777809D01*
X226297781Y-100621434D01*
X226295226Y-100616253D01*
X226168704Y-100446820D01*
X226013424Y-100303280D01*
X226008541Y-100300199D01*
X226008537Y-100300196D01*
X225839470Y-100193523D01*
X225839465Y-100193521D01*
X225834586Y-100190442D01*
X225638180Y-100112084D01*
X225455005Y-100075648D01*
X225435650Y-100071798D01*
X225372741Y-100038890D01*
X225337609Y-99977195D01*
X225341409Y-99906300D01*
X225382935Y-99848714D01*
X225442151Y-99823523D01*
X225477042Y-99818464D01*
X225574032Y-99804402D01*
X225574037Y-99804401D01*
X225579746Y-99803573D01*
X225585210Y-99801718D01*
X225585215Y-99801717D01*
X225774512Y-99737460D01*
X225774517Y-99737458D01*
X225779984Y-99735602D01*
X225964482Y-99632278D01*
X226127062Y-99497062D01*
X226262278Y-99334482D01*
X226365602Y-99149984D01*
X226367458Y-99144517D01*
X226367460Y-99144512D01*
X226431717Y-98955215D01*
X226431718Y-98955210D01*
X226433573Y-98949746D01*
X226434401Y-98944037D01*
X226434402Y-98944032D01*
X226463383Y-98744148D01*
X226463916Y-98740474D01*
X226465500Y-98680000D01*
X226446151Y-98469427D01*
X226437784Y-98439758D01*
X226390320Y-98271465D01*
X226390319Y-98271463D01*
X226388752Y-98265906D01*
X226374897Y-98237809D01*
X226297781Y-98081434D01*
X226295226Y-98076253D01*
X226168704Y-97906820D01*
X226013424Y-97763280D01*
X226008541Y-97760199D01*
X226008537Y-97760196D01*
X225839470Y-97653523D01*
X225839465Y-97653521D01*
X225834586Y-97650442D01*
X225638180Y-97572084D01*
X225496592Y-97543920D01*
X225435650Y-97531798D01*
X225372741Y-97498890D01*
X225337609Y-97437195D01*
X225341409Y-97366300D01*
X225382935Y-97308714D01*
X225442151Y-97283523D01*
X225477042Y-97278464D01*
X225574032Y-97264402D01*
X225574037Y-97264401D01*
X225579746Y-97263573D01*
X225585210Y-97261718D01*
X225585215Y-97261717D01*
X225774512Y-97197460D01*
X225774517Y-97197458D01*
X225779984Y-97195602D01*
X225786922Y-97191717D01*
X225857371Y-97152263D01*
X225964482Y-97092278D01*
X226127062Y-96957062D01*
X226262278Y-96794482D01*
X226365602Y-96609984D01*
X226367458Y-96604517D01*
X226367460Y-96604512D01*
X226431717Y-96415215D01*
X226431718Y-96415210D01*
X226433573Y-96409746D01*
X226434401Y-96404037D01*
X226434402Y-96404032D01*
X226456625Y-96250760D01*
X226463916Y-96200474D01*
X226465500Y-96140000D01*
X226446151Y-95929427D01*
X226440785Y-95910398D01*
X226390320Y-95731465D01*
X226390319Y-95731463D01*
X226388752Y-95725906D01*
X226385723Y-95719762D01*
X226297781Y-95541434D01*
X226295226Y-95536253D01*
X226168704Y-95366820D01*
X226013424Y-95223280D01*
X226008541Y-95220199D01*
X226008537Y-95220196D01*
X225839470Y-95113523D01*
X225839465Y-95113521D01*
X225834586Y-95110442D01*
X225638180Y-95032084D01*
X225455005Y-94995648D01*
X225435650Y-94991798D01*
X225372741Y-94958890D01*
X225337609Y-94897195D01*
X225341409Y-94826300D01*
X225382935Y-94768714D01*
X225442151Y-94743523D01*
X225477042Y-94738464D01*
X225574032Y-94724402D01*
X225574037Y-94724401D01*
X225579746Y-94723573D01*
X225585210Y-94721718D01*
X225585215Y-94721717D01*
X225774512Y-94657460D01*
X225774517Y-94657458D01*
X225779984Y-94655602D01*
X225786922Y-94651717D01*
X225901660Y-94587460D01*
X225964482Y-94552278D01*
X226127062Y-94417062D01*
X226262278Y-94254482D01*
X226365602Y-94069984D01*
X226367458Y-94064517D01*
X226367460Y-94064512D01*
X226431717Y-93875215D01*
X226431718Y-93875210D01*
X226433573Y-93869746D01*
X226434401Y-93864037D01*
X226434402Y-93864032D01*
X226460694Y-93682695D01*
X226463916Y-93660474D01*
X226465500Y-93600000D01*
X226448987Y-93420290D01*
X226446680Y-93395181D01*
X226446679Y-93395178D01*
X226446151Y-93389427D01*
X226437784Y-93359758D01*
X226390320Y-93191465D01*
X226390319Y-93191463D01*
X226388752Y-93185906D01*
X226374897Y-93157809D01*
X226297781Y-93001434D01*
X226295226Y-92996253D01*
X226168704Y-92826820D01*
X226013424Y-92683280D01*
X226008541Y-92680199D01*
X226008537Y-92680196D01*
X225839470Y-92573523D01*
X225839465Y-92573521D01*
X225834586Y-92570442D01*
X225638180Y-92492084D01*
X225496592Y-92463920D01*
X225435650Y-92451798D01*
X225372741Y-92418890D01*
X225337609Y-92357195D01*
X225341409Y-92286300D01*
X225382935Y-92228714D01*
X225442151Y-92203523D01*
X225477042Y-92198464D01*
X225574032Y-92184402D01*
X225574037Y-92184401D01*
X225579746Y-92183573D01*
X225585210Y-92181718D01*
X225585215Y-92181717D01*
X225774512Y-92117460D01*
X225774517Y-92117458D01*
X225779984Y-92115602D01*
X225786922Y-92111717D01*
X225857371Y-92072263D01*
X225964482Y-92012278D01*
X226127062Y-91877062D01*
X226262278Y-91714482D01*
X226365602Y-91529984D01*
X226367458Y-91524517D01*
X226367460Y-91524512D01*
X226431717Y-91335215D01*
X226431718Y-91335210D01*
X226433573Y-91329746D01*
X226434401Y-91324037D01*
X226434402Y-91324032D01*
X226463383Y-91124148D01*
X226463916Y-91120474D01*
X226465500Y-91060000D01*
X226446151Y-90849427D01*
X226437784Y-90819758D01*
X226390320Y-90651465D01*
X226390319Y-90651463D01*
X226388752Y-90645906D01*
X226374897Y-90617809D01*
X226297781Y-90461434D01*
X226295226Y-90456253D01*
X226168704Y-90286820D01*
X226013424Y-90143280D01*
X226008541Y-90140199D01*
X226008537Y-90140196D01*
X225839470Y-90033523D01*
X225839465Y-90033521D01*
X225834586Y-90030442D01*
X225638180Y-89952084D01*
X225455005Y-89915648D01*
X225435650Y-89911798D01*
X225372741Y-89878890D01*
X225337609Y-89817195D01*
X225341409Y-89746300D01*
X225382935Y-89688714D01*
X225442151Y-89663523D01*
X225477042Y-89658464D01*
X225574032Y-89644402D01*
X225574037Y-89644401D01*
X225579746Y-89643573D01*
X225585210Y-89641718D01*
X225585215Y-89641717D01*
X225774512Y-89577460D01*
X225774517Y-89577458D01*
X225779984Y-89575602D01*
X225964482Y-89472278D01*
X226127062Y-89337062D01*
X226262278Y-89174482D01*
X226365602Y-88989984D01*
X226367458Y-88984517D01*
X226367460Y-88984512D01*
X226431717Y-88795215D01*
X226431718Y-88795210D01*
X226433573Y-88789746D01*
X226434401Y-88784037D01*
X226434402Y-88784032D01*
X226463383Y-88584148D01*
X226463916Y-88580474D01*
X226465500Y-88520000D01*
X226446151Y-88309427D01*
X226437784Y-88279758D01*
X226390320Y-88111465D01*
X226390319Y-88111463D01*
X226388752Y-88105906D01*
X226374897Y-88077809D01*
X226297781Y-87921434D01*
X226295226Y-87916253D01*
X226168704Y-87746820D01*
X226013424Y-87603280D01*
X226008541Y-87600199D01*
X226008537Y-87600196D01*
X225839470Y-87493523D01*
X225839465Y-87493521D01*
X225834586Y-87490442D01*
X225638180Y-87412084D01*
X225447891Y-87374233D01*
X225435650Y-87371798D01*
X225372741Y-87338890D01*
X225337609Y-87277195D01*
X225341409Y-87206300D01*
X225382935Y-87148714D01*
X225442151Y-87123523D01*
X225477042Y-87118464D01*
X225574032Y-87104402D01*
X225574037Y-87104401D01*
X225579746Y-87103573D01*
X225585210Y-87101718D01*
X225585215Y-87101717D01*
X225774512Y-87037460D01*
X225774517Y-87037458D01*
X225779984Y-87035602D01*
X225964482Y-86932278D01*
X225976077Y-86922635D01*
X226122624Y-86800753D01*
X226127062Y-86797062D01*
X226262278Y-86634482D01*
X226331185Y-86511439D01*
X226362778Y-86455027D01*
X226362779Y-86455025D01*
X226365602Y-86449984D01*
X226367458Y-86444517D01*
X226367460Y-86444512D01*
X226431717Y-86255215D01*
X226431718Y-86255210D01*
X226433573Y-86249746D01*
X226434401Y-86244037D01*
X226434402Y-86244032D01*
X226458988Y-86074464D01*
X226463916Y-86040474D01*
X226465500Y-85980000D01*
X226453524Y-85849665D01*
X226446680Y-85775181D01*
X226446679Y-85775178D01*
X226446151Y-85769427D01*
X226437784Y-85739758D01*
X226390320Y-85571465D01*
X226390319Y-85571463D01*
X226388752Y-85565906D01*
X226374897Y-85537809D01*
X226297781Y-85381434D01*
X226295226Y-85376253D01*
X226168704Y-85206820D01*
X226063345Y-85109427D01*
X226017669Y-85067204D01*
X226013424Y-85063280D01*
X226008541Y-85060199D01*
X226008537Y-85060196D01*
X225839470Y-84953523D01*
X225839465Y-84953521D01*
X225834586Y-84950442D01*
X225638180Y-84872084D01*
X225455005Y-84835648D01*
X225435650Y-84831798D01*
X225372741Y-84798890D01*
X225337609Y-84737195D01*
X225341409Y-84666300D01*
X225382935Y-84608714D01*
X225442151Y-84583523D01*
X225477042Y-84578464D01*
X225574032Y-84564402D01*
X225574037Y-84564401D01*
X225579746Y-84563573D01*
X225585210Y-84561718D01*
X225585215Y-84561717D01*
X225774512Y-84497460D01*
X225774517Y-84497458D01*
X225779984Y-84495602D01*
X225964482Y-84392278D01*
X226127062Y-84257062D01*
X226262278Y-84094482D01*
X226343912Y-83948714D01*
X226362778Y-83915027D01*
X226362779Y-83915025D01*
X226365602Y-83909984D01*
X226367458Y-83904517D01*
X226367460Y-83904512D01*
X226431717Y-83715215D01*
X226431718Y-83715210D01*
X226433573Y-83709746D01*
X226434401Y-83704037D01*
X226434402Y-83704032D01*
X226458988Y-83534464D01*
X226463916Y-83500474D01*
X226465500Y-83440000D01*
X226448989Y-83260314D01*
X226446680Y-83235181D01*
X226446679Y-83235178D01*
X226446151Y-83229427D01*
X226444562Y-83223791D01*
X226390320Y-83031465D01*
X226390319Y-83031463D01*
X226388752Y-83025906D01*
X226384625Y-83017536D01*
X226297781Y-82841434D01*
X226295226Y-82836253D01*
X226168704Y-82666820D01*
X226063345Y-82569427D01*
X226017669Y-82527204D01*
X226013424Y-82523280D01*
X226008541Y-82520199D01*
X226008537Y-82520196D01*
X225839470Y-82413523D01*
X225839465Y-82413521D01*
X225834586Y-82410442D01*
X225638180Y-82332084D01*
X225455005Y-82295648D01*
X225435650Y-82291798D01*
X225372741Y-82258890D01*
X225337609Y-82197195D01*
X225341409Y-82126300D01*
X225382935Y-82068714D01*
X225442151Y-82043523D01*
X225477042Y-82038464D01*
X225574032Y-82024402D01*
X225574037Y-82024401D01*
X225579746Y-82023573D01*
X225585210Y-82021718D01*
X225585215Y-82021717D01*
X225774512Y-81957460D01*
X225774517Y-81957458D01*
X225779984Y-81955602D01*
X225785836Y-81952325D01*
X225875288Y-81902229D01*
X225964482Y-81852278D01*
X226127062Y-81717062D01*
X226262278Y-81554482D01*
X226351318Y-81395490D01*
X226362778Y-81375027D01*
X226362779Y-81375025D01*
X226365602Y-81369984D01*
X226367458Y-81364517D01*
X226367460Y-81364512D01*
X226431717Y-81175215D01*
X226431718Y-81175210D01*
X226433573Y-81169746D01*
X226434401Y-81164037D01*
X226434402Y-81164032D01*
X226458988Y-80994464D01*
X226463916Y-80960474D01*
X226465500Y-80900000D01*
X226453524Y-80769665D01*
X226446680Y-80695181D01*
X226446679Y-80695178D01*
X226446151Y-80689427D01*
X226437784Y-80659758D01*
X226390320Y-80491465D01*
X226390319Y-80491463D01*
X226388752Y-80485906D01*
X226374897Y-80457809D01*
X226297781Y-80301434D01*
X226295226Y-80296253D01*
X226280141Y-80276051D01*
X226172161Y-80131450D01*
X226168704Y-80126820D01*
X226063345Y-80029427D01*
X226017669Y-79987204D01*
X226013424Y-79983280D01*
X226008541Y-79980199D01*
X226008537Y-79980196D01*
X225839470Y-79873523D01*
X225839465Y-79873521D01*
X225834586Y-79870442D01*
X225638180Y-79792084D01*
X225445679Y-79753793D01*
X225435650Y-79751798D01*
X225372741Y-79718890D01*
X225337609Y-79657195D01*
X225341409Y-79586300D01*
X225382935Y-79528714D01*
X225442151Y-79503523D01*
X225477042Y-79498464D01*
X225574032Y-79484402D01*
X225574037Y-79484401D01*
X225579746Y-79483573D01*
X225585210Y-79481718D01*
X225585215Y-79481717D01*
X225774512Y-79417460D01*
X225774517Y-79417458D01*
X225779984Y-79415602D01*
X225964482Y-79312278D01*
X226127062Y-79177062D01*
X226262278Y-79014482D01*
X226353158Y-78852204D01*
X226362778Y-78835027D01*
X226362779Y-78835025D01*
X226365602Y-78829984D01*
X226367458Y-78824517D01*
X226367460Y-78824512D01*
X226431717Y-78635215D01*
X226431718Y-78635210D01*
X226433573Y-78629746D01*
X226434401Y-78624037D01*
X226434402Y-78624032D01*
X226463383Y-78424148D01*
X226463916Y-78420474D01*
X226465500Y-78360000D01*
X226462721Y-78329753D01*
X252094896Y-78329753D01*
X252108726Y-78540760D01*
X252160778Y-78745714D01*
X252249308Y-78937750D01*
X252371351Y-79110437D01*
X252392415Y-79130957D01*
X252512354Y-79247796D01*
X252522820Y-79257992D01*
X252527616Y-79261197D01*
X252527619Y-79261199D01*
X252621957Y-79324233D01*
X252698643Y-79375473D01*
X252703946Y-79377751D01*
X252703949Y-79377753D01*
X252887624Y-79456666D01*
X252892931Y-79458946D01*
X252993564Y-79481717D01*
X253089932Y-79503523D01*
X253099177Y-79505615D01*
X253104949Y-79505842D01*
X253110678Y-79506596D01*
X253110383Y-79508834D01*
X253168329Y-79528363D01*
X253212669Y-79583811D01*
X253219993Y-79654429D01*
X253187975Y-79717796D01*
X253126781Y-79753793D01*
X253117418Y-79755771D01*
X252956761Y-79783377D01*
X252945641Y-79786357D01*
X252758176Y-79855516D01*
X252747798Y-79860466D01*
X252576076Y-79962629D01*
X252566764Y-79969394D01*
X252416534Y-80101143D01*
X252408617Y-80109486D01*
X252284909Y-80266408D01*
X252278647Y-80276051D01*
X252185608Y-80452891D01*
X252181207Y-80463515D01*
X252129916Y-80628700D01*
X252129698Y-80642799D01*
X252136429Y-80646000D01*
X254355271Y-80646000D01*
X254368802Y-80642027D01*
X254369971Y-80633892D01*
X254329853Y-80491644D01*
X254325731Y-80480905D01*
X254237354Y-80301695D01*
X254231344Y-80291887D01*
X254111785Y-80131778D01*
X254104096Y-80123238D01*
X253957354Y-79987592D01*
X253948238Y-79980598D01*
X253779245Y-79873970D01*
X253768994Y-79868746D01*
X253583402Y-79794703D01*
X253572374Y-79791436D01*
X253374175Y-79752012D01*
X253311265Y-79719104D01*
X253276133Y-79657409D01*
X253279933Y-79586515D01*
X253321459Y-79528929D01*
X253380675Y-79503737D01*
X253417331Y-79498422D01*
X253514032Y-79484402D01*
X253514037Y-79484401D01*
X253519746Y-79483573D01*
X253525210Y-79481718D01*
X253525215Y-79481717D01*
X253714512Y-79417460D01*
X253714517Y-79417458D01*
X253719984Y-79415602D01*
X253904482Y-79312278D01*
X254067062Y-79177062D01*
X254202278Y-79014482D01*
X254293158Y-78852204D01*
X254302778Y-78835027D01*
X254302779Y-78835025D01*
X254305602Y-78829984D01*
X254307458Y-78824517D01*
X254307460Y-78824512D01*
X254371717Y-78635215D01*
X254371718Y-78635210D01*
X254373573Y-78629746D01*
X254374401Y-78624037D01*
X254374402Y-78624032D01*
X254403383Y-78424148D01*
X254403916Y-78420474D01*
X254405500Y-78360000D01*
X254386151Y-78149427D01*
X254377784Y-78119758D01*
X254330320Y-77951465D01*
X254330319Y-77951463D01*
X254328752Y-77945906D01*
X254314897Y-77917809D01*
X254237781Y-77761434D01*
X254235226Y-77756253D01*
X254108704Y-77586820D01*
X253953424Y-77443280D01*
X253948541Y-77440199D01*
X253948537Y-77440196D01*
X253779470Y-77333523D01*
X253779465Y-77333521D01*
X253774586Y-77330442D01*
X253578180Y-77252084D01*
X253572520Y-77250958D01*
X253572516Y-77250957D01*
X253376450Y-77211957D01*
X253376447Y-77211957D01*
X253370783Y-77210830D01*
X253365008Y-77210754D01*
X253365004Y-77210754D01*
X253259064Y-77209367D01*
X253159341Y-77208062D01*
X253153644Y-77209041D01*
X253153643Y-77209041D01*
X252956632Y-77242894D01*
X252950935Y-77243873D01*
X252752544Y-77317063D01*
X252570814Y-77425181D01*
X252411830Y-77564606D01*
X252280916Y-77730670D01*
X252182457Y-77917809D01*
X252119750Y-78119758D01*
X252094896Y-78329753D01*
X226462721Y-78329753D01*
X226446151Y-78149427D01*
X226437784Y-78119758D01*
X226390320Y-77951465D01*
X226390319Y-77951463D01*
X226388752Y-77945906D01*
X226374897Y-77917809D01*
X226297781Y-77761434D01*
X226295226Y-77756253D01*
X226168704Y-77586820D01*
X226013424Y-77443280D01*
X226008541Y-77440199D01*
X226008537Y-77440196D01*
X225839470Y-77333523D01*
X225839465Y-77333521D01*
X225834586Y-77330442D01*
X225638180Y-77252084D01*
X225632520Y-77250958D01*
X225632516Y-77250957D01*
X225436450Y-77211957D01*
X225436447Y-77211957D01*
X225430783Y-77210830D01*
X225425008Y-77210754D01*
X225425004Y-77210754D01*
X225319064Y-77209367D01*
X225219341Y-77208062D01*
X225213644Y-77209041D01*
X225213643Y-77209041D01*
X225016632Y-77242894D01*
X225010935Y-77243873D01*
X224812544Y-77317063D01*
X224630814Y-77425181D01*
X224471830Y-77564606D01*
X224340916Y-77730670D01*
X224242457Y-77917809D01*
X224179750Y-78119758D01*
X224154896Y-78329753D01*
X224168726Y-78540760D01*
X224220778Y-78745714D01*
X224309308Y-78937750D01*
X224431351Y-79110437D01*
X224452415Y-79130957D01*
X224572354Y-79247796D01*
X224582820Y-79257992D01*
X224587616Y-79261197D01*
X224587619Y-79261199D01*
X224681957Y-79324233D01*
X224758643Y-79375473D01*
X224763946Y-79377751D01*
X224763949Y-79377753D01*
X224947624Y-79456666D01*
X224952931Y-79458946D01*
X225159177Y-79505615D01*
X225164950Y-79505842D01*
X225170299Y-79506546D01*
X225235227Y-79535268D01*
X225274319Y-79594532D01*
X225275164Y-79665524D01*
X225237495Y-79725703D01*
X225175192Y-79755648D01*
X225016632Y-79782894D01*
X225010935Y-79783873D01*
X224812544Y-79857063D01*
X224630814Y-79965181D01*
X224471830Y-80104606D01*
X224340916Y-80270670D01*
X224338227Y-80275781D01*
X224338225Y-80275784D01*
X224325235Y-80300474D01*
X224242457Y-80457809D01*
X224179750Y-80659758D01*
X224154896Y-80869753D01*
X224168726Y-81080760D01*
X224220778Y-81285714D01*
X224309308Y-81477750D01*
X224431351Y-81650437D01*
X224452416Y-81670958D01*
X224572627Y-81788062D01*
X224582820Y-81797992D01*
X224587616Y-81801197D01*
X224587619Y-81801199D01*
X224686403Y-81867204D01*
X224758643Y-81915473D01*
X224763946Y-81917751D01*
X224763949Y-81917753D01*
X224930966Y-81989509D01*
X224952931Y-81998946D01*
X225159177Y-82045615D01*
X225164950Y-82045842D01*
X225170299Y-82046546D01*
X225235227Y-82075268D01*
X225274319Y-82134532D01*
X225275164Y-82205524D01*
X225237495Y-82265703D01*
X225175192Y-82295648D01*
X225016632Y-82322894D01*
X225010935Y-82323873D01*
X224812544Y-82397063D01*
X224807583Y-82400015D01*
X224807582Y-82400015D01*
X224669647Y-82482078D01*
X224630814Y-82505181D01*
X224471830Y-82644606D01*
X224340916Y-82810670D01*
X224338227Y-82815781D01*
X224338225Y-82815784D01*
X224325235Y-82840474D01*
X224242457Y-82997809D01*
X224179750Y-83199758D01*
X224154896Y-83409753D01*
X224168726Y-83620760D01*
X224220778Y-83825714D01*
X224309308Y-84017750D01*
X224431351Y-84190437D01*
X224582820Y-84337992D01*
X224587616Y-84341197D01*
X224587619Y-84341199D01*
X224686403Y-84407204D01*
X224758643Y-84455473D01*
X224763946Y-84457751D01*
X224763949Y-84457753D01*
X224947624Y-84536666D01*
X224952931Y-84538946D01*
X225159177Y-84585615D01*
X225164950Y-84585842D01*
X225170299Y-84586546D01*
X225235227Y-84615268D01*
X225274319Y-84674532D01*
X225275164Y-84745524D01*
X225237495Y-84805703D01*
X225175192Y-84835648D01*
X225016632Y-84862894D01*
X225010935Y-84863873D01*
X224812544Y-84937063D01*
X224630814Y-85045181D01*
X224471830Y-85184606D01*
X224340916Y-85350670D01*
X224338227Y-85355781D01*
X224338225Y-85355784D01*
X224325235Y-85380474D01*
X224242457Y-85537809D01*
X224179750Y-85739758D01*
X224154896Y-85949753D01*
X224168726Y-86160760D01*
X224220778Y-86365714D01*
X224309308Y-86557750D01*
X224431351Y-86730437D01*
X224468162Y-86766297D01*
X224572043Y-86867493D01*
X224582820Y-86877992D01*
X224587616Y-86881197D01*
X224587619Y-86881199D01*
X224680119Y-86943005D01*
X224758643Y-86995473D01*
X224763946Y-86997751D01*
X224763949Y-86997753D01*
X224845472Y-87032778D01*
X224952931Y-87078946D01*
X225159177Y-87125615D01*
X225164950Y-87125842D01*
X225170299Y-87126546D01*
X225235227Y-87155268D01*
X225274319Y-87214532D01*
X225275164Y-87285524D01*
X225237495Y-87345703D01*
X225175192Y-87375648D01*
X225016632Y-87402894D01*
X225010935Y-87403873D01*
X224812544Y-87477063D01*
X224807583Y-87480015D01*
X224807582Y-87480015D01*
X224726527Y-87528238D01*
X224630814Y-87585181D01*
X224471830Y-87724606D01*
X224340916Y-87890670D01*
X224242457Y-88077809D01*
X224179750Y-88279758D01*
X224154896Y-88489753D01*
X224168726Y-88700760D01*
X224220778Y-88905714D01*
X224309308Y-89097750D01*
X224431351Y-89270437D01*
X224435485Y-89274464D01*
X224574985Y-89410359D01*
X224582820Y-89417992D01*
X224587616Y-89421197D01*
X224587619Y-89421199D01*
X224658530Y-89468580D01*
X224758643Y-89535473D01*
X224763946Y-89537751D01*
X224763949Y-89537753D01*
X224922801Y-89606001D01*
X224952931Y-89618946D01*
X225159177Y-89665615D01*
X225164950Y-89665842D01*
X225170299Y-89666546D01*
X225235227Y-89695268D01*
X225274319Y-89754532D01*
X225275164Y-89825524D01*
X225237495Y-89885703D01*
X225175192Y-89915648D01*
X225016632Y-89942894D01*
X225010935Y-89943873D01*
X224812544Y-90017063D01*
X224807583Y-90020015D01*
X224807582Y-90020015D01*
X224753439Y-90052227D01*
X224630814Y-90125181D01*
X224471830Y-90264606D01*
X224340916Y-90430670D01*
X224242457Y-90617809D01*
X224179750Y-90819758D01*
X224154896Y-91029753D01*
X224168726Y-91240760D01*
X224220778Y-91445714D01*
X224309308Y-91637750D01*
X224431351Y-91810437D01*
X224582820Y-91957992D01*
X224587616Y-91961197D01*
X224587619Y-91961199D01*
X224726988Y-92054322D01*
X224758643Y-92075473D01*
X224763946Y-92077751D01*
X224763949Y-92077753D01*
X224910043Y-92140520D01*
X224952931Y-92158946D01*
X225159177Y-92205615D01*
X225164950Y-92205842D01*
X225170299Y-92206546D01*
X225235227Y-92235268D01*
X225274319Y-92294532D01*
X225275164Y-92365524D01*
X225237495Y-92425703D01*
X225175192Y-92455648D01*
X225016632Y-92482894D01*
X225010935Y-92483873D01*
X224812544Y-92557063D01*
X224807583Y-92560015D01*
X224807582Y-92560015D01*
X224673639Y-92639703D01*
X224630814Y-92665181D01*
X224471830Y-92804606D01*
X224340916Y-92970670D01*
X224338227Y-92975781D01*
X224338225Y-92975784D01*
X224286022Y-93075005D01*
X224242457Y-93157809D01*
X224179750Y-93359758D01*
X224154896Y-93569753D01*
X224168726Y-93780760D01*
X224220778Y-93985714D01*
X224309308Y-94177750D01*
X224431351Y-94350437D01*
X224582820Y-94497992D01*
X224587616Y-94501197D01*
X224587619Y-94501199D01*
X224728551Y-94595366D01*
X224758643Y-94615473D01*
X224763946Y-94617751D01*
X224763949Y-94617753D01*
X224917948Y-94683916D01*
X224952931Y-94698946D01*
X225159177Y-94745615D01*
X225164950Y-94745842D01*
X225170299Y-94746546D01*
X225235227Y-94775268D01*
X225274319Y-94834532D01*
X225275164Y-94905524D01*
X225237495Y-94965703D01*
X225175192Y-94995648D01*
X225016632Y-95022894D01*
X225010935Y-95023873D01*
X224812544Y-95097063D01*
X224807583Y-95100015D01*
X224807582Y-95100015D01*
X224660473Y-95187536D01*
X224630814Y-95205181D01*
X224471830Y-95344606D01*
X224340916Y-95510670D01*
X224338227Y-95515781D01*
X224338225Y-95515784D01*
X224299837Y-95588748D01*
X224242457Y-95697809D01*
X224179750Y-95899758D01*
X224154896Y-96109753D01*
X224168726Y-96320760D01*
X224220778Y-96525714D01*
X224309308Y-96717750D01*
X224431351Y-96890437D01*
X224582820Y-97037992D01*
X224587616Y-97041197D01*
X224587619Y-97041199D01*
X224725022Y-97133008D01*
X224758643Y-97155473D01*
X224763946Y-97157751D01*
X224763949Y-97157753D01*
X224917948Y-97223916D01*
X224952931Y-97238946D01*
X225159177Y-97285615D01*
X225164950Y-97285842D01*
X225170299Y-97286546D01*
X225235227Y-97315268D01*
X225274319Y-97374532D01*
X225275164Y-97445524D01*
X225237495Y-97505703D01*
X225175192Y-97535648D01*
X225016632Y-97562894D01*
X225010935Y-97563873D01*
X224812544Y-97637063D01*
X224807583Y-97640015D01*
X224807582Y-97640015D01*
X224685558Y-97712612D01*
X224630814Y-97745181D01*
X224471830Y-97884606D01*
X224340916Y-98050670D01*
X224242457Y-98237809D01*
X224179750Y-98439758D01*
X224154896Y-98649753D01*
X224168726Y-98860760D01*
X224220778Y-99065714D01*
X224309308Y-99257750D01*
X224431351Y-99430437D01*
X224582820Y-99577992D01*
X224587616Y-99581197D01*
X224587619Y-99581199D01*
X224658530Y-99628580D01*
X224758643Y-99695473D01*
X224763946Y-99697751D01*
X224763949Y-99697753D01*
X224845472Y-99732778D01*
X224952931Y-99778946D01*
X225159177Y-99825615D01*
X225164950Y-99825842D01*
X225170299Y-99826546D01*
X225235227Y-99855268D01*
X225274319Y-99914532D01*
X225275164Y-99985524D01*
X225237495Y-100045703D01*
X225175192Y-100075648D01*
X225016632Y-100102894D01*
X225010935Y-100103873D01*
X224812544Y-100177063D01*
X224630814Y-100285181D01*
X224471830Y-100424606D01*
X224340916Y-100590670D01*
X224242457Y-100777809D01*
X224179750Y-100979758D01*
X224154896Y-101189753D01*
X224168726Y-101400760D01*
X224220778Y-101605714D01*
X224309308Y-101797750D01*
X224431351Y-101970437D01*
X224582820Y-102117992D01*
X224587616Y-102121197D01*
X224587619Y-102121199D01*
X224655995Y-102166886D01*
X224758643Y-102235473D01*
X224763946Y-102237751D01*
X224763949Y-102237753D01*
X224845472Y-102272778D01*
X224952931Y-102318946D01*
X225159177Y-102365615D01*
X225164950Y-102365842D01*
X225170299Y-102366546D01*
X225235227Y-102395268D01*
X225274319Y-102454532D01*
X225275164Y-102525524D01*
X225237495Y-102585703D01*
X225175192Y-102615648D01*
X225018570Y-102642561D01*
X225010935Y-102643873D01*
X224812544Y-102717063D01*
X224807583Y-102720015D01*
X224807582Y-102720015D01*
X224679391Y-102796281D01*
X224630814Y-102825181D01*
X224471830Y-102964606D01*
X224340916Y-103130670D01*
X224242457Y-103317809D01*
X224179750Y-103519758D01*
X224154896Y-103729753D01*
X224168726Y-103940760D01*
X224220778Y-104145714D01*
X224309308Y-104337750D01*
X224431351Y-104510437D01*
X224582820Y-104657992D01*
X224587616Y-104661197D01*
X224587619Y-104661199D01*
X224658530Y-104708580D01*
X224758643Y-104775473D01*
X224763946Y-104777751D01*
X224763949Y-104777753D01*
X224845472Y-104812778D01*
X224952931Y-104858946D01*
X225159177Y-104905615D01*
X225164950Y-104905842D01*
X225170299Y-104906546D01*
X225235227Y-104935268D01*
X225274319Y-104994532D01*
X225275164Y-105065524D01*
X225237495Y-105125703D01*
X225175192Y-105155648D01*
X225016632Y-105182894D01*
X225010935Y-105183873D01*
X224812544Y-105257063D01*
X224807583Y-105260015D01*
X224807582Y-105260015D01*
X224786656Y-105272465D01*
X224630814Y-105365181D01*
X224471830Y-105504606D01*
X224340916Y-105670670D01*
X224338227Y-105675781D01*
X224338225Y-105675784D01*
X224288730Y-105769859D01*
X224242457Y-105857809D01*
X224179750Y-106059758D01*
X224154896Y-106269753D01*
X224168726Y-106480760D01*
X224220778Y-106685714D01*
X224309308Y-106877750D01*
X224431351Y-107050437D01*
X224582820Y-107197992D01*
X224587616Y-107201197D01*
X224587619Y-107201199D01*
X224728551Y-107295366D01*
X224758643Y-107315473D01*
X224763946Y-107317751D01*
X224763949Y-107317753D01*
X224945760Y-107395865D01*
X224952931Y-107398946D01*
X225159177Y-107445615D01*
X225164950Y-107445842D01*
X225170299Y-107446546D01*
X225235227Y-107475268D01*
X225274319Y-107534532D01*
X225275164Y-107605524D01*
X225237495Y-107665703D01*
X225175192Y-107695648D01*
X225016632Y-107722894D01*
X225010935Y-107723873D01*
X224812544Y-107797063D01*
X224630814Y-107905181D01*
X224471830Y-108044606D01*
X224340916Y-108210670D01*
X224242457Y-108397809D01*
X224179750Y-108599758D01*
X224154896Y-108809753D01*
X224168726Y-109020760D01*
X224220778Y-109225714D01*
X224309308Y-109417750D01*
X224431351Y-109590437D01*
X224582820Y-109737992D01*
X224587616Y-109741197D01*
X224587619Y-109741199D01*
X224633191Y-109771649D01*
X224758643Y-109855473D01*
X224763946Y-109857751D01*
X224763949Y-109857753D01*
X224913551Y-109922027D01*
X224952931Y-109938946D01*
X225159177Y-109985615D01*
X225164950Y-109985842D01*
X225170299Y-109986546D01*
X225235227Y-110015268D01*
X225274319Y-110074532D01*
X225275164Y-110145524D01*
X225237495Y-110205703D01*
X225175192Y-110235648D01*
X225016632Y-110262894D01*
X225010935Y-110263873D01*
X224812544Y-110337063D01*
X224807583Y-110340015D01*
X224807582Y-110340015D01*
X224642930Y-110437973D01*
X224630814Y-110445181D01*
X224471830Y-110584606D01*
X224340916Y-110750670D01*
X224338227Y-110755781D01*
X224338225Y-110755784D01*
X224325399Y-110780162D01*
X224242457Y-110937809D01*
X224179750Y-111139758D01*
X224154896Y-111349753D01*
X224168726Y-111560760D01*
X224220778Y-111765714D01*
X224309308Y-111957750D01*
X224431351Y-112130437D01*
X224582820Y-112277992D01*
X224587616Y-112281197D01*
X224587619Y-112281199D01*
X224633191Y-112311649D01*
X224758643Y-112395473D01*
X224763946Y-112397751D01*
X224763949Y-112397753D01*
X224894616Y-112453892D01*
X224952931Y-112478946D01*
X225053564Y-112501717D01*
X225114948Y-112515607D01*
X225176975Y-112550150D01*
X225210479Y-112612743D01*
X225204825Y-112683515D01*
X225161806Y-112739994D01*
X225095081Y-112764249D01*
X225087140Y-112764500D01*
X224460000Y-112764500D01*
X224458559Y-112764567D01*
X224458542Y-112764567D01*
X224444442Y-112765219D01*
X224431812Y-112765803D01*
X224323827Y-112796528D01*
X224234233Y-112864186D01*
X224175130Y-112959641D01*
X224172986Y-112971113D01*
X224172985Y-112971114D01*
X224169467Y-112989935D01*
X224154500Y-113070000D01*
X220195805Y-113070000D01*
X220221228Y-112995106D01*
X220222469Y-112989935D01*
X220220767Y-112977993D01*
X220207199Y-112974000D01*
X217995955Y-112974000D01*
X217982424Y-112977973D01*
X217981132Y-112986962D01*
X218009828Y-113099952D01*
X218013666Y-113110790D01*
X218097323Y-113292255D01*
X218103074Y-113302216D01*
X218218399Y-113465397D01*
X218225865Y-113474139D01*
X218369001Y-113613577D01*
X218377934Y-113620811D01*
X218544078Y-113731824D01*
X218554188Y-113737314D01*
X218737778Y-113816190D01*
X218748721Y-113819745D01*
X218943606Y-113863844D01*
X218960743Y-113866100D01*
X218960444Y-113868369D01*
X219018282Y-113887851D01*
X219062631Y-113943292D01*
X219069967Y-114013908D01*
X219037959Y-114077281D01*
X218976771Y-114113288D01*
X218967390Y-114115270D01*
X218800935Y-114143873D01*
X218602544Y-114217063D01*
X218420814Y-114325181D01*
X218261830Y-114464606D01*
X218130916Y-114630670D01*
X218032457Y-114817809D01*
X217969750Y-115019758D01*
X217969071Y-115025496D01*
X217955097Y-115143562D01*
X217927227Y-115208859D01*
X217868478Y-115248723D01*
X217797504Y-115250497D01*
X217736837Y-115213618D01*
X217705740Y-115149794D01*
X217704499Y-115140281D01*
X217696680Y-115055181D01*
X217696679Y-115055178D01*
X217696151Y-115049427D01*
X217692488Y-115036436D01*
X217640320Y-114851465D01*
X217640319Y-114851463D01*
X217638752Y-114845906D01*
X217624897Y-114817809D01*
X217547781Y-114661434D01*
X217545226Y-114656253D01*
X217418704Y-114486820D01*
X217263424Y-114343280D01*
X217258541Y-114340199D01*
X217258537Y-114340196D01*
X217089470Y-114233523D01*
X217089465Y-114233521D01*
X217084586Y-114230442D01*
X216888180Y-114152084D01*
X216792965Y-114133144D01*
X216684188Y-114111507D01*
X216621279Y-114078599D01*
X216586147Y-114016904D01*
X216589947Y-113946009D01*
X216631473Y-113888423D01*
X216690690Y-113863232D01*
X216823915Y-113843916D01*
X216835098Y-113841231D01*
X217024313Y-113777001D01*
X217034816Y-113772325D01*
X217209162Y-113674687D01*
X217218637Y-113668175D01*
X217372276Y-113540394D01*
X217380394Y-113532276D01*
X217508175Y-113378637D01*
X217514687Y-113369162D01*
X217612325Y-113194816D01*
X217617001Y-113184313D01*
X217681231Y-112995098D01*
X217683916Y-112983915D01*
X217712884Y-112784122D01*
X217713514Y-112776740D01*
X217714903Y-112723704D01*
X217714660Y-112716305D01*
X217696188Y-112515275D01*
X217694090Y-112503954D01*
X217682483Y-112462799D01*
X217979698Y-112462799D01*
X217986429Y-112466000D01*
X220205271Y-112466000D01*
X220218802Y-112462027D01*
X220219971Y-112453892D01*
X220179853Y-112311644D01*
X220175731Y-112300905D01*
X220087354Y-112121695D01*
X220081344Y-112111887D01*
X219961785Y-111951778D01*
X219954096Y-111943238D01*
X219807354Y-111807592D01*
X219798238Y-111800598D01*
X219629245Y-111693970D01*
X219618994Y-111688746D01*
X219433402Y-111614703D01*
X219422376Y-111611437D01*
X219222712Y-111571721D01*
X219159803Y-111538813D01*
X219124671Y-111477118D01*
X219128471Y-111406224D01*
X219169997Y-111348638D01*
X219229214Y-111323446D01*
X219363915Y-111303916D01*
X219375098Y-111301231D01*
X219564313Y-111237001D01*
X219574816Y-111232325D01*
X219749162Y-111134687D01*
X219758637Y-111128175D01*
X219912276Y-111000394D01*
X219920394Y-110992276D01*
X220048175Y-110838637D01*
X220054687Y-110829162D01*
X220152325Y-110654816D01*
X220157001Y-110644313D01*
X220221228Y-110455106D01*
X220222469Y-110449935D01*
X220220767Y-110437993D01*
X220207199Y-110434000D01*
X217995955Y-110434000D01*
X217982424Y-110437973D01*
X217981132Y-110446962D01*
X218009828Y-110559952D01*
X218013666Y-110570790D01*
X218097323Y-110752255D01*
X218103074Y-110762216D01*
X218218399Y-110925397D01*
X218225865Y-110934139D01*
X218369001Y-111073577D01*
X218377934Y-111080811D01*
X218544078Y-111191824D01*
X218554188Y-111197314D01*
X218737778Y-111276190D01*
X218748721Y-111279745D01*
X218943606Y-111323844D01*
X218960743Y-111326100D01*
X218960534Y-111327688D01*
X219020673Y-111347945D01*
X219065022Y-111403386D01*
X219072358Y-111474002D01*
X219040350Y-111537375D01*
X218979163Y-111573382D01*
X218969779Y-111575365D01*
X218806761Y-111603377D01*
X218795641Y-111606357D01*
X218608176Y-111675516D01*
X218597798Y-111680466D01*
X218426076Y-111782629D01*
X218416764Y-111789394D01*
X218266534Y-111921143D01*
X218258617Y-111929486D01*
X218134909Y-112086408D01*
X218128649Y-112096048D01*
X218035608Y-112272891D01*
X218031207Y-112283515D01*
X217979916Y-112448700D01*
X217979698Y-112462799D01*
X217682483Y-112462799D01*
X217639854Y-112311649D01*
X217635729Y-112300902D01*
X217547354Y-112121695D01*
X217541344Y-112111887D01*
X217421785Y-111951778D01*
X217414096Y-111943238D01*
X217267354Y-111807592D01*
X217258238Y-111800598D01*
X217089245Y-111693970D01*
X217078994Y-111688746D01*
X216893402Y-111614703D01*
X216882376Y-111611437D01*
X216682712Y-111571721D01*
X216619803Y-111538813D01*
X216584671Y-111477118D01*
X216588471Y-111406224D01*
X216629997Y-111348638D01*
X216689214Y-111323446D01*
X216823915Y-111303916D01*
X216835098Y-111301231D01*
X217024313Y-111237001D01*
X217034816Y-111232325D01*
X217209162Y-111134687D01*
X217218637Y-111128175D01*
X217372276Y-111000394D01*
X217380394Y-110992276D01*
X217508175Y-110838637D01*
X217514687Y-110829162D01*
X217612325Y-110654816D01*
X217617001Y-110644313D01*
X217681231Y-110455098D01*
X217683916Y-110443915D01*
X217712884Y-110244122D01*
X217713514Y-110236740D01*
X217714903Y-110183704D01*
X217714660Y-110176305D01*
X217696188Y-109975275D01*
X217694090Y-109963954D01*
X217682483Y-109922799D01*
X217979698Y-109922799D01*
X217986429Y-109926000D01*
X218827885Y-109926000D01*
X218843124Y-109921525D01*
X218844329Y-109920135D01*
X218846000Y-109912452D01*
X218846000Y-109077676D01*
X219354000Y-109077676D01*
X219354000Y-109907885D01*
X219358475Y-109923124D01*
X219359865Y-109924329D01*
X219367548Y-109926000D01*
X220205271Y-109926000D01*
X220218802Y-109922027D01*
X220219971Y-109913892D01*
X220179853Y-109771644D01*
X220175731Y-109760905D01*
X220087354Y-109581695D01*
X220081344Y-109571887D01*
X219961785Y-109411778D01*
X219954096Y-109403238D01*
X219807354Y-109267592D01*
X219798238Y-109260598D01*
X219629245Y-109153970D01*
X219618994Y-109148746D01*
X219433402Y-109074703D01*
X219422374Y-109071436D01*
X219371770Y-109061371D01*
X219358894Y-109062523D01*
X219354000Y-109077676D01*
X218846000Y-109077676D01*
X218846000Y-109074749D01*
X218842194Y-109061787D01*
X218827279Y-109059851D01*
X218806756Y-109063378D01*
X218795644Y-109066355D01*
X218608176Y-109135516D01*
X218597798Y-109140466D01*
X218426076Y-109242629D01*
X218416764Y-109249394D01*
X218266534Y-109381143D01*
X218258617Y-109389486D01*
X218134909Y-109546408D01*
X218128649Y-109556048D01*
X218035608Y-109732891D01*
X218031207Y-109743515D01*
X217979916Y-109908700D01*
X217979698Y-109922799D01*
X217682483Y-109922799D01*
X217639854Y-109771649D01*
X217635729Y-109760902D01*
X217547354Y-109581695D01*
X217541344Y-109571887D01*
X217421785Y-109411778D01*
X217414096Y-109403238D01*
X217267354Y-109267592D01*
X217258238Y-109260598D01*
X217089245Y-109153970D01*
X217078994Y-109148746D01*
X216893402Y-109074703D01*
X216882374Y-109071436D01*
X216831770Y-109061371D01*
X216818894Y-109062523D01*
X216814000Y-109077676D01*
X216814000Y-110308000D01*
X216793998Y-110376121D01*
X216740342Y-110422614D01*
X216688000Y-110434000D01*
X215455955Y-110434000D01*
X215442424Y-110437973D01*
X215441132Y-110446962D01*
X215469828Y-110559952D01*
X215473666Y-110570790D01*
X215557323Y-110752255D01*
X215563074Y-110762216D01*
X215678399Y-110925397D01*
X215685865Y-110934139D01*
X215829001Y-111073577D01*
X215837934Y-111080811D01*
X216004078Y-111191824D01*
X216014188Y-111197314D01*
X216197778Y-111276190D01*
X216208721Y-111279745D01*
X216403606Y-111323844D01*
X216420743Y-111326100D01*
X216420534Y-111327688D01*
X216480673Y-111347945D01*
X216525022Y-111403386D01*
X216532358Y-111474002D01*
X216500350Y-111537375D01*
X216439163Y-111573382D01*
X216429779Y-111575365D01*
X216266761Y-111603377D01*
X216255641Y-111606357D01*
X216068176Y-111675516D01*
X216057798Y-111680466D01*
X215886076Y-111782629D01*
X215876764Y-111789394D01*
X215726534Y-111921143D01*
X215718617Y-111929486D01*
X215594909Y-112086408D01*
X215588649Y-112096048D01*
X215495608Y-112272891D01*
X215491207Y-112283515D01*
X215439916Y-112448700D01*
X215439698Y-112462799D01*
X215446429Y-112466000D01*
X216688000Y-112466000D01*
X216756121Y-112486002D01*
X216802614Y-112539658D01*
X216814000Y-112592000D01*
X216814000Y-112848000D01*
X216793998Y-112916121D01*
X216740342Y-112962614D01*
X216688000Y-112974000D01*
X215455955Y-112974000D01*
X215442424Y-112977973D01*
X215441132Y-112986962D01*
X215469828Y-113099952D01*
X215473666Y-113110790D01*
X215557323Y-113292255D01*
X215563074Y-113302216D01*
X215678399Y-113465397D01*
X215685865Y-113474139D01*
X215829001Y-113613577D01*
X215837934Y-113620811D01*
X216004078Y-113731824D01*
X216014188Y-113737314D01*
X216197778Y-113816190D01*
X216208721Y-113819745D01*
X216403606Y-113863844D01*
X216420743Y-113866100D01*
X216420444Y-113868369D01*
X216478282Y-113887851D01*
X216522631Y-113943292D01*
X216529967Y-114013908D01*
X216497959Y-114077281D01*
X216436771Y-114113288D01*
X216427390Y-114115270D01*
X216260935Y-114143873D01*
X216062544Y-114217063D01*
X215880814Y-114325181D01*
X215721830Y-114464606D01*
X215590916Y-114630670D01*
X215492457Y-114817809D01*
X215429750Y-115019758D01*
X215404896Y-115229753D01*
X174585500Y-115229753D01*
X174585500Y-110772612D01*
X176974539Y-110772612D01*
X176993140Y-110941102D01*
X177011867Y-110992276D01*
X177044267Y-111080811D01*
X177051395Y-111100290D01*
X177055631Y-111106593D01*
X177055631Y-111106594D01*
X177064557Y-111119877D01*
X177145940Y-111240988D01*
X177271317Y-111355073D01*
X177420288Y-111435957D01*
X177584253Y-111478973D01*
X177672481Y-111480359D01*
X177746147Y-111481516D01*
X177746150Y-111481516D01*
X177753745Y-111481635D01*
X177812841Y-111468100D01*
X177911577Y-111445487D01*
X177911581Y-111445486D01*
X177918980Y-111443791D01*
X178070418Y-111367626D01*
X178149755Y-111299865D01*
X178193544Y-111262466D01*
X178193545Y-111262465D01*
X178199316Y-111257536D01*
X178298234Y-111119877D01*
X178316847Y-111073577D01*
X178358626Y-110969650D01*
X178358627Y-110969648D01*
X178361461Y-110962597D01*
X178372846Y-110882597D01*
X178384764Y-110798859D01*
X178384764Y-110798856D01*
X178385345Y-110794775D01*
X178385500Y-110780000D01*
X178376319Y-110704135D01*
X178374925Y-110692612D01*
X178824539Y-110692612D01*
X178843140Y-110861102D01*
X178901395Y-111020290D01*
X178905631Y-111026593D01*
X178905631Y-111026594D01*
X178914557Y-111039877D01*
X178995940Y-111160988D01*
X179121317Y-111275073D01*
X179174440Y-111303916D01*
X179258862Y-111349753D01*
X179270288Y-111355957D01*
X179434253Y-111398973D01*
X179522481Y-111400359D01*
X179596147Y-111401516D01*
X179596150Y-111401516D01*
X179603745Y-111401635D01*
X179682036Y-111383704D01*
X179761577Y-111365487D01*
X179761581Y-111365486D01*
X179768980Y-111363791D01*
X179920418Y-111287626D01*
X180049316Y-111177536D01*
X180148234Y-111039877D01*
X180175736Y-110971465D01*
X180208626Y-110889650D01*
X180208627Y-110889648D01*
X180211461Y-110882597D01*
X180235345Y-110714775D01*
X180235500Y-110700000D01*
X180215135Y-110531715D01*
X180212427Y-110524549D01*
X180157902Y-110380250D01*
X180157901Y-110380248D01*
X180155217Y-110373145D01*
X180117660Y-110318499D01*
X180095500Y-110247132D01*
X180095500Y-109922799D01*
X215439698Y-109922799D01*
X215446429Y-109926000D01*
X216287885Y-109926000D01*
X216303124Y-109921525D01*
X216304329Y-109920135D01*
X216306000Y-109912452D01*
X216306000Y-109074749D01*
X216302194Y-109061787D01*
X216287279Y-109059851D01*
X216266756Y-109063378D01*
X216255644Y-109066355D01*
X216068176Y-109135516D01*
X216057798Y-109140466D01*
X215886076Y-109242629D01*
X215876764Y-109249394D01*
X215726534Y-109381143D01*
X215718617Y-109389486D01*
X215594909Y-109546408D01*
X215588649Y-109556048D01*
X215495608Y-109732891D01*
X215491207Y-109743515D01*
X215439916Y-109908700D01*
X215439698Y-109922799D01*
X180095500Y-109922799D01*
X180095500Y-107969148D01*
X180115502Y-107901027D01*
X180132405Y-107880053D01*
X194618539Y-93393920D01*
X210442104Y-93393920D01*
X210460705Y-93562410D01*
X210468045Y-93582466D01*
X210507777Y-93691038D01*
X210518960Y-93721598D01*
X210613505Y-93862296D01*
X210738882Y-93976381D01*
X210745557Y-93980005D01*
X210750739Y-93983688D01*
X210794678Y-94039454D01*
X210801493Y-94110122D01*
X210769020Y-94173257D01*
X210760577Y-94181342D01*
X210695711Y-94237928D01*
X210669149Y-94275722D01*
X210623385Y-94340838D01*
X210598240Y-94376615D01*
X210536665Y-94534549D01*
X210535227Y-94545473D01*
X210517971Y-94676546D01*
X210514539Y-94702612D01*
X210533140Y-94871102D01*
X210535750Y-94878233D01*
X210576955Y-94990830D01*
X210591395Y-95030290D01*
X210685940Y-95170988D01*
X210811317Y-95285073D01*
X210957116Y-95364235D01*
X210957119Y-95364237D01*
X210960288Y-95365957D01*
X210960001Y-95366485D01*
X211011752Y-95406864D01*
X211035229Y-95473867D01*
X211018753Y-95542926D01*
X210967185Y-95592308D01*
X210823450Y-95666495D01*
X210817728Y-95671487D01*
X210817726Y-95671488D01*
X210787554Y-95697809D01*
X210695711Y-95777928D01*
X210598240Y-95916615D01*
X210536665Y-96074549D01*
X210532030Y-96109753D01*
X210520087Y-96200474D01*
X210514539Y-96242612D01*
X210533140Y-96411102D01*
X210549466Y-96455714D01*
X210577003Y-96530961D01*
X210591395Y-96570290D01*
X210685940Y-96710988D01*
X210811317Y-96825073D01*
X210817990Y-96828696D01*
X210817994Y-96828699D01*
X210916761Y-96882324D01*
X210967082Y-96932406D01*
X210982339Y-97001744D01*
X210957687Y-97068323D01*
X210914429Y-97105020D01*
X210860204Y-97133008D01*
X210860198Y-97133012D01*
X210853450Y-97136495D01*
X210847728Y-97141487D01*
X210847726Y-97141488D01*
X210831695Y-97155473D01*
X210725711Y-97247928D01*
X210700120Y-97284340D01*
X210642518Y-97366300D01*
X210628240Y-97386615D01*
X210566665Y-97544549D01*
X210563188Y-97570958D01*
X210553006Y-97648302D01*
X210544539Y-97712612D01*
X210563140Y-97881102D01*
X210621395Y-98040290D01*
X210625631Y-98046593D01*
X210625631Y-98046594D01*
X210642452Y-98071626D01*
X210715940Y-98180988D01*
X210841317Y-98295073D01*
X210990288Y-98375957D01*
X211154253Y-98418973D01*
X211242481Y-98420359D01*
X211316147Y-98421516D01*
X211316150Y-98421516D01*
X211323745Y-98421635D01*
X211382841Y-98408100D01*
X211481577Y-98385487D01*
X211481581Y-98385486D01*
X211488980Y-98383791D01*
X211640418Y-98307626D01*
X211677812Y-98275689D01*
X211742601Y-98246658D01*
X211759642Y-98245500D01*
X212070141Y-98245500D01*
X212138262Y-98265502D01*
X212159236Y-98282405D01*
X216737200Y-102860369D01*
X216740853Y-102864177D01*
X216781847Y-102908757D01*
X216789145Y-102913282D01*
X216789146Y-102913283D01*
X216816925Y-102930507D01*
X216826690Y-102937218D01*
X216859576Y-102962179D01*
X216867557Y-102965339D01*
X216867564Y-102965343D01*
X216872454Y-102967279D01*
X216892456Y-102977338D01*
X216904226Y-102984636D01*
X216927681Y-102991450D01*
X216943851Y-102996148D01*
X216955081Y-102999993D01*
X216985469Y-103012024D01*
X216993458Y-103015187D01*
X217002003Y-103016085D01*
X217002006Y-103016086D01*
X217007233Y-103016636D01*
X217029205Y-103020947D01*
X217036156Y-103022966D01*
X217036164Y-103022967D01*
X217042503Y-103024809D01*
X217049319Y-103025310D01*
X217049606Y-103025331D01*
X217049617Y-103025331D01*
X217051913Y-103025500D01*
X217084978Y-103025500D01*
X217098148Y-103026190D01*
X217136664Y-103030238D01*
X217145130Y-103028806D01*
X217145133Y-103028806D01*
X217154249Y-103027264D01*
X217175261Y-103025500D01*
X217978090Y-103025500D01*
X218046211Y-103045502D01*
X218062889Y-103058306D01*
X218075696Y-103069959D01*
X218075700Y-103069962D01*
X218081317Y-103075073D01*
X218230288Y-103155957D01*
X218394253Y-103198973D01*
X218482481Y-103200359D01*
X218556147Y-103201516D01*
X218556150Y-103201516D01*
X218563745Y-103201635D01*
X218622841Y-103188100D01*
X218721577Y-103165487D01*
X218721581Y-103165486D01*
X218728980Y-103163791D01*
X218868394Y-103093673D01*
X218873634Y-103091038D01*
X218880418Y-103087626D01*
X218980913Y-103001795D01*
X219003544Y-102982466D01*
X219003545Y-102982465D01*
X219009316Y-102977536D01*
X219108234Y-102839877D01*
X219125760Y-102796281D01*
X219168626Y-102689650D01*
X219168627Y-102689648D01*
X219171461Y-102682597D01*
X219182069Y-102608062D01*
X219194764Y-102518859D01*
X219194764Y-102518856D01*
X219195345Y-102514775D01*
X219195500Y-102500000D01*
X219189998Y-102454532D01*
X219176048Y-102339258D01*
X219176048Y-102339257D01*
X219175135Y-102331715D01*
X219115217Y-102173145D01*
X219110918Y-102166890D01*
X219110916Y-102166886D01*
X219023505Y-102039703D01*
X219023504Y-102039701D01*
X219019203Y-102033444D01*
X219013534Y-102028393D01*
X219008507Y-102022691D01*
X219009931Y-102021435D01*
X218977629Y-101969612D01*
X218978610Y-101898622D01*
X218996682Y-101862261D01*
X219049871Y-101788241D01*
X219051138Y-101789151D01*
X219095281Y-101745252D01*
X219164697Y-101730353D01*
X219231148Y-101755349D01*
X219244454Y-101766912D01*
X220192606Y-102715065D01*
X221138736Y-103661195D01*
X221172762Y-103723507D01*
X221174880Y-103736464D01*
X221177887Y-103763704D01*
X221188640Y-103861102D01*
X221246895Y-104020290D01*
X221341440Y-104160988D01*
X221466817Y-104275073D01*
X221615788Y-104355957D01*
X221779753Y-104398973D01*
X221867981Y-104400359D01*
X221941647Y-104401516D01*
X221941650Y-104401516D01*
X221949245Y-104401635D01*
X221956649Y-104399939D01*
X221956651Y-104399939D01*
X222070371Y-104373894D01*
X222141238Y-104378183D01*
X222198536Y-104420106D01*
X222224073Y-104486350D01*
X222224500Y-104496714D01*
X222224500Y-105428078D01*
X222204498Y-105496199D01*
X222186385Y-105517172D01*
X222186517Y-105517291D01*
X222181436Y-105522933D01*
X222175711Y-105527928D01*
X222078240Y-105666615D01*
X222016665Y-105824549D01*
X221994539Y-105992612D01*
X222013140Y-106161102D01*
X222015750Y-106168233D01*
X222062618Y-106296305D01*
X222071395Y-106320290D01*
X222075631Y-106326593D01*
X222075631Y-106326594D01*
X222084557Y-106339877D01*
X222165940Y-106460988D01*
X222291317Y-106575073D01*
X222440288Y-106655957D01*
X222604253Y-106698973D01*
X222692481Y-106700359D01*
X222766147Y-106701516D01*
X222766150Y-106701516D01*
X222773745Y-106701635D01*
X222832841Y-106688100D01*
X222931577Y-106665487D01*
X222931581Y-106665486D01*
X222938980Y-106663791D01*
X223090418Y-106587626D01*
X223219316Y-106477536D01*
X223318234Y-106339877D01*
X223381461Y-106182597D01*
X223395512Y-106083866D01*
X223404764Y-106018859D01*
X223404764Y-106018856D01*
X223405345Y-106014775D01*
X223405500Y-106000000D01*
X223391066Y-105880726D01*
X223386048Y-105839258D01*
X223386048Y-105839257D01*
X223385135Y-105831715D01*
X223382427Y-105824549D01*
X223327902Y-105680250D01*
X223327901Y-105680248D01*
X223325217Y-105673145D01*
X223320918Y-105666890D01*
X223320916Y-105666886D01*
X223233505Y-105539703D01*
X223233504Y-105539701D01*
X223229203Y-105533444D01*
X223217679Y-105523177D01*
X223180125Y-105462927D01*
X223175500Y-105429102D01*
X223175500Y-102807867D01*
X223176794Y-102796281D01*
X223176251Y-102796237D01*
X223176971Y-102787291D01*
X223178952Y-102778535D01*
X223175742Y-102726795D01*
X223175500Y-102718994D01*
X223175500Y-102705088D01*
X223174268Y-102696485D01*
X223173237Y-102686421D01*
X223171072Y-102651524D01*
X223170516Y-102642561D01*
X223167467Y-102634114D01*
X223166172Y-102627863D01*
X223164245Y-102620136D01*
X223162459Y-102614028D01*
X223161186Y-102605140D01*
X223142991Y-102565124D01*
X223139180Y-102555761D01*
X223124256Y-102514420D01*
X223118962Y-102507174D01*
X223115981Y-102501566D01*
X223111935Y-102494642D01*
X223108513Y-102489291D01*
X223104798Y-102481121D01*
X223076098Y-102447812D01*
X223069813Y-102439896D01*
X223065795Y-102434396D01*
X223065794Y-102434395D01*
X223062923Y-102430465D01*
X223053424Y-102420966D01*
X223047066Y-102414118D01*
X223021731Y-102384715D01*
X223021727Y-102384711D01*
X223015869Y-102377913D01*
X223008339Y-102373032D01*
X223001572Y-102367129D01*
X223001605Y-102367091D01*
X222990836Y-102358378D01*
X213745529Y-93113070D01*
X213738249Y-93103960D01*
X213737834Y-93104313D01*
X213732018Y-93097479D01*
X213727227Y-93089886D01*
X213688361Y-93055561D01*
X213682674Y-93050215D01*
X213672851Y-93040392D01*
X213667559Y-93036426D01*
X213665901Y-93035183D01*
X213658061Y-93028801D01*
X213631840Y-93005644D01*
X213625113Y-92999703D01*
X213616989Y-92995889D01*
X213611676Y-92992399D01*
X213604812Y-92988275D01*
X213599238Y-92985223D01*
X213592055Y-92979840D01*
X213550906Y-92964414D01*
X213541586Y-92960487D01*
X213535981Y-92957856D01*
X213501793Y-92941804D01*
X213492922Y-92940423D01*
X213486836Y-92938562D01*
X213479100Y-92936533D01*
X213472895Y-92935169D01*
X213464488Y-92932017D01*
X213441267Y-92930292D01*
X213420645Y-92928759D01*
X213410600Y-92927605D01*
X213407555Y-92927131D01*
X213399059Y-92925808D01*
X213385615Y-92925808D01*
X213376278Y-92925462D01*
X213362054Y-92924405D01*
X213328627Y-92921921D01*
X213319851Y-92923794D01*
X213310894Y-92924405D01*
X213310891Y-92924354D01*
X213297118Y-92925808D01*
X211714717Y-92925808D01*
X211646596Y-92905806D01*
X211630898Y-92893884D01*
X211555875Y-92827040D01*
X211555872Y-92827038D01*
X211550203Y-92821987D01*
X211400394Y-92742667D01*
X211235988Y-92701371D01*
X211228390Y-92701331D01*
X211228388Y-92701331D01*
X211155357Y-92700949D01*
X211066477Y-92700484D01*
X211059098Y-92702256D01*
X211059094Y-92702256D01*
X210909026Y-92738284D01*
X210909022Y-92738285D01*
X210901647Y-92740056D01*
X210751015Y-92817803D01*
X210745293Y-92822795D01*
X210745291Y-92822796D01*
X210740426Y-92827040D01*
X210623276Y-92929236D01*
X210589925Y-92976689D01*
X210550950Y-93032146D01*
X210525805Y-93067923D01*
X210464230Y-93225857D01*
X210463239Y-93233386D01*
X210443428Y-93383866D01*
X210442104Y-93393920D01*
X194618539Y-93393920D01*
X204605905Y-83406554D01*
X204668217Y-83372528D01*
X204739032Y-83377593D01*
X204784095Y-83406554D01*
X208905779Y-87528238D01*
X208913059Y-87537348D01*
X208913474Y-87536995D01*
X208919290Y-87543829D01*
X208924081Y-87551422D01*
X208930809Y-87557364D01*
X208930810Y-87557365D01*
X208962946Y-87585746D01*
X208968634Y-87591093D01*
X208978457Y-87600916D01*
X208983749Y-87604882D01*
X208985407Y-87606125D01*
X208993247Y-87612507D01*
X209019468Y-87635664D01*
X209026195Y-87641605D01*
X209034319Y-87645419D01*
X209039632Y-87648909D01*
X209046496Y-87653033D01*
X209052070Y-87656085D01*
X209059253Y-87661468D01*
X209100407Y-87676896D01*
X209109718Y-87680820D01*
X209141388Y-87695689D01*
X209141392Y-87695690D01*
X209149515Y-87699504D01*
X209158385Y-87700885D01*
X209164439Y-87702736D01*
X209172203Y-87704773D01*
X209178412Y-87706138D01*
X209186820Y-87709290D01*
X209230653Y-87712547D01*
X209240699Y-87713702D01*
X209247428Y-87714750D01*
X209247437Y-87714751D01*
X209252249Y-87715500D01*
X209265710Y-87715500D01*
X209275048Y-87715847D01*
X209313730Y-87718722D01*
X209313732Y-87718722D01*
X209322681Y-87719387D01*
X209331456Y-87717514D01*
X209340418Y-87716903D01*
X209340421Y-87716953D01*
X209354190Y-87715500D01*
X210620852Y-87715500D01*
X210688973Y-87735502D01*
X210709947Y-87752405D01*
X215417501Y-92459960D01*
X215451527Y-92522272D01*
X215446462Y-92593087D01*
X215425450Y-92627745D01*
X215425711Y-92627928D01*
X215421348Y-92634136D01*
X215421347Y-92634137D01*
X215344460Y-92743537D01*
X215328240Y-92766615D01*
X215266665Y-92924549D01*
X215265674Y-92932078D01*
X215248608Y-93061706D01*
X215244539Y-93092612D01*
X215263140Y-93261102D01*
X215265750Y-93268233D01*
X215310101Y-93389427D01*
X215321395Y-93420290D01*
X215325631Y-93426593D01*
X215325631Y-93426594D01*
X215334557Y-93439877D01*
X215415940Y-93560988D01*
X215541317Y-93675073D01*
X215690288Y-93755957D01*
X215854253Y-93798973D01*
X215942481Y-93800359D01*
X216016147Y-93801516D01*
X216016150Y-93801516D01*
X216023745Y-93801635D01*
X216114890Y-93780760D01*
X216181577Y-93765487D01*
X216181581Y-93765486D01*
X216188980Y-93763791D01*
X216340418Y-93687626D01*
X216419755Y-93619865D01*
X216463544Y-93582466D01*
X216463545Y-93582465D01*
X216469316Y-93577536D01*
X216568234Y-93439877D01*
X216600442Y-93359758D01*
X216628626Y-93289650D01*
X216628627Y-93289648D01*
X216631461Y-93282597D01*
X216655345Y-93114775D01*
X216655500Y-93100000D01*
X216635135Y-92931715D01*
X216632311Y-92924242D01*
X216577902Y-92780250D01*
X216577901Y-92780248D01*
X216575217Y-92773145D01*
X216570918Y-92766890D01*
X216570916Y-92766886D01*
X216483505Y-92639703D01*
X216483504Y-92639701D01*
X216479203Y-92633444D01*
X216467679Y-92623177D01*
X216430125Y-92562927D01*
X216425500Y-92529102D01*
X216425500Y-92387867D01*
X216426794Y-92376281D01*
X216426251Y-92376237D01*
X216426971Y-92367291D01*
X216428952Y-92358535D01*
X216425742Y-92306795D01*
X216425500Y-92298994D01*
X216425500Y-92285088D01*
X216424268Y-92276485D01*
X216423237Y-92266421D01*
X216421072Y-92231524D01*
X216420516Y-92222561D01*
X216417467Y-92214114D01*
X216416172Y-92207863D01*
X216414245Y-92200136D01*
X216412459Y-92194028D01*
X216411186Y-92185140D01*
X216392991Y-92145124D01*
X216389180Y-92135761D01*
X216377303Y-92102861D01*
X216374256Y-92094420D01*
X216368962Y-92087174D01*
X216365981Y-92081566D01*
X216361935Y-92074642D01*
X216358513Y-92069291D01*
X216354798Y-92061121D01*
X216326098Y-92027812D01*
X216319813Y-92019896D01*
X216315795Y-92014396D01*
X216315794Y-92014395D01*
X216312923Y-92010465D01*
X216303424Y-92000966D01*
X216297066Y-91994118D01*
X216271731Y-91964715D01*
X216271727Y-91964711D01*
X216265869Y-91957913D01*
X216258339Y-91953032D01*
X216251572Y-91947129D01*
X216251605Y-91947091D01*
X216240836Y-91938378D01*
X211902459Y-87600000D01*
X219044500Y-87600000D01*
X219044500Y-89300000D01*
X219044567Y-89301441D01*
X219044567Y-89301458D01*
X219045219Y-89315558D01*
X219045803Y-89328188D01*
X219076528Y-89436173D01*
X219144186Y-89525767D01*
X219239641Y-89584870D01*
X219251113Y-89587014D01*
X219251114Y-89587015D01*
X219344275Y-89604430D01*
X219344277Y-89604430D01*
X219350000Y-89605500D01*
X219985473Y-89605500D01*
X220053594Y-89625502D01*
X220100087Y-89679158D01*
X220110191Y-89749432D01*
X220080697Y-89814012D01*
X220020971Y-89852396D01*
X220006811Y-89855680D01*
X219900935Y-89873873D01*
X219702544Y-89947063D01*
X219697583Y-89950015D01*
X219697582Y-89950015D01*
X219562397Y-90030442D01*
X219520814Y-90055181D01*
X219361830Y-90194606D01*
X219230916Y-90360670D01*
X219228227Y-90365781D01*
X219228225Y-90365784D01*
X219180627Y-90456253D01*
X219132457Y-90547809D01*
X219069750Y-90749758D01*
X219044896Y-90959753D01*
X219058726Y-91170760D01*
X219110778Y-91375714D01*
X219199308Y-91567750D01*
X219321351Y-91740437D01*
X219472820Y-91887992D01*
X219477616Y-91891197D01*
X219477619Y-91891199D01*
X219582382Y-91961199D01*
X219648643Y-92005473D01*
X219653946Y-92007751D01*
X219653949Y-92007753D01*
X219837624Y-92086666D01*
X219842931Y-92088946D01*
X220049177Y-92135615D01*
X220054950Y-92135842D01*
X220060299Y-92136546D01*
X220125227Y-92165268D01*
X220164319Y-92224532D01*
X220165164Y-92295524D01*
X220127495Y-92355703D01*
X220065192Y-92385648D01*
X219906632Y-92412894D01*
X219900935Y-92413873D01*
X219702544Y-92487063D01*
X219697583Y-92490015D01*
X219697582Y-92490015D01*
X219562397Y-92570442D01*
X219520814Y-92595181D01*
X219361830Y-92734606D01*
X219230916Y-92900670D01*
X219228227Y-92905781D01*
X219228225Y-92905784D01*
X219182655Y-92992399D01*
X219132457Y-93087809D01*
X219069750Y-93289758D01*
X219044896Y-93499753D01*
X219058726Y-93710760D01*
X219110778Y-93915714D01*
X219199308Y-94107750D01*
X219321351Y-94280437D01*
X219472820Y-94427992D01*
X219477616Y-94431197D01*
X219477619Y-94431199D01*
X219582382Y-94501199D01*
X219648643Y-94545473D01*
X219653946Y-94547751D01*
X219653949Y-94547753D01*
X219837624Y-94626666D01*
X219842931Y-94628946D01*
X220049177Y-94675615D01*
X220054950Y-94675842D01*
X220060299Y-94676546D01*
X220125227Y-94705268D01*
X220164319Y-94764532D01*
X220165164Y-94835524D01*
X220127495Y-94895703D01*
X220065192Y-94925648D01*
X219906632Y-94952894D01*
X219900935Y-94953873D01*
X219702544Y-95027063D01*
X219697583Y-95030015D01*
X219697582Y-95030015D01*
X219562397Y-95110442D01*
X219520814Y-95135181D01*
X219361830Y-95274606D01*
X219230916Y-95440670D01*
X219228227Y-95445781D01*
X219228225Y-95445784D01*
X219180627Y-95536253D01*
X219132457Y-95627809D01*
X219069750Y-95829758D01*
X219044896Y-96039753D01*
X219058726Y-96250760D01*
X219110778Y-96455714D01*
X219199308Y-96647750D01*
X219321351Y-96820437D01*
X219325485Y-96824464D01*
X219453297Y-96948973D01*
X219472820Y-96967992D01*
X219477616Y-96971197D01*
X219477619Y-96971199D01*
X219579161Y-97039047D01*
X219648643Y-97085473D01*
X219653946Y-97087751D01*
X219653949Y-97087753D01*
X219828107Y-97162577D01*
X219842931Y-97168946D01*
X219995036Y-97203364D01*
X220015069Y-97207897D01*
X220049177Y-97215615D01*
X220054946Y-97215842D01*
X220054949Y-97215842D01*
X220135242Y-97218996D01*
X220260474Y-97223916D01*
X220348693Y-97211125D01*
X220464032Y-97194402D01*
X220464037Y-97194401D01*
X220469746Y-97193573D01*
X220475210Y-97191718D01*
X220475215Y-97191717D01*
X220664512Y-97127460D01*
X220664517Y-97127458D01*
X220669984Y-97125602D01*
X220854482Y-97022278D01*
X221017062Y-96887062D01*
X221152278Y-96724482D01*
X221255602Y-96539984D01*
X221257458Y-96534517D01*
X221257460Y-96534512D01*
X221321717Y-96345215D01*
X221321718Y-96345210D01*
X221323573Y-96339746D01*
X221324401Y-96334037D01*
X221324402Y-96334032D01*
X221344304Y-96196765D01*
X221353916Y-96130474D01*
X221355500Y-96070000D01*
X221339857Y-95899758D01*
X221336680Y-95865181D01*
X221336679Y-95865178D01*
X221336151Y-95859427D01*
X221328790Y-95833325D01*
X221280320Y-95661465D01*
X221280319Y-95661463D01*
X221278752Y-95655906D01*
X221264897Y-95627809D01*
X221187781Y-95471434D01*
X221185226Y-95466253D01*
X221058704Y-95296820D01*
X220903424Y-95153280D01*
X220898541Y-95150199D01*
X220898537Y-95150196D01*
X220729470Y-95043523D01*
X220729465Y-95043521D01*
X220724586Y-95040442D01*
X220528180Y-94962084D01*
X220345005Y-94925648D01*
X220325650Y-94921798D01*
X220262741Y-94888890D01*
X220227609Y-94827195D01*
X220231409Y-94756300D01*
X220272935Y-94698714D01*
X220332151Y-94673523D01*
X220367042Y-94668464D01*
X220464032Y-94654402D01*
X220464037Y-94654401D01*
X220469746Y-94653573D01*
X220475210Y-94651718D01*
X220475215Y-94651717D01*
X220664512Y-94587460D01*
X220664517Y-94587458D01*
X220669984Y-94585602D01*
X220854482Y-94482278D01*
X221017062Y-94347062D01*
X221152278Y-94184482D01*
X221255602Y-93999984D01*
X221257458Y-93994517D01*
X221257460Y-93994512D01*
X221321717Y-93805215D01*
X221321718Y-93805210D01*
X221323573Y-93799746D01*
X221324401Y-93794037D01*
X221324402Y-93794032D01*
X221344304Y-93656765D01*
X221353916Y-93590474D01*
X221355500Y-93530000D01*
X221339857Y-93359758D01*
X221336680Y-93325181D01*
X221336679Y-93325178D01*
X221336151Y-93319427D01*
X221327784Y-93289758D01*
X221280320Y-93121465D01*
X221280319Y-93121463D01*
X221278752Y-93115906D01*
X221276161Y-93110650D01*
X221187781Y-92931434D01*
X221185226Y-92926253D01*
X221169958Y-92905806D01*
X221111140Y-92827040D01*
X221058704Y-92756820D01*
X220925237Y-92633444D01*
X220907669Y-92617204D01*
X220903424Y-92613280D01*
X220898541Y-92610199D01*
X220898537Y-92610196D01*
X220729470Y-92503523D01*
X220729465Y-92503521D01*
X220724586Y-92500442D01*
X220528180Y-92422084D01*
X220386592Y-92393920D01*
X220325650Y-92381798D01*
X220262741Y-92348890D01*
X220227609Y-92287195D01*
X220231409Y-92216300D01*
X220272935Y-92158714D01*
X220332151Y-92133523D01*
X220367042Y-92128464D01*
X220464032Y-92114402D01*
X220464037Y-92114401D01*
X220469746Y-92113573D01*
X220475210Y-92111718D01*
X220475215Y-92111717D01*
X220664512Y-92047460D01*
X220664517Y-92047458D01*
X220669984Y-92045602D01*
X220854482Y-91942278D01*
X221017062Y-91807062D01*
X221152278Y-91644482D01*
X221255602Y-91459984D01*
X221257458Y-91454517D01*
X221257460Y-91454512D01*
X221321717Y-91265215D01*
X221321718Y-91265210D01*
X221323573Y-91259746D01*
X221324401Y-91254037D01*
X221324402Y-91254032D01*
X221344304Y-91116765D01*
X221353916Y-91050474D01*
X221355500Y-90990000D01*
X221339857Y-90819758D01*
X221336680Y-90785181D01*
X221336679Y-90785178D01*
X221336151Y-90779427D01*
X221327784Y-90749758D01*
X221280320Y-90581465D01*
X221280319Y-90581463D01*
X221278752Y-90575906D01*
X221264897Y-90547809D01*
X221187781Y-90391434D01*
X221185226Y-90386253D01*
X221058704Y-90216820D01*
X220903424Y-90073280D01*
X220898541Y-90070199D01*
X220898537Y-90070196D01*
X220729470Y-89963523D01*
X220729465Y-89963521D01*
X220724586Y-89960442D01*
X220528180Y-89882084D01*
X220522520Y-89880958D01*
X220522516Y-89880957D01*
X220409055Y-89858389D01*
X220392417Y-89855079D01*
X220329507Y-89822171D01*
X220294375Y-89760476D01*
X220298175Y-89689582D01*
X220339701Y-89631996D01*
X220405768Y-89606001D01*
X220416998Y-89605500D01*
X221050000Y-89605500D01*
X221051441Y-89605433D01*
X221051458Y-89605433D01*
X221065558Y-89604781D01*
X221078188Y-89604197D01*
X221186173Y-89573472D01*
X221275767Y-89505814D01*
X221334870Y-89410359D01*
X221349402Y-89332624D01*
X221354430Y-89305725D01*
X221354430Y-89305723D01*
X221355500Y-89300000D01*
X221355500Y-87600000D01*
X221355236Y-87594275D01*
X221354533Y-87579084D01*
X221354197Y-87571812D01*
X221323472Y-87463827D01*
X221255814Y-87374233D01*
X221160359Y-87315130D01*
X221148887Y-87312986D01*
X221148886Y-87312985D01*
X221055725Y-87295570D01*
X221055723Y-87295570D01*
X221050000Y-87294500D01*
X219350000Y-87294500D01*
X219348559Y-87294567D01*
X219348542Y-87294567D01*
X219334442Y-87295219D01*
X219321812Y-87295803D01*
X219213827Y-87326528D01*
X219124233Y-87394186D01*
X219065130Y-87489641D01*
X219062986Y-87501113D01*
X219062985Y-87501114D01*
X219046558Y-87588991D01*
X219044500Y-87600000D01*
X211902459Y-87600000D01*
X211254221Y-86951762D01*
X211246941Y-86942652D01*
X211246526Y-86943005D01*
X211240710Y-86936171D01*
X211235919Y-86928578D01*
X211197053Y-86894253D01*
X211191366Y-86888907D01*
X211181543Y-86879084D01*
X211176251Y-86875118D01*
X211174593Y-86873875D01*
X211166753Y-86867493D01*
X211140532Y-86844336D01*
X211133805Y-86838395D01*
X211125681Y-86834581D01*
X211120368Y-86831091D01*
X211113504Y-86826967D01*
X211107930Y-86823915D01*
X211100747Y-86818532D01*
X211059598Y-86803106D01*
X211050278Y-86799179D01*
X211036316Y-86792624D01*
X211010485Y-86780496D01*
X211001614Y-86779115D01*
X210995528Y-86777254D01*
X210987792Y-86775225D01*
X210981587Y-86773861D01*
X210973180Y-86770709D01*
X210949959Y-86768984D01*
X210929337Y-86767451D01*
X210919292Y-86766297D01*
X210916247Y-86765823D01*
X210907751Y-86764500D01*
X210894307Y-86764500D01*
X210884970Y-86764154D01*
X210870746Y-86763097D01*
X210837319Y-86760613D01*
X210828543Y-86762486D01*
X210819586Y-86763097D01*
X210819583Y-86763046D01*
X210805810Y-86764500D01*
X209539148Y-86764500D01*
X209471027Y-86744498D01*
X209450053Y-86727595D01*
X205451788Y-82729329D01*
X205417762Y-82667017D01*
X205415497Y-82650290D01*
X205415500Y-82650000D01*
X205401294Y-82532612D01*
X205396048Y-82489258D01*
X205396048Y-82489257D01*
X205395135Y-82481715D01*
X205392427Y-82474549D01*
X205337902Y-82330250D01*
X205337901Y-82330248D01*
X205335217Y-82323145D01*
X205330918Y-82316890D01*
X205330916Y-82316886D01*
X205243505Y-82189703D01*
X205243504Y-82189701D01*
X205239203Y-82183444D01*
X205112638Y-82070679D01*
X204962829Y-81991359D01*
X204798423Y-81950063D01*
X204790825Y-81950023D01*
X204790823Y-81950023D01*
X204717792Y-81949641D01*
X204628912Y-81949176D01*
X204621533Y-81950948D01*
X204621529Y-81950948D01*
X204471461Y-81986976D01*
X204471457Y-81986977D01*
X204464082Y-81988748D01*
X204396610Y-82023573D01*
X204356375Y-82044340D01*
X204313450Y-82066495D01*
X204307728Y-82071487D01*
X204307726Y-82071488D01*
X204248342Y-82123292D01*
X204185711Y-82177928D01*
X204165359Y-82206886D01*
X204104635Y-82293288D01*
X204088240Y-82316615D01*
X204026665Y-82474549D01*
X204017003Y-82547939D01*
X204007030Y-82623690D01*
X203978307Y-82688618D01*
X203971203Y-82696339D01*
X179331762Y-107335779D01*
X179322652Y-107343059D01*
X179323005Y-107343474D01*
X179316171Y-107349290D01*
X179308578Y-107354081D01*
X179302636Y-107360809D01*
X179302635Y-107360810D01*
X179274254Y-107392946D01*
X179268907Y-107398634D01*
X179259084Y-107408457D01*
X179256391Y-107412051D01*
X179253875Y-107415407D01*
X179247493Y-107423247D01*
X179246473Y-107424402D01*
X179218395Y-107456195D01*
X179214581Y-107464319D01*
X179211091Y-107469632D01*
X179206967Y-107476496D01*
X179203915Y-107482070D01*
X179198532Y-107489253D01*
X179195381Y-107497659D01*
X179183106Y-107530402D01*
X179179179Y-107539722D01*
X179160496Y-107579515D01*
X179159115Y-107588386D01*
X179157254Y-107594472D01*
X179155225Y-107602208D01*
X179153861Y-107608413D01*
X179150709Y-107616820D01*
X179150044Y-107625773D01*
X179147451Y-107660663D01*
X179146297Y-107670708D01*
X179144500Y-107682249D01*
X179144500Y-107695693D01*
X179144154Y-107705030D01*
X179140613Y-107752681D01*
X179142486Y-107761457D01*
X179143097Y-107770414D01*
X179143046Y-107770417D01*
X179144500Y-107784190D01*
X179144500Y-110049567D01*
X179124498Y-110117688D01*
X179101330Y-110144515D01*
X179005711Y-110227928D01*
X178979237Y-110265597D01*
X178919607Y-110350442D01*
X178908240Y-110366615D01*
X178846665Y-110524549D01*
X178845674Y-110532078D01*
X178830898Y-110644313D01*
X178824539Y-110692612D01*
X178374925Y-110692612D01*
X178366048Y-110619258D01*
X178366048Y-110619257D01*
X178365135Y-110611715D01*
X178361803Y-110602896D01*
X178307902Y-110460250D01*
X178307901Y-110460248D01*
X178305217Y-110453145D01*
X178300918Y-110446890D01*
X178300916Y-110446886D01*
X178213505Y-110319703D01*
X178213504Y-110319701D01*
X178209203Y-110313444D01*
X178197679Y-110303177D01*
X178160125Y-110242927D01*
X178155500Y-110209102D01*
X178155500Y-107269148D01*
X178175502Y-107201027D01*
X178192405Y-107180053D01*
X202094843Y-83277616D01*
X202157155Y-83243590D01*
X202185916Y-83240727D01*
X202236147Y-83241516D01*
X202236150Y-83241516D01*
X202243745Y-83241635D01*
X202314251Y-83225487D01*
X202401577Y-83205487D01*
X202401581Y-83205486D01*
X202408980Y-83203791D01*
X202560418Y-83127626D01*
X202665899Y-83037536D01*
X202683544Y-83022466D01*
X202683545Y-83022465D01*
X202689316Y-83017536D01*
X202788234Y-82879877D01*
X202814000Y-82815784D01*
X202848626Y-82729650D01*
X202848627Y-82729648D01*
X202851461Y-82722597D01*
X202859690Y-82664775D01*
X202874764Y-82558859D01*
X202874764Y-82558856D01*
X202875345Y-82554775D01*
X202875417Y-82547916D01*
X202875457Y-82544135D01*
X202875457Y-82544129D01*
X202875500Y-82540000D01*
X202874467Y-82531465D01*
X202856048Y-82379258D01*
X202856048Y-82379257D01*
X202855135Y-82371715D01*
X202850983Y-82360726D01*
X202797902Y-82220250D01*
X202797901Y-82220248D01*
X202795217Y-82213145D01*
X202790918Y-82206890D01*
X202790916Y-82206886D01*
X202703505Y-82079703D01*
X202703504Y-82079701D01*
X202699203Y-82073444D01*
X202692109Y-82067123D01*
X202640600Y-82021231D01*
X202572638Y-81960679D01*
X202565692Y-81957001D01*
X202473715Y-81908302D01*
X202422829Y-81881359D01*
X202258423Y-81840063D01*
X202250825Y-81840023D01*
X202250823Y-81840023D01*
X202177792Y-81839641D01*
X202088912Y-81839176D01*
X202081533Y-81840948D01*
X202081529Y-81840948D01*
X201931461Y-81876976D01*
X201931457Y-81876977D01*
X201924082Y-81878748D01*
X201859148Y-81912263D01*
X201780652Y-81952778D01*
X201773450Y-81956495D01*
X201767728Y-81961487D01*
X201767726Y-81961488D01*
X201721026Y-82002227D01*
X201645711Y-82067928D01*
X201623379Y-82099703D01*
X201557171Y-82193908D01*
X201548240Y-82206615D01*
X201486665Y-82364549D01*
X201473115Y-82467473D01*
X201465514Y-82525206D01*
X201436792Y-82590134D01*
X201429687Y-82597855D01*
X189409788Y-94617753D01*
X177391762Y-106635779D01*
X177382652Y-106643059D01*
X177383005Y-106643474D01*
X177376171Y-106649290D01*
X177368578Y-106654081D01*
X177362636Y-106660809D01*
X177362635Y-106660810D01*
X177334254Y-106692946D01*
X177328907Y-106698634D01*
X177319084Y-106708457D01*
X177316391Y-106712051D01*
X177313875Y-106715407D01*
X177307493Y-106723247D01*
X177278395Y-106756195D01*
X177274581Y-106764319D01*
X177271091Y-106769632D01*
X177266967Y-106776496D01*
X177263915Y-106782070D01*
X177258532Y-106789253D01*
X177255381Y-106797659D01*
X177243106Y-106830402D01*
X177239179Y-106839722D01*
X177220496Y-106879515D01*
X177219115Y-106888386D01*
X177217254Y-106894472D01*
X177215225Y-106902208D01*
X177213861Y-106908413D01*
X177210709Y-106916820D01*
X177210044Y-106925773D01*
X177207451Y-106960663D01*
X177206297Y-106970708D01*
X177204500Y-106982249D01*
X177204500Y-106995693D01*
X177204154Y-107005030D01*
X177200613Y-107052681D01*
X177202486Y-107061457D01*
X177203097Y-107070414D01*
X177203046Y-107070417D01*
X177204500Y-107084190D01*
X177204500Y-110208078D01*
X177184498Y-110276199D01*
X177166385Y-110297172D01*
X177166517Y-110297291D01*
X177161436Y-110302933D01*
X177155711Y-110307928D01*
X177136639Y-110335065D01*
X177064300Y-110437993D01*
X177058240Y-110446615D01*
X176996665Y-110604549D01*
X176995674Y-110612078D01*
X176975908Y-110762216D01*
X176974539Y-110772612D01*
X174585500Y-110772612D01*
X174585500Y-105769859D01*
X174605502Y-105701738D01*
X174622405Y-105680764D01*
X197007226Y-83295944D01*
X197069538Y-83261918D01*
X197071515Y-83261600D01*
X197073745Y-83261635D01*
X197148508Y-83244512D01*
X197231577Y-83225487D01*
X197231581Y-83225486D01*
X197238980Y-83223791D01*
X197390418Y-83147626D01*
X197519316Y-83037536D01*
X197618234Y-82899877D01*
X197652040Y-82815784D01*
X197678626Y-82749650D01*
X197678627Y-82749648D01*
X197681461Y-82742597D01*
X197689143Y-82688618D01*
X197704764Y-82578859D01*
X197704764Y-82578856D01*
X197705345Y-82574775D01*
X197705500Y-82560000D01*
X197700683Y-82520196D01*
X197686048Y-82399258D01*
X197686048Y-82399257D01*
X197685135Y-82391715D01*
X197680428Y-82379258D01*
X197627902Y-82240250D01*
X197627901Y-82240248D01*
X197625217Y-82233145D01*
X197620918Y-82226890D01*
X197620916Y-82226886D01*
X197533505Y-82099703D01*
X197533504Y-82099701D01*
X197529203Y-82093444D01*
X197509324Y-82075732D01*
X197472846Y-82043232D01*
X197402638Y-81980679D01*
X197356963Y-81956495D01*
X197282963Y-81917314D01*
X197252829Y-81901359D01*
X197088423Y-81860063D01*
X197080825Y-81860023D01*
X197080823Y-81860023D01*
X197007792Y-81859641D01*
X196918912Y-81859176D01*
X196911533Y-81860948D01*
X196911529Y-81860948D01*
X196761461Y-81896976D01*
X196761457Y-81896977D01*
X196754082Y-81898748D01*
X196728748Y-81911824D01*
X196632526Y-81961488D01*
X196603450Y-81976495D01*
X196597728Y-81981487D01*
X196597726Y-81981488D01*
X196566199Y-82008991D01*
X196475711Y-82087928D01*
X196450857Y-82123292D01*
X196392106Y-82206886D01*
X196378240Y-82226615D01*
X196316665Y-82384549D01*
X196304809Y-82474609D01*
X196304719Y-82475290D01*
X196275997Y-82540217D01*
X196268892Y-82547939D01*
X173699619Y-105117211D01*
X173695811Y-105120864D01*
X173651243Y-105161847D01*
X173646717Y-105169146D01*
X173646715Y-105169149D01*
X173629498Y-105196918D01*
X173622784Y-105206688D01*
X173597821Y-105239575D01*
X173592727Y-105252443D01*
X173582659Y-105272461D01*
X173575364Y-105284226D01*
X173572969Y-105292470D01*
X173572968Y-105292472D01*
X173563851Y-105323854D01*
X173560006Y-105335083D01*
X173549260Y-105362227D01*
X173544813Y-105373458D01*
X173543915Y-105382003D01*
X173543914Y-105382006D01*
X173543364Y-105387233D01*
X173539053Y-105409205D01*
X173537034Y-105416156D01*
X173537033Y-105416164D01*
X173535191Y-105422503D01*
X173534500Y-105431913D01*
X173534500Y-105464978D01*
X173533810Y-105478148D01*
X173529762Y-105516664D01*
X173531194Y-105525130D01*
X173531194Y-105525133D01*
X173532736Y-105534249D01*
X173534500Y-105555261D01*
X173534500Y-130970140D01*
X173514498Y-131038261D01*
X173497595Y-131059236D01*
X173039234Y-131517596D01*
X172976922Y-131551621D01*
X172950139Y-131554500D01*
X171443256Y-131554500D01*
X171375135Y-131534498D01*
X171328642Y-131480842D01*
X171318538Y-131410568D01*
X171348032Y-131345988D01*
X171356366Y-131337252D01*
X171361565Y-131332302D01*
X171370566Y-131321573D01*
X171462079Y-131183835D01*
X171468482Y-131171376D01*
X171502839Y-131080934D01*
X171503929Y-131066876D01*
X171498737Y-131064000D01*
X168739524Y-131064000D01*
X168725993Y-131067973D01*
X168725009Y-131074821D01*
X168747015Y-131140973D01*
X168752890Y-131153688D01*
X168786033Y-131208414D01*
X168804212Y-131277043D01*
X168782402Y-131344607D01*
X168771372Y-131358571D01*
X168763554Y-131367147D01*
X168754233Y-131374186D01*
X168695130Y-131469641D01*
X168692986Y-131481113D01*
X168692985Y-131481114D01*
X168679805Y-131551621D01*
X168674500Y-131580000D01*
X165250000Y-131580000D01*
X165250000Y-126988753D01*
X168674579Y-126988753D01*
X168675266Y-126995760D01*
X168675266Y-126995763D01*
X168687057Y-127116022D01*
X168692102Y-127167473D01*
X168748785Y-127337869D01*
X168841811Y-127491472D01*
X168846702Y-127496537D01*
X168846703Y-127496538D01*
X168895408Y-127546973D01*
X168928340Y-127609869D01*
X168922040Y-127680586D01*
X168892931Y-127724522D01*
X168855782Y-127760900D01*
X168851963Y-127766825D01*
X168851962Y-127766827D01*
X168762323Y-127905920D01*
X168758504Y-127911846D01*
X168756095Y-127918466D01*
X168756093Y-127918469D01*
X168727795Y-127996219D01*
X168697085Y-128080593D01*
X168674579Y-128258753D01*
X168675266Y-128265760D01*
X168675266Y-128265763D01*
X168687057Y-128386022D01*
X168692102Y-128437473D01*
X168748785Y-128607869D01*
X168841811Y-128761472D01*
X168846702Y-128766537D01*
X168846703Y-128766538D01*
X168895408Y-128816973D01*
X168928340Y-128879869D01*
X168922040Y-128950586D01*
X168892931Y-128994522D01*
X168855782Y-129030900D01*
X168851963Y-129036825D01*
X168851962Y-129036827D01*
X168762323Y-129175920D01*
X168758504Y-129181846D01*
X168756095Y-129188466D01*
X168756093Y-129188469D01*
X168727795Y-129266219D01*
X168697085Y-129350593D01*
X168674579Y-129528753D01*
X168675266Y-129535760D01*
X168675266Y-129535763D01*
X168686234Y-129647629D01*
X168692102Y-129707473D01*
X168748785Y-129877869D01*
X168841811Y-130031472D01*
X168846702Y-130036537D01*
X168846703Y-130036538D01*
X168895753Y-130087331D01*
X168928685Y-130150228D01*
X168922385Y-130220945D01*
X168893274Y-130264881D01*
X168861207Y-130296283D01*
X168852350Y-130307143D01*
X168762771Y-130446143D01*
X168756541Y-130458692D01*
X168727320Y-130538977D01*
X168726426Y-130553050D01*
X168731932Y-130556000D01*
X171490535Y-130556000D01*
X171504066Y-130552027D01*
X171505001Y-130545522D01*
X171478292Y-130468825D01*
X171472241Y-130456196D01*
X171384606Y-130315950D01*
X171375910Y-130304978D01*
X171336092Y-130264882D01*
X171302284Y-130202451D01*
X171307595Y-130131654D01*
X171338605Y-130084852D01*
X171361945Y-130062626D01*
X171361947Y-130062624D01*
X171367049Y-130057765D01*
X171466425Y-129908192D01*
X171530194Y-129740320D01*
X171535795Y-129700465D01*
X171554635Y-129566414D01*
X171554635Y-129566409D01*
X171555186Y-129562491D01*
X171555500Y-129540000D01*
X171535483Y-129361543D01*
X171529364Y-129343970D01*
X171478744Y-129198612D01*
X171476426Y-129191955D01*
X171381265Y-129039665D01*
X171336452Y-128994538D01*
X171302645Y-128932107D01*
X171307957Y-128861310D01*
X171338964Y-128814510D01*
X171367049Y-128787765D01*
X171466425Y-128638192D01*
X171530194Y-128470320D01*
X171555186Y-128292491D01*
X171555500Y-128270000D01*
X171535483Y-128091543D01*
X171529364Y-128073970D01*
X171478744Y-127928612D01*
X171476426Y-127921955D01*
X171381265Y-127769665D01*
X171336452Y-127724538D01*
X171302645Y-127662107D01*
X171307957Y-127591310D01*
X171338964Y-127544510D01*
X171367049Y-127517765D01*
X171466425Y-127368192D01*
X171530194Y-127200320D01*
X171555186Y-127022491D01*
X171555500Y-127000000D01*
X171535483Y-126821543D01*
X171529364Y-126803970D01*
X171487666Y-126684232D01*
X171476426Y-126651955D01*
X171381265Y-126499665D01*
X171301309Y-126419149D01*
X171259692Y-126377240D01*
X171259688Y-126377237D01*
X171254729Y-126372243D01*
X171237905Y-126361566D01*
X171109062Y-126279799D01*
X171109058Y-126279797D01*
X171103108Y-126276021D01*
X170933937Y-126215782D01*
X170755623Y-126194520D01*
X170748620Y-126195256D01*
X170748619Y-126195256D01*
X170704810Y-126199860D01*
X170577031Y-126213290D01*
X170570363Y-126215560D01*
X170413702Y-126268892D01*
X170413699Y-126268893D01*
X170407035Y-126271162D01*
X170254085Y-126365257D01*
X170224498Y-126394231D01*
X170203406Y-126414885D01*
X170140741Y-126448255D01*
X170069982Y-126442449D01*
X170025843Y-126413645D01*
X169989692Y-126377240D01*
X169989688Y-126377237D01*
X169984729Y-126372243D01*
X169967905Y-126361566D01*
X169839062Y-126279799D01*
X169839058Y-126279797D01*
X169833108Y-126276021D01*
X169663937Y-126215782D01*
X169485623Y-126194520D01*
X169478620Y-126195256D01*
X169478619Y-126195256D01*
X169434810Y-126199860D01*
X169307031Y-126213290D01*
X169300363Y-126215560D01*
X169143702Y-126268892D01*
X169143699Y-126268893D01*
X169137035Y-126271162D01*
X168984085Y-126365257D01*
X168979054Y-126370183D01*
X168979051Y-126370186D01*
X168933406Y-126414885D01*
X168855782Y-126490900D01*
X168851963Y-126496825D01*
X168851962Y-126496827D01*
X168832563Y-126526929D01*
X168758504Y-126641846D01*
X168756095Y-126648466D01*
X168756093Y-126648469D01*
X168744950Y-126679085D01*
X168697085Y-126810593D01*
X168674579Y-126988753D01*
X165250000Y-126988753D01*
X165250000Y-76850000D01*
X183844500Y-76850000D01*
X183844500Y-78550000D01*
X183844567Y-78551441D01*
X183844567Y-78551458D01*
X183845219Y-78565558D01*
X183845803Y-78578188D01*
X183876528Y-78686173D01*
X183944186Y-78775767D01*
X184039641Y-78834870D01*
X184051113Y-78837014D01*
X184051114Y-78837015D01*
X184144275Y-78854430D01*
X184144277Y-78854430D01*
X184150000Y-78855500D01*
X184785473Y-78855500D01*
X184853594Y-78875502D01*
X184900087Y-78929158D01*
X184910191Y-78999432D01*
X184880697Y-79064012D01*
X184820971Y-79102396D01*
X184806811Y-79105680D01*
X184755692Y-79114464D01*
X184700935Y-79123873D01*
X184502544Y-79197063D01*
X184497583Y-79200015D01*
X184497582Y-79200015D01*
X184374346Y-79273333D01*
X184320814Y-79305181D01*
X184161830Y-79444606D01*
X184030916Y-79610670D01*
X183932457Y-79797809D01*
X183869750Y-79999758D01*
X183844896Y-80209753D01*
X183858726Y-80420760D01*
X183910778Y-80625714D01*
X183999308Y-80817750D01*
X184121351Y-80990437D01*
X184272820Y-81137992D01*
X184277616Y-81141197D01*
X184277619Y-81141199D01*
X184320343Y-81169746D01*
X184448643Y-81255473D01*
X184453946Y-81257751D01*
X184453949Y-81257753D01*
X184530845Y-81290790D01*
X184642931Y-81338946D01*
X184849177Y-81385615D01*
X184854950Y-81385842D01*
X184860299Y-81386546D01*
X184925227Y-81415268D01*
X184964319Y-81474532D01*
X184965164Y-81545524D01*
X184927495Y-81605703D01*
X184865192Y-81635648D01*
X184706632Y-81662894D01*
X184700935Y-81663873D01*
X184502544Y-81737063D01*
X184497583Y-81740015D01*
X184497582Y-81740015D01*
X184329417Y-81840063D01*
X184320814Y-81845181D01*
X184161830Y-81984606D01*
X184030916Y-82150670D01*
X184028227Y-82155781D01*
X184028225Y-82155784D01*
X184008167Y-82193908D01*
X183932457Y-82337809D01*
X183869750Y-82539758D01*
X183844896Y-82749753D01*
X183858726Y-82960760D01*
X183910778Y-83165714D01*
X183999308Y-83357750D01*
X184121351Y-83530437D01*
X184272820Y-83677992D01*
X184277616Y-83681197D01*
X184277619Y-83681199D01*
X184320343Y-83709746D01*
X184448643Y-83795473D01*
X184453946Y-83797751D01*
X184453949Y-83797753D01*
X184637624Y-83876666D01*
X184642931Y-83878946D01*
X184849177Y-83925615D01*
X184854950Y-83925842D01*
X184860299Y-83926546D01*
X184925227Y-83955268D01*
X184964319Y-84014532D01*
X184965164Y-84085524D01*
X184927495Y-84145703D01*
X184865192Y-84175648D01*
X184706632Y-84202894D01*
X184700935Y-84203873D01*
X184502544Y-84277063D01*
X184497583Y-84280015D01*
X184497582Y-84280015D01*
X184400132Y-84337992D01*
X184320814Y-84385181D01*
X184161830Y-84524606D01*
X184030916Y-84690670D01*
X183932457Y-84877809D01*
X183869750Y-85079758D01*
X183844896Y-85289753D01*
X183858726Y-85500760D01*
X183910778Y-85705714D01*
X183999308Y-85897750D01*
X184121351Y-86070437D01*
X184272820Y-86217992D01*
X184277616Y-86221197D01*
X184277619Y-86221199D01*
X184320343Y-86249746D01*
X184448643Y-86335473D01*
X184453946Y-86337751D01*
X184453949Y-86337753D01*
X184531243Y-86370961D01*
X184642931Y-86418946D01*
X184849177Y-86465615D01*
X184854946Y-86465842D01*
X184854949Y-86465842D01*
X184935242Y-86468996D01*
X185060474Y-86473916D01*
X185148693Y-86461125D01*
X185264032Y-86444402D01*
X185264037Y-86444401D01*
X185269746Y-86443573D01*
X185275210Y-86441718D01*
X185275215Y-86441717D01*
X185464512Y-86377460D01*
X185464517Y-86377458D01*
X185469984Y-86375602D01*
X185487641Y-86365714D01*
X185547371Y-86332263D01*
X185654482Y-86272278D01*
X185817062Y-86137062D01*
X185952278Y-85974482D01*
X186055602Y-85789984D01*
X186057458Y-85784517D01*
X186057460Y-85784512D01*
X186121717Y-85595215D01*
X186121718Y-85595210D01*
X186123573Y-85589746D01*
X186124401Y-85584037D01*
X186124402Y-85584032D01*
X186153383Y-85384148D01*
X186153916Y-85380474D01*
X186155500Y-85320000D01*
X186136151Y-85109427D01*
X186127784Y-85079758D01*
X186080320Y-84911465D01*
X186080319Y-84911463D01*
X186078752Y-84905906D01*
X186064897Y-84877809D01*
X185987781Y-84721434D01*
X185985226Y-84716253D01*
X185858704Y-84546820D01*
X185703424Y-84403280D01*
X185698541Y-84400199D01*
X185698537Y-84400196D01*
X185529470Y-84293523D01*
X185529465Y-84293521D01*
X185524586Y-84290442D01*
X185328180Y-84212084D01*
X185145005Y-84175648D01*
X185125650Y-84171798D01*
X185062741Y-84138890D01*
X185027609Y-84077195D01*
X185031409Y-84006300D01*
X185072935Y-83948714D01*
X185132151Y-83923523D01*
X185167042Y-83918464D01*
X185264032Y-83904402D01*
X185264037Y-83904401D01*
X185269746Y-83903573D01*
X185275210Y-83901718D01*
X185275215Y-83901717D01*
X185464512Y-83837460D01*
X185464517Y-83837458D01*
X185469984Y-83835602D01*
X185487641Y-83825714D01*
X185610227Y-83757062D01*
X185654482Y-83732278D01*
X185817062Y-83597062D01*
X185952278Y-83434482D01*
X186055602Y-83249984D01*
X186057458Y-83244517D01*
X186057460Y-83244512D01*
X186121717Y-83055215D01*
X186121718Y-83055210D01*
X186123573Y-83049746D01*
X186124401Y-83044037D01*
X186124402Y-83044032D01*
X186148203Y-82879877D01*
X186153916Y-82840474D01*
X186155500Y-82780000D01*
X186136151Y-82569427D01*
X186133493Y-82560000D01*
X186080320Y-82371465D01*
X186080319Y-82371463D01*
X186078752Y-82365906D01*
X186074594Y-82357473D01*
X185987781Y-82181434D01*
X185985226Y-82176253D01*
X185981640Y-82171450D01*
X185923389Y-82093444D01*
X185858704Y-82006820D01*
X185703424Y-81863280D01*
X185698541Y-81860199D01*
X185698537Y-81860196D01*
X185529470Y-81753523D01*
X185529465Y-81753521D01*
X185524586Y-81750442D01*
X185328180Y-81672084D01*
X185145005Y-81635648D01*
X185125650Y-81631798D01*
X185062741Y-81598890D01*
X185027609Y-81537195D01*
X185031409Y-81466300D01*
X185072935Y-81408714D01*
X185132151Y-81383523D01*
X185167042Y-81378464D01*
X185264032Y-81364402D01*
X185264037Y-81364401D01*
X185269746Y-81363573D01*
X185275210Y-81361718D01*
X185275215Y-81361717D01*
X185464512Y-81297460D01*
X185464517Y-81297458D01*
X185469984Y-81295602D01*
X185478577Y-81290790D01*
X185561817Y-81244173D01*
X185654482Y-81192278D01*
X185817062Y-81057062D01*
X185952278Y-80894482D01*
X186055602Y-80709984D01*
X186057458Y-80704517D01*
X186057460Y-80704512D01*
X186121717Y-80515215D01*
X186121718Y-80515210D01*
X186123573Y-80509746D01*
X186124401Y-80504037D01*
X186124402Y-80504032D01*
X186153383Y-80304148D01*
X186153916Y-80300474D01*
X186155500Y-80240000D01*
X186136151Y-80029427D01*
X186127784Y-79999758D01*
X186080320Y-79831465D01*
X186080319Y-79831463D01*
X186078752Y-79825906D01*
X186064897Y-79797809D01*
X185987781Y-79641434D01*
X185985226Y-79636253D01*
X185920818Y-79550000D01*
X219044500Y-79550000D01*
X219044500Y-81250000D01*
X219044567Y-81251441D01*
X219044567Y-81251458D01*
X219044858Y-81257753D01*
X219045803Y-81278188D01*
X219076528Y-81386173D01*
X219144186Y-81475767D01*
X219239641Y-81534870D01*
X219251113Y-81537014D01*
X219251114Y-81537015D01*
X219344275Y-81554430D01*
X219344277Y-81554430D01*
X219350000Y-81555500D01*
X219985473Y-81555500D01*
X220053594Y-81575502D01*
X220100087Y-81629158D01*
X220110191Y-81699432D01*
X220080697Y-81764012D01*
X220020971Y-81802396D01*
X220006811Y-81805680D01*
X219900935Y-81823873D01*
X219702544Y-81897063D01*
X219697583Y-81900015D01*
X219697582Y-81900015D01*
X219535927Y-81996190D01*
X219520814Y-82005181D01*
X219361830Y-82144606D01*
X219230916Y-82310670D01*
X219228227Y-82315781D01*
X219228225Y-82315784D01*
X219195769Y-82377473D01*
X219132457Y-82497809D01*
X219069750Y-82699758D01*
X219044896Y-82909753D01*
X219058726Y-83120760D01*
X219110778Y-83325714D01*
X219199308Y-83517750D01*
X219321351Y-83690437D01*
X219472820Y-83837992D01*
X219477616Y-83841197D01*
X219477619Y-83841199D01*
X219534112Y-83878946D01*
X219648643Y-83955473D01*
X219653946Y-83957751D01*
X219653949Y-83957753D01*
X219781388Y-84012505D01*
X219842931Y-84038946D01*
X220049177Y-84085615D01*
X220054946Y-84085842D01*
X220054949Y-84085842D01*
X220135242Y-84088996D01*
X220260474Y-84093916D01*
X220348693Y-84081125D01*
X220464032Y-84064402D01*
X220464037Y-84064401D01*
X220469746Y-84063573D01*
X220475210Y-84061718D01*
X220475215Y-84061717D01*
X220664512Y-83997460D01*
X220664517Y-83997458D01*
X220669984Y-83995602D01*
X220854482Y-83892278D01*
X221017062Y-83757062D01*
X221152278Y-83594482D01*
X221240862Y-83436305D01*
X221252778Y-83415027D01*
X221252779Y-83415025D01*
X221255602Y-83409984D01*
X221257458Y-83404517D01*
X221257460Y-83404512D01*
X221321717Y-83215215D01*
X221321718Y-83215210D01*
X221323573Y-83209746D01*
X221324401Y-83204037D01*
X221324402Y-83204032D01*
X221348542Y-83037536D01*
X221353916Y-83000474D01*
X221355500Y-82940000D01*
X221340798Y-82780000D01*
X221336680Y-82735181D01*
X221336679Y-82735178D01*
X221336151Y-82729427D01*
X221332103Y-82715071D01*
X221280320Y-82531465D01*
X221280319Y-82531463D01*
X221278752Y-82525906D01*
X221275937Y-82520196D01*
X221187781Y-82341434D01*
X221185226Y-82336253D01*
X221175982Y-82323873D01*
X221113537Y-82240250D01*
X221058704Y-82166820D01*
X220973863Y-82088393D01*
X220907669Y-82027204D01*
X220903424Y-82023280D01*
X220898541Y-82020199D01*
X220898537Y-82020196D01*
X220729470Y-81913523D01*
X220729465Y-81913521D01*
X220724586Y-81910442D01*
X220528180Y-81832084D01*
X220522520Y-81830958D01*
X220522516Y-81830957D01*
X220409055Y-81808389D01*
X220392417Y-81805079D01*
X220329507Y-81772171D01*
X220294375Y-81710476D01*
X220298175Y-81639582D01*
X220339701Y-81581996D01*
X220405768Y-81556001D01*
X220416998Y-81555500D01*
X221050000Y-81555500D01*
X221051441Y-81555433D01*
X221051458Y-81555433D01*
X221065558Y-81554781D01*
X221078188Y-81554197D01*
X221186173Y-81523472D01*
X221275767Y-81455814D01*
X221334870Y-81360359D01*
X221346976Y-81295602D01*
X221354430Y-81255725D01*
X221354430Y-81255723D01*
X221355500Y-81250000D01*
X221355500Y-79550000D01*
X221355236Y-79544275D01*
X221354533Y-79529084D01*
X221354197Y-79521812D01*
X221323472Y-79413827D01*
X221255814Y-79324233D01*
X221160359Y-79265130D01*
X221148887Y-79262986D01*
X221148886Y-79262985D01*
X221055725Y-79245570D01*
X221055723Y-79245570D01*
X221050000Y-79244500D01*
X219350000Y-79244500D01*
X219348559Y-79244567D01*
X219348542Y-79244567D01*
X219334442Y-79245219D01*
X219321812Y-79245803D01*
X219213827Y-79276528D01*
X219124233Y-79344186D01*
X219065130Y-79439641D01*
X219062986Y-79451113D01*
X219062985Y-79451114D01*
X219053188Y-79503523D01*
X219044500Y-79550000D01*
X185920818Y-79550000D01*
X185858704Y-79466820D01*
X185703424Y-79323280D01*
X185698541Y-79320199D01*
X185698537Y-79320196D01*
X185529470Y-79213523D01*
X185529465Y-79213521D01*
X185524586Y-79210442D01*
X185328180Y-79132084D01*
X185322520Y-79130958D01*
X185322516Y-79130957D01*
X185195650Y-79105722D01*
X185192417Y-79105079D01*
X185129507Y-79072171D01*
X185094375Y-79010476D01*
X185098175Y-78939582D01*
X185139701Y-78881996D01*
X185205768Y-78856001D01*
X185216998Y-78855500D01*
X185850000Y-78855500D01*
X185851441Y-78855433D01*
X185851458Y-78855433D01*
X185865558Y-78854781D01*
X185878188Y-78854197D01*
X185986173Y-78823472D01*
X186075767Y-78755814D01*
X186134870Y-78660359D01*
X186139571Y-78635215D01*
X186154430Y-78555725D01*
X186154430Y-78555723D01*
X186155500Y-78550000D01*
X186155500Y-76850000D01*
X186155236Y-76844275D01*
X186154533Y-76829084D01*
X186154197Y-76821812D01*
X186123472Y-76713827D01*
X186055814Y-76624233D01*
X185960359Y-76565130D01*
X185948887Y-76562986D01*
X185948886Y-76562985D01*
X185855725Y-76545570D01*
X185855723Y-76545570D01*
X185850000Y-76544500D01*
X184150000Y-76544500D01*
X184148559Y-76544567D01*
X184148542Y-76544567D01*
X184134442Y-76545219D01*
X184121812Y-76545803D01*
X184013827Y-76576528D01*
X183924233Y-76644186D01*
X183865130Y-76739641D01*
X183844500Y-76850000D01*
X165250000Y-76850000D01*
X165250000Y-71960000D01*
X195844500Y-71960000D01*
X195844500Y-73660000D01*
X195844567Y-73661441D01*
X195844567Y-73661458D01*
X195845219Y-73675558D01*
X195845803Y-73688188D01*
X195876528Y-73796173D01*
X195944186Y-73885767D01*
X196039641Y-73944870D01*
X196051113Y-73947014D01*
X196051114Y-73947015D01*
X196144275Y-73964430D01*
X196144277Y-73964430D01*
X196150000Y-73965500D01*
X197850000Y-73965500D01*
X197851441Y-73965433D01*
X197851458Y-73965433D01*
X197865558Y-73964781D01*
X197878188Y-73964197D01*
X197986173Y-73933472D01*
X198075767Y-73865814D01*
X198134870Y-73770359D01*
X198147282Y-73703965D01*
X198154430Y-73665725D01*
X198154430Y-73665723D01*
X198155500Y-73660000D01*
X198155500Y-73039034D01*
X198175502Y-72970913D01*
X198229158Y-72924420D01*
X198299432Y-72914316D01*
X198364012Y-72943810D01*
X198403623Y-73008019D01*
X198449827Y-73189947D01*
X198453668Y-73200793D01*
X198537323Y-73382255D01*
X198543074Y-73392216D01*
X198658399Y-73555397D01*
X198665865Y-73564139D01*
X198809001Y-73703577D01*
X198817934Y-73710811D01*
X198984078Y-73821824D01*
X198994188Y-73827314D01*
X199177785Y-73906193D01*
X199188712Y-73909743D01*
X199268330Y-73927759D01*
X199282405Y-73926871D01*
X199286000Y-73917473D01*
X199286000Y-71707676D01*
X199794000Y-71707676D01*
X199794000Y-73917238D01*
X199797966Y-73930744D01*
X199809966Y-73932462D01*
X199815106Y-73931228D01*
X200004313Y-73867001D01*
X200014816Y-73862325D01*
X200189162Y-73764687D01*
X200198637Y-73758175D01*
X200352276Y-73630394D01*
X200360394Y-73622276D01*
X200488175Y-73468637D01*
X200494687Y-73459162D01*
X200592325Y-73284816D01*
X200597001Y-73274313D01*
X200661231Y-73085098D01*
X200663915Y-73073915D01*
X200684906Y-72929144D01*
X200714476Y-72864598D01*
X200774247Y-72826286D01*
X200845244Y-72826370D01*
X200904924Y-72864825D01*
X200934341Y-72929441D01*
X200935332Y-72938982D01*
X200937425Y-72970913D01*
X200938726Y-72990760D01*
X200990778Y-73195714D01*
X201079308Y-73387750D01*
X201201351Y-73560437D01*
X201352820Y-73707992D01*
X201357616Y-73711197D01*
X201357619Y-73711199D01*
X201427924Y-73758175D01*
X201528643Y-73825473D01*
X201533946Y-73827751D01*
X201533949Y-73827753D01*
X201683290Y-73891915D01*
X201722931Y-73908946D01*
X201929177Y-73955615D01*
X201934946Y-73955842D01*
X201934949Y-73955842D01*
X202015242Y-73958996D01*
X202140474Y-73963916D01*
X202228693Y-73951125D01*
X202344032Y-73934402D01*
X202344037Y-73934401D01*
X202349746Y-73933573D01*
X202355210Y-73931718D01*
X202355215Y-73931717D01*
X202544512Y-73867460D01*
X202544517Y-73867458D01*
X202549984Y-73865602D01*
X202555836Y-73862325D01*
X202628155Y-73821824D01*
X202734482Y-73762278D01*
X202897062Y-73627062D01*
X203032278Y-73464482D01*
X203135602Y-73279984D01*
X203137458Y-73274517D01*
X203137460Y-73274512D01*
X203201717Y-73085215D01*
X203201718Y-73085210D01*
X203203573Y-73079746D01*
X203204401Y-73074037D01*
X203204402Y-73074032D01*
X203225063Y-72931533D01*
X203254633Y-72866987D01*
X203314405Y-72828675D01*
X203385401Y-72828759D01*
X203445082Y-72867214D01*
X203474498Y-72931830D01*
X203475489Y-72941371D01*
X203478726Y-72990760D01*
X203530778Y-73195714D01*
X203619308Y-73387750D01*
X203741351Y-73560437D01*
X203892820Y-73707992D01*
X203897616Y-73711197D01*
X203897619Y-73711199D01*
X203967924Y-73758175D01*
X204068643Y-73825473D01*
X204073946Y-73827751D01*
X204073949Y-73827753D01*
X204223290Y-73891915D01*
X204262931Y-73908946D01*
X204469177Y-73955615D01*
X204474946Y-73955842D01*
X204474949Y-73955842D01*
X204555242Y-73958996D01*
X204680474Y-73963916D01*
X204768693Y-73951125D01*
X204884032Y-73934402D01*
X204884037Y-73934401D01*
X204889746Y-73933573D01*
X204895210Y-73931718D01*
X204895215Y-73931717D01*
X205084512Y-73867460D01*
X205084517Y-73867458D01*
X205089984Y-73865602D01*
X205095836Y-73862325D01*
X205168155Y-73821824D01*
X205274482Y-73762278D01*
X205437062Y-73627062D01*
X205572278Y-73464482D01*
X205675602Y-73279984D01*
X205677458Y-73274517D01*
X205677460Y-73274512D01*
X205741717Y-73085215D01*
X205741718Y-73085210D01*
X205743573Y-73079746D01*
X205744401Y-73074037D01*
X205744402Y-73074032D01*
X205773383Y-72874148D01*
X205773916Y-72870474D01*
X205775500Y-72810000D01*
X205756812Y-72606620D01*
X205756680Y-72605181D01*
X205756679Y-72605178D01*
X205756151Y-72599427D01*
X205752246Y-72585578D01*
X205700320Y-72401465D01*
X205700319Y-72401463D01*
X205698752Y-72395906D01*
X205684897Y-72367809D01*
X205607781Y-72211434D01*
X205605226Y-72206253D01*
X205590141Y-72186051D01*
X205482161Y-72041450D01*
X205478704Y-72036820D01*
X205372974Y-71939084D01*
X205327669Y-71897204D01*
X205323424Y-71893280D01*
X205318541Y-71890199D01*
X205318537Y-71890196D01*
X205149470Y-71783523D01*
X205149465Y-71783521D01*
X205144586Y-71780442D01*
X205013352Y-71728085D01*
X204953544Y-71704224D01*
X204948180Y-71702084D01*
X204942520Y-71700958D01*
X204942516Y-71700957D01*
X204746450Y-71661957D01*
X204746447Y-71661957D01*
X204740783Y-71660830D01*
X204735008Y-71660754D01*
X204735004Y-71660754D01*
X204629064Y-71659367D01*
X204529341Y-71658062D01*
X204523644Y-71659041D01*
X204523643Y-71659041D01*
X204328791Y-71692523D01*
X204320935Y-71693873D01*
X204122544Y-71767063D01*
X203940814Y-71875181D01*
X203781830Y-72014606D01*
X203650916Y-72180670D01*
X203552457Y-72367809D01*
X203489750Y-72569758D01*
X203485387Y-72606620D01*
X203475097Y-72693562D01*
X203447227Y-72758859D01*
X203388478Y-72798723D01*
X203317504Y-72800497D01*
X203256837Y-72763618D01*
X203225740Y-72699794D01*
X203224499Y-72690281D01*
X203222677Y-72670444D01*
X203216812Y-72606620D01*
X203216680Y-72605181D01*
X203216679Y-72605178D01*
X203216151Y-72599427D01*
X203212246Y-72585578D01*
X203160320Y-72401465D01*
X203160319Y-72401463D01*
X203158752Y-72395906D01*
X203144897Y-72367809D01*
X203067781Y-72211434D01*
X203065226Y-72206253D01*
X203050141Y-72186051D01*
X202942161Y-72041450D01*
X202938704Y-72036820D01*
X202832974Y-71939084D01*
X202787669Y-71897204D01*
X202783424Y-71893280D01*
X202778541Y-71890199D01*
X202778537Y-71890196D01*
X202609470Y-71783523D01*
X202609465Y-71783521D01*
X202604586Y-71780442D01*
X202473352Y-71728085D01*
X202413544Y-71704224D01*
X202408180Y-71702084D01*
X202402520Y-71700958D01*
X202402516Y-71700957D01*
X202206450Y-71661957D01*
X202206447Y-71661957D01*
X202200783Y-71660830D01*
X202195008Y-71660754D01*
X202195004Y-71660754D01*
X202089064Y-71659367D01*
X201989341Y-71658062D01*
X201983644Y-71659041D01*
X201983643Y-71659041D01*
X201788791Y-71692523D01*
X201780935Y-71693873D01*
X201582544Y-71767063D01*
X201400814Y-71875181D01*
X201241830Y-72014606D01*
X201110916Y-72180670D01*
X201012457Y-72367809D01*
X200949750Y-72569758D01*
X200935486Y-72690281D01*
X200934816Y-72695940D01*
X200906946Y-72761238D01*
X200848198Y-72801102D01*
X200777223Y-72802877D01*
X200716556Y-72765998D01*
X200685459Y-72702174D01*
X200684218Y-72692661D01*
X200676188Y-72605274D01*
X200674090Y-72593954D01*
X200619854Y-72401649D01*
X200615729Y-72390902D01*
X200527354Y-72211695D01*
X200521344Y-72201887D01*
X200401785Y-72041778D01*
X200394096Y-72033238D01*
X200247354Y-71897592D01*
X200238238Y-71890598D01*
X200069245Y-71783970D01*
X200058994Y-71778746D01*
X199873402Y-71704703D01*
X199862374Y-71701436D01*
X199811770Y-71691371D01*
X199798894Y-71692523D01*
X199794000Y-71707676D01*
X199286000Y-71707676D01*
X199286000Y-71704749D01*
X199282194Y-71691787D01*
X199267279Y-71689851D01*
X199246756Y-71693378D01*
X199235644Y-71696355D01*
X199048176Y-71765516D01*
X199037798Y-71770466D01*
X198866076Y-71872629D01*
X198856764Y-71879394D01*
X198706534Y-72011143D01*
X198698617Y-72019486D01*
X198574909Y-72176408D01*
X198568647Y-72186051D01*
X198475608Y-72362891D01*
X198471207Y-72373515D01*
X198411953Y-72564345D01*
X198409561Y-72575599D01*
X198406627Y-72600388D01*
X198378756Y-72665685D01*
X198320008Y-72705549D01*
X198249034Y-72707323D01*
X198188367Y-72670444D01*
X198157269Y-72606620D01*
X198155500Y-72585578D01*
X198155500Y-71960000D01*
X198155236Y-71954275D01*
X198154533Y-71939084D01*
X198154197Y-71931812D01*
X198123472Y-71823827D01*
X198055814Y-71734233D01*
X197960359Y-71675130D01*
X197948887Y-71672986D01*
X197948886Y-71672985D01*
X197855725Y-71655570D01*
X197855723Y-71655570D01*
X197850000Y-71654500D01*
X196150000Y-71654500D01*
X196148559Y-71654567D01*
X196148542Y-71654567D01*
X196134442Y-71655219D01*
X196121812Y-71655803D01*
X196013827Y-71686528D01*
X195924233Y-71754186D01*
X195865130Y-71849641D01*
X195862986Y-71861113D01*
X195862985Y-71861114D01*
X195856972Y-71893280D01*
X195844500Y-71960000D01*
X165250000Y-71960000D01*
X165250000Y-68876000D01*
X165270002Y-68807879D01*
X165323658Y-68761386D01*
X165376000Y-68750000D01*
X232874531Y-68750000D01*
X232942652Y-68770002D01*
G37*
%TD.AperFunction*%
%TD*%
M02*
