%FSLAX45Y45*%
G04 Gerber Fmt 4.5, Leading zero omitted, Abs format (unit mm)*
G04 Created by KiCad (PCBNEW (5.99.0-10363-g902a2c9f58)) date 2021-05-11 19:12:08*
%MOMM*%
%LPD*%
G01*
G04 APERTURE LIST*
%TA.AperFunction,Profile*%
%ADD10C,0.050000*%
%TD*%
%ADD11C,0.200000*%
%ADD12C,0.040000*%
%ADD13C,0.070000*%
%ADD14C,0.100000*%
G04 APERTURE END LIST*
D10*
X25720000Y-13645000D02*
X25720000Y-6845000D01*
X25720000Y-6845000D02*
X16495000Y-6845000D01*
X16495000Y-13645000D02*
X25720000Y-13645000D01*
X16495000Y-6845000D02*
X16495000Y-13645000D01*
D11*
D12*
X16647000Y-11867000D02*
X16687000Y-11907000D01*
X16687000Y-11867000D02*
X16647000Y-11907000D01*
X16743000Y-9661000D02*
X16783000Y-9701000D01*
X16783000Y-9661000D02*
X16743000Y-9701000D01*
X16786000Y-7117000D02*
X16826000Y-7157000D01*
X16826000Y-7117000D02*
X16786000Y-7157000D01*
X16841000Y-11856000D02*
X16881000Y-11896000D01*
X16881000Y-11856000D02*
X16841000Y-11896000D01*
X17167000Y-11856000D02*
X17207000Y-11896000D01*
X17207000Y-11856000D02*
X17167000Y-11896000D01*
X17308000Y-13089000D02*
X17348000Y-13129000D01*
X17348000Y-13089000D02*
X17308000Y-13129000D01*
X17481000Y-11856000D02*
X17521000Y-11896000D01*
X17521000Y-11856000D02*
X17481000Y-11896000D01*
X17515000Y-12953000D02*
X17555000Y-12993000D01*
X17555000Y-12953000D02*
X17515000Y-12993000D01*
X17706000Y-11007000D02*
X17746000Y-11047000D01*
X17746000Y-11007000D02*
X17706000Y-11047000D01*
X17738000Y-11860000D02*
X17778000Y-11900000D01*
X17778000Y-11860000D02*
X17738000Y-11900000D01*
X17933000Y-11050000D02*
X17973000Y-11090000D01*
X17973000Y-11050000D02*
X17933000Y-11090000D01*
X18772000Y-7295000D02*
X18812000Y-7335000D01*
X18812000Y-7295000D02*
X18772000Y-7335000D01*
X18836000Y-8794000D02*
X18876000Y-8834000D01*
X18876000Y-8794000D02*
X18836000Y-8834000D01*
X18993000Y-8575000D02*
X19033000Y-8615000D01*
X19033000Y-8575000D02*
X18993000Y-8615000D01*
X19085000Y-8379000D02*
X19125000Y-8419000D01*
X19125000Y-8379000D02*
X19085000Y-8419000D01*
X19159000Y-8182000D02*
X19199000Y-8222000D01*
X19199000Y-8182000D02*
X19159000Y-8222000D01*
X19429000Y-9690000D02*
X19469000Y-9730000D01*
X19469000Y-9690000D02*
X19429000Y-9730000D01*
X19680000Y-8236000D02*
X19720000Y-8276000D01*
X19720000Y-8236000D02*
X19680000Y-8276000D01*
X19934000Y-8235000D02*
X19974000Y-8275000D01*
X19974000Y-8235000D02*
X19934000Y-8275000D01*
X20197000Y-8234000D02*
X20237000Y-8274000D01*
X20237000Y-8234000D02*
X20197000Y-8274000D01*
X20451000Y-8245000D02*
X20491000Y-8285000D01*
X20491000Y-8245000D02*
X20451000Y-8285000D01*
X21078000Y-7478000D02*
X21118000Y-7518000D01*
X21118000Y-7478000D02*
X21078000Y-7518000D01*
X21094757Y-9320131D02*
X21134757Y-9360131D01*
X21134757Y-9320131D02*
X21094757Y-9360131D01*
X21102000Y-9451000D02*
X21142000Y-9491000D01*
X21142000Y-9451000D02*
X21102000Y-9491000D01*
X21102000Y-9605000D02*
X21142000Y-9645000D01*
X21142000Y-9605000D02*
X21102000Y-9645000D01*
X21105000Y-9752000D02*
X21145000Y-9792000D01*
X21145000Y-9752000D02*
X21105000Y-9792000D01*
X21575000Y-9290000D02*
X21615000Y-9330000D01*
X21615000Y-9290000D02*
X21575000Y-9330000D01*
X21596000Y-10591000D02*
X21636000Y-10631000D01*
X21636000Y-10591000D02*
X21596000Y-10631000D01*
X21823164Y-10124836D02*
X21863164Y-10164836D01*
X21863164Y-10124836D02*
X21823164Y-10164836D01*
X21829000Y-9881000D02*
X21869000Y-9921000D01*
X21869000Y-9881000D02*
X21829000Y-9921000D01*
X21829000Y-10230000D02*
X21869000Y-10270000D01*
X21869000Y-10230000D02*
X21829000Y-10270000D01*
X21830000Y-10538000D02*
X21870000Y-10578000D01*
X21870000Y-10538000D02*
X21830000Y-10578000D01*
X21856000Y-12502000D02*
X21896000Y-12542000D01*
X21896000Y-12502000D02*
X21856000Y-12542000D01*
X22027000Y-10425000D02*
X22067000Y-10465000D01*
X22067000Y-10425000D02*
X22027000Y-10465000D01*
X22117000Y-9906000D02*
X22157000Y-9946000D01*
X22157000Y-9906000D02*
X22117000Y-9946000D01*
X22167550Y-10350000D02*
X22207550Y-10390000D01*
X22207550Y-10350000D02*
X22167550Y-10390000D01*
X22180000Y-11485000D02*
X22220000Y-11525000D01*
X22220000Y-11485000D02*
X22180000Y-11525000D01*
X22248000Y-10662000D02*
X22288000Y-10702000D01*
X22288000Y-10662000D02*
X22248000Y-10702000D01*
X22254000Y-9469000D02*
X22294000Y-9509000D01*
X22294000Y-9469000D02*
X22254000Y-9509000D01*
X22255000Y-8950000D02*
X22295000Y-8990000D01*
X22295000Y-8950000D02*
X22255000Y-8990000D01*
X22256000Y-9202000D02*
X22296000Y-9242000D01*
X22296000Y-9202000D02*
X22256000Y-9242000D01*
X22336000Y-10587000D02*
X22376000Y-10627000D01*
X22376000Y-10587000D02*
X22336000Y-10627000D01*
X22338000Y-10354000D02*
X22378000Y-10394000D01*
X22378000Y-10354000D02*
X22338000Y-10394000D01*
X22385000Y-13035000D02*
X22425000Y-13075000D01*
X22425000Y-13035000D02*
X22385000Y-13075000D01*
X23301000Y-13078000D02*
X23341000Y-13118000D01*
X23341000Y-13078000D02*
X23301000Y-13118000D01*
X23722000Y-8771000D02*
X23762000Y-8811000D01*
X23762000Y-8771000D02*
X23722000Y-8811000D01*
X23806000Y-13230000D02*
X23846000Y-13270000D01*
X23846000Y-13230000D02*
X23806000Y-13270000D01*
X24039000Y-10352000D02*
X24079000Y-10392000D01*
X24079000Y-10352000D02*
X24039000Y-10392000D01*
X24085000Y-11879000D02*
X24125000Y-11919000D01*
X24125000Y-11879000D02*
X24085000Y-11919000D01*
D13*
X17033000Y-12600000D02*
G75*
G03*
X17033000Y-12600000I-35000J0D01*
G01*
X17033000Y-12727000D02*
G75*
G03*
X17033000Y-12727000I-35000J0D01*
G01*
X17033000Y-12854000D02*
G75*
G03*
X17033000Y-12854000I-35000J0D01*
G01*
X17033000Y-12981000D02*
G75*
G03*
X17033000Y-12981000I-35000J0D01*
G01*
X17033000Y-13108000D02*
G75*
G03*
X17033000Y-13108000I-35000J0D01*
G01*
X17160000Y-12600000D02*
G75*
G03*
X17160000Y-12600000I-35000J0D01*
G01*
X17160000Y-12727000D02*
G75*
G03*
X17160000Y-12727000I-35000J0D01*
G01*
X17160000Y-12854000D02*
G75*
G03*
X17160000Y-12854000I-35000J0D01*
G01*
X17160000Y-12981000D02*
G75*
G03*
X17160000Y-12981000I-35000J0D01*
G01*
X17160000Y-13108000D02*
G75*
G03*
X17160000Y-13108000I-35000J0D01*
G01*
D14*
X18500000Y-7720000D02*
X18500000Y-7820000D01*
X18450000Y-7770000D02*
X18550000Y-7770000D01*
X18500000Y-7974000D02*
X18500000Y-8074000D01*
X18450000Y-8024000D02*
X18550000Y-8024000D01*
X18500000Y-8228000D02*
X18500000Y-8328000D01*
X18450000Y-8278000D02*
X18550000Y-8278000D01*
X18500000Y-8482000D02*
X18500000Y-8582000D01*
X18450000Y-8532000D02*
X18550000Y-8532000D01*
X19700000Y-7231000D02*
X19700000Y-7331000D01*
X19650000Y-7281000D02*
X19750000Y-7281000D01*
X19954000Y-7231000D02*
X19954000Y-7331000D01*
X19904000Y-7281000D02*
X20004000Y-7281000D01*
X20208000Y-7231000D02*
X20208000Y-7331000D01*
X20158000Y-7281000D02*
X20258000Y-7281000D01*
X20462000Y-7231000D02*
X20462000Y-7331000D01*
X20412000Y-7281000D02*
X20512000Y-7281000D01*
X21656000Y-10968000D02*
X21656000Y-11068000D01*
X21606000Y-11018000D02*
X21706000Y-11018000D01*
X21656000Y-11222000D02*
X21656000Y-11322000D01*
X21606000Y-11272000D02*
X21706000Y-11272000D01*
X21656000Y-11476000D02*
X21656000Y-11576000D01*
X21606000Y-11526000D02*
X21706000Y-11526000D01*
X21656000Y-11730000D02*
X21656000Y-11830000D01*
X21606000Y-11780000D02*
X21706000Y-11780000D01*
X21910000Y-10968000D02*
X21910000Y-11068000D01*
X21860000Y-11018000D02*
X21960000Y-11018000D01*
X21910000Y-11222000D02*
X21910000Y-11322000D01*
X21860000Y-11272000D02*
X21960000Y-11272000D01*
X21910000Y-11476000D02*
X21910000Y-11576000D01*
X21860000Y-11526000D02*
X21960000Y-11526000D01*
X21910000Y-11730000D02*
X21910000Y-11830000D01*
X21860000Y-11780000D02*
X21960000Y-11780000D01*
X22020000Y-7990000D02*
X22020000Y-8090000D01*
X21970000Y-8040000D02*
X22070000Y-8040000D01*
X22020000Y-8244000D02*
X22020000Y-8344000D01*
X21970000Y-8294000D02*
X22070000Y-8294000D01*
X22020000Y-8795000D02*
X22020000Y-8895000D01*
X21970000Y-8845000D02*
X22070000Y-8845000D01*
X22020000Y-9049000D02*
X22020000Y-9149000D01*
X21970000Y-9099000D02*
X22070000Y-9099000D01*
X22020000Y-9303000D02*
X22020000Y-9403000D01*
X21970000Y-9353000D02*
X22070000Y-9353000D01*
X22020000Y-9557000D02*
X22020000Y-9657000D01*
X21970000Y-9607000D02*
X22070000Y-9607000D01*
X22531000Y-7986000D02*
X22531000Y-8086000D01*
X22481000Y-8036000D02*
X22581000Y-8036000D01*
X22531000Y-8240000D02*
X22531000Y-8340000D01*
X22481000Y-8290000D02*
X22581000Y-8290000D01*
X22531000Y-8494000D02*
X22531000Y-8594000D01*
X22481000Y-8544000D02*
X22581000Y-8544000D01*
X22531000Y-8748000D02*
X22531000Y-8848000D01*
X22481000Y-8798000D02*
X22581000Y-8798000D01*
X22531000Y-9002000D02*
X22531000Y-9102000D01*
X22481000Y-9052000D02*
X22581000Y-9052000D01*
X22531000Y-9256000D02*
X22531000Y-9356000D01*
X22481000Y-9306000D02*
X22581000Y-9306000D01*
X22531000Y-9510000D02*
X22531000Y-9610000D01*
X22481000Y-9560000D02*
X22581000Y-9560000D01*
X22531000Y-9764000D02*
X22531000Y-9864000D01*
X22481000Y-9814000D02*
X22581000Y-9814000D01*
X22531000Y-10018000D02*
X22531000Y-10118000D01*
X22481000Y-10068000D02*
X22581000Y-10068000D01*
X22531000Y-10272000D02*
X22531000Y-10372000D01*
X22481000Y-10322000D02*
X22581000Y-10322000D01*
X22531000Y-10526000D02*
X22531000Y-10626000D01*
X22481000Y-10576000D02*
X22581000Y-10576000D01*
X22531000Y-10780000D02*
X22531000Y-10880000D01*
X22481000Y-10830000D02*
X22581000Y-10830000D01*
X22531000Y-11034000D02*
X22531000Y-11134000D01*
X22481000Y-11084000D02*
X22581000Y-11084000D01*
X22531000Y-11288000D02*
X22531000Y-11388000D01*
X22481000Y-11338000D02*
X22581000Y-11338000D01*
X22531000Y-11542000D02*
X22531000Y-11642000D01*
X22481000Y-11592000D02*
X22581000Y-11592000D01*
X22705000Y-13008500D02*
X22705000Y-13108500D01*
X22655000Y-13058500D02*
X22755000Y-13058500D01*
X22705000Y-13262500D02*
X22705000Y-13362500D01*
X22655000Y-13312500D02*
X22755000Y-13312500D01*
X24372500Y-12230000D02*
X24372500Y-12330000D01*
X24322500Y-12280000D02*
X24422500Y-12280000D01*
X24626500Y-12230000D02*
X24626500Y-12330000D01*
X24576500Y-12280000D02*
X24676500Y-12280000D01*
X24880500Y-12230000D02*
X24880500Y-12330000D01*
X24830500Y-12280000D02*
X24930500Y-12280000D01*
X25134500Y-12230000D02*
X25134500Y-12330000D01*
X25084500Y-12280000D02*
X25184500Y-12280000D01*
X25325000Y-7986000D02*
X25325000Y-8086000D01*
X25275000Y-8036000D02*
X25375000Y-8036000D01*
X25325000Y-8240000D02*
X25325000Y-8340000D01*
X25275000Y-8290000D02*
X25375000Y-8290000D01*
X25325000Y-8494000D02*
X25325000Y-8594000D01*
X25275000Y-8544000D02*
X25375000Y-8544000D01*
X25325000Y-8748000D02*
X25325000Y-8848000D01*
X25275000Y-8798000D02*
X25375000Y-8798000D01*
X25325000Y-9002000D02*
X25325000Y-9102000D01*
X25275000Y-9052000D02*
X25375000Y-9052000D01*
X25325000Y-9256000D02*
X25325000Y-9356000D01*
X25275000Y-9306000D02*
X25375000Y-9306000D01*
X25325000Y-9510000D02*
X25325000Y-9610000D01*
X25275000Y-9560000D02*
X25375000Y-9560000D01*
X25325000Y-9764000D02*
X25325000Y-9864000D01*
X25275000Y-9814000D02*
X25375000Y-9814000D01*
X25325000Y-10018000D02*
X25325000Y-10118000D01*
X25275000Y-10068000D02*
X25375000Y-10068000D01*
X25325000Y-10272000D02*
X25325000Y-10372000D01*
X25275000Y-10322000D02*
X25375000Y-10322000D01*
X25325000Y-10526000D02*
X25325000Y-10626000D01*
X25275000Y-10576000D02*
X25375000Y-10576000D01*
X25325000Y-10780000D02*
X25325000Y-10880000D01*
X25275000Y-10830000D02*
X25375000Y-10830000D01*
X25325000Y-11034000D02*
X25325000Y-11134000D01*
X25275000Y-11084000D02*
X25375000Y-11084000D01*
X25325000Y-11288000D02*
X25325000Y-11388000D01*
X25275000Y-11338000D02*
X25375000Y-11338000D01*
X25325000Y-11542000D02*
X25325000Y-11642000D01*
X25275000Y-11592000D02*
X25375000Y-11592000D01*
X25388500Y-12230000D02*
X25388500Y-12330000D01*
X25338500Y-12280000D02*
X25438500Y-12280000D01*
D11*
X16750119Y-13957976D02*
X16750119Y-13757976D01*
X16797738Y-13757976D01*
X16826310Y-13767500D01*
X16845357Y-13786548D01*
X16854881Y-13805595D01*
X16864405Y-13843690D01*
X16864405Y-13872262D01*
X16854881Y-13910357D01*
X16845357Y-13929405D01*
X16826310Y-13948452D01*
X16797738Y-13957976D01*
X16750119Y-13957976D01*
X16950119Y-13957976D02*
X16950119Y-13824643D01*
X16950119Y-13862738D02*
X16959643Y-13843690D01*
X16969167Y-13834167D01*
X16988214Y-13824643D01*
X17007262Y-13824643D01*
X17073929Y-13957976D02*
X17073929Y-13824643D01*
X17073929Y-13757976D02*
X17064405Y-13767500D01*
X17073929Y-13777024D01*
X17083452Y-13767500D01*
X17073929Y-13757976D01*
X17073929Y-13777024D01*
X17197738Y-13957976D02*
X17178690Y-13948452D01*
X17169167Y-13929405D01*
X17169167Y-13757976D01*
X17302500Y-13957976D02*
X17283452Y-13948452D01*
X17273929Y-13929405D01*
X17273929Y-13757976D01*
X17531071Y-13957976D02*
X17531071Y-13757976D01*
X17597738Y-13900833D01*
X17664405Y-13757976D01*
X17664405Y-13957976D01*
X17845357Y-13957976D02*
X17845357Y-13853214D01*
X17835833Y-13834167D01*
X17816786Y-13824643D01*
X17778690Y-13824643D01*
X17759643Y-13834167D01*
X17845357Y-13948452D02*
X17826310Y-13957976D01*
X17778690Y-13957976D01*
X17759643Y-13948452D01*
X17750119Y-13929405D01*
X17750119Y-13910357D01*
X17759643Y-13891309D01*
X17778690Y-13881786D01*
X17826310Y-13881786D01*
X17845357Y-13872262D01*
X17940595Y-13824643D02*
X17940595Y-14024643D01*
X17940595Y-13834167D02*
X17959643Y-13824643D01*
X17997738Y-13824643D01*
X18016786Y-13834167D01*
X18026310Y-13843690D01*
X18035833Y-13862738D01*
X18035833Y-13919881D01*
X18026310Y-13938928D01*
X18016786Y-13948452D01*
X17997738Y-13957976D01*
X17959643Y-13957976D01*
X17940595Y-13948452D01*
X18121548Y-13938928D02*
X18131071Y-13948452D01*
X18121548Y-13957976D01*
X18112024Y-13948452D01*
X18121548Y-13938928D01*
X18121548Y-13957976D01*
X18121548Y-13834167D02*
X18131071Y-13843690D01*
X18121548Y-13853214D01*
X18112024Y-13843690D01*
X18121548Y-13834167D01*
X18121548Y-13853214D01*
D12*
X16452500Y-14267500D02*
X16492500Y-14307500D01*
X16492500Y-14267500D02*
X16452500Y-14307500D01*
D11*
X16788214Y-14177976D02*
X16807262Y-14177976D01*
X16826310Y-14187500D01*
X16835833Y-14197024D01*
X16845357Y-14216071D01*
X16854881Y-14254167D01*
X16854881Y-14301786D01*
X16845357Y-14339881D01*
X16835833Y-14358928D01*
X16826310Y-14368452D01*
X16807262Y-14377976D01*
X16788214Y-14377976D01*
X16769167Y-14368452D01*
X16759643Y-14358928D01*
X16750119Y-14339881D01*
X16740595Y-14301786D01*
X16740595Y-14254167D01*
X16750119Y-14216071D01*
X16759643Y-14197024D01*
X16769167Y-14187500D01*
X16788214Y-14177976D01*
X16940595Y-14358928D02*
X16950119Y-14368452D01*
X16940595Y-14377976D01*
X16931071Y-14368452D01*
X16940595Y-14358928D01*
X16940595Y-14377976D01*
X17121548Y-14244643D02*
X17121548Y-14377976D01*
X17073929Y-14168452D02*
X17026310Y-14311309D01*
X17150119Y-14311309D01*
X17264405Y-14177976D02*
X17283452Y-14177976D01*
X17302500Y-14187500D01*
X17312024Y-14197024D01*
X17321548Y-14216071D01*
X17331071Y-14254167D01*
X17331071Y-14301786D01*
X17321548Y-14339881D01*
X17312024Y-14358928D01*
X17302500Y-14368452D01*
X17283452Y-14377976D01*
X17264405Y-14377976D01*
X17245357Y-14368452D01*
X17235833Y-14358928D01*
X17226310Y-14339881D01*
X17216786Y-14301786D01*
X17216786Y-14254167D01*
X17226310Y-14216071D01*
X17235833Y-14197024D01*
X17245357Y-14187500D01*
X17264405Y-14177976D01*
X17454881Y-14177976D02*
X17473929Y-14177976D01*
X17492976Y-14187500D01*
X17502500Y-14197024D01*
X17512024Y-14216071D01*
X17521548Y-14254167D01*
X17521548Y-14301786D01*
X17512024Y-14339881D01*
X17502500Y-14358928D01*
X17492976Y-14368452D01*
X17473929Y-14377976D01*
X17454881Y-14377976D01*
X17435833Y-14368452D01*
X17426310Y-14358928D01*
X17416786Y-14339881D01*
X17407262Y-14301786D01*
X17407262Y-14254167D01*
X17416786Y-14216071D01*
X17426310Y-14197024D01*
X17435833Y-14187500D01*
X17454881Y-14177976D01*
X17607262Y-14377976D02*
X17607262Y-14244643D01*
X17607262Y-14263690D02*
X17616786Y-14254167D01*
X17635833Y-14244643D01*
X17664405Y-14244643D01*
X17683452Y-14254167D01*
X17692976Y-14273214D01*
X17692976Y-14377976D01*
X17692976Y-14273214D02*
X17702500Y-14254167D01*
X17721548Y-14244643D01*
X17750119Y-14244643D01*
X17769167Y-14254167D01*
X17778690Y-14273214D01*
X17778690Y-14377976D01*
X17873929Y-14377976D02*
X17873929Y-14244643D01*
X17873929Y-14263690D02*
X17883452Y-14254167D01*
X17902500Y-14244643D01*
X17931071Y-14244643D01*
X17950119Y-14254167D01*
X17959643Y-14273214D01*
X17959643Y-14377976D01*
X17959643Y-14273214D02*
X17969167Y-14254167D01*
X17988214Y-14244643D01*
X18016786Y-14244643D01*
X18035833Y-14254167D01*
X18045357Y-14273214D01*
X18045357Y-14377976D01*
X18435833Y-14168452D02*
X18264405Y-14425595D01*
X18692976Y-14177976D02*
X18712024Y-14177976D01*
X18731071Y-14187500D01*
X18740595Y-14197024D01*
X18750119Y-14216071D01*
X18759643Y-14254167D01*
X18759643Y-14301786D01*
X18750119Y-14339881D01*
X18740595Y-14358928D01*
X18731071Y-14368452D01*
X18712024Y-14377976D01*
X18692976Y-14377976D01*
X18673929Y-14368452D01*
X18664405Y-14358928D01*
X18654881Y-14339881D01*
X18645357Y-14301786D01*
X18645357Y-14254167D01*
X18654881Y-14216071D01*
X18664405Y-14197024D01*
X18673929Y-14187500D01*
X18692976Y-14177976D01*
X18845357Y-14358928D02*
X18854881Y-14368452D01*
X18845357Y-14377976D01*
X18835833Y-14368452D01*
X18845357Y-14358928D01*
X18845357Y-14377976D01*
X18978690Y-14177976D02*
X18997738Y-14177976D01*
X19016786Y-14187500D01*
X19026310Y-14197024D01*
X19035833Y-14216071D01*
X19045357Y-14254167D01*
X19045357Y-14301786D01*
X19035833Y-14339881D01*
X19026310Y-14358928D01*
X19016786Y-14368452D01*
X18997738Y-14377976D01*
X18978690Y-14377976D01*
X18959643Y-14368452D01*
X18950119Y-14358928D01*
X18940595Y-14339881D01*
X18931071Y-14301786D01*
X18931071Y-14254167D01*
X18940595Y-14216071D01*
X18950119Y-14197024D01*
X18959643Y-14187500D01*
X18978690Y-14177976D01*
X19235833Y-14377976D02*
X19121548Y-14377976D01*
X19178690Y-14377976D02*
X19178690Y-14177976D01*
X19159643Y-14206548D01*
X19140595Y-14225595D01*
X19121548Y-14235119D01*
X19416786Y-14177976D02*
X19321548Y-14177976D01*
X19312024Y-14273214D01*
X19321548Y-14263690D01*
X19340595Y-14254167D01*
X19388214Y-14254167D01*
X19407262Y-14263690D01*
X19416786Y-14273214D01*
X19426310Y-14292262D01*
X19426310Y-14339881D01*
X19416786Y-14358928D01*
X19407262Y-14368452D01*
X19388214Y-14377976D01*
X19340595Y-14377976D01*
X19321548Y-14368452D01*
X19312024Y-14358928D01*
X19492976Y-14177976D02*
X19626310Y-14177976D01*
X19540595Y-14377976D01*
X19692976Y-14177976D02*
X19692976Y-14216071D01*
X19769167Y-14177976D02*
X19769167Y-14216071D01*
X20064405Y-14454167D02*
X20054881Y-14444643D01*
X20035833Y-14416071D01*
X20026310Y-14397024D01*
X20016786Y-14368452D01*
X20007262Y-14320833D01*
X20007262Y-14282738D01*
X20016786Y-14235119D01*
X20026310Y-14206548D01*
X20035833Y-14187500D01*
X20054881Y-14158928D01*
X20064405Y-14149405D01*
X20226310Y-14244643D02*
X20226310Y-14377976D01*
X20178690Y-14168452D02*
X20131071Y-14311309D01*
X20254881Y-14311309D01*
X20340595Y-14377976D02*
X20378690Y-14377976D01*
X20397738Y-14368452D01*
X20407262Y-14358928D01*
X20426310Y-14330357D01*
X20435833Y-14292262D01*
X20435833Y-14216071D01*
X20426310Y-14197024D01*
X20416786Y-14187500D01*
X20397738Y-14177976D01*
X20359643Y-14177976D01*
X20340595Y-14187500D01*
X20331071Y-14197024D01*
X20321548Y-14216071D01*
X20321548Y-14263690D01*
X20331071Y-14282738D01*
X20340595Y-14292262D01*
X20359643Y-14301786D01*
X20397738Y-14301786D01*
X20416786Y-14292262D01*
X20426310Y-14282738D01*
X20435833Y-14263690D01*
X20673929Y-14377976D02*
X20673929Y-14177976D01*
X20759643Y-14377976D02*
X20759643Y-14273214D01*
X20750119Y-14254167D01*
X20731071Y-14244643D01*
X20702500Y-14244643D01*
X20683452Y-14254167D01*
X20673929Y-14263690D01*
X20883452Y-14377976D02*
X20864405Y-14368452D01*
X20854881Y-14358928D01*
X20845357Y-14339881D01*
X20845357Y-14282738D01*
X20854881Y-14263690D01*
X20864405Y-14254167D01*
X20883452Y-14244643D01*
X20912024Y-14244643D01*
X20931071Y-14254167D01*
X20940595Y-14263690D01*
X20950119Y-14282738D01*
X20950119Y-14339881D01*
X20940595Y-14358928D01*
X20931071Y-14368452D01*
X20912024Y-14377976D01*
X20883452Y-14377976D01*
X21064405Y-14377976D02*
X21045357Y-14368452D01*
X21035833Y-14349405D01*
X21035833Y-14177976D01*
X21216786Y-14368452D02*
X21197738Y-14377976D01*
X21159643Y-14377976D01*
X21140595Y-14368452D01*
X21131071Y-14349405D01*
X21131071Y-14273214D01*
X21140595Y-14254167D01*
X21159643Y-14244643D01*
X21197738Y-14244643D01*
X21216786Y-14254167D01*
X21226310Y-14273214D01*
X21226310Y-14292262D01*
X21131071Y-14311309D01*
X21302500Y-14368452D02*
X21321548Y-14377976D01*
X21359643Y-14377976D01*
X21378690Y-14368452D01*
X21388214Y-14349405D01*
X21388214Y-14339881D01*
X21378690Y-14320833D01*
X21359643Y-14311309D01*
X21331071Y-14311309D01*
X21312024Y-14301786D01*
X21302500Y-14282738D01*
X21302500Y-14273214D01*
X21312024Y-14254167D01*
X21331071Y-14244643D01*
X21359643Y-14244643D01*
X21378690Y-14254167D01*
X21454881Y-14454167D02*
X21464405Y-14444643D01*
X21483452Y-14416071D01*
X21492976Y-14397024D01*
X21502500Y-14368452D01*
X21512024Y-14320833D01*
X21512024Y-14282738D01*
X21502500Y-14235119D01*
X21492976Y-14206548D01*
X21483452Y-14187500D01*
X21464405Y-14158928D01*
X21454881Y-14149405D01*
D13*
X16492500Y-14551500D02*
G75*
G03*
X16492500Y-14551500I-35000J0D01*
G01*
D11*
X16788214Y-14441976D02*
X16807262Y-14441976D01*
X16826310Y-14451500D01*
X16835833Y-14461024D01*
X16845357Y-14480071D01*
X16854881Y-14518167D01*
X16854881Y-14565786D01*
X16845357Y-14603881D01*
X16835833Y-14622928D01*
X16826310Y-14632452D01*
X16807262Y-14641976D01*
X16788214Y-14641976D01*
X16769167Y-14632452D01*
X16759643Y-14622928D01*
X16750119Y-14603881D01*
X16740595Y-14565786D01*
X16740595Y-14518167D01*
X16750119Y-14480071D01*
X16759643Y-14461024D01*
X16769167Y-14451500D01*
X16788214Y-14441976D01*
X16940595Y-14622928D02*
X16950119Y-14632452D01*
X16940595Y-14641976D01*
X16931071Y-14632452D01*
X16940595Y-14622928D01*
X16940595Y-14641976D01*
X17016786Y-14441976D02*
X17150119Y-14441976D01*
X17064405Y-14641976D01*
X17264405Y-14441976D02*
X17283452Y-14441976D01*
X17302500Y-14451500D01*
X17312024Y-14461024D01*
X17321548Y-14480071D01*
X17331071Y-14518167D01*
X17331071Y-14565786D01*
X17321548Y-14603881D01*
X17312024Y-14622928D01*
X17302500Y-14632452D01*
X17283452Y-14641976D01*
X17264405Y-14641976D01*
X17245357Y-14632452D01*
X17235833Y-14622928D01*
X17226310Y-14603881D01*
X17216786Y-14565786D01*
X17216786Y-14518167D01*
X17226310Y-14480071D01*
X17235833Y-14461024D01*
X17245357Y-14451500D01*
X17264405Y-14441976D01*
X17454881Y-14441976D02*
X17473929Y-14441976D01*
X17492976Y-14451500D01*
X17502500Y-14461024D01*
X17512024Y-14480071D01*
X17521548Y-14518167D01*
X17521548Y-14565786D01*
X17512024Y-14603881D01*
X17502500Y-14622928D01*
X17492976Y-14632452D01*
X17473929Y-14641976D01*
X17454881Y-14641976D01*
X17435833Y-14632452D01*
X17426310Y-14622928D01*
X17416786Y-14603881D01*
X17407262Y-14565786D01*
X17407262Y-14518167D01*
X17416786Y-14480071D01*
X17426310Y-14461024D01*
X17435833Y-14451500D01*
X17454881Y-14441976D01*
X17607262Y-14641976D02*
X17607262Y-14508643D01*
X17607262Y-14527690D02*
X17616786Y-14518167D01*
X17635833Y-14508643D01*
X17664405Y-14508643D01*
X17683452Y-14518167D01*
X17692976Y-14537214D01*
X17692976Y-14641976D01*
X17692976Y-14537214D02*
X17702500Y-14518167D01*
X17721548Y-14508643D01*
X17750119Y-14508643D01*
X17769167Y-14518167D01*
X17778690Y-14537214D01*
X17778690Y-14641976D01*
X17873929Y-14641976D02*
X17873929Y-14508643D01*
X17873929Y-14527690D02*
X17883452Y-14518167D01*
X17902500Y-14508643D01*
X17931071Y-14508643D01*
X17950119Y-14518167D01*
X17959643Y-14537214D01*
X17959643Y-14641976D01*
X17959643Y-14537214D02*
X17969167Y-14518167D01*
X17988214Y-14508643D01*
X18016786Y-14508643D01*
X18035833Y-14518167D01*
X18045357Y-14537214D01*
X18045357Y-14641976D01*
X18435833Y-14432452D02*
X18264405Y-14689595D01*
X18692976Y-14441976D02*
X18712024Y-14441976D01*
X18731071Y-14451500D01*
X18740595Y-14461024D01*
X18750119Y-14480071D01*
X18759643Y-14518167D01*
X18759643Y-14565786D01*
X18750119Y-14603881D01*
X18740595Y-14622928D01*
X18731071Y-14632452D01*
X18712024Y-14641976D01*
X18692976Y-14641976D01*
X18673929Y-14632452D01*
X18664405Y-14622928D01*
X18654881Y-14603881D01*
X18645357Y-14565786D01*
X18645357Y-14518167D01*
X18654881Y-14480071D01*
X18664405Y-14461024D01*
X18673929Y-14451500D01*
X18692976Y-14441976D01*
X18845357Y-14622928D02*
X18854881Y-14632452D01*
X18845357Y-14641976D01*
X18835833Y-14632452D01*
X18845357Y-14622928D01*
X18845357Y-14641976D01*
X18978690Y-14441976D02*
X18997738Y-14441976D01*
X19016786Y-14451500D01*
X19026310Y-14461024D01*
X19035833Y-14480071D01*
X19045357Y-14518167D01*
X19045357Y-14565786D01*
X19035833Y-14603881D01*
X19026310Y-14622928D01*
X19016786Y-14632452D01*
X18997738Y-14641976D01*
X18978690Y-14641976D01*
X18959643Y-14632452D01*
X18950119Y-14622928D01*
X18940595Y-14603881D01*
X18931071Y-14565786D01*
X18931071Y-14518167D01*
X18940595Y-14480071D01*
X18950119Y-14461024D01*
X18959643Y-14451500D01*
X18978690Y-14441976D01*
X19121548Y-14461024D02*
X19131071Y-14451500D01*
X19150119Y-14441976D01*
X19197738Y-14441976D01*
X19216786Y-14451500D01*
X19226310Y-14461024D01*
X19235833Y-14480071D01*
X19235833Y-14499119D01*
X19226310Y-14527690D01*
X19112024Y-14641976D01*
X19235833Y-14641976D01*
X19302500Y-14441976D02*
X19435833Y-14441976D01*
X19350119Y-14641976D01*
X19597738Y-14441976D02*
X19559643Y-14441976D01*
X19540595Y-14451500D01*
X19531071Y-14461024D01*
X19512024Y-14489595D01*
X19502500Y-14527690D01*
X19502500Y-14603881D01*
X19512024Y-14622928D01*
X19521548Y-14632452D01*
X19540595Y-14641976D01*
X19578690Y-14641976D01*
X19597738Y-14632452D01*
X19607262Y-14622928D01*
X19616786Y-14603881D01*
X19616786Y-14556262D01*
X19607262Y-14537214D01*
X19597738Y-14527690D01*
X19578690Y-14518167D01*
X19540595Y-14518167D01*
X19521548Y-14527690D01*
X19512024Y-14537214D01*
X19502500Y-14556262D01*
X19692976Y-14441976D02*
X19692976Y-14480071D01*
X19769167Y-14441976D02*
X19769167Y-14480071D01*
X20064405Y-14718167D02*
X20054881Y-14708643D01*
X20035833Y-14680071D01*
X20026310Y-14661024D01*
X20016786Y-14632452D01*
X20007262Y-14584833D01*
X20007262Y-14546738D01*
X20016786Y-14499119D01*
X20026310Y-14470548D01*
X20035833Y-14451500D01*
X20054881Y-14422928D01*
X20064405Y-14413405D01*
X20245357Y-14641976D02*
X20131071Y-14641976D01*
X20188214Y-14641976D02*
X20188214Y-14441976D01*
X20169167Y-14470548D01*
X20150119Y-14489595D01*
X20131071Y-14499119D01*
X20369167Y-14441976D02*
X20388214Y-14441976D01*
X20407262Y-14451500D01*
X20416786Y-14461024D01*
X20426310Y-14480071D01*
X20435833Y-14518167D01*
X20435833Y-14565786D01*
X20426310Y-14603881D01*
X20416786Y-14622928D01*
X20407262Y-14632452D01*
X20388214Y-14641976D01*
X20369167Y-14641976D01*
X20350119Y-14632452D01*
X20340595Y-14622928D01*
X20331071Y-14603881D01*
X20321548Y-14565786D01*
X20321548Y-14518167D01*
X20331071Y-14480071D01*
X20340595Y-14461024D01*
X20350119Y-14451500D01*
X20369167Y-14441976D01*
X20673929Y-14641976D02*
X20673929Y-14441976D01*
X20759643Y-14641976D02*
X20759643Y-14537214D01*
X20750119Y-14518167D01*
X20731071Y-14508643D01*
X20702500Y-14508643D01*
X20683452Y-14518167D01*
X20673929Y-14527690D01*
X20883452Y-14641976D02*
X20864405Y-14632452D01*
X20854881Y-14622928D01*
X20845357Y-14603881D01*
X20845357Y-14546738D01*
X20854881Y-14527690D01*
X20864405Y-14518167D01*
X20883452Y-14508643D01*
X20912024Y-14508643D01*
X20931071Y-14518167D01*
X20940595Y-14527690D01*
X20950119Y-14546738D01*
X20950119Y-14603881D01*
X20940595Y-14622928D01*
X20931071Y-14632452D01*
X20912024Y-14641976D01*
X20883452Y-14641976D01*
X21064405Y-14641976D02*
X21045357Y-14632452D01*
X21035833Y-14613405D01*
X21035833Y-14441976D01*
X21216786Y-14632452D02*
X21197738Y-14641976D01*
X21159643Y-14641976D01*
X21140595Y-14632452D01*
X21131071Y-14613405D01*
X21131071Y-14537214D01*
X21140595Y-14518167D01*
X21159643Y-14508643D01*
X21197738Y-14508643D01*
X21216786Y-14518167D01*
X21226310Y-14537214D01*
X21226310Y-14556262D01*
X21131071Y-14575309D01*
X21302500Y-14632452D02*
X21321548Y-14641976D01*
X21359643Y-14641976D01*
X21378690Y-14632452D01*
X21388214Y-14613405D01*
X21388214Y-14603881D01*
X21378690Y-14584833D01*
X21359643Y-14575309D01*
X21331071Y-14575309D01*
X21312024Y-14565786D01*
X21302500Y-14546738D01*
X21302500Y-14537214D01*
X21312024Y-14518167D01*
X21331071Y-14508643D01*
X21359643Y-14508643D01*
X21378690Y-14518167D01*
X21454881Y-14718167D02*
X21464405Y-14708643D01*
X21483452Y-14680071D01*
X21492976Y-14661024D01*
X21502500Y-14632452D01*
X21512024Y-14584833D01*
X21512024Y-14546738D01*
X21502500Y-14499119D01*
X21492976Y-14470548D01*
X21483452Y-14451500D01*
X21464405Y-14422928D01*
X21454881Y-14413405D01*
D14*
X16442500Y-14765500D02*
X16442500Y-14865500D01*
X16392500Y-14815500D02*
X16492500Y-14815500D01*
D11*
X16854881Y-14905976D02*
X16740595Y-14905976D01*
X16797738Y-14905976D02*
X16797738Y-14705976D01*
X16778690Y-14734548D01*
X16759643Y-14753595D01*
X16740595Y-14763119D01*
X16940595Y-14886928D02*
X16950119Y-14896452D01*
X16940595Y-14905976D01*
X16931071Y-14896452D01*
X16940595Y-14886928D01*
X16940595Y-14905976D01*
X17073929Y-14705976D02*
X17092976Y-14705976D01*
X17112024Y-14715500D01*
X17121548Y-14725024D01*
X17131071Y-14744071D01*
X17140595Y-14782167D01*
X17140595Y-14829786D01*
X17131071Y-14867881D01*
X17121548Y-14886928D01*
X17112024Y-14896452D01*
X17092976Y-14905976D01*
X17073929Y-14905976D01*
X17054881Y-14896452D01*
X17045357Y-14886928D01*
X17035833Y-14867881D01*
X17026310Y-14829786D01*
X17026310Y-14782167D01*
X17035833Y-14744071D01*
X17045357Y-14725024D01*
X17054881Y-14715500D01*
X17073929Y-14705976D01*
X17264405Y-14705976D02*
X17283452Y-14705976D01*
X17302500Y-14715500D01*
X17312024Y-14725024D01*
X17321548Y-14744071D01*
X17331071Y-14782167D01*
X17331071Y-14829786D01*
X17321548Y-14867881D01*
X17312024Y-14886928D01*
X17302500Y-14896452D01*
X17283452Y-14905976D01*
X17264405Y-14905976D01*
X17245357Y-14896452D01*
X17235833Y-14886928D01*
X17226310Y-14867881D01*
X17216786Y-14829786D01*
X17216786Y-14782167D01*
X17226310Y-14744071D01*
X17235833Y-14725024D01*
X17245357Y-14715500D01*
X17264405Y-14705976D01*
X17454881Y-14705976D02*
X17473929Y-14705976D01*
X17492976Y-14715500D01*
X17502500Y-14725024D01*
X17512024Y-14744071D01*
X17521548Y-14782167D01*
X17521548Y-14829786D01*
X17512024Y-14867881D01*
X17502500Y-14886928D01*
X17492976Y-14896452D01*
X17473929Y-14905976D01*
X17454881Y-14905976D01*
X17435833Y-14896452D01*
X17426310Y-14886928D01*
X17416786Y-14867881D01*
X17407262Y-14829786D01*
X17407262Y-14782167D01*
X17416786Y-14744071D01*
X17426310Y-14725024D01*
X17435833Y-14715500D01*
X17454881Y-14705976D01*
X17607262Y-14905976D02*
X17607262Y-14772643D01*
X17607262Y-14791690D02*
X17616786Y-14782167D01*
X17635833Y-14772643D01*
X17664405Y-14772643D01*
X17683452Y-14782167D01*
X17692976Y-14801214D01*
X17692976Y-14905976D01*
X17692976Y-14801214D02*
X17702500Y-14782167D01*
X17721548Y-14772643D01*
X17750119Y-14772643D01*
X17769167Y-14782167D01*
X17778690Y-14801214D01*
X17778690Y-14905976D01*
X17873929Y-14905976D02*
X17873929Y-14772643D01*
X17873929Y-14791690D02*
X17883452Y-14782167D01*
X17902500Y-14772643D01*
X17931071Y-14772643D01*
X17950119Y-14782167D01*
X17959643Y-14801214D01*
X17959643Y-14905976D01*
X17959643Y-14801214D02*
X17969167Y-14782167D01*
X17988214Y-14772643D01*
X18016786Y-14772643D01*
X18035833Y-14782167D01*
X18045357Y-14801214D01*
X18045357Y-14905976D01*
X18435833Y-14696452D02*
X18264405Y-14953595D01*
X18692976Y-14705976D02*
X18712024Y-14705976D01*
X18731071Y-14715500D01*
X18740595Y-14725024D01*
X18750119Y-14744071D01*
X18759643Y-14782167D01*
X18759643Y-14829786D01*
X18750119Y-14867881D01*
X18740595Y-14886928D01*
X18731071Y-14896452D01*
X18712024Y-14905976D01*
X18692976Y-14905976D01*
X18673929Y-14896452D01*
X18664405Y-14886928D01*
X18654881Y-14867881D01*
X18645357Y-14829786D01*
X18645357Y-14782167D01*
X18654881Y-14744071D01*
X18664405Y-14725024D01*
X18673929Y-14715500D01*
X18692976Y-14705976D01*
X18845357Y-14886928D02*
X18854881Y-14896452D01*
X18845357Y-14905976D01*
X18835833Y-14896452D01*
X18845357Y-14886928D01*
X18845357Y-14905976D01*
X18978690Y-14705976D02*
X18997738Y-14705976D01*
X19016786Y-14715500D01*
X19026310Y-14725024D01*
X19035833Y-14744071D01*
X19045357Y-14782167D01*
X19045357Y-14829786D01*
X19035833Y-14867881D01*
X19026310Y-14886928D01*
X19016786Y-14896452D01*
X18997738Y-14905976D01*
X18978690Y-14905976D01*
X18959643Y-14896452D01*
X18950119Y-14886928D01*
X18940595Y-14867881D01*
X18931071Y-14829786D01*
X18931071Y-14782167D01*
X18940595Y-14744071D01*
X18950119Y-14725024D01*
X18959643Y-14715500D01*
X18978690Y-14705976D01*
X19112024Y-14705976D02*
X19235833Y-14705976D01*
X19169167Y-14782167D01*
X19197738Y-14782167D01*
X19216786Y-14791690D01*
X19226310Y-14801214D01*
X19235833Y-14820262D01*
X19235833Y-14867881D01*
X19226310Y-14886928D01*
X19216786Y-14896452D01*
X19197738Y-14905976D01*
X19140595Y-14905976D01*
X19121548Y-14896452D01*
X19112024Y-14886928D01*
X19331071Y-14905976D02*
X19369167Y-14905976D01*
X19388214Y-14896452D01*
X19397738Y-14886928D01*
X19416786Y-14858357D01*
X19426310Y-14820262D01*
X19426310Y-14744071D01*
X19416786Y-14725024D01*
X19407262Y-14715500D01*
X19388214Y-14705976D01*
X19350119Y-14705976D01*
X19331071Y-14715500D01*
X19321548Y-14725024D01*
X19312024Y-14744071D01*
X19312024Y-14791690D01*
X19321548Y-14810738D01*
X19331071Y-14820262D01*
X19350119Y-14829786D01*
X19388214Y-14829786D01*
X19407262Y-14820262D01*
X19416786Y-14810738D01*
X19426310Y-14791690D01*
X19597738Y-14772643D02*
X19597738Y-14905976D01*
X19550119Y-14696452D02*
X19502500Y-14839309D01*
X19626310Y-14839309D01*
X19692976Y-14705976D02*
X19692976Y-14744071D01*
X19769167Y-14705976D02*
X19769167Y-14744071D01*
X20064405Y-14982167D02*
X20054881Y-14972643D01*
X20035833Y-14944071D01*
X20026310Y-14925024D01*
X20016786Y-14896452D01*
X20007262Y-14848833D01*
X20007262Y-14810738D01*
X20016786Y-14763119D01*
X20026310Y-14734548D01*
X20035833Y-14715500D01*
X20054881Y-14686928D01*
X20064405Y-14677405D01*
X20235833Y-14705976D02*
X20140595Y-14705976D01*
X20131071Y-14801214D01*
X20140595Y-14791690D01*
X20159643Y-14782167D01*
X20207262Y-14782167D01*
X20226310Y-14791690D01*
X20235833Y-14801214D01*
X20245357Y-14820262D01*
X20245357Y-14867881D01*
X20235833Y-14886928D01*
X20226310Y-14896452D01*
X20207262Y-14905976D01*
X20159643Y-14905976D01*
X20140595Y-14896452D01*
X20131071Y-14886928D01*
X20340595Y-14905976D02*
X20378690Y-14905976D01*
X20397738Y-14896452D01*
X20407262Y-14886928D01*
X20426310Y-14858357D01*
X20435833Y-14820262D01*
X20435833Y-14744071D01*
X20426310Y-14725024D01*
X20416786Y-14715500D01*
X20397738Y-14705976D01*
X20359643Y-14705976D01*
X20340595Y-14715500D01*
X20331071Y-14725024D01*
X20321548Y-14744071D01*
X20321548Y-14791690D01*
X20331071Y-14810738D01*
X20340595Y-14820262D01*
X20359643Y-14829786D01*
X20397738Y-14829786D01*
X20416786Y-14820262D01*
X20426310Y-14810738D01*
X20435833Y-14791690D01*
X20673929Y-14905976D02*
X20673929Y-14705976D01*
X20759643Y-14905976D02*
X20759643Y-14801214D01*
X20750119Y-14782167D01*
X20731071Y-14772643D01*
X20702500Y-14772643D01*
X20683452Y-14782167D01*
X20673929Y-14791690D01*
X20883452Y-14905976D02*
X20864405Y-14896452D01*
X20854881Y-14886928D01*
X20845357Y-14867881D01*
X20845357Y-14810738D01*
X20854881Y-14791690D01*
X20864405Y-14782167D01*
X20883452Y-14772643D01*
X20912024Y-14772643D01*
X20931071Y-14782167D01*
X20940595Y-14791690D01*
X20950119Y-14810738D01*
X20950119Y-14867881D01*
X20940595Y-14886928D01*
X20931071Y-14896452D01*
X20912024Y-14905976D01*
X20883452Y-14905976D01*
X21064405Y-14905976D02*
X21045357Y-14896452D01*
X21035833Y-14877405D01*
X21035833Y-14705976D01*
X21216786Y-14896452D02*
X21197738Y-14905976D01*
X21159643Y-14905976D01*
X21140595Y-14896452D01*
X21131071Y-14877405D01*
X21131071Y-14801214D01*
X21140595Y-14782167D01*
X21159643Y-14772643D01*
X21197738Y-14772643D01*
X21216786Y-14782167D01*
X21226310Y-14801214D01*
X21226310Y-14820262D01*
X21131071Y-14839309D01*
X21302500Y-14896452D02*
X21321548Y-14905976D01*
X21359643Y-14905976D01*
X21378690Y-14896452D01*
X21388214Y-14877405D01*
X21388214Y-14867881D01*
X21378690Y-14848833D01*
X21359643Y-14839309D01*
X21331071Y-14839309D01*
X21312024Y-14829786D01*
X21302500Y-14810738D01*
X21302500Y-14801214D01*
X21312024Y-14782167D01*
X21331071Y-14772643D01*
X21359643Y-14772643D01*
X21378690Y-14782167D01*
X21454881Y-14982167D02*
X21464405Y-14972643D01*
X21483452Y-14944071D01*
X21492976Y-14925024D01*
X21502500Y-14896452D01*
X21512024Y-14848833D01*
X21512024Y-14810738D01*
X21502500Y-14763119D01*
X21492976Y-14734548D01*
X21483452Y-14715500D01*
X21464405Y-14686928D01*
X21454881Y-14677405D01*
M02*
