%TF.GenerationSoftware,KiCad,Pcbnew,(5.99.0-10363-g902a2c9f58)*%
%TF.CreationDate,2021-05-11T19:21:33+02:00*%
%TF.ProjectId,Smogly1,536d6f67-6c79-4312-9e6b-696361645f70,rev?*%
%TF.SameCoordinates,Original*%
%TF.FileFunction,Copper,L2,Bot*%
%TF.FilePolarity,Positive*%
%FSLAX46Y46*%
G04 Gerber Fmt 4.6, Leading zero omitted, Abs format (unit mm)*
G04 Created by KiCad (PCBNEW (5.99.0-10363-g902a2c9f58)) date 2021-05-11 19:21:33*
%MOMM*%
%LPD*%
G01*
G04 APERTURE LIST*
%TA.AperFunction,ComponentPad*%
%ADD10R,1.700000X1.700000*%
%TD*%
%TA.AperFunction,ComponentPad*%
%ADD11O,1.700000X1.700000*%
%TD*%
%TA.AperFunction,ComponentPad*%
%ADD12R,1.000000X1.000000*%
%TD*%
%TA.AperFunction,ComponentPad*%
%ADD13O,1.000000X1.000000*%
%TD*%
%TA.AperFunction,ViaPad*%
%ADD14C,0.800000*%
%TD*%
%TA.AperFunction,Conductor*%
%ADD15C,0.350000*%
%TD*%
%TA.AperFunction,Conductor*%
%ADD16C,0.450000*%
%TD*%
G04 APERTURE END LIST*
D10*
%TO.P,J2,1,Pin_1*%
%TO.N,+5V*%
X197000000Y-72810000D03*
D11*
%TO.P,J2,2,Pin_2*%
%TO.N,GND*%
X199540000Y-72810000D03*
%TO.P,J2,3,Pin_3*%
%TO.N,Net-(J11-Pad3)*%
X202080000Y-72810000D03*
%TO.P,J2,4,Pin_4*%
%TO.N,Net-(J11-Pad2)*%
X204620000Y-72810000D03*
%TD*%
D10*
%TO.P,J1,1,Pin_1*%
%TO.N,+5V*%
X227050000Y-133125000D03*
D11*
%TO.P,J1,2,Pin_2*%
%TO.N,GND*%
X227050000Y-130585000D03*
%TD*%
D10*
%TO.P,J8,1,Pin_1*%
%TO.N,Net-(J11-Pad11)*%
X220200000Y-88450000D03*
D11*
%TO.P,J8,2,Pin_2*%
%TO.N,Net-(J11-Pad10)*%
X220200000Y-90990000D03*
%TO.P,J8,3,Pin_3*%
%TO.N,Net-(J11-Pad9)*%
X220200000Y-93530000D03*
%TO.P,J8,4,Pin_4*%
%TO.N,Net-(J11-Pad8)*%
X220200000Y-96070000D03*
%TD*%
D10*
%TO.P,J6,1,Pin_1*%
%TO.N,Net-(J10-Pad13)*%
X220200000Y-80400000D03*
D11*
%TO.P,J6,2,Pin_2*%
%TO.N,Net-(J11-Pad1)*%
X220200000Y-82940000D03*
%TD*%
D12*
%TO.P,J9,1,Pin_1*%
%TO.N,+5V*%
X169980000Y-131080000D03*
D13*
%TO.P,J9,2,Pin_2*%
X171250000Y-131080000D03*
%TO.P,J9,3,Pin_3*%
%TO.N,GND*%
X169980000Y-129810000D03*
%TO.P,J9,4,Pin_4*%
X171250000Y-129810000D03*
%TO.P,J9,5,Pin_5*%
%TO.N,unconnected-(J9-Pad5)*%
X169980000Y-128540000D03*
%TO.P,J9,6,Pin_6*%
%TO.N,unconnected-(J9-Pad6)*%
X171250000Y-128540000D03*
%TO.P,J9,7,Pin_7*%
%TO.N,Net-(J11-Pad3)*%
X169980000Y-127270000D03*
%TO.P,J9,8,Pin_8*%
%TO.N,unconnected-(J9-Pad8)*%
X171250000Y-127270000D03*
%TO.P,J9,9,Pin_9*%
%TO.N,Net-(J11-Pad2)*%
X169980000Y-126000000D03*
%TO.P,J9,10,Pin_10*%
%TO.N,unconnected-(J9-Pad10)*%
X171250000Y-126000000D03*
%TD*%
D10*
%TO.P,J10,1,Pin_1*%
%TO.N,N/C*%
X253250000Y-115920000D03*
D11*
%TO.P,J10,2,Pin_2*%
X253250000Y-113380000D03*
%TO.P,J10,3,Pin_3*%
X253250000Y-110840000D03*
%TO.P,J10,4,Pin_4*%
X253250000Y-108300000D03*
%TO.P,J10,5,Pin_5*%
X253250000Y-105760000D03*
%TO.P,J10,6,Pin_6*%
X253250000Y-103220000D03*
%TO.P,J10,7,Pin_7*%
X253250000Y-100680000D03*
%TO.P,J10,8,Pin_8*%
X253250000Y-98140000D03*
%TO.P,J10,9,Pin_9*%
X253250000Y-95600000D03*
%TO.P,J10,10,Pin_10*%
X253250000Y-93060000D03*
%TO.P,J10,11,Pin_11*%
%TO.N,+3V3*%
X253250000Y-90520000D03*
%TO.P,J10,12,Pin_12*%
%TO.N,N/C*%
X253250000Y-87980000D03*
%TO.P,J10,13,Pin_13*%
%TO.N,Net-(J10-Pad13)*%
X253250000Y-85440000D03*
%TO.P,J10,14,Pin_14*%
%TO.N,GND*%
X253250000Y-82900000D03*
%TO.P,J10,15,Pin_15*%
%TO.N,+5V*%
X253250000Y-80360000D03*
%TD*%
D10*
%TO.P,J5,1,Pin_1*%
%TO.N,+3V3*%
X219100000Y-117800000D03*
D11*
%TO.P,J5,2,Pin_2*%
X216560000Y-117800000D03*
%TO.P,J5,3,Pin_3*%
%TO.N,+5V*%
X219100000Y-115260000D03*
%TO.P,J5,4,Pin_4*%
X216560000Y-115260000D03*
%TO.P,J5,5,Pin_5*%
%TO.N,GND*%
X219100000Y-112720000D03*
%TO.P,J5,6,Pin_6*%
X216560000Y-112720000D03*
%TO.P,J5,7,Pin_7*%
X219100000Y-110180000D03*
%TO.P,J5,8,Pin_8*%
X216560000Y-110180000D03*
%TD*%
D10*
%TO.P,J11,1,Pin_1*%
%TO.N,Net-(J11-Pad1)*%
X225310000Y-115920000D03*
D11*
%TO.P,J11,2,Pin_2*%
%TO.N,Net-(J11-Pad2)*%
X225310000Y-113380000D03*
%TO.P,J11,3,Pin_3*%
%TO.N,Net-(J11-Pad3)*%
X225310000Y-110840000D03*
%TO.P,J11,4,Pin_4*%
%TO.N,Net-(J11-Pad4)*%
X225310000Y-108300000D03*
%TO.P,J11,5,Pin_5*%
%TO.N,Net-(J11-Pad5)*%
X225310000Y-105760000D03*
%TO.P,J11,6,Pin_6*%
%TO.N,Net-(J11-Pad6)*%
X225310000Y-103220000D03*
%TO.P,J11,7,Pin_7*%
%TO.N,Net-(J11-Pad7)*%
X225310000Y-100680000D03*
%TO.P,J11,8,Pin_8*%
%TO.N,Net-(J11-Pad8)*%
X225310000Y-98140000D03*
%TO.P,J11,9,Pin_9*%
%TO.N,Net-(J11-Pad9)*%
X225310000Y-95600000D03*
%TO.P,J11,10,Pin_10*%
%TO.N,Net-(J11-Pad10)*%
X225310000Y-93060000D03*
%TO.P,J11,11,Pin_11*%
%TO.N,Net-(J11-Pad11)*%
X225310000Y-90520000D03*
%TO.P,J11,12,Pin_12*%
%TO.N,N/C*%
X225310000Y-87980000D03*
%TO.P,J11,13,Pin_13*%
X225310000Y-85440000D03*
%TO.P,J11,14,Pin_14*%
X225310000Y-82900000D03*
%TO.P,J11,15,Pin_15*%
X225310000Y-80360000D03*
%TD*%
D10*
%TO.P,J4,1,Pin_1*%
%TO.N,GND*%
X243725000Y-122800000D03*
D11*
%TO.P,J4,2,Pin_2*%
%TO.N,N/C*%
X246265000Y-122800000D03*
%TO.P,J4,3,Pin_3*%
X248805000Y-122800000D03*
%TO.P,J4,4,Pin_4*%
X251345000Y-122800000D03*
%TO.P,J4,5,Pin_5*%
%TO.N,+5V*%
X253885000Y-122800000D03*
%TD*%
D10*
%TO.P,J3,1,Pin_1*%
%TO.N,Net-(J11-Pad4)*%
X185000000Y-77700000D03*
D11*
%TO.P,J3,2,Pin_2*%
%TO.N,Net-(J11-Pad5)*%
X185000000Y-80240000D03*
%TO.P,J3,3,Pin_3*%
%TO.N,Net-(J11-Pad7)*%
X185000000Y-82780000D03*
%TO.P,J3,4,Pin_4*%
%TO.N,Net-(J11-Pad6)*%
X185000000Y-85320000D03*
%TD*%
D14*
%TO.N,Net-(J11-Pad2)*%
X179530000Y-110700000D03*
X204710000Y-82650000D03*
X215950000Y-93100000D03*
%TO.N,Net-(J11-Pad3)*%
X177260000Y-110270000D03*
X202170000Y-82540000D03*
%TO.N,+5V*%
X233210000Y-130980000D03*
X173280000Y-131090000D03*
X241050000Y-118990000D03*
X197000000Y-82560000D03*
%TO.N,GND*%
X167630000Y-96810000D03*
X222760000Y-92220000D03*
X175350000Y-129730000D03*
X190130000Y-85950000D03*
X210980000Y-74980000D03*
X218760000Y-125220000D03*
X191790000Y-82020000D03*
X168610000Y-118760000D03*
X188560000Y-88140000D03*
X223580000Y-103740000D03*
X199540000Y-82550000D03*
X237420000Y-87910000D03*
X175010000Y-118760000D03*
X177580000Y-118800000D03*
X223560000Y-106070000D03*
X194490000Y-97100000D03*
X238260000Y-132500000D03*
X216160000Y-106110000D03*
X168060000Y-71370000D03*
X224050000Y-130550000D03*
X171870000Y-118760000D03*
X221370000Y-99260000D03*
X166670000Y-118870000D03*
X218500000Y-105580000D03*
X222740000Y-94890000D03*
X218490000Y-99010000D03*
X222000000Y-115050000D03*
X191050000Y-83990000D03*
X240590000Y-103720000D03*
X222750000Y-89700000D03*
X187920000Y-73150000D03*
X220470000Y-104450000D03*
%TO.N,Net-(J11-Pad5)*%
X221875500Y-103700000D03*
X211220000Y-94710000D03*
%TO.N,Net-(J11-Pad4)*%
X222680000Y-106820000D03*
X211147565Y-93401308D03*
%TO.N,Net-(J11-Pad6)*%
X218490000Y-102500000D03*
X211250000Y-97720000D03*
%TO.N,Net-(J11-Pad7)*%
X211220000Y-96250000D03*
X218431636Y-101448364D03*
%TD*%
D15*
%TO.N,Net-(J11-Pad2)*%
X204710000Y-82650000D02*
X204710000Y-82660000D01*
X179620000Y-107720000D02*
X204690000Y-82650000D01*
X179530000Y-110700000D02*
X179620000Y-110610000D01*
X210870000Y-87240000D02*
X215950000Y-92320000D01*
X215950000Y-92320000D02*
X215950000Y-93100000D01*
X179620000Y-110610000D02*
X179620000Y-107720000D01*
X204690000Y-82650000D02*
X204710000Y-82650000D01*
X209290000Y-87240000D02*
X210870000Y-87240000D01*
X204710000Y-82660000D02*
X209290000Y-87240000D01*
%TO.N,Net-(J11-Pad3)*%
X177680000Y-107020000D02*
X202160000Y-82540000D01*
X177260000Y-110270000D02*
X177680000Y-109850000D01*
X202160000Y-82540000D02*
X202170000Y-82540000D01*
X177680000Y-109850000D02*
X177680000Y-107020000D01*
D16*
%TO.N,+5V*%
X241050000Y-118990000D02*
X240970000Y-118990000D01*
X174060000Y-130310000D02*
X173280000Y-131090000D01*
X240970000Y-118990000D02*
X233210000Y-126750000D01*
X233210000Y-126750000D02*
X233210000Y-130980000D01*
X197000000Y-82560000D02*
X174060000Y-105500000D01*
X174060000Y-105500000D02*
X174060000Y-130310000D01*
%TO.N,GND*%
X222000000Y-115050000D02*
X222000000Y-128500000D01*
X175910000Y-129220000D02*
X175910000Y-106180000D01*
X175350000Y-129730000D02*
X175400000Y-129730000D01*
X175400000Y-129730000D02*
X175910000Y-129220000D01*
X222000000Y-128500000D02*
X224050000Y-130550000D01*
X175910000Y-106180000D02*
X199540000Y-82550000D01*
D15*
%TO.N,Net-(J11-Pad5)*%
X212860000Y-94710000D02*
X211220000Y-94710000D01*
X221875500Y-103700000D02*
X221850000Y-103700000D01*
X221850000Y-103700000D02*
X212860000Y-94710000D01*
%TO.N,Net-(J11-Pad4)*%
X222700000Y-101960000D02*
X214141308Y-93401308D01*
X222700000Y-106800000D02*
X222700000Y-101960000D01*
X222680000Y-106820000D02*
X222700000Y-106800000D01*
X214141308Y-93401308D02*
X211147565Y-93401308D01*
D16*
%TO.N,Net-(J11-Pad6)*%
X211250000Y-97720000D02*
X212340000Y-97720000D01*
X212340000Y-97720000D02*
X217120000Y-102500000D01*
X217120000Y-102500000D02*
X218490000Y-102500000D01*
D15*
%TO.N,Net-(J11-Pad7)*%
X217888364Y-101448364D02*
X217828364Y-101448364D01*
D16*
X212630000Y-96250000D02*
X211220000Y-96250000D01*
X217828364Y-101448364D02*
X212630000Y-96250000D01*
X218431636Y-101448364D02*
X217888364Y-101448364D01*
%TD*%
%TA.AperFunction,Conductor*%
%TO.N,GND*%
G36*
X180416941Y-69300170D02*
G01*
X230301597Y-69300585D01*
X230369718Y-69320588D01*
X230416210Y-69374244D01*
X230427596Y-69426431D01*
X230433123Y-73962204D01*
X230436228Y-76510177D01*
X255389836Y-76479683D01*
X255393020Y-73964430D01*
X255398765Y-69426635D01*
X255418853Y-69358540D01*
X255472568Y-69312115D01*
X255524766Y-69300795D01*
X255931301Y-69300798D01*
X255999422Y-69320801D01*
X256045914Y-69374457D01*
X256057300Y-69426749D01*
X256081563Y-131884392D01*
X256083009Y-135605668D01*
X256063033Y-135673797D01*
X256009396Y-135720310D01*
X255956869Y-135731717D01*
X165746659Y-135631246D01*
X165678560Y-135611168D01*
X165632127Y-135557461D01*
X165620799Y-135505248D01*
X165620785Y-134280500D01*
X165620761Y-132275000D01*
X225894500Y-132275000D01*
X225894500Y-133975000D01*
X225894567Y-133976441D01*
X225894567Y-133976458D01*
X225895219Y-133990558D01*
X225895803Y-134003188D01*
X225926528Y-134111173D01*
X225994186Y-134200767D01*
X226089641Y-134259870D01*
X226101113Y-134262014D01*
X226101114Y-134262015D01*
X226194275Y-134279430D01*
X226194277Y-134279430D01*
X226200000Y-134280500D01*
X227900000Y-134280500D01*
X227901441Y-134280433D01*
X227901458Y-134280433D01*
X227915558Y-134279781D01*
X227928188Y-134279197D01*
X228036173Y-134248472D01*
X228125767Y-134180814D01*
X228184870Y-134085359D01*
X228205500Y-133975000D01*
X228205500Y-132275000D01*
X228205236Y-132269275D01*
X228204533Y-132254084D01*
X228204197Y-132246812D01*
X228173472Y-132138827D01*
X228105814Y-132049233D01*
X228010359Y-131990130D01*
X227998887Y-131987986D01*
X227998886Y-131987985D01*
X227905725Y-131970570D01*
X227905723Y-131970570D01*
X227900000Y-131969500D01*
X227263796Y-131969500D01*
X227195675Y-131949498D01*
X227149182Y-131895842D01*
X227139078Y-131825568D01*
X227168572Y-131760988D01*
X227228298Y-131722604D01*
X227245716Y-131718804D01*
X227313915Y-131708916D01*
X227325098Y-131706231D01*
X227514313Y-131642001D01*
X227524816Y-131637325D01*
X227699162Y-131539687D01*
X227708637Y-131533175D01*
X227862276Y-131405394D01*
X227870394Y-131397276D01*
X227998175Y-131243637D01*
X228004687Y-131234162D01*
X228102325Y-131059816D01*
X228107001Y-131049313D01*
X228133037Y-130972612D01*
X232504539Y-130972612D01*
X232523140Y-131141102D01*
X232533587Y-131169650D01*
X232576496Y-131286902D01*
X232581395Y-131300290D01*
X232585631Y-131306593D01*
X232585631Y-131306594D01*
X232594557Y-131319877D01*
X232675940Y-131440988D01*
X232801317Y-131555073D01*
X232950288Y-131635957D01*
X233114253Y-131678973D01*
X233202481Y-131680359D01*
X233276147Y-131681516D01*
X233276150Y-131681516D01*
X233283745Y-131681635D01*
X233342841Y-131668100D01*
X233441577Y-131645487D01*
X233441581Y-131645486D01*
X233448980Y-131643791D01*
X233600418Y-131567626D01*
X233679755Y-131499865D01*
X233723544Y-131462466D01*
X233723545Y-131462465D01*
X233729316Y-131457536D01*
X233828234Y-131319877D01*
X233844136Y-131280320D01*
X233888626Y-131169650D01*
X233888627Y-131169648D01*
X233891461Y-131162597D01*
X233915345Y-130994775D01*
X233915500Y-130980000D01*
X233908491Y-130922078D01*
X233896048Y-130819258D01*
X233896048Y-130819257D01*
X233895135Y-130811715D01*
X233892427Y-130804549D01*
X233837902Y-130660250D01*
X233837901Y-130660248D01*
X233835217Y-130653145D01*
X233830918Y-130646890D01*
X233830916Y-130646886D01*
X233757660Y-130540299D01*
X233735500Y-130468932D01*
X233735500Y-127019859D01*
X233755502Y-126951738D01*
X233772405Y-126930764D01*
X237635622Y-123067548D01*
X242570000Y-123067548D01*
X242570000Y-123648532D01*
X242570067Y-123651457D01*
X242570965Y-123670869D01*
X242573294Y-123685147D01*
X242598780Y-123774721D01*
X242609011Y-123795267D01*
X242662485Y-123866079D01*
X242679453Y-123881546D01*
X242754892Y-123928256D01*
X242776298Y-123936549D01*
X242869273Y-123953929D01*
X242880828Y-123955000D01*
X243452885Y-123955000D01*
X243468124Y-123950525D01*
X243469329Y-123949135D01*
X243471000Y-123941452D01*
X243471000Y-123072115D01*
X243466525Y-123056876D01*
X243465135Y-123055671D01*
X243457452Y-123054000D01*
X242588115Y-123054000D01*
X242572876Y-123058475D01*
X242571671Y-123059865D01*
X242570000Y-123067548D01*
X237635622Y-123067548D01*
X238747342Y-121955828D01*
X242570000Y-121955828D01*
X242570000Y-122527885D01*
X242574475Y-122543124D01*
X242575865Y-122544329D01*
X242583548Y-122546000D01*
X243452885Y-122546000D01*
X243468124Y-122541525D01*
X243469329Y-122540135D01*
X243471000Y-122532452D01*
X243471000Y-121663115D01*
X243469659Y-121658548D01*
X243979000Y-121658548D01*
X243979000Y-123936885D01*
X243983475Y-123952124D01*
X243984865Y-123953329D01*
X243992548Y-123955000D01*
X244573532Y-123955000D01*
X244576457Y-123954933D01*
X244595869Y-123954035D01*
X244610147Y-123951706D01*
X244699721Y-123926220D01*
X244720267Y-123915989D01*
X244791079Y-123862515D01*
X244806546Y-123845547D01*
X244853256Y-123770108D01*
X244861549Y-123748702D01*
X244878929Y-123655727D01*
X244880000Y-123644172D01*
X244880000Y-123029088D01*
X244900002Y-122960967D01*
X244953658Y-122914474D01*
X245023932Y-122904370D01*
X245088512Y-122933864D01*
X245128123Y-122998073D01*
X245175778Y-123185714D01*
X245264308Y-123377750D01*
X245386351Y-123550437D01*
X245390485Y-123554464D01*
X245509978Y-123670869D01*
X245537820Y-123697992D01*
X245542616Y-123701197D01*
X245542619Y-123701199D01*
X245613530Y-123748580D01*
X245713643Y-123815473D01*
X245718946Y-123817751D01*
X245718949Y-123817753D01*
X245902624Y-123896666D01*
X245907931Y-123898946D01*
X246114177Y-123945615D01*
X246119946Y-123945842D01*
X246119949Y-123945842D01*
X246200242Y-123948996D01*
X246325474Y-123953916D01*
X246413693Y-123941125D01*
X246529032Y-123924402D01*
X246529037Y-123924401D01*
X246534746Y-123923573D01*
X246540210Y-123921718D01*
X246540215Y-123921717D01*
X246729512Y-123857460D01*
X246729517Y-123857458D01*
X246734984Y-123855602D01*
X246752939Y-123845547D01*
X246812371Y-123812263D01*
X246919482Y-123752278D01*
X247082062Y-123617062D01*
X247217278Y-123454482D01*
X247320602Y-123269984D01*
X247322458Y-123264517D01*
X247322460Y-123264512D01*
X247386717Y-123075215D01*
X247386718Y-123075210D01*
X247388573Y-123069746D01*
X247389401Y-123064037D01*
X247389402Y-123064032D01*
X247410063Y-122921533D01*
X247439633Y-122856987D01*
X247499405Y-122818675D01*
X247570401Y-122818759D01*
X247630082Y-122857214D01*
X247659498Y-122921830D01*
X247660489Y-122931371D01*
X247663726Y-122980760D01*
X247715778Y-123185714D01*
X247804308Y-123377750D01*
X247926351Y-123550437D01*
X247930485Y-123554464D01*
X248049978Y-123670869D01*
X248077820Y-123697992D01*
X248082616Y-123701197D01*
X248082619Y-123701199D01*
X248153530Y-123748580D01*
X248253643Y-123815473D01*
X248258946Y-123817751D01*
X248258949Y-123817753D01*
X248442624Y-123896666D01*
X248447931Y-123898946D01*
X248654177Y-123945615D01*
X248659946Y-123945842D01*
X248659949Y-123945842D01*
X248740242Y-123948996D01*
X248865474Y-123953916D01*
X248953693Y-123941125D01*
X249069032Y-123924402D01*
X249069037Y-123924401D01*
X249074746Y-123923573D01*
X249080210Y-123921718D01*
X249080215Y-123921717D01*
X249269512Y-123857460D01*
X249269517Y-123857458D01*
X249274984Y-123855602D01*
X249292939Y-123845547D01*
X249352371Y-123812263D01*
X249459482Y-123752278D01*
X249622062Y-123617062D01*
X249757278Y-123454482D01*
X249860602Y-123269984D01*
X249862458Y-123264517D01*
X249862460Y-123264512D01*
X249926717Y-123075215D01*
X249926718Y-123075210D01*
X249928573Y-123069746D01*
X249929401Y-123064037D01*
X249929402Y-123064032D01*
X249950063Y-122921533D01*
X249979633Y-122856987D01*
X250039405Y-122818675D01*
X250110401Y-122818759D01*
X250170082Y-122857214D01*
X250199498Y-122921830D01*
X250200489Y-122931371D01*
X250203726Y-122980760D01*
X250255778Y-123185714D01*
X250344308Y-123377750D01*
X250466351Y-123550437D01*
X250470485Y-123554464D01*
X250589978Y-123670869D01*
X250617820Y-123697992D01*
X250622616Y-123701197D01*
X250622619Y-123701199D01*
X250693530Y-123748580D01*
X250793643Y-123815473D01*
X250798946Y-123817751D01*
X250798949Y-123817753D01*
X250982624Y-123896666D01*
X250987931Y-123898946D01*
X251194177Y-123945615D01*
X251199946Y-123945842D01*
X251199949Y-123945842D01*
X251280242Y-123948996D01*
X251405474Y-123953916D01*
X251493693Y-123941125D01*
X251609032Y-123924402D01*
X251609037Y-123924401D01*
X251614746Y-123923573D01*
X251620210Y-123921718D01*
X251620215Y-123921717D01*
X251809512Y-123857460D01*
X251809517Y-123857458D01*
X251814984Y-123855602D01*
X251832939Y-123845547D01*
X251892371Y-123812263D01*
X251999482Y-123752278D01*
X252162062Y-123617062D01*
X252297278Y-123454482D01*
X252400602Y-123269984D01*
X252402458Y-123264517D01*
X252402460Y-123264512D01*
X252466717Y-123075215D01*
X252466718Y-123075210D01*
X252468573Y-123069746D01*
X252469401Y-123064037D01*
X252469402Y-123064032D01*
X252490063Y-122921533D01*
X252519633Y-122856987D01*
X252579405Y-122818675D01*
X252650401Y-122818759D01*
X252710082Y-122857214D01*
X252739498Y-122921830D01*
X252740489Y-122931371D01*
X252743726Y-122980760D01*
X252795778Y-123185714D01*
X252884308Y-123377750D01*
X253006351Y-123550437D01*
X253010485Y-123554464D01*
X253129978Y-123670869D01*
X253157820Y-123697992D01*
X253162616Y-123701197D01*
X253162619Y-123701199D01*
X253233530Y-123748580D01*
X253333643Y-123815473D01*
X253338946Y-123817751D01*
X253338949Y-123817753D01*
X253522624Y-123896666D01*
X253527931Y-123898946D01*
X253734177Y-123945615D01*
X253739946Y-123945842D01*
X253739949Y-123945842D01*
X253820242Y-123948996D01*
X253945474Y-123953916D01*
X254033693Y-123941125D01*
X254149032Y-123924402D01*
X254149037Y-123924401D01*
X254154746Y-123923573D01*
X254160210Y-123921718D01*
X254160215Y-123921717D01*
X254349512Y-123857460D01*
X254349517Y-123857458D01*
X254354984Y-123855602D01*
X254372939Y-123845547D01*
X254432371Y-123812263D01*
X254539482Y-123752278D01*
X254702062Y-123617062D01*
X254837278Y-123454482D01*
X254940602Y-123269984D01*
X254942458Y-123264517D01*
X254942460Y-123264512D01*
X255006717Y-123075215D01*
X255006718Y-123075210D01*
X255008573Y-123069746D01*
X255009401Y-123064037D01*
X255009402Y-123064032D01*
X255038383Y-122864148D01*
X255038916Y-122860474D01*
X255040500Y-122800000D01*
X255027238Y-122655667D01*
X255021680Y-122595181D01*
X255021679Y-122595178D01*
X255021151Y-122589427D01*
X255012784Y-122559758D01*
X254965320Y-122391465D01*
X254965319Y-122391463D01*
X254963752Y-122385906D01*
X254949897Y-122357809D01*
X254872781Y-122201434D01*
X254870226Y-122196253D01*
X254743704Y-122026820D01*
X254588424Y-121883280D01*
X254583541Y-121880199D01*
X254583537Y-121880196D01*
X254414470Y-121773523D01*
X254414465Y-121773521D01*
X254409586Y-121770442D01*
X254213180Y-121692084D01*
X254207520Y-121690958D01*
X254207516Y-121690957D01*
X254011450Y-121651957D01*
X254011447Y-121651957D01*
X254005783Y-121650830D01*
X254000008Y-121650754D01*
X254000004Y-121650754D01*
X253894064Y-121649367D01*
X253794341Y-121648062D01*
X253788644Y-121649041D01*
X253788643Y-121649041D01*
X253706738Y-121663115D01*
X253585935Y-121683873D01*
X253387544Y-121757063D01*
X253205814Y-121865181D01*
X253046830Y-122004606D01*
X252915916Y-122170670D01*
X252817457Y-122357809D01*
X252754750Y-122559758D01*
X252754071Y-122565496D01*
X252740097Y-122683562D01*
X252712227Y-122748859D01*
X252653478Y-122788723D01*
X252582504Y-122790497D01*
X252521837Y-122753618D01*
X252490740Y-122689794D01*
X252489499Y-122680281D01*
X252487238Y-122655667D01*
X252485237Y-122633900D01*
X252481680Y-122595181D01*
X252481679Y-122595178D01*
X252481151Y-122589427D01*
X252472784Y-122559758D01*
X252425320Y-122391465D01*
X252425319Y-122391463D01*
X252423752Y-122385906D01*
X252409897Y-122357809D01*
X252332781Y-122201434D01*
X252330226Y-122196253D01*
X252203704Y-122026820D01*
X252048424Y-121883280D01*
X252043541Y-121880199D01*
X252043537Y-121880196D01*
X251874470Y-121773523D01*
X251874465Y-121773521D01*
X251869586Y-121770442D01*
X251673180Y-121692084D01*
X251667520Y-121690958D01*
X251667516Y-121690957D01*
X251471450Y-121651957D01*
X251471447Y-121651957D01*
X251465783Y-121650830D01*
X251460008Y-121650754D01*
X251460004Y-121650754D01*
X251354064Y-121649367D01*
X251254341Y-121648062D01*
X251248644Y-121649041D01*
X251248643Y-121649041D01*
X251166738Y-121663115D01*
X251045935Y-121683873D01*
X250847544Y-121757063D01*
X250665814Y-121865181D01*
X250506830Y-122004606D01*
X250375916Y-122170670D01*
X250277457Y-122357809D01*
X250214750Y-122559758D01*
X250214071Y-122565496D01*
X250200097Y-122683562D01*
X250172227Y-122748859D01*
X250113478Y-122788723D01*
X250042504Y-122790497D01*
X249981837Y-122753618D01*
X249950740Y-122689794D01*
X249949499Y-122680281D01*
X249947238Y-122655667D01*
X249945237Y-122633900D01*
X249941680Y-122595181D01*
X249941679Y-122595178D01*
X249941151Y-122589427D01*
X249932784Y-122559758D01*
X249885320Y-122391465D01*
X249885319Y-122391463D01*
X249883752Y-122385906D01*
X249869897Y-122357809D01*
X249792781Y-122201434D01*
X249790226Y-122196253D01*
X249663704Y-122026820D01*
X249508424Y-121883280D01*
X249503541Y-121880199D01*
X249503537Y-121880196D01*
X249334470Y-121773523D01*
X249334465Y-121773521D01*
X249329586Y-121770442D01*
X249133180Y-121692084D01*
X249127520Y-121690958D01*
X249127516Y-121690957D01*
X248931450Y-121651957D01*
X248931447Y-121651957D01*
X248925783Y-121650830D01*
X248920008Y-121650754D01*
X248920004Y-121650754D01*
X248814064Y-121649367D01*
X248714341Y-121648062D01*
X248708644Y-121649041D01*
X248708643Y-121649041D01*
X248626738Y-121663115D01*
X248505935Y-121683873D01*
X248307544Y-121757063D01*
X248125814Y-121865181D01*
X247966830Y-122004606D01*
X247835916Y-122170670D01*
X247737457Y-122357809D01*
X247674750Y-122559758D01*
X247674071Y-122565496D01*
X247660097Y-122683562D01*
X247632227Y-122748859D01*
X247573478Y-122788723D01*
X247502504Y-122790497D01*
X247441837Y-122753618D01*
X247410740Y-122689794D01*
X247409499Y-122680281D01*
X247407238Y-122655667D01*
X247405237Y-122633900D01*
X247401680Y-122595181D01*
X247401679Y-122595178D01*
X247401151Y-122589427D01*
X247392784Y-122559758D01*
X247345320Y-122391465D01*
X247345319Y-122391463D01*
X247343752Y-122385906D01*
X247329897Y-122357809D01*
X247252781Y-122201434D01*
X247250226Y-122196253D01*
X247123704Y-122026820D01*
X246968424Y-121883280D01*
X246963541Y-121880199D01*
X246963537Y-121880196D01*
X246794470Y-121773523D01*
X246794465Y-121773521D01*
X246789586Y-121770442D01*
X246593180Y-121692084D01*
X246587520Y-121690958D01*
X246587516Y-121690957D01*
X246391450Y-121651957D01*
X246391447Y-121651957D01*
X246385783Y-121650830D01*
X246380008Y-121650754D01*
X246380004Y-121650754D01*
X246274064Y-121649367D01*
X246174341Y-121648062D01*
X246168644Y-121649041D01*
X246168643Y-121649041D01*
X246086738Y-121663115D01*
X245965935Y-121683873D01*
X245767544Y-121757063D01*
X245585814Y-121865181D01*
X245426830Y-122004606D01*
X245295916Y-122170670D01*
X245197457Y-122357809D01*
X245134750Y-122559758D01*
X245134071Y-122565496D01*
X245131127Y-122590370D01*
X245103257Y-122655667D01*
X245044508Y-122695531D01*
X244973534Y-122697305D01*
X244912867Y-122660426D01*
X244881770Y-122596603D01*
X244880000Y-122575560D01*
X244880000Y-121951468D01*
X244879933Y-121948543D01*
X244879035Y-121929131D01*
X244876706Y-121914853D01*
X244851220Y-121825279D01*
X244840989Y-121804733D01*
X244787515Y-121733921D01*
X244770547Y-121718454D01*
X244695108Y-121671744D01*
X244673702Y-121663451D01*
X244580727Y-121646071D01*
X244569172Y-121645000D01*
X243997115Y-121645000D01*
X243981876Y-121649475D01*
X243980671Y-121650865D01*
X243979000Y-121658548D01*
X243469659Y-121658548D01*
X243466525Y-121647876D01*
X243465135Y-121646671D01*
X243457452Y-121645000D01*
X242876468Y-121645000D01*
X242873543Y-121645067D01*
X242854131Y-121645965D01*
X242839853Y-121648294D01*
X242750279Y-121673780D01*
X242729733Y-121684011D01*
X242658921Y-121737485D01*
X242643454Y-121754453D01*
X242596744Y-121829892D01*
X242588451Y-121851298D01*
X242571071Y-121944273D01*
X242570000Y-121955828D01*
X238747342Y-121955828D01*
X240975543Y-119727627D01*
X241037855Y-119693601D01*
X241066616Y-119690738D01*
X241116147Y-119691516D01*
X241116150Y-119691516D01*
X241123745Y-119691635D01*
X241182841Y-119678100D01*
X241281577Y-119655487D01*
X241281581Y-119655486D01*
X241288980Y-119653791D01*
X241440418Y-119577626D01*
X241569316Y-119467536D01*
X241668234Y-119329877D01*
X241731461Y-119172597D01*
X241755345Y-119004775D01*
X241755500Y-118990000D01*
X241751208Y-118954533D01*
X241736048Y-118829258D01*
X241736048Y-118829257D01*
X241735135Y-118821715D01*
X241732427Y-118814549D01*
X241677902Y-118670250D01*
X241677901Y-118670248D01*
X241675217Y-118663145D01*
X241670918Y-118656890D01*
X241670916Y-118656886D01*
X241583505Y-118529703D01*
X241583504Y-118529701D01*
X241579203Y-118523444D01*
X241452638Y-118410679D01*
X241302829Y-118331359D01*
X241138423Y-118290063D01*
X241130825Y-118290023D01*
X241130823Y-118290023D01*
X241057792Y-118289641D01*
X240968912Y-118289176D01*
X240961533Y-118290948D01*
X240961529Y-118290948D01*
X240811461Y-118326976D01*
X240811457Y-118326977D01*
X240804082Y-118328748D01*
X240653450Y-118406495D01*
X240647728Y-118411487D01*
X240647726Y-118411488D01*
X240598441Y-118454482D01*
X240525711Y-118517928D01*
X240506177Y-118545722D01*
X240433921Y-118648532D01*
X240428240Y-118656615D01*
X240425479Y-118663697D01*
X240383923Y-118770285D01*
X240366665Y-118814549D01*
X240365674Y-118822078D01*
X240364200Y-118827818D01*
X240331254Y-118885577D01*
X232849619Y-126367211D01*
X232845811Y-126370864D01*
X232801243Y-126411847D01*
X232796717Y-126419146D01*
X232796715Y-126419149D01*
X232779498Y-126446918D01*
X232772784Y-126456688D01*
X232747821Y-126489575D01*
X232742727Y-126502443D01*
X232732659Y-126522461D01*
X232725364Y-126534226D01*
X232722969Y-126542470D01*
X232722968Y-126542472D01*
X232713851Y-126573854D01*
X232710006Y-126585083D01*
X232707541Y-126591310D01*
X232694813Y-126623458D01*
X232693915Y-126632003D01*
X232693914Y-126632006D01*
X232693364Y-126637233D01*
X232689053Y-126659205D01*
X232687034Y-126666156D01*
X232687033Y-126666164D01*
X232685191Y-126672503D01*
X232684500Y-126681913D01*
X232684500Y-126714978D01*
X232683810Y-126728148D01*
X232679762Y-126766664D01*
X232681194Y-126775130D01*
X232681194Y-126775133D01*
X232682736Y-126784249D01*
X232684500Y-126805261D01*
X232684500Y-130469802D01*
X232661587Y-130542253D01*
X232608402Y-130617928D01*
X232588240Y-130646615D01*
X232526665Y-130804549D01*
X232504539Y-130972612D01*
X228133037Y-130972612D01*
X228171228Y-130860106D01*
X228172469Y-130854935D01*
X228170767Y-130842993D01*
X228157199Y-130839000D01*
X225945955Y-130839000D01*
X225932424Y-130842973D01*
X225931132Y-130851962D01*
X225959828Y-130964952D01*
X225963666Y-130975790D01*
X226047323Y-131157255D01*
X226053074Y-131167216D01*
X226168399Y-131330397D01*
X226175865Y-131339139D01*
X226319001Y-131478577D01*
X226327934Y-131485811D01*
X226494078Y-131596824D01*
X226504188Y-131602314D01*
X226687778Y-131681190D01*
X226698721Y-131684745D01*
X226857205Y-131720607D01*
X226919232Y-131755150D01*
X226952736Y-131817744D01*
X226947082Y-131888515D01*
X226904063Y-131944994D01*
X226837338Y-131969250D01*
X226829397Y-131969500D01*
X226200000Y-131969500D01*
X226198559Y-131969567D01*
X226198542Y-131969567D01*
X226184442Y-131970219D01*
X226171812Y-131970803D01*
X226063827Y-132001528D01*
X225974233Y-132069186D01*
X225915130Y-132164641D01*
X225894500Y-132275000D01*
X165620761Y-132275000D01*
X165620740Y-130580000D01*
X169174500Y-130580000D01*
X169174500Y-131580000D01*
X169175803Y-131608188D01*
X169206528Y-131716173D01*
X169274186Y-131805767D01*
X169369641Y-131864870D01*
X169381113Y-131867014D01*
X169381114Y-131867015D01*
X169474275Y-131884430D01*
X169474277Y-131884430D01*
X169480000Y-131885500D01*
X170480000Y-131885500D01*
X170481441Y-131885433D01*
X170481458Y-131885433D01*
X170495558Y-131884781D01*
X170508188Y-131884197D01*
X170616173Y-131853472D01*
X170705767Y-131785814D01*
X170707662Y-131788324D01*
X170752446Y-131761109D01*
X170823420Y-131762895D01*
X170853887Y-131777429D01*
X170880923Y-131795121D01*
X170880927Y-131795123D01*
X170886818Y-131798978D01*
X170893410Y-131801430D01*
X170893413Y-131801431D01*
X170958241Y-131825540D01*
X171055132Y-131861573D01*
X171062113Y-131862504D01*
X171062115Y-131862505D01*
X171226150Y-131884392D01*
X171226154Y-131884392D01*
X171233131Y-131885323D01*
X171240142Y-131884685D01*
X171240146Y-131884685D01*
X171404947Y-131869687D01*
X171411968Y-131869048D01*
X171481561Y-131846436D01*
X171576057Y-131815733D01*
X171576060Y-131815732D01*
X171582756Y-131813556D01*
X171737005Y-131721605D01*
X171856104Y-131608188D01*
X171861945Y-131602626D01*
X171861947Y-131602624D01*
X171867049Y-131597765D01*
X171966425Y-131448192D01*
X172017845Y-131312830D01*
X172027694Y-131286902D01*
X172027695Y-131286900D01*
X172030194Y-131280320D01*
X172031174Y-131273348D01*
X172054635Y-131106414D01*
X172054635Y-131106409D01*
X172055186Y-131102491D01*
X172055464Y-131082612D01*
X172574539Y-131082612D01*
X172593140Y-131251102D01*
X172618308Y-131319877D01*
X172646633Y-131397276D01*
X172651395Y-131410290D01*
X172655631Y-131416593D01*
X172655631Y-131416594D01*
X172664557Y-131429877D01*
X172745940Y-131550988D01*
X172871317Y-131665073D01*
X173020288Y-131745957D01*
X173184253Y-131788973D01*
X173272481Y-131790359D01*
X173346147Y-131791516D01*
X173346150Y-131791516D01*
X173353745Y-131791635D01*
X173415771Y-131777429D01*
X173511577Y-131755487D01*
X173511581Y-131755486D01*
X173518980Y-131753791D01*
X173670418Y-131677626D01*
X173758231Y-131602626D01*
X173793544Y-131572466D01*
X173793545Y-131572465D01*
X173799316Y-131567536D01*
X173898234Y-131429877D01*
X173939976Y-131326043D01*
X173958626Y-131279650D01*
X173958627Y-131279648D01*
X173961461Y-131272597D01*
X173975597Y-131173267D01*
X174004997Y-131108643D01*
X174011245Y-131101924D01*
X174420369Y-130692800D01*
X174424177Y-130689147D01*
X174462437Y-130653965D01*
X174462438Y-130653963D01*
X174468757Y-130648153D01*
X174473566Y-130640398D01*
X174490507Y-130613075D01*
X174497218Y-130603310D01*
X174522179Y-130570424D01*
X174525339Y-130562443D01*
X174525343Y-130562436D01*
X174527279Y-130557546D01*
X174537338Y-130537545D01*
X174537900Y-130536638D01*
X174544636Y-130525774D01*
X174556148Y-130486149D01*
X174559993Y-130474919D01*
X174572024Y-130444531D01*
X174572024Y-130444530D01*
X174575187Y-130436542D01*
X174576193Y-130426976D01*
X174576636Y-130422767D01*
X174580947Y-130400795D01*
X174582966Y-130393844D01*
X174582967Y-130393836D01*
X174584809Y-130387497D01*
X174585500Y-130378087D01*
X174585500Y-130345022D01*
X174586190Y-130331852D01*
X174586616Y-130327799D01*
X225929698Y-130327799D01*
X225936429Y-130331000D01*
X226777885Y-130331000D01*
X226793124Y-130326525D01*
X226794329Y-130325135D01*
X226796000Y-130317452D01*
X226796000Y-129482676D01*
X227304000Y-129482676D01*
X227304000Y-130312885D01*
X227308475Y-130328124D01*
X227309865Y-130329329D01*
X227317548Y-130331000D01*
X228155271Y-130331000D01*
X228168802Y-130327027D01*
X228169971Y-130318892D01*
X228129853Y-130176644D01*
X228125731Y-130165905D01*
X228037354Y-129986695D01*
X228031344Y-129976887D01*
X227911785Y-129816778D01*
X227904096Y-129808238D01*
X227757354Y-129672592D01*
X227748238Y-129665598D01*
X227579245Y-129558970D01*
X227568994Y-129553746D01*
X227383402Y-129479703D01*
X227372374Y-129476436D01*
X227321770Y-129466371D01*
X227308894Y-129467523D01*
X227304000Y-129482676D01*
X226796000Y-129482676D01*
X226796000Y-129479749D01*
X226792194Y-129466787D01*
X226777279Y-129464851D01*
X226756756Y-129468378D01*
X226745644Y-129471355D01*
X226558176Y-129540516D01*
X226547798Y-129545466D01*
X226376076Y-129647629D01*
X226366764Y-129654394D01*
X226216534Y-129786143D01*
X226208617Y-129794486D01*
X226084909Y-129951408D01*
X226078647Y-129961051D01*
X225985608Y-130137891D01*
X225981207Y-130148515D01*
X225929916Y-130313700D01*
X225929698Y-130327799D01*
X174586616Y-130327799D01*
X174588183Y-130312885D01*
X174590238Y-130293336D01*
X174587483Y-130277043D01*
X174587264Y-130275751D01*
X174585500Y-130254739D01*
X174585500Y-115229753D01*
X215404896Y-115229753D01*
X215418726Y-115440760D01*
X215470778Y-115645714D01*
X215559308Y-115837750D01*
X215681351Y-116010437D01*
X215832820Y-116157992D01*
X215837616Y-116161197D01*
X215837619Y-116161199D01*
X215908530Y-116208580D01*
X216008643Y-116275473D01*
X216013946Y-116277751D01*
X216013949Y-116277753D01*
X216095472Y-116312778D01*
X216202931Y-116358946D01*
X216409177Y-116405615D01*
X216414950Y-116405842D01*
X216420299Y-116406546D01*
X216485227Y-116435268D01*
X216524319Y-116494532D01*
X216525164Y-116565524D01*
X216487495Y-116625703D01*
X216425192Y-116655648D01*
X216266632Y-116682894D01*
X216260935Y-116683873D01*
X216062544Y-116757063D01*
X215880814Y-116865181D01*
X215721830Y-117004606D01*
X215590916Y-117170670D01*
X215492457Y-117357809D01*
X215429750Y-117559758D01*
X215404896Y-117769753D01*
X215418726Y-117980760D01*
X215470778Y-118185714D01*
X215559308Y-118377750D01*
X215681351Y-118550437D01*
X215685485Y-118554464D01*
X215783964Y-118650398D01*
X215832820Y-118697992D01*
X215837616Y-118701197D01*
X215837619Y-118701199D01*
X215908530Y-118748580D01*
X216008643Y-118815473D01*
X216013946Y-118817751D01*
X216013949Y-118817753D01*
X216163290Y-118881915D01*
X216202931Y-118898946D01*
X216409177Y-118945615D01*
X216414946Y-118945842D01*
X216414949Y-118945842D01*
X216495242Y-118948996D01*
X216620474Y-118953916D01*
X216708693Y-118941125D01*
X216824032Y-118924402D01*
X216824037Y-118924401D01*
X216829746Y-118923573D01*
X216835210Y-118921718D01*
X216835215Y-118921717D01*
X217024512Y-118857460D01*
X217024517Y-118857458D01*
X217029984Y-118855602D01*
X217214482Y-118752278D01*
X217377062Y-118617062D01*
X217512278Y-118454482D01*
X217615602Y-118269984D01*
X217617458Y-118264517D01*
X217617460Y-118264512D01*
X217681717Y-118075215D01*
X217681718Y-118075210D01*
X217683573Y-118069746D01*
X217684401Y-118064037D01*
X217684402Y-118064032D01*
X217693804Y-117999184D01*
X217723374Y-117934638D01*
X217783146Y-117896326D01*
X217854142Y-117896410D01*
X217913823Y-117934865D01*
X217943239Y-117999481D01*
X217944500Y-118017264D01*
X217944500Y-118650000D01*
X217944567Y-118651441D01*
X217944567Y-118651458D01*
X217944806Y-118656615D01*
X217945803Y-118678188D01*
X217976528Y-118786173D01*
X218044186Y-118875767D01*
X218139641Y-118934870D01*
X218151113Y-118937014D01*
X218151114Y-118937015D01*
X218244275Y-118954430D01*
X218244277Y-118954430D01*
X218250000Y-118955500D01*
X219950000Y-118955500D01*
X219951441Y-118955433D01*
X219951458Y-118955433D01*
X219965558Y-118954781D01*
X219978188Y-118954197D01*
X220086173Y-118923472D01*
X220175767Y-118855814D01*
X220234870Y-118760359D01*
X220247282Y-118693965D01*
X220254430Y-118655725D01*
X220254430Y-118655723D01*
X220255500Y-118650000D01*
X220255500Y-116950000D01*
X220255236Y-116944275D01*
X220254533Y-116929084D01*
X220254197Y-116921812D01*
X220223472Y-116813827D01*
X220155814Y-116724233D01*
X220060359Y-116665130D01*
X220048887Y-116662986D01*
X220048886Y-116662985D01*
X219955725Y-116645570D01*
X219955723Y-116645570D01*
X219950000Y-116644500D01*
X219317264Y-116644500D01*
X219249143Y-116624498D01*
X219202650Y-116570842D01*
X219192546Y-116500568D01*
X219222040Y-116435988D01*
X219281766Y-116397604D01*
X219299184Y-116393804D01*
X219364032Y-116384402D01*
X219364037Y-116384401D01*
X219369746Y-116383573D01*
X219375210Y-116381718D01*
X219375215Y-116381717D01*
X219564512Y-116317460D01*
X219564517Y-116317458D01*
X219569984Y-116315602D01*
X219754482Y-116212278D01*
X219917062Y-116077062D01*
X220052278Y-115914482D01*
X220155602Y-115729984D01*
X220157458Y-115724517D01*
X220157460Y-115724512D01*
X220221717Y-115535215D01*
X220221718Y-115535210D01*
X220223573Y-115529746D01*
X220224401Y-115524037D01*
X220224402Y-115524032D01*
X220253383Y-115324148D01*
X220253916Y-115320474D01*
X220255500Y-115260000D01*
X220238577Y-115075827D01*
X220238042Y-115070000D01*
X224154500Y-115070000D01*
X224154500Y-116770000D01*
X224154567Y-116771441D01*
X224154567Y-116771458D01*
X224155219Y-116785558D01*
X224155803Y-116798188D01*
X224186528Y-116906173D01*
X224254186Y-116995767D01*
X224349641Y-117054870D01*
X224361113Y-117057014D01*
X224361114Y-117057015D01*
X224454275Y-117074430D01*
X224454277Y-117074430D01*
X224460000Y-117075500D01*
X226160000Y-117075500D01*
X226161441Y-117075433D01*
X226161458Y-117075433D01*
X226175558Y-117074781D01*
X226188188Y-117074197D01*
X226296173Y-117043472D01*
X226385767Y-116975814D01*
X226444870Y-116880359D01*
X226447708Y-116865181D01*
X226464430Y-116775725D01*
X226464430Y-116775723D01*
X226465500Y-116770000D01*
X226465500Y-115070000D01*
X252094500Y-115070000D01*
X252094500Y-116770000D01*
X252094567Y-116771441D01*
X252094567Y-116771458D01*
X252095219Y-116785558D01*
X252095803Y-116798188D01*
X252126528Y-116906173D01*
X252194186Y-116995767D01*
X252289641Y-117054870D01*
X252301113Y-117057014D01*
X252301114Y-117057015D01*
X252394275Y-117074430D01*
X252394277Y-117074430D01*
X252400000Y-117075500D01*
X254100000Y-117075500D01*
X254101441Y-117075433D01*
X254101458Y-117075433D01*
X254115558Y-117074781D01*
X254128188Y-117074197D01*
X254236173Y-117043472D01*
X254325767Y-116975814D01*
X254384870Y-116880359D01*
X254387708Y-116865181D01*
X254404430Y-116775725D01*
X254404430Y-116775723D01*
X254405500Y-116770000D01*
X254405500Y-115070000D01*
X254405236Y-115064275D01*
X254404533Y-115049084D01*
X254404197Y-115041812D01*
X254373472Y-114933827D01*
X254305814Y-114844233D01*
X254210359Y-114785130D01*
X254198887Y-114782986D01*
X254198886Y-114782985D01*
X254105725Y-114765570D01*
X254105723Y-114765570D01*
X254100000Y-114764500D01*
X253467264Y-114764500D01*
X253399143Y-114744498D01*
X253352650Y-114690842D01*
X253342546Y-114620568D01*
X253372040Y-114555988D01*
X253431766Y-114517604D01*
X253449184Y-114513804D01*
X253514032Y-114504402D01*
X253514037Y-114504401D01*
X253519746Y-114503573D01*
X253525210Y-114501718D01*
X253525215Y-114501717D01*
X253714512Y-114437460D01*
X253714517Y-114437458D01*
X253719984Y-114435602D01*
X253904482Y-114332278D01*
X254067062Y-114197062D01*
X254202278Y-114034482D01*
X254284075Y-113888423D01*
X254302778Y-113855027D01*
X254302779Y-113855025D01*
X254305602Y-113849984D01*
X254307458Y-113844517D01*
X254307460Y-113844512D01*
X254371717Y-113655215D01*
X254371718Y-113655210D01*
X254373573Y-113649746D01*
X254374401Y-113644037D01*
X254374402Y-113644032D01*
X254403383Y-113444148D01*
X254403916Y-113440474D01*
X254405500Y-113380000D01*
X254386151Y-113169427D01*
X254377784Y-113139758D01*
X254330320Y-112971465D01*
X254330319Y-112971463D01*
X254328752Y-112965906D01*
X254314897Y-112937809D01*
X254237781Y-112781434D01*
X254235226Y-112776253D01*
X254108704Y-112606820D01*
X253953424Y-112463280D01*
X253948541Y-112460199D01*
X253948537Y-112460196D01*
X253779470Y-112353523D01*
X253779465Y-112353521D01*
X253774586Y-112350442D01*
X253578180Y-112272084D01*
X253395005Y-112235648D01*
X253375650Y-112231798D01*
X253312741Y-112198890D01*
X253277609Y-112137195D01*
X253281409Y-112066300D01*
X253322935Y-112008714D01*
X253382151Y-111983523D01*
X253417042Y-111978464D01*
X253514032Y-111964402D01*
X253514037Y-111964401D01*
X253519746Y-111963573D01*
X253525210Y-111961718D01*
X253525215Y-111961717D01*
X253714512Y-111897460D01*
X253714517Y-111897458D01*
X253719984Y-111895602D01*
X253904482Y-111792278D01*
X254067062Y-111657062D01*
X254202278Y-111494482D01*
X254305602Y-111309984D01*
X254307458Y-111304517D01*
X254307460Y-111304512D01*
X254371717Y-111115215D01*
X254371718Y-111115210D01*
X254373573Y-111109746D01*
X254374401Y-111104037D01*
X254374402Y-111104032D01*
X254403383Y-110904148D01*
X254403916Y-110900474D01*
X254405500Y-110840000D01*
X254386151Y-110629427D01*
X254382377Y-110616043D01*
X254330320Y-110431465D01*
X254330319Y-110431463D01*
X254328752Y-110425906D01*
X254314897Y-110397809D01*
X254237781Y-110241434D01*
X254235226Y-110236253D01*
X254229010Y-110227928D01*
X254168393Y-110146753D01*
X254108704Y-110066820D01*
X253997425Y-109963954D01*
X253957669Y-109927204D01*
X253953424Y-109923280D01*
X253948541Y-109920199D01*
X253948537Y-109920196D01*
X253779470Y-109813523D01*
X253779465Y-109813521D01*
X253774586Y-109810442D01*
X253578180Y-109732084D01*
X253395005Y-109695648D01*
X253375650Y-109691798D01*
X253312741Y-109658890D01*
X253277609Y-109597195D01*
X253281409Y-109526300D01*
X253322935Y-109468714D01*
X253382151Y-109443523D01*
X253417042Y-109438464D01*
X253514032Y-109424402D01*
X253514037Y-109424401D01*
X253519746Y-109423573D01*
X253525210Y-109421718D01*
X253525215Y-109421717D01*
X253714512Y-109357460D01*
X253714517Y-109357458D01*
X253719984Y-109355602D01*
X253904482Y-109252278D01*
X254067062Y-109117062D01*
X254202278Y-108954482D01*
X254305602Y-108769984D01*
X254307458Y-108764517D01*
X254307460Y-108764512D01*
X254371717Y-108575215D01*
X254371718Y-108575210D01*
X254373573Y-108569746D01*
X254374401Y-108564037D01*
X254374402Y-108564032D01*
X254403383Y-108364148D01*
X254403916Y-108360474D01*
X254405500Y-108300000D01*
X254386151Y-108089427D01*
X254377784Y-108059758D01*
X254330320Y-107891465D01*
X254330319Y-107891463D01*
X254328752Y-107885906D01*
X254314897Y-107857809D01*
X254237781Y-107701434D01*
X254235226Y-107696253D01*
X254108704Y-107526820D01*
X253953424Y-107383280D01*
X253948541Y-107380199D01*
X253948537Y-107380196D01*
X253779470Y-107273523D01*
X253779465Y-107273521D01*
X253774586Y-107270442D01*
X253578180Y-107192084D01*
X253380838Y-107152830D01*
X253375650Y-107151798D01*
X253312741Y-107118890D01*
X253277609Y-107057195D01*
X253281409Y-106986300D01*
X253322935Y-106928714D01*
X253382151Y-106903523D01*
X253417042Y-106898464D01*
X253514032Y-106884402D01*
X253514037Y-106884401D01*
X253519746Y-106883573D01*
X253525210Y-106881718D01*
X253525215Y-106881717D01*
X253714512Y-106817460D01*
X253714517Y-106817458D01*
X253719984Y-106815602D01*
X253752024Y-106797659D01*
X253802069Y-106769632D01*
X253904482Y-106712278D01*
X254067062Y-106577062D01*
X254202278Y-106414482D01*
X254305602Y-106229984D01*
X254307458Y-106224517D01*
X254307460Y-106224512D01*
X254371717Y-106035215D01*
X254371718Y-106035210D01*
X254373573Y-106029746D01*
X254374401Y-106024037D01*
X254374402Y-106024032D01*
X254403383Y-105824148D01*
X254403916Y-105820474D01*
X254405500Y-105760000D01*
X254386151Y-105549427D01*
X254381871Y-105534249D01*
X254330320Y-105351465D01*
X254330319Y-105351463D01*
X254328752Y-105345906D01*
X254317878Y-105323854D01*
X254237781Y-105161434D01*
X254235226Y-105156253D01*
X254207477Y-105119092D01*
X254112161Y-104991450D01*
X254108704Y-104986820D01*
X253953424Y-104843280D01*
X253948541Y-104840199D01*
X253948537Y-104840196D01*
X253779470Y-104733523D01*
X253779465Y-104733521D01*
X253774586Y-104730442D01*
X253578180Y-104652084D01*
X253395005Y-104615648D01*
X253375650Y-104611798D01*
X253312741Y-104578890D01*
X253277609Y-104517195D01*
X253281409Y-104446300D01*
X253322935Y-104388714D01*
X253382151Y-104363523D01*
X253421052Y-104357883D01*
X253514032Y-104344402D01*
X253514037Y-104344401D01*
X253519746Y-104343573D01*
X253525210Y-104341718D01*
X253525215Y-104341717D01*
X253714512Y-104277460D01*
X253714517Y-104277458D01*
X253719984Y-104275602D01*
X253730061Y-104269959D01*
X253797371Y-104232263D01*
X253904482Y-104172278D01*
X254067062Y-104037062D01*
X254202278Y-103874482D01*
X254305602Y-103689984D01*
X254307458Y-103684517D01*
X254307460Y-103684512D01*
X254371717Y-103495215D01*
X254371718Y-103495210D01*
X254373573Y-103489746D01*
X254374401Y-103484037D01*
X254374402Y-103484032D01*
X254403383Y-103284148D01*
X254403916Y-103280474D01*
X254405500Y-103220000D01*
X254387790Y-103027264D01*
X254386680Y-103015181D01*
X254386679Y-103015178D01*
X254386151Y-103009427D01*
X254383491Y-102999993D01*
X254330320Y-102811465D01*
X254330319Y-102811463D01*
X254328752Y-102805906D01*
X254314897Y-102777809D01*
X254237781Y-102621434D01*
X254235226Y-102616253D01*
X254108704Y-102446820D01*
X253984185Y-102331715D01*
X253957669Y-102307204D01*
X253953424Y-102303280D01*
X253948541Y-102300199D01*
X253948537Y-102300196D01*
X253779470Y-102193523D01*
X253779465Y-102193521D01*
X253774586Y-102190442D01*
X253578180Y-102112084D01*
X253395005Y-102075648D01*
X253375650Y-102071798D01*
X253312741Y-102038890D01*
X253277609Y-101977195D01*
X253281409Y-101906300D01*
X253322935Y-101848714D01*
X253382151Y-101823523D01*
X253427342Y-101816971D01*
X253514032Y-101804402D01*
X253514037Y-101804401D01*
X253519746Y-101803573D01*
X253525210Y-101801718D01*
X253525215Y-101801717D01*
X253714512Y-101737460D01*
X253714517Y-101737458D01*
X253719984Y-101735602D01*
X253904482Y-101632278D01*
X254067062Y-101497062D01*
X254202278Y-101334482D01*
X254305602Y-101149984D01*
X254307458Y-101144517D01*
X254307460Y-101144512D01*
X254371717Y-100955215D01*
X254371718Y-100955210D01*
X254373573Y-100949746D01*
X254374401Y-100944037D01*
X254374402Y-100944032D01*
X254397154Y-100787112D01*
X254403916Y-100740474D01*
X254405500Y-100680000D01*
X254386151Y-100469427D01*
X254377784Y-100439758D01*
X254330320Y-100271465D01*
X254330319Y-100271463D01*
X254328752Y-100265906D01*
X254314897Y-100237809D01*
X254237781Y-100081434D01*
X254235226Y-100076253D01*
X254108704Y-99906820D01*
X253953424Y-99763280D01*
X253948541Y-99760199D01*
X253948537Y-99760196D01*
X253779470Y-99653523D01*
X253779465Y-99653521D01*
X253774586Y-99650442D01*
X253578180Y-99572084D01*
X253395005Y-99535648D01*
X253375650Y-99531798D01*
X253312741Y-99498890D01*
X253277609Y-99437195D01*
X253281409Y-99366300D01*
X253322935Y-99308714D01*
X253382151Y-99283523D01*
X253417042Y-99278464D01*
X253514032Y-99264402D01*
X253514037Y-99264401D01*
X253519746Y-99263573D01*
X253525210Y-99261718D01*
X253525215Y-99261717D01*
X253714512Y-99197460D01*
X253714517Y-99197458D01*
X253719984Y-99195602D01*
X253904482Y-99092278D01*
X254067062Y-98957062D01*
X254202278Y-98794482D01*
X254305602Y-98609984D01*
X254307458Y-98604517D01*
X254307460Y-98604512D01*
X254371717Y-98415215D01*
X254371718Y-98415210D01*
X254373573Y-98409746D01*
X254374401Y-98404037D01*
X254374402Y-98404032D01*
X254397220Y-98246658D01*
X254403916Y-98200474D01*
X254405500Y-98140000D01*
X254386151Y-97929427D01*
X254377784Y-97899758D01*
X254330320Y-97731465D01*
X254330319Y-97731463D01*
X254328752Y-97725906D01*
X254325920Y-97720162D01*
X254237781Y-97541434D01*
X254235226Y-97536253D01*
X254108704Y-97366820D01*
X253980088Y-97247928D01*
X253957669Y-97227204D01*
X253953424Y-97223280D01*
X253948541Y-97220199D01*
X253948537Y-97220196D01*
X253779470Y-97113523D01*
X253779465Y-97113521D01*
X253774586Y-97110442D01*
X253578180Y-97032084D01*
X253395005Y-96995648D01*
X253375650Y-96991798D01*
X253312741Y-96958890D01*
X253277609Y-96897195D01*
X253281409Y-96826300D01*
X253322935Y-96768714D01*
X253382151Y-96743523D01*
X253417042Y-96738464D01*
X253514032Y-96724402D01*
X253514037Y-96724401D01*
X253519746Y-96723573D01*
X253525210Y-96721718D01*
X253525215Y-96721717D01*
X253714512Y-96657460D01*
X253714517Y-96657458D01*
X253719984Y-96655602D01*
X253743371Y-96642505D01*
X253797371Y-96612263D01*
X253904482Y-96552278D01*
X254067062Y-96417062D01*
X254202278Y-96254482D01*
X254305602Y-96069984D01*
X254307458Y-96064517D01*
X254307460Y-96064512D01*
X254371717Y-95875215D01*
X254371718Y-95875210D01*
X254373573Y-95869746D01*
X254374401Y-95864037D01*
X254374402Y-95864032D01*
X254393518Y-95732190D01*
X254403916Y-95660474D01*
X254405500Y-95600000D01*
X254392785Y-95461626D01*
X254386680Y-95395181D01*
X254386679Y-95395178D01*
X254386151Y-95389427D01*
X254381742Y-95373791D01*
X254330320Y-95191465D01*
X254330319Y-95191463D01*
X254328752Y-95185906D01*
X254323916Y-95176098D01*
X254237781Y-95001434D01*
X254235226Y-94996253D01*
X254205074Y-94955874D01*
X254176838Y-94918062D01*
X254108704Y-94826820D01*
X253953424Y-94683280D01*
X253948541Y-94680199D01*
X253948537Y-94680196D01*
X253779470Y-94573523D01*
X253779465Y-94573521D01*
X253774586Y-94570442D01*
X253578180Y-94492084D01*
X253395005Y-94455648D01*
X253375650Y-94451798D01*
X253312741Y-94418890D01*
X253277609Y-94357195D01*
X253281409Y-94286300D01*
X253322935Y-94228714D01*
X253382151Y-94203523D01*
X253417042Y-94198464D01*
X253514032Y-94184402D01*
X253514037Y-94184401D01*
X253519746Y-94183573D01*
X253525210Y-94181718D01*
X253525215Y-94181717D01*
X253714512Y-94117460D01*
X253714517Y-94117458D01*
X253719984Y-94115602D01*
X253729770Y-94110122D01*
X253852336Y-94041481D01*
X253904482Y-94012278D01*
X254067062Y-93877062D01*
X254202278Y-93714482D01*
X254305602Y-93529984D01*
X254307458Y-93524517D01*
X254307460Y-93524512D01*
X254371717Y-93335215D01*
X254371718Y-93335210D01*
X254373573Y-93329746D01*
X254374401Y-93324037D01*
X254374402Y-93324032D01*
X254403383Y-93124148D01*
X254403916Y-93120474D01*
X254405500Y-93060000D01*
X254391332Y-92905806D01*
X254386680Y-92855181D01*
X254386679Y-92855178D01*
X254386151Y-92849427D01*
X254379838Y-92827040D01*
X254330320Y-92651465D01*
X254330319Y-92651463D01*
X254328752Y-92645906D01*
X254325694Y-92639703D01*
X254237781Y-92461434D01*
X254235226Y-92456253D01*
X254205074Y-92415874D01*
X254175475Y-92376237D01*
X254108704Y-92286820D01*
X253953424Y-92143280D01*
X253948541Y-92140199D01*
X253948537Y-92140196D01*
X253779470Y-92033523D01*
X253779465Y-92033521D01*
X253774586Y-92030442D01*
X253578180Y-91952084D01*
X253395005Y-91915648D01*
X253375650Y-91911798D01*
X253312741Y-91878890D01*
X253277609Y-91817195D01*
X253281409Y-91746300D01*
X253322935Y-91688714D01*
X253382151Y-91663523D01*
X253417042Y-91658464D01*
X253514032Y-91644402D01*
X253514037Y-91644401D01*
X253519746Y-91643573D01*
X253525210Y-91641718D01*
X253525215Y-91641717D01*
X253714512Y-91577460D01*
X253714517Y-91577458D01*
X253719984Y-91575602D01*
X253743371Y-91562505D01*
X253797371Y-91532263D01*
X253904482Y-91472278D01*
X254067062Y-91337062D01*
X254202278Y-91174482D01*
X254305602Y-90989984D01*
X254307458Y-90984517D01*
X254307460Y-90984512D01*
X254371717Y-90795215D01*
X254371718Y-90795210D01*
X254373573Y-90789746D01*
X254374401Y-90784037D01*
X254374402Y-90784032D01*
X254403383Y-90584148D01*
X254403916Y-90580474D01*
X254405500Y-90520000D01*
X254392785Y-90381626D01*
X254386680Y-90315181D01*
X254386679Y-90315178D01*
X254386151Y-90309427D01*
X254377784Y-90279758D01*
X254330320Y-90111465D01*
X254330319Y-90111463D01*
X254328752Y-90105906D01*
X254314897Y-90077809D01*
X254237781Y-89921434D01*
X254235226Y-89916253D01*
X254205074Y-89875874D01*
X254112161Y-89751450D01*
X254108704Y-89746820D01*
X253953424Y-89603280D01*
X253948541Y-89600199D01*
X253948537Y-89600196D01*
X253779470Y-89493523D01*
X253779465Y-89493521D01*
X253774586Y-89490442D01*
X253578180Y-89412084D01*
X253395005Y-89375648D01*
X253375650Y-89371798D01*
X253312741Y-89338890D01*
X253277609Y-89277195D01*
X253281409Y-89206300D01*
X253322935Y-89148714D01*
X253382151Y-89123523D01*
X253417042Y-89118464D01*
X253514032Y-89104402D01*
X253514037Y-89104401D01*
X253519746Y-89103573D01*
X253525210Y-89101718D01*
X253525215Y-89101717D01*
X253714512Y-89037460D01*
X253714517Y-89037458D01*
X253719984Y-89035602D01*
X253904482Y-88932278D01*
X254067062Y-88797062D01*
X254202278Y-88634482D01*
X254305602Y-88449984D01*
X254307458Y-88444517D01*
X254307460Y-88444512D01*
X254371717Y-88255215D01*
X254371718Y-88255210D01*
X254373573Y-88249746D01*
X254374401Y-88244037D01*
X254374402Y-88244032D01*
X254403383Y-88044148D01*
X254403916Y-88040474D01*
X254405500Y-87980000D01*
X254386151Y-87769427D01*
X254381351Y-87752405D01*
X254330320Y-87571465D01*
X254330319Y-87571463D01*
X254328752Y-87565906D01*
X254324541Y-87557365D01*
X254237781Y-87381434D01*
X254235226Y-87376253D01*
X254108704Y-87206820D01*
X253953424Y-87063280D01*
X253948541Y-87060199D01*
X253948537Y-87060196D01*
X253779470Y-86953523D01*
X253779465Y-86953521D01*
X253774586Y-86950442D01*
X253578180Y-86872084D01*
X253395005Y-86835648D01*
X253375650Y-86831798D01*
X253312741Y-86798890D01*
X253277609Y-86737195D01*
X253281409Y-86666300D01*
X253322935Y-86608714D01*
X253382151Y-86583523D01*
X253417042Y-86578464D01*
X253514032Y-86564402D01*
X253514037Y-86564401D01*
X253519746Y-86563573D01*
X253525210Y-86561718D01*
X253525215Y-86561717D01*
X253714512Y-86497460D01*
X253714517Y-86497458D01*
X253719984Y-86495602D01*
X253759113Y-86473689D01*
X253854586Y-86420221D01*
X253904482Y-86392278D01*
X254067062Y-86257062D01*
X254202278Y-86094482D01*
X254305602Y-85909984D01*
X254307458Y-85904517D01*
X254307460Y-85904512D01*
X254371717Y-85715215D01*
X254371718Y-85715210D01*
X254373573Y-85709746D01*
X254374401Y-85704037D01*
X254374402Y-85704032D01*
X254403383Y-85504148D01*
X254403916Y-85500474D01*
X254405500Y-85440000D01*
X254386151Y-85229427D01*
X254377784Y-85199758D01*
X254330320Y-85031465D01*
X254330319Y-85031463D01*
X254328752Y-85025906D01*
X254314897Y-84997809D01*
X254237781Y-84841434D01*
X254235226Y-84836253D01*
X254108704Y-84666820D01*
X253953424Y-84523280D01*
X253948541Y-84520199D01*
X253948537Y-84520196D01*
X253779470Y-84413523D01*
X253779465Y-84413521D01*
X253774586Y-84410442D01*
X253578180Y-84332084D01*
X253482965Y-84313144D01*
X253374188Y-84291507D01*
X253311279Y-84258599D01*
X253276147Y-84196904D01*
X253279947Y-84126009D01*
X253321473Y-84068423D01*
X253380690Y-84043232D01*
X253513915Y-84023916D01*
X253525098Y-84021231D01*
X253714313Y-83957001D01*
X253724816Y-83952325D01*
X253899162Y-83854687D01*
X253908637Y-83848175D01*
X254062276Y-83720394D01*
X254070394Y-83712276D01*
X254198175Y-83558637D01*
X254204687Y-83549162D01*
X254302325Y-83374816D01*
X254307001Y-83364313D01*
X254371228Y-83175106D01*
X254372469Y-83169935D01*
X254370767Y-83157993D01*
X254357199Y-83154000D01*
X252145955Y-83154000D01*
X252132424Y-83157973D01*
X252131132Y-83166962D01*
X252159828Y-83279952D01*
X252163666Y-83290790D01*
X252247323Y-83472255D01*
X252253074Y-83482216D01*
X252368399Y-83645397D01*
X252375865Y-83654139D01*
X252519001Y-83793577D01*
X252527934Y-83800811D01*
X252694078Y-83911824D01*
X252704188Y-83917314D01*
X252887778Y-83996190D01*
X252898721Y-83999745D01*
X253093606Y-84043844D01*
X253110743Y-84046100D01*
X253110444Y-84048369D01*
X253168282Y-84067851D01*
X253212631Y-84123292D01*
X253219967Y-84193908D01*
X253187959Y-84257281D01*
X253126771Y-84293288D01*
X253117390Y-84295270D01*
X252950935Y-84323873D01*
X252752544Y-84397063D01*
X252747583Y-84400015D01*
X252747582Y-84400015D01*
X252735499Y-84407204D01*
X252570814Y-84505181D01*
X252411830Y-84644606D01*
X252280916Y-84810670D01*
X252182457Y-84997809D01*
X252119750Y-85199758D01*
X252094896Y-85409753D01*
X252108726Y-85620760D01*
X252160778Y-85825714D01*
X252249308Y-86017750D01*
X252371351Y-86190437D01*
X252522820Y-86337992D01*
X252527616Y-86341197D01*
X252527619Y-86341199D01*
X252668551Y-86435366D01*
X252698643Y-86455473D01*
X252703946Y-86457751D01*
X252703949Y-86457753D01*
X252785472Y-86492778D01*
X252892931Y-86538946D01*
X253099177Y-86585615D01*
X253104950Y-86585842D01*
X253110299Y-86586546D01*
X253175227Y-86615268D01*
X253214319Y-86674532D01*
X253215164Y-86745524D01*
X253177495Y-86805703D01*
X253115192Y-86835648D01*
X252956632Y-86862894D01*
X252950935Y-86863873D01*
X252752544Y-86937063D01*
X252570814Y-87045181D01*
X252411830Y-87184606D01*
X252280916Y-87350670D01*
X252278227Y-87355781D01*
X252278225Y-87355784D01*
X252226283Y-87454510D01*
X252182457Y-87537809D01*
X252119750Y-87739758D01*
X252094896Y-87949753D01*
X252108726Y-88160760D01*
X252160778Y-88365714D01*
X252249308Y-88557750D01*
X252371351Y-88730437D01*
X252522820Y-88877992D01*
X252527616Y-88881197D01*
X252527619Y-88881199D01*
X252598530Y-88928580D01*
X252698643Y-88995473D01*
X252703946Y-88997751D01*
X252703949Y-88997753D01*
X252785472Y-89032778D01*
X252892931Y-89078946D01*
X253099177Y-89125615D01*
X253104950Y-89125842D01*
X253110299Y-89126546D01*
X253175227Y-89155268D01*
X253214319Y-89214532D01*
X253215164Y-89285524D01*
X253177495Y-89345703D01*
X253115192Y-89375648D01*
X252979957Y-89398886D01*
X252950935Y-89403873D01*
X252752544Y-89477063D01*
X252747583Y-89480015D01*
X252747582Y-89480015D01*
X252602322Y-89566436D01*
X252570814Y-89585181D01*
X252411830Y-89724606D01*
X252280916Y-89890670D01*
X252182457Y-90077809D01*
X252119750Y-90279758D01*
X252094896Y-90489753D01*
X252108726Y-90700760D01*
X252160778Y-90905714D01*
X252249308Y-91097750D01*
X252371351Y-91270437D01*
X252375485Y-91274464D01*
X252479421Y-91375714D01*
X252522820Y-91417992D01*
X252527616Y-91421197D01*
X252527619Y-91421199D01*
X252593213Y-91465027D01*
X252698643Y-91535473D01*
X252703946Y-91537751D01*
X252703949Y-91537753D01*
X252761561Y-91562505D01*
X252892931Y-91618946D01*
X253099177Y-91665615D01*
X253104950Y-91665842D01*
X253110299Y-91666546D01*
X253175227Y-91695268D01*
X253214319Y-91754532D01*
X253215164Y-91825524D01*
X253177495Y-91885703D01*
X253115192Y-91915648D01*
X252981738Y-91938580D01*
X252950935Y-91943873D01*
X252752544Y-92017063D01*
X252747583Y-92020015D01*
X252747582Y-92020015D01*
X252608331Y-92102861D01*
X252570814Y-92125181D01*
X252411830Y-92264606D01*
X252280916Y-92430670D01*
X252278227Y-92435781D01*
X252278225Y-92435784D01*
X252264730Y-92461434D01*
X252182457Y-92617809D01*
X252119750Y-92819758D01*
X252094896Y-93029753D01*
X252108726Y-93240760D01*
X252160778Y-93445714D01*
X252249308Y-93637750D01*
X252371351Y-93810437D01*
X252424586Y-93862296D01*
X252479421Y-93915714D01*
X252522820Y-93957992D01*
X252527616Y-93961197D01*
X252527619Y-93961199D01*
X252593213Y-94005027D01*
X252698643Y-94075473D01*
X252703946Y-94077751D01*
X252703949Y-94077753D01*
X252821987Y-94128466D01*
X252892931Y-94158946D01*
X253099177Y-94205615D01*
X253104950Y-94205842D01*
X253110299Y-94206546D01*
X253175227Y-94235268D01*
X253214319Y-94294532D01*
X253215164Y-94365524D01*
X253177495Y-94425703D01*
X253115192Y-94455648D01*
X252981738Y-94478580D01*
X252950935Y-94483873D01*
X252752544Y-94557063D01*
X252747583Y-94560015D01*
X252747582Y-94560015D01*
X252631720Y-94628946D01*
X252570814Y-94665181D01*
X252411830Y-94804606D01*
X252280916Y-94970670D01*
X252278227Y-94975781D01*
X252278225Y-94975784D01*
X252245333Y-95038302D01*
X252182457Y-95157809D01*
X252119750Y-95359758D01*
X252094896Y-95569753D01*
X252108726Y-95780760D01*
X252160778Y-95985714D01*
X252249308Y-96177750D01*
X252371351Y-96350437D01*
X252375485Y-96354464D01*
X252479421Y-96455714D01*
X252522820Y-96497992D01*
X252527616Y-96501197D01*
X252527619Y-96501199D01*
X252593213Y-96545027D01*
X252698643Y-96615473D01*
X252703946Y-96617751D01*
X252703949Y-96617753D01*
X252761561Y-96642505D01*
X252892931Y-96698946D01*
X253099177Y-96745615D01*
X253104950Y-96745842D01*
X253110299Y-96746546D01*
X253175227Y-96775268D01*
X253214319Y-96834532D01*
X253215164Y-96905524D01*
X253177495Y-96965703D01*
X253115192Y-96995648D01*
X252960217Y-97022278D01*
X252950935Y-97023873D01*
X252752544Y-97097063D01*
X252747583Y-97100015D01*
X252747582Y-97100015D01*
X252587606Y-97195191D01*
X252570814Y-97205181D01*
X252411830Y-97344606D01*
X252280916Y-97510670D01*
X252182457Y-97697809D01*
X252119750Y-97899758D01*
X252094896Y-98109753D01*
X252108726Y-98320760D01*
X252160778Y-98525714D01*
X252249308Y-98717750D01*
X252371351Y-98890437D01*
X252522820Y-99037992D01*
X252527616Y-99041197D01*
X252527619Y-99041199D01*
X252598530Y-99088580D01*
X252698643Y-99155473D01*
X252703946Y-99157751D01*
X252703949Y-99157753D01*
X252785472Y-99192778D01*
X252892931Y-99238946D01*
X253099177Y-99285615D01*
X253104950Y-99285842D01*
X253110299Y-99286546D01*
X253175227Y-99315268D01*
X253214319Y-99374532D01*
X253215164Y-99445524D01*
X253177495Y-99505703D01*
X253115192Y-99535648D01*
X252956632Y-99562894D01*
X252950935Y-99563873D01*
X252752544Y-99637063D01*
X252570814Y-99745181D01*
X252411830Y-99884606D01*
X252280916Y-100050670D01*
X252182457Y-100237809D01*
X252119750Y-100439758D01*
X252094896Y-100649753D01*
X252108726Y-100860760D01*
X252160778Y-101065714D01*
X252249308Y-101257750D01*
X252371351Y-101430437D01*
X252522820Y-101577992D01*
X252527616Y-101581197D01*
X252527619Y-101581199D01*
X252598530Y-101628580D01*
X252698643Y-101695473D01*
X252703946Y-101697751D01*
X252703949Y-101697753D01*
X252864921Y-101766912D01*
X252892931Y-101778946D01*
X253099177Y-101825615D01*
X253104950Y-101825842D01*
X253110299Y-101826546D01*
X253175227Y-101855268D01*
X253214319Y-101914532D01*
X253215164Y-101985524D01*
X253177495Y-102045703D01*
X253115192Y-102075648D01*
X252956632Y-102102894D01*
X252950935Y-102103873D01*
X252752544Y-102177063D01*
X252570814Y-102285181D01*
X252411830Y-102424606D01*
X252280916Y-102590670D01*
X252182457Y-102777809D01*
X252119750Y-102979758D01*
X252094896Y-103189753D01*
X252108726Y-103400760D01*
X252160778Y-103605714D01*
X252249308Y-103797750D01*
X252371351Y-103970437D01*
X252522820Y-104117992D01*
X252527616Y-104121197D01*
X252527619Y-104121199D01*
X252598530Y-104168580D01*
X252698643Y-104235473D01*
X252703946Y-104237751D01*
X252703949Y-104237753D01*
X252868517Y-104308457D01*
X252892931Y-104318946D01*
X253099177Y-104365615D01*
X253104950Y-104365842D01*
X253110299Y-104366546D01*
X253175227Y-104395268D01*
X253214319Y-104454532D01*
X253215164Y-104525524D01*
X253177495Y-104585703D01*
X253115192Y-104615648D01*
X252956632Y-104642894D01*
X252950935Y-104643873D01*
X252752544Y-104717063D01*
X252570814Y-104825181D01*
X252411830Y-104964606D01*
X252280916Y-105130670D01*
X252182457Y-105317809D01*
X252119750Y-105519758D01*
X252094896Y-105729753D01*
X252108726Y-105940760D01*
X252160778Y-106145714D01*
X252249308Y-106337750D01*
X252371351Y-106510437D01*
X252522820Y-106657992D01*
X252527616Y-106661197D01*
X252527619Y-106661199D01*
X252614813Y-106719460D01*
X252698643Y-106775473D01*
X252703946Y-106777751D01*
X252703949Y-106777753D01*
X252837533Y-106835145D01*
X252892931Y-106858946D01*
X253099177Y-106905615D01*
X253104950Y-106905842D01*
X253110299Y-106906546D01*
X253175227Y-106935268D01*
X253214319Y-106994532D01*
X253215164Y-107065524D01*
X253177495Y-107125703D01*
X253115192Y-107155648D01*
X252956632Y-107182894D01*
X252950935Y-107183873D01*
X252752544Y-107257063D01*
X252747583Y-107260015D01*
X252747582Y-107260015D01*
X252703741Y-107286098D01*
X252570814Y-107365181D01*
X252411830Y-107504606D01*
X252280916Y-107670670D01*
X252278227Y-107675781D01*
X252278225Y-107675784D01*
X252237768Y-107752681D01*
X252182457Y-107857809D01*
X252119750Y-108059758D01*
X252094896Y-108269753D01*
X252108726Y-108480760D01*
X252160778Y-108685714D01*
X252249308Y-108877750D01*
X252371351Y-109050437D01*
X252522820Y-109197992D01*
X252527616Y-109201197D01*
X252527619Y-109201199D01*
X252626984Y-109267592D01*
X252698643Y-109315473D01*
X252703946Y-109317751D01*
X252703949Y-109317753D01*
X252870912Y-109389486D01*
X252892931Y-109398946D01*
X253099177Y-109445615D01*
X253104950Y-109445842D01*
X253110299Y-109446546D01*
X253175227Y-109475268D01*
X253214319Y-109534532D01*
X253215164Y-109605524D01*
X253177495Y-109665703D01*
X253115192Y-109695648D01*
X252956632Y-109722894D01*
X252950935Y-109723873D01*
X252752544Y-109797063D01*
X252747583Y-109800015D01*
X252747582Y-109800015D01*
X252580713Y-109899292D01*
X252570814Y-109905181D01*
X252411830Y-110044606D01*
X252280916Y-110210670D01*
X252278227Y-110215781D01*
X252278225Y-110215784D01*
X252229708Y-110308000D01*
X252182457Y-110397809D01*
X252119750Y-110599758D01*
X252094896Y-110809753D01*
X252108726Y-111020760D01*
X252160778Y-111225714D01*
X252249308Y-111417750D01*
X252371351Y-111590437D01*
X252522820Y-111737992D01*
X252527616Y-111741197D01*
X252527619Y-111741199D01*
X252626984Y-111807592D01*
X252698643Y-111855473D01*
X252703946Y-111857751D01*
X252703949Y-111857753D01*
X252870912Y-111929486D01*
X252892931Y-111938946D01*
X253099177Y-111985615D01*
X253104950Y-111985842D01*
X253110299Y-111986546D01*
X253175227Y-112015268D01*
X253214319Y-112074532D01*
X253215164Y-112145524D01*
X253177495Y-112205703D01*
X253115192Y-112235648D01*
X252956632Y-112262894D01*
X252950935Y-112263873D01*
X252752544Y-112337063D01*
X252570814Y-112445181D01*
X252411830Y-112584606D01*
X252280916Y-112750670D01*
X252182457Y-112937809D01*
X252119750Y-113139758D01*
X252094896Y-113349753D01*
X252108726Y-113560760D01*
X252160778Y-113765714D01*
X252249308Y-113957750D01*
X252371351Y-114130437D01*
X252522820Y-114277992D01*
X252527616Y-114281197D01*
X252527619Y-114281199D01*
X252626403Y-114347204D01*
X252698643Y-114395473D01*
X252703946Y-114397751D01*
X252703949Y-114397753D01*
X252887624Y-114476666D01*
X252892931Y-114478946D01*
X252993564Y-114501717D01*
X253054948Y-114515607D01*
X253116975Y-114550150D01*
X253150479Y-114612743D01*
X253144825Y-114683515D01*
X253101806Y-114739994D01*
X253035081Y-114764249D01*
X253027140Y-114764500D01*
X252400000Y-114764500D01*
X252398559Y-114764567D01*
X252398542Y-114764567D01*
X252384442Y-114765219D01*
X252371812Y-114765803D01*
X252263827Y-114796528D01*
X252174233Y-114864186D01*
X252115130Y-114959641D01*
X252094500Y-115070000D01*
X226465500Y-115070000D01*
X226465236Y-115064275D01*
X226464533Y-115049084D01*
X226464197Y-115041812D01*
X226433472Y-114933827D01*
X226365814Y-114844233D01*
X226270359Y-114785130D01*
X226258887Y-114782986D01*
X226258886Y-114782985D01*
X226165725Y-114765570D01*
X226165723Y-114765570D01*
X226160000Y-114764500D01*
X225527264Y-114764500D01*
X225459143Y-114744498D01*
X225412650Y-114690842D01*
X225402546Y-114620568D01*
X225432040Y-114555988D01*
X225491766Y-114517604D01*
X225509184Y-114513804D01*
X225574032Y-114504402D01*
X225574037Y-114504401D01*
X225579746Y-114503573D01*
X225585210Y-114501718D01*
X225585215Y-114501717D01*
X225774512Y-114437460D01*
X225774517Y-114437458D01*
X225779984Y-114435602D01*
X225964482Y-114332278D01*
X226127062Y-114197062D01*
X226262278Y-114034482D01*
X226344075Y-113888423D01*
X226362778Y-113855027D01*
X226362779Y-113855025D01*
X226365602Y-113849984D01*
X226367458Y-113844517D01*
X226367460Y-113844512D01*
X226431717Y-113655215D01*
X226431718Y-113655210D01*
X226433573Y-113649746D01*
X226434401Y-113644037D01*
X226434402Y-113644032D01*
X226463383Y-113444148D01*
X226463916Y-113440474D01*
X226465500Y-113380000D01*
X226446151Y-113169427D01*
X226437784Y-113139758D01*
X226390320Y-112971465D01*
X226390319Y-112971463D01*
X226388752Y-112965906D01*
X226374897Y-112937809D01*
X226297781Y-112781434D01*
X226295226Y-112776253D01*
X226168704Y-112606820D01*
X226013424Y-112463280D01*
X226008541Y-112460199D01*
X226008537Y-112460196D01*
X225839470Y-112353523D01*
X225839465Y-112353521D01*
X225834586Y-112350442D01*
X225638180Y-112272084D01*
X225455005Y-112235648D01*
X225435650Y-112231798D01*
X225372741Y-112198890D01*
X225337609Y-112137195D01*
X225341409Y-112066300D01*
X225382935Y-112008714D01*
X225442151Y-111983523D01*
X225477042Y-111978464D01*
X225574032Y-111964402D01*
X225574037Y-111964401D01*
X225579746Y-111963573D01*
X225585210Y-111961718D01*
X225585215Y-111961717D01*
X225774512Y-111897460D01*
X225774517Y-111897458D01*
X225779984Y-111895602D01*
X225964482Y-111792278D01*
X226127062Y-111657062D01*
X226262278Y-111494482D01*
X226365602Y-111309984D01*
X226367458Y-111304517D01*
X226367460Y-111304512D01*
X226431717Y-111115215D01*
X226431718Y-111115210D01*
X226433573Y-111109746D01*
X226434401Y-111104037D01*
X226434402Y-111104032D01*
X226463383Y-110904148D01*
X226463916Y-110900474D01*
X226465500Y-110840000D01*
X226446151Y-110629427D01*
X226442377Y-110616043D01*
X226390320Y-110431465D01*
X226390319Y-110431463D01*
X226388752Y-110425906D01*
X226374897Y-110397809D01*
X226297781Y-110241434D01*
X226295226Y-110236253D01*
X226289010Y-110227928D01*
X226228393Y-110146753D01*
X226168704Y-110066820D01*
X226057425Y-109963954D01*
X226017669Y-109927204D01*
X226013424Y-109923280D01*
X226008541Y-109920199D01*
X226008537Y-109920196D01*
X225839470Y-109813523D01*
X225839465Y-109813521D01*
X225834586Y-109810442D01*
X225638180Y-109732084D01*
X225455005Y-109695648D01*
X225435650Y-109691798D01*
X225372741Y-109658890D01*
X225337609Y-109597195D01*
X225341409Y-109526300D01*
X225382935Y-109468714D01*
X225442151Y-109443523D01*
X225477042Y-109438464D01*
X225574032Y-109424402D01*
X225574037Y-109424401D01*
X225579746Y-109423573D01*
X225585210Y-109421718D01*
X225585215Y-109421717D01*
X225774512Y-109357460D01*
X225774517Y-109357458D01*
X225779984Y-109355602D01*
X225964482Y-109252278D01*
X226127062Y-109117062D01*
X226262278Y-108954482D01*
X226365602Y-108769984D01*
X226367458Y-108764517D01*
X226367460Y-108764512D01*
X226431717Y-108575215D01*
X226431718Y-108575210D01*
X226433573Y-108569746D01*
X226434401Y-108564037D01*
X226434402Y-108564032D01*
X226463383Y-108364148D01*
X226463916Y-108360474D01*
X226465500Y-108300000D01*
X226446151Y-108089427D01*
X226437784Y-108059758D01*
X226390320Y-107891465D01*
X226390319Y-107891463D01*
X226388752Y-107885906D01*
X226374897Y-107857809D01*
X226297781Y-107701434D01*
X226295226Y-107696253D01*
X226168704Y-107526820D01*
X226013424Y-107383280D01*
X226008541Y-107380199D01*
X226008537Y-107380196D01*
X225839470Y-107273523D01*
X225839465Y-107273521D01*
X225834586Y-107270442D01*
X225638180Y-107192084D01*
X225440838Y-107152830D01*
X225435650Y-107151798D01*
X225372741Y-107118890D01*
X225337609Y-107057195D01*
X225341409Y-106986300D01*
X225382935Y-106928714D01*
X225442151Y-106903523D01*
X225477042Y-106898464D01*
X225574032Y-106884402D01*
X225574037Y-106884401D01*
X225579746Y-106883573D01*
X225585210Y-106881718D01*
X225585215Y-106881717D01*
X225774512Y-106817460D01*
X225774517Y-106817458D01*
X225779984Y-106815602D01*
X225812024Y-106797659D01*
X225862069Y-106769632D01*
X225964482Y-106712278D01*
X226127062Y-106577062D01*
X226262278Y-106414482D01*
X226365602Y-106229984D01*
X226367458Y-106224517D01*
X226367460Y-106224512D01*
X226431717Y-106035215D01*
X226431718Y-106035210D01*
X226433573Y-106029746D01*
X226434401Y-106024037D01*
X226434402Y-106024032D01*
X226463383Y-105824148D01*
X226463916Y-105820474D01*
X226465500Y-105760000D01*
X226446151Y-105549427D01*
X226441871Y-105534249D01*
X226390320Y-105351465D01*
X226390319Y-105351463D01*
X226388752Y-105345906D01*
X226377878Y-105323854D01*
X226297781Y-105161434D01*
X226295226Y-105156253D01*
X226267477Y-105119092D01*
X226172161Y-104991450D01*
X226168704Y-104986820D01*
X226013424Y-104843280D01*
X226008541Y-104840199D01*
X226008537Y-104840196D01*
X225839470Y-104733523D01*
X225839465Y-104733521D01*
X225834586Y-104730442D01*
X225638180Y-104652084D01*
X225455005Y-104615648D01*
X225435650Y-104611798D01*
X225372741Y-104578890D01*
X225337609Y-104517195D01*
X225341409Y-104446300D01*
X225382935Y-104388714D01*
X225442151Y-104363523D01*
X225481052Y-104357883D01*
X225574032Y-104344402D01*
X225574037Y-104344401D01*
X225579746Y-104343573D01*
X225585210Y-104341718D01*
X225585215Y-104341717D01*
X225774512Y-104277460D01*
X225774517Y-104277458D01*
X225779984Y-104275602D01*
X225790061Y-104269959D01*
X225857371Y-104232263D01*
X225964482Y-104172278D01*
X226127062Y-104037062D01*
X226262278Y-103874482D01*
X226365602Y-103689984D01*
X226367458Y-103684517D01*
X226367460Y-103684512D01*
X226431717Y-103495215D01*
X226431718Y-103495210D01*
X226433573Y-103489746D01*
X226434401Y-103484037D01*
X226434402Y-103484032D01*
X226463383Y-103284148D01*
X226463916Y-103280474D01*
X226465500Y-103220000D01*
X226447790Y-103027264D01*
X226446680Y-103015181D01*
X226446679Y-103015178D01*
X226446151Y-103009427D01*
X226443491Y-102999993D01*
X226390320Y-102811465D01*
X226390319Y-102811463D01*
X226388752Y-102805906D01*
X226374897Y-102777809D01*
X226297781Y-102621434D01*
X226295226Y-102616253D01*
X226168704Y-102446820D01*
X226044185Y-102331715D01*
X226017669Y-102307204D01*
X226013424Y-102303280D01*
X226008541Y-102300199D01*
X226008537Y-102300196D01*
X225839470Y-102193523D01*
X225839465Y-102193521D01*
X225834586Y-102190442D01*
X225638180Y-102112084D01*
X225455005Y-102075648D01*
X225435650Y-102071798D01*
X225372741Y-102038890D01*
X225337609Y-101977195D01*
X225341409Y-101906300D01*
X225382935Y-101848714D01*
X225442151Y-101823523D01*
X225487342Y-101816971D01*
X225574032Y-101804402D01*
X225574037Y-101804401D01*
X225579746Y-101803573D01*
X225585210Y-101801718D01*
X225585215Y-101801717D01*
X225774512Y-101737460D01*
X225774517Y-101737458D01*
X225779984Y-101735602D01*
X225964482Y-101632278D01*
X226127062Y-101497062D01*
X226262278Y-101334482D01*
X226365602Y-101149984D01*
X226367458Y-101144517D01*
X226367460Y-101144512D01*
X226431717Y-100955215D01*
X226431718Y-100955210D01*
X226433573Y-100949746D01*
X226434401Y-100944037D01*
X226434402Y-100944032D01*
X226457154Y-100787112D01*
X226463916Y-100740474D01*
X226465500Y-100680000D01*
X226446151Y-100469427D01*
X226437784Y-100439758D01*
X226390320Y-100271465D01*
X226390319Y-100271463D01*
X226388752Y-100265906D01*
X226374897Y-100237809D01*
X226297781Y-100081434D01*
X226295226Y-100076253D01*
X226168704Y-99906820D01*
X226013424Y-99763280D01*
X226008541Y-99760199D01*
X226008537Y-99760196D01*
X225839470Y-99653523D01*
X225839465Y-99653521D01*
X225834586Y-99650442D01*
X225638180Y-99572084D01*
X225455005Y-99535648D01*
X225435650Y-99531798D01*
X225372741Y-99498890D01*
X225337609Y-99437195D01*
X225341409Y-99366300D01*
X225382935Y-99308714D01*
X225442151Y-99283523D01*
X225477042Y-99278464D01*
X225574032Y-99264402D01*
X225574037Y-99264401D01*
X225579746Y-99263573D01*
X225585210Y-99261718D01*
X225585215Y-99261717D01*
X225774512Y-99197460D01*
X225774517Y-99197458D01*
X225779984Y-99195602D01*
X225964482Y-99092278D01*
X226127062Y-98957062D01*
X226262278Y-98794482D01*
X226365602Y-98609984D01*
X226367458Y-98604517D01*
X226367460Y-98604512D01*
X226431717Y-98415215D01*
X226431718Y-98415210D01*
X226433573Y-98409746D01*
X226434401Y-98404037D01*
X226434402Y-98404032D01*
X226457220Y-98246658D01*
X226463916Y-98200474D01*
X226465500Y-98140000D01*
X226446151Y-97929427D01*
X226437784Y-97899758D01*
X226390320Y-97731465D01*
X226390319Y-97731463D01*
X226388752Y-97725906D01*
X226385920Y-97720162D01*
X226297781Y-97541434D01*
X226295226Y-97536253D01*
X226168704Y-97366820D01*
X226040088Y-97247928D01*
X226017669Y-97227204D01*
X226013424Y-97223280D01*
X226008541Y-97220199D01*
X226008537Y-97220196D01*
X225839470Y-97113523D01*
X225839465Y-97113521D01*
X225834586Y-97110442D01*
X225638180Y-97032084D01*
X225455005Y-96995648D01*
X225435650Y-96991798D01*
X225372741Y-96958890D01*
X225337609Y-96897195D01*
X225341409Y-96826300D01*
X225382935Y-96768714D01*
X225442151Y-96743523D01*
X225477042Y-96738464D01*
X225574032Y-96724402D01*
X225574037Y-96724401D01*
X225579746Y-96723573D01*
X225585210Y-96721718D01*
X225585215Y-96721717D01*
X225774512Y-96657460D01*
X225774517Y-96657458D01*
X225779984Y-96655602D01*
X225803371Y-96642505D01*
X225857371Y-96612263D01*
X225964482Y-96552278D01*
X226127062Y-96417062D01*
X226262278Y-96254482D01*
X226365602Y-96069984D01*
X226367458Y-96064517D01*
X226367460Y-96064512D01*
X226431717Y-95875215D01*
X226431718Y-95875210D01*
X226433573Y-95869746D01*
X226434401Y-95864037D01*
X226434402Y-95864032D01*
X226453518Y-95732190D01*
X226463916Y-95660474D01*
X226465500Y-95600000D01*
X226452785Y-95461626D01*
X226446680Y-95395181D01*
X226446679Y-95395178D01*
X226446151Y-95389427D01*
X226441742Y-95373791D01*
X226390320Y-95191465D01*
X226390319Y-95191463D01*
X226388752Y-95185906D01*
X226383916Y-95176098D01*
X226297781Y-95001434D01*
X226295226Y-94996253D01*
X226265074Y-94955874D01*
X226236838Y-94918062D01*
X226168704Y-94826820D01*
X226013424Y-94683280D01*
X226008541Y-94680199D01*
X226008537Y-94680196D01*
X225839470Y-94573523D01*
X225839465Y-94573521D01*
X225834586Y-94570442D01*
X225638180Y-94492084D01*
X225455005Y-94455648D01*
X225435650Y-94451798D01*
X225372741Y-94418890D01*
X225337609Y-94357195D01*
X225341409Y-94286300D01*
X225382935Y-94228714D01*
X225442151Y-94203523D01*
X225477042Y-94198464D01*
X225574032Y-94184402D01*
X225574037Y-94184401D01*
X225579746Y-94183573D01*
X225585210Y-94181718D01*
X225585215Y-94181717D01*
X225774512Y-94117460D01*
X225774517Y-94117458D01*
X225779984Y-94115602D01*
X225789770Y-94110122D01*
X225912336Y-94041481D01*
X225964482Y-94012278D01*
X226127062Y-93877062D01*
X226262278Y-93714482D01*
X226365602Y-93529984D01*
X226367458Y-93524517D01*
X226367460Y-93524512D01*
X226431717Y-93335215D01*
X226431718Y-93335210D01*
X226433573Y-93329746D01*
X226434401Y-93324037D01*
X226434402Y-93324032D01*
X226463383Y-93124148D01*
X226463916Y-93120474D01*
X226465500Y-93060000D01*
X226451332Y-92905806D01*
X226446680Y-92855181D01*
X226446679Y-92855178D01*
X226446151Y-92849427D01*
X226439838Y-92827040D01*
X226390320Y-92651465D01*
X226390319Y-92651463D01*
X226388752Y-92645906D01*
X226385694Y-92639703D01*
X226297781Y-92461434D01*
X226295226Y-92456253D01*
X226265074Y-92415874D01*
X226235475Y-92376237D01*
X226168704Y-92286820D01*
X226013424Y-92143280D01*
X226008541Y-92140199D01*
X226008537Y-92140196D01*
X225839470Y-92033523D01*
X225839465Y-92033521D01*
X225834586Y-92030442D01*
X225638180Y-91952084D01*
X225455005Y-91915648D01*
X225435650Y-91911798D01*
X225372741Y-91878890D01*
X225337609Y-91817195D01*
X225341409Y-91746300D01*
X225382935Y-91688714D01*
X225442151Y-91663523D01*
X225477042Y-91658464D01*
X225574032Y-91644402D01*
X225574037Y-91644401D01*
X225579746Y-91643573D01*
X225585210Y-91641718D01*
X225585215Y-91641717D01*
X225774512Y-91577460D01*
X225774517Y-91577458D01*
X225779984Y-91575602D01*
X225803371Y-91562505D01*
X225857371Y-91532263D01*
X225964482Y-91472278D01*
X226127062Y-91337062D01*
X226262278Y-91174482D01*
X226365602Y-90989984D01*
X226367458Y-90984517D01*
X226367460Y-90984512D01*
X226431717Y-90795215D01*
X226431718Y-90795210D01*
X226433573Y-90789746D01*
X226434401Y-90784037D01*
X226434402Y-90784032D01*
X226463383Y-90584148D01*
X226463916Y-90580474D01*
X226465500Y-90520000D01*
X226452785Y-90381626D01*
X226446680Y-90315181D01*
X226446679Y-90315178D01*
X226446151Y-90309427D01*
X226437784Y-90279758D01*
X226390320Y-90111465D01*
X226390319Y-90111463D01*
X226388752Y-90105906D01*
X226374897Y-90077809D01*
X226297781Y-89921434D01*
X226295226Y-89916253D01*
X226265074Y-89875874D01*
X226172161Y-89751450D01*
X226168704Y-89746820D01*
X226013424Y-89603280D01*
X226008541Y-89600199D01*
X226008537Y-89600196D01*
X225839470Y-89493523D01*
X225839465Y-89493521D01*
X225834586Y-89490442D01*
X225638180Y-89412084D01*
X225455005Y-89375648D01*
X225435650Y-89371798D01*
X225372741Y-89338890D01*
X225337609Y-89277195D01*
X225341409Y-89206300D01*
X225382935Y-89148714D01*
X225442151Y-89123523D01*
X225477042Y-89118464D01*
X225574032Y-89104402D01*
X225574037Y-89104401D01*
X225579746Y-89103573D01*
X225585210Y-89101718D01*
X225585215Y-89101717D01*
X225774512Y-89037460D01*
X225774517Y-89037458D01*
X225779984Y-89035602D01*
X225964482Y-88932278D01*
X226127062Y-88797062D01*
X226262278Y-88634482D01*
X226365602Y-88449984D01*
X226367458Y-88444517D01*
X226367460Y-88444512D01*
X226431717Y-88255215D01*
X226431718Y-88255210D01*
X226433573Y-88249746D01*
X226434401Y-88244037D01*
X226434402Y-88244032D01*
X226463383Y-88044148D01*
X226463916Y-88040474D01*
X226465500Y-87980000D01*
X226446151Y-87769427D01*
X226441351Y-87752405D01*
X226390320Y-87571465D01*
X226390319Y-87571463D01*
X226388752Y-87565906D01*
X226384541Y-87557365D01*
X226297781Y-87381434D01*
X226295226Y-87376253D01*
X226168704Y-87206820D01*
X226013424Y-87063280D01*
X226008541Y-87060199D01*
X226008537Y-87060196D01*
X225839470Y-86953523D01*
X225839465Y-86953521D01*
X225834586Y-86950442D01*
X225638180Y-86872084D01*
X225455005Y-86835648D01*
X225435650Y-86831798D01*
X225372741Y-86798890D01*
X225337609Y-86737195D01*
X225341409Y-86666300D01*
X225382935Y-86608714D01*
X225442151Y-86583523D01*
X225477042Y-86578464D01*
X225574032Y-86564402D01*
X225574037Y-86564401D01*
X225579746Y-86563573D01*
X225585210Y-86561718D01*
X225585215Y-86561717D01*
X225774512Y-86497460D01*
X225774517Y-86497458D01*
X225779984Y-86495602D01*
X225819113Y-86473689D01*
X225914586Y-86420221D01*
X225964482Y-86392278D01*
X226127062Y-86257062D01*
X226262278Y-86094482D01*
X226365602Y-85909984D01*
X226367458Y-85904517D01*
X226367460Y-85904512D01*
X226431717Y-85715215D01*
X226431718Y-85715210D01*
X226433573Y-85709746D01*
X226434401Y-85704037D01*
X226434402Y-85704032D01*
X226463383Y-85504148D01*
X226463916Y-85500474D01*
X226465500Y-85440000D01*
X226446151Y-85229427D01*
X226437784Y-85199758D01*
X226390320Y-85031465D01*
X226390319Y-85031463D01*
X226388752Y-85025906D01*
X226374897Y-84997809D01*
X226297781Y-84841434D01*
X226295226Y-84836253D01*
X226168704Y-84666820D01*
X226013424Y-84523280D01*
X226008541Y-84520199D01*
X226008537Y-84520196D01*
X225839470Y-84413523D01*
X225839465Y-84413521D01*
X225834586Y-84410442D01*
X225638180Y-84332084D01*
X225455005Y-84295648D01*
X225435650Y-84291798D01*
X225372741Y-84258890D01*
X225337609Y-84197195D01*
X225341409Y-84126300D01*
X225382935Y-84068714D01*
X225442151Y-84043523D01*
X225477042Y-84038464D01*
X225574032Y-84024402D01*
X225574037Y-84024401D01*
X225579746Y-84023573D01*
X225585210Y-84021718D01*
X225585215Y-84021717D01*
X225774512Y-83957460D01*
X225774517Y-83957458D01*
X225779984Y-83955602D01*
X225785836Y-83952325D01*
X225876202Y-83901717D01*
X225964482Y-83852278D01*
X226127062Y-83717062D01*
X226262278Y-83554482D01*
X226365602Y-83369984D01*
X226367458Y-83364517D01*
X226367460Y-83364512D01*
X226431717Y-83175215D01*
X226431718Y-83175210D01*
X226433573Y-83169746D01*
X226434401Y-83164037D01*
X226434402Y-83164032D01*
X226456536Y-83011372D01*
X226463916Y-82960474D01*
X226465500Y-82900000D01*
X226449847Y-82729650D01*
X226446680Y-82695181D01*
X226446679Y-82695178D01*
X226446151Y-82689427D01*
X226439199Y-82664775D01*
X226390320Y-82491465D01*
X226390319Y-82491463D01*
X226388752Y-82485906D01*
X226383152Y-82474549D01*
X226297781Y-82301434D01*
X226295226Y-82296253D01*
X226280141Y-82276051D01*
X226209486Y-82181434D01*
X226168704Y-82126820D01*
X226022164Y-81991359D01*
X226017669Y-81987204D01*
X226013424Y-81983280D01*
X226008541Y-81980199D01*
X226008537Y-81980196D01*
X225839470Y-81873523D01*
X225839465Y-81873521D01*
X225834586Y-81870442D01*
X225638180Y-81792084D01*
X225444322Y-81753523D01*
X225435650Y-81751798D01*
X225372741Y-81718890D01*
X225337609Y-81657195D01*
X225341409Y-81586300D01*
X225382935Y-81528714D01*
X225442151Y-81503523D01*
X225477042Y-81498464D01*
X225574032Y-81484402D01*
X225574037Y-81484401D01*
X225579746Y-81483573D01*
X225585210Y-81481718D01*
X225585215Y-81481717D01*
X225774512Y-81417460D01*
X225774517Y-81417458D01*
X225779984Y-81415602D01*
X225792284Y-81408714D01*
X225878627Y-81360359D01*
X225964482Y-81312278D01*
X226127062Y-81177062D01*
X226262278Y-81014482D01*
X226365602Y-80829984D01*
X226367458Y-80824517D01*
X226367460Y-80824512D01*
X226431717Y-80635215D01*
X226431718Y-80635210D01*
X226433573Y-80629746D01*
X226434401Y-80624037D01*
X226434402Y-80624032D01*
X226463383Y-80424148D01*
X226463916Y-80420474D01*
X226465500Y-80360000D01*
X226462721Y-80329753D01*
X252094896Y-80329753D01*
X252108726Y-80540760D01*
X252160778Y-80745714D01*
X252249308Y-80937750D01*
X252371351Y-81110437D01*
X252522820Y-81257992D01*
X252527616Y-81261197D01*
X252527619Y-81261199D01*
X252658853Y-81348886D01*
X252698643Y-81375473D01*
X252703946Y-81377751D01*
X252703949Y-81377753D01*
X252776013Y-81408714D01*
X252892931Y-81458946D01*
X252967269Y-81475767D01*
X253089932Y-81503523D01*
X253099177Y-81505615D01*
X253104949Y-81505842D01*
X253110678Y-81506596D01*
X253110383Y-81508834D01*
X253168329Y-81528363D01*
X253212669Y-81583811D01*
X253219993Y-81654429D01*
X253187975Y-81717796D01*
X253126781Y-81753793D01*
X253117418Y-81755771D01*
X252956761Y-81783377D01*
X252945641Y-81786357D01*
X252758176Y-81855516D01*
X252747798Y-81860466D01*
X252576076Y-81962629D01*
X252566764Y-81969394D01*
X252416534Y-82101143D01*
X252408617Y-82109486D01*
X252284909Y-82266408D01*
X252278647Y-82276051D01*
X252185608Y-82452891D01*
X252181207Y-82463515D01*
X252129916Y-82628700D01*
X252129698Y-82642799D01*
X252136429Y-82646000D01*
X254355271Y-82646000D01*
X254368802Y-82642027D01*
X254369971Y-82633892D01*
X254329853Y-82491644D01*
X254325731Y-82480905D01*
X254237354Y-82301695D01*
X254231344Y-82291887D01*
X254111785Y-82131778D01*
X254104096Y-82123238D01*
X253957354Y-81987592D01*
X253948238Y-81980598D01*
X253779245Y-81873970D01*
X253768994Y-81868746D01*
X253583402Y-81794703D01*
X253572374Y-81791436D01*
X253374175Y-81752012D01*
X253311265Y-81719104D01*
X253276133Y-81657409D01*
X253279933Y-81586515D01*
X253321459Y-81528929D01*
X253380675Y-81503737D01*
X253417331Y-81498422D01*
X253514032Y-81484402D01*
X253514037Y-81484401D01*
X253519746Y-81483573D01*
X253525210Y-81481718D01*
X253525215Y-81481717D01*
X253714512Y-81417460D01*
X253714517Y-81417458D01*
X253719984Y-81415602D01*
X253732284Y-81408714D01*
X253818627Y-81360359D01*
X253904482Y-81312278D01*
X254067062Y-81177062D01*
X254202278Y-81014482D01*
X254305602Y-80829984D01*
X254307458Y-80824517D01*
X254307460Y-80824512D01*
X254371717Y-80635215D01*
X254371718Y-80635210D01*
X254373573Y-80629746D01*
X254374401Y-80624037D01*
X254374402Y-80624032D01*
X254403383Y-80424148D01*
X254403916Y-80420474D01*
X254405500Y-80360000D01*
X254386151Y-80149427D01*
X254377784Y-80119758D01*
X254330320Y-79951465D01*
X254330319Y-79951463D01*
X254328752Y-79945906D01*
X254314897Y-79917809D01*
X254237781Y-79761434D01*
X254235226Y-79756253D01*
X254108704Y-79586820D01*
X253953424Y-79443280D01*
X253948541Y-79440199D01*
X253948537Y-79440196D01*
X253779470Y-79333523D01*
X253779465Y-79333521D01*
X253774586Y-79330442D01*
X253578180Y-79252084D01*
X253572520Y-79250958D01*
X253572516Y-79250957D01*
X253376450Y-79211957D01*
X253376447Y-79211957D01*
X253370783Y-79210830D01*
X253365008Y-79210754D01*
X253365004Y-79210754D01*
X253259064Y-79209367D01*
X253159341Y-79208062D01*
X253153644Y-79209041D01*
X253153643Y-79209041D01*
X253127560Y-79213523D01*
X252950935Y-79243873D01*
X252752544Y-79317063D01*
X252747583Y-79320015D01*
X252747582Y-79320015D01*
X252690264Y-79354116D01*
X252570814Y-79425181D01*
X252411830Y-79564606D01*
X252280916Y-79730670D01*
X252182457Y-79917809D01*
X252119750Y-80119758D01*
X252094896Y-80329753D01*
X226462721Y-80329753D01*
X226446151Y-80149427D01*
X226437784Y-80119758D01*
X226390320Y-79951465D01*
X226390319Y-79951463D01*
X226388752Y-79945906D01*
X226374897Y-79917809D01*
X226297781Y-79761434D01*
X226295226Y-79756253D01*
X226168704Y-79586820D01*
X226013424Y-79443280D01*
X226008541Y-79440199D01*
X226008537Y-79440196D01*
X225839470Y-79333523D01*
X225839465Y-79333521D01*
X225834586Y-79330442D01*
X225638180Y-79252084D01*
X225632520Y-79250958D01*
X225632516Y-79250957D01*
X225436450Y-79211957D01*
X225436447Y-79211957D01*
X225430783Y-79210830D01*
X225425008Y-79210754D01*
X225425004Y-79210754D01*
X225319064Y-79209367D01*
X225219341Y-79208062D01*
X225213644Y-79209041D01*
X225213643Y-79209041D01*
X225187560Y-79213523D01*
X225010935Y-79243873D01*
X224812544Y-79317063D01*
X224807583Y-79320015D01*
X224807582Y-79320015D01*
X224750264Y-79354116D01*
X224630814Y-79425181D01*
X224471830Y-79564606D01*
X224340916Y-79730670D01*
X224242457Y-79917809D01*
X224179750Y-80119758D01*
X224154896Y-80329753D01*
X224168726Y-80540760D01*
X224220778Y-80745714D01*
X224309308Y-80937750D01*
X224431351Y-81110437D01*
X224582820Y-81257992D01*
X224587616Y-81261197D01*
X224587619Y-81261199D01*
X224718853Y-81348886D01*
X224758643Y-81375473D01*
X224763946Y-81377751D01*
X224763949Y-81377753D01*
X224836013Y-81408714D01*
X224952931Y-81458946D01*
X225159177Y-81505615D01*
X225164950Y-81505842D01*
X225170299Y-81506546D01*
X225235227Y-81535268D01*
X225274319Y-81594532D01*
X225275164Y-81665524D01*
X225237495Y-81725703D01*
X225175192Y-81755648D01*
X225016632Y-81782894D01*
X225010935Y-81783873D01*
X224812544Y-81857063D01*
X224807583Y-81860015D01*
X224807582Y-81860015D01*
X224654738Y-81950948D01*
X224630814Y-81965181D01*
X224471830Y-82104606D01*
X224340916Y-82270670D01*
X224338227Y-82275781D01*
X224338225Y-82275784D01*
X224293535Y-82360726D01*
X224242457Y-82457809D01*
X224179750Y-82659758D01*
X224154896Y-82869753D01*
X224168726Y-83080760D01*
X224220778Y-83285714D01*
X224309308Y-83477750D01*
X224431351Y-83650437D01*
X224582820Y-83797992D01*
X224587616Y-83801197D01*
X224587619Y-83801199D01*
X224718395Y-83888580D01*
X224758643Y-83915473D01*
X224763946Y-83917751D01*
X224763949Y-83917753D01*
X224946516Y-83996190D01*
X224952931Y-83998946D01*
X225159177Y-84045615D01*
X225164950Y-84045842D01*
X225170299Y-84046546D01*
X225235227Y-84075268D01*
X225274319Y-84134532D01*
X225275164Y-84205524D01*
X225237495Y-84265703D01*
X225175192Y-84295648D01*
X225016632Y-84322894D01*
X225010935Y-84323873D01*
X224812544Y-84397063D01*
X224807583Y-84400015D01*
X224807582Y-84400015D01*
X224795499Y-84407204D01*
X224630814Y-84505181D01*
X224471830Y-84644606D01*
X224340916Y-84810670D01*
X224242457Y-84997809D01*
X224179750Y-85199758D01*
X224154896Y-85409753D01*
X224168726Y-85620760D01*
X224220778Y-85825714D01*
X224309308Y-86017750D01*
X224431351Y-86190437D01*
X224582820Y-86337992D01*
X224587616Y-86341197D01*
X224587619Y-86341199D01*
X224728551Y-86435366D01*
X224758643Y-86455473D01*
X224763946Y-86457751D01*
X224763949Y-86457753D01*
X224845472Y-86492778D01*
X224952931Y-86538946D01*
X225159177Y-86585615D01*
X225164950Y-86585842D01*
X225170299Y-86586546D01*
X225235227Y-86615268D01*
X225274319Y-86674532D01*
X225275164Y-86745524D01*
X225237495Y-86805703D01*
X225175192Y-86835648D01*
X225016632Y-86862894D01*
X225010935Y-86863873D01*
X224812544Y-86937063D01*
X224630814Y-87045181D01*
X224471830Y-87184606D01*
X224340916Y-87350670D01*
X224338227Y-87355781D01*
X224338225Y-87355784D01*
X224286283Y-87454510D01*
X224242457Y-87537809D01*
X224179750Y-87739758D01*
X224154896Y-87949753D01*
X224168726Y-88160760D01*
X224220778Y-88365714D01*
X224309308Y-88557750D01*
X224431351Y-88730437D01*
X224582820Y-88877992D01*
X224587616Y-88881197D01*
X224587619Y-88881199D01*
X224658530Y-88928580D01*
X224758643Y-88995473D01*
X224763946Y-88997751D01*
X224763949Y-88997753D01*
X224845472Y-89032778D01*
X224952931Y-89078946D01*
X225159177Y-89125615D01*
X225164950Y-89125842D01*
X225170299Y-89126546D01*
X225235227Y-89155268D01*
X225274319Y-89214532D01*
X225275164Y-89285524D01*
X225237495Y-89345703D01*
X225175192Y-89375648D01*
X225039957Y-89398886D01*
X225010935Y-89403873D01*
X224812544Y-89477063D01*
X224807583Y-89480015D01*
X224807582Y-89480015D01*
X224662322Y-89566436D01*
X224630814Y-89585181D01*
X224471830Y-89724606D01*
X224340916Y-89890670D01*
X224242457Y-90077809D01*
X224179750Y-90279758D01*
X224154896Y-90489753D01*
X224168726Y-90700760D01*
X224220778Y-90905714D01*
X224309308Y-91097750D01*
X224431351Y-91270437D01*
X224435485Y-91274464D01*
X224539421Y-91375714D01*
X224582820Y-91417992D01*
X224587616Y-91421197D01*
X224587619Y-91421199D01*
X224653213Y-91465027D01*
X224758643Y-91535473D01*
X224763946Y-91537751D01*
X224763949Y-91537753D01*
X224821561Y-91562505D01*
X224952931Y-91618946D01*
X225159177Y-91665615D01*
X225164950Y-91665842D01*
X225170299Y-91666546D01*
X225235227Y-91695268D01*
X225274319Y-91754532D01*
X225275164Y-91825524D01*
X225237495Y-91885703D01*
X225175192Y-91915648D01*
X225041738Y-91938580D01*
X225010935Y-91943873D01*
X224812544Y-92017063D01*
X224807583Y-92020015D01*
X224807582Y-92020015D01*
X224668331Y-92102861D01*
X224630814Y-92125181D01*
X224471830Y-92264606D01*
X224340916Y-92430670D01*
X224338227Y-92435781D01*
X224338225Y-92435784D01*
X224324730Y-92461434D01*
X224242457Y-92617809D01*
X224179750Y-92819758D01*
X224154896Y-93029753D01*
X224168726Y-93240760D01*
X224220778Y-93445714D01*
X224309308Y-93637750D01*
X224431351Y-93810437D01*
X224484586Y-93862296D01*
X224539421Y-93915714D01*
X224582820Y-93957992D01*
X224587616Y-93961197D01*
X224587619Y-93961199D01*
X224653213Y-94005027D01*
X224758643Y-94075473D01*
X224763946Y-94077751D01*
X224763949Y-94077753D01*
X224881987Y-94128466D01*
X224952931Y-94158946D01*
X225159177Y-94205615D01*
X225164950Y-94205842D01*
X225170299Y-94206546D01*
X225235227Y-94235268D01*
X225274319Y-94294532D01*
X225275164Y-94365524D01*
X225237495Y-94425703D01*
X225175192Y-94455648D01*
X225041738Y-94478580D01*
X225010935Y-94483873D01*
X224812544Y-94557063D01*
X224807583Y-94560015D01*
X224807582Y-94560015D01*
X224691720Y-94628946D01*
X224630814Y-94665181D01*
X224471830Y-94804606D01*
X224340916Y-94970670D01*
X224338227Y-94975781D01*
X224338225Y-94975784D01*
X224305333Y-95038302D01*
X224242457Y-95157809D01*
X224179750Y-95359758D01*
X224154896Y-95569753D01*
X224168726Y-95780760D01*
X224220778Y-95985714D01*
X224309308Y-96177750D01*
X224431351Y-96350437D01*
X224435485Y-96354464D01*
X224539421Y-96455714D01*
X224582820Y-96497992D01*
X224587616Y-96501197D01*
X224587619Y-96501199D01*
X224653213Y-96545027D01*
X224758643Y-96615473D01*
X224763946Y-96617751D01*
X224763949Y-96617753D01*
X224821561Y-96642505D01*
X224952931Y-96698946D01*
X225159177Y-96745615D01*
X225164950Y-96745842D01*
X225170299Y-96746546D01*
X225235227Y-96775268D01*
X225274319Y-96834532D01*
X225275164Y-96905524D01*
X225237495Y-96965703D01*
X225175192Y-96995648D01*
X225020217Y-97022278D01*
X225010935Y-97023873D01*
X224812544Y-97097063D01*
X224807583Y-97100015D01*
X224807582Y-97100015D01*
X224647606Y-97195191D01*
X224630814Y-97205181D01*
X224471830Y-97344606D01*
X224340916Y-97510670D01*
X224242457Y-97697809D01*
X224179750Y-97899758D01*
X224154896Y-98109753D01*
X224168726Y-98320760D01*
X224220778Y-98525714D01*
X224309308Y-98717750D01*
X224431351Y-98890437D01*
X224582820Y-99037992D01*
X224587616Y-99041197D01*
X224587619Y-99041199D01*
X224658530Y-99088580D01*
X224758643Y-99155473D01*
X224763946Y-99157751D01*
X224763949Y-99157753D01*
X224845472Y-99192778D01*
X224952931Y-99238946D01*
X225159177Y-99285615D01*
X225164950Y-99285842D01*
X225170299Y-99286546D01*
X225235227Y-99315268D01*
X225274319Y-99374532D01*
X225275164Y-99445524D01*
X225237495Y-99505703D01*
X225175192Y-99535648D01*
X225016632Y-99562894D01*
X225010935Y-99563873D01*
X224812544Y-99637063D01*
X224630814Y-99745181D01*
X224471830Y-99884606D01*
X224340916Y-100050670D01*
X224242457Y-100237809D01*
X224179750Y-100439758D01*
X224154896Y-100649753D01*
X224168726Y-100860760D01*
X224220778Y-101065714D01*
X224309308Y-101257750D01*
X224431351Y-101430437D01*
X224582820Y-101577992D01*
X224587616Y-101581197D01*
X224587619Y-101581199D01*
X224658530Y-101628580D01*
X224758643Y-101695473D01*
X224763946Y-101697751D01*
X224763949Y-101697753D01*
X224924921Y-101766912D01*
X224952931Y-101778946D01*
X225159177Y-101825615D01*
X225164950Y-101825842D01*
X225170299Y-101826546D01*
X225235227Y-101855268D01*
X225274319Y-101914532D01*
X225275164Y-101985524D01*
X225237495Y-102045703D01*
X225175192Y-102075648D01*
X225016632Y-102102894D01*
X225010935Y-102103873D01*
X224812544Y-102177063D01*
X224630814Y-102285181D01*
X224471830Y-102424606D01*
X224340916Y-102590670D01*
X224242457Y-102777809D01*
X224179750Y-102979758D01*
X224154896Y-103189753D01*
X224168726Y-103400760D01*
X224220778Y-103605714D01*
X224309308Y-103797750D01*
X224431351Y-103970437D01*
X224582820Y-104117992D01*
X224587616Y-104121197D01*
X224587619Y-104121199D01*
X224658530Y-104168580D01*
X224758643Y-104235473D01*
X224763946Y-104237751D01*
X224763949Y-104237753D01*
X224928517Y-104308457D01*
X224952931Y-104318946D01*
X225159177Y-104365615D01*
X225164950Y-104365842D01*
X225170299Y-104366546D01*
X225235227Y-104395268D01*
X225274319Y-104454532D01*
X225275164Y-104525524D01*
X225237495Y-104585703D01*
X225175192Y-104615648D01*
X225016632Y-104642894D01*
X225010935Y-104643873D01*
X224812544Y-104717063D01*
X224630814Y-104825181D01*
X224471830Y-104964606D01*
X224340916Y-105130670D01*
X224242457Y-105317809D01*
X224179750Y-105519758D01*
X224154896Y-105729753D01*
X224168726Y-105940760D01*
X224220778Y-106145714D01*
X224309308Y-106337750D01*
X224431351Y-106510437D01*
X224582820Y-106657992D01*
X224587616Y-106661197D01*
X224587619Y-106661199D01*
X224674813Y-106719460D01*
X224758643Y-106775473D01*
X224763946Y-106777751D01*
X224763949Y-106777753D01*
X224897533Y-106835145D01*
X224952931Y-106858946D01*
X225159177Y-106905615D01*
X225164950Y-106905842D01*
X225170299Y-106906546D01*
X225235227Y-106935268D01*
X225274319Y-106994532D01*
X225275164Y-107065524D01*
X225237495Y-107125703D01*
X225175192Y-107155648D01*
X225016632Y-107182894D01*
X225010935Y-107183873D01*
X224812544Y-107257063D01*
X224807583Y-107260015D01*
X224807582Y-107260015D01*
X224763741Y-107286098D01*
X224630814Y-107365181D01*
X224471830Y-107504606D01*
X224340916Y-107670670D01*
X224338227Y-107675781D01*
X224338225Y-107675784D01*
X224297768Y-107752681D01*
X224242457Y-107857809D01*
X224179750Y-108059758D01*
X224154896Y-108269753D01*
X224168726Y-108480760D01*
X224220778Y-108685714D01*
X224309308Y-108877750D01*
X224431351Y-109050437D01*
X224582820Y-109197992D01*
X224587616Y-109201197D01*
X224587619Y-109201199D01*
X224686984Y-109267592D01*
X224758643Y-109315473D01*
X224763946Y-109317751D01*
X224763949Y-109317753D01*
X224930912Y-109389486D01*
X224952931Y-109398946D01*
X225159177Y-109445615D01*
X225164950Y-109445842D01*
X225170299Y-109446546D01*
X225235227Y-109475268D01*
X225274319Y-109534532D01*
X225275164Y-109605524D01*
X225237495Y-109665703D01*
X225175192Y-109695648D01*
X225016632Y-109722894D01*
X225010935Y-109723873D01*
X224812544Y-109797063D01*
X224807583Y-109800015D01*
X224807582Y-109800015D01*
X224640713Y-109899292D01*
X224630814Y-109905181D01*
X224471830Y-110044606D01*
X224340916Y-110210670D01*
X224338227Y-110215781D01*
X224338225Y-110215784D01*
X224289708Y-110308000D01*
X224242457Y-110397809D01*
X224179750Y-110599758D01*
X224154896Y-110809753D01*
X224168726Y-111020760D01*
X224220778Y-111225714D01*
X224309308Y-111417750D01*
X224431351Y-111590437D01*
X224582820Y-111737992D01*
X224587616Y-111741197D01*
X224587619Y-111741199D01*
X224686984Y-111807592D01*
X224758643Y-111855473D01*
X224763946Y-111857751D01*
X224763949Y-111857753D01*
X224930912Y-111929486D01*
X224952931Y-111938946D01*
X225159177Y-111985615D01*
X225164950Y-111985842D01*
X225170299Y-111986546D01*
X225235227Y-112015268D01*
X225274319Y-112074532D01*
X225275164Y-112145524D01*
X225237495Y-112205703D01*
X225175192Y-112235648D01*
X225016632Y-112262894D01*
X225010935Y-112263873D01*
X224812544Y-112337063D01*
X224630814Y-112445181D01*
X224471830Y-112584606D01*
X224340916Y-112750670D01*
X224242457Y-112937809D01*
X224179750Y-113139758D01*
X224154896Y-113349753D01*
X224168726Y-113560760D01*
X224220778Y-113765714D01*
X224309308Y-113957750D01*
X224431351Y-114130437D01*
X224582820Y-114277992D01*
X224587616Y-114281197D01*
X224587619Y-114281199D01*
X224686403Y-114347204D01*
X224758643Y-114395473D01*
X224763946Y-114397751D01*
X224763949Y-114397753D01*
X224947624Y-114476666D01*
X224952931Y-114478946D01*
X225053564Y-114501717D01*
X225114948Y-114515607D01*
X225176975Y-114550150D01*
X225210479Y-114612743D01*
X225204825Y-114683515D01*
X225161806Y-114739994D01*
X225095081Y-114764249D01*
X225087140Y-114764500D01*
X224460000Y-114764500D01*
X224458559Y-114764567D01*
X224458542Y-114764567D01*
X224444442Y-114765219D01*
X224431812Y-114765803D01*
X224323827Y-114796528D01*
X224234233Y-114864186D01*
X224175130Y-114959641D01*
X224154500Y-115070000D01*
X220238042Y-115070000D01*
X220236680Y-115055181D01*
X220236679Y-115055178D01*
X220236151Y-115049427D01*
X220234004Y-115041812D01*
X220180320Y-114851465D01*
X220180319Y-114851463D01*
X220178752Y-114845906D01*
X220174896Y-114838085D01*
X220087781Y-114661434D01*
X220085226Y-114656253D01*
X219958704Y-114486820D01*
X219803424Y-114343280D01*
X219798541Y-114340199D01*
X219798537Y-114340196D01*
X219629470Y-114233523D01*
X219629465Y-114233521D01*
X219624586Y-114230442D01*
X219428180Y-114152084D01*
X219295650Y-114125722D01*
X219224188Y-114111507D01*
X219161279Y-114078599D01*
X219126147Y-114016904D01*
X219129947Y-113946009D01*
X219171473Y-113888423D01*
X219230690Y-113863232D01*
X219363915Y-113843916D01*
X219375098Y-113841231D01*
X219564313Y-113777001D01*
X219574816Y-113772325D01*
X219749162Y-113674687D01*
X219758637Y-113668175D01*
X219912276Y-113540394D01*
X219920394Y-113532276D01*
X220048175Y-113378637D01*
X220054687Y-113369162D01*
X220152325Y-113194816D01*
X220157001Y-113184313D01*
X220221228Y-112995106D01*
X220222469Y-112989935D01*
X220220767Y-112977993D01*
X220207199Y-112974000D01*
X217995955Y-112974000D01*
X217982424Y-112977973D01*
X217981132Y-112986962D01*
X218009828Y-113099952D01*
X218013666Y-113110790D01*
X218097323Y-113292255D01*
X218103074Y-113302216D01*
X218218399Y-113465397D01*
X218225865Y-113474139D01*
X218369001Y-113613577D01*
X218377934Y-113620811D01*
X218544078Y-113731824D01*
X218554188Y-113737314D01*
X218737778Y-113816190D01*
X218748721Y-113819745D01*
X218943606Y-113863844D01*
X218960743Y-113866100D01*
X218960444Y-113868369D01*
X219018282Y-113887851D01*
X219062631Y-113943292D01*
X219069967Y-114013908D01*
X219037959Y-114077281D01*
X218976771Y-114113288D01*
X218967390Y-114115270D01*
X218800935Y-114143873D01*
X218602544Y-114217063D01*
X218597583Y-114220015D01*
X218597582Y-114220015D01*
X218500132Y-114277992D01*
X218420814Y-114325181D01*
X218261830Y-114464606D01*
X218130916Y-114630670D01*
X218032457Y-114817809D01*
X217969750Y-115019758D01*
X217969071Y-115025496D01*
X217955097Y-115143562D01*
X217927227Y-115208859D01*
X217868478Y-115248723D01*
X217797504Y-115250497D01*
X217736837Y-115213618D01*
X217705740Y-115149794D01*
X217704499Y-115140281D01*
X217696680Y-115055181D01*
X217696679Y-115055178D01*
X217696151Y-115049427D01*
X217694004Y-115041812D01*
X217640320Y-114851465D01*
X217640319Y-114851463D01*
X217638752Y-114845906D01*
X217634896Y-114838085D01*
X217547781Y-114661434D01*
X217545226Y-114656253D01*
X217418704Y-114486820D01*
X217263424Y-114343280D01*
X217258541Y-114340199D01*
X217258537Y-114340196D01*
X217089470Y-114233523D01*
X217089465Y-114233521D01*
X217084586Y-114230442D01*
X216888180Y-114152084D01*
X216755650Y-114125722D01*
X216684188Y-114111507D01*
X216621279Y-114078599D01*
X216586147Y-114016904D01*
X216589947Y-113946009D01*
X216631473Y-113888423D01*
X216690690Y-113863232D01*
X216823915Y-113843916D01*
X216835098Y-113841231D01*
X217024313Y-113777001D01*
X217034816Y-113772325D01*
X217209162Y-113674687D01*
X217218637Y-113668175D01*
X217372276Y-113540394D01*
X217380394Y-113532276D01*
X217508175Y-113378637D01*
X217514687Y-113369162D01*
X217612325Y-113194816D01*
X217617001Y-113184313D01*
X217681231Y-112995098D01*
X217683916Y-112983915D01*
X217712884Y-112784122D01*
X217713514Y-112776740D01*
X217714903Y-112723704D01*
X217714660Y-112716305D01*
X217696188Y-112515275D01*
X217694090Y-112503954D01*
X217682483Y-112462799D01*
X217979698Y-112462799D01*
X217986429Y-112466000D01*
X220205271Y-112466000D01*
X220218802Y-112462027D01*
X220219971Y-112453892D01*
X220179853Y-112311644D01*
X220175731Y-112300905D01*
X220087354Y-112121695D01*
X220081344Y-112111887D01*
X219961785Y-111951778D01*
X219954096Y-111943238D01*
X219807354Y-111807592D01*
X219798238Y-111800598D01*
X219629245Y-111693970D01*
X219618994Y-111688746D01*
X219433402Y-111614703D01*
X219422376Y-111611437D01*
X219222712Y-111571721D01*
X219159803Y-111538813D01*
X219124671Y-111477118D01*
X219128471Y-111406224D01*
X219169997Y-111348638D01*
X219229214Y-111323446D01*
X219363915Y-111303916D01*
X219375098Y-111301231D01*
X219564313Y-111237001D01*
X219574816Y-111232325D01*
X219749162Y-111134687D01*
X219758637Y-111128175D01*
X219912276Y-111000394D01*
X219920394Y-110992276D01*
X220048175Y-110838637D01*
X220054687Y-110829162D01*
X220152325Y-110654816D01*
X220157001Y-110644313D01*
X220221228Y-110455106D01*
X220222469Y-110449935D01*
X220220767Y-110437993D01*
X220207199Y-110434000D01*
X217995955Y-110434000D01*
X217982424Y-110437973D01*
X217981132Y-110446962D01*
X218009828Y-110559952D01*
X218013666Y-110570790D01*
X218097323Y-110752255D01*
X218103074Y-110762216D01*
X218218399Y-110925397D01*
X218225865Y-110934139D01*
X218369001Y-111073577D01*
X218377934Y-111080811D01*
X218544078Y-111191824D01*
X218554188Y-111197314D01*
X218737778Y-111276190D01*
X218748721Y-111279745D01*
X218943606Y-111323844D01*
X218960743Y-111326100D01*
X218960534Y-111327688D01*
X219020673Y-111347945D01*
X219065022Y-111403386D01*
X219072358Y-111474002D01*
X219040350Y-111537375D01*
X218979163Y-111573382D01*
X218969779Y-111575365D01*
X218806761Y-111603377D01*
X218795641Y-111606357D01*
X218608176Y-111675516D01*
X218597798Y-111680466D01*
X218426076Y-111782629D01*
X218416764Y-111789394D01*
X218266534Y-111921143D01*
X218258617Y-111929486D01*
X218134909Y-112086408D01*
X218128647Y-112096051D01*
X218035608Y-112272891D01*
X218031207Y-112283515D01*
X217979916Y-112448700D01*
X217979698Y-112462799D01*
X217682483Y-112462799D01*
X217639854Y-112311649D01*
X217635729Y-112300902D01*
X217547354Y-112121695D01*
X217541344Y-112111887D01*
X217421785Y-111951778D01*
X217414096Y-111943238D01*
X217267354Y-111807592D01*
X217258238Y-111800598D01*
X217089245Y-111693970D01*
X217078994Y-111688746D01*
X216893402Y-111614703D01*
X216882376Y-111611437D01*
X216682712Y-111571721D01*
X216619803Y-111538813D01*
X216584671Y-111477118D01*
X216588471Y-111406224D01*
X216629997Y-111348638D01*
X216689214Y-111323446D01*
X216823915Y-111303916D01*
X216835098Y-111301231D01*
X217024313Y-111237001D01*
X217034816Y-111232325D01*
X217209162Y-111134687D01*
X217218637Y-111128175D01*
X217372276Y-111000394D01*
X217380394Y-110992276D01*
X217508175Y-110838637D01*
X217514687Y-110829162D01*
X217612325Y-110654816D01*
X217617001Y-110644313D01*
X217681231Y-110455098D01*
X217683916Y-110443915D01*
X217712884Y-110244122D01*
X217713514Y-110236740D01*
X217714903Y-110183704D01*
X217714660Y-110176305D01*
X217696188Y-109975275D01*
X217694090Y-109963954D01*
X217682483Y-109922799D01*
X217979698Y-109922799D01*
X217986429Y-109926000D01*
X218827885Y-109926000D01*
X218843124Y-109921525D01*
X218844329Y-109920135D01*
X218846000Y-109912452D01*
X218846000Y-109077676D01*
X219354000Y-109077676D01*
X219354000Y-109907885D01*
X219358475Y-109923124D01*
X219359865Y-109924329D01*
X219367548Y-109926000D01*
X220205271Y-109926000D01*
X220218802Y-109922027D01*
X220219971Y-109913892D01*
X220179853Y-109771644D01*
X220175731Y-109760905D01*
X220087354Y-109581695D01*
X220081344Y-109571887D01*
X219961785Y-109411778D01*
X219954096Y-109403238D01*
X219807354Y-109267592D01*
X219798238Y-109260598D01*
X219629245Y-109153970D01*
X219618994Y-109148746D01*
X219433402Y-109074703D01*
X219422374Y-109071436D01*
X219371770Y-109061371D01*
X219358894Y-109062523D01*
X219354000Y-109077676D01*
X218846000Y-109077676D01*
X218846000Y-109074749D01*
X218842194Y-109061787D01*
X218827279Y-109059851D01*
X218806756Y-109063378D01*
X218795644Y-109066355D01*
X218608176Y-109135516D01*
X218597798Y-109140466D01*
X218426076Y-109242629D01*
X218416764Y-109249394D01*
X218266534Y-109381143D01*
X218258617Y-109389486D01*
X218134909Y-109546408D01*
X218128647Y-109556051D01*
X218035608Y-109732891D01*
X218031207Y-109743515D01*
X217979916Y-109908700D01*
X217979698Y-109922799D01*
X217682483Y-109922799D01*
X217639854Y-109771649D01*
X217635729Y-109760902D01*
X217547354Y-109581695D01*
X217541344Y-109571887D01*
X217421785Y-109411778D01*
X217414096Y-109403238D01*
X217267354Y-109267592D01*
X217258238Y-109260598D01*
X217089245Y-109153970D01*
X217078994Y-109148746D01*
X216893402Y-109074703D01*
X216882374Y-109071436D01*
X216831770Y-109061371D01*
X216818894Y-109062523D01*
X216814000Y-109077676D01*
X216814000Y-110308000D01*
X216793998Y-110376121D01*
X216740342Y-110422614D01*
X216688000Y-110434000D01*
X215455955Y-110434000D01*
X215442424Y-110437973D01*
X215441132Y-110446962D01*
X215469828Y-110559952D01*
X215473666Y-110570790D01*
X215557323Y-110752255D01*
X215563074Y-110762216D01*
X215678399Y-110925397D01*
X215685865Y-110934139D01*
X215829001Y-111073577D01*
X215837934Y-111080811D01*
X216004078Y-111191824D01*
X216014188Y-111197314D01*
X216197778Y-111276190D01*
X216208721Y-111279745D01*
X216403606Y-111323844D01*
X216420743Y-111326100D01*
X216420534Y-111327688D01*
X216480673Y-111347945D01*
X216525022Y-111403386D01*
X216532358Y-111474002D01*
X216500350Y-111537375D01*
X216439163Y-111573382D01*
X216429779Y-111575365D01*
X216266761Y-111603377D01*
X216255641Y-111606357D01*
X216068176Y-111675516D01*
X216057798Y-111680466D01*
X215886076Y-111782629D01*
X215876764Y-111789394D01*
X215726534Y-111921143D01*
X215718617Y-111929486D01*
X215594909Y-112086408D01*
X215588647Y-112096051D01*
X215495608Y-112272891D01*
X215491207Y-112283515D01*
X215439916Y-112448700D01*
X215439698Y-112462799D01*
X215446429Y-112466000D01*
X216688000Y-112466000D01*
X216756121Y-112486002D01*
X216802614Y-112539658D01*
X216814000Y-112592000D01*
X216814000Y-112848000D01*
X216793998Y-112916121D01*
X216740342Y-112962614D01*
X216688000Y-112974000D01*
X215455955Y-112974000D01*
X215442424Y-112977973D01*
X215441132Y-112986962D01*
X215469828Y-113099952D01*
X215473666Y-113110790D01*
X215557323Y-113292255D01*
X215563074Y-113302216D01*
X215678399Y-113465397D01*
X215685865Y-113474139D01*
X215829001Y-113613577D01*
X215837934Y-113620811D01*
X216004078Y-113731824D01*
X216014188Y-113737314D01*
X216197778Y-113816190D01*
X216208721Y-113819745D01*
X216403606Y-113863844D01*
X216420743Y-113866100D01*
X216420444Y-113868369D01*
X216478282Y-113887851D01*
X216522631Y-113943292D01*
X216529967Y-114013908D01*
X216497959Y-114077281D01*
X216436771Y-114113288D01*
X216427390Y-114115270D01*
X216260935Y-114143873D01*
X216062544Y-114217063D01*
X216057583Y-114220015D01*
X216057582Y-114220015D01*
X215960132Y-114277992D01*
X215880814Y-114325181D01*
X215721830Y-114464606D01*
X215590916Y-114630670D01*
X215492457Y-114817809D01*
X215429750Y-115019758D01*
X215404896Y-115229753D01*
X174585500Y-115229753D01*
X174585500Y-110262612D01*
X176554539Y-110262612D01*
X176573140Y-110431102D01*
X176631395Y-110590290D01*
X176635631Y-110596593D01*
X176635631Y-110596594D01*
X176641614Y-110605497D01*
X176725940Y-110730988D01*
X176851317Y-110845073D01*
X177000288Y-110925957D01*
X177164253Y-110968973D01*
X177252481Y-110970359D01*
X177326147Y-110971516D01*
X177326150Y-110971516D01*
X177333745Y-110971635D01*
X177392841Y-110958100D01*
X177491577Y-110935487D01*
X177491581Y-110935486D01*
X177498980Y-110933791D01*
X177650418Y-110857626D01*
X177779316Y-110747536D01*
X177818783Y-110692612D01*
X178824539Y-110692612D01*
X178843140Y-110861102D01*
X178901395Y-111020290D01*
X178905631Y-111026593D01*
X178905631Y-111026594D01*
X178914557Y-111039877D01*
X178995940Y-111160988D01*
X179121317Y-111275073D01*
X179185616Y-111309984D01*
X179255532Y-111347945D01*
X179270288Y-111355957D01*
X179434253Y-111398973D01*
X179522481Y-111400359D01*
X179596147Y-111401516D01*
X179596150Y-111401516D01*
X179603745Y-111401635D01*
X179662841Y-111388100D01*
X179761577Y-111365487D01*
X179761581Y-111365486D01*
X179768980Y-111363791D01*
X179920418Y-111287626D01*
X180049316Y-111177536D01*
X180148234Y-111039877D01*
X180167370Y-110992276D01*
X180208626Y-110889650D01*
X180208627Y-110889648D01*
X180211461Y-110882597D01*
X180231560Y-110741372D01*
X180234764Y-110718859D01*
X180234764Y-110718856D01*
X180235345Y-110714775D01*
X180235500Y-110700000D01*
X180222701Y-110594235D01*
X180216048Y-110539258D01*
X180216048Y-110539257D01*
X180215135Y-110531715D01*
X180212427Y-110524549D01*
X180157902Y-110380250D01*
X180157901Y-110380248D01*
X180155217Y-110373145D01*
X180117660Y-110318499D01*
X180095500Y-110247132D01*
X180095500Y-109922799D01*
X215439698Y-109922799D01*
X215446429Y-109926000D01*
X216287885Y-109926000D01*
X216303124Y-109921525D01*
X216304329Y-109920135D01*
X216306000Y-109912452D01*
X216306000Y-109074749D01*
X216302194Y-109061787D01*
X216287279Y-109059851D01*
X216266756Y-109063378D01*
X216255644Y-109066355D01*
X216068176Y-109135516D01*
X216057798Y-109140466D01*
X215886076Y-109242629D01*
X215876764Y-109249394D01*
X215726534Y-109381143D01*
X215718617Y-109389486D01*
X215594909Y-109546408D01*
X215588647Y-109556051D01*
X215495608Y-109732891D01*
X215491207Y-109743515D01*
X215439916Y-109908700D01*
X215439698Y-109922799D01*
X180095500Y-109922799D01*
X180095500Y-107969148D01*
X180115502Y-107901027D01*
X180132405Y-107880053D01*
X194618539Y-93393920D01*
X210442104Y-93393920D01*
X210460705Y-93562410D01*
X210468045Y-93582466D01*
X210507777Y-93691038D01*
X210518960Y-93721598D01*
X210613505Y-93862296D01*
X210738882Y-93976381D01*
X210745557Y-93980005D01*
X210750739Y-93983688D01*
X210794678Y-94039454D01*
X210801493Y-94110122D01*
X210769020Y-94173257D01*
X210760577Y-94181342D01*
X210695711Y-94237928D01*
X210669149Y-94275722D01*
X210611889Y-94357195D01*
X210598240Y-94376615D01*
X210536665Y-94534549D01*
X210535227Y-94545473D01*
X210516568Y-94687204D01*
X210514539Y-94702612D01*
X210533140Y-94871102D01*
X210591395Y-95030290D01*
X210685940Y-95170988D01*
X210811317Y-95285073D01*
X210834437Y-95297626D01*
X210948871Y-95359758D01*
X210957116Y-95364235D01*
X210957119Y-95364237D01*
X210960288Y-95365957D01*
X210960001Y-95366485D01*
X211011752Y-95406864D01*
X211035229Y-95473867D01*
X211018753Y-95542926D01*
X210967185Y-95592308D01*
X210908319Y-95622691D01*
X210842302Y-95656765D01*
X210823450Y-95666495D01*
X210695711Y-95777928D01*
X210598240Y-95916615D01*
X210536665Y-96074549D01*
X210514539Y-96242612D01*
X210533140Y-96411102D01*
X210549466Y-96455714D01*
X210585838Y-96555104D01*
X210591395Y-96570290D01*
X210685940Y-96710988D01*
X210811317Y-96825073D01*
X210817990Y-96828696D01*
X210817994Y-96828699D01*
X210916761Y-96882324D01*
X210967082Y-96932406D01*
X210982339Y-97001744D01*
X210957687Y-97068323D01*
X210914429Y-97105020D01*
X210860204Y-97133008D01*
X210860198Y-97133012D01*
X210853450Y-97136495D01*
X210847728Y-97141487D01*
X210847726Y-97141488D01*
X210823551Y-97162577D01*
X210725711Y-97247928D01*
X210721344Y-97254142D01*
X210654581Y-97349136D01*
X210628240Y-97386615D01*
X210566665Y-97544549D01*
X210565674Y-97552078D01*
X210546488Y-97697809D01*
X210544539Y-97712612D01*
X210563140Y-97881102D01*
X210621395Y-98040290D01*
X210715940Y-98180988D01*
X210841317Y-98295073D01*
X210990288Y-98375957D01*
X211154253Y-98418973D01*
X211242481Y-98420359D01*
X211316147Y-98421516D01*
X211316150Y-98421516D01*
X211323745Y-98421635D01*
X211382841Y-98408100D01*
X211481577Y-98385487D01*
X211481581Y-98385486D01*
X211488980Y-98383791D01*
X211640418Y-98307626D01*
X211677812Y-98275689D01*
X211742601Y-98246658D01*
X211759642Y-98245500D01*
X212070141Y-98245500D01*
X212138262Y-98265502D01*
X212159236Y-98282405D01*
X216737200Y-102860369D01*
X216740853Y-102864177D01*
X216781847Y-102908757D01*
X216789145Y-102913282D01*
X216789146Y-102913283D01*
X216816925Y-102930507D01*
X216826690Y-102937218D01*
X216859576Y-102962179D01*
X216867557Y-102965339D01*
X216867564Y-102965343D01*
X216872454Y-102967279D01*
X216892456Y-102977338D01*
X216904226Y-102984636D01*
X216936285Y-102993950D01*
X216943851Y-102996148D01*
X216955081Y-102999993D01*
X216985469Y-103012024D01*
X216993458Y-103015187D01*
X217002003Y-103016085D01*
X217002006Y-103016086D01*
X217007233Y-103016636D01*
X217029205Y-103020947D01*
X217036156Y-103022966D01*
X217036164Y-103022967D01*
X217042503Y-103024809D01*
X217049319Y-103025310D01*
X217049606Y-103025331D01*
X217049617Y-103025331D01*
X217051913Y-103025500D01*
X217084978Y-103025500D01*
X217098148Y-103026190D01*
X217136664Y-103030238D01*
X217145130Y-103028806D01*
X217145133Y-103028806D01*
X217154249Y-103027264D01*
X217175261Y-103025500D01*
X217978090Y-103025500D01*
X218046211Y-103045502D01*
X218062889Y-103058306D01*
X218075696Y-103069959D01*
X218075700Y-103069962D01*
X218081317Y-103075073D01*
X218230288Y-103155957D01*
X218394253Y-103198973D01*
X218482481Y-103200359D01*
X218556147Y-103201516D01*
X218556150Y-103201516D01*
X218563745Y-103201635D01*
X218640669Y-103184017D01*
X218721577Y-103165487D01*
X218721581Y-103165486D01*
X218728980Y-103163791D01*
X218868394Y-103093673D01*
X218873634Y-103091038D01*
X218880418Y-103087626D01*
X218980773Y-103001914D01*
X219003544Y-102982466D01*
X219003545Y-102982465D01*
X219009316Y-102977536D01*
X219108234Y-102839877D01*
X219119656Y-102811465D01*
X219168626Y-102689650D01*
X219168627Y-102689648D01*
X219171461Y-102682597D01*
X219195345Y-102514775D01*
X219195500Y-102500000D01*
X219175135Y-102331715D01*
X219165873Y-102307204D01*
X219117902Y-102180250D01*
X219117901Y-102180248D01*
X219115217Y-102173145D01*
X219110918Y-102166890D01*
X219110916Y-102166886D01*
X219023505Y-102039703D01*
X219023504Y-102039701D01*
X219019203Y-102033444D01*
X219013534Y-102028393D01*
X219008507Y-102022691D01*
X219009931Y-102021435D01*
X218977629Y-101969612D01*
X218978610Y-101898622D01*
X218996682Y-101862261D01*
X219049871Y-101788241D01*
X219051138Y-101789151D01*
X219095281Y-101745252D01*
X219164697Y-101730353D01*
X219231148Y-101755349D01*
X219244454Y-101766912D01*
X220250232Y-102772691D01*
X221138736Y-103661195D01*
X221172762Y-103723507D01*
X221174880Y-103736464D01*
X221188640Y-103861102D01*
X221246895Y-104020290D01*
X221251131Y-104026593D01*
X221251131Y-104026594D01*
X221268566Y-104052540D01*
X221341440Y-104160988D01*
X221466817Y-104275073D01*
X221615788Y-104355957D01*
X221779753Y-104398973D01*
X221867981Y-104400359D01*
X221941647Y-104401516D01*
X221941650Y-104401516D01*
X221949245Y-104401635D01*
X221956649Y-104399939D01*
X221956651Y-104399939D01*
X222070371Y-104373894D01*
X222141238Y-104378183D01*
X222198536Y-104420106D01*
X222224073Y-104486350D01*
X222224500Y-104496714D01*
X222224500Y-106230631D01*
X222204498Y-106298752D01*
X222181329Y-106325580D01*
X222155711Y-106347928D01*
X222058240Y-106486615D01*
X221996665Y-106644549D01*
X221995410Y-106654081D01*
X221976508Y-106797659D01*
X221974539Y-106812612D01*
X221993140Y-106981102D01*
X222003587Y-107009650D01*
X222043564Y-107118890D01*
X222051395Y-107140290D01*
X222055631Y-107146593D01*
X222055631Y-107146594D01*
X222061715Y-107155648D01*
X222145940Y-107280988D01*
X222271317Y-107395073D01*
X222420288Y-107475957D01*
X222584253Y-107518973D01*
X222672481Y-107520359D01*
X222746147Y-107521516D01*
X222746150Y-107521516D01*
X222753745Y-107521635D01*
X222812841Y-107508100D01*
X222911577Y-107485487D01*
X222911581Y-107485486D01*
X222918980Y-107483791D01*
X223070418Y-107407626D01*
X223149755Y-107339865D01*
X223193544Y-107302466D01*
X223193545Y-107302465D01*
X223199316Y-107297536D01*
X223298234Y-107159877D01*
X223314711Y-107118890D01*
X223358626Y-107009650D01*
X223358627Y-107009648D01*
X223361461Y-107002597D01*
X223385345Y-106834775D01*
X223385500Y-106820000D01*
X223381779Y-106789253D01*
X223366048Y-106659258D01*
X223366048Y-106659257D01*
X223365135Y-106651715D01*
X223361864Y-106643059D01*
X223307902Y-106500250D01*
X223307901Y-106500248D01*
X223305217Y-106493145D01*
X223300918Y-106486890D01*
X223300916Y-106486886D01*
X223213505Y-106359703D01*
X223213504Y-106359701D01*
X223209203Y-106353444D01*
X223206314Y-106350870D01*
X223176941Y-106287983D01*
X223175500Y-106268984D01*
X223175500Y-102027867D01*
X223176794Y-102016281D01*
X223176251Y-102016237D01*
X223176971Y-102007291D01*
X223178952Y-101998535D01*
X223175742Y-101946794D01*
X223175500Y-101938993D01*
X223175500Y-101925088D01*
X223174267Y-101916479D01*
X223173238Y-101906431D01*
X223171072Y-101871522D01*
X223170516Y-101862560D01*
X223167467Y-101854114D01*
X223166179Y-101847895D01*
X223164240Y-101840118D01*
X223162459Y-101834027D01*
X223161186Y-101825140D01*
X223142989Y-101785119D01*
X223139183Y-101775768D01*
X223127305Y-101742865D01*
X223124256Y-101734419D01*
X223118960Y-101727169D01*
X223115987Y-101721578D01*
X223111919Y-101714618D01*
X223108514Y-101709294D01*
X223104798Y-101701121D01*
X223098939Y-101694321D01*
X223098937Y-101694318D01*
X223076104Y-101667818D01*
X223069819Y-101659903D01*
X223065799Y-101654400D01*
X223065795Y-101654396D01*
X223062923Y-101650464D01*
X223053418Y-101640959D01*
X223047060Y-101634111D01*
X223021733Y-101604717D01*
X223021728Y-101604712D01*
X223015869Y-101597913D01*
X223008335Y-101593030D01*
X223001573Y-101587131D01*
X223001607Y-101587092D01*
X222990841Y-101578382D01*
X214525529Y-93113070D01*
X214518249Y-93103960D01*
X214517834Y-93104313D01*
X214512018Y-93097479D01*
X214507227Y-93089886D01*
X214468361Y-93055561D01*
X214462674Y-93050215D01*
X214452851Y-93040392D01*
X214446349Y-93035519D01*
X214445901Y-93035183D01*
X214438061Y-93028801D01*
X214411840Y-93005644D01*
X214405113Y-92999703D01*
X214396989Y-92995889D01*
X214391676Y-92992399D01*
X214384812Y-92988275D01*
X214379238Y-92985223D01*
X214372055Y-92979840D01*
X214330906Y-92964414D01*
X214321586Y-92960487D01*
X214315981Y-92957856D01*
X214281793Y-92941804D01*
X214272922Y-92940423D01*
X214266836Y-92938562D01*
X214259100Y-92936533D01*
X214252895Y-92935169D01*
X214244488Y-92932017D01*
X214221267Y-92930292D01*
X214200645Y-92928759D01*
X214190600Y-92927605D01*
X214187555Y-92927131D01*
X214179059Y-92925808D01*
X214165615Y-92925808D01*
X214156278Y-92925462D01*
X214142054Y-92924405D01*
X214108627Y-92921921D01*
X214099851Y-92923794D01*
X214090894Y-92924405D01*
X214090891Y-92924354D01*
X214077118Y-92925808D01*
X211714717Y-92925808D01*
X211646596Y-92905806D01*
X211630898Y-92893884D01*
X211555875Y-92827040D01*
X211555872Y-92827038D01*
X211550203Y-92821987D01*
X211400394Y-92742667D01*
X211235988Y-92701371D01*
X211228390Y-92701331D01*
X211228388Y-92701331D01*
X211155357Y-92700949D01*
X211066477Y-92700484D01*
X211059098Y-92702256D01*
X211059094Y-92702256D01*
X210909026Y-92738284D01*
X210909022Y-92738285D01*
X210901647Y-92740056D01*
X210751015Y-92817803D01*
X210623276Y-92929236D01*
X210589925Y-92976689D01*
X210550950Y-93032146D01*
X210525805Y-93067923D01*
X210464230Y-93225857D01*
X210460584Y-93253553D01*
X210449833Y-93335215D01*
X210442104Y-93393920D01*
X194618539Y-93393920D01*
X204605905Y-83406554D01*
X204668217Y-83372528D01*
X204739032Y-83377593D01*
X204784095Y-83406554D01*
X208905779Y-87528238D01*
X208913059Y-87537348D01*
X208913474Y-87536995D01*
X208919290Y-87543829D01*
X208924081Y-87551422D01*
X208930809Y-87557364D01*
X208930810Y-87557365D01*
X208962946Y-87585746D01*
X208968634Y-87591093D01*
X208978457Y-87600916D01*
X208983749Y-87604882D01*
X208985407Y-87606125D01*
X208993247Y-87612507D01*
X209019468Y-87635664D01*
X209026195Y-87641605D01*
X209034319Y-87645419D01*
X209039632Y-87648909D01*
X209046496Y-87653033D01*
X209052070Y-87656085D01*
X209059253Y-87661468D01*
X209100407Y-87676896D01*
X209109718Y-87680820D01*
X209141388Y-87695689D01*
X209141392Y-87695690D01*
X209149515Y-87699504D01*
X209158385Y-87700885D01*
X209164439Y-87702736D01*
X209172203Y-87704773D01*
X209178412Y-87706138D01*
X209186820Y-87709290D01*
X209230653Y-87712547D01*
X209240699Y-87713702D01*
X209247428Y-87714750D01*
X209247437Y-87714751D01*
X209252249Y-87715500D01*
X209265710Y-87715500D01*
X209275048Y-87715847D01*
X209313730Y-87718722D01*
X209313732Y-87718722D01*
X209322681Y-87719387D01*
X209331456Y-87717514D01*
X209340418Y-87716903D01*
X209340421Y-87716953D01*
X209354190Y-87715500D01*
X210620852Y-87715500D01*
X210688973Y-87735502D01*
X210709947Y-87752405D01*
X215417501Y-92459960D01*
X215451527Y-92522272D01*
X215446462Y-92593087D01*
X215425450Y-92627745D01*
X215425711Y-92627928D01*
X215421348Y-92634136D01*
X215421347Y-92634137D01*
X215344460Y-92743537D01*
X215328240Y-92766615D01*
X215266665Y-92924549D01*
X215265674Y-92932078D01*
X215248345Y-93063704D01*
X215244539Y-93092612D01*
X215263140Y-93261102D01*
X215321395Y-93420290D01*
X215325631Y-93426593D01*
X215325631Y-93426594D01*
X215334557Y-93439877D01*
X215415940Y-93560988D01*
X215541317Y-93675073D01*
X215690288Y-93755957D01*
X215854253Y-93798973D01*
X215942481Y-93800359D01*
X216016147Y-93801516D01*
X216016150Y-93801516D01*
X216023745Y-93801635D01*
X216082841Y-93788100D01*
X216181577Y-93765487D01*
X216181581Y-93765486D01*
X216188980Y-93763791D01*
X216340418Y-93687626D01*
X216454168Y-93590474D01*
X216463544Y-93582466D01*
X216463545Y-93582465D01*
X216469316Y-93577536D01*
X216568234Y-93439877D01*
X216589736Y-93386389D01*
X216628626Y-93289650D01*
X216628627Y-93289648D01*
X216631461Y-93282597D01*
X216655345Y-93114775D01*
X216655500Y-93100000D01*
X216635135Y-92931715D01*
X216632311Y-92924242D01*
X216577902Y-92780250D01*
X216577901Y-92780248D01*
X216575217Y-92773145D01*
X216570918Y-92766890D01*
X216570916Y-92766886D01*
X216483505Y-92639703D01*
X216483504Y-92639701D01*
X216479203Y-92633444D01*
X216467679Y-92623177D01*
X216430125Y-92562927D01*
X216425500Y-92529102D01*
X216425500Y-92387867D01*
X216426794Y-92376281D01*
X216426251Y-92376237D01*
X216426971Y-92367291D01*
X216428952Y-92358535D01*
X216425742Y-92306795D01*
X216425500Y-92298994D01*
X216425500Y-92285088D01*
X216424268Y-92276485D01*
X216423237Y-92266421D01*
X216423125Y-92264606D01*
X216420516Y-92222561D01*
X216417467Y-92214114D01*
X216416172Y-92207863D01*
X216414245Y-92200136D01*
X216412459Y-92194028D01*
X216411186Y-92185140D01*
X216392991Y-92145124D01*
X216389180Y-92135761D01*
X216377303Y-92102861D01*
X216374256Y-92094420D01*
X216368962Y-92087174D01*
X216365981Y-92081566D01*
X216361935Y-92074642D01*
X216358513Y-92069291D01*
X216354798Y-92061121D01*
X216326098Y-92027812D01*
X216319813Y-92019896D01*
X216315795Y-92014396D01*
X216315794Y-92014395D01*
X216312923Y-92010465D01*
X216303424Y-92000966D01*
X216297066Y-91994118D01*
X216271731Y-91964715D01*
X216271727Y-91964711D01*
X216265869Y-91957913D01*
X216258339Y-91953032D01*
X216251572Y-91947129D01*
X216251605Y-91947091D01*
X216240836Y-91938378D01*
X211902459Y-87600000D01*
X219044500Y-87600000D01*
X219044500Y-89300000D01*
X219044567Y-89301441D01*
X219044567Y-89301458D01*
X219045219Y-89315558D01*
X219045803Y-89328188D01*
X219076528Y-89436173D01*
X219144186Y-89525767D01*
X219239641Y-89584870D01*
X219251113Y-89587014D01*
X219251114Y-89587015D01*
X219344275Y-89604430D01*
X219344277Y-89604430D01*
X219350000Y-89605500D01*
X219985473Y-89605500D01*
X220053594Y-89625502D01*
X220100087Y-89679158D01*
X220110191Y-89749432D01*
X220080697Y-89814012D01*
X220020971Y-89852396D01*
X220006811Y-89855680D01*
X219900935Y-89873873D01*
X219702544Y-89947063D01*
X219520814Y-90055181D01*
X219361830Y-90194606D01*
X219230916Y-90360670D01*
X219132457Y-90547809D01*
X219069750Y-90749758D01*
X219044896Y-90959753D01*
X219058726Y-91170760D01*
X219110778Y-91375714D01*
X219199308Y-91567750D01*
X219321351Y-91740437D01*
X219325485Y-91744464D01*
X219463477Y-91878890D01*
X219472820Y-91887992D01*
X219477616Y-91891197D01*
X219477619Y-91891199D01*
X219571943Y-91954224D01*
X219648643Y-92005473D01*
X219653946Y-92007751D01*
X219653949Y-92007753D01*
X219837624Y-92086666D01*
X219842931Y-92088946D01*
X220049177Y-92135615D01*
X220054950Y-92135842D01*
X220060299Y-92136546D01*
X220125227Y-92165268D01*
X220164319Y-92224532D01*
X220165164Y-92295524D01*
X220127495Y-92355703D01*
X220065192Y-92385648D01*
X219906632Y-92412894D01*
X219900935Y-92413873D01*
X219702544Y-92487063D01*
X219520814Y-92595181D01*
X219361830Y-92734606D01*
X219230916Y-92900670D01*
X219228227Y-92905781D01*
X219228225Y-92905784D01*
X219190920Y-92976689D01*
X219132457Y-93087809D01*
X219069750Y-93289758D01*
X219044896Y-93499753D01*
X219058726Y-93710760D01*
X219110778Y-93915714D01*
X219199308Y-94107750D01*
X219321351Y-94280437D01*
X219341594Y-94300157D01*
X219463477Y-94418890D01*
X219472820Y-94427992D01*
X219477616Y-94431197D01*
X219477619Y-94431199D01*
X219571943Y-94494224D01*
X219648643Y-94545473D01*
X219653946Y-94547751D01*
X219653949Y-94547753D01*
X219735472Y-94582778D01*
X219842931Y-94628946D01*
X220049177Y-94675615D01*
X220054950Y-94675842D01*
X220060299Y-94676546D01*
X220125227Y-94705268D01*
X220164319Y-94764532D01*
X220165164Y-94835524D01*
X220127495Y-94895703D01*
X220065192Y-94925648D01*
X219906632Y-94952894D01*
X219900935Y-94953873D01*
X219702544Y-95027063D01*
X219520814Y-95135181D01*
X219361830Y-95274606D01*
X219230916Y-95440670D01*
X219228227Y-95445781D01*
X219228225Y-95445784D01*
X219177116Y-95542926D01*
X219132457Y-95627809D01*
X219069750Y-95829758D01*
X219044896Y-96039753D01*
X219058726Y-96250760D01*
X219110778Y-96455714D01*
X219199308Y-96647750D01*
X219321351Y-96820437D01*
X219325485Y-96824464D01*
X219463477Y-96958890D01*
X219472820Y-96967992D01*
X219477616Y-96971197D01*
X219477619Y-96971199D01*
X219571943Y-97034224D01*
X219648643Y-97085473D01*
X219653946Y-97087751D01*
X219653949Y-97087753D01*
X219828107Y-97162577D01*
X219842931Y-97168946D01*
X219990011Y-97202227D01*
X220015069Y-97207897D01*
X220049177Y-97215615D01*
X220054946Y-97215842D01*
X220054949Y-97215842D01*
X220135242Y-97218996D01*
X220260474Y-97223916D01*
X220363410Y-97208991D01*
X220464032Y-97194402D01*
X220464037Y-97194401D01*
X220469746Y-97193573D01*
X220475210Y-97191718D01*
X220475215Y-97191717D01*
X220664512Y-97127460D01*
X220664517Y-97127458D01*
X220669984Y-97125602D01*
X220700876Y-97108302D01*
X220789360Y-97058748D01*
X220854482Y-97022278D01*
X221017062Y-96887062D01*
X221152278Y-96724482D01*
X221242625Y-96563156D01*
X221252778Y-96545027D01*
X221252779Y-96545025D01*
X221255602Y-96539984D01*
X221257458Y-96534517D01*
X221257460Y-96534512D01*
X221321717Y-96345215D01*
X221321718Y-96345210D01*
X221323573Y-96339746D01*
X221324401Y-96334037D01*
X221324402Y-96334032D01*
X221342747Y-96207504D01*
X221353916Y-96130474D01*
X221355500Y-96070000D01*
X221340835Y-95910398D01*
X221336680Y-95865181D01*
X221336679Y-95865178D01*
X221336151Y-95859427D01*
X221328790Y-95833325D01*
X221280320Y-95661465D01*
X221280319Y-95661463D01*
X221278752Y-95655906D01*
X221264897Y-95627809D01*
X221187781Y-95471434D01*
X221185226Y-95466253D01*
X221058704Y-95296820D01*
X220903424Y-95153280D01*
X220898541Y-95150199D01*
X220898537Y-95150196D01*
X220729470Y-95043523D01*
X220729465Y-95043521D01*
X220724586Y-95040442D01*
X220528180Y-94962084D01*
X220345005Y-94925648D01*
X220325650Y-94921798D01*
X220262741Y-94888890D01*
X220227609Y-94827195D01*
X220231409Y-94756300D01*
X220272935Y-94698714D01*
X220332151Y-94673523D01*
X220367042Y-94668464D01*
X220464032Y-94654402D01*
X220464037Y-94654401D01*
X220469746Y-94653573D01*
X220475210Y-94651718D01*
X220475215Y-94651717D01*
X220664512Y-94587460D01*
X220664517Y-94587458D01*
X220669984Y-94585602D01*
X220700876Y-94568302D01*
X220747371Y-94542263D01*
X220854482Y-94482278D01*
X221017062Y-94347062D01*
X221152278Y-94184482D01*
X221233498Y-94039454D01*
X221252778Y-94005027D01*
X221252779Y-94005025D01*
X221255602Y-93999984D01*
X221257458Y-93994517D01*
X221257460Y-93994512D01*
X221321717Y-93805215D01*
X221321718Y-93805210D01*
X221323573Y-93799746D01*
X221324401Y-93794037D01*
X221324402Y-93794032D01*
X221342747Y-93667504D01*
X221353916Y-93590474D01*
X221355500Y-93530000D01*
X221336151Y-93319427D01*
X221327784Y-93289758D01*
X221280320Y-93121465D01*
X221280319Y-93121463D01*
X221278752Y-93115906D01*
X221276161Y-93110650D01*
X221187781Y-92931434D01*
X221185226Y-92926253D01*
X221169958Y-92905806D01*
X221127857Y-92849427D01*
X221058704Y-92756820D01*
X220925237Y-92633444D01*
X220907669Y-92617204D01*
X220903424Y-92613280D01*
X220898541Y-92610199D01*
X220898537Y-92610196D01*
X220729470Y-92503523D01*
X220729465Y-92503521D01*
X220724586Y-92500442D01*
X220528180Y-92422084D01*
X220386592Y-92393920D01*
X220325650Y-92381798D01*
X220262741Y-92348890D01*
X220227609Y-92287195D01*
X220231409Y-92216300D01*
X220272935Y-92158714D01*
X220332151Y-92133523D01*
X220367042Y-92128464D01*
X220464032Y-92114402D01*
X220464037Y-92114401D01*
X220469746Y-92113573D01*
X220475210Y-92111718D01*
X220475215Y-92111717D01*
X220664512Y-92047460D01*
X220664517Y-92047458D01*
X220669984Y-92045602D01*
X220700876Y-92028302D01*
X220761915Y-91994118D01*
X220854482Y-91942278D01*
X221017062Y-91807062D01*
X221152278Y-91644482D01*
X221221185Y-91521439D01*
X221252778Y-91465027D01*
X221252779Y-91465025D01*
X221255602Y-91459984D01*
X221257458Y-91454517D01*
X221257460Y-91454512D01*
X221321717Y-91265215D01*
X221321718Y-91265210D01*
X221323573Y-91259746D01*
X221324401Y-91254037D01*
X221324402Y-91254032D01*
X221342747Y-91127504D01*
X221353916Y-91050474D01*
X221355500Y-90990000D01*
X221336151Y-90779427D01*
X221327784Y-90749758D01*
X221280320Y-90581465D01*
X221280319Y-90581463D01*
X221278752Y-90575906D01*
X221264897Y-90547809D01*
X221187781Y-90391434D01*
X221185226Y-90386253D01*
X221058704Y-90216820D01*
X220903424Y-90073280D01*
X220898541Y-90070199D01*
X220898537Y-90070196D01*
X220729470Y-89963523D01*
X220729465Y-89963521D01*
X220724586Y-89960442D01*
X220528180Y-89882084D01*
X220522520Y-89880958D01*
X220522516Y-89880957D01*
X220409055Y-89858389D01*
X220392417Y-89855079D01*
X220329507Y-89822171D01*
X220294375Y-89760476D01*
X220298175Y-89689582D01*
X220339701Y-89631996D01*
X220405768Y-89606001D01*
X220416998Y-89605500D01*
X221050000Y-89605500D01*
X221051441Y-89605433D01*
X221051458Y-89605433D01*
X221065558Y-89604781D01*
X221078188Y-89604197D01*
X221186173Y-89573472D01*
X221275767Y-89505814D01*
X221334870Y-89410359D01*
X221342079Y-89371798D01*
X221354430Y-89305725D01*
X221354430Y-89305723D01*
X221355500Y-89300000D01*
X221355500Y-87600000D01*
X221355236Y-87594275D01*
X221354533Y-87579084D01*
X221354197Y-87571812D01*
X221323472Y-87463827D01*
X221255814Y-87374233D01*
X221160359Y-87315130D01*
X221148887Y-87312986D01*
X221148886Y-87312985D01*
X221055725Y-87295570D01*
X221055723Y-87295570D01*
X221050000Y-87294500D01*
X219350000Y-87294500D01*
X219348559Y-87294567D01*
X219348542Y-87294567D01*
X219334442Y-87295219D01*
X219321812Y-87295803D01*
X219213827Y-87326528D01*
X219124233Y-87394186D01*
X219065130Y-87489641D01*
X219062986Y-87501113D01*
X219062985Y-87501114D01*
X219046165Y-87591093D01*
X219044500Y-87600000D01*
X211902459Y-87600000D01*
X211254221Y-86951762D01*
X211246941Y-86942652D01*
X211246526Y-86943005D01*
X211240710Y-86936171D01*
X211235919Y-86928578D01*
X211197053Y-86894253D01*
X211191366Y-86888907D01*
X211181543Y-86879084D01*
X211176251Y-86875118D01*
X211174593Y-86873875D01*
X211166753Y-86867493D01*
X211140532Y-86844336D01*
X211133805Y-86838395D01*
X211125681Y-86834581D01*
X211120368Y-86831091D01*
X211113504Y-86826967D01*
X211107930Y-86823915D01*
X211100747Y-86818532D01*
X211059598Y-86803106D01*
X211050278Y-86799179D01*
X211044673Y-86796548D01*
X211010485Y-86780496D01*
X211001614Y-86779115D01*
X210995528Y-86777254D01*
X210987792Y-86775225D01*
X210981587Y-86773861D01*
X210973180Y-86770709D01*
X210949959Y-86768984D01*
X210929337Y-86767451D01*
X210919292Y-86766297D01*
X210916247Y-86765823D01*
X210907751Y-86764500D01*
X210894307Y-86764500D01*
X210884970Y-86764154D01*
X210870746Y-86763097D01*
X210837319Y-86760613D01*
X210828543Y-86762486D01*
X210819586Y-86763097D01*
X210819583Y-86763046D01*
X210805810Y-86764500D01*
X209539148Y-86764500D01*
X209471027Y-86744498D01*
X209450053Y-86727595D01*
X205451788Y-82729329D01*
X205417762Y-82667017D01*
X205415497Y-82650290D01*
X205415500Y-82650000D01*
X205401294Y-82532612D01*
X205396048Y-82489258D01*
X205396048Y-82489257D01*
X205395135Y-82481715D01*
X205392427Y-82474549D01*
X205337902Y-82330250D01*
X205337901Y-82330248D01*
X205335217Y-82323145D01*
X205330918Y-82316890D01*
X205330916Y-82316886D01*
X205243505Y-82189703D01*
X205243504Y-82189701D01*
X205239203Y-82183444D01*
X205112638Y-82070679D01*
X204962829Y-81991359D01*
X204798423Y-81950063D01*
X204790825Y-81950023D01*
X204790823Y-81950023D01*
X204717792Y-81949641D01*
X204628912Y-81949176D01*
X204621533Y-81950948D01*
X204621529Y-81950948D01*
X204471461Y-81986976D01*
X204471457Y-81986977D01*
X204464082Y-81988748D01*
X204313450Y-82066495D01*
X204307728Y-82071487D01*
X204307726Y-82071488D01*
X204274124Y-82100801D01*
X204185711Y-82177928D01*
X204165359Y-82206886D01*
X204102551Y-82296253D01*
X204088240Y-82316615D01*
X204026665Y-82474549D01*
X204017003Y-82547939D01*
X204007030Y-82623690D01*
X203978307Y-82688618D01*
X203971203Y-82696339D01*
X179331762Y-107335779D01*
X179322652Y-107343059D01*
X179323005Y-107343474D01*
X179316171Y-107349290D01*
X179308578Y-107354081D01*
X179302636Y-107360809D01*
X179302635Y-107360810D01*
X179274254Y-107392946D01*
X179268907Y-107398634D01*
X179259084Y-107408457D01*
X179256391Y-107412051D01*
X179253875Y-107415407D01*
X179247493Y-107423247D01*
X179218395Y-107456195D01*
X179214581Y-107464319D01*
X179211091Y-107469632D01*
X179206967Y-107476496D01*
X179203915Y-107482070D01*
X179198532Y-107489253D01*
X179191078Y-107509136D01*
X179183106Y-107530402D01*
X179179179Y-107539722D01*
X179160496Y-107579515D01*
X179159115Y-107588386D01*
X179157254Y-107594472D01*
X179155225Y-107602208D01*
X179153861Y-107608413D01*
X179150709Y-107616820D01*
X179150044Y-107625773D01*
X179147451Y-107660663D01*
X179146297Y-107670708D01*
X179144500Y-107682249D01*
X179144500Y-107695693D01*
X179144154Y-107705030D01*
X179140613Y-107752681D01*
X179142486Y-107761457D01*
X179143097Y-107770414D01*
X179143046Y-107770417D01*
X179144500Y-107784190D01*
X179144500Y-110049567D01*
X179124498Y-110117688D01*
X179101330Y-110144515D01*
X179005711Y-110227928D01*
X179001344Y-110234142D01*
X178942057Y-110318499D01*
X178908240Y-110366615D01*
X178846665Y-110524549D01*
X178845674Y-110532078D01*
X178830898Y-110644313D01*
X178824539Y-110692612D01*
X177818783Y-110692612D01*
X177878234Y-110609877D01*
X177906623Y-110539258D01*
X177938626Y-110459650D01*
X177938627Y-110459648D01*
X177941461Y-110452597D01*
X177965345Y-110284775D01*
X177965357Y-110283590D01*
X177990231Y-110217822D01*
X177996310Y-110210385D01*
X178025745Y-110177055D01*
X178031093Y-110171366D01*
X178040916Y-110161543D01*
X178046125Y-110154593D01*
X178052507Y-110146753D01*
X178075664Y-110120532D01*
X178081605Y-110113805D01*
X178085419Y-110105681D01*
X178088909Y-110100368D01*
X178093033Y-110093504D01*
X178096085Y-110087930D01*
X178101468Y-110080747D01*
X178116894Y-110039598D01*
X178120821Y-110030278D01*
X178135688Y-109998612D01*
X178139504Y-109990485D01*
X178140885Y-109981614D01*
X178142746Y-109975528D01*
X178144775Y-109967792D01*
X178146139Y-109961587D01*
X178149291Y-109953180D01*
X178151524Y-109923124D01*
X178152549Y-109909337D01*
X178153703Y-109899292D01*
X178154750Y-109892565D01*
X178155500Y-109887751D01*
X178155500Y-109874307D01*
X178155846Y-109864970D01*
X178158722Y-109826267D01*
X178159387Y-109817319D01*
X178157514Y-109808543D01*
X178156903Y-109799586D01*
X178156954Y-109799583D01*
X178155500Y-109785810D01*
X178155500Y-107269148D01*
X178175502Y-107201027D01*
X178192405Y-107180053D01*
X202094843Y-83277616D01*
X202157155Y-83243590D01*
X202185916Y-83240727D01*
X202236147Y-83241516D01*
X202236150Y-83241516D01*
X202243745Y-83241635D01*
X202336558Y-83220378D01*
X202401577Y-83205487D01*
X202401581Y-83205486D01*
X202408980Y-83203791D01*
X202560418Y-83127626D01*
X202689316Y-83017536D01*
X202788234Y-82879877D01*
X202829870Y-82776305D01*
X202848626Y-82729650D01*
X202848627Y-82729648D01*
X202851461Y-82722597D01*
X202870313Y-82590134D01*
X202874764Y-82558859D01*
X202874764Y-82558856D01*
X202875345Y-82554775D01*
X202875417Y-82547916D01*
X202875457Y-82544135D01*
X202875457Y-82544129D01*
X202875500Y-82540000D01*
X202869627Y-82491465D01*
X202856048Y-82379258D01*
X202856048Y-82379257D01*
X202855135Y-82371715D01*
X202850983Y-82360726D01*
X202797902Y-82220250D01*
X202797901Y-82220248D01*
X202795217Y-82213145D01*
X202790918Y-82206890D01*
X202790916Y-82206886D01*
X202703505Y-82079703D01*
X202703504Y-82079701D01*
X202699203Y-82073444D01*
X202692109Y-82067123D01*
X202642900Y-82023280D01*
X202572638Y-81960679D01*
X202422829Y-81881359D01*
X202258423Y-81840063D01*
X202250825Y-81840023D01*
X202250823Y-81840023D01*
X202177792Y-81839641D01*
X202088912Y-81839176D01*
X202081533Y-81840948D01*
X202081529Y-81840948D01*
X201931461Y-81876976D01*
X201931457Y-81876977D01*
X201924082Y-81878748D01*
X201873386Y-81904914D01*
X201782326Y-81951914D01*
X201773450Y-81956495D01*
X201767728Y-81961487D01*
X201767726Y-81961488D01*
X201735605Y-81989509D01*
X201645711Y-82067928D01*
X201616504Y-82109486D01*
X201565938Y-82181434D01*
X201548240Y-82206615D01*
X201486665Y-82364549D01*
X201475061Y-82452691D01*
X201465514Y-82525206D01*
X201436792Y-82590134D01*
X201429687Y-82597855D01*
X177391762Y-106635779D01*
X177382652Y-106643059D01*
X177383005Y-106643474D01*
X177376171Y-106649290D01*
X177368578Y-106654081D01*
X177362636Y-106660809D01*
X177362635Y-106660810D01*
X177334254Y-106692946D01*
X177328907Y-106698634D01*
X177319084Y-106708457D01*
X177315118Y-106713749D01*
X177313875Y-106715407D01*
X177307493Y-106723247D01*
X177278395Y-106756195D01*
X177274581Y-106764319D01*
X177271091Y-106769632D01*
X177266967Y-106776496D01*
X177263915Y-106782070D01*
X177258532Y-106789253D01*
X177249775Y-106812612D01*
X177243106Y-106830402D01*
X177239179Y-106839722D01*
X177220496Y-106879515D01*
X177219115Y-106888386D01*
X177217254Y-106894472D01*
X177215225Y-106902208D01*
X177213861Y-106908413D01*
X177210709Y-106916820D01*
X177210044Y-106925773D01*
X177207451Y-106960663D01*
X177206297Y-106970708D01*
X177204500Y-106982249D01*
X177204500Y-106995693D01*
X177204154Y-107005030D01*
X177200613Y-107052681D01*
X177202486Y-107061457D01*
X177203097Y-107070414D01*
X177203046Y-107070417D01*
X177204500Y-107084190D01*
X177204500Y-109463702D01*
X177184498Y-109531823D01*
X177130842Y-109578316D01*
X177107914Y-109586221D01*
X177021461Y-109606976D01*
X177021457Y-109606977D01*
X177014082Y-109608748D01*
X176863450Y-109686495D01*
X176857728Y-109691487D01*
X176857726Y-109691488D01*
X176812481Y-109730958D01*
X176735711Y-109797928D01*
X176731344Y-109804142D01*
X176646875Y-109924329D01*
X176638240Y-109936615D01*
X176576665Y-110094549D01*
X176575674Y-110102078D01*
X176557447Y-110240526D01*
X176554539Y-110262612D01*
X174585500Y-110262612D01*
X174585500Y-105769859D01*
X174605502Y-105701738D01*
X174622405Y-105680764D01*
X197007226Y-83295944D01*
X197069538Y-83261918D01*
X197071515Y-83261600D01*
X197073745Y-83261635D01*
X197148508Y-83244512D01*
X197231577Y-83225487D01*
X197231581Y-83225486D01*
X197238980Y-83223791D01*
X197390418Y-83147626D01*
X197519316Y-83037536D01*
X197618234Y-82899877D01*
X197666425Y-82780000D01*
X197678626Y-82749650D01*
X197678627Y-82749648D01*
X197681461Y-82742597D01*
X197693077Y-82660976D01*
X197704764Y-82578859D01*
X197704764Y-82578856D01*
X197705345Y-82574775D01*
X197705500Y-82560000D01*
X197700747Y-82520726D01*
X197686048Y-82399258D01*
X197686048Y-82399257D01*
X197685135Y-82391715D01*
X197680428Y-82379258D01*
X197627902Y-82240250D01*
X197627901Y-82240248D01*
X197625217Y-82233145D01*
X197620918Y-82226890D01*
X197620916Y-82226886D01*
X197533505Y-82099703D01*
X197533504Y-82099701D01*
X197529203Y-82093444D01*
X197509324Y-82075732D01*
X197493499Y-82061633D01*
X197402638Y-81980679D01*
X197356963Y-81956495D01*
X197259543Y-81904914D01*
X197259544Y-81904914D01*
X197252829Y-81901359D01*
X197088423Y-81860063D01*
X197080825Y-81860023D01*
X197080823Y-81860023D01*
X197007792Y-81859641D01*
X196918912Y-81859176D01*
X196911533Y-81860948D01*
X196911529Y-81860948D01*
X196761461Y-81896976D01*
X196761457Y-81896977D01*
X196754082Y-81898748D01*
X196725456Y-81913523D01*
X196632526Y-81961488D01*
X196603450Y-81976495D01*
X196597728Y-81981487D01*
X196597726Y-81981488D01*
X196566199Y-82008991D01*
X196475711Y-82087928D01*
X196460806Y-82109136D01*
X196392106Y-82206886D01*
X196378240Y-82226615D01*
X196316665Y-82384549D01*
X196304809Y-82474609D01*
X196304719Y-82475290D01*
X196275997Y-82540217D01*
X196268892Y-82547939D01*
X173699619Y-105117211D01*
X173695811Y-105120864D01*
X173651243Y-105161847D01*
X173646717Y-105169146D01*
X173646715Y-105169149D01*
X173629498Y-105196918D01*
X173622784Y-105206688D01*
X173597821Y-105239575D01*
X173592727Y-105252443D01*
X173582659Y-105272461D01*
X173575364Y-105284226D01*
X173572969Y-105292470D01*
X173572968Y-105292472D01*
X173563851Y-105323854D01*
X173560006Y-105335083D01*
X173547976Y-105365469D01*
X173544813Y-105373458D01*
X173543915Y-105382003D01*
X173543914Y-105382006D01*
X173543364Y-105387233D01*
X173539053Y-105409205D01*
X173537034Y-105416156D01*
X173537033Y-105416164D01*
X173535191Y-105422503D01*
X173534500Y-105431913D01*
X173534500Y-105464978D01*
X173533810Y-105478148D01*
X173529762Y-105516664D01*
X173531194Y-105525130D01*
X173531194Y-105525133D01*
X173532736Y-105534249D01*
X173534500Y-105555261D01*
X173534500Y-130040140D01*
X173514498Y-130108261D01*
X173497595Y-130129235D01*
X173272711Y-130354119D01*
X173210399Y-130388145D01*
X173204031Y-130389203D01*
X173198912Y-130389176D01*
X173191532Y-130390948D01*
X173191530Y-130390948D01*
X173041461Y-130426976D01*
X173041457Y-130426977D01*
X173034082Y-130428748D01*
X172883450Y-130506495D01*
X172877728Y-130511487D01*
X172877726Y-130511488D01*
X172824929Y-130557546D01*
X172755711Y-130617928D01*
X172730960Y-130653145D01*
X172670893Y-130738612D01*
X172658240Y-130756615D01*
X172596665Y-130914549D01*
X172574539Y-131082612D01*
X172055464Y-131082612D01*
X172055500Y-131080000D01*
X172035483Y-130901543D01*
X171976426Y-130731955D01*
X171881265Y-130579665D01*
X171836102Y-130534185D01*
X171802295Y-130471756D01*
X171807607Y-130400958D01*
X171838615Y-130354157D01*
X171861563Y-130332304D01*
X171870566Y-130321573D01*
X171962079Y-130183835D01*
X171968482Y-130171376D01*
X172002839Y-130080934D01*
X172003929Y-130066876D01*
X171998737Y-130064000D01*
X169239524Y-130064000D01*
X169225993Y-130067973D01*
X169225009Y-130074821D01*
X169247015Y-130140973D01*
X169252890Y-130153688D01*
X169286033Y-130208414D01*
X169304212Y-130277043D01*
X169282402Y-130344607D01*
X169271372Y-130358571D01*
X169263554Y-130367147D01*
X169254233Y-130374186D01*
X169195130Y-130469641D01*
X169192986Y-130481113D01*
X169192985Y-130481114D01*
X169178697Y-130557546D01*
X169174500Y-130580000D01*
X165620740Y-130580000D01*
X165620684Y-125988753D01*
X169174579Y-125988753D01*
X169175266Y-125995760D01*
X169175266Y-125995763D01*
X169187057Y-126116022D01*
X169192102Y-126167473D01*
X169248785Y-126337869D01*
X169252434Y-126343894D01*
X169336520Y-126482735D01*
X169341811Y-126491472D01*
X169346702Y-126496537D01*
X169346703Y-126496538D01*
X169361533Y-126511895D01*
X169376052Y-126526929D01*
X169395408Y-126546973D01*
X169428340Y-126609869D01*
X169422040Y-126680586D01*
X169392931Y-126724522D01*
X169355782Y-126760900D01*
X169351963Y-126766825D01*
X169351962Y-126766827D01*
X169334014Y-126794677D01*
X169258504Y-126911846D01*
X169256095Y-126918466D01*
X169256093Y-126918469D01*
X169251618Y-126930764D01*
X169197085Y-127080593D01*
X169174579Y-127258753D01*
X169175266Y-127265760D01*
X169175266Y-127265763D01*
X169187057Y-127386022D01*
X169192102Y-127437473D01*
X169248785Y-127607869D01*
X169341811Y-127761472D01*
X169346702Y-127766537D01*
X169346703Y-127766538D01*
X169395408Y-127816973D01*
X169428340Y-127879869D01*
X169422040Y-127950586D01*
X169392931Y-127994522D01*
X169355782Y-128030900D01*
X169351963Y-128036825D01*
X169351962Y-128036827D01*
X169262323Y-128175920D01*
X169258504Y-128181846D01*
X169256095Y-128188466D01*
X169256093Y-128188469D01*
X169227795Y-128266219D01*
X169197085Y-128350593D01*
X169174579Y-128528753D01*
X169175266Y-128535760D01*
X169175266Y-128535763D01*
X169187057Y-128656022D01*
X169192102Y-128707473D01*
X169248785Y-128877869D01*
X169341811Y-129031472D01*
X169346702Y-129036537D01*
X169346703Y-129036538D01*
X169395753Y-129087331D01*
X169428685Y-129150228D01*
X169422385Y-129220945D01*
X169393274Y-129264881D01*
X169361207Y-129296283D01*
X169352350Y-129307143D01*
X169262771Y-129446143D01*
X169256541Y-129458692D01*
X169227320Y-129538977D01*
X169226426Y-129553050D01*
X169231932Y-129556000D01*
X171990535Y-129556000D01*
X172004066Y-129552027D01*
X172005001Y-129545522D01*
X171978292Y-129468825D01*
X171972241Y-129456196D01*
X171884606Y-129315950D01*
X171875910Y-129304978D01*
X171836092Y-129264882D01*
X171802284Y-129202451D01*
X171807595Y-129131654D01*
X171838605Y-129084852D01*
X171861945Y-129062626D01*
X171861947Y-129062624D01*
X171867049Y-129057765D01*
X171966425Y-128908192D01*
X172030194Y-128740320D01*
X172055186Y-128562491D01*
X172055500Y-128540000D01*
X172035483Y-128361543D01*
X172029364Y-128343970D01*
X171978744Y-128198612D01*
X171976426Y-128191955D01*
X171881265Y-128039665D01*
X171836452Y-127994538D01*
X171802645Y-127932107D01*
X171807957Y-127861310D01*
X171838964Y-127814510D01*
X171867049Y-127787765D01*
X171966425Y-127638192D01*
X172030194Y-127470320D01*
X172055186Y-127292491D01*
X172055500Y-127270000D01*
X172035483Y-127091543D01*
X172029364Y-127073970D01*
X171992345Y-126967669D01*
X171976426Y-126921955D01*
X171881265Y-126769665D01*
X171836452Y-126724538D01*
X171802645Y-126662107D01*
X171807957Y-126591310D01*
X171838964Y-126544510D01*
X171849763Y-126534226D01*
X171867049Y-126517765D01*
X171966425Y-126368192D01*
X172030194Y-126200320D01*
X172055186Y-126022491D01*
X172055500Y-126000000D01*
X172035483Y-125821543D01*
X172029364Y-125803970D01*
X171978744Y-125658612D01*
X171976426Y-125651955D01*
X171881265Y-125499665D01*
X171817726Y-125435681D01*
X171759692Y-125377240D01*
X171759688Y-125377237D01*
X171754729Y-125372243D01*
X171737905Y-125361566D01*
X171609062Y-125279799D01*
X171609058Y-125279797D01*
X171603108Y-125276021D01*
X171433937Y-125215782D01*
X171255623Y-125194520D01*
X171248620Y-125195256D01*
X171248619Y-125195256D01*
X171204810Y-125199860D01*
X171077031Y-125213290D01*
X171070363Y-125215560D01*
X170913702Y-125268892D01*
X170913699Y-125268893D01*
X170907035Y-125271162D01*
X170754085Y-125365257D01*
X170724498Y-125394231D01*
X170703406Y-125414885D01*
X170640741Y-125448255D01*
X170569982Y-125442449D01*
X170525843Y-125413645D01*
X170489692Y-125377240D01*
X170489688Y-125377237D01*
X170484729Y-125372243D01*
X170467905Y-125361566D01*
X170339062Y-125279799D01*
X170339058Y-125279797D01*
X170333108Y-125276021D01*
X170163937Y-125215782D01*
X169985623Y-125194520D01*
X169978620Y-125195256D01*
X169978619Y-125195256D01*
X169934810Y-125199860D01*
X169807031Y-125213290D01*
X169800363Y-125215560D01*
X169643702Y-125268892D01*
X169643699Y-125268893D01*
X169637035Y-125271162D01*
X169484085Y-125365257D01*
X169479054Y-125370183D01*
X169479051Y-125370186D01*
X169433406Y-125414885D01*
X169355782Y-125490900D01*
X169351963Y-125496825D01*
X169351962Y-125496827D01*
X169262323Y-125635920D01*
X169258504Y-125641846D01*
X169256095Y-125648466D01*
X169256093Y-125648469D01*
X169227795Y-125726219D01*
X169197085Y-125810593D01*
X169174579Y-125988753D01*
X165620684Y-125988753D01*
X165620376Y-100676305D01*
X165620086Y-76850000D01*
X183844500Y-76850000D01*
X183844500Y-78550000D01*
X183844567Y-78551441D01*
X183844567Y-78551458D01*
X183845219Y-78565558D01*
X183845803Y-78578188D01*
X183876528Y-78686173D01*
X183944186Y-78775767D01*
X184039641Y-78834870D01*
X184051113Y-78837014D01*
X184051114Y-78837015D01*
X184144275Y-78854430D01*
X184144277Y-78854430D01*
X184150000Y-78855500D01*
X184785473Y-78855500D01*
X184853594Y-78875502D01*
X184900087Y-78929158D01*
X184910191Y-78999432D01*
X184880697Y-79064012D01*
X184820971Y-79102396D01*
X184806811Y-79105680D01*
X184700935Y-79123873D01*
X184502544Y-79197063D01*
X184497583Y-79200015D01*
X184497582Y-79200015D01*
X184374346Y-79273333D01*
X184320814Y-79305181D01*
X184161830Y-79444606D01*
X184030916Y-79610670D01*
X183932457Y-79797809D01*
X183869750Y-79999758D01*
X183844896Y-80209753D01*
X183858726Y-80420760D01*
X183910778Y-80625714D01*
X183999308Y-80817750D01*
X184121351Y-80990437D01*
X184272820Y-81137992D01*
X184277616Y-81141197D01*
X184277619Y-81141199D01*
X184331292Y-81177062D01*
X184448643Y-81255473D01*
X184453946Y-81257751D01*
X184453949Y-81257753D01*
X184587437Y-81315104D01*
X184642931Y-81338946D01*
X184849177Y-81385615D01*
X184854950Y-81385842D01*
X184860299Y-81386546D01*
X184925227Y-81415268D01*
X184964319Y-81474532D01*
X184965164Y-81545524D01*
X184927495Y-81605703D01*
X184865192Y-81635648D01*
X184706632Y-81662894D01*
X184700935Y-81663873D01*
X184502544Y-81737063D01*
X184497583Y-81740015D01*
X184497582Y-81740015D01*
X184329417Y-81840063D01*
X184320814Y-81845181D01*
X184161830Y-81984606D01*
X184030916Y-82150670D01*
X184028227Y-82155781D01*
X184028225Y-82155784D01*
X184004753Y-82200398D01*
X183932457Y-82337809D01*
X183869750Y-82539758D01*
X183844896Y-82749753D01*
X183858726Y-82960760D01*
X183910778Y-83165714D01*
X183999308Y-83357750D01*
X184121351Y-83530437D01*
X184272820Y-83677992D01*
X184277616Y-83681197D01*
X184277619Y-83681199D01*
X184331292Y-83717062D01*
X184448643Y-83795473D01*
X184453946Y-83797751D01*
X184453949Y-83797753D01*
X184587437Y-83855104D01*
X184642931Y-83878946D01*
X184849177Y-83925615D01*
X184854950Y-83925842D01*
X184860299Y-83926546D01*
X184925227Y-83955268D01*
X184964319Y-84014532D01*
X184965164Y-84085524D01*
X184927495Y-84145703D01*
X184865192Y-84175648D01*
X184739798Y-84197195D01*
X184700935Y-84203873D01*
X184502544Y-84277063D01*
X184497583Y-84280015D01*
X184497582Y-84280015D01*
X184411955Y-84330958D01*
X184320814Y-84385181D01*
X184161830Y-84524606D01*
X184030916Y-84690670D01*
X183932457Y-84877809D01*
X183869750Y-85079758D01*
X183844896Y-85289753D01*
X183858726Y-85500760D01*
X183910778Y-85705714D01*
X183999308Y-85897750D01*
X184121351Y-86070437D01*
X184272820Y-86217992D01*
X184277616Y-86221197D01*
X184277619Y-86221199D01*
X184331292Y-86257062D01*
X184448643Y-86335473D01*
X184453946Y-86337751D01*
X184453949Y-86337753D01*
X184587437Y-86395104D01*
X184642931Y-86418946D01*
X184849177Y-86465615D01*
X184854946Y-86465842D01*
X184854949Y-86465842D01*
X184935242Y-86468996D01*
X185060474Y-86473916D01*
X185148693Y-86461125D01*
X185264032Y-86444402D01*
X185264037Y-86444401D01*
X185269746Y-86443573D01*
X185275210Y-86441718D01*
X185275215Y-86441717D01*
X185464512Y-86377460D01*
X185464517Y-86377458D01*
X185469984Y-86375602D01*
X185654482Y-86272278D01*
X185817062Y-86137062D01*
X185952278Y-85974482D01*
X186055602Y-85789984D01*
X186057458Y-85784517D01*
X186057460Y-85784512D01*
X186121717Y-85595215D01*
X186121718Y-85595210D01*
X186123573Y-85589746D01*
X186124401Y-85584037D01*
X186124402Y-85584032D01*
X186153383Y-85384148D01*
X186153916Y-85380474D01*
X186155500Y-85320000D01*
X186136151Y-85109427D01*
X186127784Y-85079758D01*
X186080320Y-84911465D01*
X186080319Y-84911463D01*
X186078752Y-84905906D01*
X186064897Y-84877809D01*
X185987781Y-84721434D01*
X185985226Y-84716253D01*
X185858704Y-84546820D01*
X185703424Y-84403280D01*
X185698541Y-84400199D01*
X185698537Y-84400196D01*
X185529470Y-84293523D01*
X185529465Y-84293521D01*
X185524586Y-84290442D01*
X185328180Y-84212084D01*
X185145005Y-84175648D01*
X185125650Y-84171798D01*
X185062741Y-84138890D01*
X185027609Y-84077195D01*
X185031409Y-84006300D01*
X185072935Y-83948714D01*
X185132151Y-83923523D01*
X185174976Y-83917314D01*
X185264032Y-83904402D01*
X185264037Y-83904401D01*
X185269746Y-83903573D01*
X185275210Y-83901718D01*
X185275215Y-83901717D01*
X185464512Y-83837460D01*
X185464517Y-83837458D01*
X185469984Y-83835602D01*
X185654482Y-83732278D01*
X185817062Y-83597062D01*
X185952278Y-83434482D01*
X186055602Y-83249984D01*
X186057458Y-83244517D01*
X186057460Y-83244512D01*
X186121717Y-83055215D01*
X186121718Y-83055210D01*
X186123573Y-83049746D01*
X186124401Y-83044037D01*
X186124402Y-83044032D01*
X186148835Y-82875519D01*
X186153916Y-82840474D01*
X186155500Y-82780000D01*
X186142075Y-82633892D01*
X186136680Y-82575181D01*
X186136679Y-82575178D01*
X186136151Y-82569427D01*
X186133493Y-82560000D01*
X186080320Y-82371465D01*
X186080319Y-82371463D01*
X186078752Y-82365906D01*
X186074594Y-82357473D01*
X185987781Y-82181434D01*
X185985226Y-82176253D01*
X185981640Y-82171450D01*
X185931724Y-82104606D01*
X185858704Y-82006820D01*
X185703424Y-81863280D01*
X185698541Y-81860199D01*
X185698537Y-81860196D01*
X185529470Y-81753523D01*
X185529465Y-81753521D01*
X185524586Y-81750442D01*
X185328180Y-81672084D01*
X185145005Y-81635648D01*
X185125650Y-81631798D01*
X185062741Y-81598890D01*
X185027609Y-81537195D01*
X185031409Y-81466300D01*
X185072935Y-81408714D01*
X185132151Y-81383523D01*
X185171948Y-81377753D01*
X185264032Y-81364402D01*
X185264037Y-81364401D01*
X185269746Y-81363573D01*
X185275210Y-81361718D01*
X185275215Y-81361717D01*
X185464512Y-81297460D01*
X185464517Y-81297458D01*
X185469984Y-81295602D01*
X185654482Y-81192278D01*
X185817062Y-81057062D01*
X185952278Y-80894482D01*
X186055602Y-80709984D01*
X186057458Y-80704517D01*
X186057460Y-80704512D01*
X186121717Y-80515215D01*
X186121718Y-80515210D01*
X186123573Y-80509746D01*
X186124401Y-80504037D01*
X186124402Y-80504032D01*
X186153383Y-80304148D01*
X186153916Y-80300474D01*
X186155500Y-80240000D01*
X186136151Y-80029427D01*
X186127784Y-79999758D01*
X186080320Y-79831465D01*
X186080319Y-79831463D01*
X186078752Y-79825906D01*
X186064897Y-79797809D01*
X185987781Y-79641434D01*
X185985226Y-79636253D01*
X185920818Y-79550000D01*
X219044500Y-79550000D01*
X219044500Y-81250000D01*
X219044567Y-81251441D01*
X219044567Y-81251458D01*
X219044858Y-81257753D01*
X219045803Y-81278188D01*
X219076528Y-81386173D01*
X219144186Y-81475767D01*
X219239641Y-81534870D01*
X219251113Y-81537014D01*
X219251114Y-81537015D01*
X219344275Y-81554430D01*
X219344277Y-81554430D01*
X219350000Y-81555500D01*
X219985473Y-81555500D01*
X220053594Y-81575502D01*
X220100087Y-81629158D01*
X220110191Y-81699432D01*
X220080697Y-81764012D01*
X220020971Y-81802396D01*
X220006811Y-81805680D01*
X219900935Y-81823873D01*
X219702544Y-81897063D01*
X219697583Y-81900015D01*
X219697582Y-81900015D01*
X219544047Y-81991359D01*
X219520814Y-82005181D01*
X219361830Y-82144606D01*
X219230916Y-82310670D01*
X219228227Y-82315781D01*
X219228225Y-82315784D01*
X219195769Y-82377473D01*
X219132457Y-82497809D01*
X219069750Y-82699758D01*
X219044896Y-82909753D01*
X219058726Y-83120760D01*
X219110778Y-83325714D01*
X219199308Y-83517750D01*
X219321351Y-83690437D01*
X219472820Y-83837992D01*
X219477616Y-83841197D01*
X219477619Y-83841199D01*
X219588779Y-83915473D01*
X219648643Y-83955473D01*
X219653946Y-83957751D01*
X219653949Y-83957753D01*
X219807149Y-84023573D01*
X219842931Y-84038946D01*
X220049177Y-84085615D01*
X220054946Y-84085842D01*
X220054949Y-84085842D01*
X220135242Y-84088996D01*
X220260474Y-84093916D01*
X220348693Y-84081125D01*
X220464032Y-84064402D01*
X220464037Y-84064401D01*
X220469746Y-84063573D01*
X220475210Y-84061718D01*
X220475215Y-84061717D01*
X220664512Y-83997460D01*
X220664517Y-83997458D01*
X220669984Y-83995602D01*
X220854482Y-83892278D01*
X221017062Y-83757062D01*
X221152278Y-83594482D01*
X221239393Y-83438928D01*
X221252778Y-83415027D01*
X221252779Y-83415025D01*
X221255602Y-83409984D01*
X221257458Y-83404517D01*
X221257460Y-83404512D01*
X221321717Y-83215215D01*
X221321718Y-83215210D01*
X221323573Y-83209746D01*
X221324401Y-83204037D01*
X221324402Y-83204032D01*
X221353383Y-83004148D01*
X221353916Y-83000474D01*
X221355500Y-82940000D01*
X221340798Y-82780000D01*
X221336680Y-82735181D01*
X221336679Y-82735178D01*
X221336151Y-82729427D01*
X221332103Y-82715071D01*
X221280320Y-82531465D01*
X221280319Y-82531463D01*
X221278752Y-82525906D01*
X221264897Y-82497809D01*
X221187781Y-82341434D01*
X221185226Y-82336253D01*
X221155357Y-82296253D01*
X221140271Y-82276051D01*
X221058704Y-82166820D01*
X220973863Y-82088393D01*
X220907669Y-82027204D01*
X220903424Y-82023280D01*
X220898541Y-82020199D01*
X220898537Y-82020196D01*
X220729470Y-81913523D01*
X220729465Y-81913521D01*
X220724586Y-81910442D01*
X220528180Y-81832084D01*
X220522520Y-81830958D01*
X220522516Y-81830957D01*
X220409055Y-81808389D01*
X220392417Y-81805079D01*
X220329507Y-81772171D01*
X220294375Y-81710476D01*
X220298175Y-81639582D01*
X220339701Y-81581996D01*
X220405768Y-81556001D01*
X220416998Y-81555500D01*
X221050000Y-81555500D01*
X221051441Y-81555433D01*
X221051458Y-81555433D01*
X221065558Y-81554781D01*
X221078188Y-81554197D01*
X221186173Y-81523472D01*
X221275767Y-81455814D01*
X221334870Y-81360359D01*
X221344550Y-81308580D01*
X221354430Y-81255725D01*
X221354430Y-81255723D01*
X221355500Y-81250000D01*
X221355500Y-79550000D01*
X221355236Y-79544275D01*
X221354533Y-79529084D01*
X221354197Y-79521812D01*
X221323472Y-79413827D01*
X221255814Y-79324233D01*
X221160359Y-79265130D01*
X221148887Y-79262986D01*
X221148886Y-79262985D01*
X221055725Y-79245570D01*
X221055723Y-79245570D01*
X221050000Y-79244500D01*
X219350000Y-79244500D01*
X219348559Y-79244567D01*
X219348542Y-79244567D01*
X219334442Y-79245219D01*
X219321812Y-79245803D01*
X219213827Y-79276528D01*
X219124233Y-79344186D01*
X219065130Y-79439641D01*
X219044500Y-79550000D01*
X185920818Y-79550000D01*
X185858704Y-79466820D01*
X185703424Y-79323280D01*
X185698541Y-79320199D01*
X185698537Y-79320196D01*
X185529470Y-79213523D01*
X185529465Y-79213521D01*
X185524586Y-79210442D01*
X185328180Y-79132084D01*
X185322520Y-79130958D01*
X185322516Y-79130957D01*
X185209055Y-79108389D01*
X185192417Y-79105079D01*
X185129507Y-79072171D01*
X185094375Y-79010476D01*
X185098175Y-78939582D01*
X185139701Y-78881996D01*
X185205768Y-78856001D01*
X185216998Y-78855500D01*
X185850000Y-78855500D01*
X185851441Y-78855433D01*
X185851458Y-78855433D01*
X185865558Y-78854781D01*
X185878188Y-78854197D01*
X185986173Y-78823472D01*
X186075767Y-78755814D01*
X186134870Y-78660359D01*
X186155500Y-78550000D01*
X186155500Y-76850000D01*
X186155236Y-76844275D01*
X186154533Y-76829084D01*
X186154197Y-76821812D01*
X186123472Y-76713827D01*
X186055814Y-76624233D01*
X185960359Y-76565130D01*
X185948887Y-76562986D01*
X185948886Y-76562985D01*
X185855725Y-76545570D01*
X185855723Y-76545570D01*
X185850000Y-76544500D01*
X184150000Y-76544500D01*
X184148559Y-76544567D01*
X184148542Y-76544567D01*
X184134442Y-76545219D01*
X184121812Y-76545803D01*
X184013827Y-76576528D01*
X183924233Y-76644186D01*
X183865130Y-76739641D01*
X183844500Y-76850000D01*
X165620086Y-76850000D01*
X165620027Y-71960000D01*
X195844500Y-71960000D01*
X195844500Y-73660000D01*
X195844567Y-73661441D01*
X195844567Y-73661458D01*
X195845219Y-73675558D01*
X195845803Y-73688188D01*
X195876528Y-73796173D01*
X195944186Y-73885767D01*
X196039641Y-73944870D01*
X196051113Y-73947014D01*
X196051114Y-73947015D01*
X196144275Y-73964430D01*
X196144277Y-73964430D01*
X196150000Y-73965500D01*
X197850000Y-73965500D01*
X197851441Y-73965433D01*
X197851458Y-73965433D01*
X197865558Y-73964781D01*
X197878188Y-73964197D01*
X197986173Y-73933472D01*
X198075767Y-73865814D01*
X198134870Y-73770359D01*
X198147282Y-73703965D01*
X198154430Y-73665725D01*
X198154430Y-73665723D01*
X198155500Y-73660000D01*
X198155500Y-73039034D01*
X198175502Y-72970913D01*
X198229158Y-72924420D01*
X198299432Y-72914316D01*
X198364012Y-72943810D01*
X198403623Y-73008019D01*
X198449827Y-73189947D01*
X198453668Y-73200793D01*
X198537323Y-73382255D01*
X198543074Y-73392216D01*
X198658399Y-73555397D01*
X198665865Y-73564139D01*
X198809001Y-73703577D01*
X198817934Y-73710811D01*
X198984078Y-73821824D01*
X198994188Y-73827314D01*
X199177785Y-73906193D01*
X199188712Y-73909743D01*
X199268330Y-73927759D01*
X199282405Y-73926871D01*
X199286000Y-73917473D01*
X199286000Y-71707676D01*
X199794000Y-71707676D01*
X199794000Y-73917238D01*
X199797966Y-73930744D01*
X199809966Y-73932462D01*
X199815106Y-73931228D01*
X200004313Y-73867001D01*
X200014816Y-73862325D01*
X200189162Y-73764687D01*
X200198637Y-73758175D01*
X200352276Y-73630394D01*
X200360394Y-73622276D01*
X200488175Y-73468637D01*
X200494687Y-73459162D01*
X200592325Y-73284816D01*
X200597001Y-73274313D01*
X200661231Y-73085098D01*
X200663915Y-73073915D01*
X200684906Y-72929144D01*
X200714476Y-72864598D01*
X200774247Y-72826286D01*
X200845244Y-72826370D01*
X200904924Y-72864825D01*
X200934341Y-72929441D01*
X200935332Y-72938982D01*
X200937425Y-72970913D01*
X200938726Y-72990760D01*
X200990778Y-73195714D01*
X201079308Y-73387750D01*
X201201351Y-73560437D01*
X201352820Y-73707992D01*
X201357616Y-73711197D01*
X201357619Y-73711199D01*
X201427924Y-73758175D01*
X201528643Y-73825473D01*
X201533946Y-73827751D01*
X201533949Y-73827753D01*
X201683290Y-73891915D01*
X201722931Y-73908946D01*
X201929177Y-73955615D01*
X201934946Y-73955842D01*
X201934949Y-73955842D01*
X202015242Y-73958996D01*
X202140474Y-73963916D01*
X202228693Y-73951125D01*
X202344032Y-73934402D01*
X202344037Y-73934401D01*
X202349746Y-73933573D01*
X202355210Y-73931718D01*
X202355215Y-73931717D01*
X202544512Y-73867460D01*
X202544517Y-73867458D01*
X202549984Y-73865602D01*
X202555836Y-73862325D01*
X202628155Y-73821824D01*
X202734482Y-73762278D01*
X202897062Y-73627062D01*
X203032278Y-73464482D01*
X203135602Y-73279984D01*
X203137458Y-73274517D01*
X203137460Y-73274512D01*
X203201717Y-73085215D01*
X203201718Y-73085210D01*
X203203573Y-73079746D01*
X203204401Y-73074037D01*
X203204402Y-73074032D01*
X203225063Y-72931533D01*
X203254633Y-72866987D01*
X203314405Y-72828675D01*
X203385401Y-72828759D01*
X203445082Y-72867214D01*
X203474498Y-72931830D01*
X203475489Y-72941371D01*
X203478726Y-72990760D01*
X203530778Y-73195714D01*
X203619308Y-73387750D01*
X203741351Y-73560437D01*
X203892820Y-73707992D01*
X203897616Y-73711197D01*
X203897619Y-73711199D01*
X203967924Y-73758175D01*
X204068643Y-73825473D01*
X204073946Y-73827751D01*
X204073949Y-73827753D01*
X204223290Y-73891915D01*
X204262931Y-73908946D01*
X204469177Y-73955615D01*
X204474946Y-73955842D01*
X204474949Y-73955842D01*
X204555242Y-73958996D01*
X204680474Y-73963916D01*
X204768693Y-73951125D01*
X204884032Y-73934402D01*
X204884037Y-73934401D01*
X204889746Y-73933573D01*
X204895210Y-73931718D01*
X204895215Y-73931717D01*
X205084512Y-73867460D01*
X205084517Y-73867458D01*
X205089984Y-73865602D01*
X205095836Y-73862325D01*
X205168155Y-73821824D01*
X205274482Y-73762278D01*
X205437062Y-73627062D01*
X205572278Y-73464482D01*
X205675602Y-73279984D01*
X205677458Y-73274517D01*
X205677460Y-73274512D01*
X205741717Y-73085215D01*
X205741718Y-73085210D01*
X205743573Y-73079746D01*
X205744401Y-73074037D01*
X205744402Y-73074032D01*
X205773383Y-72874148D01*
X205773916Y-72870474D01*
X205775500Y-72810000D01*
X205756812Y-72606620D01*
X205756680Y-72605181D01*
X205756679Y-72605178D01*
X205756151Y-72599427D01*
X205752246Y-72585578D01*
X205700320Y-72401465D01*
X205700319Y-72401463D01*
X205698752Y-72395906D01*
X205684897Y-72367809D01*
X205607781Y-72211434D01*
X205605226Y-72206253D01*
X205590141Y-72186051D01*
X205482161Y-72041450D01*
X205478704Y-72036820D01*
X205372974Y-71939084D01*
X205327669Y-71897204D01*
X205323424Y-71893280D01*
X205318541Y-71890199D01*
X205318537Y-71890196D01*
X205149470Y-71783523D01*
X205149465Y-71783521D01*
X205144586Y-71780442D01*
X205013352Y-71728085D01*
X204953544Y-71704224D01*
X204948180Y-71702084D01*
X204942520Y-71700958D01*
X204942516Y-71700957D01*
X204746450Y-71661957D01*
X204746447Y-71661957D01*
X204740783Y-71660830D01*
X204735008Y-71660754D01*
X204735004Y-71660754D01*
X204629064Y-71659367D01*
X204529341Y-71658062D01*
X204523644Y-71659041D01*
X204523643Y-71659041D01*
X204328791Y-71692523D01*
X204320935Y-71693873D01*
X204122544Y-71767063D01*
X203940814Y-71875181D01*
X203781830Y-72014606D01*
X203650916Y-72180670D01*
X203552457Y-72367809D01*
X203489750Y-72569758D01*
X203485387Y-72606620D01*
X203475097Y-72693562D01*
X203447227Y-72758859D01*
X203388478Y-72798723D01*
X203317504Y-72800497D01*
X203256837Y-72763618D01*
X203225740Y-72699794D01*
X203224499Y-72690281D01*
X203222677Y-72670444D01*
X203216812Y-72606620D01*
X203216680Y-72605181D01*
X203216679Y-72605178D01*
X203216151Y-72599427D01*
X203212246Y-72585578D01*
X203160320Y-72401465D01*
X203160319Y-72401463D01*
X203158752Y-72395906D01*
X203144897Y-72367809D01*
X203067781Y-72211434D01*
X203065226Y-72206253D01*
X203050141Y-72186051D01*
X202942161Y-72041450D01*
X202938704Y-72036820D01*
X202832974Y-71939084D01*
X202787669Y-71897204D01*
X202783424Y-71893280D01*
X202778541Y-71890199D01*
X202778537Y-71890196D01*
X202609470Y-71783523D01*
X202609465Y-71783521D01*
X202604586Y-71780442D01*
X202473352Y-71728085D01*
X202413544Y-71704224D01*
X202408180Y-71702084D01*
X202402520Y-71700958D01*
X202402516Y-71700957D01*
X202206450Y-71661957D01*
X202206447Y-71661957D01*
X202200783Y-71660830D01*
X202195008Y-71660754D01*
X202195004Y-71660754D01*
X202089064Y-71659367D01*
X201989341Y-71658062D01*
X201983644Y-71659041D01*
X201983643Y-71659041D01*
X201788791Y-71692523D01*
X201780935Y-71693873D01*
X201582544Y-71767063D01*
X201400814Y-71875181D01*
X201241830Y-72014606D01*
X201110916Y-72180670D01*
X201012457Y-72367809D01*
X200949750Y-72569758D01*
X200935486Y-72690281D01*
X200934816Y-72695940D01*
X200906946Y-72761238D01*
X200848198Y-72801102D01*
X200777223Y-72802877D01*
X200716556Y-72765998D01*
X200685459Y-72702174D01*
X200684218Y-72692661D01*
X200676188Y-72605274D01*
X200674090Y-72593954D01*
X200619854Y-72401649D01*
X200615729Y-72390902D01*
X200527354Y-72211695D01*
X200521344Y-72201887D01*
X200401785Y-72041778D01*
X200394096Y-72033238D01*
X200247354Y-71897592D01*
X200238238Y-71890598D01*
X200069245Y-71783970D01*
X200058994Y-71778746D01*
X199873402Y-71704703D01*
X199862374Y-71701436D01*
X199811770Y-71691371D01*
X199798894Y-71692523D01*
X199794000Y-71707676D01*
X199286000Y-71707676D01*
X199286000Y-71704749D01*
X199282194Y-71691787D01*
X199267279Y-71689851D01*
X199246756Y-71693378D01*
X199235644Y-71696355D01*
X199048176Y-71765516D01*
X199037798Y-71770466D01*
X198866076Y-71872629D01*
X198856764Y-71879394D01*
X198706534Y-72011143D01*
X198698617Y-72019486D01*
X198574909Y-72176408D01*
X198568647Y-72186051D01*
X198475608Y-72362891D01*
X198471207Y-72373515D01*
X198411953Y-72564345D01*
X198409561Y-72575599D01*
X198406627Y-72600388D01*
X198378756Y-72665685D01*
X198320008Y-72705549D01*
X198249034Y-72707323D01*
X198188367Y-72670444D01*
X198157269Y-72606620D01*
X198155500Y-72585578D01*
X198155500Y-71960000D01*
X198155236Y-71954275D01*
X198154533Y-71939084D01*
X198154197Y-71931812D01*
X198123472Y-71823827D01*
X198055814Y-71734233D01*
X197960359Y-71675130D01*
X197948887Y-71672986D01*
X197948886Y-71672985D01*
X197855725Y-71655570D01*
X197855723Y-71655570D01*
X197850000Y-71654500D01*
X196150000Y-71654500D01*
X196148559Y-71654567D01*
X196148542Y-71654567D01*
X196134442Y-71655219D01*
X196121812Y-71655803D01*
X196013827Y-71686528D01*
X195924233Y-71754186D01*
X195865130Y-71849641D01*
X195862986Y-71861113D01*
X195862985Y-71861114D01*
X195856972Y-71893280D01*
X195844500Y-71960000D01*
X165620027Y-71960000D01*
X165619996Y-69426050D01*
X165639997Y-69357929D01*
X165693652Y-69311435D01*
X165745997Y-69300048D01*
X180416941Y-69300170D01*
G37*
%TD.AperFunction*%
%TA.AperFunction,Conductor*%
G36*
X213960281Y-93896810D02*
G01*
X213981255Y-93913713D01*
X222187595Y-102120054D01*
X222221621Y-102182366D01*
X222224500Y-102209149D01*
X222224500Y-102903952D01*
X222204498Y-102972073D01*
X222150842Y-103018566D01*
X222080568Y-103028670D01*
X222067805Y-103026156D01*
X221971294Y-103001914D01*
X221971290Y-103001914D01*
X221963923Y-103000063D01*
X221956325Y-103000023D01*
X221956323Y-103000023D01*
X221873580Y-102999590D01*
X221805565Y-102979232D01*
X221785145Y-102962687D01*
X213244221Y-94421762D01*
X213236941Y-94412652D01*
X213236526Y-94413005D01*
X213230710Y-94406171D01*
X213225919Y-94398578D01*
X213187053Y-94364253D01*
X213181366Y-94358907D01*
X213171543Y-94349084D01*
X213166251Y-94345118D01*
X213164593Y-94343875D01*
X213156753Y-94337493D01*
X213130532Y-94314336D01*
X213123805Y-94308395D01*
X213115681Y-94304581D01*
X213110368Y-94301091D01*
X213103504Y-94296967D01*
X213097930Y-94293915D01*
X213090747Y-94288532D01*
X213049598Y-94273106D01*
X213040278Y-94269179D01*
X213034673Y-94266548D01*
X213000485Y-94250496D01*
X212991614Y-94249115D01*
X212985528Y-94247254D01*
X212977792Y-94245225D01*
X212971587Y-94243861D01*
X212963180Y-94240709D01*
X212939959Y-94238984D01*
X212919337Y-94237451D01*
X212909292Y-94236297D01*
X212906247Y-94235823D01*
X212897751Y-94234500D01*
X212884307Y-94234500D01*
X212874970Y-94234154D01*
X212860746Y-94233097D01*
X212827319Y-94230613D01*
X212818543Y-94232486D01*
X212809586Y-94233097D01*
X212809583Y-94233046D01*
X212795810Y-94234500D01*
X211787152Y-94234500D01*
X211719031Y-94214498D01*
X211703333Y-94202576D01*
X211628313Y-94135735D01*
X211628312Y-94135734D01*
X211622638Y-94130679D01*
X211617405Y-94127908D01*
X211573332Y-94073163D01*
X211565777Y-94002570D01*
X211597586Y-93939098D01*
X211607926Y-93929197D01*
X211633920Y-93906996D01*
X211698709Y-93877966D01*
X211715749Y-93876808D01*
X213892160Y-93876808D01*
X213960281Y-93896810D01*
G37*
%TD.AperFunction*%
%TD*%
M02*
