M48
; DRILL file {KiCad (5.99.0-10363-g902a2c9f58)} date Tuesday, May 11, 2021 at 07:12:06 PM
; FORMAT={-:-/ absolute / inch / decimal}
; #@! TF.CreationDate,2021-05-11T19:12:06+02:00
; #@! TF.GenerationSoftware,Kicad,Pcbnew,(5.99.0-10363-g902a2c9f58)
; #@! TF.FileFunction,MixedPlating,1,2
FMAT,2
INCH
; #@! TA.AperFunction,Plated,PTH,ViaDrill
T1C0.0157
; #@! TA.AperFunction,Plated,PTH,ComponentDrill
T2C0.0276
; #@! TA.AperFunction,Plated,PTH,ComponentDrill
T3C0.0394
%
G90
G05
T1
X6.5618Y-4.6799
X6.5996Y-3.8114
X6.6165Y-2.8098
X6.6382Y-4.6756
X6.7665Y-4.6756
X6.822Y-5.161
X6.8902Y-4.6756
X6.9035Y-5.1075
X6.9787Y-4.3413
X6.9913Y-4.6772
X7.0681Y-4.3583
X7.3984Y-2.8799
X7.4236Y-3.4701
X7.4854Y-3.3839
X7.5217Y-3.3067
X7.5508Y-3.2291
X7.6571Y-3.8228
X7.7559Y-3.2504
X7.8559Y-3.25
X7.9594Y-3.2496
X8.0594Y-3.2539
X8.3063Y-2.952
X8.3129Y-3.6772
X8.3157Y-3.7287
X8.3157Y-3.7894
X8.3169Y-3.8472
X8.502Y-3.6654
X8.5102Y-4.1776
X8.5997Y-3.994
X8.602Y-3.898
X8.602Y-4.0354
X8.6024Y-4.1567
X8.6126Y-4.9299
X8.6799Y-4.1122
X8.7154Y-3.9079
X8.7353Y-4.0827
X8.7402Y-4.5295
X8.7669Y-4.2055
X8.7693Y-3.7358
X8.7697Y-3.5315
X8.7701Y-3.6307
X8.8016Y-4.176
X8.8024Y-4.0843
X8.8209Y-5.1398
X9.1815Y-5.1567
X9.3472Y-3.461
X9.3803Y-5.2165
X9.472Y-4.0835
X9.4902Y-4.6846
T2
X6.6921Y-4.9606
X6.6921Y-5.0106
X6.6921Y-5.0606
X6.6921Y-5.1106
X6.6921Y-5.1606
X6.7421Y-4.9606
X6.7421Y-5.0106
X6.7421Y-5.0606
X6.7421Y-5.1106
X6.7421Y-5.1606
T3
X7.2835Y-3.0591
X7.2835Y-3.1591
X7.2835Y-3.2591
X7.2835Y-3.3591
X7.7559Y-2.8665
X7.8559Y-2.8665
X7.9559Y-2.8665
X8.0559Y-2.8665
X8.526Y-4.3378
X8.526Y-4.4378
X8.526Y-4.5378
X8.526Y-4.6378
X8.626Y-4.3378
X8.626Y-4.4378
X8.626Y-4.5378
X8.626Y-4.6378
X8.6693Y-3.1654
X8.6693Y-3.2654
X8.6693Y-3.4823
X8.6693Y-3.5823
X8.6693Y-3.6823
X8.6693Y-3.7823
X8.8705Y-3.1638
X8.8705Y-3.2638
X8.8705Y-3.3638
X8.8705Y-3.4638
X8.8705Y-3.5638
X8.8705Y-3.6638
X8.8705Y-3.7638
X8.8705Y-3.8638
X8.8705Y-3.9638
X8.8705Y-4.0638
X8.8705Y-4.1638
X8.8705Y-4.2638
X8.8705Y-4.3638
X8.8705Y-4.4638
X8.8705Y-4.5638
X8.939Y-5.1411
X8.939Y-5.2411
X9.5955Y-4.8346
X9.6955Y-4.8346
X9.7955Y-4.8346
X9.8955Y-4.8346
X9.9705Y-3.1638
X9.9705Y-3.2638
X9.9705Y-3.3638
X9.9705Y-3.4638
X9.9705Y-3.5638
X9.9705Y-3.6638
X9.9705Y-3.7638
X9.9705Y-3.8638
X9.9705Y-3.9638
X9.9705Y-4.0638
X9.9705Y-4.1638
X9.9705Y-4.2638
X9.9705Y-4.3638
X9.9705Y-4.4638
X9.9705Y-4.5638
X9.9955Y-4.8346
T0
M30
