%TF.GenerationSoftware,KiCad,Pcbnew,(5.99.0-9565-gc0f3e53b52)*%
%TF.CreationDate,2021-04-08T11:44:11+02:00*%
%TF.ProjectId,Smogly1,536d6f67-6c79-4312-9e6b-696361645f70,rev?*%
%TF.SameCoordinates,Original*%
%TF.FileFunction,Copper,L1,Top*%
%TF.FilePolarity,Positive*%
%FSLAX46Y46*%
G04 Gerber Fmt 4.6, Leading zero omitted, Abs format (unit mm)*
G04 Created by KiCad (PCBNEW (5.99.0-9565-gc0f3e53b52)) date 2021-04-08 11:44:11*
%MOMM*%
%LPD*%
G01*
G04 APERTURE LIST*
%ADD10C,0.300000*%
%TA.AperFunction,NonConductor*%
%ADD11C,0.200000*%
%TD*%
%TA.AperFunction,ComponentPad*%
%ADD12R,1.700000X1.700000*%
%TD*%
%TA.AperFunction,ComponentPad*%
%ADD13O,1.700000X1.700000*%
%TD*%
%TA.AperFunction,ViaPad*%
%ADD14C,0.800000*%
%TD*%
%TA.AperFunction,Conductor*%
%ADD15C,0.350000*%
%TD*%
G04 APERTURE END LIST*
D10*
X260938187Y-124950000D02*
X260938187Y-124021428D01*
X261509616Y-124521428D01*
X261509616Y-124307142D01*
X261581044Y-124164285D01*
X261652473Y-124092857D01*
X261795330Y-124021428D01*
X262152473Y-124021428D01*
X262295330Y-124092857D01*
X262366758Y-124164285D01*
X262438187Y-124307142D01*
X262438187Y-124735714D01*
X262366758Y-124878571D01*
X262295330Y-124950000D01*
X260938187Y-123521428D02*
X260938187Y-122521428D01*
X262438187Y-123164285D01*
X262295330Y-121950000D02*
X262366758Y-121878571D01*
X262438187Y-121950000D01*
X262366758Y-122021428D01*
X262295330Y-121950000D01*
X262438187Y-121950000D01*
X260938187Y-120950000D02*
X260938187Y-120807142D01*
X261009616Y-120664285D01*
X261081044Y-120592857D01*
X261223901Y-120521428D01*
X261509616Y-120450000D01*
X261866758Y-120450000D01*
X262152473Y-120521428D01*
X262295330Y-120592857D01*
X262366758Y-120664285D01*
X262438187Y-120807142D01*
X262438187Y-120950000D01*
X262366758Y-121092857D01*
X262295330Y-121164285D01*
X262152473Y-121235714D01*
X261866758Y-121307142D01*
X261509616Y-121307142D01*
X261223901Y-121235714D01*
X261081044Y-121164285D01*
X261009616Y-121092857D01*
X260938187Y-120950000D01*
X260938187Y-119521428D02*
X260938187Y-119378571D01*
X261009616Y-119235714D01*
X261081044Y-119164285D01*
X261223901Y-119092857D01*
X261509616Y-119021428D01*
X261866758Y-119021428D01*
X262152473Y-119092857D01*
X262295330Y-119164285D01*
X262366758Y-119235714D01*
X262438187Y-119378571D01*
X262438187Y-119521428D01*
X262366758Y-119664285D01*
X262295330Y-119735714D01*
X262152473Y-119807142D01*
X261866758Y-119878571D01*
X261509616Y-119878571D01*
X261223901Y-119807142D01*
X261081044Y-119735714D01*
X261009616Y-119664285D01*
X260938187Y-119521428D01*
X260938187Y-118092857D02*
X260938187Y-117950000D01*
X261009616Y-117807142D01*
X261081044Y-117735714D01*
X261223901Y-117664285D01*
X261509616Y-117592857D01*
X261866758Y-117592857D01*
X262152473Y-117664285D01*
X262295330Y-117735714D01*
X262366758Y-117807142D01*
X262438187Y-117950000D01*
X262438187Y-118092857D01*
X262366758Y-118235714D01*
X262295330Y-118307142D01*
X262152473Y-118378571D01*
X261866758Y-118450000D01*
X261509616Y-118450000D01*
X261223901Y-118378571D01*
X261081044Y-118307142D01*
X261009616Y-118235714D01*
X260938187Y-118092857D01*
X260938187Y-116664285D02*
X260938187Y-116521428D01*
X261009616Y-116378571D01*
X261081044Y-116307142D01*
X261223901Y-116235714D01*
X261509616Y-116164285D01*
X261866758Y-116164285D01*
X262152473Y-116235714D01*
X262295330Y-116307142D01*
X262366758Y-116378571D01*
X262438187Y-116521428D01*
X262438187Y-116664285D01*
X262366758Y-116807142D01*
X262295330Y-116878571D01*
X262152473Y-116950000D01*
X261866758Y-117021428D01*
X261509616Y-117021428D01*
X261223901Y-116950000D01*
X261081044Y-116878571D01*
X261009616Y-116807142D01*
X260938187Y-116664285D01*
X262438187Y-114378571D02*
X261438187Y-114378571D01*
X261581044Y-114378571D02*
X261509616Y-114307142D01*
X261438187Y-114164285D01*
X261438187Y-113950000D01*
X261509616Y-113807142D01*
X261652473Y-113735714D01*
X262438187Y-113735714D01*
X261652473Y-113735714D02*
X261509616Y-113664285D01*
X261438187Y-113521428D01*
X261438187Y-113307142D01*
X261509616Y-113164285D01*
X261652473Y-113092857D01*
X262438187Y-113092857D01*
X262438187Y-112378571D02*
X261438187Y-112378571D01*
X261581044Y-112378571D02*
X261509616Y-112307142D01*
X261438187Y-112164285D01*
X261438187Y-111950000D01*
X261509616Y-111807142D01*
X261652473Y-111735714D01*
X262438187Y-111735714D01*
X261652473Y-111735714D02*
X261509616Y-111664285D01*
X261438187Y-111521428D01*
X261438187Y-111307142D01*
X261509616Y-111164285D01*
X261652473Y-111092857D01*
X262438187Y-111092857D01*
D11*
X258700000Y-136450000D02*
X260546036Y-136450000D01*
X258700000Y-99450000D02*
X260546036Y-99450000D01*
X259959616Y-136450000D02*
X259959616Y-99450000D01*
X259959616Y-136450000D02*
X259959616Y-99450000D01*
X259959616Y-136450000D02*
X260546037Y-135323496D01*
X259959616Y-136450000D02*
X259373195Y-135323496D01*
X259959616Y-99450000D02*
X259373195Y-100576504D01*
X259959616Y-99450000D02*
X260546037Y-100576504D01*
D10*
X181360714Y-139627448D02*
X181360714Y-140627448D01*
X181003571Y-139056019D02*
X180646428Y-140127448D01*
X181575000Y-140127448D01*
X182860714Y-139127448D02*
X182146428Y-139127448D01*
X182075000Y-139841734D01*
X182146428Y-139770305D01*
X182289285Y-139698877D01*
X182646428Y-139698877D01*
X182789285Y-139770305D01*
X182860714Y-139841734D01*
X182932142Y-139984591D01*
X182932142Y-140341734D01*
X182860714Y-140484591D01*
X182789285Y-140556019D01*
X182646428Y-140627448D01*
X182289285Y-140627448D01*
X182146428Y-140556019D01*
X182075000Y-140484591D01*
X183575000Y-140484591D02*
X183646428Y-140556019D01*
X183575000Y-140627448D01*
X183503571Y-140556019D01*
X183575000Y-140484591D01*
X183575000Y-140627448D01*
X184217857Y-139270305D02*
X184289285Y-139198877D01*
X184432142Y-139127448D01*
X184789285Y-139127448D01*
X184932142Y-139198877D01*
X185003571Y-139270305D01*
X185075000Y-139413162D01*
X185075000Y-139556019D01*
X185003571Y-139770305D01*
X184146428Y-140627448D01*
X185075000Y-140627448D01*
X186432142Y-139127448D02*
X185717857Y-139127448D01*
X185646428Y-139841734D01*
X185717857Y-139770305D01*
X185860714Y-139698877D01*
X186217857Y-139698877D01*
X186360714Y-139770305D01*
X186432142Y-139841734D01*
X186503571Y-139984591D01*
X186503571Y-140341734D01*
X186432142Y-140484591D01*
X186360714Y-140556019D01*
X186217857Y-140627448D01*
X185860714Y-140627448D01*
X185717857Y-140556019D01*
X185646428Y-140484591D01*
X187432142Y-139127448D02*
X187575000Y-139127448D01*
X187717857Y-139198877D01*
X187789285Y-139270305D01*
X187860714Y-139413162D01*
X187932142Y-139698877D01*
X187932142Y-140056019D01*
X187860714Y-140341734D01*
X187789285Y-140484591D01*
X187717857Y-140556019D01*
X187575000Y-140627448D01*
X187432142Y-140627448D01*
X187289285Y-140556019D01*
X187217857Y-140484591D01*
X187146428Y-140341734D01*
X187075000Y-140056019D01*
X187075000Y-139698877D01*
X187146428Y-139413162D01*
X187217857Y-139270305D01*
X187289285Y-139198877D01*
X187432142Y-139127448D01*
X188860714Y-139127448D02*
X189003571Y-139127448D01*
X189146428Y-139198877D01*
X189217857Y-139270305D01*
X189289285Y-139413162D01*
X189360714Y-139698877D01*
X189360714Y-140056019D01*
X189289285Y-140341734D01*
X189217857Y-140484591D01*
X189146428Y-140556019D01*
X189003571Y-140627448D01*
X188860714Y-140627448D01*
X188717857Y-140556019D01*
X188646428Y-140484591D01*
X188575000Y-140341734D01*
X188503571Y-140056019D01*
X188503571Y-139698877D01*
X188575000Y-139413162D01*
X188646428Y-139270305D01*
X188717857Y-139198877D01*
X188860714Y-139127448D01*
X191146428Y-140627448D02*
X191146428Y-139627448D01*
X191146428Y-139770305D02*
X191217857Y-139698877D01*
X191360714Y-139627448D01*
X191575000Y-139627448D01*
X191717857Y-139698877D01*
X191789285Y-139841734D01*
X191789285Y-140627448D01*
X191789285Y-139841734D02*
X191860714Y-139698877D01*
X192003571Y-139627448D01*
X192217857Y-139627448D01*
X192360714Y-139698877D01*
X192432142Y-139841734D01*
X192432142Y-140627448D01*
X193146428Y-140627448D02*
X193146428Y-139627448D01*
X193146428Y-139770305D02*
X193217857Y-139698877D01*
X193360714Y-139627448D01*
X193575000Y-139627448D01*
X193717857Y-139698877D01*
X193789285Y-139841734D01*
X193789285Y-140627448D01*
X193789285Y-139841734D02*
X193860714Y-139698877D01*
X194003571Y-139627448D01*
X194217857Y-139627448D01*
X194360714Y-139698877D01*
X194432142Y-139841734D01*
X194432142Y-140627448D01*
D11*
X210200000Y-136950000D02*
X210200000Y-138735297D01*
X164950000Y-136950000D02*
X164950000Y-138735297D01*
X210200000Y-138148877D02*
X164950000Y-138148877D01*
X210200000Y-138148877D02*
X164950000Y-138148877D01*
X210200000Y-138148877D02*
X209073496Y-137562456D01*
X210200000Y-138148877D02*
X209073496Y-138735298D01*
X164950000Y-138148877D02*
X166076504Y-138735298D01*
X164950000Y-138148877D02*
X166076504Y-137562456D01*
D10*
X227985714Y-139627448D02*
X227985714Y-140627448D01*
X227628571Y-139056019D02*
X227271428Y-140127448D01*
X228200000Y-140127448D01*
X228985714Y-139770305D02*
X228842857Y-139698877D01*
X228771428Y-139627448D01*
X228700000Y-139484591D01*
X228700000Y-139413162D01*
X228771428Y-139270305D01*
X228842857Y-139198877D01*
X228985714Y-139127448D01*
X229271428Y-139127448D01*
X229414285Y-139198877D01*
X229485714Y-139270305D01*
X229557142Y-139413162D01*
X229557142Y-139484591D01*
X229485714Y-139627448D01*
X229414285Y-139698877D01*
X229271428Y-139770305D01*
X228985714Y-139770305D01*
X228842857Y-139841734D01*
X228771428Y-139913162D01*
X228700000Y-140056019D01*
X228700000Y-140341734D01*
X228771428Y-140484591D01*
X228842857Y-140556019D01*
X228985714Y-140627448D01*
X229271428Y-140627448D01*
X229414285Y-140556019D01*
X229485714Y-140484591D01*
X229557142Y-140341734D01*
X229557142Y-140056019D01*
X229485714Y-139913162D01*
X229414285Y-139841734D01*
X229271428Y-139770305D01*
X230200000Y-140484591D02*
X230271428Y-140556019D01*
X230200000Y-140627448D01*
X230128571Y-140556019D01*
X230200000Y-140484591D01*
X230200000Y-140627448D01*
X231200000Y-139127448D02*
X231342857Y-139127448D01*
X231485714Y-139198877D01*
X231557142Y-139270305D01*
X231628571Y-139413162D01*
X231700000Y-139698877D01*
X231700000Y-140056019D01*
X231628571Y-140341734D01*
X231557142Y-140484591D01*
X231485714Y-140556019D01*
X231342857Y-140627448D01*
X231200000Y-140627448D01*
X231057142Y-140556019D01*
X230985714Y-140484591D01*
X230914285Y-140341734D01*
X230842857Y-140056019D01*
X230842857Y-139698877D01*
X230914285Y-139413162D01*
X230985714Y-139270305D01*
X231057142Y-139198877D01*
X231200000Y-139127448D01*
X232628571Y-139127448D02*
X232771428Y-139127448D01*
X232914285Y-139198877D01*
X232985714Y-139270305D01*
X233057142Y-139413162D01*
X233128571Y-139698877D01*
X233128571Y-140056019D01*
X233057142Y-140341734D01*
X232985714Y-140484591D01*
X232914285Y-140556019D01*
X232771428Y-140627448D01*
X232628571Y-140627448D01*
X232485714Y-140556019D01*
X232414285Y-140484591D01*
X232342857Y-140341734D01*
X232271428Y-140056019D01*
X232271428Y-139698877D01*
X232342857Y-139413162D01*
X232414285Y-139270305D01*
X232485714Y-139198877D01*
X232628571Y-139127448D01*
X234057142Y-139127448D02*
X234200000Y-139127448D01*
X234342857Y-139198877D01*
X234414285Y-139270305D01*
X234485714Y-139413162D01*
X234557142Y-139698877D01*
X234557142Y-140056019D01*
X234485714Y-140341734D01*
X234414285Y-140484591D01*
X234342857Y-140556019D01*
X234200000Y-140627448D01*
X234057142Y-140627448D01*
X233914285Y-140556019D01*
X233842857Y-140484591D01*
X233771428Y-140341734D01*
X233700000Y-140056019D01*
X233700000Y-139698877D01*
X233771428Y-139413162D01*
X233842857Y-139270305D01*
X233914285Y-139198877D01*
X234057142Y-139127448D01*
X235485714Y-139127448D02*
X235628571Y-139127448D01*
X235771428Y-139198877D01*
X235842857Y-139270305D01*
X235914285Y-139413162D01*
X235985714Y-139698877D01*
X235985714Y-140056019D01*
X235914285Y-140341734D01*
X235842857Y-140484591D01*
X235771428Y-140556019D01*
X235628571Y-140627448D01*
X235485714Y-140627448D01*
X235342857Y-140556019D01*
X235271428Y-140484591D01*
X235200000Y-140341734D01*
X235128571Y-140056019D01*
X235128571Y-139698877D01*
X235200000Y-139413162D01*
X235271428Y-139270305D01*
X235342857Y-139198877D01*
X235485714Y-139127448D01*
X237771428Y-140627448D02*
X237771428Y-139627448D01*
X237771428Y-139770305D02*
X237842857Y-139698877D01*
X237985714Y-139627448D01*
X238200000Y-139627448D01*
X238342857Y-139698877D01*
X238414285Y-139841734D01*
X238414285Y-140627448D01*
X238414285Y-139841734D02*
X238485714Y-139698877D01*
X238628571Y-139627448D01*
X238842857Y-139627448D01*
X238985714Y-139698877D01*
X239057142Y-139841734D01*
X239057142Y-140627448D01*
X239771428Y-140627448D02*
X239771428Y-139627448D01*
X239771428Y-139770305D02*
X239842857Y-139698877D01*
X239985714Y-139627448D01*
X240200000Y-139627448D01*
X240342857Y-139698877D01*
X240414285Y-139841734D01*
X240414285Y-140627448D01*
X240414285Y-139841734D02*
X240485714Y-139698877D01*
X240628571Y-139627448D01*
X240842857Y-139627448D01*
X240985714Y-139698877D01*
X241057142Y-139841734D01*
X241057142Y-140627448D01*
D11*
X258200000Y-136950000D02*
X258200000Y-138735297D01*
X210200000Y-136950000D02*
X210200000Y-138735297D01*
X258200000Y-138148877D02*
X210200000Y-138148877D01*
X258200000Y-138148877D02*
X210200000Y-138148877D01*
X258200000Y-138148877D02*
X257073496Y-137562456D01*
X258200000Y-138148877D02*
X257073496Y-138735298D01*
X210200000Y-138148877D02*
X211326504Y-138735298D01*
X210200000Y-138148877D02*
X211326504Y-137562456D01*
D10*
X262581044Y-76950000D02*
X262581044Y-77878571D01*
X262009616Y-77378571D01*
X262009616Y-77592857D01*
X261938187Y-77735714D01*
X261866758Y-77807142D01*
X261723901Y-77878571D01*
X261366758Y-77878571D01*
X261223901Y-77807142D01*
X261152473Y-77735714D01*
X261081044Y-77592857D01*
X261081044Y-77164285D01*
X261152473Y-77021428D01*
X261223901Y-76950000D01*
X261081044Y-79307142D02*
X261081044Y-78450000D01*
X261081044Y-78878571D02*
X262581044Y-78878571D01*
X262366758Y-78735714D01*
X262223901Y-78592857D01*
X262152473Y-78450000D01*
X261223901Y-79950000D02*
X261152473Y-80021428D01*
X261081044Y-79950000D01*
X261152473Y-79878571D01*
X261223901Y-79950000D01*
X261081044Y-79950000D01*
X262581044Y-80950000D02*
X262581044Y-81092857D01*
X262509616Y-81235714D01*
X262438187Y-81307142D01*
X262295330Y-81378571D01*
X262009616Y-81450000D01*
X261652473Y-81450000D01*
X261366758Y-81378571D01*
X261223901Y-81307142D01*
X261152473Y-81235714D01*
X261081044Y-81092857D01*
X261081044Y-80950000D01*
X261152473Y-80807142D01*
X261223901Y-80735714D01*
X261366758Y-80664285D01*
X261652473Y-80592857D01*
X262009616Y-80592857D01*
X262295330Y-80664285D01*
X262438187Y-80735714D01*
X262509616Y-80807142D01*
X262581044Y-80950000D01*
X262581044Y-82378571D02*
X262581044Y-82521428D01*
X262509616Y-82664285D01*
X262438187Y-82735714D01*
X262295330Y-82807142D01*
X262009616Y-82878571D01*
X261652473Y-82878571D01*
X261366758Y-82807142D01*
X261223901Y-82735714D01*
X261152473Y-82664285D01*
X261081044Y-82521428D01*
X261081044Y-82378571D01*
X261152473Y-82235714D01*
X261223901Y-82164285D01*
X261366758Y-82092857D01*
X261652473Y-82021428D01*
X262009616Y-82021428D01*
X262295330Y-82092857D01*
X262438187Y-82164285D01*
X262509616Y-82235714D01*
X262581044Y-82378571D01*
X262581044Y-83807142D02*
X262581044Y-83950000D01*
X262509616Y-84092857D01*
X262438187Y-84164285D01*
X262295330Y-84235714D01*
X262009616Y-84307142D01*
X261652473Y-84307142D01*
X261366758Y-84235714D01*
X261223901Y-84164285D01*
X261152473Y-84092857D01*
X261081044Y-83950000D01*
X261081044Y-83807142D01*
X261152473Y-83664285D01*
X261223901Y-83592857D01*
X261366758Y-83521428D01*
X261652473Y-83450000D01*
X262009616Y-83450000D01*
X262295330Y-83521428D01*
X262438187Y-83592857D01*
X262509616Y-83664285D01*
X262581044Y-83807142D01*
X262581044Y-85235714D02*
X262581044Y-85378571D01*
X262509616Y-85521428D01*
X262438187Y-85592857D01*
X262295330Y-85664285D01*
X262009616Y-85735714D01*
X261652473Y-85735714D01*
X261366758Y-85664285D01*
X261223901Y-85592857D01*
X261152473Y-85521428D01*
X261081044Y-85378571D01*
X261081044Y-85235714D01*
X261152473Y-85092857D01*
X261223901Y-85021428D01*
X261366758Y-84950000D01*
X261652473Y-84878571D01*
X262009616Y-84878571D01*
X262295330Y-84950000D01*
X262438187Y-85021428D01*
X262509616Y-85092857D01*
X262581044Y-85235714D01*
X261081044Y-87521428D02*
X262081044Y-87521428D01*
X261938187Y-87521428D02*
X262009616Y-87592857D01*
X262081044Y-87735714D01*
X262081044Y-87950000D01*
X262009616Y-88092857D01*
X261866758Y-88164285D01*
X261081044Y-88164285D01*
X261866758Y-88164285D02*
X262009616Y-88235714D01*
X262081044Y-88378571D01*
X262081044Y-88592857D01*
X262009616Y-88735714D01*
X261866758Y-88807142D01*
X261081044Y-88807142D01*
X261081044Y-89521428D02*
X262081044Y-89521428D01*
X261938187Y-89521428D02*
X262009616Y-89592857D01*
X262081044Y-89735714D01*
X262081044Y-89950000D01*
X262009616Y-90092857D01*
X261866758Y-90164285D01*
X261081044Y-90164285D01*
X261866758Y-90164285D02*
X262009616Y-90235714D01*
X262081044Y-90378571D01*
X262081044Y-90592857D01*
X262009616Y-90735714D01*
X261866758Y-90807142D01*
X261081044Y-90807142D01*
D11*
X258700000Y-68450000D02*
X260546036Y-68450000D01*
X258700000Y-99450000D02*
X260546036Y-99450000D01*
X259959616Y-68450000D02*
X259959616Y-99450000D01*
X259959616Y-68450000D02*
X259959616Y-99450000D01*
X259959616Y-68450000D02*
X259373195Y-69576504D01*
X259959616Y-68450000D02*
X260546037Y-69576504D01*
X259959616Y-99450000D02*
X260546037Y-98323496D01*
X259959616Y-99450000D02*
X259373195Y-98323496D01*
D12*
%TO.P,J2,1,Pin_1*%
%TO.N,+5V*%
X207600000Y-72800000D03*
D13*
%TO.P,J2,2,Pin_2*%
%TO.N,GND*%
X210140000Y-72800000D03*
%TO.P,J2,3,Pin_3*%
%TO.N,Net-(J11-Pad3)*%
X212680000Y-72800000D03*
%TO.P,J2,4,Pin_4*%
%TO.N,Net-(J11-Pad2)*%
X215220000Y-72800000D03*
%TD*%
D12*
%TO.P,J1,1,Pin_1*%
%TO.N,+5V*%
X227050000Y-133125000D03*
D13*
%TO.P,J1,2,Pin_2*%
%TO.N,GND*%
X227050000Y-130585000D03*
%TD*%
D12*
%TO.P,J8,1,Pin_1*%
%TO.N,Net-(J11-Pad11)*%
X220200000Y-88450000D03*
D13*
%TO.P,J8,2,Pin_2*%
%TO.N,Net-(J11-Pad10)*%
X220200000Y-90990000D03*
%TO.P,J8,3,Pin_3*%
%TO.N,Net-(J11-Pad9)*%
X220200000Y-93530000D03*
%TO.P,J8,4,Pin_4*%
%TO.N,Net-(J11-Pad8)*%
X220200000Y-96070000D03*
%TD*%
D12*
%TO.P,J6,1,Pin_1*%
%TO.N,Net-(J10-Pad13)*%
X220200000Y-80400000D03*
D13*
%TO.P,J6,2,Pin_2*%
%TO.N,Net-(J11-Pad1)*%
X220200000Y-82940000D03*
%TD*%
D12*
%TO.P,J10,1,Pin_1*%
%TO.N,N/C*%
X253250000Y-113920000D03*
D13*
%TO.P,J10,2,Pin_2*%
X253250000Y-111380000D03*
%TO.P,J10,3,Pin_3*%
X253250000Y-108840000D03*
%TO.P,J10,4,Pin_4*%
X253250000Y-106300000D03*
%TO.P,J10,5,Pin_5*%
X253250000Y-103760000D03*
%TO.P,J10,6,Pin_6*%
X253250000Y-101220000D03*
%TO.P,J10,7,Pin_7*%
X253250000Y-98680000D03*
%TO.P,J10,8,Pin_8*%
X253250000Y-96140000D03*
%TO.P,J10,9,Pin_9*%
X253250000Y-93600000D03*
%TO.P,J10,10,Pin_10*%
X253250000Y-91060000D03*
%TO.P,J10,11,Pin_11*%
%TO.N,+3V3*%
X253250000Y-88520000D03*
%TO.P,J10,12,Pin_12*%
%TO.N,N/C*%
X253250000Y-85980000D03*
%TO.P,J10,13,Pin_13*%
%TO.N,Net-(J10-Pad13)*%
X253250000Y-83440000D03*
%TO.P,J10,14,Pin_14*%
%TO.N,GND*%
X253250000Y-80900000D03*
%TO.P,J10,15,Pin_15*%
%TO.N,+5V*%
X253250000Y-78360000D03*
%TD*%
D12*
%TO.P,J5,1,Pin_1*%
%TO.N,+3V3*%
X219100000Y-117800000D03*
D13*
%TO.P,J5,2,Pin_2*%
X216560000Y-117800000D03*
%TO.P,J5,3,Pin_3*%
%TO.N,+5V*%
X219100000Y-115260000D03*
%TO.P,J5,4,Pin_4*%
X216560000Y-115260000D03*
%TO.P,J5,5,Pin_5*%
%TO.N,GND*%
X219100000Y-112720000D03*
%TO.P,J5,6,Pin_6*%
X216560000Y-112720000D03*
%TO.P,J5,7,Pin_7*%
X219100000Y-110180000D03*
%TO.P,J5,8,Pin_8*%
X216560000Y-110180000D03*
%TD*%
D12*
%TO.P,J11,1,Pin_1*%
%TO.N,Net-(J11-Pad1)*%
X225310000Y-113920000D03*
D13*
%TO.P,J11,2,Pin_2*%
%TO.N,Net-(J11-Pad2)*%
X225310000Y-111380000D03*
%TO.P,J11,3,Pin_3*%
%TO.N,Net-(J11-Pad3)*%
X225310000Y-108840000D03*
%TO.P,J11,4,Pin_4*%
%TO.N,Net-(J11-Pad4)*%
X225310000Y-106300000D03*
%TO.P,J11,5,Pin_5*%
%TO.N,Net-(J11-Pad5)*%
X225310000Y-103760000D03*
%TO.P,J11,6,Pin_6*%
%TO.N,Net-(J11-Pad6)*%
X225310000Y-101220000D03*
%TO.P,J11,7,Pin_7*%
%TO.N,Net-(J11-Pad7)*%
X225310000Y-98680000D03*
%TO.P,J11,8,Pin_8*%
%TO.N,Net-(J11-Pad8)*%
X225310000Y-96140000D03*
%TO.P,J11,9,Pin_9*%
%TO.N,Net-(J11-Pad9)*%
X225310000Y-93600000D03*
%TO.P,J11,10,Pin_10*%
%TO.N,Net-(J11-Pad10)*%
X225310000Y-91060000D03*
%TO.P,J11,11,Pin_11*%
%TO.N,Net-(J11-Pad11)*%
X225310000Y-88520000D03*
%TO.P,J11,12,Pin_12*%
%TO.N,N/C*%
X225310000Y-85980000D03*
%TO.P,J11,13,Pin_13*%
X225310000Y-83440000D03*
%TO.P,J11,14,Pin_14*%
X225310000Y-80900000D03*
%TO.P,J11,15,Pin_15*%
X225310000Y-78360000D03*
%TD*%
D12*
%TO.P,J4,1,Pin_1*%
%TO.N,GND*%
X243725000Y-122800000D03*
D13*
%TO.P,J4,2,Pin_2*%
%TO.N,N/C*%
X246265000Y-122800000D03*
%TO.P,J4,3,Pin_3*%
X248805000Y-122800000D03*
%TO.P,J4,4,Pin_4*%
X251345000Y-122800000D03*
%TO.P,J4,5,Pin_5*%
%TO.N,+5V*%
X253885000Y-122800000D03*
%TD*%
D12*
%TO.P,J3,1,Pin_1*%
%TO.N,Net-(J11-Pad4)*%
X185000000Y-77700000D03*
D13*
%TO.P,J3,2,Pin_2*%
%TO.N,Net-(J11-Pad5)*%
X185000000Y-80240000D03*
%TO.P,J3,3,Pin_3*%
%TO.N,Net-(J11-Pad7)*%
X185000000Y-82780000D03*
%TO.P,J3,4,Pin_4*%
%TO.N,Net-(J11-Pad6)*%
X185000000Y-85320000D03*
%TD*%
D14*
%TO.N,Net-(J11-Pad2)*%
X215950000Y-93100000D03*
X217250000Y-89700000D03*
%TO.N,GND*%
X224050000Y-130550000D03*
X222000000Y-115050000D03*
%TO.N,Net-(J11-Pad5)*%
X221850000Y-102400000D03*
X211220000Y-94710000D03*
%TO.N,Net-(J11-Pad4)*%
X222700000Y-106000000D03*
X211147565Y-93401308D03*
%TO.N,Net-(J11-Pad6)*%
X218490000Y-102500000D03*
X211250000Y-97720000D03*
%TO.N,Net-(J11-Pad7)*%
X211220000Y-96250000D03*
X218431636Y-101448364D03*
%TD*%
D15*
%TO.N,Net-(J11-Pad2)*%
X217250000Y-89700000D02*
X217300000Y-89650000D01*
X217300000Y-74880000D02*
X215220000Y-72800000D01*
X215950000Y-93100000D02*
X215950000Y-103150000D01*
X224180000Y-111380000D02*
X225310000Y-111380000D01*
X215950000Y-103150000D02*
X224180000Y-111380000D01*
X217300000Y-89650000D02*
X217300000Y-74880000D01*
%TO.N,Net-(J11-Pad3)*%
X216100000Y-91150000D02*
X217100000Y-92150000D01*
X223490000Y-108840000D02*
X225310000Y-108840000D01*
X212680000Y-72800000D02*
X216100000Y-76220000D01*
X217100000Y-102450000D02*
X223490000Y-108840000D01*
X217100000Y-92150000D02*
X217100000Y-102450000D01*
X216100000Y-76220000D02*
X216100000Y-91150000D01*
%TO.N,+5V*%
X215225000Y-133125000D02*
X227050000Y-133125000D01*
X214060000Y-115260000D02*
X214050000Y-115250000D01*
X214050000Y-115250000D02*
X214050000Y-131950000D01*
X253885000Y-122800000D02*
X253885000Y-128065000D01*
X214050000Y-131950000D02*
X215225000Y-133125000D01*
X207600000Y-79903380D02*
X214050000Y-86353380D01*
X207600000Y-72800000D02*
X210550000Y-69850000D01*
X216560000Y-115260000D02*
X214060000Y-115260000D01*
X219100000Y-115260000D02*
X216560000Y-115260000D01*
X253885000Y-128065000D02*
X248825000Y-133125000D01*
X210550000Y-69850000D02*
X241600000Y-69850000D01*
X214050000Y-86353380D02*
X214050000Y-115250000D01*
X248825000Y-133125000D02*
X227050000Y-133125000D01*
X241600000Y-69850000D02*
X250110000Y-78360000D01*
X207600000Y-72800000D02*
X207600000Y-79903380D01*
X250110000Y-78360000D02*
X253250000Y-78360000D01*
%TO.N,GND*%
X241925000Y-129650000D02*
X227985000Y-129650000D01*
X210140000Y-78740000D02*
X214850000Y-83450000D01*
X212390000Y-70550000D02*
X240600000Y-70550000D01*
X219100000Y-112720000D02*
X221291017Y-112720000D01*
X219100000Y-110180000D02*
X216560000Y-110180000D01*
X219100000Y-112720000D02*
X219100000Y-110180000D01*
X216560000Y-110180000D02*
X216560000Y-112720000D01*
X214850000Y-108470000D02*
X216560000Y-110180000D01*
X214850000Y-83450000D02*
X214850000Y-108470000D01*
X221291017Y-112720000D02*
X222000000Y-113428983D01*
X210140000Y-72800000D02*
X212390000Y-70550000D01*
X222000000Y-113428983D02*
X222000000Y-114050000D01*
X227015000Y-130550000D02*
X227050000Y-130585000D01*
X224050000Y-130550000D02*
X227015000Y-130550000D01*
X241925000Y-129650000D02*
X243725000Y-127850000D01*
X216560000Y-112720000D02*
X219100000Y-112720000D01*
X250950000Y-80900000D02*
X253250000Y-80900000D01*
X210140000Y-72800000D02*
X210140000Y-78740000D01*
X227985000Y-129650000D02*
X227050000Y-130585000D01*
X222000000Y-114050000D02*
X222000000Y-115050000D01*
X240600000Y-70550000D02*
X250950000Y-80900000D01*
X243725000Y-127850000D02*
X243725000Y-122800000D01*
%TO.N,+3V3*%
X216560000Y-117800000D02*
X219100000Y-117800000D01*
X244850000Y-102700000D02*
X229750000Y-117800000D01*
X253250000Y-88520000D02*
X250980000Y-88520000D01*
X250980000Y-88520000D02*
X244850000Y-94650000D01*
X229750000Y-117800000D02*
X219100000Y-117800000D01*
X244850000Y-94650000D02*
X244850000Y-102700000D01*
%TO.N,Net-(J11-Pad8)*%
X225240000Y-96070000D02*
X225310000Y-96140000D01*
X220200000Y-96070000D02*
X225240000Y-96070000D01*
%TO.N,Net-(J11-Pad9)*%
X220270000Y-93600000D02*
X220200000Y-93530000D01*
X225310000Y-93600000D02*
X220270000Y-93600000D01*
%TO.N,Net-(J11-Pad10)*%
X220200000Y-90990000D02*
X225240000Y-90990000D01*
X225240000Y-90990000D02*
X225310000Y-91060000D01*
%TO.N,Net-(J11-Pad11)*%
X225310000Y-88520000D02*
X220270000Y-88520000D01*
X220270000Y-88520000D02*
X220200000Y-88450000D01*
%TO.N,Net-(J11-Pad5)*%
X223210000Y-103760000D02*
X221850000Y-102400000D01*
X211220000Y-94710000D02*
X211180000Y-94750000D01*
X225310000Y-103760000D02*
X223210000Y-103760000D01*
X189100000Y-80600000D02*
X185050000Y-80600000D01*
X211180000Y-94750000D02*
X203250000Y-94750000D01*
X203250000Y-94750000D02*
X189100000Y-80600000D01*
%TO.N,Net-(J11-Pad4)*%
X204601308Y-93401308D02*
X188900000Y-77700000D01*
X211147565Y-93401308D02*
X204601308Y-93401308D01*
X188900000Y-77700000D02*
X185000000Y-77700000D01*
X225310000Y-106300000D02*
X223000000Y-106300000D01*
X223000000Y-106300000D02*
X222700000Y-106000000D01*
%TO.N,Net-(J11-Pad6)*%
X221480000Y-101220000D02*
X225310000Y-101220000D01*
X218490000Y-102500000D02*
X220200000Y-102500000D01*
X220200000Y-102500000D02*
X221480000Y-101220000D01*
X211250000Y-97720000D02*
X200550000Y-97720000D01*
X200550000Y-97720000D02*
X188150000Y-85320000D01*
X188150000Y-85320000D02*
X185000000Y-85320000D01*
%TO.N,Net-(J11-Pad7)*%
X218431636Y-101448364D02*
X218491636Y-101448364D01*
X218491636Y-101448364D02*
X221260000Y-98680000D01*
X221260000Y-98680000D02*
X225310000Y-98680000D01*
X188440000Y-82780000D02*
X185000000Y-82780000D01*
X211220000Y-96250000D02*
X201910000Y-96250000D01*
X201910000Y-96250000D02*
X188440000Y-82780000D01*
%TO.N,Net-(J11-Pad1)*%
X227380000Y-75390000D02*
X223790000Y-75390000D01*
X228550000Y-76560000D02*
X227380000Y-75390000D01*
X222560000Y-82050000D02*
X221670000Y-82940000D01*
X222560000Y-76620000D02*
X222560000Y-82050000D01*
X221670000Y-82940000D02*
X220200000Y-82940000D01*
X228550000Y-110680000D02*
X228550000Y-76560000D01*
X225310000Y-113920000D02*
X228550000Y-110680000D01*
X223790000Y-75390000D02*
X222560000Y-76620000D01*
%TO.N,Net-(J10-Pad13)*%
X220200000Y-75870000D02*
X220200000Y-80400000D01*
X228100000Y-73980000D02*
X222090000Y-73980000D01*
X222090000Y-73980000D02*
X220200000Y-75870000D01*
X237560000Y-83440000D02*
X228100000Y-73980000D01*
X253250000Y-83440000D02*
X237560000Y-83440000D01*
%TD*%
%TA.AperFunction,NonConductor*%
G36*
X257842121Y-68770002D02*
G01*
X257888614Y-68823658D01*
X257900000Y-68876000D01*
X257900000Y-136024000D01*
X257879998Y-136092121D01*
X257826342Y-136138614D01*
X257774000Y-136150000D01*
X213051000Y-136150000D01*
X212982879Y-136129998D01*
X212936386Y-136076342D01*
X212925000Y-136024000D01*
X212925000Y-99475000D01*
X165376000Y-99475000D01*
X165307879Y-99454998D01*
X165261386Y-99401342D01*
X165250000Y-99349000D01*
X165250000Y-76850000D01*
X183844500Y-76850000D01*
X183844500Y-78550000D01*
X183844567Y-78551441D01*
X183844567Y-78551458D01*
X183845219Y-78565558D01*
X183845803Y-78578188D01*
X183876528Y-78686173D01*
X183944186Y-78775767D01*
X184039641Y-78834870D01*
X184051113Y-78837014D01*
X184051114Y-78837015D01*
X184144275Y-78854430D01*
X184144277Y-78854430D01*
X184150000Y-78855500D01*
X184785473Y-78855500D01*
X184853594Y-78875502D01*
X184900087Y-78929158D01*
X184910191Y-78999432D01*
X184880697Y-79064012D01*
X184820971Y-79102396D01*
X184806811Y-79105680D01*
X184732204Y-79118500D01*
X184700935Y-79123873D01*
X184502544Y-79197063D01*
X184497583Y-79200015D01*
X184497582Y-79200015D01*
X184374346Y-79273333D01*
X184320814Y-79305181D01*
X184161830Y-79444606D01*
X184030916Y-79610670D01*
X183932457Y-79797809D01*
X183869750Y-79999758D01*
X183844896Y-80209753D01*
X183858726Y-80420760D01*
X183910778Y-80625714D01*
X183999308Y-80817750D01*
X184121351Y-80990437D01*
X184272820Y-81137992D01*
X184277616Y-81141197D01*
X184277619Y-81141199D01*
X184320343Y-81169746D01*
X184448643Y-81255473D01*
X184453946Y-81257751D01*
X184453949Y-81257753D01*
X184530845Y-81290790D01*
X184642931Y-81338946D01*
X184849177Y-81385615D01*
X184854950Y-81385842D01*
X184860299Y-81386546D01*
X184925227Y-81415268D01*
X184964319Y-81474532D01*
X184965164Y-81545524D01*
X184927495Y-81605703D01*
X184865192Y-81635648D01*
X184706632Y-81662894D01*
X184700935Y-81663873D01*
X184502544Y-81737063D01*
X184497583Y-81740015D01*
X184497582Y-81740015D01*
X184356630Y-81823873D01*
X184320814Y-81845181D01*
X184161830Y-81984606D01*
X184030916Y-82150670D01*
X184028227Y-82155781D01*
X184028225Y-82155784D01*
X184022419Y-82166820D01*
X183932457Y-82337809D01*
X183869750Y-82539758D01*
X183844896Y-82749753D01*
X183858726Y-82960760D01*
X183910778Y-83165714D01*
X183999308Y-83357750D01*
X184121351Y-83530437D01*
X184272820Y-83677992D01*
X184277616Y-83681197D01*
X184277619Y-83681199D01*
X184362917Y-83738193D01*
X184448643Y-83795473D01*
X184453946Y-83797751D01*
X184453949Y-83797753D01*
X184582603Y-83853027D01*
X184642931Y-83878946D01*
X184849177Y-83925615D01*
X184854950Y-83925842D01*
X184860299Y-83926546D01*
X184925227Y-83955268D01*
X184964319Y-84014532D01*
X184965164Y-84085524D01*
X184927495Y-84145703D01*
X184865192Y-84175648D01*
X184706632Y-84202894D01*
X184700935Y-84203873D01*
X184502544Y-84277063D01*
X184497583Y-84280015D01*
X184497582Y-84280015D01*
X184400132Y-84337992D01*
X184320814Y-84385181D01*
X184161830Y-84524606D01*
X184030916Y-84690670D01*
X183932457Y-84877809D01*
X183869750Y-85079758D01*
X183844896Y-85289753D01*
X183858726Y-85500760D01*
X183910778Y-85705714D01*
X183999308Y-85897750D01*
X184121351Y-86070437D01*
X184125485Y-86074464D01*
X184227563Y-86173904D01*
X184272820Y-86217992D01*
X184277616Y-86221197D01*
X184277619Y-86221199D01*
X184320343Y-86249746D01*
X184448643Y-86335473D01*
X184453946Y-86337751D01*
X184453949Y-86337753D01*
X184637624Y-86416666D01*
X184642931Y-86418946D01*
X184849177Y-86465615D01*
X184854946Y-86465842D01*
X184854949Y-86465842D01*
X184935242Y-86468996D01*
X185060474Y-86473916D01*
X185148693Y-86461125D01*
X185264032Y-86444402D01*
X185264037Y-86444401D01*
X185269746Y-86443573D01*
X185275210Y-86441718D01*
X185275215Y-86441717D01*
X185464512Y-86377460D01*
X185464517Y-86377458D01*
X185469984Y-86375602D01*
X185487641Y-86365714D01*
X185547371Y-86332263D01*
X185654482Y-86272278D01*
X185817062Y-86137062D01*
X185952278Y-85974482D01*
X186016428Y-85859934D01*
X186067164Y-85810272D01*
X186126362Y-85795500D01*
X187900852Y-85795500D01*
X187968973Y-85815502D01*
X187989947Y-85832405D01*
X194081961Y-91924420D01*
X200165779Y-98008238D01*
X200173059Y-98017348D01*
X200173474Y-98016995D01*
X200179290Y-98023829D01*
X200184081Y-98031422D01*
X200190809Y-98037364D01*
X200190810Y-98037365D01*
X200222946Y-98065746D01*
X200228634Y-98071093D01*
X200238457Y-98080916D01*
X200243749Y-98084882D01*
X200245407Y-98086125D01*
X200253247Y-98092507D01*
X200279468Y-98115664D01*
X200286195Y-98121605D01*
X200294319Y-98125419D01*
X200299632Y-98128909D01*
X200306496Y-98133033D01*
X200312070Y-98136085D01*
X200319253Y-98141468D01*
X200360407Y-98156896D01*
X200369718Y-98160820D01*
X200401388Y-98175689D01*
X200401392Y-98175690D01*
X200409515Y-98179504D01*
X200418385Y-98180885D01*
X200424439Y-98182736D01*
X200432203Y-98184773D01*
X200438412Y-98186138D01*
X200446820Y-98189290D01*
X200490653Y-98192547D01*
X200500699Y-98193702D01*
X200507428Y-98194750D01*
X200507437Y-98194751D01*
X200512249Y-98195500D01*
X200525710Y-98195500D01*
X200535048Y-98195847D01*
X200573730Y-98198722D01*
X200573732Y-98198722D01*
X200582681Y-98199387D01*
X200591456Y-98197514D01*
X200600418Y-98196903D01*
X200600421Y-98196953D01*
X200614190Y-98195500D01*
X210683142Y-98195500D01*
X210751263Y-98215502D01*
X210767941Y-98228306D01*
X210798095Y-98255744D01*
X210841317Y-98295073D01*
X210990288Y-98375957D01*
X211154253Y-98418973D01*
X211242481Y-98420359D01*
X211316147Y-98421516D01*
X211316150Y-98421516D01*
X211323745Y-98421635D01*
X211382841Y-98408100D01*
X211481577Y-98385487D01*
X211481581Y-98385486D01*
X211488980Y-98383791D01*
X211640418Y-98307626D01*
X211747620Y-98216066D01*
X211763544Y-98202466D01*
X211763545Y-98202465D01*
X211769316Y-98197536D01*
X211868234Y-98059877D01*
X211931461Y-97902597D01*
X211953864Y-97745181D01*
X211954764Y-97738859D01*
X211954764Y-97738856D01*
X211955345Y-97734775D01*
X211955500Y-97720000D01*
X211947455Y-97653523D01*
X211936048Y-97559258D01*
X211936048Y-97559257D01*
X211935135Y-97551715D01*
X211875217Y-97393145D01*
X211870918Y-97386890D01*
X211870916Y-97386886D01*
X211783505Y-97259703D01*
X211783504Y-97259701D01*
X211779203Y-97253444D01*
X211769165Y-97244500D01*
X211736745Y-97215615D01*
X211652638Y-97140679D01*
X211554278Y-97088600D01*
X211503435Y-97039047D01*
X211487454Y-96969873D01*
X211511408Y-96903039D01*
X211556625Y-96864681D01*
X211603632Y-96841040D01*
X211603638Y-96841036D01*
X211610418Y-96837626D01*
X211739316Y-96727536D01*
X211838234Y-96589877D01*
X211858993Y-96538238D01*
X211898626Y-96439650D01*
X211898627Y-96439648D01*
X211901461Y-96432597D01*
X211925345Y-96264775D01*
X211925500Y-96250000D01*
X211905135Y-96081715D01*
X211845217Y-95923145D01*
X211840918Y-95916890D01*
X211840916Y-95916886D01*
X211753505Y-95789703D01*
X211753504Y-95789701D01*
X211749203Y-95783444D01*
X211739165Y-95774500D01*
X211690863Y-95731465D01*
X211622638Y-95670679D01*
X211472829Y-95591359D01*
X211474149Y-95588866D01*
X211428200Y-95553799D01*
X211404008Y-95487051D01*
X211419743Y-95417820D01*
X211473151Y-95366664D01*
X211603634Y-95301038D01*
X211610418Y-95297626D01*
X211702136Y-95219291D01*
X211733544Y-95192466D01*
X211733545Y-95192465D01*
X211739316Y-95187536D01*
X211838234Y-95049877D01*
X211845387Y-95032084D01*
X211898626Y-94899650D01*
X211898627Y-94899648D01*
X211901461Y-94892597D01*
X211909725Y-94834532D01*
X211924764Y-94728859D01*
X211924764Y-94728856D01*
X211925345Y-94724775D01*
X211925500Y-94710000D01*
X211918772Y-94654402D01*
X211906048Y-94549258D01*
X211906048Y-94549257D01*
X211905135Y-94541715D01*
X211900205Y-94528668D01*
X211847902Y-94390250D01*
X211847901Y-94390248D01*
X211845217Y-94383145D01*
X211840918Y-94376890D01*
X211840916Y-94376886D01*
X211753505Y-94249703D01*
X211753504Y-94249701D01*
X211749203Y-94243444D01*
X211622638Y-94130679D01*
X211617407Y-94127909D01*
X211573334Y-94073165D01*
X211565777Y-94002571D01*
X211597586Y-93939099D01*
X211607934Y-93929190D01*
X211661109Y-93883774D01*
X211661110Y-93883773D01*
X211666881Y-93878844D01*
X211765799Y-93741185D01*
X211786558Y-93689546D01*
X211826191Y-93590958D01*
X211826192Y-93590956D01*
X211829026Y-93583905D01*
X211852910Y-93416083D01*
X211853065Y-93401308D01*
X211848037Y-93359758D01*
X211833613Y-93240566D01*
X211833613Y-93240565D01*
X211832700Y-93233023D01*
X211804279Y-93157809D01*
X211775467Y-93081558D01*
X211775466Y-93081556D01*
X211772782Y-93074453D01*
X211768483Y-93068198D01*
X211768481Y-93068194D01*
X211681070Y-92941011D01*
X211681069Y-92941009D01*
X211676768Y-92934752D01*
X211666730Y-92925808D01*
X211555874Y-92827040D01*
X211550203Y-92821987D01*
X211400394Y-92742667D01*
X211235988Y-92701371D01*
X211228390Y-92701331D01*
X211228388Y-92701331D01*
X211155357Y-92700949D01*
X211066477Y-92700484D01*
X211059098Y-92702256D01*
X211059094Y-92702256D01*
X210909026Y-92738284D01*
X210909022Y-92738285D01*
X210901647Y-92740056D01*
X210751015Y-92817803D01*
X210745293Y-92822795D01*
X210745291Y-92822796D01*
X210740426Y-92827040D01*
X210669512Y-92888903D01*
X210662801Y-92894757D01*
X210598319Y-92924465D01*
X210579972Y-92925808D01*
X204850456Y-92925808D01*
X204782335Y-92905806D01*
X204761361Y-92888903D01*
X189284221Y-77411762D01*
X189276941Y-77402652D01*
X189276526Y-77403005D01*
X189270710Y-77396171D01*
X189265919Y-77388578D01*
X189227053Y-77354253D01*
X189221366Y-77348907D01*
X189211543Y-77339084D01*
X189206251Y-77335118D01*
X189204593Y-77333875D01*
X189196753Y-77327493D01*
X189170532Y-77304336D01*
X189163805Y-77298395D01*
X189155681Y-77294581D01*
X189150368Y-77291091D01*
X189143504Y-77286967D01*
X189137930Y-77283915D01*
X189130747Y-77278532D01*
X189089598Y-77263106D01*
X189080278Y-77259179D01*
X189062766Y-77250957D01*
X189040485Y-77240496D01*
X189031614Y-77239115D01*
X189025528Y-77237254D01*
X189017792Y-77235225D01*
X189011587Y-77233861D01*
X189003180Y-77230709D01*
X188979959Y-77228984D01*
X188959337Y-77227451D01*
X188949292Y-77226297D01*
X188946247Y-77225823D01*
X188937751Y-77224500D01*
X188924307Y-77224500D01*
X188914970Y-77224154D01*
X188900746Y-77223097D01*
X188867319Y-77220613D01*
X188858543Y-77222486D01*
X188849586Y-77223097D01*
X188849583Y-77223046D01*
X188835810Y-77224500D01*
X186281500Y-77224500D01*
X186213379Y-77204498D01*
X186166886Y-77150842D01*
X186155500Y-77098500D01*
X186155500Y-76850000D01*
X186155236Y-76844275D01*
X186154533Y-76829084D01*
X186154197Y-76821812D01*
X186123472Y-76713827D01*
X186055814Y-76624233D01*
X185960359Y-76565130D01*
X185948887Y-76562986D01*
X185948886Y-76562985D01*
X185855725Y-76545570D01*
X185855723Y-76545570D01*
X185850000Y-76544500D01*
X184150000Y-76544500D01*
X184148559Y-76544567D01*
X184148542Y-76544567D01*
X184134442Y-76545219D01*
X184121812Y-76545803D01*
X184013827Y-76576528D01*
X183924233Y-76644186D01*
X183865130Y-76739641D01*
X183862986Y-76751113D01*
X183862985Y-76751114D01*
X183849769Y-76821812D01*
X183844500Y-76850000D01*
X165250000Y-76850000D01*
X165250000Y-71950000D01*
X206444500Y-71950000D01*
X206444500Y-73650000D01*
X206444567Y-73651441D01*
X206444567Y-73651458D01*
X206444882Y-73658267D01*
X206445803Y-73678188D01*
X206476528Y-73786173D01*
X206544186Y-73875767D01*
X206639641Y-73934870D01*
X206651113Y-73937014D01*
X206651114Y-73937015D01*
X206744275Y-73954430D01*
X206744277Y-73954430D01*
X206750000Y-73955500D01*
X206998500Y-73955500D01*
X207066621Y-73975502D01*
X207113114Y-74029158D01*
X207124500Y-74081500D01*
X207124500Y-79835513D01*
X207123206Y-79847099D01*
X207123749Y-79847143D01*
X207123029Y-79856089D01*
X207121048Y-79864845D01*
X207121604Y-79873805D01*
X207124258Y-79916584D01*
X207124500Y-79924386D01*
X207124500Y-79938292D01*
X207125136Y-79942732D01*
X207125732Y-79946895D01*
X207126762Y-79956953D01*
X207129484Y-80000819D01*
X207132533Y-80009266D01*
X207133828Y-80015517D01*
X207135755Y-80023244D01*
X207137541Y-80029352D01*
X207138814Y-80038240D01*
X207142530Y-80046412D01*
X207157007Y-80078252D01*
X207160820Y-80087619D01*
X207175744Y-80128960D01*
X207181038Y-80136206D01*
X207184019Y-80141814D01*
X207188065Y-80148738D01*
X207191487Y-80154089D01*
X207195202Y-80162259D01*
X207223902Y-80195568D01*
X207230187Y-80203484D01*
X207237077Y-80212915D01*
X207246576Y-80222414D01*
X207252934Y-80229262D01*
X207278269Y-80258665D01*
X207278273Y-80258669D01*
X207284131Y-80265467D01*
X207291661Y-80270348D01*
X207298428Y-80276251D01*
X207298395Y-80276289D01*
X207309164Y-80285002D01*
X213537595Y-86513433D01*
X213571621Y-86575745D01*
X213574500Y-86602528D01*
X213574500Y-115182133D01*
X213573206Y-115193719D01*
X213573749Y-115193763D01*
X213573029Y-115202709D01*
X213571048Y-115211465D01*
X213571604Y-115220425D01*
X213574258Y-115263204D01*
X213574500Y-115271006D01*
X213574500Y-131882133D01*
X213573206Y-131893719D01*
X213573749Y-131893763D01*
X213573029Y-131902709D01*
X213571048Y-131911465D01*
X213571604Y-131920425D01*
X213574258Y-131963204D01*
X213574500Y-131971006D01*
X213574500Y-131984912D01*
X213575136Y-131989352D01*
X213575732Y-131993515D01*
X213576762Y-132003573D01*
X213579484Y-132047439D01*
X213582533Y-132055886D01*
X213583828Y-132062137D01*
X213585755Y-132069864D01*
X213587541Y-132075972D01*
X213588814Y-132084860D01*
X213592530Y-132093032D01*
X213607007Y-132124872D01*
X213610820Y-132134239D01*
X213625744Y-132175580D01*
X213631038Y-132182826D01*
X213634019Y-132188434D01*
X213638065Y-132195358D01*
X213641487Y-132200709D01*
X213645202Y-132208879D01*
X213673902Y-132242188D01*
X213680187Y-132250104D01*
X213687077Y-132259535D01*
X213696576Y-132269034D01*
X213702934Y-132275882D01*
X213728269Y-132305285D01*
X213728273Y-132305289D01*
X213734131Y-132312087D01*
X213741661Y-132316968D01*
X213748428Y-132322871D01*
X213748395Y-132322909D01*
X213759164Y-132331622D01*
X214840779Y-133413238D01*
X214848059Y-133422348D01*
X214848474Y-133421995D01*
X214854290Y-133428829D01*
X214859081Y-133436422D01*
X214865809Y-133442364D01*
X214865810Y-133442365D01*
X214897946Y-133470746D01*
X214903634Y-133476093D01*
X214913457Y-133485916D01*
X214918749Y-133489882D01*
X214920407Y-133491125D01*
X214928247Y-133497507D01*
X214928580Y-133497801D01*
X214961195Y-133526605D01*
X214969319Y-133530419D01*
X214974632Y-133533909D01*
X214981496Y-133538033D01*
X214987070Y-133541085D01*
X214994253Y-133546468D01*
X215009818Y-133552303D01*
X215035402Y-133561894D01*
X215044722Y-133565821D01*
X215084515Y-133584504D01*
X215093386Y-133585885D01*
X215099472Y-133587746D01*
X215107208Y-133589775D01*
X215113413Y-133591139D01*
X215121820Y-133594291D01*
X215145041Y-133596016D01*
X215165663Y-133597549D01*
X215175708Y-133598703D01*
X215178753Y-133599177D01*
X215187249Y-133600500D01*
X215200693Y-133600500D01*
X215210030Y-133600846D01*
X215257681Y-133604387D01*
X215266457Y-133602514D01*
X215275414Y-133601903D01*
X215275417Y-133601954D01*
X215289190Y-133600500D01*
X225768500Y-133600500D01*
X225836621Y-133620502D01*
X225883114Y-133674158D01*
X225894500Y-133726500D01*
X225894500Y-133975000D01*
X225894567Y-133976441D01*
X225894567Y-133976458D01*
X225895219Y-133990558D01*
X225895803Y-134003188D01*
X225926528Y-134111173D01*
X225994186Y-134200767D01*
X226089641Y-134259870D01*
X226101113Y-134262014D01*
X226101114Y-134262015D01*
X226194275Y-134279430D01*
X226194277Y-134279430D01*
X226200000Y-134280500D01*
X227900000Y-134280500D01*
X227901441Y-134280433D01*
X227901458Y-134280433D01*
X227915558Y-134279781D01*
X227928188Y-134279197D01*
X228036173Y-134248472D01*
X228125767Y-134180814D01*
X228184870Y-134085359D01*
X228205500Y-133975000D01*
X228205500Y-133726500D01*
X228225502Y-133658379D01*
X228279158Y-133611886D01*
X228331500Y-133600500D01*
X248757133Y-133600500D01*
X248768719Y-133601794D01*
X248768763Y-133601251D01*
X248777709Y-133601971D01*
X248786465Y-133603952D01*
X248838205Y-133600742D01*
X248846006Y-133600500D01*
X248859912Y-133600500D01*
X248868515Y-133599268D01*
X248878573Y-133598238D01*
X248922439Y-133595516D01*
X248930886Y-133592467D01*
X248937137Y-133591172D01*
X248944864Y-133589245D01*
X248950972Y-133587459D01*
X248959860Y-133586186D01*
X248999876Y-133567991D01*
X249009239Y-133564180D01*
X249015571Y-133561894D01*
X249050580Y-133549256D01*
X249057826Y-133543962D01*
X249063434Y-133540981D01*
X249070358Y-133536935D01*
X249075709Y-133533513D01*
X249083879Y-133529798D01*
X249117188Y-133501098D01*
X249125104Y-133494813D01*
X249130604Y-133490795D01*
X249130605Y-133490794D01*
X249134535Y-133487923D01*
X249144034Y-133478424D01*
X249150882Y-133472066D01*
X249180285Y-133446731D01*
X249180289Y-133446727D01*
X249187087Y-133440869D01*
X249191968Y-133433339D01*
X249197871Y-133426572D01*
X249197909Y-133426605D01*
X249206622Y-133415836D01*
X254173234Y-128449224D01*
X254182347Y-128441942D01*
X254181994Y-128441527D01*
X254188829Y-128435710D01*
X254196422Y-128430919D01*
X254230754Y-128392045D01*
X254236100Y-128386358D01*
X254245916Y-128376542D01*
X254251131Y-128369584D01*
X254257503Y-128361757D01*
X254280662Y-128335534D01*
X254286605Y-128328805D01*
X254290422Y-128320675D01*
X254293905Y-128315373D01*
X254298048Y-128308478D01*
X254301085Y-128302929D01*
X254306468Y-128295747D01*
X254321894Y-128254598D01*
X254325821Y-128245278D01*
X254340688Y-128213612D01*
X254344504Y-128205485D01*
X254345885Y-128196614D01*
X254347746Y-128190528D01*
X254349778Y-128182783D01*
X254351141Y-128176582D01*
X254354291Y-128168180D01*
X254357551Y-128124317D01*
X254358702Y-128114297D01*
X254359752Y-128107555D01*
X254360500Y-128102751D01*
X254360500Y-128089303D01*
X254360847Y-128079965D01*
X254363723Y-128041270D01*
X254363723Y-128041268D01*
X254364388Y-128032319D01*
X254362515Y-128023545D01*
X254361904Y-128014581D01*
X254361954Y-128014578D01*
X254360500Y-128000805D01*
X254360500Y-123926362D01*
X254380502Y-123858241D01*
X254424934Y-123816428D01*
X254539482Y-123752278D01*
X254702062Y-123617062D01*
X254837278Y-123454482D01*
X254940602Y-123269984D01*
X254942458Y-123264517D01*
X254942460Y-123264512D01*
X255006717Y-123075215D01*
X255006718Y-123075210D01*
X255008573Y-123069746D01*
X255009401Y-123064037D01*
X255009402Y-123064032D01*
X255038383Y-122864148D01*
X255038916Y-122860474D01*
X255040500Y-122800000D01*
X255027238Y-122655667D01*
X255021680Y-122595181D01*
X255021679Y-122595178D01*
X255021151Y-122589427D01*
X255012784Y-122559758D01*
X254965320Y-122391465D01*
X254965319Y-122391463D01*
X254963752Y-122385906D01*
X254949897Y-122357809D01*
X254872781Y-122201434D01*
X254870226Y-122196253D01*
X254743704Y-122026820D01*
X254588424Y-121883280D01*
X254583541Y-121880199D01*
X254583537Y-121880196D01*
X254414470Y-121773523D01*
X254414465Y-121773521D01*
X254409586Y-121770442D01*
X254213180Y-121692084D01*
X254207520Y-121690958D01*
X254207516Y-121690957D01*
X254011450Y-121651957D01*
X254011447Y-121651957D01*
X254005783Y-121650830D01*
X254000008Y-121650754D01*
X254000004Y-121650754D01*
X253894064Y-121649367D01*
X253794341Y-121648062D01*
X253788644Y-121649041D01*
X253788643Y-121649041D01*
X253706738Y-121663115D01*
X253585935Y-121683873D01*
X253387544Y-121757063D01*
X253205814Y-121865181D01*
X253046830Y-122004606D01*
X252915916Y-122170670D01*
X252817457Y-122357809D01*
X252754750Y-122559758D01*
X252754071Y-122565496D01*
X252740097Y-122683562D01*
X252712227Y-122748859D01*
X252653478Y-122788723D01*
X252582504Y-122790497D01*
X252521837Y-122753618D01*
X252490740Y-122689794D01*
X252489499Y-122680281D01*
X252487238Y-122655667D01*
X252485237Y-122633900D01*
X252481680Y-122595181D01*
X252481679Y-122595178D01*
X252481151Y-122589427D01*
X252472784Y-122559758D01*
X252425320Y-122391465D01*
X252425319Y-122391463D01*
X252423752Y-122385906D01*
X252409897Y-122357809D01*
X252332781Y-122201434D01*
X252330226Y-122196253D01*
X252203704Y-122026820D01*
X252048424Y-121883280D01*
X252043541Y-121880199D01*
X252043537Y-121880196D01*
X251874470Y-121773523D01*
X251874465Y-121773521D01*
X251869586Y-121770442D01*
X251673180Y-121692084D01*
X251667520Y-121690958D01*
X251667516Y-121690957D01*
X251471450Y-121651957D01*
X251471447Y-121651957D01*
X251465783Y-121650830D01*
X251460008Y-121650754D01*
X251460004Y-121650754D01*
X251354064Y-121649367D01*
X251254341Y-121648062D01*
X251248644Y-121649041D01*
X251248643Y-121649041D01*
X251166738Y-121663115D01*
X251045935Y-121683873D01*
X250847544Y-121757063D01*
X250665814Y-121865181D01*
X250506830Y-122004606D01*
X250375916Y-122170670D01*
X250277457Y-122357809D01*
X250214750Y-122559758D01*
X250214071Y-122565496D01*
X250200097Y-122683562D01*
X250172227Y-122748859D01*
X250113478Y-122788723D01*
X250042504Y-122790497D01*
X249981837Y-122753618D01*
X249950740Y-122689794D01*
X249949499Y-122680281D01*
X249947238Y-122655667D01*
X249945237Y-122633900D01*
X249941680Y-122595181D01*
X249941679Y-122595178D01*
X249941151Y-122589427D01*
X249932784Y-122559758D01*
X249885320Y-122391465D01*
X249885319Y-122391463D01*
X249883752Y-122385906D01*
X249869897Y-122357809D01*
X249792781Y-122201434D01*
X249790226Y-122196253D01*
X249663704Y-122026820D01*
X249508424Y-121883280D01*
X249503541Y-121880199D01*
X249503537Y-121880196D01*
X249334470Y-121773523D01*
X249334465Y-121773521D01*
X249329586Y-121770442D01*
X249133180Y-121692084D01*
X249127520Y-121690958D01*
X249127516Y-121690957D01*
X248931450Y-121651957D01*
X248931447Y-121651957D01*
X248925783Y-121650830D01*
X248920008Y-121650754D01*
X248920004Y-121650754D01*
X248814064Y-121649367D01*
X248714341Y-121648062D01*
X248708644Y-121649041D01*
X248708643Y-121649041D01*
X248626738Y-121663115D01*
X248505935Y-121683873D01*
X248307544Y-121757063D01*
X248125814Y-121865181D01*
X247966830Y-122004606D01*
X247835916Y-122170670D01*
X247737457Y-122357809D01*
X247674750Y-122559758D01*
X247674071Y-122565496D01*
X247660097Y-122683562D01*
X247632227Y-122748859D01*
X247573478Y-122788723D01*
X247502504Y-122790497D01*
X247441837Y-122753618D01*
X247410740Y-122689794D01*
X247409499Y-122680281D01*
X247407238Y-122655667D01*
X247405237Y-122633900D01*
X247401680Y-122595181D01*
X247401679Y-122595178D01*
X247401151Y-122589427D01*
X247392784Y-122559758D01*
X247345320Y-122391465D01*
X247345319Y-122391463D01*
X247343752Y-122385906D01*
X247329897Y-122357809D01*
X247252781Y-122201434D01*
X247250226Y-122196253D01*
X247123704Y-122026820D01*
X246968424Y-121883280D01*
X246963541Y-121880199D01*
X246963537Y-121880196D01*
X246794470Y-121773523D01*
X246794465Y-121773521D01*
X246789586Y-121770442D01*
X246593180Y-121692084D01*
X246587520Y-121690958D01*
X246587516Y-121690957D01*
X246391450Y-121651957D01*
X246391447Y-121651957D01*
X246385783Y-121650830D01*
X246380008Y-121650754D01*
X246380004Y-121650754D01*
X246274064Y-121649367D01*
X246174341Y-121648062D01*
X246168644Y-121649041D01*
X246168643Y-121649041D01*
X246086738Y-121663115D01*
X245965935Y-121683873D01*
X245767544Y-121757063D01*
X245585814Y-121865181D01*
X245426830Y-122004606D01*
X245295916Y-122170670D01*
X245197457Y-122357809D01*
X245134750Y-122559758D01*
X245134071Y-122565496D01*
X245131127Y-122590370D01*
X245103257Y-122655667D01*
X245044508Y-122695531D01*
X244973534Y-122697305D01*
X244912867Y-122660426D01*
X244881770Y-122596603D01*
X244880000Y-122575560D01*
X244880000Y-121951468D01*
X244879933Y-121948543D01*
X244879035Y-121929131D01*
X244876706Y-121914853D01*
X244851220Y-121825279D01*
X244840989Y-121804733D01*
X244787515Y-121733921D01*
X244770547Y-121718454D01*
X244695108Y-121671744D01*
X244673702Y-121663451D01*
X244580727Y-121646071D01*
X244569172Y-121645000D01*
X243997115Y-121645000D01*
X243981876Y-121649475D01*
X243980671Y-121650865D01*
X243979000Y-121658548D01*
X243979000Y-123936885D01*
X243983475Y-123952124D01*
X243984865Y-123953329D01*
X243992548Y-123955000D01*
X244573532Y-123955000D01*
X244576457Y-123954933D01*
X244595869Y-123954035D01*
X244610147Y-123951706D01*
X244699721Y-123926220D01*
X244720267Y-123915989D01*
X244791079Y-123862515D01*
X244806546Y-123845547D01*
X244853256Y-123770108D01*
X244861549Y-123748702D01*
X244878929Y-123655727D01*
X244880000Y-123644172D01*
X244880000Y-123029088D01*
X244900002Y-122960967D01*
X244953658Y-122914474D01*
X245023932Y-122904370D01*
X245088512Y-122933864D01*
X245128123Y-122998073D01*
X245175778Y-123185714D01*
X245264308Y-123377750D01*
X245386351Y-123550437D01*
X245390485Y-123554464D01*
X245509978Y-123670869D01*
X245537820Y-123697992D01*
X245542616Y-123701197D01*
X245542619Y-123701199D01*
X245613530Y-123748580D01*
X245713643Y-123815473D01*
X245718946Y-123817751D01*
X245718949Y-123817753D01*
X245902624Y-123896666D01*
X245907931Y-123898946D01*
X246114177Y-123945615D01*
X246119946Y-123945842D01*
X246119949Y-123945842D01*
X246200242Y-123948996D01*
X246325474Y-123953916D01*
X246413693Y-123941125D01*
X246529032Y-123924402D01*
X246529037Y-123924401D01*
X246534746Y-123923573D01*
X246540210Y-123921718D01*
X246540215Y-123921717D01*
X246729512Y-123857460D01*
X246729517Y-123857458D01*
X246734984Y-123855602D01*
X246752939Y-123845547D01*
X246812371Y-123812263D01*
X246919482Y-123752278D01*
X247082062Y-123617062D01*
X247217278Y-123454482D01*
X247320602Y-123269984D01*
X247322458Y-123264517D01*
X247322460Y-123264512D01*
X247386717Y-123075215D01*
X247386718Y-123075210D01*
X247388573Y-123069746D01*
X247389401Y-123064037D01*
X247389402Y-123064032D01*
X247410063Y-122921533D01*
X247439633Y-122856987D01*
X247499405Y-122818675D01*
X247570401Y-122818759D01*
X247630082Y-122857214D01*
X247659498Y-122921830D01*
X247660489Y-122931371D01*
X247663726Y-122980760D01*
X247715778Y-123185714D01*
X247804308Y-123377750D01*
X247926351Y-123550437D01*
X247930485Y-123554464D01*
X248049978Y-123670869D01*
X248077820Y-123697992D01*
X248082616Y-123701197D01*
X248082619Y-123701199D01*
X248153530Y-123748580D01*
X248253643Y-123815473D01*
X248258946Y-123817751D01*
X248258949Y-123817753D01*
X248442624Y-123896666D01*
X248447931Y-123898946D01*
X248654177Y-123945615D01*
X248659946Y-123945842D01*
X248659949Y-123945842D01*
X248740242Y-123948996D01*
X248865474Y-123953916D01*
X248953693Y-123941125D01*
X249069032Y-123924402D01*
X249069037Y-123924401D01*
X249074746Y-123923573D01*
X249080210Y-123921718D01*
X249080215Y-123921717D01*
X249269512Y-123857460D01*
X249269517Y-123857458D01*
X249274984Y-123855602D01*
X249292939Y-123845547D01*
X249352371Y-123812263D01*
X249459482Y-123752278D01*
X249622062Y-123617062D01*
X249757278Y-123454482D01*
X249860602Y-123269984D01*
X249862458Y-123264517D01*
X249862460Y-123264512D01*
X249926717Y-123075215D01*
X249926718Y-123075210D01*
X249928573Y-123069746D01*
X249929401Y-123064037D01*
X249929402Y-123064032D01*
X249950063Y-122921533D01*
X249979633Y-122856987D01*
X250039405Y-122818675D01*
X250110401Y-122818759D01*
X250170082Y-122857214D01*
X250199498Y-122921830D01*
X250200489Y-122931371D01*
X250203726Y-122980760D01*
X250255778Y-123185714D01*
X250344308Y-123377750D01*
X250466351Y-123550437D01*
X250470485Y-123554464D01*
X250589978Y-123670869D01*
X250617820Y-123697992D01*
X250622616Y-123701197D01*
X250622619Y-123701199D01*
X250693530Y-123748580D01*
X250793643Y-123815473D01*
X250798946Y-123817751D01*
X250798949Y-123817753D01*
X250982624Y-123896666D01*
X250987931Y-123898946D01*
X251194177Y-123945615D01*
X251199946Y-123945842D01*
X251199949Y-123945842D01*
X251280242Y-123948996D01*
X251405474Y-123953916D01*
X251493693Y-123941125D01*
X251609032Y-123924402D01*
X251609037Y-123924401D01*
X251614746Y-123923573D01*
X251620210Y-123921718D01*
X251620215Y-123921717D01*
X251809512Y-123857460D01*
X251809517Y-123857458D01*
X251814984Y-123855602D01*
X251832939Y-123845547D01*
X251892371Y-123812263D01*
X251999482Y-123752278D01*
X252162062Y-123617062D01*
X252297278Y-123454482D01*
X252400602Y-123269984D01*
X252402458Y-123264517D01*
X252402460Y-123264512D01*
X252466717Y-123075215D01*
X252466718Y-123075210D01*
X252468573Y-123069746D01*
X252469401Y-123064037D01*
X252469402Y-123064032D01*
X252490063Y-122921533D01*
X252519633Y-122856987D01*
X252579405Y-122818675D01*
X252650401Y-122818759D01*
X252710082Y-122857214D01*
X252739498Y-122921830D01*
X252740489Y-122931371D01*
X252743726Y-122980760D01*
X252795778Y-123185714D01*
X252884308Y-123377750D01*
X253006351Y-123550437D01*
X253010485Y-123554464D01*
X253129978Y-123670869D01*
X253157820Y-123697992D01*
X253162616Y-123701197D01*
X253162619Y-123701199D01*
X253233530Y-123748580D01*
X253333643Y-123815473D01*
X253338950Y-123817753D01*
X253343624Y-123820291D01*
X253393945Y-123870375D01*
X253409500Y-123931021D01*
X253409500Y-127815851D01*
X253389498Y-127883972D01*
X253372595Y-127904946D01*
X248664946Y-132612595D01*
X248602634Y-132646621D01*
X248575851Y-132649500D01*
X228331500Y-132649500D01*
X228263379Y-132629498D01*
X228216886Y-132575842D01*
X228205500Y-132523500D01*
X228205500Y-132275000D01*
X228205378Y-132272348D01*
X228204533Y-132254084D01*
X228204197Y-132246812D01*
X228173472Y-132138827D01*
X228105814Y-132049233D01*
X228010359Y-131990130D01*
X227998887Y-131987986D01*
X227998886Y-131987985D01*
X227905725Y-131970570D01*
X227905723Y-131970570D01*
X227900000Y-131969500D01*
X227263796Y-131969500D01*
X227195675Y-131949498D01*
X227149182Y-131895842D01*
X227139078Y-131825568D01*
X227168572Y-131760988D01*
X227228298Y-131722604D01*
X227245716Y-131718804D01*
X227313915Y-131708916D01*
X227325098Y-131706231D01*
X227514313Y-131642001D01*
X227524816Y-131637325D01*
X227699162Y-131539687D01*
X227708637Y-131533175D01*
X227862276Y-131405394D01*
X227870394Y-131397276D01*
X227998175Y-131243637D01*
X228004687Y-131234162D01*
X228102325Y-131059816D01*
X228107001Y-131049313D01*
X228171228Y-130860106D01*
X228172469Y-130854935D01*
X228170767Y-130842993D01*
X228157199Y-130839000D01*
X225945955Y-130839000D01*
X225932424Y-130842973D01*
X225931132Y-130851962D01*
X225959828Y-130964952D01*
X225963666Y-130975790D01*
X226047323Y-131157255D01*
X226053074Y-131167216D01*
X226168399Y-131330397D01*
X226175865Y-131339139D01*
X226319001Y-131478577D01*
X226327934Y-131485811D01*
X226494078Y-131596824D01*
X226504188Y-131602314D01*
X226687778Y-131681190D01*
X226698721Y-131684745D01*
X226857205Y-131720607D01*
X226919232Y-131755150D01*
X226952736Y-131817744D01*
X226947082Y-131888515D01*
X226904063Y-131944994D01*
X226837338Y-131969250D01*
X226829397Y-131969500D01*
X226200000Y-131969500D01*
X226198559Y-131969567D01*
X226198542Y-131969567D01*
X226184442Y-131970219D01*
X226171812Y-131970803D01*
X226063827Y-132001528D01*
X225974233Y-132069186D01*
X225915130Y-132164641D01*
X225912986Y-132176113D01*
X225912985Y-132176114D01*
X225899769Y-132246812D01*
X225894500Y-132275000D01*
X225894500Y-132523500D01*
X225874498Y-132591621D01*
X225820842Y-132638114D01*
X225768500Y-132649500D01*
X215474149Y-132649500D01*
X215406028Y-132629498D01*
X215385053Y-132612595D01*
X214562404Y-131789945D01*
X214528379Y-131727633D01*
X214525500Y-131700850D01*
X214525500Y-130327799D01*
X225929698Y-130327799D01*
X225936429Y-130331000D01*
X226777885Y-130331000D01*
X226793124Y-130326525D01*
X226794329Y-130325135D01*
X226796000Y-130317452D01*
X226796000Y-129482676D01*
X227304000Y-129482676D01*
X227304000Y-130312885D01*
X227308475Y-130328124D01*
X227309865Y-130329329D01*
X227317548Y-130331000D01*
X228155271Y-130331000D01*
X228168802Y-130327027D01*
X228169971Y-130318892D01*
X228129853Y-130176644D01*
X228125731Y-130165905D01*
X228037354Y-129986695D01*
X228031344Y-129976887D01*
X227911785Y-129816778D01*
X227904096Y-129808238D01*
X227757354Y-129672592D01*
X227748238Y-129665598D01*
X227579245Y-129558970D01*
X227568994Y-129553746D01*
X227383402Y-129479703D01*
X227372374Y-129476436D01*
X227321770Y-129466371D01*
X227308894Y-129467523D01*
X227304000Y-129482676D01*
X226796000Y-129482676D01*
X226796000Y-129479749D01*
X226792194Y-129466787D01*
X226777279Y-129464851D01*
X226756756Y-129468378D01*
X226745644Y-129471355D01*
X226558176Y-129540516D01*
X226547798Y-129545466D01*
X226376076Y-129647629D01*
X226366764Y-129654394D01*
X226216534Y-129786143D01*
X226208617Y-129794486D01*
X226084909Y-129951408D01*
X226078647Y-129961051D01*
X225985608Y-130137891D01*
X225981207Y-130148515D01*
X225929916Y-130313700D01*
X225929698Y-130327799D01*
X214525500Y-130327799D01*
X214525500Y-123067548D01*
X242570000Y-123067548D01*
X242570000Y-123648532D01*
X242570067Y-123651457D01*
X242570965Y-123670869D01*
X242573294Y-123685147D01*
X242598780Y-123774721D01*
X242609011Y-123795267D01*
X242662485Y-123866079D01*
X242679453Y-123881546D01*
X242754892Y-123928256D01*
X242776298Y-123936549D01*
X242869273Y-123953929D01*
X242880828Y-123955000D01*
X243452885Y-123955000D01*
X243468124Y-123950525D01*
X243469329Y-123949135D01*
X243471000Y-123941452D01*
X243471000Y-123072115D01*
X243466525Y-123056876D01*
X243465135Y-123055671D01*
X243457452Y-123054000D01*
X242588115Y-123054000D01*
X242572876Y-123058475D01*
X242571671Y-123059865D01*
X242570000Y-123067548D01*
X214525500Y-123067548D01*
X214525500Y-121955828D01*
X242570000Y-121955828D01*
X242570000Y-122527885D01*
X242574475Y-122543124D01*
X242575865Y-122544329D01*
X242583548Y-122546000D01*
X243452885Y-122546000D01*
X243468124Y-122541525D01*
X243469329Y-122540135D01*
X243471000Y-122532452D01*
X243471000Y-121663115D01*
X243466525Y-121647876D01*
X243465135Y-121646671D01*
X243457452Y-121645000D01*
X242876468Y-121645000D01*
X242873543Y-121645067D01*
X242854131Y-121645965D01*
X242839853Y-121648294D01*
X242750279Y-121673780D01*
X242729733Y-121684011D01*
X242658921Y-121737485D01*
X242643454Y-121754453D01*
X242596744Y-121829892D01*
X242588451Y-121851298D01*
X242571071Y-121944273D01*
X242570000Y-121955828D01*
X214525500Y-121955828D01*
X214525500Y-115861500D01*
X214545502Y-115793379D01*
X214599158Y-115746886D01*
X214651500Y-115735500D01*
X215431512Y-115735500D01*
X215499633Y-115755502D01*
X215545938Y-115808748D01*
X215559308Y-115837750D01*
X215681351Y-116010437D01*
X215832820Y-116157992D01*
X215837616Y-116161197D01*
X215837619Y-116161199D01*
X215908530Y-116208580D01*
X216008643Y-116275473D01*
X216013946Y-116277751D01*
X216013949Y-116277753D01*
X216095472Y-116312778D01*
X216202931Y-116358946D01*
X216409177Y-116405615D01*
X216414950Y-116405842D01*
X216420299Y-116406546D01*
X216485227Y-116435268D01*
X216524319Y-116494532D01*
X216525164Y-116565524D01*
X216487495Y-116625703D01*
X216425192Y-116655648D01*
X216266632Y-116682894D01*
X216260935Y-116683873D01*
X216062544Y-116757063D01*
X215880814Y-116865181D01*
X215721830Y-117004606D01*
X215590916Y-117170670D01*
X215588227Y-117175781D01*
X215588225Y-117175784D01*
X215534341Y-117278202D01*
X215492457Y-117357809D01*
X215429750Y-117559758D01*
X215404896Y-117769753D01*
X215418726Y-117980760D01*
X215470778Y-118185714D01*
X215559308Y-118377750D01*
X215681351Y-118550437D01*
X215832820Y-118697992D01*
X215837616Y-118701197D01*
X215837619Y-118701199D01*
X215908530Y-118748580D01*
X216008643Y-118815473D01*
X216013946Y-118817751D01*
X216013949Y-118817753D01*
X216163290Y-118881915D01*
X216202931Y-118898946D01*
X216409177Y-118945615D01*
X216414946Y-118945842D01*
X216414949Y-118945842D01*
X216495242Y-118948996D01*
X216620474Y-118953916D01*
X216708693Y-118941125D01*
X216824032Y-118924402D01*
X216824037Y-118924401D01*
X216829746Y-118923573D01*
X216835210Y-118921718D01*
X216835215Y-118921717D01*
X217024512Y-118857460D01*
X217024517Y-118857458D01*
X217029984Y-118855602D01*
X217214482Y-118752278D01*
X217377062Y-118617062D01*
X217512278Y-118454482D01*
X217576428Y-118339934D01*
X217627164Y-118290272D01*
X217686362Y-118275500D01*
X217818500Y-118275500D01*
X217886621Y-118295502D01*
X217933114Y-118349158D01*
X217944500Y-118401500D01*
X217944500Y-118650000D01*
X217944567Y-118651441D01*
X217944567Y-118651458D01*
X217945219Y-118665558D01*
X217945803Y-118678188D01*
X217976528Y-118786173D01*
X218044186Y-118875767D01*
X218139641Y-118934870D01*
X218151113Y-118937014D01*
X218151114Y-118937015D01*
X218244275Y-118954430D01*
X218244277Y-118954430D01*
X218250000Y-118955500D01*
X219950000Y-118955500D01*
X219951441Y-118955433D01*
X219951458Y-118955433D01*
X219965558Y-118954781D01*
X219978188Y-118954197D01*
X220086173Y-118923472D01*
X220175767Y-118855814D01*
X220234870Y-118760359D01*
X220247282Y-118693965D01*
X220254430Y-118655725D01*
X220254430Y-118655723D01*
X220255500Y-118650000D01*
X220255500Y-118401500D01*
X220275502Y-118333379D01*
X220329158Y-118286886D01*
X220381500Y-118275500D01*
X229682133Y-118275500D01*
X229693719Y-118276794D01*
X229693763Y-118276251D01*
X229702709Y-118276971D01*
X229711465Y-118278952D01*
X229763205Y-118275742D01*
X229771006Y-118275500D01*
X229784912Y-118275500D01*
X229793515Y-118274268D01*
X229803573Y-118273238D01*
X229847439Y-118270516D01*
X229855886Y-118267467D01*
X229862137Y-118266172D01*
X229869864Y-118264245D01*
X229875972Y-118262459D01*
X229884860Y-118261186D01*
X229924876Y-118242991D01*
X229934239Y-118239180D01*
X229975580Y-118224256D01*
X229982826Y-118218962D01*
X229988434Y-118215981D01*
X229995358Y-118211935D01*
X230000709Y-118208513D01*
X230008879Y-118204798D01*
X230042188Y-118176098D01*
X230050104Y-118169813D01*
X230055604Y-118165795D01*
X230055605Y-118165794D01*
X230059535Y-118162923D01*
X230069034Y-118153424D01*
X230075882Y-118147066D01*
X230105285Y-118121731D01*
X230105289Y-118121727D01*
X230112087Y-118115869D01*
X230116968Y-118108339D01*
X230122871Y-118101572D01*
X230122909Y-118101605D01*
X230131622Y-118090836D01*
X245138238Y-103084221D01*
X245147348Y-103076941D01*
X245146995Y-103076526D01*
X245153829Y-103070710D01*
X245161422Y-103065919D01*
X245195747Y-103027053D01*
X245201093Y-103021366D01*
X245210916Y-103011543D01*
X245216125Y-103004593D01*
X245222507Y-102996753D01*
X245245664Y-102970532D01*
X245251605Y-102963805D01*
X245255419Y-102955681D01*
X245258909Y-102950368D01*
X245263033Y-102943504D01*
X245266085Y-102937930D01*
X245271468Y-102930747D01*
X245286894Y-102889598D01*
X245290821Y-102880278D01*
X245295734Y-102869813D01*
X245309504Y-102840485D01*
X245310885Y-102831614D01*
X245312746Y-102825528D01*
X245314775Y-102817792D01*
X245316139Y-102811587D01*
X245319291Y-102803180D01*
X245322549Y-102759337D01*
X245323703Y-102749292D01*
X245324750Y-102742565D01*
X245325500Y-102737751D01*
X245325500Y-102724307D01*
X245325846Y-102714970D01*
X245328722Y-102676267D01*
X245329387Y-102667319D01*
X245327514Y-102658543D01*
X245326903Y-102649586D01*
X245326954Y-102649583D01*
X245325500Y-102635810D01*
X245325500Y-94899148D01*
X245345502Y-94831027D01*
X245362405Y-94810053D01*
X251140054Y-89032405D01*
X251202366Y-88998379D01*
X251229149Y-88995500D01*
X252121512Y-88995500D01*
X252189633Y-89015502D01*
X252235938Y-89068748D01*
X252249308Y-89097750D01*
X252371351Y-89270437D01*
X252375485Y-89274464D01*
X252514985Y-89410359D01*
X252522820Y-89417992D01*
X252527616Y-89421197D01*
X252527619Y-89421199D01*
X252598530Y-89468580D01*
X252698643Y-89535473D01*
X252703946Y-89537751D01*
X252703949Y-89537753D01*
X252862801Y-89606001D01*
X252892931Y-89618946D01*
X253099177Y-89665615D01*
X253104950Y-89665842D01*
X253110299Y-89666546D01*
X253175227Y-89695268D01*
X253214319Y-89754532D01*
X253215164Y-89825524D01*
X253177495Y-89885703D01*
X253115192Y-89915648D01*
X252956632Y-89942894D01*
X252950935Y-89943873D01*
X252752544Y-90017063D01*
X252747583Y-90020015D01*
X252747582Y-90020015D01*
X252693439Y-90052227D01*
X252570814Y-90125181D01*
X252411830Y-90264606D01*
X252280916Y-90430670D01*
X252278228Y-90435779D01*
X252278225Y-90435784D01*
X252269890Y-90451626D01*
X252182457Y-90617809D01*
X252119750Y-90819758D01*
X252094896Y-91029753D01*
X252108726Y-91240760D01*
X252160778Y-91445714D01*
X252249308Y-91637750D01*
X252371351Y-91810437D01*
X252522820Y-91957992D01*
X252527616Y-91961197D01*
X252527619Y-91961199D01*
X252664353Y-92052561D01*
X252698643Y-92075473D01*
X252703946Y-92077751D01*
X252703949Y-92077753D01*
X252841352Y-92136786D01*
X252892931Y-92158946D01*
X253099177Y-92205615D01*
X253104950Y-92205842D01*
X253110299Y-92206546D01*
X253175227Y-92235268D01*
X253214319Y-92294532D01*
X253215164Y-92365524D01*
X253177495Y-92425703D01*
X253115192Y-92455648D01*
X252962533Y-92481880D01*
X252950935Y-92483873D01*
X252752544Y-92557063D01*
X252747583Y-92560015D01*
X252747582Y-92560015D01*
X252633431Y-92627928D01*
X252570814Y-92665181D01*
X252411830Y-92804606D01*
X252280916Y-92970670D01*
X252278227Y-92975781D01*
X252278225Y-92975784D01*
X252229606Y-93068194D01*
X252182457Y-93157809D01*
X252119750Y-93359758D01*
X252094896Y-93569753D01*
X252108726Y-93780760D01*
X252160778Y-93985714D01*
X252249308Y-94177750D01*
X252371351Y-94350437D01*
X252522820Y-94497992D01*
X252527616Y-94501197D01*
X252527619Y-94501199D01*
X252661512Y-94590663D01*
X252698643Y-94615473D01*
X252703946Y-94617751D01*
X252703949Y-94617753D01*
X252855073Y-94682681D01*
X252892931Y-94698946D01*
X253099177Y-94745615D01*
X253104950Y-94745842D01*
X253110299Y-94746546D01*
X253175227Y-94775268D01*
X253214319Y-94834532D01*
X253215164Y-94905524D01*
X253177495Y-94965703D01*
X253115192Y-94995648D01*
X252956632Y-95022894D01*
X252950935Y-95023873D01*
X252752544Y-95097063D01*
X252747583Y-95100015D01*
X252747582Y-95100015D01*
X252600473Y-95187536D01*
X252570814Y-95205181D01*
X252411830Y-95344606D01*
X252280916Y-95510670D01*
X252278228Y-95515779D01*
X252278225Y-95515784D01*
X252247334Y-95574498D01*
X252182457Y-95697809D01*
X252119750Y-95899758D01*
X252094896Y-96109753D01*
X252108726Y-96320760D01*
X252160778Y-96525714D01*
X252249308Y-96717750D01*
X252371351Y-96890437D01*
X252522820Y-97037992D01*
X252527616Y-97041197D01*
X252527619Y-97041199D01*
X252665022Y-97133008D01*
X252698643Y-97155473D01*
X252703946Y-97157751D01*
X252703949Y-97157753D01*
X252839155Y-97215842D01*
X252892931Y-97238946D01*
X253099177Y-97285615D01*
X253104950Y-97285842D01*
X253110299Y-97286546D01*
X253175227Y-97315268D01*
X253214319Y-97374532D01*
X253215164Y-97445524D01*
X253177495Y-97505703D01*
X253115192Y-97535648D01*
X252977792Y-97559258D01*
X252950935Y-97563873D01*
X252752544Y-97637063D01*
X252747583Y-97640015D01*
X252747582Y-97640015D01*
X252620043Y-97715893D01*
X252570814Y-97745181D01*
X252411830Y-97884606D01*
X252280916Y-98050670D01*
X252278227Y-98055781D01*
X252278225Y-98055784D01*
X252233145Y-98141468D01*
X252182457Y-98237809D01*
X252119750Y-98439758D01*
X252094896Y-98649753D01*
X252108726Y-98860760D01*
X252160778Y-99065714D01*
X252249308Y-99257750D01*
X252371351Y-99430437D01*
X252522820Y-99577992D01*
X252527616Y-99581197D01*
X252527619Y-99581199D01*
X252598530Y-99628580D01*
X252698643Y-99695473D01*
X252703946Y-99697751D01*
X252703949Y-99697753D01*
X252785472Y-99732778D01*
X252892931Y-99778946D01*
X253099177Y-99825615D01*
X253104950Y-99825842D01*
X253110299Y-99826546D01*
X253175227Y-99855268D01*
X253214319Y-99914532D01*
X253215164Y-99985524D01*
X253177495Y-100045703D01*
X253115192Y-100075648D01*
X252956632Y-100102894D01*
X252950935Y-100103873D01*
X252752544Y-100177063D01*
X252570814Y-100285181D01*
X252411830Y-100424606D01*
X252280916Y-100590670D01*
X252278227Y-100595781D01*
X252278225Y-100595784D01*
X252224341Y-100698202D01*
X252182457Y-100777809D01*
X252119750Y-100979758D01*
X252094896Y-101189753D01*
X252108726Y-101400760D01*
X252160778Y-101605714D01*
X252217547Y-101728856D01*
X252237988Y-101773194D01*
X252249308Y-101797750D01*
X252371351Y-101970437D01*
X252522820Y-102117992D01*
X252527616Y-102121197D01*
X252527619Y-102121199D01*
X252608294Y-102175104D01*
X252698643Y-102235473D01*
X252703946Y-102237751D01*
X252703949Y-102237753D01*
X252785472Y-102272778D01*
X252892931Y-102318946D01*
X253099177Y-102365615D01*
X253104950Y-102365842D01*
X253110299Y-102366546D01*
X253175227Y-102395268D01*
X253214319Y-102454532D01*
X253215164Y-102525524D01*
X253177495Y-102585703D01*
X253115192Y-102615648D01*
X252956632Y-102642894D01*
X252950935Y-102643873D01*
X252752544Y-102717063D01*
X252747583Y-102720015D01*
X252747582Y-102720015D01*
X252575798Y-102822216D01*
X252570814Y-102825181D01*
X252411830Y-102964606D01*
X252280916Y-103130670D01*
X252278227Y-103135781D01*
X252278225Y-103135784D01*
X252226237Y-103234598D01*
X252182457Y-103317809D01*
X252119750Y-103519758D01*
X252094896Y-103729753D01*
X252108726Y-103940760D01*
X252160778Y-104145714D01*
X252249308Y-104337750D01*
X252371351Y-104510437D01*
X252522820Y-104657992D01*
X252527616Y-104661197D01*
X252527619Y-104661199D01*
X252598530Y-104708580D01*
X252698643Y-104775473D01*
X252703946Y-104777751D01*
X252703949Y-104777753D01*
X252785472Y-104812778D01*
X252892931Y-104858946D01*
X253099177Y-104905615D01*
X253104950Y-104905842D01*
X253110299Y-104906546D01*
X253175227Y-104935268D01*
X253214319Y-104994532D01*
X253215164Y-105065524D01*
X253177495Y-105125703D01*
X253115192Y-105155648D01*
X252956632Y-105182894D01*
X252950935Y-105183873D01*
X252752544Y-105257063D01*
X252747583Y-105260015D01*
X252747582Y-105260015D01*
X252680268Y-105300063D01*
X252570814Y-105365181D01*
X252411830Y-105504606D01*
X252280916Y-105670670D01*
X252278227Y-105675781D01*
X252278225Y-105675784D01*
X252224341Y-105778202D01*
X252182457Y-105857809D01*
X252119750Y-106059758D01*
X252094896Y-106269753D01*
X252108726Y-106480760D01*
X252160778Y-106685714D01*
X252249308Y-106877750D01*
X252371351Y-107050437D01*
X252522820Y-107197992D01*
X252527616Y-107201197D01*
X252527619Y-107201199D01*
X252598530Y-107248580D01*
X252698643Y-107315473D01*
X252703946Y-107317751D01*
X252703949Y-107317753D01*
X252785472Y-107352778D01*
X252892931Y-107398946D01*
X253099177Y-107445615D01*
X253104950Y-107445842D01*
X253110299Y-107446546D01*
X253175227Y-107475268D01*
X253214319Y-107534532D01*
X253215164Y-107605524D01*
X253177495Y-107665703D01*
X253115192Y-107695648D01*
X252956632Y-107722894D01*
X252950935Y-107723873D01*
X252752544Y-107797063D01*
X252570814Y-107905181D01*
X252411830Y-108044606D01*
X252280916Y-108210670D01*
X252278227Y-108215781D01*
X252278225Y-108215784D01*
X252224341Y-108318202D01*
X252182457Y-108397809D01*
X252119750Y-108599758D01*
X252094896Y-108809753D01*
X252108726Y-109020760D01*
X252160778Y-109225714D01*
X252249308Y-109417750D01*
X252371351Y-109590437D01*
X252522820Y-109737992D01*
X252527616Y-109741197D01*
X252527619Y-109741199D01*
X252573191Y-109771649D01*
X252698643Y-109855473D01*
X252703946Y-109857751D01*
X252703949Y-109857753D01*
X252853551Y-109922027D01*
X252892931Y-109938946D01*
X253099177Y-109985615D01*
X253104950Y-109985842D01*
X253110299Y-109986546D01*
X253175227Y-110015268D01*
X253214319Y-110074532D01*
X253215164Y-110145524D01*
X253177495Y-110205703D01*
X253115192Y-110235648D01*
X252956632Y-110262894D01*
X252950935Y-110263873D01*
X252752544Y-110337063D01*
X252747583Y-110340015D01*
X252747582Y-110340015D01*
X252582930Y-110437973D01*
X252570814Y-110445181D01*
X252411830Y-110584606D01*
X252280916Y-110750670D01*
X252278227Y-110755781D01*
X252278225Y-110755784D01*
X252239619Y-110829162D01*
X252182457Y-110937809D01*
X252119750Y-111139758D01*
X252094896Y-111349753D01*
X252108726Y-111560760D01*
X252160778Y-111765714D01*
X252249308Y-111957750D01*
X252371351Y-112130437D01*
X252522820Y-112277992D01*
X252527616Y-112281197D01*
X252527619Y-112281199D01*
X252573191Y-112311649D01*
X252698643Y-112395473D01*
X252703946Y-112397751D01*
X252703949Y-112397753D01*
X252853551Y-112462027D01*
X252892931Y-112478946D01*
X252993564Y-112501717D01*
X253054948Y-112515607D01*
X253116975Y-112550150D01*
X253150479Y-112612743D01*
X253144825Y-112683515D01*
X253101806Y-112739994D01*
X253035081Y-112764249D01*
X253027140Y-112764500D01*
X252400000Y-112764500D01*
X252398559Y-112764567D01*
X252398542Y-112764567D01*
X252384442Y-112765219D01*
X252371812Y-112765803D01*
X252263827Y-112796528D01*
X252174233Y-112864186D01*
X252115130Y-112959641D01*
X252112986Y-112971113D01*
X252112985Y-112971114D01*
X252109467Y-112989935D01*
X252094500Y-113070000D01*
X252094500Y-114770000D01*
X252094567Y-114771441D01*
X252094567Y-114771458D01*
X252095170Y-114784500D01*
X252095803Y-114798188D01*
X252126528Y-114906173D01*
X252194186Y-114995767D01*
X252289641Y-115054870D01*
X252301113Y-115057014D01*
X252301114Y-115057015D01*
X252394275Y-115074430D01*
X252394277Y-115074430D01*
X252400000Y-115075500D01*
X254100000Y-115075500D01*
X254101441Y-115075433D01*
X254101458Y-115075433D01*
X254115558Y-115074781D01*
X254128188Y-115074197D01*
X254236173Y-115043472D01*
X254325767Y-114975814D01*
X254384870Y-114880359D01*
X254390272Y-114851465D01*
X254404430Y-114775725D01*
X254404430Y-114775723D01*
X254405500Y-114770000D01*
X254405500Y-113070000D01*
X254405236Y-113064275D01*
X254404533Y-113049084D01*
X254404197Y-113041812D01*
X254373472Y-112933827D01*
X254305814Y-112844233D01*
X254210359Y-112785130D01*
X254198887Y-112782986D01*
X254198886Y-112782985D01*
X254105725Y-112765570D01*
X254105723Y-112765570D01*
X254100000Y-112764500D01*
X253467264Y-112764500D01*
X253399143Y-112744498D01*
X253352650Y-112690842D01*
X253342546Y-112620568D01*
X253372040Y-112555988D01*
X253431766Y-112517604D01*
X253449184Y-112513804D01*
X253514032Y-112504402D01*
X253514037Y-112504401D01*
X253519746Y-112503573D01*
X253525210Y-112501718D01*
X253525215Y-112501717D01*
X253714512Y-112437460D01*
X253714517Y-112437458D01*
X253719984Y-112435602D01*
X253734982Y-112427203D01*
X253797371Y-112392263D01*
X253904482Y-112332278D01*
X254067062Y-112197062D01*
X254202278Y-112034482D01*
X254287207Y-111882830D01*
X254302778Y-111855027D01*
X254302779Y-111855025D01*
X254305602Y-111849984D01*
X254307458Y-111844517D01*
X254307460Y-111844512D01*
X254371717Y-111655215D01*
X254371718Y-111655210D01*
X254373573Y-111649746D01*
X254374401Y-111644037D01*
X254374402Y-111644032D01*
X254398603Y-111477118D01*
X254403916Y-111440474D01*
X254405500Y-111380000D01*
X254391931Y-111232325D01*
X254386680Y-111175181D01*
X254386679Y-111175178D01*
X254386151Y-111169427D01*
X254377784Y-111139758D01*
X254330320Y-110971465D01*
X254330319Y-110971463D01*
X254328752Y-110965906D01*
X254321171Y-110950532D01*
X254237781Y-110781434D01*
X254235226Y-110776253D01*
X254108704Y-110606820D01*
X253953424Y-110463280D01*
X253948541Y-110460199D01*
X253948537Y-110460196D01*
X253779470Y-110353523D01*
X253779465Y-110353521D01*
X253774586Y-110350442D01*
X253578180Y-110272084D01*
X253436592Y-110243920D01*
X253375650Y-110231798D01*
X253312741Y-110198890D01*
X253277609Y-110137195D01*
X253281409Y-110066300D01*
X253322935Y-110008714D01*
X253382151Y-109983523D01*
X253417042Y-109978464D01*
X253514032Y-109964402D01*
X253514037Y-109964401D01*
X253519746Y-109963573D01*
X253525210Y-109961718D01*
X253525215Y-109961717D01*
X253714512Y-109897460D01*
X253714517Y-109897458D01*
X253719984Y-109895602D01*
X253904482Y-109792278D01*
X254067062Y-109657062D01*
X254202278Y-109494482D01*
X254291311Y-109335502D01*
X254302778Y-109315027D01*
X254302779Y-109315025D01*
X254305602Y-109309984D01*
X254307458Y-109304517D01*
X254307460Y-109304512D01*
X254371717Y-109115215D01*
X254371718Y-109115210D01*
X254373573Y-109109746D01*
X254374401Y-109104037D01*
X254374402Y-109104032D01*
X254403383Y-108904148D01*
X254403916Y-108900474D01*
X254405500Y-108840000D01*
X254386151Y-108629427D01*
X254377784Y-108599758D01*
X254330320Y-108431465D01*
X254330319Y-108431463D01*
X254328752Y-108425906D01*
X254314897Y-108397809D01*
X254237781Y-108241434D01*
X254235226Y-108236253D01*
X254108704Y-108066820D01*
X253953424Y-107923280D01*
X253948541Y-107920199D01*
X253948537Y-107920196D01*
X253779470Y-107813523D01*
X253779465Y-107813521D01*
X253774586Y-107810442D01*
X253578180Y-107732084D01*
X253395005Y-107695648D01*
X253375650Y-107691798D01*
X253312741Y-107658890D01*
X253277609Y-107597195D01*
X253281409Y-107526300D01*
X253322935Y-107468714D01*
X253382151Y-107443523D01*
X253417042Y-107438464D01*
X253514032Y-107424402D01*
X253514037Y-107424401D01*
X253519746Y-107423573D01*
X253525210Y-107421718D01*
X253525215Y-107421717D01*
X253714512Y-107357460D01*
X253714517Y-107357458D01*
X253719984Y-107355602D01*
X253904482Y-107252278D01*
X254067062Y-107117062D01*
X254202278Y-106954482D01*
X254300336Y-106779387D01*
X254302778Y-106775027D01*
X254302779Y-106775025D01*
X254305602Y-106769984D01*
X254307458Y-106764517D01*
X254307460Y-106764512D01*
X254371717Y-106575215D01*
X254371718Y-106575210D01*
X254373573Y-106569746D01*
X254374401Y-106564037D01*
X254374402Y-106564032D01*
X254403383Y-106364148D01*
X254403916Y-106360474D01*
X254405500Y-106300000D01*
X254386151Y-106089427D01*
X254377784Y-106059758D01*
X254330320Y-105891465D01*
X254330319Y-105891463D01*
X254328752Y-105885906D01*
X254314897Y-105857809D01*
X254237781Y-105701434D01*
X254235226Y-105696253D01*
X254108704Y-105526820D01*
X253953424Y-105383280D01*
X253948541Y-105380199D01*
X253948537Y-105380196D01*
X253779470Y-105273523D01*
X253779465Y-105273521D01*
X253774586Y-105270442D01*
X253578180Y-105192084D01*
X253395005Y-105155648D01*
X253375650Y-105151798D01*
X253312741Y-105118890D01*
X253277609Y-105057195D01*
X253281409Y-104986300D01*
X253322935Y-104928714D01*
X253382151Y-104903523D01*
X253417042Y-104898464D01*
X253514032Y-104884402D01*
X253514037Y-104884401D01*
X253519746Y-104883573D01*
X253525210Y-104881718D01*
X253525215Y-104881717D01*
X253714512Y-104817460D01*
X253714517Y-104817458D01*
X253719984Y-104815602D01*
X253904482Y-104712278D01*
X254067062Y-104577062D01*
X254202278Y-104414482D01*
X254300336Y-104239387D01*
X254302778Y-104235027D01*
X254302779Y-104235025D01*
X254305602Y-104229984D01*
X254307458Y-104224517D01*
X254307460Y-104224512D01*
X254371717Y-104035215D01*
X254371718Y-104035210D01*
X254373573Y-104029746D01*
X254374401Y-104024037D01*
X254374402Y-104024032D01*
X254403383Y-103824148D01*
X254403916Y-103820474D01*
X254405500Y-103760000D01*
X254386151Y-103549427D01*
X254381130Y-103531622D01*
X254330320Y-103351465D01*
X254330319Y-103351463D01*
X254328752Y-103345906D01*
X254318380Y-103324872D01*
X254237781Y-103161434D01*
X254235226Y-103156253D01*
X254108704Y-102986820D01*
X254027694Y-102911935D01*
X253957669Y-102847204D01*
X253953424Y-102843280D01*
X253948541Y-102840199D01*
X253948537Y-102840196D01*
X253779470Y-102733523D01*
X253779465Y-102733521D01*
X253774586Y-102730442D01*
X253578180Y-102652084D01*
X253395005Y-102615648D01*
X253375650Y-102611798D01*
X253312741Y-102578890D01*
X253277609Y-102517195D01*
X253281409Y-102446300D01*
X253322935Y-102388714D01*
X253382151Y-102363523D01*
X253417042Y-102358464D01*
X253514032Y-102344402D01*
X253514037Y-102344401D01*
X253519746Y-102343573D01*
X253525210Y-102341718D01*
X253525215Y-102341717D01*
X253714512Y-102277460D01*
X253714517Y-102277458D01*
X253719984Y-102275602D01*
X253904482Y-102172278D01*
X254067062Y-102037062D01*
X254202278Y-101874482D01*
X254291311Y-101715502D01*
X254302778Y-101695027D01*
X254302779Y-101695025D01*
X254305602Y-101689984D01*
X254307458Y-101684517D01*
X254307460Y-101684512D01*
X254371717Y-101495215D01*
X254371718Y-101495210D01*
X254373573Y-101489746D01*
X254374401Y-101484037D01*
X254374402Y-101484032D01*
X254403383Y-101284148D01*
X254403916Y-101280474D01*
X254405500Y-101220000D01*
X254386151Y-101009427D01*
X254378559Y-100982506D01*
X254330320Y-100811465D01*
X254330319Y-100811463D01*
X254328752Y-100805906D01*
X254322238Y-100792695D01*
X254237781Y-100621434D01*
X254235226Y-100616253D01*
X254108704Y-100446820D01*
X253953424Y-100303280D01*
X253948541Y-100300199D01*
X253948537Y-100300196D01*
X253779470Y-100193523D01*
X253779465Y-100193521D01*
X253774586Y-100190442D01*
X253578180Y-100112084D01*
X253395005Y-100075648D01*
X253375650Y-100071798D01*
X253312741Y-100038890D01*
X253277609Y-99977195D01*
X253281409Y-99906300D01*
X253322935Y-99848714D01*
X253382151Y-99823523D01*
X253417042Y-99818464D01*
X253514032Y-99804402D01*
X253514037Y-99804401D01*
X253519746Y-99803573D01*
X253525210Y-99801718D01*
X253525215Y-99801717D01*
X253714512Y-99737460D01*
X253714517Y-99737458D01*
X253719984Y-99735602D01*
X253904482Y-99632278D01*
X254067062Y-99497062D01*
X254202278Y-99334482D01*
X254305602Y-99149984D01*
X254307458Y-99144517D01*
X254307460Y-99144512D01*
X254371717Y-98955215D01*
X254371718Y-98955210D01*
X254373573Y-98949746D01*
X254374401Y-98944037D01*
X254374402Y-98944032D01*
X254403383Y-98744148D01*
X254403916Y-98740474D01*
X254405500Y-98680000D01*
X254386151Y-98469427D01*
X254377784Y-98439758D01*
X254330320Y-98271465D01*
X254330319Y-98271463D01*
X254328752Y-98265906D01*
X254322239Y-98252697D01*
X254237781Y-98081434D01*
X254235226Y-98076253D01*
X254222998Y-98059877D01*
X254112161Y-97911450D01*
X254108704Y-97906820D01*
X253953424Y-97763280D01*
X253948541Y-97760199D01*
X253948537Y-97760196D01*
X253779470Y-97653523D01*
X253779465Y-97653521D01*
X253774586Y-97650442D01*
X253578180Y-97572084D01*
X253395005Y-97535648D01*
X253375650Y-97531798D01*
X253312741Y-97498890D01*
X253277609Y-97437195D01*
X253281409Y-97366300D01*
X253322935Y-97308714D01*
X253382151Y-97283523D01*
X253417042Y-97278464D01*
X253514032Y-97264402D01*
X253514037Y-97264401D01*
X253519746Y-97263573D01*
X253525210Y-97261718D01*
X253525215Y-97261717D01*
X253714512Y-97197460D01*
X253714517Y-97197458D01*
X253719984Y-97195602D01*
X253726922Y-97191717D01*
X253841660Y-97127460D01*
X253904482Y-97092278D01*
X254067062Y-96957062D01*
X254202278Y-96794482D01*
X254300462Y-96619162D01*
X254302778Y-96615027D01*
X254302779Y-96615025D01*
X254305602Y-96609984D01*
X254307458Y-96604517D01*
X254307460Y-96604512D01*
X254371717Y-96415215D01*
X254371718Y-96415210D01*
X254373573Y-96409746D01*
X254374401Y-96404037D01*
X254374402Y-96404032D01*
X254395813Y-96256362D01*
X254403916Y-96200474D01*
X254405500Y-96140000D01*
X254386151Y-95929427D01*
X254384380Y-95923145D01*
X254330320Y-95731465D01*
X254330319Y-95731463D01*
X254328752Y-95725906D01*
X254314897Y-95697809D01*
X254237781Y-95541434D01*
X254235226Y-95536253D01*
X254226247Y-95524228D01*
X254167669Y-95445784D01*
X254108704Y-95366820D01*
X253977464Y-95245502D01*
X253957669Y-95227204D01*
X253953424Y-95223280D01*
X253948541Y-95220199D01*
X253948537Y-95220196D01*
X253779470Y-95113523D01*
X253779465Y-95113521D01*
X253774586Y-95110442D01*
X253578180Y-95032084D01*
X253395005Y-94995648D01*
X253375650Y-94991798D01*
X253312741Y-94958890D01*
X253277609Y-94897195D01*
X253281409Y-94826300D01*
X253322935Y-94768714D01*
X253382151Y-94743523D01*
X253417042Y-94738464D01*
X253514032Y-94724402D01*
X253514037Y-94724401D01*
X253519746Y-94723573D01*
X253525210Y-94721718D01*
X253525215Y-94721717D01*
X253714512Y-94657460D01*
X253714517Y-94657458D01*
X253719984Y-94655602D01*
X253726922Y-94651717D01*
X253818004Y-94600708D01*
X253904482Y-94552278D01*
X254067062Y-94417062D01*
X254202278Y-94254482D01*
X254305602Y-94069984D01*
X254307458Y-94064517D01*
X254307460Y-94064512D01*
X254371717Y-93875215D01*
X254371718Y-93875210D01*
X254373573Y-93869746D01*
X254374401Y-93864037D01*
X254374402Y-93864032D01*
X254393235Y-93734138D01*
X254403916Y-93660474D01*
X254405500Y-93600000D01*
X254388976Y-93420167D01*
X254386680Y-93395181D01*
X254386679Y-93395178D01*
X254386151Y-93389427D01*
X254377784Y-93359758D01*
X254330320Y-93191465D01*
X254330319Y-93191463D01*
X254328752Y-93185906D01*
X254314897Y-93157809D01*
X254237781Y-93001434D01*
X254235226Y-92996253D01*
X254108704Y-92826820D01*
X253953424Y-92683280D01*
X253948541Y-92680199D01*
X253948537Y-92680196D01*
X253779470Y-92573523D01*
X253779465Y-92573521D01*
X253774586Y-92570442D01*
X253639367Y-92516495D01*
X253583544Y-92494224D01*
X253578180Y-92492084D01*
X253395005Y-92455648D01*
X253375650Y-92451798D01*
X253312741Y-92418890D01*
X253277609Y-92357195D01*
X253281409Y-92286300D01*
X253322935Y-92228714D01*
X253382151Y-92203523D01*
X253417042Y-92198464D01*
X253514032Y-92184402D01*
X253514037Y-92184401D01*
X253519746Y-92183573D01*
X253525210Y-92181718D01*
X253525215Y-92181717D01*
X253714512Y-92117460D01*
X253714517Y-92117458D01*
X253719984Y-92115602D01*
X253726922Y-92111717D01*
X253816549Y-92061523D01*
X253904482Y-92012278D01*
X254067062Y-91877062D01*
X254202278Y-91714482D01*
X254287389Y-91562505D01*
X254302778Y-91535027D01*
X254302779Y-91535025D01*
X254305602Y-91529984D01*
X254307458Y-91524517D01*
X254307460Y-91524512D01*
X254371717Y-91335215D01*
X254371718Y-91335210D01*
X254373573Y-91329746D01*
X254374401Y-91324037D01*
X254374402Y-91324032D01*
X254403383Y-91124148D01*
X254403916Y-91120474D01*
X254405500Y-91060000D01*
X254386151Y-90849427D01*
X254377784Y-90819758D01*
X254330320Y-90651465D01*
X254330319Y-90651463D01*
X254328752Y-90645906D01*
X254314897Y-90617809D01*
X254237781Y-90461434D01*
X254235226Y-90456253D01*
X254226247Y-90444228D01*
X254167669Y-90365784D01*
X254108704Y-90286820D01*
X253953424Y-90143280D01*
X253948541Y-90140199D01*
X253948537Y-90140196D01*
X253779470Y-90033523D01*
X253779465Y-90033521D01*
X253774586Y-90030442D01*
X253578180Y-89952084D01*
X253395005Y-89915648D01*
X253375650Y-89911798D01*
X253312741Y-89878890D01*
X253277609Y-89817195D01*
X253281409Y-89746300D01*
X253322935Y-89688714D01*
X253382151Y-89663523D01*
X253417042Y-89658464D01*
X253514032Y-89644402D01*
X253514037Y-89644401D01*
X253519746Y-89643573D01*
X253525210Y-89641718D01*
X253525215Y-89641717D01*
X253714512Y-89577460D01*
X253714517Y-89577458D01*
X253719984Y-89575602D01*
X253904482Y-89472278D01*
X254067062Y-89337062D01*
X254202278Y-89174482D01*
X254291311Y-89015502D01*
X254302778Y-88995027D01*
X254302779Y-88995025D01*
X254305602Y-88989984D01*
X254307458Y-88984517D01*
X254307460Y-88984512D01*
X254371717Y-88795215D01*
X254371718Y-88795210D01*
X254373573Y-88789746D01*
X254374401Y-88784037D01*
X254374402Y-88784032D01*
X254403383Y-88584148D01*
X254403916Y-88580474D01*
X254405500Y-88520000D01*
X254386151Y-88309427D01*
X254363515Y-88229164D01*
X254330320Y-88111465D01*
X254330319Y-88111463D01*
X254328752Y-88105906D01*
X254322239Y-88092697D01*
X254237781Y-87921434D01*
X254235226Y-87916253D01*
X254108704Y-87746820D01*
X253953424Y-87603280D01*
X253948541Y-87600199D01*
X253948537Y-87600196D01*
X253779470Y-87493523D01*
X253779465Y-87493521D01*
X253774586Y-87490442D01*
X253578180Y-87412084D01*
X253387891Y-87374233D01*
X253375650Y-87371798D01*
X253312741Y-87338890D01*
X253277609Y-87277195D01*
X253281409Y-87206300D01*
X253322935Y-87148714D01*
X253382151Y-87123523D01*
X253417042Y-87118464D01*
X253514032Y-87104402D01*
X253514037Y-87104401D01*
X253519746Y-87103573D01*
X253525210Y-87101718D01*
X253525215Y-87101717D01*
X253714512Y-87037460D01*
X253714517Y-87037458D01*
X253719984Y-87035602D01*
X253904482Y-86932278D01*
X254067062Y-86797062D01*
X254202278Y-86634482D01*
X254271185Y-86511439D01*
X254302778Y-86455027D01*
X254302779Y-86455025D01*
X254305602Y-86449984D01*
X254307458Y-86444517D01*
X254307460Y-86444512D01*
X254371717Y-86255215D01*
X254371718Y-86255210D01*
X254373573Y-86249746D01*
X254374401Y-86244037D01*
X254374402Y-86244032D01*
X254398988Y-86074464D01*
X254403916Y-86040474D01*
X254405500Y-85980000D01*
X254386151Y-85769427D01*
X254377784Y-85739758D01*
X254330320Y-85571465D01*
X254330319Y-85571463D01*
X254328752Y-85565906D01*
X254314897Y-85537809D01*
X254237781Y-85381434D01*
X254235226Y-85376253D01*
X254108704Y-85206820D01*
X253953424Y-85063280D01*
X253948541Y-85060199D01*
X253948537Y-85060196D01*
X253779470Y-84953523D01*
X253779465Y-84953521D01*
X253774586Y-84950442D01*
X253578180Y-84872084D01*
X253432197Y-84843046D01*
X253375650Y-84831798D01*
X253312741Y-84798890D01*
X253277609Y-84737195D01*
X253281409Y-84666300D01*
X253322935Y-84608714D01*
X253382151Y-84583523D01*
X253417042Y-84578464D01*
X253514032Y-84564402D01*
X253514037Y-84564401D01*
X253519746Y-84563573D01*
X253525210Y-84561718D01*
X253525215Y-84561717D01*
X253714512Y-84497460D01*
X253714517Y-84497458D01*
X253719984Y-84495602D01*
X253904482Y-84392278D01*
X254067062Y-84257062D01*
X254202278Y-84094482D01*
X254291311Y-83935502D01*
X254302778Y-83915027D01*
X254302779Y-83915025D01*
X254305602Y-83909984D01*
X254307458Y-83904517D01*
X254307460Y-83904512D01*
X254371717Y-83715215D01*
X254371718Y-83715210D01*
X254373573Y-83709746D01*
X254374401Y-83704037D01*
X254374402Y-83704032D01*
X254398988Y-83534464D01*
X254403916Y-83500474D01*
X254405500Y-83440000D01*
X254389904Y-83270272D01*
X254386680Y-83235181D01*
X254386679Y-83235178D01*
X254386151Y-83229427D01*
X254377784Y-83199758D01*
X254330320Y-83031465D01*
X254330319Y-83031463D01*
X254328752Y-83025906D01*
X254314897Y-82997809D01*
X254237781Y-82841434D01*
X254235226Y-82836253D01*
X254108704Y-82666820D01*
X253953424Y-82523280D01*
X253948541Y-82520199D01*
X253948537Y-82520196D01*
X253779470Y-82413523D01*
X253779465Y-82413521D01*
X253774586Y-82410442D01*
X253578180Y-82332084D01*
X253448541Y-82306297D01*
X253374188Y-82291507D01*
X253311279Y-82258599D01*
X253276147Y-82196904D01*
X253279947Y-82126009D01*
X253321473Y-82068423D01*
X253380690Y-82043232D01*
X253513915Y-82023916D01*
X253525098Y-82021231D01*
X253714313Y-81957001D01*
X253724816Y-81952325D01*
X253899162Y-81854687D01*
X253908637Y-81848175D01*
X254062276Y-81720394D01*
X254070394Y-81712276D01*
X254198175Y-81558637D01*
X254204687Y-81549162D01*
X254302325Y-81374816D01*
X254307001Y-81364313D01*
X254371228Y-81175106D01*
X254372469Y-81169935D01*
X254370767Y-81157993D01*
X254357199Y-81154000D01*
X252145955Y-81154000D01*
X252132424Y-81157973D01*
X252131132Y-81166962D01*
X252159828Y-81279952D01*
X252163666Y-81290790D01*
X252247323Y-81472255D01*
X252253074Y-81482216D01*
X252368399Y-81645397D01*
X252375865Y-81654139D01*
X252519001Y-81793577D01*
X252527934Y-81800811D01*
X252694078Y-81911824D01*
X252704188Y-81917314D01*
X252887778Y-81996190D01*
X252898721Y-81999745D01*
X253093606Y-82043844D01*
X253110743Y-82046100D01*
X253110444Y-82048369D01*
X253168282Y-82067851D01*
X253212631Y-82123292D01*
X253219967Y-82193908D01*
X253187959Y-82257281D01*
X253126771Y-82293288D01*
X253117390Y-82295270D01*
X252950935Y-82323873D01*
X252752544Y-82397063D01*
X252747583Y-82400015D01*
X252747582Y-82400015D01*
X252608089Y-82483005D01*
X252570814Y-82505181D01*
X252411830Y-82644606D01*
X252280916Y-82810670D01*
X252235406Y-82897170D01*
X252185989Y-82948140D01*
X252123900Y-82964500D01*
X237809148Y-82964500D01*
X237741027Y-82944498D01*
X237720053Y-82927595D01*
X228484221Y-73691762D01*
X228476941Y-73682652D01*
X228476526Y-73683005D01*
X228470710Y-73676171D01*
X228465919Y-73668578D01*
X228427053Y-73634253D01*
X228421366Y-73628907D01*
X228411543Y-73619084D01*
X228406251Y-73615118D01*
X228404593Y-73613875D01*
X228396753Y-73607493D01*
X228370532Y-73584336D01*
X228363805Y-73578395D01*
X228355681Y-73574581D01*
X228350368Y-73571091D01*
X228343504Y-73566967D01*
X228337930Y-73563915D01*
X228330747Y-73558532D01*
X228289598Y-73543106D01*
X228280278Y-73539179D01*
X228274673Y-73536548D01*
X228240485Y-73520496D01*
X228231614Y-73519115D01*
X228225528Y-73517254D01*
X228217792Y-73515225D01*
X228211587Y-73513861D01*
X228203180Y-73510709D01*
X228179211Y-73508928D01*
X228159337Y-73507451D01*
X228149292Y-73506297D01*
X228145662Y-73505732D01*
X228137751Y-73504500D01*
X228124307Y-73504500D01*
X228114970Y-73504154D01*
X228100746Y-73503097D01*
X228067319Y-73500613D01*
X228058543Y-73502486D01*
X228049586Y-73503097D01*
X228049583Y-73503046D01*
X228035810Y-73504500D01*
X222157872Y-73504500D01*
X222146283Y-73503205D01*
X222146239Y-73503748D01*
X222137290Y-73503028D01*
X222128535Y-73501047D01*
X222093756Y-73503205D01*
X222076785Y-73504258D01*
X222068982Y-73504500D01*
X222055088Y-73504500D01*
X222047498Y-73505587D01*
X222046483Y-73505732D01*
X222036434Y-73506761D01*
X222017764Y-73507920D01*
X221992561Y-73509484D01*
X221984113Y-73512534D01*
X221977859Y-73513829D01*
X221970128Y-73515757D01*
X221964026Y-73517541D01*
X221955140Y-73518814D01*
X221915139Y-73537002D01*
X221905769Y-73540816D01*
X221864420Y-73555743D01*
X221857173Y-73561038D01*
X221851584Y-73564009D01*
X221844648Y-73568062D01*
X221839294Y-73571486D01*
X221831121Y-73575202D01*
X221824319Y-73581063D01*
X221797832Y-73603886D01*
X221789906Y-73610179D01*
X221780465Y-73617076D01*
X221770959Y-73626582D01*
X221764111Y-73632940D01*
X221734717Y-73658267D01*
X221734712Y-73658272D01*
X221727913Y-73664131D01*
X221723030Y-73671665D01*
X221717131Y-73678427D01*
X221717092Y-73678393D01*
X221708382Y-73689159D01*
X219911762Y-75485779D01*
X219902652Y-75493059D01*
X219903005Y-75493474D01*
X219896171Y-75499290D01*
X219888578Y-75504081D01*
X219882636Y-75510809D01*
X219882635Y-75510810D01*
X219854254Y-75542946D01*
X219848907Y-75548634D01*
X219839084Y-75558457D01*
X219836391Y-75562051D01*
X219833875Y-75565407D01*
X219827493Y-75573247D01*
X219798395Y-75606195D01*
X219794581Y-75614319D01*
X219791091Y-75619632D01*
X219786967Y-75626496D01*
X219783915Y-75632070D01*
X219778532Y-75639253D01*
X219775381Y-75647659D01*
X219763106Y-75680402D01*
X219759179Y-75689722D01*
X219740496Y-75729515D01*
X219739115Y-75738386D01*
X219737254Y-75744472D01*
X219735225Y-75752208D01*
X219733861Y-75758413D01*
X219730709Y-75766820D01*
X219730044Y-75775773D01*
X219727451Y-75810663D01*
X219726297Y-75820708D01*
X219724500Y-75832249D01*
X219724500Y-75845693D01*
X219724154Y-75855030D01*
X219720613Y-75902681D01*
X219722486Y-75911457D01*
X219723097Y-75920414D01*
X219723046Y-75920417D01*
X219724500Y-75934190D01*
X219724500Y-79118500D01*
X219704498Y-79186621D01*
X219650842Y-79233114D01*
X219598500Y-79244500D01*
X219350000Y-79244500D01*
X219348559Y-79244567D01*
X219348542Y-79244567D01*
X219334442Y-79245219D01*
X219321812Y-79245803D01*
X219213827Y-79276528D01*
X219124233Y-79344186D01*
X219065130Y-79439641D01*
X219062986Y-79451113D01*
X219062985Y-79451114D01*
X219053188Y-79503523D01*
X219044500Y-79550000D01*
X219044500Y-81250000D01*
X219044567Y-81251441D01*
X219044567Y-81251458D01*
X219044858Y-81257753D01*
X219045803Y-81278188D01*
X219076528Y-81386173D01*
X219144186Y-81475767D01*
X219239641Y-81534870D01*
X219251113Y-81537014D01*
X219251114Y-81537015D01*
X219344275Y-81554430D01*
X219344277Y-81554430D01*
X219350000Y-81555500D01*
X219985473Y-81555500D01*
X220053594Y-81575502D01*
X220100087Y-81629158D01*
X220110191Y-81699432D01*
X220080697Y-81764012D01*
X220020971Y-81802396D01*
X220006811Y-81805680D01*
X219900935Y-81823873D01*
X219702544Y-81897063D01*
X219697583Y-81900015D01*
X219697582Y-81900015D01*
X219535927Y-81996190D01*
X219520814Y-82005181D01*
X219361830Y-82144606D01*
X219230916Y-82310670D01*
X219228227Y-82315781D01*
X219228225Y-82315784D01*
X219195284Y-82378395D01*
X219132457Y-82497809D01*
X219069750Y-82699758D01*
X219044896Y-82909753D01*
X219058726Y-83120760D01*
X219110778Y-83325714D01*
X219199308Y-83517750D01*
X219321351Y-83690437D01*
X219325485Y-83694464D01*
X219434761Y-83800916D01*
X219472820Y-83837992D01*
X219477616Y-83841197D01*
X219477619Y-83841199D01*
X219584961Y-83912922D01*
X219648643Y-83955473D01*
X219653946Y-83957751D01*
X219653949Y-83957753D01*
X219781388Y-84012505D01*
X219842931Y-84038946D01*
X220049177Y-84085615D01*
X220054946Y-84085842D01*
X220054949Y-84085842D01*
X220135242Y-84088996D01*
X220260474Y-84093916D01*
X220348693Y-84081125D01*
X220464032Y-84064402D01*
X220464037Y-84064401D01*
X220469746Y-84063573D01*
X220475210Y-84061718D01*
X220475215Y-84061717D01*
X220664512Y-83997460D01*
X220664517Y-83997458D01*
X220669984Y-83995602D01*
X220854482Y-83892278D01*
X221017062Y-83757062D01*
X221152278Y-83594482D01*
X221216428Y-83479934D01*
X221267164Y-83430272D01*
X221326362Y-83415500D01*
X221602133Y-83415500D01*
X221613719Y-83416794D01*
X221613763Y-83416251D01*
X221622709Y-83416971D01*
X221631465Y-83418952D01*
X221683205Y-83415742D01*
X221691006Y-83415500D01*
X221704912Y-83415500D01*
X221713515Y-83414268D01*
X221723573Y-83413238D01*
X221767439Y-83410516D01*
X221775886Y-83407467D01*
X221782137Y-83406172D01*
X221789864Y-83404245D01*
X221795972Y-83402459D01*
X221804860Y-83401186D01*
X221844876Y-83382991D01*
X221854239Y-83379180D01*
X221895580Y-83364256D01*
X221902826Y-83358962D01*
X221908434Y-83355981D01*
X221915358Y-83351935D01*
X221920709Y-83348513D01*
X221928879Y-83344798D01*
X221962188Y-83316098D01*
X221970104Y-83309813D01*
X221975604Y-83305795D01*
X221975605Y-83305794D01*
X221979535Y-83302923D01*
X221982972Y-83299486D01*
X221982979Y-83299480D01*
X221989034Y-83293424D01*
X221995882Y-83287066D01*
X222025285Y-83261731D01*
X222025289Y-83261727D01*
X222032087Y-83255869D01*
X222036968Y-83248339D01*
X222042871Y-83241572D01*
X222042909Y-83241605D01*
X222051620Y-83230838D01*
X222848241Y-82434218D01*
X222857349Y-82426941D01*
X222856995Y-82426526D01*
X222863829Y-82420710D01*
X222871422Y-82415919D01*
X222889840Y-82395065D01*
X222905746Y-82377054D01*
X222911093Y-82371366D01*
X222920916Y-82361543D01*
X222926125Y-82354593D01*
X222932507Y-82346753D01*
X222955664Y-82320532D01*
X222961605Y-82313805D01*
X222965419Y-82305681D01*
X222968909Y-82300368D01*
X222973033Y-82293504D01*
X222976085Y-82287930D01*
X222981468Y-82280747D01*
X222996896Y-82239593D01*
X223000820Y-82230282D01*
X223015689Y-82198612D01*
X223015690Y-82198608D01*
X223019504Y-82190485D01*
X223020885Y-82181615D01*
X223022736Y-82175561D01*
X223024773Y-82167797D01*
X223026138Y-82161588D01*
X223029290Y-82153180D01*
X223032547Y-82109347D01*
X223033702Y-82099301D01*
X223034750Y-82092572D01*
X223034751Y-82092563D01*
X223035500Y-82087751D01*
X223035500Y-82074290D01*
X223035847Y-82064952D01*
X223038722Y-82026270D01*
X223038722Y-82026268D01*
X223039387Y-82017319D01*
X223037514Y-82008544D01*
X223036903Y-81999582D01*
X223036953Y-81999579D01*
X223035500Y-81985810D01*
X223035500Y-76869149D01*
X223055502Y-76801028D01*
X223072405Y-76780053D01*
X223950055Y-75902404D01*
X224012367Y-75868379D01*
X224039150Y-75865500D01*
X227130851Y-75865500D01*
X227198972Y-75885502D01*
X227219947Y-75902405D01*
X228037596Y-76720055D01*
X228071621Y-76782367D01*
X228074500Y-76809150D01*
X228074500Y-110430852D01*
X228054498Y-110498973D01*
X228037595Y-110519947D01*
X226570838Y-111986704D01*
X226508527Y-112020729D01*
X226437712Y-112015664D01*
X226380876Y-111973117D01*
X226356065Y-111906597D01*
X226365977Y-111850111D01*
X226365602Y-111849984D01*
X226365837Y-111849291D01*
X226419426Y-111691422D01*
X226431717Y-111655215D01*
X226431718Y-111655210D01*
X226433573Y-111649746D01*
X226434401Y-111644037D01*
X226434402Y-111644032D01*
X226458603Y-111477118D01*
X226463916Y-111440474D01*
X226465500Y-111380000D01*
X226451931Y-111232325D01*
X226446680Y-111175181D01*
X226446679Y-111175178D01*
X226446151Y-111169427D01*
X226437784Y-111139758D01*
X226390320Y-110971465D01*
X226390319Y-110971463D01*
X226388752Y-110965906D01*
X226381171Y-110950532D01*
X226297781Y-110781434D01*
X226295226Y-110776253D01*
X226168704Y-110606820D01*
X226013424Y-110463280D01*
X226008541Y-110460199D01*
X226008537Y-110460196D01*
X225839470Y-110353523D01*
X225839465Y-110353521D01*
X225834586Y-110350442D01*
X225638180Y-110272084D01*
X225496592Y-110243920D01*
X225435650Y-110231798D01*
X225372741Y-110198890D01*
X225337609Y-110137195D01*
X225341409Y-110066300D01*
X225382935Y-110008714D01*
X225442151Y-109983523D01*
X225477042Y-109978464D01*
X225574032Y-109964402D01*
X225574037Y-109964401D01*
X225579746Y-109963573D01*
X225585210Y-109961718D01*
X225585215Y-109961717D01*
X225774512Y-109897460D01*
X225774517Y-109897458D01*
X225779984Y-109895602D01*
X225964482Y-109792278D01*
X226127062Y-109657062D01*
X226262278Y-109494482D01*
X226351311Y-109335502D01*
X226362778Y-109315027D01*
X226362779Y-109315025D01*
X226365602Y-109309984D01*
X226367458Y-109304517D01*
X226367460Y-109304512D01*
X226431717Y-109115215D01*
X226431718Y-109115210D01*
X226433573Y-109109746D01*
X226434401Y-109104037D01*
X226434402Y-109104032D01*
X226463383Y-108904148D01*
X226463916Y-108900474D01*
X226465500Y-108840000D01*
X226446151Y-108629427D01*
X226437784Y-108599758D01*
X226390320Y-108431465D01*
X226390319Y-108431463D01*
X226388752Y-108425906D01*
X226374897Y-108397809D01*
X226297781Y-108241434D01*
X226295226Y-108236253D01*
X226168704Y-108066820D01*
X226013424Y-107923280D01*
X226008541Y-107920199D01*
X226008537Y-107920196D01*
X225839470Y-107813523D01*
X225839465Y-107813521D01*
X225834586Y-107810442D01*
X225638180Y-107732084D01*
X225455005Y-107695648D01*
X225435650Y-107691798D01*
X225372741Y-107658890D01*
X225337609Y-107597195D01*
X225341409Y-107526300D01*
X225382935Y-107468714D01*
X225442151Y-107443523D01*
X225477042Y-107438464D01*
X225574032Y-107424402D01*
X225574037Y-107424401D01*
X225579746Y-107423573D01*
X225585210Y-107421718D01*
X225585215Y-107421717D01*
X225774512Y-107357460D01*
X225774517Y-107357458D01*
X225779984Y-107355602D01*
X225964482Y-107252278D01*
X226127062Y-107117062D01*
X226262278Y-106954482D01*
X226360336Y-106779387D01*
X226362778Y-106775027D01*
X226362779Y-106775025D01*
X226365602Y-106769984D01*
X226367458Y-106764517D01*
X226367460Y-106764512D01*
X226431717Y-106575215D01*
X226431718Y-106575210D01*
X226433573Y-106569746D01*
X226434401Y-106564037D01*
X226434402Y-106564032D01*
X226463383Y-106364148D01*
X226463916Y-106360474D01*
X226465500Y-106300000D01*
X226446151Y-106089427D01*
X226437784Y-106059758D01*
X226390320Y-105891465D01*
X226390319Y-105891463D01*
X226388752Y-105885906D01*
X226374897Y-105857809D01*
X226297781Y-105701434D01*
X226295226Y-105696253D01*
X226168704Y-105526820D01*
X226013424Y-105383280D01*
X226008541Y-105380199D01*
X226008537Y-105380196D01*
X225839470Y-105273523D01*
X225839465Y-105273521D01*
X225834586Y-105270442D01*
X225638180Y-105192084D01*
X225455005Y-105155648D01*
X225435650Y-105151798D01*
X225372741Y-105118890D01*
X225337609Y-105057195D01*
X225341409Y-104986300D01*
X225382935Y-104928714D01*
X225442151Y-104903523D01*
X225477042Y-104898464D01*
X225574032Y-104884402D01*
X225574037Y-104884401D01*
X225579746Y-104883573D01*
X225585210Y-104881718D01*
X225585215Y-104881717D01*
X225774512Y-104817460D01*
X225774517Y-104817458D01*
X225779984Y-104815602D01*
X225964482Y-104712278D01*
X226127062Y-104577062D01*
X226262278Y-104414482D01*
X226360336Y-104239387D01*
X226362778Y-104235027D01*
X226362779Y-104235025D01*
X226365602Y-104229984D01*
X226367458Y-104224517D01*
X226367460Y-104224512D01*
X226431717Y-104035215D01*
X226431718Y-104035210D01*
X226433573Y-104029746D01*
X226434401Y-104024037D01*
X226434402Y-104024032D01*
X226463383Y-103824148D01*
X226463916Y-103820474D01*
X226465500Y-103760000D01*
X226446151Y-103549427D01*
X226441130Y-103531622D01*
X226390320Y-103351465D01*
X226390319Y-103351463D01*
X226388752Y-103345906D01*
X226378380Y-103324872D01*
X226297781Y-103161434D01*
X226295226Y-103156253D01*
X226168704Y-102986820D01*
X226087694Y-102911935D01*
X226017669Y-102847204D01*
X226013424Y-102843280D01*
X226008541Y-102840199D01*
X226008537Y-102840196D01*
X225839470Y-102733523D01*
X225839465Y-102733521D01*
X225834586Y-102730442D01*
X225638180Y-102652084D01*
X225455005Y-102615648D01*
X225435650Y-102611798D01*
X225372741Y-102578890D01*
X225337609Y-102517195D01*
X225341409Y-102446300D01*
X225382935Y-102388714D01*
X225442151Y-102363523D01*
X225477042Y-102358464D01*
X225574032Y-102344402D01*
X225574037Y-102344401D01*
X225579746Y-102343573D01*
X225585210Y-102341718D01*
X225585215Y-102341717D01*
X225774512Y-102277460D01*
X225774517Y-102277458D01*
X225779984Y-102275602D01*
X225964482Y-102172278D01*
X226127062Y-102037062D01*
X226262278Y-101874482D01*
X226351311Y-101715502D01*
X226362778Y-101695027D01*
X226362779Y-101695025D01*
X226365602Y-101689984D01*
X226367458Y-101684517D01*
X226367460Y-101684512D01*
X226431717Y-101495215D01*
X226431718Y-101495210D01*
X226433573Y-101489746D01*
X226434401Y-101484037D01*
X226434402Y-101484032D01*
X226463383Y-101284148D01*
X226463916Y-101280474D01*
X226465500Y-101220000D01*
X226446151Y-101009427D01*
X226438559Y-100982506D01*
X226390320Y-100811465D01*
X226390319Y-100811463D01*
X226388752Y-100805906D01*
X226382238Y-100792695D01*
X226297781Y-100621434D01*
X226295226Y-100616253D01*
X226168704Y-100446820D01*
X226013424Y-100303280D01*
X226008541Y-100300199D01*
X226008537Y-100300196D01*
X225839470Y-100193523D01*
X225839465Y-100193521D01*
X225834586Y-100190442D01*
X225638180Y-100112084D01*
X225455005Y-100075648D01*
X225435650Y-100071798D01*
X225372741Y-100038890D01*
X225337609Y-99977195D01*
X225341409Y-99906300D01*
X225382935Y-99848714D01*
X225442151Y-99823523D01*
X225477042Y-99818464D01*
X225574032Y-99804402D01*
X225574037Y-99804401D01*
X225579746Y-99803573D01*
X225585210Y-99801718D01*
X225585215Y-99801717D01*
X225774512Y-99737460D01*
X225774517Y-99737458D01*
X225779984Y-99735602D01*
X225964482Y-99632278D01*
X226127062Y-99497062D01*
X226262278Y-99334482D01*
X226365602Y-99149984D01*
X226367458Y-99144517D01*
X226367460Y-99144512D01*
X226431717Y-98955215D01*
X226431718Y-98955210D01*
X226433573Y-98949746D01*
X226434401Y-98944037D01*
X226434402Y-98944032D01*
X226463383Y-98744148D01*
X226463916Y-98740474D01*
X226465500Y-98680000D01*
X226446151Y-98469427D01*
X226437784Y-98439758D01*
X226390320Y-98271465D01*
X226390319Y-98271463D01*
X226388752Y-98265906D01*
X226382239Y-98252697D01*
X226297781Y-98081434D01*
X226295226Y-98076253D01*
X226282998Y-98059877D01*
X226172161Y-97911450D01*
X226168704Y-97906820D01*
X226013424Y-97763280D01*
X226008541Y-97760199D01*
X226008537Y-97760196D01*
X225839470Y-97653523D01*
X225839465Y-97653521D01*
X225834586Y-97650442D01*
X225638180Y-97572084D01*
X225455005Y-97535648D01*
X225435650Y-97531798D01*
X225372741Y-97498890D01*
X225337609Y-97437195D01*
X225341409Y-97366300D01*
X225382935Y-97308714D01*
X225442151Y-97283523D01*
X225477042Y-97278464D01*
X225574032Y-97264402D01*
X225574037Y-97264401D01*
X225579746Y-97263573D01*
X225585210Y-97261718D01*
X225585215Y-97261717D01*
X225774512Y-97197460D01*
X225774517Y-97197458D01*
X225779984Y-97195602D01*
X225786922Y-97191717D01*
X225901660Y-97127460D01*
X225964482Y-97092278D01*
X226127062Y-96957062D01*
X226262278Y-96794482D01*
X226360462Y-96619162D01*
X226362778Y-96615027D01*
X226362779Y-96615025D01*
X226365602Y-96609984D01*
X226367458Y-96604517D01*
X226367460Y-96604512D01*
X226431717Y-96415215D01*
X226431718Y-96415210D01*
X226433573Y-96409746D01*
X226434401Y-96404037D01*
X226434402Y-96404032D01*
X226455813Y-96256362D01*
X226463916Y-96200474D01*
X226465500Y-96140000D01*
X226446151Y-95929427D01*
X226444380Y-95923145D01*
X226390320Y-95731465D01*
X226390319Y-95731463D01*
X226388752Y-95725906D01*
X226374897Y-95697809D01*
X226297781Y-95541434D01*
X226295226Y-95536253D01*
X226286247Y-95524228D01*
X226227669Y-95445784D01*
X226168704Y-95366820D01*
X226037464Y-95245502D01*
X226017669Y-95227204D01*
X226013424Y-95223280D01*
X226008541Y-95220199D01*
X226008537Y-95220196D01*
X225839470Y-95113523D01*
X225839465Y-95113521D01*
X225834586Y-95110442D01*
X225638180Y-95032084D01*
X225455005Y-94995648D01*
X225435650Y-94991798D01*
X225372741Y-94958890D01*
X225337609Y-94897195D01*
X225341409Y-94826300D01*
X225382935Y-94768714D01*
X225442151Y-94743523D01*
X225477042Y-94738464D01*
X225574032Y-94724402D01*
X225574037Y-94724401D01*
X225579746Y-94723573D01*
X225585210Y-94721718D01*
X225585215Y-94721717D01*
X225774512Y-94657460D01*
X225774517Y-94657458D01*
X225779984Y-94655602D01*
X225786922Y-94651717D01*
X225878004Y-94600708D01*
X225964482Y-94552278D01*
X226127062Y-94417062D01*
X226262278Y-94254482D01*
X226365602Y-94069984D01*
X226367458Y-94064517D01*
X226367460Y-94064512D01*
X226431717Y-93875215D01*
X226431718Y-93875210D01*
X226433573Y-93869746D01*
X226434401Y-93864037D01*
X226434402Y-93864032D01*
X226453235Y-93734138D01*
X226463916Y-93660474D01*
X226465500Y-93600000D01*
X226448976Y-93420167D01*
X226446680Y-93395181D01*
X226446679Y-93395178D01*
X226446151Y-93389427D01*
X226437784Y-93359758D01*
X226390320Y-93191465D01*
X226390319Y-93191463D01*
X226388752Y-93185906D01*
X226374897Y-93157809D01*
X226297781Y-93001434D01*
X226295226Y-92996253D01*
X226168704Y-92826820D01*
X226013424Y-92683280D01*
X226008541Y-92680199D01*
X226008537Y-92680196D01*
X225839470Y-92573523D01*
X225839465Y-92573521D01*
X225834586Y-92570442D01*
X225699367Y-92516495D01*
X225643544Y-92494224D01*
X225638180Y-92492084D01*
X225455005Y-92455648D01*
X225435650Y-92451798D01*
X225372741Y-92418890D01*
X225337609Y-92357195D01*
X225341409Y-92286300D01*
X225382935Y-92228714D01*
X225442151Y-92203523D01*
X225477042Y-92198464D01*
X225574032Y-92184402D01*
X225574037Y-92184401D01*
X225579746Y-92183573D01*
X225585210Y-92181718D01*
X225585215Y-92181717D01*
X225774512Y-92117460D01*
X225774517Y-92117458D01*
X225779984Y-92115602D01*
X225786922Y-92111717D01*
X225876549Y-92061523D01*
X225964482Y-92012278D01*
X226127062Y-91877062D01*
X226262278Y-91714482D01*
X226347389Y-91562505D01*
X226362778Y-91535027D01*
X226362779Y-91535025D01*
X226365602Y-91529984D01*
X226367458Y-91524517D01*
X226367460Y-91524512D01*
X226431717Y-91335215D01*
X226431718Y-91335210D01*
X226433573Y-91329746D01*
X226434401Y-91324037D01*
X226434402Y-91324032D01*
X226463383Y-91124148D01*
X226463916Y-91120474D01*
X226465500Y-91060000D01*
X226446151Y-90849427D01*
X226437784Y-90819758D01*
X226390320Y-90651465D01*
X226390319Y-90651463D01*
X226388752Y-90645906D01*
X226374897Y-90617809D01*
X226297781Y-90461434D01*
X226295226Y-90456253D01*
X226286247Y-90444228D01*
X226227669Y-90365784D01*
X226168704Y-90286820D01*
X226013424Y-90143280D01*
X226008541Y-90140199D01*
X226008537Y-90140196D01*
X225839470Y-90033523D01*
X225839465Y-90033521D01*
X225834586Y-90030442D01*
X225638180Y-89952084D01*
X225455005Y-89915648D01*
X225435650Y-89911798D01*
X225372741Y-89878890D01*
X225337609Y-89817195D01*
X225341409Y-89746300D01*
X225382935Y-89688714D01*
X225442151Y-89663523D01*
X225477042Y-89658464D01*
X225574032Y-89644402D01*
X225574037Y-89644401D01*
X225579746Y-89643573D01*
X225585210Y-89641718D01*
X225585215Y-89641717D01*
X225774512Y-89577460D01*
X225774517Y-89577458D01*
X225779984Y-89575602D01*
X225964482Y-89472278D01*
X226127062Y-89337062D01*
X226262278Y-89174482D01*
X226351311Y-89015502D01*
X226362778Y-88995027D01*
X226362779Y-88995025D01*
X226365602Y-88989984D01*
X226367458Y-88984517D01*
X226367460Y-88984512D01*
X226431717Y-88795215D01*
X226431718Y-88795210D01*
X226433573Y-88789746D01*
X226434401Y-88784037D01*
X226434402Y-88784032D01*
X226463383Y-88584148D01*
X226463916Y-88580474D01*
X226465500Y-88520000D01*
X226446151Y-88309427D01*
X226423515Y-88229164D01*
X226390320Y-88111465D01*
X226390319Y-88111463D01*
X226388752Y-88105906D01*
X226382239Y-88092697D01*
X226297781Y-87921434D01*
X226295226Y-87916253D01*
X226168704Y-87746820D01*
X226013424Y-87603280D01*
X226008541Y-87600199D01*
X226008537Y-87600196D01*
X225839470Y-87493523D01*
X225839465Y-87493521D01*
X225834586Y-87490442D01*
X225638180Y-87412084D01*
X225447891Y-87374233D01*
X225435650Y-87371798D01*
X225372741Y-87338890D01*
X225337609Y-87277195D01*
X225341409Y-87206300D01*
X225382935Y-87148714D01*
X225442151Y-87123523D01*
X225477042Y-87118464D01*
X225574032Y-87104402D01*
X225574037Y-87104401D01*
X225579746Y-87103573D01*
X225585210Y-87101718D01*
X225585215Y-87101717D01*
X225774512Y-87037460D01*
X225774517Y-87037458D01*
X225779984Y-87035602D01*
X225964482Y-86932278D01*
X226127062Y-86797062D01*
X226262278Y-86634482D01*
X226331185Y-86511439D01*
X226362778Y-86455027D01*
X226362779Y-86455025D01*
X226365602Y-86449984D01*
X226367458Y-86444517D01*
X226367460Y-86444512D01*
X226431717Y-86255215D01*
X226431718Y-86255210D01*
X226433573Y-86249746D01*
X226434401Y-86244037D01*
X226434402Y-86244032D01*
X226458988Y-86074464D01*
X226463916Y-86040474D01*
X226465500Y-85980000D01*
X226446151Y-85769427D01*
X226437784Y-85739758D01*
X226390320Y-85571465D01*
X226390319Y-85571463D01*
X226388752Y-85565906D01*
X226374897Y-85537809D01*
X226297781Y-85381434D01*
X226295226Y-85376253D01*
X226168704Y-85206820D01*
X226013424Y-85063280D01*
X226008541Y-85060199D01*
X226008537Y-85060196D01*
X225839470Y-84953523D01*
X225839465Y-84953521D01*
X225834586Y-84950442D01*
X225638180Y-84872084D01*
X225492197Y-84843046D01*
X225435650Y-84831798D01*
X225372741Y-84798890D01*
X225337609Y-84737195D01*
X225341409Y-84666300D01*
X225382935Y-84608714D01*
X225442151Y-84583523D01*
X225477042Y-84578464D01*
X225574032Y-84564402D01*
X225574037Y-84564401D01*
X225579746Y-84563573D01*
X225585210Y-84561718D01*
X225585215Y-84561717D01*
X225774512Y-84497460D01*
X225774517Y-84497458D01*
X225779984Y-84495602D01*
X225964482Y-84392278D01*
X226127062Y-84257062D01*
X226262278Y-84094482D01*
X226351311Y-83935502D01*
X226362778Y-83915027D01*
X226362779Y-83915025D01*
X226365602Y-83909984D01*
X226367458Y-83904517D01*
X226367460Y-83904512D01*
X226431717Y-83715215D01*
X226431718Y-83715210D01*
X226433573Y-83709746D01*
X226434401Y-83704037D01*
X226434402Y-83704032D01*
X226458988Y-83534464D01*
X226463916Y-83500474D01*
X226465500Y-83440000D01*
X226449904Y-83270272D01*
X226446680Y-83235181D01*
X226446679Y-83235178D01*
X226446151Y-83229427D01*
X226437784Y-83199758D01*
X226390320Y-83031465D01*
X226390319Y-83031463D01*
X226388752Y-83025906D01*
X226374897Y-82997809D01*
X226297781Y-82841434D01*
X226295226Y-82836253D01*
X226168704Y-82666820D01*
X226013424Y-82523280D01*
X226008541Y-82520199D01*
X226008537Y-82520196D01*
X225839470Y-82413523D01*
X225839465Y-82413521D01*
X225834586Y-82410442D01*
X225638180Y-82332084D01*
X225492197Y-82303046D01*
X225435650Y-82291798D01*
X225372741Y-82258890D01*
X225337609Y-82197195D01*
X225341409Y-82126300D01*
X225382935Y-82068714D01*
X225442151Y-82043523D01*
X225477042Y-82038464D01*
X225574032Y-82024402D01*
X225574037Y-82024401D01*
X225579746Y-82023573D01*
X225585210Y-82021718D01*
X225585215Y-82021717D01*
X225774512Y-81957460D01*
X225774517Y-81957458D01*
X225779984Y-81955602D01*
X225785836Y-81952325D01*
X225864444Y-81908302D01*
X225964482Y-81852278D01*
X226127062Y-81717062D01*
X226262278Y-81554482D01*
X226351318Y-81395490D01*
X226362778Y-81375027D01*
X226362779Y-81375025D01*
X226365602Y-81369984D01*
X226367458Y-81364517D01*
X226367460Y-81364512D01*
X226431717Y-81175215D01*
X226431718Y-81175210D01*
X226433573Y-81169746D01*
X226434401Y-81164037D01*
X226434402Y-81164032D01*
X226458988Y-80994464D01*
X226463916Y-80960474D01*
X226465500Y-80900000D01*
X226446151Y-80689427D01*
X226437784Y-80659758D01*
X226390320Y-80491465D01*
X226390319Y-80491463D01*
X226388752Y-80485906D01*
X226374897Y-80457809D01*
X226297781Y-80301434D01*
X226295226Y-80296253D01*
X226286825Y-80285002D01*
X226220035Y-80195560D01*
X226168704Y-80126820D01*
X226037458Y-80005497D01*
X226017669Y-79987204D01*
X226013424Y-79983280D01*
X226008541Y-79980199D01*
X226008537Y-79980196D01*
X225839470Y-79873523D01*
X225839465Y-79873521D01*
X225834586Y-79870442D01*
X225638180Y-79792084D01*
X225445679Y-79753793D01*
X225435650Y-79751798D01*
X225372741Y-79718890D01*
X225337609Y-79657195D01*
X225341409Y-79586300D01*
X225382935Y-79528714D01*
X225442151Y-79503523D01*
X225477042Y-79498464D01*
X225574032Y-79484402D01*
X225574037Y-79484401D01*
X225579746Y-79483573D01*
X225585210Y-79481718D01*
X225585215Y-79481717D01*
X225774512Y-79417460D01*
X225774517Y-79417458D01*
X225779984Y-79415602D01*
X225964482Y-79312278D01*
X226127062Y-79177062D01*
X226262278Y-79014482D01*
X226360336Y-78839387D01*
X226362778Y-78835027D01*
X226362779Y-78835025D01*
X226365602Y-78829984D01*
X226367458Y-78824517D01*
X226367460Y-78824512D01*
X226431717Y-78635215D01*
X226431718Y-78635210D01*
X226433573Y-78629746D01*
X226434401Y-78624037D01*
X226434402Y-78624032D01*
X226463383Y-78424148D01*
X226463916Y-78420474D01*
X226465500Y-78360000D01*
X226446151Y-78149427D01*
X226437784Y-78119758D01*
X226390320Y-77951465D01*
X226390319Y-77951463D01*
X226388752Y-77945906D01*
X226374897Y-77917809D01*
X226297781Y-77761434D01*
X226295226Y-77756253D01*
X226168704Y-77586820D01*
X226013424Y-77443280D01*
X226008541Y-77440199D01*
X226008537Y-77440196D01*
X225839470Y-77333523D01*
X225839465Y-77333521D01*
X225834586Y-77330442D01*
X225638180Y-77252084D01*
X225632520Y-77250958D01*
X225632516Y-77250957D01*
X225436450Y-77211957D01*
X225436447Y-77211957D01*
X225430783Y-77210830D01*
X225425008Y-77210754D01*
X225425004Y-77210754D01*
X225319064Y-77209367D01*
X225219341Y-77208062D01*
X225213644Y-77209041D01*
X225213643Y-77209041D01*
X225016632Y-77242894D01*
X225010935Y-77243873D01*
X224812544Y-77317063D01*
X224807583Y-77320015D01*
X224807582Y-77320015D01*
X224668089Y-77403005D01*
X224630814Y-77425181D01*
X224471830Y-77564606D01*
X224340916Y-77730670D01*
X224338227Y-77735781D01*
X224338225Y-77735784D01*
X224284341Y-77838202D01*
X224242457Y-77917809D01*
X224179750Y-78119758D01*
X224154896Y-78329753D01*
X224168726Y-78540760D01*
X224220778Y-78745714D01*
X224309308Y-78937750D01*
X224431351Y-79110437D01*
X224452415Y-79130957D01*
X224572354Y-79247796D01*
X224582820Y-79257992D01*
X224587616Y-79261197D01*
X224587619Y-79261199D01*
X224681957Y-79324233D01*
X224758643Y-79375473D01*
X224763946Y-79377751D01*
X224763949Y-79377753D01*
X224947624Y-79456666D01*
X224952931Y-79458946D01*
X225159177Y-79505615D01*
X225164950Y-79505842D01*
X225170299Y-79506546D01*
X225235227Y-79535268D01*
X225274319Y-79594532D01*
X225275164Y-79665524D01*
X225237495Y-79725703D01*
X225175192Y-79755648D01*
X225016632Y-79782894D01*
X225010935Y-79783873D01*
X224812544Y-79857063D01*
X224807583Y-79860015D01*
X224807582Y-79860015D01*
X224683551Y-79933806D01*
X224630814Y-79965181D01*
X224471830Y-80104606D01*
X224340916Y-80270670D01*
X224338227Y-80275781D01*
X224338225Y-80275784D01*
X224319296Y-80311762D01*
X224242457Y-80457809D01*
X224179750Y-80659758D01*
X224154896Y-80869753D01*
X224168726Y-81080760D01*
X224220778Y-81285714D01*
X224309308Y-81477750D01*
X224431351Y-81650437D01*
X224452416Y-81670958D01*
X224572627Y-81788062D01*
X224582820Y-81797992D01*
X224587616Y-81801197D01*
X224587619Y-81801199D01*
X224686403Y-81867204D01*
X224758643Y-81915473D01*
X224763946Y-81917751D01*
X224763949Y-81917753D01*
X224946516Y-81996190D01*
X224952931Y-81998946D01*
X225159177Y-82045615D01*
X225164950Y-82045842D01*
X225170299Y-82046546D01*
X225235227Y-82075268D01*
X225274319Y-82134532D01*
X225275164Y-82205524D01*
X225237495Y-82265703D01*
X225175192Y-82295648D01*
X225030378Y-82320532D01*
X225010935Y-82323873D01*
X224812544Y-82397063D01*
X224807583Y-82400015D01*
X224807582Y-82400015D01*
X224668089Y-82483005D01*
X224630814Y-82505181D01*
X224471830Y-82644606D01*
X224340916Y-82810670D01*
X224338227Y-82815781D01*
X224338225Y-82815784D01*
X224291804Y-82904017D01*
X224242457Y-82997809D01*
X224179750Y-83199758D01*
X224154896Y-83409753D01*
X224168726Y-83620760D01*
X224220778Y-83825714D01*
X224309308Y-84017750D01*
X224431351Y-84190437D01*
X224582820Y-84337992D01*
X224587616Y-84341197D01*
X224587619Y-84341199D01*
X224686403Y-84407204D01*
X224758643Y-84455473D01*
X224763946Y-84457751D01*
X224763949Y-84457753D01*
X224947624Y-84536666D01*
X224952931Y-84538946D01*
X225159177Y-84585615D01*
X225164950Y-84585842D01*
X225170299Y-84586546D01*
X225235227Y-84615268D01*
X225274319Y-84674532D01*
X225275164Y-84745524D01*
X225237495Y-84805703D01*
X225175192Y-84835648D01*
X225016632Y-84862894D01*
X225010935Y-84863873D01*
X224812544Y-84937063D01*
X224807583Y-84940015D01*
X224807582Y-84940015D01*
X224668089Y-85023005D01*
X224630814Y-85045181D01*
X224471830Y-85184606D01*
X224340916Y-85350670D01*
X224242457Y-85537809D01*
X224179750Y-85739758D01*
X224154896Y-85949753D01*
X224168726Y-86160760D01*
X224220778Y-86365714D01*
X224309308Y-86557750D01*
X224431351Y-86730437D01*
X224582820Y-86877992D01*
X224587616Y-86881197D01*
X224587619Y-86881199D01*
X224658530Y-86928580D01*
X224758643Y-86995473D01*
X224763946Y-86997751D01*
X224763949Y-86997753D01*
X224845472Y-87032778D01*
X224952931Y-87078946D01*
X225159177Y-87125615D01*
X225164950Y-87125842D01*
X225170299Y-87126546D01*
X225235227Y-87155268D01*
X225274319Y-87214532D01*
X225275164Y-87285524D01*
X225237495Y-87345703D01*
X225175192Y-87375648D01*
X225016632Y-87402894D01*
X225010935Y-87403873D01*
X224812544Y-87477063D01*
X224630814Y-87585181D01*
X224471830Y-87724606D01*
X224340916Y-87890670D01*
X224295406Y-87977170D01*
X224245989Y-88028140D01*
X224183900Y-88044500D01*
X221481500Y-88044500D01*
X221413379Y-88024498D01*
X221366886Y-87970842D01*
X221355500Y-87918500D01*
X221355500Y-87600000D01*
X221355236Y-87594275D01*
X221354533Y-87579084D01*
X221354197Y-87571812D01*
X221323472Y-87463827D01*
X221255814Y-87374233D01*
X221160359Y-87315130D01*
X221148887Y-87312986D01*
X221148886Y-87312985D01*
X221055725Y-87295570D01*
X221055723Y-87295570D01*
X221050000Y-87294500D01*
X219350000Y-87294500D01*
X219348559Y-87294567D01*
X219348542Y-87294567D01*
X219334442Y-87295219D01*
X219321812Y-87295803D01*
X219213827Y-87326528D01*
X219124233Y-87394186D01*
X219065130Y-87489641D01*
X219044500Y-87600000D01*
X219044500Y-89300000D01*
X219044567Y-89301441D01*
X219044567Y-89301458D01*
X219045219Y-89315558D01*
X219045803Y-89328188D01*
X219076528Y-89436173D01*
X219144186Y-89525767D01*
X219239641Y-89584870D01*
X219251113Y-89587014D01*
X219251114Y-89587015D01*
X219344275Y-89604430D01*
X219344277Y-89604430D01*
X219350000Y-89605500D01*
X219985473Y-89605500D01*
X220053594Y-89625502D01*
X220100087Y-89679158D01*
X220110191Y-89749432D01*
X220080697Y-89814012D01*
X220020971Y-89852396D01*
X220006811Y-89855680D01*
X219900935Y-89873873D01*
X219702544Y-89947063D01*
X219697583Y-89950015D01*
X219697582Y-89950015D01*
X219536174Y-90046043D01*
X219520814Y-90055181D01*
X219361830Y-90194606D01*
X219230916Y-90360670D01*
X219228227Y-90365781D01*
X219228225Y-90365784D01*
X219180627Y-90456253D01*
X219132457Y-90547809D01*
X219069750Y-90749758D01*
X219044896Y-90959753D01*
X219058726Y-91170760D01*
X219110778Y-91375714D01*
X219199308Y-91567750D01*
X219321351Y-91740437D01*
X219325485Y-91744464D01*
X219407245Y-91824111D01*
X219472820Y-91887992D01*
X219477616Y-91891197D01*
X219477619Y-91891199D01*
X219603245Y-91975139D01*
X219648643Y-92005473D01*
X219653946Y-92007751D01*
X219653949Y-92007753D01*
X219837624Y-92086666D01*
X219842931Y-92088946D01*
X220049177Y-92135615D01*
X220054950Y-92135842D01*
X220060299Y-92136546D01*
X220125227Y-92165268D01*
X220164319Y-92224532D01*
X220165164Y-92295524D01*
X220127495Y-92355703D01*
X220065192Y-92385648D01*
X219906632Y-92412894D01*
X219900935Y-92413873D01*
X219702544Y-92487063D01*
X219697583Y-92490015D01*
X219697582Y-92490015D01*
X219553127Y-92575957D01*
X219520814Y-92595181D01*
X219361830Y-92734606D01*
X219230916Y-92900670D01*
X219228227Y-92905781D01*
X219228225Y-92905784D01*
X219180627Y-92996253D01*
X219132457Y-93087809D01*
X219069750Y-93289758D01*
X219044896Y-93499753D01*
X219058726Y-93710760D01*
X219110778Y-93915714D01*
X219199308Y-94107750D01*
X219321351Y-94280437D01*
X219472820Y-94427992D01*
X219477616Y-94431197D01*
X219477619Y-94431199D01*
X219582382Y-94501199D01*
X219648643Y-94545473D01*
X219653946Y-94547751D01*
X219653949Y-94547753D01*
X219835359Y-94625693D01*
X219842931Y-94628946D01*
X220049177Y-94675615D01*
X220054950Y-94675842D01*
X220060299Y-94676546D01*
X220125227Y-94705268D01*
X220164319Y-94764532D01*
X220165164Y-94835524D01*
X220127495Y-94895703D01*
X220065192Y-94925648D01*
X219906632Y-94952894D01*
X219900935Y-94953873D01*
X219702544Y-95027063D01*
X219697583Y-95030015D01*
X219697582Y-95030015D01*
X219547740Y-95119162D01*
X219520814Y-95135181D01*
X219361830Y-95274606D01*
X219230916Y-95440670D01*
X219228227Y-95445781D01*
X219228225Y-95445784D01*
X219180627Y-95536253D01*
X219132457Y-95627809D01*
X219069750Y-95829758D01*
X219044896Y-96039753D01*
X219058726Y-96250760D01*
X219110778Y-96455714D01*
X219199308Y-96647750D01*
X219321351Y-96820437D01*
X219325485Y-96824464D01*
X219453297Y-96948973D01*
X219472820Y-96967992D01*
X219477616Y-96971197D01*
X219477619Y-96971199D01*
X219579161Y-97039047D01*
X219648643Y-97085473D01*
X219653946Y-97087751D01*
X219653949Y-97087753D01*
X219837624Y-97166666D01*
X219842931Y-97168946D01*
X219943564Y-97191717D01*
X220039605Y-97213449D01*
X220049177Y-97215615D01*
X220054946Y-97215842D01*
X220054949Y-97215842D01*
X220135242Y-97218996D01*
X220260474Y-97223916D01*
X220348693Y-97211125D01*
X220464032Y-97194402D01*
X220464037Y-97194401D01*
X220469746Y-97193573D01*
X220475210Y-97191718D01*
X220475215Y-97191717D01*
X220664512Y-97127460D01*
X220664517Y-97127458D01*
X220669984Y-97125602D01*
X220854482Y-97022278D01*
X221017062Y-96887062D01*
X221152278Y-96724482D01*
X221216428Y-96609934D01*
X221267164Y-96560272D01*
X221326362Y-96545500D01*
X224149242Y-96545500D01*
X224217363Y-96565502D01*
X224263667Y-96618748D01*
X224309308Y-96717750D01*
X224431351Y-96890437D01*
X224582820Y-97037992D01*
X224587616Y-97041197D01*
X224587619Y-97041199D01*
X224725022Y-97133008D01*
X224758643Y-97155473D01*
X224763946Y-97157751D01*
X224763949Y-97157753D01*
X224899155Y-97215842D01*
X224952931Y-97238946D01*
X225159177Y-97285615D01*
X225164950Y-97285842D01*
X225170299Y-97286546D01*
X225235227Y-97315268D01*
X225274319Y-97374532D01*
X225275164Y-97445524D01*
X225237495Y-97505703D01*
X225175192Y-97535648D01*
X225037792Y-97559258D01*
X225010935Y-97563873D01*
X224812544Y-97637063D01*
X224807583Y-97640015D01*
X224807582Y-97640015D01*
X224680043Y-97715893D01*
X224630814Y-97745181D01*
X224471830Y-97884606D01*
X224468259Y-97889136D01*
X224374367Y-98008238D01*
X224340916Y-98050670D01*
X224295406Y-98137170D01*
X224245989Y-98188140D01*
X224183900Y-98204500D01*
X221327867Y-98204500D01*
X221316281Y-98203206D01*
X221316237Y-98203749D01*
X221307291Y-98203029D01*
X221298535Y-98201048D01*
X221255000Y-98203749D01*
X221246796Y-98204258D01*
X221238994Y-98204500D01*
X221225088Y-98204500D01*
X221216485Y-98205732D01*
X221206427Y-98206762D01*
X221162561Y-98209484D01*
X221154114Y-98212533D01*
X221147863Y-98213828D01*
X221140136Y-98215755D01*
X221134028Y-98217541D01*
X221125140Y-98218814D01*
X221094620Y-98232691D01*
X221085128Y-98237007D01*
X221075761Y-98240820D01*
X221034420Y-98255744D01*
X221027174Y-98261038D01*
X221021566Y-98264019D01*
X221014642Y-98268065D01*
X221009291Y-98271487D01*
X221001121Y-98275202D01*
X220967812Y-98303902D01*
X220959896Y-98310187D01*
X220950465Y-98317077D01*
X220940966Y-98326576D01*
X220934118Y-98332934D01*
X220904715Y-98358269D01*
X220904711Y-98358273D01*
X220897913Y-98364131D01*
X220893032Y-98371661D01*
X220887129Y-98378428D01*
X220887091Y-98378395D01*
X220878378Y-98389164D01*
X218556297Y-100711244D01*
X218493985Y-100745270D01*
X218466544Y-100748147D01*
X218350548Y-100747540D01*
X218343169Y-100749312D01*
X218343165Y-100749312D01*
X218193097Y-100785340D01*
X218193093Y-100785341D01*
X218185718Y-100787112D01*
X218035086Y-100864859D01*
X218029364Y-100869851D01*
X218029362Y-100869852D01*
X217996789Y-100898267D01*
X217907347Y-100976292D01*
X217809876Y-101114979D01*
X217809680Y-101114841D01*
X217762726Y-101162516D01*
X217693469Y-101178136D01*
X217626762Y-101153833D01*
X217583783Y-101097323D01*
X217575500Y-101052392D01*
X217575500Y-92217873D01*
X217576795Y-92206284D01*
X217576252Y-92206240D01*
X217576972Y-92197291D01*
X217578953Y-92188536D01*
X217575742Y-92136786D01*
X217575500Y-92128983D01*
X217575500Y-92115088D01*
X217574866Y-92110659D01*
X217574865Y-92110651D01*
X217574269Y-92106492D01*
X217573237Y-92096423D01*
X217571072Y-92061523D01*
X217570516Y-92052561D01*
X217567467Y-92044114D01*
X217566173Y-92037868D01*
X217564243Y-92030128D01*
X217562459Y-92024026D01*
X217561186Y-92015140D01*
X217542998Y-91975139D01*
X217539183Y-91965768D01*
X217534922Y-91953965D01*
X217524257Y-91924420D01*
X217518962Y-91917173D01*
X217515991Y-91911584D01*
X217511938Y-91904648D01*
X217508514Y-91899294D01*
X217504798Y-91891121D01*
X217476113Y-91857831D01*
X217469821Y-91849906D01*
X217465803Y-91844406D01*
X217465802Y-91844405D01*
X217462924Y-91840465D01*
X217453418Y-91830959D01*
X217447060Y-91824111D01*
X217421733Y-91794717D01*
X217421728Y-91794712D01*
X217415869Y-91787913D01*
X217408335Y-91783030D01*
X217401573Y-91777131D01*
X217401607Y-91777092D01*
X217390841Y-91768382D01*
X216612405Y-90989946D01*
X216578379Y-90927634D01*
X216575500Y-90900851D01*
X216575500Y-90318204D01*
X216595502Y-90250083D01*
X216649158Y-90203590D01*
X216719432Y-90193486D01*
X216786300Y-90225011D01*
X216841317Y-90275073D01*
X216990288Y-90355957D01*
X217154253Y-90398973D01*
X217242481Y-90400359D01*
X217316147Y-90401516D01*
X217316150Y-90401516D01*
X217323745Y-90401635D01*
X217411109Y-90381626D01*
X217481577Y-90365487D01*
X217481581Y-90365486D01*
X217488980Y-90363791D01*
X217640418Y-90287626D01*
X217769316Y-90177536D01*
X217868234Y-90039877D01*
X217877405Y-90017063D01*
X217928626Y-89889650D01*
X217928627Y-89889648D01*
X217931461Y-89882597D01*
X217950413Y-89749432D01*
X217954764Y-89718859D01*
X217954764Y-89718856D01*
X217955345Y-89714775D01*
X217955500Y-89700000D01*
X217948772Y-89644402D01*
X217936048Y-89539258D01*
X217936048Y-89539257D01*
X217935135Y-89531715D01*
X217925348Y-89505814D01*
X217877902Y-89380250D01*
X217877901Y-89380248D01*
X217875217Y-89373145D01*
X217870918Y-89366890D01*
X217870916Y-89366886D01*
X217797660Y-89260299D01*
X217775500Y-89188932D01*
X217775500Y-74947867D01*
X217776794Y-74936281D01*
X217776251Y-74936237D01*
X217776971Y-74927291D01*
X217778952Y-74918535D01*
X217775742Y-74866795D01*
X217775500Y-74858994D01*
X217775500Y-74845088D01*
X217774268Y-74836485D01*
X217773237Y-74826421D01*
X217771072Y-74791524D01*
X217770516Y-74782561D01*
X217767467Y-74774114D01*
X217766172Y-74767863D01*
X217764243Y-74760128D01*
X217762458Y-74754026D01*
X217761186Y-74745140D01*
X217742993Y-74705125D01*
X217739181Y-74695761D01*
X217724256Y-74654419D01*
X217718960Y-74647170D01*
X217715992Y-74641587D01*
X217711919Y-74634618D01*
X217708514Y-74629293D01*
X217704798Y-74621121D01*
X217676101Y-74587816D01*
X217669815Y-74579899D01*
X217665798Y-74574400D01*
X217665797Y-74574399D01*
X217662923Y-74570465D01*
X217653424Y-74560966D01*
X217647066Y-74554118D01*
X217621731Y-74524715D01*
X217621727Y-74524711D01*
X217615869Y-74517913D01*
X217608339Y-74513032D01*
X217601572Y-74507129D01*
X217601605Y-74507091D01*
X217590836Y-74498378D01*
X216353013Y-73260554D01*
X216318987Y-73198242D01*
X216322794Y-73130959D01*
X216343573Y-73069746D01*
X216344401Y-73064037D01*
X216344402Y-73064032D01*
X216373383Y-72864148D01*
X216373916Y-72860474D01*
X216375500Y-72800000D01*
X216356812Y-72596620D01*
X216356680Y-72595181D01*
X216356679Y-72595178D01*
X216356151Y-72589427D01*
X216352246Y-72575578D01*
X216300320Y-72391465D01*
X216300319Y-72391463D01*
X216298752Y-72385906D01*
X216284897Y-72357809D01*
X216207781Y-72201434D01*
X216205226Y-72196253D01*
X216078704Y-72026820D01*
X215923424Y-71883280D01*
X215918541Y-71880199D01*
X215918537Y-71880196D01*
X215749470Y-71773523D01*
X215749465Y-71773521D01*
X215744586Y-71770442D01*
X215620531Y-71720949D01*
X215553544Y-71694224D01*
X215548180Y-71692084D01*
X215542520Y-71690958D01*
X215542516Y-71690957D01*
X215346450Y-71651957D01*
X215346447Y-71651957D01*
X215340783Y-71650830D01*
X215335008Y-71650754D01*
X215335004Y-71650754D01*
X215229064Y-71649367D01*
X215129341Y-71648062D01*
X215123644Y-71649041D01*
X215123643Y-71649041D01*
X214928791Y-71682523D01*
X214920935Y-71683873D01*
X214722544Y-71757063D01*
X214540814Y-71865181D01*
X214381830Y-72004606D01*
X214250916Y-72170670D01*
X214248227Y-72175781D01*
X214248225Y-72175784D01*
X214239890Y-72191626D01*
X214152457Y-72357809D01*
X214089750Y-72559758D01*
X214085387Y-72596620D01*
X214075097Y-72683562D01*
X214047227Y-72748859D01*
X213988478Y-72788723D01*
X213917504Y-72790497D01*
X213856837Y-72753618D01*
X213825740Y-72689794D01*
X213824499Y-72680281D01*
X213822677Y-72660444D01*
X213816812Y-72596620D01*
X213816680Y-72595181D01*
X213816679Y-72595178D01*
X213816151Y-72589427D01*
X213812246Y-72575578D01*
X213760320Y-72391465D01*
X213760319Y-72391463D01*
X213758752Y-72385906D01*
X213744897Y-72357809D01*
X213667781Y-72201434D01*
X213665226Y-72196253D01*
X213538704Y-72026820D01*
X213383424Y-71883280D01*
X213378541Y-71880199D01*
X213378537Y-71880196D01*
X213209470Y-71773523D01*
X213209465Y-71773521D01*
X213204586Y-71770442D01*
X213080531Y-71720949D01*
X213013544Y-71694224D01*
X213008180Y-71692084D01*
X213002520Y-71690958D01*
X213002516Y-71690957D01*
X212806450Y-71651957D01*
X212806447Y-71651957D01*
X212800783Y-71650830D01*
X212795008Y-71650754D01*
X212795004Y-71650754D01*
X212689064Y-71649367D01*
X212589341Y-71648062D01*
X212583644Y-71649041D01*
X212583643Y-71649041D01*
X212388791Y-71682523D01*
X212380935Y-71683873D01*
X212182544Y-71757063D01*
X212000814Y-71865181D01*
X211841830Y-72004606D01*
X211710916Y-72170670D01*
X211708227Y-72175781D01*
X211708225Y-72175784D01*
X211699890Y-72191626D01*
X211612457Y-72357809D01*
X211549750Y-72559758D01*
X211535486Y-72680281D01*
X211534816Y-72685940D01*
X211506946Y-72751238D01*
X211448198Y-72791102D01*
X211377223Y-72792877D01*
X211316556Y-72755998D01*
X211285459Y-72692174D01*
X211284218Y-72682661D01*
X211276188Y-72595274D01*
X211274090Y-72583954D01*
X211219854Y-72391649D01*
X211215729Y-72380902D01*
X211127354Y-72201695D01*
X211121344Y-72191887D01*
X211001785Y-72031778D01*
X210994096Y-72023238D01*
X210847354Y-71887592D01*
X210838238Y-71880598D01*
X210669245Y-71773970D01*
X210658994Y-71768746D01*
X210473402Y-71694703D01*
X210462374Y-71691436D01*
X210411770Y-71681371D01*
X210398894Y-71682523D01*
X210394000Y-71697676D01*
X210394000Y-73907238D01*
X210397966Y-73920744D01*
X210409966Y-73922462D01*
X210415106Y-73921228D01*
X210604313Y-73857001D01*
X210614816Y-73852325D01*
X210789162Y-73754687D01*
X210798637Y-73748175D01*
X210952276Y-73620394D01*
X210960394Y-73612276D01*
X211088175Y-73458637D01*
X211094687Y-73449162D01*
X211192325Y-73274816D01*
X211197001Y-73264313D01*
X211261231Y-73075098D01*
X211263915Y-73063915D01*
X211284906Y-72919144D01*
X211314476Y-72854598D01*
X211374247Y-72816286D01*
X211445244Y-72816370D01*
X211504924Y-72854825D01*
X211534341Y-72919441D01*
X211535332Y-72928982D01*
X211537425Y-72960913D01*
X211538726Y-72980760D01*
X211590778Y-73185714D01*
X211679308Y-73377750D01*
X211801351Y-73550437D01*
X211952820Y-73697992D01*
X211957616Y-73701197D01*
X211957619Y-73701199D01*
X212027924Y-73748175D01*
X212128643Y-73815473D01*
X212133946Y-73817751D01*
X212133949Y-73817753D01*
X212273270Y-73877610D01*
X212322931Y-73898946D01*
X212529177Y-73945615D01*
X212534946Y-73945842D01*
X212534949Y-73945842D01*
X212615242Y-73948996D01*
X212740474Y-73953916D01*
X212828693Y-73941125D01*
X212944032Y-73924402D01*
X212944037Y-73924401D01*
X212949746Y-73923573D01*
X213010960Y-73902794D01*
X213081894Y-73899839D01*
X213140554Y-73933013D01*
X215587595Y-76380054D01*
X215621621Y-76442366D01*
X215624500Y-76469149D01*
X215624500Y-91082133D01*
X215623206Y-91093719D01*
X215623749Y-91093763D01*
X215623029Y-91102709D01*
X215621048Y-91111465D01*
X215621604Y-91120425D01*
X215624258Y-91163204D01*
X215624500Y-91171006D01*
X215624500Y-91184912D01*
X215625136Y-91189352D01*
X215625732Y-91193515D01*
X215626762Y-91203573D01*
X215629484Y-91247439D01*
X215632533Y-91255886D01*
X215633828Y-91262137D01*
X215635755Y-91269864D01*
X215637541Y-91275972D01*
X215638814Y-91284860D01*
X215642530Y-91293032D01*
X215657007Y-91324872D01*
X215660820Y-91334239D01*
X215675744Y-91375580D01*
X215681038Y-91382826D01*
X215684019Y-91388434D01*
X215688065Y-91395358D01*
X215691487Y-91400709D01*
X215695202Y-91408879D01*
X215723902Y-91442188D01*
X215730187Y-91450104D01*
X215737077Y-91459535D01*
X215746576Y-91469034D01*
X215752934Y-91475882D01*
X215778269Y-91505285D01*
X215778273Y-91505289D01*
X215784131Y-91512087D01*
X215791661Y-91516968D01*
X215798428Y-91522871D01*
X215798395Y-91522909D01*
X215809164Y-91531622D01*
X216587595Y-92310053D01*
X216621621Y-92372365D01*
X216624500Y-92399148D01*
X216624500Y-92481880D01*
X216604498Y-92550001D01*
X216550842Y-92596494D01*
X216480568Y-92606598D01*
X216414681Y-92575957D01*
X216358309Y-92525732D01*
X216352638Y-92520679D01*
X216202829Y-92441359D01*
X216038423Y-92400063D01*
X216030825Y-92400023D01*
X216030823Y-92400023D01*
X215957792Y-92399641D01*
X215868912Y-92399176D01*
X215861533Y-92400948D01*
X215861529Y-92400948D01*
X215711461Y-92436976D01*
X215711457Y-92436977D01*
X215704082Y-92438748D01*
X215553450Y-92516495D01*
X215425711Y-92627928D01*
X215421344Y-92634142D01*
X215344460Y-92743537D01*
X215328240Y-92766615D01*
X215266665Y-92924549D01*
X215265674Y-92932078D01*
X215246930Y-93074453D01*
X215244539Y-93092612D01*
X215263140Y-93261102D01*
X215265750Y-93268233D01*
X215315962Y-93405443D01*
X215321395Y-93420290D01*
X215415940Y-93560988D01*
X215421557Y-93566099D01*
X215433301Y-93576786D01*
X215470223Y-93637427D01*
X215474500Y-93669978D01*
X215474500Y-103082133D01*
X215473206Y-103093719D01*
X215473749Y-103093763D01*
X215473029Y-103102709D01*
X215471048Y-103111465D01*
X215471958Y-103126131D01*
X215474258Y-103163204D01*
X215474500Y-103171006D01*
X215474500Y-103184912D01*
X215475136Y-103189352D01*
X215475732Y-103193515D01*
X215476762Y-103203573D01*
X215479484Y-103247439D01*
X215482533Y-103255886D01*
X215483828Y-103262137D01*
X215485755Y-103269864D01*
X215487541Y-103275972D01*
X215488814Y-103284860D01*
X215506308Y-103323334D01*
X215507007Y-103324872D01*
X215510820Y-103334239D01*
X215525744Y-103375580D01*
X215531038Y-103382826D01*
X215534019Y-103388434D01*
X215538065Y-103395358D01*
X215541487Y-103400709D01*
X215545202Y-103408879D01*
X215573902Y-103442188D01*
X215580187Y-103450104D01*
X215587077Y-103459535D01*
X215596576Y-103469034D01*
X215602934Y-103475882D01*
X215628269Y-103505285D01*
X215628273Y-103505289D01*
X215634131Y-103512087D01*
X215641661Y-103516968D01*
X215648428Y-103522871D01*
X215648395Y-103522909D01*
X215659164Y-103531622D01*
X223795776Y-111668234D01*
X223803058Y-111677347D01*
X223803473Y-111676994D01*
X223809290Y-111683829D01*
X223814081Y-111691422D01*
X223852954Y-111725753D01*
X223858642Y-111731100D01*
X223868458Y-111740916D01*
X223872054Y-111743611D01*
X223872055Y-111743612D01*
X223875401Y-111746120D01*
X223883240Y-111752501D01*
X223896332Y-111764063D01*
X223916195Y-111781605D01*
X223924325Y-111785422D01*
X223929627Y-111788905D01*
X223936522Y-111793048D01*
X223942071Y-111796085D01*
X223949253Y-111801468D01*
X223987030Y-111815630D01*
X223990402Y-111816894D01*
X223999722Y-111820821D01*
X224039515Y-111839504D01*
X224048386Y-111840885D01*
X224054472Y-111842746D01*
X224062217Y-111844778D01*
X224068418Y-111846141D01*
X224076820Y-111849291D01*
X224120683Y-111852551D01*
X224130698Y-111853701D01*
X224142249Y-111855500D01*
X224155697Y-111855500D01*
X224165033Y-111855847D01*
X224175232Y-111856605D01*
X224191768Y-111857834D01*
X224258219Y-111882830D01*
X224296853Y-111930735D01*
X224306887Y-111952500D01*
X224306890Y-111952505D01*
X224309308Y-111957750D01*
X224431351Y-112130437D01*
X224582820Y-112277992D01*
X224587616Y-112281197D01*
X224587619Y-112281199D01*
X224633191Y-112311649D01*
X224758643Y-112395473D01*
X224763946Y-112397751D01*
X224763949Y-112397753D01*
X224913551Y-112462027D01*
X224952931Y-112478946D01*
X225053564Y-112501717D01*
X225114948Y-112515607D01*
X225176975Y-112550150D01*
X225210479Y-112612743D01*
X225204825Y-112683515D01*
X225161806Y-112739994D01*
X225095081Y-112764249D01*
X225087140Y-112764500D01*
X224460000Y-112764500D01*
X224458559Y-112764567D01*
X224458542Y-112764567D01*
X224444442Y-112765219D01*
X224431812Y-112765803D01*
X224323827Y-112796528D01*
X224234233Y-112864186D01*
X224175130Y-112959641D01*
X224172986Y-112971113D01*
X224172985Y-112971114D01*
X224169467Y-112989935D01*
X224154500Y-113070000D01*
X224154500Y-114770000D01*
X224154567Y-114771441D01*
X224154567Y-114771458D01*
X224155170Y-114784500D01*
X224155803Y-114798188D01*
X224186528Y-114906173D01*
X224254186Y-114995767D01*
X224349641Y-115054870D01*
X224361113Y-115057014D01*
X224361114Y-115057015D01*
X224454275Y-115074430D01*
X224454277Y-115074430D01*
X224460000Y-115075500D01*
X226160000Y-115075500D01*
X226161441Y-115075433D01*
X226161458Y-115075433D01*
X226175558Y-115074781D01*
X226188188Y-115074197D01*
X226296173Y-115043472D01*
X226385767Y-114975814D01*
X226444870Y-114880359D01*
X226450272Y-114851465D01*
X226464430Y-114775725D01*
X226464430Y-114775723D01*
X226465500Y-114770000D01*
X226465500Y-113489148D01*
X226485502Y-113421027D01*
X226502405Y-113400053D01*
X228838238Y-111064221D01*
X228847348Y-111056941D01*
X228846995Y-111056526D01*
X228853829Y-111050710D01*
X228861422Y-111045919D01*
X228895747Y-111007053D01*
X228901093Y-111001366D01*
X228910916Y-110991543D01*
X228916125Y-110984593D01*
X228922507Y-110976753D01*
X228945664Y-110950532D01*
X228951605Y-110943805D01*
X228955419Y-110935681D01*
X228958909Y-110930368D01*
X228963033Y-110923504D01*
X228966085Y-110917930D01*
X228971468Y-110910747D01*
X228986894Y-110869598D01*
X228990821Y-110860278D01*
X228993452Y-110854673D01*
X229009504Y-110820485D01*
X229010885Y-110811614D01*
X229012746Y-110805528D01*
X229014775Y-110797792D01*
X229016139Y-110791587D01*
X229019291Y-110783180D01*
X229022549Y-110739337D01*
X229023703Y-110729292D01*
X229024750Y-110722565D01*
X229025500Y-110717751D01*
X229025500Y-110704307D01*
X229025846Y-110694970D01*
X229028722Y-110656267D01*
X229029387Y-110647319D01*
X229027514Y-110638543D01*
X229026903Y-110629586D01*
X229026954Y-110629583D01*
X229025500Y-110615810D01*
X229025500Y-76627872D01*
X229026795Y-76616283D01*
X229026252Y-76616239D01*
X229026972Y-76607290D01*
X229028953Y-76598535D01*
X229025742Y-76546785D01*
X229025500Y-76538982D01*
X229025500Y-76525088D01*
X229024268Y-76516483D01*
X229023239Y-76506434D01*
X229021072Y-76471525D01*
X229020516Y-76462561D01*
X229017466Y-76454113D01*
X229016171Y-76447859D01*
X229014245Y-76440136D01*
X229012459Y-76434028D01*
X229011186Y-76425140D01*
X228992991Y-76385124D01*
X228989180Y-76375761D01*
X228977303Y-76342861D01*
X228974256Y-76334420D01*
X228968962Y-76327174D01*
X228965981Y-76321566D01*
X228961935Y-76314642D01*
X228958513Y-76309291D01*
X228954798Y-76301121D01*
X228926098Y-76267812D01*
X228919813Y-76259896D01*
X228915795Y-76254396D01*
X228915794Y-76254395D01*
X228912923Y-76250465D01*
X228903424Y-76240966D01*
X228897066Y-76234118D01*
X228871731Y-76204715D01*
X228871727Y-76204711D01*
X228865869Y-76197913D01*
X228858339Y-76193032D01*
X228851572Y-76187129D01*
X228851605Y-76187091D01*
X228840836Y-76178378D01*
X227764221Y-75101762D01*
X227756941Y-75092652D01*
X227756526Y-75093005D01*
X227750710Y-75086171D01*
X227745919Y-75078578D01*
X227707053Y-75044253D01*
X227701366Y-75038907D01*
X227691543Y-75029084D01*
X227685029Y-75024202D01*
X227684593Y-75023875D01*
X227676753Y-75017493D01*
X227650532Y-74994336D01*
X227643805Y-74988395D01*
X227635681Y-74984581D01*
X227630368Y-74981091D01*
X227623504Y-74976967D01*
X227617930Y-74973915D01*
X227610747Y-74968532D01*
X227569598Y-74953106D01*
X227560278Y-74949179D01*
X227532806Y-74936281D01*
X227520485Y-74930496D01*
X227511614Y-74929115D01*
X227505528Y-74927254D01*
X227497792Y-74925225D01*
X227491587Y-74923861D01*
X227483180Y-74920709D01*
X227459211Y-74918928D01*
X227439337Y-74917451D01*
X227429292Y-74916297D01*
X227425662Y-74915732D01*
X227417751Y-74914500D01*
X227404307Y-74914500D01*
X227394970Y-74914154D01*
X227380746Y-74913097D01*
X227347319Y-74910613D01*
X227338543Y-74912486D01*
X227329586Y-74913097D01*
X227329583Y-74913046D01*
X227315810Y-74914500D01*
X223857872Y-74914500D01*
X223846283Y-74913205D01*
X223846239Y-74913748D01*
X223837290Y-74913028D01*
X223828535Y-74911047D01*
X223793756Y-74913205D01*
X223776785Y-74914258D01*
X223768982Y-74914500D01*
X223755088Y-74914500D01*
X223747498Y-74915587D01*
X223746483Y-74915732D01*
X223736434Y-74916761D01*
X223717764Y-74917920D01*
X223692561Y-74919484D01*
X223684113Y-74922534D01*
X223677859Y-74923829D01*
X223670128Y-74925757D01*
X223664026Y-74927541D01*
X223655140Y-74928814D01*
X223638815Y-74936237D01*
X223615139Y-74947002D01*
X223605769Y-74950816D01*
X223564420Y-74965743D01*
X223557173Y-74971038D01*
X223551584Y-74974009D01*
X223544636Y-74978069D01*
X223539290Y-74981488D01*
X223531121Y-74985202D01*
X223524323Y-74991059D01*
X223524322Y-74991060D01*
X223497817Y-75013898D01*
X223489905Y-75020180D01*
X223480465Y-75027077D01*
X223470966Y-75036576D01*
X223464118Y-75042934D01*
X223434715Y-75068269D01*
X223434711Y-75068273D01*
X223427913Y-75074131D01*
X223423032Y-75081661D01*
X223417129Y-75088428D01*
X223417091Y-75088395D01*
X223408378Y-75099164D01*
X222271762Y-76235779D01*
X222262652Y-76243059D01*
X222263005Y-76243474D01*
X222256171Y-76249290D01*
X222248578Y-76254081D01*
X222242636Y-76260809D01*
X222242635Y-76260810D01*
X222214254Y-76292946D01*
X222208907Y-76298634D01*
X222199084Y-76308457D01*
X222196391Y-76312051D01*
X222193875Y-76315407D01*
X222187493Y-76323247D01*
X222158395Y-76356195D01*
X222154581Y-76364319D01*
X222151091Y-76369632D01*
X222146967Y-76376496D01*
X222143915Y-76382070D01*
X222138532Y-76389253D01*
X222135381Y-76397659D01*
X222123106Y-76430402D01*
X222119179Y-76439722D01*
X222100496Y-76479515D01*
X222099115Y-76488386D01*
X222097254Y-76494472D01*
X222095225Y-76502208D01*
X222093861Y-76508413D01*
X222090709Y-76516820D01*
X222090044Y-76525773D01*
X222087451Y-76560663D01*
X222086297Y-76570708D01*
X222084500Y-76582249D01*
X222084500Y-76595693D01*
X222084154Y-76605030D01*
X222080613Y-76652681D01*
X222082486Y-76661457D01*
X222083097Y-76670414D01*
X222083046Y-76670417D01*
X222084500Y-76684190D01*
X222084500Y-81800851D01*
X222064498Y-81868972D01*
X222047595Y-81889947D01*
X221509945Y-82427596D01*
X221447633Y-82461621D01*
X221420850Y-82464500D01*
X221326822Y-82464500D01*
X221258701Y-82444498D01*
X221213816Y-82394228D01*
X221187781Y-82341434D01*
X221185226Y-82336253D01*
X221175982Y-82323873D01*
X221126255Y-82257281D01*
X221058704Y-82166820D01*
X220927586Y-82045615D01*
X220907669Y-82027204D01*
X220903424Y-82023280D01*
X220898541Y-82020199D01*
X220898537Y-82020196D01*
X220729470Y-81913523D01*
X220729465Y-81913521D01*
X220724586Y-81910442D01*
X220528180Y-81832084D01*
X220522520Y-81830958D01*
X220522516Y-81830957D01*
X220409055Y-81808389D01*
X220392417Y-81805079D01*
X220329507Y-81772171D01*
X220294375Y-81710476D01*
X220298175Y-81639582D01*
X220339701Y-81581996D01*
X220405768Y-81556001D01*
X220416998Y-81555500D01*
X221050000Y-81555500D01*
X221051441Y-81555433D01*
X221051458Y-81555433D01*
X221065558Y-81554781D01*
X221078188Y-81554197D01*
X221186173Y-81523472D01*
X221275767Y-81455814D01*
X221334870Y-81360359D01*
X221346976Y-81295602D01*
X221354430Y-81255725D01*
X221354430Y-81255723D01*
X221355500Y-81250000D01*
X221355500Y-79550000D01*
X221355236Y-79544275D01*
X221354533Y-79529084D01*
X221354197Y-79521812D01*
X221323472Y-79413827D01*
X221255814Y-79324233D01*
X221160359Y-79265130D01*
X221148887Y-79262986D01*
X221148886Y-79262985D01*
X221055725Y-79245570D01*
X221055723Y-79245570D01*
X221050000Y-79244500D01*
X220801500Y-79244500D01*
X220733379Y-79224498D01*
X220686886Y-79170842D01*
X220675500Y-79118500D01*
X220675500Y-76119148D01*
X220695502Y-76051027D01*
X220712405Y-76030053D01*
X222250054Y-74492405D01*
X222312366Y-74458379D01*
X222339149Y-74455500D01*
X227850852Y-74455500D01*
X227918973Y-74475502D01*
X227939947Y-74492405D01*
X232557978Y-79110437D01*
X237175779Y-83728238D01*
X237183059Y-83737348D01*
X237183474Y-83736995D01*
X237189290Y-83743829D01*
X237194081Y-83751422D01*
X237200809Y-83757364D01*
X237200810Y-83757365D01*
X237232946Y-83785746D01*
X237238634Y-83791093D01*
X237248457Y-83800916D01*
X237255418Y-83806133D01*
X237263251Y-83812511D01*
X237289464Y-83835662D01*
X237289471Y-83835666D01*
X237296195Y-83841605D01*
X237304319Y-83845419D01*
X237309631Y-83848908D01*
X237316486Y-83853027D01*
X237322066Y-83856082D01*
X237329252Y-83861468D01*
X237369792Y-83876666D01*
X237370414Y-83876899D01*
X237379727Y-83880824D01*
X237419515Y-83899504D01*
X237428381Y-83900885D01*
X237434439Y-83902737D01*
X237442195Y-83904772D01*
X237448414Y-83906139D01*
X237456819Y-83909290D01*
X237492269Y-83911924D01*
X237500647Y-83912547D01*
X237510696Y-83913701D01*
X237517436Y-83914751D01*
X237517442Y-83914751D01*
X237522249Y-83915500D01*
X237535710Y-83915500D01*
X237545048Y-83915847D01*
X237583730Y-83918722D01*
X237583732Y-83918722D01*
X237592681Y-83919387D01*
X237601456Y-83917514D01*
X237610418Y-83916903D01*
X237610421Y-83916953D01*
X237624190Y-83915500D01*
X252121512Y-83915500D01*
X252189633Y-83935502D01*
X252235938Y-83988748D01*
X252249308Y-84017750D01*
X252371351Y-84190437D01*
X252522820Y-84337992D01*
X252527616Y-84341197D01*
X252527619Y-84341199D01*
X252626403Y-84407204D01*
X252698643Y-84455473D01*
X252703946Y-84457751D01*
X252703949Y-84457753D01*
X252887624Y-84536666D01*
X252892931Y-84538946D01*
X253099177Y-84585615D01*
X253104950Y-84585842D01*
X253110299Y-84586546D01*
X253175227Y-84615268D01*
X253214319Y-84674532D01*
X253215164Y-84745524D01*
X253177495Y-84805703D01*
X253115192Y-84835648D01*
X252956632Y-84862894D01*
X252950935Y-84863873D01*
X252752544Y-84937063D01*
X252747583Y-84940015D01*
X252747582Y-84940015D01*
X252608089Y-85023005D01*
X252570814Y-85045181D01*
X252411830Y-85184606D01*
X252280916Y-85350670D01*
X252182457Y-85537809D01*
X252119750Y-85739758D01*
X252094896Y-85949753D01*
X252108726Y-86160760D01*
X252160778Y-86365714D01*
X252249308Y-86557750D01*
X252371351Y-86730437D01*
X252522820Y-86877992D01*
X252527616Y-86881197D01*
X252527619Y-86881199D01*
X252598530Y-86928580D01*
X252698643Y-86995473D01*
X252703946Y-86997751D01*
X252703949Y-86997753D01*
X252785472Y-87032778D01*
X252892931Y-87078946D01*
X253099177Y-87125615D01*
X253104950Y-87125842D01*
X253110299Y-87126546D01*
X253175227Y-87155268D01*
X253214319Y-87214532D01*
X253215164Y-87285524D01*
X253177495Y-87345703D01*
X253115192Y-87375648D01*
X252956632Y-87402894D01*
X252950935Y-87403873D01*
X252752544Y-87477063D01*
X252570814Y-87585181D01*
X252411830Y-87724606D01*
X252280916Y-87890670D01*
X252235406Y-87977170D01*
X252185989Y-88028140D01*
X252123900Y-88044500D01*
X251047867Y-88044500D01*
X251036281Y-88043206D01*
X251036237Y-88043749D01*
X251027291Y-88043029D01*
X251018535Y-88041048D01*
X250975000Y-88043749D01*
X250966796Y-88044258D01*
X250958994Y-88044500D01*
X250945088Y-88044500D01*
X250936485Y-88045732D01*
X250926427Y-88046762D01*
X250882561Y-88049484D01*
X250874114Y-88052533D01*
X250867863Y-88053828D01*
X250860128Y-88055757D01*
X250854026Y-88057542D01*
X250845140Y-88058814D01*
X250836967Y-88062530D01*
X250805125Y-88077007D01*
X250795765Y-88080817D01*
X250754419Y-88095744D01*
X250747170Y-88101040D01*
X250741587Y-88104008D01*
X250734618Y-88108081D01*
X250729293Y-88111486D01*
X250721121Y-88115202D01*
X250714323Y-88121059D01*
X250714322Y-88121060D01*
X250687817Y-88143898D01*
X250679905Y-88150180D01*
X250670465Y-88157077D01*
X250660966Y-88166576D01*
X250654118Y-88172934D01*
X250624715Y-88198269D01*
X250624711Y-88198273D01*
X250617913Y-88204131D01*
X250613032Y-88211661D01*
X250607129Y-88218428D01*
X250607091Y-88218395D01*
X250598378Y-88229164D01*
X244561762Y-94265779D01*
X244552652Y-94273059D01*
X244553005Y-94273474D01*
X244546171Y-94279290D01*
X244538578Y-94284081D01*
X244532636Y-94290809D01*
X244532635Y-94290810D01*
X244504254Y-94322946D01*
X244498907Y-94328634D01*
X244489084Y-94338457D01*
X244486391Y-94342051D01*
X244483875Y-94345407D01*
X244477493Y-94353247D01*
X244456616Y-94376886D01*
X244448395Y-94386195D01*
X244444581Y-94394319D01*
X244441091Y-94399632D01*
X244436967Y-94406496D01*
X244433915Y-94412070D01*
X244428532Y-94419253D01*
X244425381Y-94427659D01*
X244413106Y-94460402D01*
X244409179Y-94469722D01*
X244390496Y-94509515D01*
X244389115Y-94518386D01*
X244387254Y-94524472D01*
X244385225Y-94532208D01*
X244383861Y-94538413D01*
X244380709Y-94546820D01*
X244380044Y-94555773D01*
X244377451Y-94590663D01*
X244376297Y-94600708D01*
X244374500Y-94612249D01*
X244374500Y-94625693D01*
X244374154Y-94635030D01*
X244370613Y-94682681D01*
X244372486Y-94691457D01*
X244373097Y-94700414D01*
X244373046Y-94700417D01*
X244374500Y-94714190D01*
X244374500Y-102450852D01*
X244354498Y-102518973D01*
X244337595Y-102539947D01*
X229589946Y-117287595D01*
X229527634Y-117321621D01*
X229500851Y-117324500D01*
X220381500Y-117324500D01*
X220313379Y-117304498D01*
X220266886Y-117250842D01*
X220255500Y-117198500D01*
X220255500Y-116950000D01*
X220255236Y-116944275D01*
X220254533Y-116929084D01*
X220254197Y-116921812D01*
X220223472Y-116813827D01*
X220155814Y-116724233D01*
X220060359Y-116665130D01*
X220048887Y-116662986D01*
X220048886Y-116662985D01*
X219955725Y-116645570D01*
X219955723Y-116645570D01*
X219950000Y-116644500D01*
X219317264Y-116644500D01*
X219249143Y-116624498D01*
X219202650Y-116570842D01*
X219192546Y-116500568D01*
X219222040Y-116435988D01*
X219281766Y-116397604D01*
X219299184Y-116393804D01*
X219364032Y-116384402D01*
X219364037Y-116384401D01*
X219369746Y-116383573D01*
X219375210Y-116381718D01*
X219375215Y-116381717D01*
X219564512Y-116317460D01*
X219564517Y-116317458D01*
X219569984Y-116315602D01*
X219754482Y-116212278D01*
X219917062Y-116077062D01*
X220052278Y-115914482D01*
X220144240Y-115750272D01*
X220152778Y-115735027D01*
X220152779Y-115735025D01*
X220155602Y-115729984D01*
X220157458Y-115724517D01*
X220157460Y-115724512D01*
X220221717Y-115535215D01*
X220221718Y-115535210D01*
X220223573Y-115529746D01*
X220224401Y-115524037D01*
X220224402Y-115524032D01*
X220253383Y-115324148D01*
X220253916Y-115320474D01*
X220255500Y-115260000D01*
X220238458Y-115074533D01*
X220236680Y-115055181D01*
X220236679Y-115055178D01*
X220236151Y-115049427D01*
X220232488Y-115036436D01*
X220180320Y-114851465D01*
X220180319Y-114851463D01*
X220178752Y-114845906D01*
X220155221Y-114798188D01*
X220087781Y-114661434D01*
X220085226Y-114656253D01*
X219958704Y-114486820D01*
X219803424Y-114343280D01*
X219798541Y-114340199D01*
X219798537Y-114340196D01*
X219629470Y-114233523D01*
X219629465Y-114233521D01*
X219624586Y-114230442D01*
X219428180Y-114152084D01*
X219332965Y-114133144D01*
X219224188Y-114111507D01*
X219161279Y-114078599D01*
X219126147Y-114016904D01*
X219129947Y-113946009D01*
X219171473Y-113888423D01*
X219230690Y-113863232D01*
X219363915Y-113843916D01*
X219375098Y-113841231D01*
X219564313Y-113777001D01*
X219574816Y-113772325D01*
X219749162Y-113674687D01*
X219758637Y-113668175D01*
X219912276Y-113540394D01*
X219920394Y-113532276D01*
X220048175Y-113378637D01*
X220054687Y-113369162D01*
X220152325Y-113194816D01*
X220157001Y-113184313D01*
X220221228Y-112995106D01*
X220222469Y-112989935D01*
X220220767Y-112977993D01*
X220207199Y-112974000D01*
X217995955Y-112974000D01*
X217982424Y-112977973D01*
X217981132Y-112986962D01*
X218009828Y-113099952D01*
X218013666Y-113110790D01*
X218097323Y-113292255D01*
X218103074Y-113302216D01*
X218218399Y-113465397D01*
X218225865Y-113474139D01*
X218369001Y-113613577D01*
X218377934Y-113620811D01*
X218544078Y-113731824D01*
X218554188Y-113737314D01*
X218737778Y-113816190D01*
X218748721Y-113819745D01*
X218943606Y-113863844D01*
X218960743Y-113866100D01*
X218960444Y-113868369D01*
X219018282Y-113887851D01*
X219062631Y-113943292D01*
X219069967Y-114013908D01*
X219037959Y-114077281D01*
X218976771Y-114113288D01*
X218967390Y-114115270D01*
X218800935Y-114143873D01*
X218602544Y-114217063D01*
X218420814Y-114325181D01*
X218261830Y-114464606D01*
X218130916Y-114630670D01*
X218085406Y-114717170D01*
X218035989Y-114768140D01*
X217973900Y-114784500D01*
X217686822Y-114784500D01*
X217618701Y-114764498D01*
X217573816Y-114714228D01*
X217547781Y-114661434D01*
X217545226Y-114656253D01*
X217418704Y-114486820D01*
X217263424Y-114343280D01*
X217258541Y-114340199D01*
X217258537Y-114340196D01*
X217089470Y-114233523D01*
X217089465Y-114233521D01*
X217084586Y-114230442D01*
X216888180Y-114152084D01*
X216792965Y-114133144D01*
X216684188Y-114111507D01*
X216621279Y-114078599D01*
X216586147Y-114016904D01*
X216589947Y-113946009D01*
X216631473Y-113888423D01*
X216690690Y-113863232D01*
X216823915Y-113843916D01*
X216835098Y-113841231D01*
X217024313Y-113777001D01*
X217034816Y-113772325D01*
X217209162Y-113674687D01*
X217218637Y-113668175D01*
X217372276Y-113540394D01*
X217380394Y-113532276D01*
X217508175Y-113378637D01*
X217514687Y-113369162D01*
X217612325Y-113194816D01*
X217617001Y-113184313D01*
X217681231Y-112995098D01*
X217683916Y-112983915D01*
X217712884Y-112784122D01*
X217713514Y-112776740D01*
X217714903Y-112723704D01*
X217714660Y-112716305D01*
X217696188Y-112515275D01*
X217694090Y-112503954D01*
X217682483Y-112462799D01*
X217979698Y-112462799D01*
X217986429Y-112466000D01*
X220205271Y-112466000D01*
X220218802Y-112462027D01*
X220219971Y-112453892D01*
X220179853Y-112311644D01*
X220175731Y-112300905D01*
X220087354Y-112121695D01*
X220081344Y-112111887D01*
X219961785Y-111951778D01*
X219954096Y-111943238D01*
X219807354Y-111807592D01*
X219798238Y-111800598D01*
X219629245Y-111693970D01*
X219618994Y-111688746D01*
X219433402Y-111614703D01*
X219422376Y-111611437D01*
X219222712Y-111571721D01*
X219159803Y-111538813D01*
X219124671Y-111477118D01*
X219128471Y-111406224D01*
X219169997Y-111348638D01*
X219229214Y-111323446D01*
X219363915Y-111303916D01*
X219375098Y-111301231D01*
X219564313Y-111237001D01*
X219574816Y-111232325D01*
X219749162Y-111134687D01*
X219758637Y-111128175D01*
X219912276Y-111000394D01*
X219920394Y-110992276D01*
X220048175Y-110838637D01*
X220054687Y-110829162D01*
X220152325Y-110654816D01*
X220157001Y-110644313D01*
X220221228Y-110455106D01*
X220222469Y-110449935D01*
X220220767Y-110437993D01*
X220207199Y-110434000D01*
X217995955Y-110434000D01*
X217982424Y-110437973D01*
X217981132Y-110446962D01*
X218009828Y-110559952D01*
X218013666Y-110570790D01*
X218097323Y-110752255D01*
X218103074Y-110762216D01*
X218218399Y-110925397D01*
X218225865Y-110934139D01*
X218369001Y-111073577D01*
X218377934Y-111080811D01*
X218544078Y-111191824D01*
X218554188Y-111197314D01*
X218737778Y-111276190D01*
X218748721Y-111279745D01*
X218943606Y-111323844D01*
X218960743Y-111326100D01*
X218960534Y-111327688D01*
X219020673Y-111347945D01*
X219065022Y-111403386D01*
X219072358Y-111474002D01*
X219040350Y-111537375D01*
X218979163Y-111573382D01*
X218969779Y-111575365D01*
X218806761Y-111603377D01*
X218795641Y-111606357D01*
X218608176Y-111675516D01*
X218597798Y-111680466D01*
X218426076Y-111782629D01*
X218416764Y-111789394D01*
X218266534Y-111921143D01*
X218258617Y-111929486D01*
X218134909Y-112086408D01*
X218128649Y-112096048D01*
X218035608Y-112272891D01*
X218031207Y-112283515D01*
X217979916Y-112448700D01*
X217979698Y-112462799D01*
X217682483Y-112462799D01*
X217639854Y-112311649D01*
X217635729Y-112300902D01*
X217547354Y-112121695D01*
X217541344Y-112111887D01*
X217421785Y-111951778D01*
X217414096Y-111943238D01*
X217267354Y-111807592D01*
X217258238Y-111800598D01*
X217089245Y-111693970D01*
X217078994Y-111688746D01*
X216893402Y-111614703D01*
X216882376Y-111611437D01*
X216682712Y-111571721D01*
X216619803Y-111538813D01*
X216584671Y-111477118D01*
X216588471Y-111406224D01*
X216629997Y-111348638D01*
X216689214Y-111323446D01*
X216823915Y-111303916D01*
X216835098Y-111301231D01*
X217024313Y-111237001D01*
X217034816Y-111232325D01*
X217209162Y-111134687D01*
X217218637Y-111128175D01*
X217372276Y-111000394D01*
X217380394Y-110992276D01*
X217508175Y-110838637D01*
X217514687Y-110829162D01*
X217612325Y-110654816D01*
X217617001Y-110644313D01*
X217681231Y-110455098D01*
X217683916Y-110443915D01*
X217712884Y-110244122D01*
X217713514Y-110236740D01*
X217714903Y-110183704D01*
X217714660Y-110176305D01*
X217696188Y-109975275D01*
X217694090Y-109963954D01*
X217682483Y-109922799D01*
X217979698Y-109922799D01*
X217986429Y-109926000D01*
X218827885Y-109926000D01*
X218843124Y-109921525D01*
X218844329Y-109920135D01*
X218846000Y-109912452D01*
X218846000Y-109077676D01*
X219354000Y-109077676D01*
X219354000Y-109907885D01*
X219358475Y-109923124D01*
X219359865Y-109924329D01*
X219367548Y-109926000D01*
X220205271Y-109926000D01*
X220218802Y-109922027D01*
X220219971Y-109913892D01*
X220179853Y-109771644D01*
X220175731Y-109760905D01*
X220087354Y-109581695D01*
X220081344Y-109571887D01*
X219961785Y-109411778D01*
X219954096Y-109403238D01*
X219807354Y-109267592D01*
X219798238Y-109260598D01*
X219629245Y-109153970D01*
X219618994Y-109148746D01*
X219433402Y-109074703D01*
X219422374Y-109071436D01*
X219371770Y-109061371D01*
X219358894Y-109062523D01*
X219354000Y-109077676D01*
X218846000Y-109077676D01*
X218846000Y-109074749D01*
X218842194Y-109061787D01*
X218827279Y-109059851D01*
X218806756Y-109063378D01*
X218795644Y-109066355D01*
X218608176Y-109135516D01*
X218597798Y-109140466D01*
X218426076Y-109242629D01*
X218416764Y-109249394D01*
X218266534Y-109381143D01*
X218258617Y-109389486D01*
X218134909Y-109546408D01*
X218128649Y-109556048D01*
X218035608Y-109732891D01*
X218031207Y-109743515D01*
X217979916Y-109908700D01*
X217979698Y-109922799D01*
X217682483Y-109922799D01*
X217639854Y-109771649D01*
X217635729Y-109760902D01*
X217547354Y-109581695D01*
X217541344Y-109571887D01*
X217421785Y-109411778D01*
X217414096Y-109403238D01*
X217267354Y-109267592D01*
X217258238Y-109260598D01*
X217089245Y-109153970D01*
X217078994Y-109148746D01*
X216893402Y-109074703D01*
X216882374Y-109071436D01*
X216831770Y-109061371D01*
X216818894Y-109062523D01*
X216814000Y-109077676D01*
X216814000Y-110308000D01*
X216793998Y-110376121D01*
X216740342Y-110422614D01*
X216688000Y-110434000D01*
X215455955Y-110434000D01*
X215442424Y-110437973D01*
X215441132Y-110446962D01*
X215469828Y-110559952D01*
X215473666Y-110570790D01*
X215557323Y-110752255D01*
X215563074Y-110762216D01*
X215678399Y-110925397D01*
X215685865Y-110934139D01*
X215829001Y-111073577D01*
X215837934Y-111080811D01*
X216004078Y-111191824D01*
X216014188Y-111197314D01*
X216197778Y-111276190D01*
X216208721Y-111279745D01*
X216403606Y-111323844D01*
X216420743Y-111326100D01*
X216420534Y-111327688D01*
X216480673Y-111347945D01*
X216525022Y-111403386D01*
X216532358Y-111474002D01*
X216500350Y-111537375D01*
X216439163Y-111573382D01*
X216429779Y-111575365D01*
X216266761Y-111603377D01*
X216255641Y-111606357D01*
X216068176Y-111675516D01*
X216057798Y-111680466D01*
X215886076Y-111782629D01*
X215876764Y-111789394D01*
X215726534Y-111921143D01*
X215718617Y-111929486D01*
X215594909Y-112086408D01*
X215588649Y-112096048D01*
X215495608Y-112272891D01*
X215491207Y-112283515D01*
X215439916Y-112448700D01*
X215439698Y-112462799D01*
X215446429Y-112466000D01*
X216688000Y-112466000D01*
X216756121Y-112486002D01*
X216802614Y-112539658D01*
X216814000Y-112592000D01*
X216814000Y-112848000D01*
X216793998Y-112916121D01*
X216740342Y-112962614D01*
X216688000Y-112974000D01*
X215455955Y-112974000D01*
X215442424Y-112977973D01*
X215441132Y-112986962D01*
X215469828Y-113099952D01*
X215473666Y-113110790D01*
X215557323Y-113292255D01*
X215563074Y-113302216D01*
X215678399Y-113465397D01*
X215685865Y-113474139D01*
X215829001Y-113613577D01*
X215837934Y-113620811D01*
X216004078Y-113731824D01*
X216014188Y-113737314D01*
X216197778Y-113816190D01*
X216208721Y-113819745D01*
X216403606Y-113863844D01*
X216420743Y-113866100D01*
X216420444Y-113868369D01*
X216478282Y-113887851D01*
X216522631Y-113943292D01*
X216529967Y-114013908D01*
X216497959Y-114077281D01*
X216436771Y-114113288D01*
X216427390Y-114115270D01*
X216260935Y-114143873D01*
X216062544Y-114217063D01*
X215880814Y-114325181D01*
X215721830Y-114464606D01*
X215590916Y-114630670D01*
X215545406Y-114717170D01*
X215495989Y-114768140D01*
X215433900Y-114784500D01*
X214651500Y-114784500D01*
X214583379Y-114764498D01*
X214536886Y-114710842D01*
X214525500Y-114658500D01*
X214525500Y-109922799D01*
X215439698Y-109922799D01*
X215446429Y-109926000D01*
X216287885Y-109926000D01*
X216303124Y-109921525D01*
X216304329Y-109920135D01*
X216306000Y-109912452D01*
X216306000Y-109074749D01*
X216302194Y-109061787D01*
X216287279Y-109059851D01*
X216266756Y-109063378D01*
X216255644Y-109066355D01*
X216068176Y-109135516D01*
X216057798Y-109140466D01*
X215886076Y-109242629D01*
X215876764Y-109249394D01*
X215726534Y-109381143D01*
X215718617Y-109389486D01*
X215594909Y-109546408D01*
X215588649Y-109556048D01*
X215495608Y-109732891D01*
X215491207Y-109743515D01*
X215439916Y-109908700D01*
X215439698Y-109922799D01*
X214525500Y-109922799D01*
X214525500Y-86421247D01*
X214526794Y-86409661D01*
X214526251Y-86409617D01*
X214526971Y-86400671D01*
X214528952Y-86391915D01*
X214525742Y-86340174D01*
X214525500Y-86332373D01*
X214525500Y-86318468D01*
X214524267Y-86309859D01*
X214523238Y-86299811D01*
X214521072Y-86264902D01*
X214520516Y-86255940D01*
X214517467Y-86247494D01*
X214516179Y-86241275D01*
X214514240Y-86233498D01*
X214512459Y-86227407D01*
X214511186Y-86218520D01*
X214492989Y-86178499D01*
X214489183Y-86169148D01*
X214477305Y-86136245D01*
X214474256Y-86127799D01*
X214468960Y-86120549D01*
X214465987Y-86114958D01*
X214461919Y-86107998D01*
X214458514Y-86102674D01*
X214454798Y-86094501D01*
X214448939Y-86087701D01*
X214448937Y-86087698D01*
X214426104Y-86061198D01*
X214419819Y-86053283D01*
X214415799Y-86047780D01*
X214415795Y-86047776D01*
X214412923Y-86043844D01*
X214403418Y-86034339D01*
X214397060Y-86027491D01*
X214371733Y-85998097D01*
X214371728Y-85998092D01*
X214365869Y-85991293D01*
X214358335Y-85986410D01*
X214351573Y-85980511D01*
X214351607Y-85980472D01*
X214340841Y-85971762D01*
X208112405Y-79743326D01*
X208078379Y-79681014D01*
X208075500Y-79654231D01*
X208075500Y-74081500D01*
X208095502Y-74013379D01*
X208149158Y-73966886D01*
X208201500Y-73955500D01*
X208450000Y-73955500D01*
X208451441Y-73955433D01*
X208451458Y-73955433D01*
X208465558Y-73954781D01*
X208478188Y-73954197D01*
X208586173Y-73923472D01*
X208675767Y-73855814D01*
X208734870Y-73760359D01*
X208747282Y-73693965D01*
X208754430Y-73655725D01*
X208754430Y-73655723D01*
X208755500Y-73650000D01*
X208755500Y-73029034D01*
X208775502Y-72960913D01*
X208829158Y-72914420D01*
X208899432Y-72904316D01*
X208964012Y-72933810D01*
X209003623Y-72998019D01*
X209049827Y-73179947D01*
X209053668Y-73190793D01*
X209137323Y-73372255D01*
X209143074Y-73382216D01*
X209258399Y-73545397D01*
X209265865Y-73554139D01*
X209409001Y-73693577D01*
X209417934Y-73700811D01*
X209584078Y-73811824D01*
X209594188Y-73817314D01*
X209777785Y-73896193D01*
X209788712Y-73899743D01*
X209868330Y-73917759D01*
X209882405Y-73916871D01*
X209886000Y-73907473D01*
X209886000Y-71694749D01*
X209882194Y-71681787D01*
X209867279Y-71679851D01*
X209846756Y-71683378D01*
X209835644Y-71686355D01*
X209662088Y-71750384D01*
X209591255Y-71755196D01*
X209529064Y-71720949D01*
X209495262Y-71658516D01*
X209500579Y-71587718D01*
X209529382Y-71543077D01*
X210710054Y-70362405D01*
X210772366Y-70328379D01*
X210799149Y-70325500D01*
X241350852Y-70325500D01*
X241418973Y-70345502D01*
X241439947Y-70362405D01*
X249725776Y-78648234D01*
X249733058Y-78657347D01*
X249733473Y-78656994D01*
X249739290Y-78663829D01*
X249744081Y-78671422D01*
X249782954Y-78705753D01*
X249788642Y-78711100D01*
X249798457Y-78720915D01*
X249805415Y-78726130D01*
X249813239Y-78732500D01*
X249846195Y-78761605D01*
X249854323Y-78765421D01*
X249859646Y-78768918D01*
X249866502Y-78773038D01*
X249872072Y-78776088D01*
X249879252Y-78781468D01*
X249920414Y-78796899D01*
X249929727Y-78800824D01*
X249969515Y-78819504D01*
X249978381Y-78820885D01*
X249984439Y-78822737D01*
X249992195Y-78824772D01*
X249998414Y-78826139D01*
X250006819Y-78829290D01*
X250042269Y-78831924D01*
X250050647Y-78832547D01*
X250060696Y-78833701D01*
X250067436Y-78834751D01*
X250067442Y-78834751D01*
X250072249Y-78835500D01*
X250085710Y-78835500D01*
X250095048Y-78835847D01*
X250133730Y-78838722D01*
X250133732Y-78838722D01*
X250142681Y-78839387D01*
X250151456Y-78837514D01*
X250160418Y-78836903D01*
X250160421Y-78836953D01*
X250174190Y-78835500D01*
X252121512Y-78835500D01*
X252189633Y-78855502D01*
X252235938Y-78908748D01*
X252249308Y-78937750D01*
X252371351Y-79110437D01*
X252392415Y-79130957D01*
X252512354Y-79247796D01*
X252522820Y-79257992D01*
X252527616Y-79261197D01*
X252527619Y-79261199D01*
X252621957Y-79324233D01*
X252698643Y-79375473D01*
X252703946Y-79377751D01*
X252703949Y-79377753D01*
X252887624Y-79456666D01*
X252892931Y-79458946D01*
X252993564Y-79481717D01*
X253089932Y-79503523D01*
X253099177Y-79505615D01*
X253104949Y-79505842D01*
X253110678Y-79506596D01*
X253110383Y-79508834D01*
X253168329Y-79528363D01*
X253212669Y-79583811D01*
X253219993Y-79654429D01*
X253187975Y-79717796D01*
X253126781Y-79753793D01*
X253117418Y-79755771D01*
X252956761Y-79783377D01*
X252945641Y-79786357D01*
X252758176Y-79855516D01*
X252747798Y-79860466D01*
X252576076Y-79962629D01*
X252566764Y-79969394D01*
X252416534Y-80101143D01*
X252408617Y-80109486D01*
X252284909Y-80266408D01*
X252278647Y-80276051D01*
X252185608Y-80452891D01*
X252181207Y-80463515D01*
X252129916Y-80628700D01*
X252129698Y-80642799D01*
X252136429Y-80646000D01*
X254355271Y-80646000D01*
X254368802Y-80642027D01*
X254369971Y-80633892D01*
X254329853Y-80491644D01*
X254325731Y-80480905D01*
X254237354Y-80301695D01*
X254231344Y-80291887D01*
X254111785Y-80131778D01*
X254104096Y-80123238D01*
X253957354Y-79987592D01*
X253948238Y-79980598D01*
X253779245Y-79873970D01*
X253768994Y-79868746D01*
X253583402Y-79794703D01*
X253572374Y-79791436D01*
X253374175Y-79752012D01*
X253311265Y-79719104D01*
X253276133Y-79657409D01*
X253279933Y-79586515D01*
X253321459Y-79528929D01*
X253380675Y-79503737D01*
X253417331Y-79498422D01*
X253514032Y-79484402D01*
X253514037Y-79484401D01*
X253519746Y-79483573D01*
X253525210Y-79481718D01*
X253525215Y-79481717D01*
X253714512Y-79417460D01*
X253714517Y-79417458D01*
X253719984Y-79415602D01*
X253904482Y-79312278D01*
X254067062Y-79177062D01*
X254202278Y-79014482D01*
X254300336Y-78839387D01*
X254302778Y-78835027D01*
X254302779Y-78835025D01*
X254305602Y-78829984D01*
X254307458Y-78824517D01*
X254307460Y-78824512D01*
X254371717Y-78635215D01*
X254371718Y-78635210D01*
X254373573Y-78629746D01*
X254374401Y-78624037D01*
X254374402Y-78624032D01*
X254403383Y-78424148D01*
X254403916Y-78420474D01*
X254405500Y-78360000D01*
X254386151Y-78149427D01*
X254377784Y-78119758D01*
X254330320Y-77951465D01*
X254330319Y-77951463D01*
X254328752Y-77945906D01*
X254314897Y-77917809D01*
X254237781Y-77761434D01*
X254235226Y-77756253D01*
X254108704Y-77586820D01*
X253953424Y-77443280D01*
X253948541Y-77440199D01*
X253948537Y-77440196D01*
X253779470Y-77333523D01*
X253779465Y-77333521D01*
X253774586Y-77330442D01*
X253578180Y-77252084D01*
X253572520Y-77250958D01*
X253572516Y-77250957D01*
X253376450Y-77211957D01*
X253376447Y-77211957D01*
X253370783Y-77210830D01*
X253365008Y-77210754D01*
X253365004Y-77210754D01*
X253259064Y-77209367D01*
X253159341Y-77208062D01*
X253153644Y-77209041D01*
X253153643Y-77209041D01*
X252956632Y-77242894D01*
X252950935Y-77243873D01*
X252752544Y-77317063D01*
X252747583Y-77320015D01*
X252747582Y-77320015D01*
X252608089Y-77403005D01*
X252570814Y-77425181D01*
X252411830Y-77564606D01*
X252280916Y-77730670D01*
X252235406Y-77817170D01*
X252185989Y-77868140D01*
X252123900Y-77884500D01*
X250359149Y-77884500D01*
X250291028Y-77864498D01*
X250270054Y-77847595D01*
X241984221Y-69561762D01*
X241976941Y-69552652D01*
X241976526Y-69553005D01*
X241970710Y-69546171D01*
X241965919Y-69538578D01*
X241927053Y-69504253D01*
X241921366Y-69498907D01*
X241911543Y-69489084D01*
X241905029Y-69484202D01*
X241904593Y-69483875D01*
X241896753Y-69477493D01*
X241870532Y-69454336D01*
X241863805Y-69448395D01*
X241855681Y-69444581D01*
X241850368Y-69441091D01*
X241843504Y-69436967D01*
X241837930Y-69433915D01*
X241830747Y-69428532D01*
X241789598Y-69413106D01*
X241780278Y-69409179D01*
X241774673Y-69406548D01*
X241740485Y-69390496D01*
X241731614Y-69389115D01*
X241725528Y-69387254D01*
X241717792Y-69385225D01*
X241711587Y-69383861D01*
X241703180Y-69380709D01*
X241679211Y-69378928D01*
X241659337Y-69377451D01*
X241649292Y-69376297D01*
X241645662Y-69375732D01*
X241637751Y-69374500D01*
X241624307Y-69374500D01*
X241614970Y-69374154D01*
X241600746Y-69373097D01*
X241567319Y-69370613D01*
X241558543Y-69372486D01*
X241549586Y-69373097D01*
X241549583Y-69373046D01*
X241535810Y-69374500D01*
X210617867Y-69374500D01*
X210606281Y-69373206D01*
X210606237Y-69373749D01*
X210597291Y-69373029D01*
X210588535Y-69371048D01*
X210545000Y-69373749D01*
X210536796Y-69374258D01*
X210528994Y-69374500D01*
X210515088Y-69374500D01*
X210506485Y-69375732D01*
X210496427Y-69376762D01*
X210452561Y-69379484D01*
X210444114Y-69382533D01*
X210437863Y-69383828D01*
X210430128Y-69385757D01*
X210424026Y-69387542D01*
X210415140Y-69388814D01*
X210398997Y-69396153D01*
X210375125Y-69407007D01*
X210365765Y-69410817D01*
X210324419Y-69425744D01*
X210317170Y-69431040D01*
X210311587Y-69434008D01*
X210304618Y-69438081D01*
X210299293Y-69441486D01*
X210291121Y-69445202D01*
X210284323Y-69451059D01*
X210284322Y-69451060D01*
X210257817Y-69473898D01*
X210249905Y-69480180D01*
X210240465Y-69487077D01*
X210230966Y-69496576D01*
X210224118Y-69502934D01*
X210194715Y-69528269D01*
X210194711Y-69528273D01*
X210187913Y-69534131D01*
X210183032Y-69541661D01*
X210177129Y-69548428D01*
X210177091Y-69548395D01*
X210168378Y-69559164D01*
X208119946Y-71607595D01*
X208057634Y-71641621D01*
X208030851Y-71644500D01*
X206750000Y-71644500D01*
X206748559Y-71644567D01*
X206748542Y-71644567D01*
X206734442Y-71645219D01*
X206721812Y-71645803D01*
X206613827Y-71676528D01*
X206524233Y-71744186D01*
X206465130Y-71839641D01*
X206462986Y-71851113D01*
X206462985Y-71851114D01*
X206456972Y-71883280D01*
X206444500Y-71950000D01*
X165250000Y-71950000D01*
X165250000Y-68876000D01*
X165270002Y-68807879D01*
X165323658Y-68761386D01*
X165376000Y-68750000D01*
X257774000Y-68750000D01*
X257842121Y-68770002D01*
G37*
%TD.AperFunction*%
M02*
