%TF.GenerationSoftware,KiCad,Pcbnew,(5.99.0-10363-g902a2c9f58)*%
%TF.CreationDate,2021-04-20T12:18:22+02:00*%
%TF.ProjectId,Smogly1,536d6f67-6c79-4312-9e6b-696361645f70,rev?*%
%TF.SameCoordinates,Original*%
%TF.FileFunction,Soldermask,Bot*%
%TF.FilePolarity,Negative*%
%FSLAX46Y46*%
G04 Gerber Fmt 4.6, Leading zero omitted, Abs format (unit mm)*
G04 Created by KiCad (PCBNEW (5.99.0-10363-g902a2c9f58)) date 2021-04-20 12:18:22*
%MOMM*%
%LPD*%
G01*
G04 APERTURE LIST*
%ADD10O,1.000000X1.000000*%
%ADD11R,1.000000X1.000000*%
%ADD12R,1.700000X1.700000*%
%ADD13O,1.700000X1.700000*%
G04 APERTURE END LIST*
D10*
%TO.C,J9*%
X170750000Y-127000000D03*
X169480000Y-127000000D03*
X170750000Y-128270000D03*
X169480000Y-128270000D03*
X170750000Y-129540000D03*
X169480000Y-129540000D03*
X170750000Y-130810000D03*
X169480000Y-130810000D03*
X170750000Y-132080000D03*
D11*
X169480000Y-132080000D03*
%TD*%
D12*
%TO.C,J2*%
X197000000Y-72810000D03*
D13*
X199540000Y-72810000D03*
X202080000Y-72810000D03*
X204620000Y-72810000D03*
%TD*%
D12*
%TO.C,J1*%
X227050000Y-133125000D03*
D13*
X227050000Y-130585000D03*
%TD*%
D12*
%TO.C,J8*%
X220200000Y-88450000D03*
D13*
X220200000Y-90990000D03*
X220200000Y-93530000D03*
X220200000Y-96070000D03*
%TD*%
D12*
%TO.C,J6*%
X220200000Y-80400000D03*
D13*
X220200000Y-82940000D03*
%TD*%
D12*
%TO.C,J10*%
X253250000Y-113920000D03*
D13*
X253250000Y-111380000D03*
X253250000Y-108840000D03*
X253250000Y-106300000D03*
X253250000Y-103760000D03*
X253250000Y-101220000D03*
X253250000Y-98680000D03*
X253250000Y-96140000D03*
X253250000Y-93600000D03*
X253250000Y-91060000D03*
X253250000Y-88520000D03*
X253250000Y-85980000D03*
X253250000Y-83440000D03*
X253250000Y-80900000D03*
X253250000Y-78360000D03*
%TD*%
D12*
%TO.C,J5*%
X219100000Y-117800000D03*
D13*
X216560000Y-117800000D03*
X219100000Y-115260000D03*
X216560000Y-115260000D03*
X219100000Y-112720000D03*
X216560000Y-112720000D03*
X219100000Y-110180000D03*
X216560000Y-110180000D03*
%TD*%
D12*
%TO.C,J11*%
X225310000Y-113920000D03*
D13*
X225310000Y-111380000D03*
X225310000Y-108840000D03*
X225310000Y-106300000D03*
X225310000Y-103760000D03*
X225310000Y-101220000D03*
X225310000Y-98680000D03*
X225310000Y-96140000D03*
X225310000Y-93600000D03*
X225310000Y-91060000D03*
X225310000Y-88520000D03*
X225310000Y-85980000D03*
X225310000Y-83440000D03*
X225310000Y-80900000D03*
X225310000Y-78360000D03*
%TD*%
D12*
%TO.C,J4*%
X243725000Y-122800000D03*
D13*
X246265000Y-122800000D03*
X248805000Y-122800000D03*
X251345000Y-122800000D03*
X253885000Y-122800000D03*
%TD*%
D12*
%TO.C,J3*%
X185000000Y-77700000D03*
D13*
X185000000Y-80240000D03*
X185000000Y-82780000D03*
X185000000Y-85320000D03*
%TD*%
M02*
