%TF.GenerationSoftware,KiCad,Pcbnew,(5.99.0-9565-gc0f3e53b52)*%
%TF.CreationDate,2021-04-08T11:44:11+02:00*%
%TF.ProjectId,Smogly1,536d6f67-6c79-4312-9e6b-696361645f70,rev?*%
%TF.SameCoordinates,Original*%
%TF.FileFunction,Copper,L2,Bot*%
%TF.FilePolarity,Positive*%
%FSLAX46Y46*%
G04 Gerber Fmt 4.6, Leading zero omitted, Abs format (unit mm)*
G04 Created by KiCad (PCBNEW (5.99.0-9565-gc0f3e53b52)) date 2021-04-08 11:44:11*
%MOMM*%
%LPD*%
G01*
G04 APERTURE LIST*
%TA.AperFunction,ComponentPad*%
%ADD10R,1.700000X1.700000*%
%TD*%
%TA.AperFunction,ComponentPad*%
%ADD11O,1.700000X1.700000*%
%TD*%
%TA.AperFunction,ViaPad*%
%ADD12C,0.800000*%
%TD*%
%TA.AperFunction,Conductor*%
%ADD13C,0.300000*%
%TD*%
%TA.AperFunction,Conductor*%
%ADD14C,0.350000*%
%TD*%
G04 APERTURE END LIST*
D10*
%TO.P,J2,1,Pin_1*%
%TO.N,+5V*%
X207600000Y-72800000D03*
D11*
%TO.P,J2,2,Pin_2*%
%TO.N,GND*%
X210140000Y-72800000D03*
%TO.P,J2,3,Pin_3*%
%TO.N,Net-(J11-Pad3)*%
X212680000Y-72800000D03*
%TO.P,J2,4,Pin_4*%
%TO.N,Net-(J11-Pad2)*%
X215220000Y-72800000D03*
%TD*%
D10*
%TO.P,J1,1,Pin_1*%
%TO.N,+5V*%
X227050000Y-133125000D03*
D11*
%TO.P,J1,2,Pin_2*%
%TO.N,GND*%
X227050000Y-130585000D03*
%TD*%
D10*
%TO.P,J8,1,Pin_1*%
%TO.N,Net-(J11-Pad11)*%
X220200000Y-88450000D03*
D11*
%TO.P,J8,2,Pin_2*%
%TO.N,Net-(J11-Pad10)*%
X220200000Y-90990000D03*
%TO.P,J8,3,Pin_3*%
%TO.N,Net-(J11-Pad9)*%
X220200000Y-93530000D03*
%TO.P,J8,4,Pin_4*%
%TO.N,Net-(J11-Pad8)*%
X220200000Y-96070000D03*
%TD*%
D10*
%TO.P,J6,1,Pin_1*%
%TO.N,Net-(J10-Pad13)*%
X220200000Y-80400000D03*
D11*
%TO.P,J6,2,Pin_2*%
%TO.N,Net-(J11-Pad1)*%
X220200000Y-82940000D03*
%TD*%
D10*
%TO.P,J10,1,Pin_1*%
%TO.N,N/C*%
X253250000Y-113920000D03*
D11*
%TO.P,J10,2,Pin_2*%
X253250000Y-111380000D03*
%TO.P,J10,3,Pin_3*%
X253250000Y-108840000D03*
%TO.P,J10,4,Pin_4*%
X253250000Y-106300000D03*
%TO.P,J10,5,Pin_5*%
X253250000Y-103760000D03*
%TO.P,J10,6,Pin_6*%
X253250000Y-101220000D03*
%TO.P,J10,7,Pin_7*%
X253250000Y-98680000D03*
%TO.P,J10,8,Pin_8*%
X253250000Y-96140000D03*
%TO.P,J10,9,Pin_9*%
X253250000Y-93600000D03*
%TO.P,J10,10,Pin_10*%
X253250000Y-91060000D03*
%TO.P,J10,11,Pin_11*%
%TO.N,+3V3*%
X253250000Y-88520000D03*
%TO.P,J10,12,Pin_12*%
%TO.N,N/C*%
X253250000Y-85980000D03*
%TO.P,J10,13,Pin_13*%
%TO.N,Net-(J10-Pad13)*%
X253250000Y-83440000D03*
%TO.P,J10,14,Pin_14*%
%TO.N,GND*%
X253250000Y-80900000D03*
%TO.P,J10,15,Pin_15*%
%TO.N,+5V*%
X253250000Y-78360000D03*
%TD*%
D10*
%TO.P,J5,1,Pin_1*%
%TO.N,+3V3*%
X219100000Y-117800000D03*
D11*
%TO.P,J5,2,Pin_2*%
X216560000Y-117800000D03*
%TO.P,J5,3,Pin_3*%
%TO.N,+5V*%
X219100000Y-115260000D03*
%TO.P,J5,4,Pin_4*%
X216560000Y-115260000D03*
%TO.P,J5,5,Pin_5*%
%TO.N,GND*%
X219100000Y-112720000D03*
%TO.P,J5,6,Pin_6*%
X216560000Y-112720000D03*
%TO.P,J5,7,Pin_7*%
X219100000Y-110180000D03*
%TO.P,J5,8,Pin_8*%
X216560000Y-110180000D03*
%TD*%
D10*
%TO.P,J11,1,Pin_1*%
%TO.N,Net-(J11-Pad1)*%
X225310000Y-113920000D03*
D11*
%TO.P,J11,2,Pin_2*%
%TO.N,Net-(J11-Pad2)*%
X225310000Y-111380000D03*
%TO.P,J11,3,Pin_3*%
%TO.N,Net-(J11-Pad3)*%
X225310000Y-108840000D03*
%TO.P,J11,4,Pin_4*%
%TO.N,Net-(J11-Pad4)*%
X225310000Y-106300000D03*
%TO.P,J11,5,Pin_5*%
%TO.N,Net-(J11-Pad5)*%
X225310000Y-103760000D03*
%TO.P,J11,6,Pin_6*%
%TO.N,Net-(J11-Pad6)*%
X225310000Y-101220000D03*
%TO.P,J11,7,Pin_7*%
%TO.N,Net-(J11-Pad7)*%
X225310000Y-98680000D03*
%TO.P,J11,8,Pin_8*%
%TO.N,Net-(J11-Pad8)*%
X225310000Y-96140000D03*
%TO.P,J11,9,Pin_9*%
%TO.N,Net-(J11-Pad9)*%
X225310000Y-93600000D03*
%TO.P,J11,10,Pin_10*%
%TO.N,Net-(J11-Pad10)*%
X225310000Y-91060000D03*
%TO.P,J11,11,Pin_11*%
%TO.N,Net-(J11-Pad11)*%
X225310000Y-88520000D03*
%TO.P,J11,12,Pin_12*%
%TO.N,N/C*%
X225310000Y-85980000D03*
%TO.P,J11,13,Pin_13*%
X225310000Y-83440000D03*
%TO.P,J11,14,Pin_14*%
X225310000Y-80900000D03*
%TO.P,J11,15,Pin_15*%
X225310000Y-78360000D03*
%TD*%
D10*
%TO.P,J4,1,Pin_1*%
%TO.N,GND*%
X243725000Y-122800000D03*
D11*
%TO.P,J4,2,Pin_2*%
%TO.N,N/C*%
X246265000Y-122800000D03*
%TO.P,J4,3,Pin_3*%
X248805000Y-122800000D03*
%TO.P,J4,4,Pin_4*%
X251345000Y-122800000D03*
%TO.P,J4,5,Pin_5*%
%TO.N,+5V*%
X253885000Y-122800000D03*
%TD*%
D10*
%TO.P,J3,1,Pin_1*%
%TO.N,Net-(J11-Pad4)*%
X185000000Y-77700000D03*
D11*
%TO.P,J3,2,Pin_2*%
%TO.N,Net-(J11-Pad5)*%
X185000000Y-80240000D03*
%TO.P,J3,3,Pin_3*%
%TO.N,Net-(J11-Pad7)*%
X185000000Y-82780000D03*
%TO.P,J3,4,Pin_4*%
%TO.N,Net-(J11-Pad6)*%
X185000000Y-85320000D03*
%TD*%
D12*
%TO.N,Net-(J11-Pad2)*%
X215950000Y-93100000D03*
X217250000Y-89700000D03*
%TO.N,GND*%
X224050000Y-130550000D03*
X222000000Y-115050000D03*
%TO.N,Net-(J11-Pad5)*%
X221850000Y-102400000D03*
X211220000Y-94710000D03*
%TO.N,Net-(J11-Pad4)*%
X222700000Y-106000000D03*
X211147565Y-93401308D03*
%TO.N,Net-(J11-Pad6)*%
X218490000Y-102500000D03*
X211250000Y-97720000D03*
%TO.N,Net-(J11-Pad7)*%
X211220000Y-96250000D03*
X218431636Y-101448364D03*
%TD*%
D13*
%TO.N,Net-(J11-Pad2)*%
X217250000Y-91025000D02*
X215950000Y-92325000D01*
X217250000Y-89700000D02*
X217250000Y-91025000D01*
X215950000Y-92325000D02*
X215950000Y-93100000D01*
D14*
%TO.N,GND*%
X222000000Y-115050000D02*
X222000000Y-128500000D01*
X222000000Y-128500000D02*
X224050000Y-130550000D01*
%TO.N,Net-(J11-Pad5)*%
X211220000Y-94710000D02*
X212860000Y-94710000D01*
X212860000Y-94710000D02*
X220550000Y-102400000D01*
X220550000Y-102400000D02*
X221850000Y-102400000D01*
%TO.N,Net-(J11-Pad4)*%
X222246006Y-101574989D02*
X220824989Y-101574989D01*
X222700000Y-106000000D02*
X222700000Y-102028983D01*
X222700000Y-102028983D02*
X222246006Y-101574989D01*
X212651308Y-93401308D02*
X211147565Y-93401308D01*
X220824989Y-101574989D02*
X212651308Y-93401308D01*
%TO.N,Net-(J11-Pad6)*%
X211250000Y-97720000D02*
X212340000Y-97720000D01*
X212340000Y-97720000D02*
X217120000Y-102500000D01*
X217120000Y-102500000D02*
X218490000Y-102500000D01*
%TO.N,Net-(J11-Pad7)*%
X217888364Y-101448364D02*
X217828364Y-101448364D01*
X212630000Y-96250000D02*
X211220000Y-96250000D01*
X217828364Y-101448364D02*
X212630000Y-96250000D01*
X218431636Y-101448364D02*
X217888364Y-101448364D01*
%TD*%
%TA.AperFunction,NonConductor*%
G36*
X257842121Y-68770002D02*
G01*
X257888614Y-68823658D01*
X257900000Y-68876000D01*
X257900000Y-136024000D01*
X257879998Y-136092121D01*
X257826342Y-136138614D01*
X257774000Y-136150000D01*
X213051000Y-136150000D01*
X212982879Y-136129998D01*
X212936386Y-136076342D01*
X212925000Y-136024000D01*
X212925000Y-132275000D01*
X225894500Y-132275000D01*
X225894500Y-133975000D01*
X225894567Y-133976441D01*
X225894567Y-133976458D01*
X225895219Y-133990558D01*
X225895803Y-134003188D01*
X225926528Y-134111173D01*
X225994186Y-134200767D01*
X226089641Y-134259870D01*
X226101113Y-134262014D01*
X226101114Y-134262015D01*
X226194275Y-134279430D01*
X226194277Y-134279430D01*
X226200000Y-134280500D01*
X227900000Y-134280500D01*
X227901441Y-134280433D01*
X227901458Y-134280433D01*
X227915558Y-134279781D01*
X227928188Y-134279197D01*
X228036173Y-134248472D01*
X228125767Y-134180814D01*
X228184870Y-134085359D01*
X228205500Y-133975000D01*
X228205500Y-132275000D01*
X228205236Y-132269275D01*
X228204533Y-132254084D01*
X228204197Y-132246812D01*
X228173472Y-132138827D01*
X228105814Y-132049233D01*
X228010359Y-131990130D01*
X227998887Y-131987986D01*
X227998886Y-131987985D01*
X227905725Y-131970570D01*
X227905723Y-131970570D01*
X227900000Y-131969500D01*
X227263796Y-131969500D01*
X227195675Y-131949498D01*
X227149182Y-131895842D01*
X227139078Y-131825568D01*
X227168572Y-131760988D01*
X227228298Y-131722604D01*
X227245716Y-131718804D01*
X227313915Y-131708916D01*
X227325098Y-131706231D01*
X227514313Y-131642001D01*
X227524816Y-131637325D01*
X227699162Y-131539687D01*
X227708637Y-131533175D01*
X227862276Y-131405394D01*
X227870394Y-131397276D01*
X227998175Y-131243637D01*
X228004687Y-131234162D01*
X228102325Y-131059816D01*
X228107001Y-131049313D01*
X228171228Y-130860106D01*
X228172469Y-130854935D01*
X228170767Y-130842993D01*
X228157199Y-130839000D01*
X225945955Y-130839000D01*
X225932424Y-130842973D01*
X225931132Y-130851962D01*
X225959828Y-130964952D01*
X225963666Y-130975790D01*
X226047323Y-131157255D01*
X226053074Y-131167216D01*
X226168399Y-131330397D01*
X226175865Y-131339139D01*
X226319001Y-131478577D01*
X226327934Y-131485811D01*
X226494078Y-131596824D01*
X226504188Y-131602314D01*
X226687778Y-131681190D01*
X226698721Y-131684745D01*
X226857205Y-131720607D01*
X226919232Y-131755150D01*
X226952736Y-131817744D01*
X226947082Y-131888515D01*
X226904063Y-131944994D01*
X226837338Y-131969250D01*
X226829397Y-131969500D01*
X226200000Y-131969500D01*
X226198559Y-131969567D01*
X226198542Y-131969567D01*
X226184442Y-131970219D01*
X226171812Y-131970803D01*
X226063827Y-132001528D01*
X225974233Y-132069186D01*
X225915130Y-132164641D01*
X225894500Y-132275000D01*
X212925000Y-132275000D01*
X212925000Y-130327799D01*
X225929698Y-130327799D01*
X225936429Y-130331000D01*
X226777885Y-130331000D01*
X226793124Y-130326525D01*
X226794329Y-130325135D01*
X226796000Y-130317452D01*
X226796000Y-129482676D01*
X227304000Y-129482676D01*
X227304000Y-130312885D01*
X227308475Y-130328124D01*
X227309865Y-130329329D01*
X227317548Y-130331000D01*
X228155271Y-130331000D01*
X228168802Y-130327027D01*
X228169971Y-130318892D01*
X228129853Y-130176644D01*
X228125731Y-130165905D01*
X228037354Y-129986695D01*
X228031344Y-129976887D01*
X227911785Y-129816778D01*
X227904096Y-129808238D01*
X227757354Y-129672592D01*
X227748238Y-129665598D01*
X227579245Y-129558970D01*
X227568994Y-129553746D01*
X227383402Y-129479703D01*
X227372374Y-129476436D01*
X227321770Y-129466371D01*
X227308894Y-129467523D01*
X227304000Y-129482676D01*
X226796000Y-129482676D01*
X226796000Y-129479749D01*
X226792194Y-129466787D01*
X226777279Y-129464851D01*
X226756756Y-129468378D01*
X226745644Y-129471355D01*
X226558176Y-129540516D01*
X226547798Y-129545466D01*
X226376076Y-129647629D01*
X226366764Y-129654394D01*
X226216534Y-129786143D01*
X226208617Y-129794486D01*
X226084909Y-129951408D01*
X226078647Y-129961051D01*
X225985608Y-130137891D01*
X225981207Y-130148515D01*
X225929916Y-130313700D01*
X225929698Y-130327799D01*
X212925000Y-130327799D01*
X212925000Y-123067548D01*
X242570000Y-123067548D01*
X242570000Y-123648532D01*
X242570067Y-123651457D01*
X242570965Y-123670869D01*
X242573294Y-123685147D01*
X242598780Y-123774721D01*
X242609011Y-123795267D01*
X242662485Y-123866079D01*
X242679453Y-123881546D01*
X242754892Y-123928256D01*
X242776298Y-123936549D01*
X242869273Y-123953929D01*
X242880828Y-123955000D01*
X243452885Y-123955000D01*
X243468124Y-123950525D01*
X243469329Y-123949135D01*
X243471000Y-123941452D01*
X243471000Y-123072115D01*
X243466525Y-123056876D01*
X243465135Y-123055671D01*
X243457452Y-123054000D01*
X242588115Y-123054000D01*
X242572876Y-123058475D01*
X242571671Y-123059865D01*
X242570000Y-123067548D01*
X212925000Y-123067548D01*
X212925000Y-121955828D01*
X242570000Y-121955828D01*
X242570000Y-122527885D01*
X242574475Y-122543124D01*
X242575865Y-122544329D01*
X242583548Y-122546000D01*
X243452885Y-122546000D01*
X243468124Y-122541525D01*
X243469329Y-122540135D01*
X243471000Y-122532452D01*
X243471000Y-121663115D01*
X243469659Y-121658548D01*
X243979000Y-121658548D01*
X243979000Y-123936885D01*
X243983475Y-123952124D01*
X243984865Y-123953329D01*
X243992548Y-123955000D01*
X244573532Y-123955000D01*
X244576457Y-123954933D01*
X244595869Y-123954035D01*
X244610147Y-123951706D01*
X244699721Y-123926220D01*
X244720267Y-123915989D01*
X244791079Y-123862515D01*
X244806546Y-123845547D01*
X244853256Y-123770108D01*
X244861549Y-123748702D01*
X244878929Y-123655727D01*
X244880000Y-123644172D01*
X244880000Y-123029088D01*
X244900002Y-122960967D01*
X244953658Y-122914474D01*
X245023932Y-122904370D01*
X245088512Y-122933864D01*
X245128123Y-122998073D01*
X245175778Y-123185714D01*
X245264308Y-123377750D01*
X245386351Y-123550437D01*
X245390485Y-123554464D01*
X245509978Y-123670869D01*
X245537820Y-123697992D01*
X245542616Y-123701197D01*
X245542619Y-123701199D01*
X245613530Y-123748580D01*
X245713643Y-123815473D01*
X245718946Y-123817751D01*
X245718949Y-123817753D01*
X245902624Y-123896666D01*
X245907931Y-123898946D01*
X246114177Y-123945615D01*
X246119946Y-123945842D01*
X246119949Y-123945842D01*
X246200242Y-123948996D01*
X246325474Y-123953916D01*
X246413693Y-123941125D01*
X246529032Y-123924402D01*
X246529037Y-123924401D01*
X246534746Y-123923573D01*
X246540210Y-123921718D01*
X246540215Y-123921717D01*
X246729512Y-123857460D01*
X246729517Y-123857458D01*
X246734984Y-123855602D01*
X246752939Y-123845547D01*
X246812371Y-123812263D01*
X246919482Y-123752278D01*
X247082062Y-123617062D01*
X247217278Y-123454482D01*
X247320602Y-123269984D01*
X247322458Y-123264517D01*
X247322460Y-123264512D01*
X247386717Y-123075215D01*
X247386718Y-123075210D01*
X247388573Y-123069746D01*
X247389401Y-123064037D01*
X247389402Y-123064032D01*
X247410063Y-122921533D01*
X247439633Y-122856987D01*
X247499405Y-122818675D01*
X247570401Y-122818759D01*
X247630082Y-122857214D01*
X247659498Y-122921830D01*
X247660489Y-122931371D01*
X247663726Y-122980760D01*
X247715778Y-123185714D01*
X247804308Y-123377750D01*
X247926351Y-123550437D01*
X247930485Y-123554464D01*
X248049978Y-123670869D01*
X248077820Y-123697992D01*
X248082616Y-123701197D01*
X248082619Y-123701199D01*
X248153530Y-123748580D01*
X248253643Y-123815473D01*
X248258946Y-123817751D01*
X248258949Y-123817753D01*
X248442624Y-123896666D01*
X248447931Y-123898946D01*
X248654177Y-123945615D01*
X248659946Y-123945842D01*
X248659949Y-123945842D01*
X248740242Y-123948996D01*
X248865474Y-123953916D01*
X248953693Y-123941125D01*
X249069032Y-123924402D01*
X249069037Y-123924401D01*
X249074746Y-123923573D01*
X249080210Y-123921718D01*
X249080215Y-123921717D01*
X249269512Y-123857460D01*
X249269517Y-123857458D01*
X249274984Y-123855602D01*
X249292939Y-123845547D01*
X249352371Y-123812263D01*
X249459482Y-123752278D01*
X249622062Y-123617062D01*
X249757278Y-123454482D01*
X249860602Y-123269984D01*
X249862458Y-123264517D01*
X249862460Y-123264512D01*
X249926717Y-123075215D01*
X249926718Y-123075210D01*
X249928573Y-123069746D01*
X249929401Y-123064037D01*
X249929402Y-123064032D01*
X249950063Y-122921533D01*
X249979633Y-122856987D01*
X250039405Y-122818675D01*
X250110401Y-122818759D01*
X250170082Y-122857214D01*
X250199498Y-122921830D01*
X250200489Y-122931371D01*
X250203726Y-122980760D01*
X250255778Y-123185714D01*
X250344308Y-123377750D01*
X250466351Y-123550437D01*
X250470485Y-123554464D01*
X250589978Y-123670869D01*
X250617820Y-123697992D01*
X250622616Y-123701197D01*
X250622619Y-123701199D01*
X250693530Y-123748580D01*
X250793643Y-123815473D01*
X250798946Y-123817751D01*
X250798949Y-123817753D01*
X250982624Y-123896666D01*
X250987931Y-123898946D01*
X251194177Y-123945615D01*
X251199946Y-123945842D01*
X251199949Y-123945842D01*
X251280242Y-123948996D01*
X251405474Y-123953916D01*
X251493693Y-123941125D01*
X251609032Y-123924402D01*
X251609037Y-123924401D01*
X251614746Y-123923573D01*
X251620210Y-123921718D01*
X251620215Y-123921717D01*
X251809512Y-123857460D01*
X251809517Y-123857458D01*
X251814984Y-123855602D01*
X251832939Y-123845547D01*
X251892371Y-123812263D01*
X251999482Y-123752278D01*
X252162062Y-123617062D01*
X252297278Y-123454482D01*
X252400602Y-123269984D01*
X252402458Y-123264517D01*
X252402460Y-123264512D01*
X252466717Y-123075215D01*
X252466718Y-123075210D01*
X252468573Y-123069746D01*
X252469401Y-123064037D01*
X252469402Y-123064032D01*
X252490063Y-122921533D01*
X252519633Y-122856987D01*
X252579405Y-122818675D01*
X252650401Y-122818759D01*
X252710082Y-122857214D01*
X252739498Y-122921830D01*
X252740489Y-122931371D01*
X252743726Y-122980760D01*
X252795778Y-123185714D01*
X252884308Y-123377750D01*
X253006351Y-123550437D01*
X253010485Y-123554464D01*
X253129978Y-123670869D01*
X253157820Y-123697992D01*
X253162616Y-123701197D01*
X253162619Y-123701199D01*
X253233530Y-123748580D01*
X253333643Y-123815473D01*
X253338946Y-123817751D01*
X253338949Y-123817753D01*
X253522624Y-123896666D01*
X253527931Y-123898946D01*
X253734177Y-123945615D01*
X253739946Y-123945842D01*
X253739949Y-123945842D01*
X253820242Y-123948996D01*
X253945474Y-123953916D01*
X254033693Y-123941125D01*
X254149032Y-123924402D01*
X254149037Y-123924401D01*
X254154746Y-123923573D01*
X254160210Y-123921718D01*
X254160215Y-123921717D01*
X254349512Y-123857460D01*
X254349517Y-123857458D01*
X254354984Y-123855602D01*
X254372939Y-123845547D01*
X254432371Y-123812263D01*
X254539482Y-123752278D01*
X254702062Y-123617062D01*
X254837278Y-123454482D01*
X254940602Y-123269984D01*
X254942458Y-123264517D01*
X254942460Y-123264512D01*
X255006717Y-123075215D01*
X255006718Y-123075210D01*
X255008573Y-123069746D01*
X255009401Y-123064037D01*
X255009402Y-123064032D01*
X255038383Y-122864148D01*
X255038916Y-122860474D01*
X255040500Y-122800000D01*
X255027238Y-122655667D01*
X255021680Y-122595181D01*
X255021679Y-122595178D01*
X255021151Y-122589427D01*
X255012784Y-122559758D01*
X254965320Y-122391465D01*
X254965319Y-122391463D01*
X254963752Y-122385906D01*
X254949897Y-122357809D01*
X254872781Y-122201434D01*
X254870226Y-122196253D01*
X254743704Y-122026820D01*
X254588424Y-121883280D01*
X254583541Y-121880199D01*
X254583537Y-121880196D01*
X254414470Y-121773523D01*
X254414465Y-121773521D01*
X254409586Y-121770442D01*
X254213180Y-121692084D01*
X254207520Y-121690958D01*
X254207516Y-121690957D01*
X254011450Y-121651957D01*
X254011447Y-121651957D01*
X254005783Y-121650830D01*
X254000008Y-121650754D01*
X254000004Y-121650754D01*
X253894064Y-121649367D01*
X253794341Y-121648062D01*
X253788644Y-121649041D01*
X253788643Y-121649041D01*
X253706738Y-121663115D01*
X253585935Y-121683873D01*
X253387544Y-121757063D01*
X253205814Y-121865181D01*
X253046830Y-122004606D01*
X252915916Y-122170670D01*
X252817457Y-122357809D01*
X252754750Y-122559758D01*
X252754071Y-122565496D01*
X252740097Y-122683562D01*
X252712227Y-122748859D01*
X252653478Y-122788723D01*
X252582504Y-122790497D01*
X252521837Y-122753618D01*
X252490740Y-122689794D01*
X252489499Y-122680281D01*
X252487238Y-122655667D01*
X252485237Y-122633900D01*
X252481680Y-122595181D01*
X252481679Y-122595178D01*
X252481151Y-122589427D01*
X252472784Y-122559758D01*
X252425320Y-122391465D01*
X252425319Y-122391463D01*
X252423752Y-122385906D01*
X252409897Y-122357809D01*
X252332781Y-122201434D01*
X252330226Y-122196253D01*
X252203704Y-122026820D01*
X252048424Y-121883280D01*
X252043541Y-121880199D01*
X252043537Y-121880196D01*
X251874470Y-121773523D01*
X251874465Y-121773521D01*
X251869586Y-121770442D01*
X251673180Y-121692084D01*
X251667520Y-121690958D01*
X251667516Y-121690957D01*
X251471450Y-121651957D01*
X251471447Y-121651957D01*
X251465783Y-121650830D01*
X251460008Y-121650754D01*
X251460004Y-121650754D01*
X251354064Y-121649367D01*
X251254341Y-121648062D01*
X251248644Y-121649041D01*
X251248643Y-121649041D01*
X251166738Y-121663115D01*
X251045935Y-121683873D01*
X250847544Y-121757063D01*
X250665814Y-121865181D01*
X250506830Y-122004606D01*
X250375916Y-122170670D01*
X250277457Y-122357809D01*
X250214750Y-122559758D01*
X250214071Y-122565496D01*
X250200097Y-122683562D01*
X250172227Y-122748859D01*
X250113478Y-122788723D01*
X250042504Y-122790497D01*
X249981837Y-122753618D01*
X249950740Y-122689794D01*
X249949499Y-122680281D01*
X249947238Y-122655667D01*
X249945237Y-122633900D01*
X249941680Y-122595181D01*
X249941679Y-122595178D01*
X249941151Y-122589427D01*
X249932784Y-122559758D01*
X249885320Y-122391465D01*
X249885319Y-122391463D01*
X249883752Y-122385906D01*
X249869897Y-122357809D01*
X249792781Y-122201434D01*
X249790226Y-122196253D01*
X249663704Y-122026820D01*
X249508424Y-121883280D01*
X249503541Y-121880199D01*
X249503537Y-121880196D01*
X249334470Y-121773523D01*
X249334465Y-121773521D01*
X249329586Y-121770442D01*
X249133180Y-121692084D01*
X249127520Y-121690958D01*
X249127516Y-121690957D01*
X248931450Y-121651957D01*
X248931447Y-121651957D01*
X248925783Y-121650830D01*
X248920008Y-121650754D01*
X248920004Y-121650754D01*
X248814064Y-121649367D01*
X248714341Y-121648062D01*
X248708644Y-121649041D01*
X248708643Y-121649041D01*
X248626738Y-121663115D01*
X248505935Y-121683873D01*
X248307544Y-121757063D01*
X248125814Y-121865181D01*
X247966830Y-122004606D01*
X247835916Y-122170670D01*
X247737457Y-122357809D01*
X247674750Y-122559758D01*
X247674071Y-122565496D01*
X247660097Y-122683562D01*
X247632227Y-122748859D01*
X247573478Y-122788723D01*
X247502504Y-122790497D01*
X247441837Y-122753618D01*
X247410740Y-122689794D01*
X247409499Y-122680281D01*
X247407238Y-122655667D01*
X247405237Y-122633900D01*
X247401680Y-122595181D01*
X247401679Y-122595178D01*
X247401151Y-122589427D01*
X247392784Y-122559758D01*
X247345320Y-122391465D01*
X247345319Y-122391463D01*
X247343752Y-122385906D01*
X247329897Y-122357809D01*
X247252781Y-122201434D01*
X247250226Y-122196253D01*
X247123704Y-122026820D01*
X246968424Y-121883280D01*
X246963541Y-121880199D01*
X246963537Y-121880196D01*
X246794470Y-121773523D01*
X246794465Y-121773521D01*
X246789586Y-121770442D01*
X246593180Y-121692084D01*
X246587520Y-121690958D01*
X246587516Y-121690957D01*
X246391450Y-121651957D01*
X246391447Y-121651957D01*
X246385783Y-121650830D01*
X246380008Y-121650754D01*
X246380004Y-121650754D01*
X246274064Y-121649367D01*
X246174341Y-121648062D01*
X246168644Y-121649041D01*
X246168643Y-121649041D01*
X246086738Y-121663115D01*
X245965935Y-121683873D01*
X245767544Y-121757063D01*
X245585814Y-121865181D01*
X245426830Y-122004606D01*
X245295916Y-122170670D01*
X245197457Y-122357809D01*
X245134750Y-122559758D01*
X245134071Y-122565496D01*
X245131127Y-122590370D01*
X245103257Y-122655667D01*
X245044508Y-122695531D01*
X244973534Y-122697305D01*
X244912867Y-122660426D01*
X244881770Y-122596603D01*
X244880000Y-122575560D01*
X244880000Y-121951468D01*
X244879933Y-121948543D01*
X244879035Y-121929131D01*
X244876706Y-121914853D01*
X244851220Y-121825279D01*
X244840989Y-121804733D01*
X244787515Y-121733921D01*
X244770547Y-121718454D01*
X244695108Y-121671744D01*
X244673702Y-121663451D01*
X244580727Y-121646071D01*
X244569172Y-121645000D01*
X243997115Y-121645000D01*
X243981876Y-121649475D01*
X243980671Y-121650865D01*
X243979000Y-121658548D01*
X243469659Y-121658548D01*
X243466525Y-121647876D01*
X243465135Y-121646671D01*
X243457452Y-121645000D01*
X242876468Y-121645000D01*
X242873543Y-121645067D01*
X242854131Y-121645965D01*
X242839853Y-121648294D01*
X242750279Y-121673780D01*
X242729733Y-121684011D01*
X242658921Y-121737485D01*
X242643454Y-121754453D01*
X242596744Y-121829892D01*
X242588451Y-121851298D01*
X242571071Y-121944273D01*
X242570000Y-121955828D01*
X212925000Y-121955828D01*
X212925000Y-115229753D01*
X215404896Y-115229753D01*
X215418726Y-115440760D01*
X215470778Y-115645714D01*
X215559308Y-115837750D01*
X215681351Y-116010437D01*
X215832820Y-116157992D01*
X215837616Y-116161197D01*
X215837619Y-116161199D01*
X215908530Y-116208580D01*
X216008643Y-116275473D01*
X216013946Y-116277751D01*
X216013949Y-116277753D01*
X216095472Y-116312778D01*
X216202931Y-116358946D01*
X216409177Y-116405615D01*
X216414950Y-116405842D01*
X216420299Y-116406546D01*
X216485227Y-116435268D01*
X216524319Y-116494532D01*
X216525164Y-116565524D01*
X216487495Y-116625703D01*
X216425192Y-116655648D01*
X216266632Y-116682894D01*
X216260935Y-116683873D01*
X216062544Y-116757063D01*
X215880814Y-116865181D01*
X215721830Y-117004606D01*
X215590916Y-117170670D01*
X215492457Y-117357809D01*
X215429750Y-117559758D01*
X215404896Y-117769753D01*
X215418726Y-117980760D01*
X215470778Y-118185714D01*
X215559308Y-118377750D01*
X215681351Y-118550437D01*
X215832820Y-118697992D01*
X215837616Y-118701197D01*
X215837619Y-118701199D01*
X215908530Y-118748580D01*
X216008643Y-118815473D01*
X216013946Y-118817751D01*
X216013949Y-118817753D01*
X216163290Y-118881915D01*
X216202931Y-118898946D01*
X216409177Y-118945615D01*
X216414946Y-118945842D01*
X216414949Y-118945842D01*
X216495242Y-118948996D01*
X216620474Y-118953916D01*
X216708693Y-118941125D01*
X216824032Y-118924402D01*
X216824037Y-118924401D01*
X216829746Y-118923573D01*
X216835210Y-118921718D01*
X216835215Y-118921717D01*
X217024512Y-118857460D01*
X217024517Y-118857458D01*
X217029984Y-118855602D01*
X217214482Y-118752278D01*
X217377062Y-118617062D01*
X217512278Y-118454482D01*
X217615602Y-118269984D01*
X217617458Y-118264517D01*
X217617460Y-118264512D01*
X217681717Y-118075215D01*
X217681718Y-118075210D01*
X217683573Y-118069746D01*
X217684401Y-118064037D01*
X217684402Y-118064032D01*
X217693804Y-117999184D01*
X217723374Y-117934638D01*
X217783146Y-117896326D01*
X217854142Y-117896410D01*
X217913823Y-117934865D01*
X217943239Y-117999481D01*
X217944500Y-118017264D01*
X217944500Y-118650000D01*
X217944567Y-118651441D01*
X217944567Y-118651458D01*
X217945219Y-118665558D01*
X217945803Y-118678188D01*
X217976528Y-118786173D01*
X218044186Y-118875767D01*
X218139641Y-118934870D01*
X218151113Y-118937014D01*
X218151114Y-118937015D01*
X218244275Y-118954430D01*
X218244277Y-118954430D01*
X218250000Y-118955500D01*
X219950000Y-118955500D01*
X219951441Y-118955433D01*
X219951458Y-118955433D01*
X219965558Y-118954781D01*
X219978188Y-118954197D01*
X220086173Y-118923472D01*
X220175767Y-118855814D01*
X220234870Y-118760359D01*
X220247282Y-118693965D01*
X220254430Y-118655725D01*
X220254430Y-118655723D01*
X220255500Y-118650000D01*
X220255500Y-116950000D01*
X220255236Y-116944275D01*
X220254533Y-116929084D01*
X220254197Y-116921812D01*
X220223472Y-116813827D01*
X220155814Y-116724233D01*
X220060359Y-116665130D01*
X220048887Y-116662986D01*
X220048886Y-116662985D01*
X219955725Y-116645570D01*
X219955723Y-116645570D01*
X219950000Y-116644500D01*
X219317264Y-116644500D01*
X219249143Y-116624498D01*
X219202650Y-116570842D01*
X219192546Y-116500568D01*
X219222040Y-116435988D01*
X219281766Y-116397604D01*
X219299184Y-116393804D01*
X219364032Y-116384402D01*
X219364037Y-116384401D01*
X219369746Y-116383573D01*
X219375210Y-116381718D01*
X219375215Y-116381717D01*
X219564512Y-116317460D01*
X219564517Y-116317458D01*
X219569984Y-116315602D01*
X219754482Y-116212278D01*
X219917062Y-116077062D01*
X220052278Y-115914482D01*
X220155602Y-115729984D01*
X220157458Y-115724517D01*
X220157460Y-115724512D01*
X220221717Y-115535215D01*
X220221718Y-115535210D01*
X220223573Y-115529746D01*
X220224401Y-115524037D01*
X220224402Y-115524032D01*
X220253383Y-115324148D01*
X220253916Y-115320474D01*
X220255500Y-115260000D01*
X220238458Y-115074533D01*
X220236680Y-115055181D01*
X220236679Y-115055178D01*
X220236151Y-115049427D01*
X220232488Y-115036436D01*
X220180320Y-114851465D01*
X220180319Y-114851463D01*
X220178752Y-114845906D01*
X220164897Y-114817809D01*
X220087781Y-114661434D01*
X220085226Y-114656253D01*
X219958704Y-114486820D01*
X219803424Y-114343280D01*
X219798541Y-114340199D01*
X219798537Y-114340196D01*
X219629470Y-114233523D01*
X219629465Y-114233521D01*
X219624586Y-114230442D01*
X219428180Y-114152084D01*
X219332965Y-114133144D01*
X219224188Y-114111507D01*
X219161279Y-114078599D01*
X219126147Y-114016904D01*
X219129947Y-113946009D01*
X219171473Y-113888423D01*
X219230690Y-113863232D01*
X219363915Y-113843916D01*
X219375098Y-113841231D01*
X219564313Y-113777001D01*
X219574816Y-113772325D01*
X219749162Y-113674687D01*
X219758637Y-113668175D01*
X219912276Y-113540394D01*
X219920394Y-113532276D01*
X220048175Y-113378637D01*
X220054687Y-113369162D01*
X220152325Y-113194816D01*
X220157001Y-113184313D01*
X220195805Y-113070000D01*
X224154500Y-113070000D01*
X224154500Y-114770000D01*
X224154567Y-114771441D01*
X224154567Y-114771458D01*
X224155219Y-114785558D01*
X224155803Y-114798188D01*
X224186528Y-114906173D01*
X224254186Y-114995767D01*
X224349641Y-115054870D01*
X224361113Y-115057014D01*
X224361114Y-115057015D01*
X224454275Y-115074430D01*
X224454277Y-115074430D01*
X224460000Y-115075500D01*
X226160000Y-115075500D01*
X226161441Y-115075433D01*
X226161458Y-115075433D01*
X226175558Y-115074781D01*
X226188188Y-115074197D01*
X226296173Y-115043472D01*
X226385767Y-114975814D01*
X226444870Y-114880359D01*
X226450272Y-114851465D01*
X226464430Y-114775725D01*
X226464430Y-114775723D01*
X226465500Y-114770000D01*
X226465500Y-113070000D01*
X252094500Y-113070000D01*
X252094500Y-114770000D01*
X252094567Y-114771441D01*
X252094567Y-114771458D01*
X252095219Y-114785558D01*
X252095803Y-114798188D01*
X252126528Y-114906173D01*
X252194186Y-114995767D01*
X252289641Y-115054870D01*
X252301113Y-115057014D01*
X252301114Y-115057015D01*
X252394275Y-115074430D01*
X252394277Y-115074430D01*
X252400000Y-115075500D01*
X254100000Y-115075500D01*
X254101441Y-115075433D01*
X254101458Y-115075433D01*
X254115558Y-115074781D01*
X254128188Y-115074197D01*
X254236173Y-115043472D01*
X254325767Y-114975814D01*
X254384870Y-114880359D01*
X254390272Y-114851465D01*
X254404430Y-114775725D01*
X254404430Y-114775723D01*
X254405500Y-114770000D01*
X254405500Y-113070000D01*
X254405236Y-113064275D01*
X254404533Y-113049084D01*
X254404197Y-113041812D01*
X254373472Y-112933827D01*
X254305814Y-112844233D01*
X254210359Y-112785130D01*
X254198887Y-112782986D01*
X254198886Y-112782985D01*
X254105725Y-112765570D01*
X254105723Y-112765570D01*
X254100000Y-112764500D01*
X253467264Y-112764500D01*
X253399143Y-112744498D01*
X253352650Y-112690842D01*
X253342546Y-112620568D01*
X253372040Y-112555988D01*
X253431766Y-112517604D01*
X253449184Y-112513804D01*
X253514032Y-112504402D01*
X253514037Y-112504401D01*
X253519746Y-112503573D01*
X253525210Y-112501718D01*
X253525215Y-112501717D01*
X253714512Y-112437460D01*
X253714517Y-112437458D01*
X253719984Y-112435602D01*
X253904482Y-112332278D01*
X254067062Y-112197062D01*
X254202278Y-112034482D01*
X254305602Y-111849984D01*
X254307458Y-111844517D01*
X254307460Y-111844512D01*
X254371717Y-111655215D01*
X254371718Y-111655210D01*
X254373573Y-111649746D01*
X254374401Y-111644037D01*
X254374402Y-111644032D01*
X254398603Y-111477118D01*
X254403916Y-111440474D01*
X254405500Y-111380000D01*
X254391931Y-111232325D01*
X254386680Y-111175181D01*
X254386679Y-111175178D01*
X254386151Y-111169427D01*
X254377784Y-111139758D01*
X254330320Y-110971465D01*
X254330319Y-110971463D01*
X254328752Y-110965906D01*
X254314897Y-110937809D01*
X254237781Y-110781434D01*
X254235226Y-110776253D01*
X254108704Y-110606820D01*
X253953424Y-110463280D01*
X253948541Y-110460199D01*
X253948537Y-110460196D01*
X253779470Y-110353523D01*
X253779465Y-110353521D01*
X253774586Y-110350442D01*
X253578180Y-110272084D01*
X253436592Y-110243920D01*
X253375650Y-110231798D01*
X253312741Y-110198890D01*
X253277609Y-110137195D01*
X253281409Y-110066300D01*
X253322935Y-110008714D01*
X253382151Y-109983523D01*
X253417042Y-109978464D01*
X253514032Y-109964402D01*
X253514037Y-109964401D01*
X253519746Y-109963573D01*
X253525210Y-109961718D01*
X253525215Y-109961717D01*
X253714512Y-109897460D01*
X253714517Y-109897458D01*
X253719984Y-109895602D01*
X253904482Y-109792278D01*
X254067062Y-109657062D01*
X254202278Y-109494482D01*
X254305602Y-109309984D01*
X254307458Y-109304517D01*
X254307460Y-109304512D01*
X254371717Y-109115215D01*
X254371718Y-109115210D01*
X254373573Y-109109746D01*
X254374401Y-109104037D01*
X254374402Y-109104032D01*
X254403383Y-108904148D01*
X254403916Y-108900474D01*
X254405500Y-108840000D01*
X254386151Y-108629427D01*
X254377784Y-108599758D01*
X254330320Y-108431465D01*
X254330319Y-108431463D01*
X254328752Y-108425906D01*
X254314897Y-108397809D01*
X254237781Y-108241434D01*
X254235226Y-108236253D01*
X254108704Y-108066820D01*
X253953424Y-107923280D01*
X253948541Y-107920199D01*
X253948537Y-107920196D01*
X253779470Y-107813523D01*
X253779465Y-107813521D01*
X253774586Y-107810442D01*
X253578180Y-107732084D01*
X253395005Y-107695648D01*
X253375650Y-107691798D01*
X253312741Y-107658890D01*
X253277609Y-107597195D01*
X253281409Y-107526300D01*
X253322935Y-107468714D01*
X253382151Y-107443523D01*
X253417042Y-107438464D01*
X253514032Y-107424402D01*
X253514037Y-107424401D01*
X253519746Y-107423573D01*
X253525210Y-107421718D01*
X253525215Y-107421717D01*
X253714512Y-107357460D01*
X253714517Y-107357458D01*
X253719984Y-107355602D01*
X253904482Y-107252278D01*
X254067062Y-107117062D01*
X254202278Y-106954482D01*
X254305602Y-106769984D01*
X254307458Y-106764517D01*
X254307460Y-106764512D01*
X254371717Y-106575215D01*
X254371718Y-106575210D01*
X254373573Y-106569746D01*
X254374401Y-106564037D01*
X254374402Y-106564032D01*
X254403383Y-106364148D01*
X254403916Y-106360474D01*
X254405500Y-106300000D01*
X254386151Y-106089427D01*
X254377784Y-106059758D01*
X254330320Y-105891465D01*
X254330319Y-105891463D01*
X254328752Y-105885906D01*
X254314897Y-105857809D01*
X254237781Y-105701434D01*
X254235226Y-105696253D01*
X254108704Y-105526820D01*
X253953424Y-105383280D01*
X253948541Y-105380199D01*
X253948537Y-105380196D01*
X253779470Y-105273523D01*
X253779465Y-105273521D01*
X253774586Y-105270442D01*
X253578180Y-105192084D01*
X253395005Y-105155648D01*
X253375650Y-105151798D01*
X253312741Y-105118890D01*
X253277609Y-105057195D01*
X253281409Y-104986300D01*
X253322935Y-104928714D01*
X253382151Y-104903523D01*
X253417042Y-104898464D01*
X253514032Y-104884402D01*
X253514037Y-104884401D01*
X253519746Y-104883573D01*
X253525210Y-104881718D01*
X253525215Y-104881717D01*
X253714512Y-104817460D01*
X253714517Y-104817458D01*
X253719984Y-104815602D01*
X253904482Y-104712278D01*
X254067062Y-104577062D01*
X254202278Y-104414482D01*
X254305602Y-104229984D01*
X254307458Y-104224517D01*
X254307460Y-104224512D01*
X254371717Y-104035215D01*
X254371718Y-104035210D01*
X254373573Y-104029746D01*
X254374401Y-104024037D01*
X254374402Y-104024032D01*
X254403383Y-103824148D01*
X254403916Y-103820474D01*
X254405500Y-103760000D01*
X254386151Y-103549427D01*
X254377784Y-103519758D01*
X254330320Y-103351465D01*
X254330319Y-103351463D01*
X254328752Y-103345906D01*
X254314897Y-103317809D01*
X254237781Y-103161434D01*
X254235226Y-103156253D01*
X254108704Y-102986820D01*
X253981423Y-102869162D01*
X253957669Y-102847204D01*
X253953424Y-102843280D01*
X253948541Y-102840199D01*
X253948537Y-102840196D01*
X253779470Y-102733523D01*
X253779465Y-102733521D01*
X253774586Y-102730442D01*
X253578180Y-102652084D01*
X253395005Y-102615648D01*
X253375650Y-102611798D01*
X253312741Y-102578890D01*
X253277609Y-102517195D01*
X253281409Y-102446300D01*
X253322935Y-102388714D01*
X253382151Y-102363523D01*
X253417042Y-102358464D01*
X253514032Y-102344402D01*
X253514037Y-102344401D01*
X253519746Y-102343573D01*
X253525210Y-102341718D01*
X253525215Y-102341717D01*
X253714512Y-102277460D01*
X253714517Y-102277458D01*
X253719984Y-102275602D01*
X253904482Y-102172278D01*
X254067062Y-102037062D01*
X254202278Y-101874482D01*
X254305602Y-101689984D01*
X254307458Y-101684517D01*
X254307460Y-101684512D01*
X254371717Y-101495215D01*
X254371718Y-101495210D01*
X254373573Y-101489746D01*
X254374401Y-101484037D01*
X254374402Y-101484032D01*
X254403383Y-101284148D01*
X254403916Y-101280474D01*
X254405500Y-101220000D01*
X254392589Y-101079487D01*
X254386680Y-101015181D01*
X254386679Y-101015178D01*
X254386151Y-101009427D01*
X254377784Y-100979758D01*
X254330320Y-100811465D01*
X254330319Y-100811463D01*
X254328752Y-100805906D01*
X254314897Y-100777809D01*
X254237781Y-100621434D01*
X254235226Y-100616253D01*
X254108704Y-100446820D01*
X253953424Y-100303280D01*
X253948541Y-100300199D01*
X253948537Y-100300196D01*
X253779470Y-100193523D01*
X253779465Y-100193521D01*
X253774586Y-100190442D01*
X253578180Y-100112084D01*
X253395005Y-100075648D01*
X253375650Y-100071798D01*
X253312741Y-100038890D01*
X253277609Y-99977195D01*
X253281409Y-99906300D01*
X253322935Y-99848714D01*
X253382151Y-99823523D01*
X253417042Y-99818464D01*
X253514032Y-99804402D01*
X253514037Y-99804401D01*
X253519746Y-99803573D01*
X253525210Y-99801718D01*
X253525215Y-99801717D01*
X253714512Y-99737460D01*
X253714517Y-99737458D01*
X253719984Y-99735602D01*
X253904482Y-99632278D01*
X254067062Y-99497062D01*
X254202278Y-99334482D01*
X254305602Y-99149984D01*
X254307458Y-99144517D01*
X254307460Y-99144512D01*
X254371717Y-98955215D01*
X254371718Y-98955210D01*
X254373573Y-98949746D01*
X254374401Y-98944037D01*
X254374402Y-98944032D01*
X254403383Y-98744148D01*
X254403916Y-98740474D01*
X254405500Y-98680000D01*
X254386151Y-98469427D01*
X254377784Y-98439758D01*
X254330320Y-98271465D01*
X254330319Y-98271463D01*
X254328752Y-98265906D01*
X254314897Y-98237809D01*
X254237781Y-98081434D01*
X254235226Y-98076253D01*
X254108704Y-97906820D01*
X253953424Y-97763280D01*
X253948541Y-97760199D01*
X253948537Y-97760196D01*
X253779470Y-97653523D01*
X253779465Y-97653521D01*
X253774586Y-97650442D01*
X253578180Y-97572084D01*
X253436592Y-97543920D01*
X253375650Y-97531798D01*
X253312741Y-97498890D01*
X253277609Y-97437195D01*
X253281409Y-97366300D01*
X253322935Y-97308714D01*
X253382151Y-97283523D01*
X253417042Y-97278464D01*
X253514032Y-97264402D01*
X253514037Y-97264401D01*
X253519746Y-97263573D01*
X253525210Y-97261718D01*
X253525215Y-97261717D01*
X253714512Y-97197460D01*
X253714517Y-97197458D01*
X253719984Y-97195602D01*
X253726922Y-97191717D01*
X253841660Y-97127460D01*
X253904482Y-97092278D01*
X254067062Y-96957062D01*
X254202278Y-96794482D01*
X254305602Y-96609984D01*
X254307458Y-96604517D01*
X254307460Y-96604512D01*
X254371717Y-96415215D01*
X254371718Y-96415210D01*
X254373573Y-96409746D01*
X254374401Y-96404037D01*
X254374402Y-96404032D01*
X254396625Y-96250760D01*
X254403916Y-96200474D01*
X254405500Y-96140000D01*
X254388285Y-95952652D01*
X254386680Y-95935181D01*
X254386679Y-95935178D01*
X254386151Y-95929427D01*
X254380785Y-95910398D01*
X254330320Y-95731465D01*
X254330319Y-95731463D01*
X254328752Y-95725906D01*
X254314897Y-95697809D01*
X254237781Y-95541434D01*
X254235226Y-95536253D01*
X254108704Y-95366820D01*
X253953424Y-95223280D01*
X253948541Y-95220199D01*
X253948537Y-95220196D01*
X253779470Y-95113523D01*
X253779465Y-95113521D01*
X253774586Y-95110442D01*
X253578180Y-95032084D01*
X253395005Y-94995648D01*
X253375650Y-94991798D01*
X253312741Y-94958890D01*
X253277609Y-94897195D01*
X253281409Y-94826300D01*
X253322935Y-94768714D01*
X253382151Y-94743523D01*
X253417042Y-94738464D01*
X253514032Y-94724402D01*
X253514037Y-94724401D01*
X253519746Y-94723573D01*
X253525210Y-94721718D01*
X253525215Y-94721717D01*
X253714512Y-94657460D01*
X253714517Y-94657458D01*
X253719984Y-94655602D01*
X253726922Y-94651717D01*
X253841660Y-94587460D01*
X253904482Y-94552278D01*
X254067062Y-94417062D01*
X254202278Y-94254482D01*
X254305602Y-94069984D01*
X254307458Y-94064517D01*
X254307460Y-94064512D01*
X254371717Y-93875215D01*
X254371718Y-93875210D01*
X254373573Y-93869746D01*
X254374401Y-93864037D01*
X254374402Y-93864032D01*
X254400694Y-93682695D01*
X254403916Y-93660474D01*
X254405500Y-93600000D01*
X254388987Y-93420290D01*
X254386680Y-93395181D01*
X254386679Y-93395178D01*
X254386151Y-93389427D01*
X254377784Y-93359758D01*
X254330320Y-93191465D01*
X254330319Y-93191463D01*
X254328752Y-93185906D01*
X254314897Y-93157809D01*
X254237781Y-93001434D01*
X254235226Y-92996253D01*
X254108704Y-92826820D01*
X253953424Y-92683280D01*
X253948541Y-92680199D01*
X253948537Y-92680196D01*
X253779470Y-92573523D01*
X253779465Y-92573521D01*
X253774586Y-92570442D01*
X253578180Y-92492084D01*
X253395005Y-92455648D01*
X253375650Y-92451798D01*
X253312741Y-92418890D01*
X253277609Y-92357195D01*
X253281409Y-92286300D01*
X253322935Y-92228714D01*
X253382151Y-92203523D01*
X253417042Y-92198464D01*
X253514032Y-92184402D01*
X253514037Y-92184401D01*
X253519746Y-92183573D01*
X253525210Y-92181718D01*
X253525215Y-92181717D01*
X253714512Y-92117460D01*
X253714517Y-92117458D01*
X253719984Y-92115602D01*
X253726670Y-92111858D01*
X253841660Y-92047460D01*
X253904482Y-92012278D01*
X254067062Y-91877062D01*
X254202278Y-91714482D01*
X254305602Y-91529984D01*
X254307458Y-91524517D01*
X254307460Y-91524512D01*
X254371717Y-91335215D01*
X254371718Y-91335210D01*
X254373573Y-91329746D01*
X254374401Y-91324037D01*
X254374402Y-91324032D01*
X254403383Y-91124148D01*
X254403916Y-91120474D01*
X254405500Y-91060000D01*
X254386151Y-90849427D01*
X254383041Y-90838397D01*
X254330320Y-90651465D01*
X254330319Y-90651463D01*
X254328752Y-90645906D01*
X254314897Y-90617809D01*
X254237781Y-90461434D01*
X254235226Y-90456253D01*
X254108704Y-90286820D01*
X253953424Y-90143280D01*
X253948541Y-90140199D01*
X253948537Y-90140196D01*
X253779470Y-90033523D01*
X253779465Y-90033521D01*
X253774586Y-90030442D01*
X253578180Y-89952084D01*
X253395005Y-89915648D01*
X253375650Y-89911798D01*
X253312741Y-89878890D01*
X253277609Y-89817195D01*
X253281409Y-89746300D01*
X253322935Y-89688714D01*
X253382151Y-89663523D01*
X253417042Y-89658464D01*
X253514032Y-89644402D01*
X253514037Y-89644401D01*
X253519746Y-89643573D01*
X253525210Y-89641718D01*
X253525215Y-89641717D01*
X253714512Y-89577460D01*
X253714517Y-89577458D01*
X253719984Y-89575602D01*
X253904482Y-89472278D01*
X254067062Y-89337062D01*
X254202278Y-89174482D01*
X254299462Y-89000948D01*
X254302778Y-88995027D01*
X254302779Y-88995025D01*
X254305602Y-88989984D01*
X254307458Y-88984517D01*
X254307460Y-88984512D01*
X254371717Y-88795215D01*
X254371718Y-88795210D01*
X254373573Y-88789746D01*
X254374401Y-88784037D01*
X254374402Y-88784032D01*
X254403383Y-88584148D01*
X254403916Y-88580474D01*
X254405500Y-88520000D01*
X254386151Y-88309427D01*
X254377784Y-88279758D01*
X254330320Y-88111465D01*
X254330319Y-88111463D01*
X254328752Y-88105906D01*
X254314897Y-88077809D01*
X254237781Y-87921434D01*
X254235226Y-87916253D01*
X254108704Y-87746820D01*
X253953424Y-87603280D01*
X253948541Y-87600199D01*
X253948537Y-87600196D01*
X253779470Y-87493523D01*
X253779465Y-87493521D01*
X253774586Y-87490442D01*
X253578180Y-87412084D01*
X253387891Y-87374233D01*
X253375650Y-87371798D01*
X253312741Y-87338890D01*
X253277609Y-87277195D01*
X253281409Y-87206300D01*
X253322935Y-87148714D01*
X253382151Y-87123523D01*
X253417042Y-87118464D01*
X253514032Y-87104402D01*
X253514037Y-87104401D01*
X253519746Y-87103573D01*
X253525210Y-87101718D01*
X253525215Y-87101717D01*
X253714512Y-87037460D01*
X253714517Y-87037458D01*
X253719984Y-87035602D01*
X253904482Y-86932278D01*
X254067062Y-86797062D01*
X254202278Y-86634482D01*
X254271185Y-86511439D01*
X254302778Y-86455027D01*
X254302779Y-86455025D01*
X254305602Y-86449984D01*
X254307458Y-86444517D01*
X254307460Y-86444512D01*
X254371717Y-86255215D01*
X254371718Y-86255210D01*
X254373573Y-86249746D01*
X254374401Y-86244037D01*
X254374402Y-86244032D01*
X254398988Y-86074464D01*
X254403916Y-86040474D01*
X254405500Y-85980000D01*
X254393524Y-85849665D01*
X254386680Y-85775181D01*
X254386679Y-85775178D01*
X254386151Y-85769427D01*
X254377784Y-85739758D01*
X254330320Y-85571465D01*
X254330319Y-85571463D01*
X254328752Y-85565906D01*
X254314897Y-85537809D01*
X254237781Y-85381434D01*
X254235226Y-85376253D01*
X254108704Y-85206820D01*
X254003345Y-85109427D01*
X253957669Y-85067204D01*
X253953424Y-85063280D01*
X253948541Y-85060199D01*
X253948537Y-85060196D01*
X253779470Y-84953523D01*
X253779465Y-84953521D01*
X253774586Y-84950442D01*
X253578180Y-84872084D01*
X253395005Y-84835648D01*
X253375650Y-84831798D01*
X253312741Y-84798890D01*
X253277609Y-84737195D01*
X253281409Y-84666300D01*
X253322935Y-84608714D01*
X253382151Y-84583523D01*
X253417042Y-84578464D01*
X253514032Y-84564402D01*
X253514037Y-84564401D01*
X253519746Y-84563573D01*
X253525210Y-84561718D01*
X253525215Y-84561717D01*
X253714512Y-84497460D01*
X253714517Y-84497458D01*
X253719984Y-84495602D01*
X253904482Y-84392278D01*
X254067062Y-84257062D01*
X254202278Y-84094482D01*
X254283912Y-83948714D01*
X254302778Y-83915027D01*
X254302779Y-83915025D01*
X254305602Y-83909984D01*
X254307458Y-83904517D01*
X254307460Y-83904512D01*
X254371717Y-83715215D01*
X254371718Y-83715210D01*
X254373573Y-83709746D01*
X254374401Y-83704037D01*
X254374402Y-83704032D01*
X254398988Y-83534464D01*
X254403916Y-83500474D01*
X254405500Y-83440000D01*
X254393524Y-83309665D01*
X254386680Y-83235181D01*
X254386679Y-83235178D01*
X254386151Y-83229427D01*
X254380601Y-83209746D01*
X254330320Y-83031465D01*
X254330319Y-83031463D01*
X254328752Y-83025906D01*
X254318023Y-83004148D01*
X254237781Y-82841434D01*
X254235226Y-82836253D01*
X254108704Y-82666820D01*
X254003345Y-82569427D01*
X253957669Y-82527204D01*
X253953424Y-82523280D01*
X253948541Y-82520199D01*
X253948537Y-82520196D01*
X253779470Y-82413523D01*
X253779465Y-82413521D01*
X253774586Y-82410442D01*
X253578180Y-82332084D01*
X253470525Y-82310670D01*
X253374188Y-82291507D01*
X253311279Y-82258599D01*
X253276147Y-82196904D01*
X253279947Y-82126009D01*
X253321473Y-82068423D01*
X253380690Y-82043232D01*
X253513915Y-82023916D01*
X253525098Y-82021231D01*
X253714313Y-81957001D01*
X253724816Y-81952325D01*
X253899162Y-81854687D01*
X253908637Y-81848175D01*
X254062276Y-81720394D01*
X254070394Y-81712276D01*
X254198175Y-81558637D01*
X254204687Y-81549162D01*
X254302325Y-81374816D01*
X254307001Y-81364313D01*
X254371228Y-81175106D01*
X254372469Y-81169935D01*
X254370767Y-81157993D01*
X254357199Y-81154000D01*
X252145955Y-81154000D01*
X252132424Y-81157973D01*
X252131132Y-81166962D01*
X252159828Y-81279952D01*
X252163666Y-81290790D01*
X252247323Y-81472255D01*
X252253074Y-81482216D01*
X252368399Y-81645397D01*
X252375865Y-81654139D01*
X252519001Y-81793577D01*
X252527934Y-81800811D01*
X252694078Y-81911824D01*
X252704188Y-81917314D01*
X252887778Y-81996190D01*
X252898721Y-81999745D01*
X253093606Y-82043844D01*
X253110743Y-82046100D01*
X253110444Y-82048369D01*
X253168282Y-82067851D01*
X253212631Y-82123292D01*
X253219967Y-82193908D01*
X253187959Y-82257281D01*
X253126771Y-82293288D01*
X253117390Y-82295270D01*
X252950935Y-82323873D01*
X252752544Y-82397063D01*
X252570814Y-82505181D01*
X252411830Y-82644606D01*
X252280916Y-82810670D01*
X252278227Y-82815781D01*
X252278225Y-82815784D01*
X252265235Y-82840474D01*
X252182457Y-82997809D01*
X252119750Y-83199758D01*
X252094896Y-83409753D01*
X252108726Y-83620760D01*
X252160778Y-83825714D01*
X252249308Y-84017750D01*
X252371351Y-84190437D01*
X252522820Y-84337992D01*
X252527616Y-84341197D01*
X252527619Y-84341199D01*
X252626403Y-84407204D01*
X252698643Y-84455473D01*
X252703946Y-84457751D01*
X252703949Y-84457753D01*
X252887624Y-84536666D01*
X252892931Y-84538946D01*
X253099177Y-84585615D01*
X253104950Y-84585842D01*
X253110299Y-84586546D01*
X253175227Y-84615268D01*
X253214319Y-84674532D01*
X253215164Y-84745524D01*
X253177495Y-84805703D01*
X253115192Y-84835648D01*
X252956632Y-84862894D01*
X252950935Y-84863873D01*
X252752544Y-84937063D01*
X252570814Y-85045181D01*
X252411830Y-85184606D01*
X252280916Y-85350670D01*
X252278227Y-85355781D01*
X252278225Y-85355784D01*
X252265235Y-85380474D01*
X252182457Y-85537809D01*
X252119750Y-85739758D01*
X252094896Y-85949753D01*
X252108726Y-86160760D01*
X252160778Y-86365714D01*
X252249308Y-86557750D01*
X252371351Y-86730437D01*
X252522820Y-86877992D01*
X252527616Y-86881197D01*
X252527619Y-86881199D01*
X252598530Y-86928580D01*
X252698643Y-86995473D01*
X252703946Y-86997751D01*
X252703949Y-86997753D01*
X252785472Y-87032778D01*
X252892931Y-87078946D01*
X253099177Y-87125615D01*
X253104950Y-87125842D01*
X253110299Y-87126546D01*
X253175227Y-87155268D01*
X253214319Y-87214532D01*
X253215164Y-87285524D01*
X253177495Y-87345703D01*
X253115192Y-87375648D01*
X252956632Y-87402894D01*
X252950935Y-87403873D01*
X252752544Y-87477063D01*
X252570814Y-87585181D01*
X252411830Y-87724606D01*
X252280916Y-87890670D01*
X252182457Y-88077809D01*
X252119750Y-88279758D01*
X252094896Y-88489753D01*
X252108726Y-88700760D01*
X252160778Y-88905714D01*
X252249308Y-89097750D01*
X252371351Y-89270437D01*
X252375485Y-89274464D01*
X252514985Y-89410359D01*
X252522820Y-89417992D01*
X252527616Y-89421197D01*
X252527619Y-89421199D01*
X252598530Y-89468580D01*
X252698643Y-89535473D01*
X252703946Y-89537751D01*
X252703949Y-89537753D01*
X252862801Y-89606001D01*
X252892931Y-89618946D01*
X253099177Y-89665615D01*
X253104950Y-89665842D01*
X253110299Y-89666546D01*
X253175227Y-89695268D01*
X253214319Y-89754532D01*
X253215164Y-89825524D01*
X253177495Y-89885703D01*
X253115192Y-89915648D01*
X252956632Y-89942894D01*
X252950935Y-89943873D01*
X252752544Y-90017063D01*
X252747583Y-90020015D01*
X252747582Y-90020015D01*
X252693439Y-90052227D01*
X252570814Y-90125181D01*
X252411830Y-90264606D01*
X252280916Y-90430670D01*
X252182457Y-90617809D01*
X252119750Y-90819758D01*
X252094896Y-91029753D01*
X252108726Y-91240760D01*
X252160778Y-91445714D01*
X252249308Y-91637750D01*
X252371351Y-91810437D01*
X252522820Y-91957992D01*
X252527616Y-91961197D01*
X252527619Y-91961199D01*
X252668551Y-92055366D01*
X252698643Y-92075473D01*
X252703946Y-92077751D01*
X252703949Y-92077753D01*
X252857948Y-92143916D01*
X252892931Y-92158946D01*
X253099177Y-92205615D01*
X253104950Y-92205842D01*
X253110299Y-92206546D01*
X253175227Y-92235268D01*
X253214319Y-92294532D01*
X253215164Y-92365524D01*
X253177495Y-92425703D01*
X253115192Y-92455648D01*
X252956632Y-92482894D01*
X252950935Y-92483873D01*
X252752544Y-92557063D01*
X252747583Y-92560015D01*
X252747582Y-92560015D01*
X252613639Y-92639703D01*
X252570814Y-92665181D01*
X252411830Y-92804606D01*
X252280916Y-92970670D01*
X252278227Y-92975781D01*
X252278225Y-92975784D01*
X252226022Y-93075005D01*
X252182457Y-93157809D01*
X252119750Y-93359758D01*
X252094896Y-93569753D01*
X252108726Y-93780760D01*
X252160778Y-93985714D01*
X252249308Y-94177750D01*
X252371351Y-94350437D01*
X252522820Y-94497992D01*
X252527616Y-94501197D01*
X252527619Y-94501199D01*
X252668551Y-94595366D01*
X252698643Y-94615473D01*
X252703946Y-94617751D01*
X252703949Y-94617753D01*
X252857948Y-94683916D01*
X252892931Y-94698946D01*
X253099177Y-94745615D01*
X253104950Y-94745842D01*
X253110299Y-94746546D01*
X253175227Y-94775268D01*
X253214319Y-94834532D01*
X253215164Y-94905524D01*
X253177495Y-94965703D01*
X253115192Y-94995648D01*
X252956632Y-95022894D01*
X252950935Y-95023873D01*
X252752544Y-95097063D01*
X252747583Y-95100015D01*
X252747582Y-95100015D01*
X252600473Y-95187536D01*
X252570814Y-95205181D01*
X252411830Y-95344606D01*
X252280916Y-95510670D01*
X252278227Y-95515781D01*
X252278225Y-95515784D01*
X252239837Y-95588748D01*
X252182457Y-95697809D01*
X252119750Y-95899758D01*
X252094896Y-96109753D01*
X252108726Y-96320760D01*
X252160778Y-96525714D01*
X252249308Y-96717750D01*
X252371351Y-96890437D01*
X252522820Y-97037992D01*
X252527616Y-97041197D01*
X252527619Y-97041199D01*
X252665022Y-97133008D01*
X252698643Y-97155473D01*
X252703946Y-97157751D01*
X252703949Y-97157753D01*
X252839155Y-97215842D01*
X252892931Y-97238946D01*
X253099177Y-97285615D01*
X253104950Y-97285842D01*
X253110299Y-97286546D01*
X253175227Y-97315268D01*
X253214319Y-97374532D01*
X253215164Y-97445524D01*
X253177495Y-97505703D01*
X253115192Y-97535648D01*
X252956632Y-97562894D01*
X252950935Y-97563873D01*
X252752544Y-97637063D01*
X252747583Y-97640015D01*
X252747582Y-97640015D01*
X252625558Y-97712612D01*
X252570814Y-97745181D01*
X252411830Y-97884606D01*
X252280916Y-98050670D01*
X252182457Y-98237809D01*
X252119750Y-98439758D01*
X252094896Y-98649753D01*
X252108726Y-98860760D01*
X252160778Y-99065714D01*
X252249308Y-99257750D01*
X252371351Y-99430437D01*
X252522820Y-99577992D01*
X252527616Y-99581197D01*
X252527619Y-99581199D01*
X252598530Y-99628580D01*
X252698643Y-99695473D01*
X252703946Y-99697751D01*
X252703949Y-99697753D01*
X252785472Y-99732778D01*
X252892931Y-99778946D01*
X253099177Y-99825615D01*
X253104950Y-99825842D01*
X253110299Y-99826546D01*
X253175227Y-99855268D01*
X253214319Y-99914532D01*
X253215164Y-99985524D01*
X253177495Y-100045703D01*
X253115192Y-100075648D01*
X252956632Y-100102894D01*
X252950935Y-100103873D01*
X252752544Y-100177063D01*
X252570814Y-100285181D01*
X252411830Y-100424606D01*
X252280916Y-100590670D01*
X252182457Y-100777809D01*
X252119750Y-100979758D01*
X252094896Y-101189753D01*
X252108726Y-101400760D01*
X252160778Y-101605714D01*
X252249308Y-101797750D01*
X252371351Y-101970437D01*
X252522820Y-102117992D01*
X252527616Y-102121197D01*
X252527619Y-102121199D01*
X252595995Y-102166886D01*
X252698643Y-102235473D01*
X252703946Y-102237751D01*
X252703949Y-102237753D01*
X252785472Y-102272778D01*
X252892931Y-102318946D01*
X253099177Y-102365615D01*
X253104950Y-102365842D01*
X253110299Y-102366546D01*
X253175227Y-102395268D01*
X253214319Y-102454532D01*
X253215164Y-102525524D01*
X253177495Y-102585703D01*
X253115192Y-102615648D01*
X252956632Y-102642894D01*
X252950935Y-102643873D01*
X252752544Y-102717063D01*
X252747583Y-102720015D01*
X252747582Y-102720015D01*
X252583952Y-102817365D01*
X252570814Y-102825181D01*
X252411830Y-102964606D01*
X252280916Y-103130670D01*
X252278227Y-103135781D01*
X252278225Y-103135784D01*
X252245994Y-103197045D01*
X252182457Y-103317809D01*
X252119750Y-103519758D01*
X252094896Y-103729753D01*
X252108726Y-103940760D01*
X252160778Y-104145714D01*
X252249308Y-104337750D01*
X252371351Y-104510437D01*
X252522820Y-104657992D01*
X252527616Y-104661197D01*
X252527619Y-104661199D01*
X252598530Y-104708580D01*
X252698643Y-104775473D01*
X252703946Y-104777751D01*
X252703949Y-104777753D01*
X252785472Y-104812778D01*
X252892931Y-104858946D01*
X253099177Y-104905615D01*
X253104950Y-104905842D01*
X253110299Y-104906546D01*
X253175227Y-104935268D01*
X253214319Y-104994532D01*
X253215164Y-105065524D01*
X253177495Y-105125703D01*
X253115192Y-105155648D01*
X252956632Y-105182894D01*
X252950935Y-105183873D01*
X252752544Y-105257063D01*
X252570814Y-105365181D01*
X252411830Y-105504606D01*
X252280916Y-105670670D01*
X252278227Y-105675781D01*
X252278225Y-105675784D01*
X252269890Y-105691626D01*
X252182457Y-105857809D01*
X252119750Y-106059758D01*
X252094896Y-106269753D01*
X252108726Y-106480760D01*
X252160778Y-106685714D01*
X252249308Y-106877750D01*
X252371351Y-107050437D01*
X252522820Y-107197992D01*
X252527616Y-107201197D01*
X252527619Y-107201199D01*
X252598530Y-107248580D01*
X252698643Y-107315473D01*
X252703946Y-107317751D01*
X252703949Y-107317753D01*
X252785472Y-107352778D01*
X252892931Y-107398946D01*
X253099177Y-107445615D01*
X253104950Y-107445842D01*
X253110299Y-107446546D01*
X253175227Y-107475268D01*
X253214319Y-107534532D01*
X253215164Y-107605524D01*
X253177495Y-107665703D01*
X253115192Y-107695648D01*
X252956632Y-107722894D01*
X252950935Y-107723873D01*
X252752544Y-107797063D01*
X252570814Y-107905181D01*
X252411830Y-108044606D01*
X252280916Y-108210670D01*
X252182457Y-108397809D01*
X252119750Y-108599758D01*
X252094896Y-108809753D01*
X252108726Y-109020760D01*
X252160778Y-109225714D01*
X252249308Y-109417750D01*
X252371351Y-109590437D01*
X252522820Y-109737992D01*
X252527616Y-109741197D01*
X252527619Y-109741199D01*
X252573191Y-109771649D01*
X252698643Y-109855473D01*
X252703946Y-109857751D01*
X252703949Y-109857753D01*
X252853551Y-109922027D01*
X252892931Y-109938946D01*
X253099177Y-109985615D01*
X253104950Y-109985842D01*
X253110299Y-109986546D01*
X253175227Y-110015268D01*
X253214319Y-110074532D01*
X253215164Y-110145524D01*
X253177495Y-110205703D01*
X253115192Y-110235648D01*
X252956632Y-110262894D01*
X252950935Y-110263873D01*
X252752544Y-110337063D01*
X252747583Y-110340015D01*
X252747582Y-110340015D01*
X252582930Y-110437973D01*
X252570814Y-110445181D01*
X252411830Y-110584606D01*
X252280916Y-110750670D01*
X252182457Y-110937809D01*
X252119750Y-111139758D01*
X252094896Y-111349753D01*
X252108726Y-111560760D01*
X252160778Y-111765714D01*
X252249308Y-111957750D01*
X252371351Y-112130437D01*
X252522820Y-112277992D01*
X252527616Y-112281197D01*
X252527619Y-112281199D01*
X252573191Y-112311649D01*
X252698643Y-112395473D01*
X252703946Y-112397751D01*
X252703949Y-112397753D01*
X252834616Y-112453892D01*
X252892931Y-112478946D01*
X252993564Y-112501717D01*
X253054948Y-112515607D01*
X253116975Y-112550150D01*
X253150479Y-112612743D01*
X253144825Y-112683515D01*
X253101806Y-112739994D01*
X253035081Y-112764249D01*
X253027140Y-112764500D01*
X252400000Y-112764500D01*
X252398559Y-112764567D01*
X252398542Y-112764567D01*
X252384442Y-112765219D01*
X252371812Y-112765803D01*
X252263827Y-112796528D01*
X252174233Y-112864186D01*
X252115130Y-112959641D01*
X252112986Y-112971113D01*
X252112985Y-112971114D01*
X252109467Y-112989935D01*
X252094500Y-113070000D01*
X226465500Y-113070000D01*
X226465236Y-113064275D01*
X226464533Y-113049084D01*
X226464197Y-113041812D01*
X226433472Y-112933827D01*
X226365814Y-112844233D01*
X226270359Y-112785130D01*
X226258887Y-112782986D01*
X226258886Y-112782985D01*
X226165725Y-112765570D01*
X226165723Y-112765570D01*
X226160000Y-112764500D01*
X225527264Y-112764500D01*
X225459143Y-112744498D01*
X225412650Y-112690842D01*
X225402546Y-112620568D01*
X225432040Y-112555988D01*
X225491766Y-112517604D01*
X225509184Y-112513804D01*
X225574032Y-112504402D01*
X225574037Y-112504401D01*
X225579746Y-112503573D01*
X225585210Y-112501718D01*
X225585215Y-112501717D01*
X225774512Y-112437460D01*
X225774517Y-112437458D01*
X225779984Y-112435602D01*
X225964482Y-112332278D01*
X226127062Y-112197062D01*
X226262278Y-112034482D01*
X226365602Y-111849984D01*
X226367458Y-111844517D01*
X226367460Y-111844512D01*
X226431717Y-111655215D01*
X226431718Y-111655210D01*
X226433573Y-111649746D01*
X226434401Y-111644037D01*
X226434402Y-111644032D01*
X226458603Y-111477118D01*
X226463916Y-111440474D01*
X226465500Y-111380000D01*
X226451931Y-111232325D01*
X226446680Y-111175181D01*
X226446679Y-111175178D01*
X226446151Y-111169427D01*
X226437784Y-111139758D01*
X226390320Y-110971465D01*
X226390319Y-110971463D01*
X226388752Y-110965906D01*
X226374897Y-110937809D01*
X226297781Y-110781434D01*
X226295226Y-110776253D01*
X226168704Y-110606820D01*
X226013424Y-110463280D01*
X226008541Y-110460199D01*
X226008537Y-110460196D01*
X225839470Y-110353523D01*
X225839465Y-110353521D01*
X225834586Y-110350442D01*
X225638180Y-110272084D01*
X225496592Y-110243920D01*
X225435650Y-110231798D01*
X225372741Y-110198890D01*
X225337609Y-110137195D01*
X225341409Y-110066300D01*
X225382935Y-110008714D01*
X225442151Y-109983523D01*
X225477042Y-109978464D01*
X225574032Y-109964402D01*
X225574037Y-109964401D01*
X225579746Y-109963573D01*
X225585210Y-109961718D01*
X225585215Y-109961717D01*
X225774512Y-109897460D01*
X225774517Y-109897458D01*
X225779984Y-109895602D01*
X225964482Y-109792278D01*
X226127062Y-109657062D01*
X226262278Y-109494482D01*
X226365602Y-109309984D01*
X226367458Y-109304517D01*
X226367460Y-109304512D01*
X226431717Y-109115215D01*
X226431718Y-109115210D01*
X226433573Y-109109746D01*
X226434401Y-109104037D01*
X226434402Y-109104032D01*
X226463383Y-108904148D01*
X226463916Y-108900474D01*
X226465500Y-108840000D01*
X226446151Y-108629427D01*
X226437784Y-108599758D01*
X226390320Y-108431465D01*
X226390319Y-108431463D01*
X226388752Y-108425906D01*
X226374897Y-108397809D01*
X226297781Y-108241434D01*
X226295226Y-108236253D01*
X226168704Y-108066820D01*
X226013424Y-107923280D01*
X226008541Y-107920199D01*
X226008537Y-107920196D01*
X225839470Y-107813523D01*
X225839465Y-107813521D01*
X225834586Y-107810442D01*
X225638180Y-107732084D01*
X225455005Y-107695648D01*
X225435650Y-107691798D01*
X225372741Y-107658890D01*
X225337609Y-107597195D01*
X225341409Y-107526300D01*
X225382935Y-107468714D01*
X225442151Y-107443523D01*
X225477042Y-107438464D01*
X225574032Y-107424402D01*
X225574037Y-107424401D01*
X225579746Y-107423573D01*
X225585210Y-107421718D01*
X225585215Y-107421717D01*
X225774512Y-107357460D01*
X225774517Y-107357458D01*
X225779984Y-107355602D01*
X225964482Y-107252278D01*
X226127062Y-107117062D01*
X226262278Y-106954482D01*
X226365602Y-106769984D01*
X226367458Y-106764517D01*
X226367460Y-106764512D01*
X226431717Y-106575215D01*
X226431718Y-106575210D01*
X226433573Y-106569746D01*
X226434401Y-106564037D01*
X226434402Y-106564032D01*
X226463383Y-106364148D01*
X226463916Y-106360474D01*
X226465500Y-106300000D01*
X226446151Y-106089427D01*
X226437784Y-106059758D01*
X226390320Y-105891465D01*
X226390319Y-105891463D01*
X226388752Y-105885906D01*
X226374897Y-105857809D01*
X226297781Y-105701434D01*
X226295226Y-105696253D01*
X226168704Y-105526820D01*
X226013424Y-105383280D01*
X226008541Y-105380199D01*
X226008537Y-105380196D01*
X225839470Y-105273523D01*
X225839465Y-105273521D01*
X225834586Y-105270442D01*
X225638180Y-105192084D01*
X225455005Y-105155648D01*
X225435650Y-105151798D01*
X225372741Y-105118890D01*
X225337609Y-105057195D01*
X225341409Y-104986300D01*
X225382935Y-104928714D01*
X225442151Y-104903523D01*
X225477042Y-104898464D01*
X225574032Y-104884402D01*
X225574037Y-104884401D01*
X225579746Y-104883573D01*
X225585210Y-104881718D01*
X225585215Y-104881717D01*
X225774512Y-104817460D01*
X225774517Y-104817458D01*
X225779984Y-104815602D01*
X225964482Y-104712278D01*
X226127062Y-104577062D01*
X226262278Y-104414482D01*
X226365602Y-104229984D01*
X226367458Y-104224517D01*
X226367460Y-104224512D01*
X226431717Y-104035215D01*
X226431718Y-104035210D01*
X226433573Y-104029746D01*
X226434401Y-104024037D01*
X226434402Y-104024032D01*
X226463383Y-103824148D01*
X226463916Y-103820474D01*
X226465500Y-103760000D01*
X226446151Y-103549427D01*
X226437784Y-103519758D01*
X226390320Y-103351465D01*
X226390319Y-103351463D01*
X226388752Y-103345906D01*
X226374897Y-103317809D01*
X226297781Y-103161434D01*
X226295226Y-103156253D01*
X226168704Y-102986820D01*
X226041423Y-102869162D01*
X226017669Y-102847204D01*
X226013424Y-102843280D01*
X226008541Y-102840199D01*
X226008537Y-102840196D01*
X225839470Y-102733523D01*
X225839465Y-102733521D01*
X225834586Y-102730442D01*
X225638180Y-102652084D01*
X225455005Y-102615648D01*
X225435650Y-102611798D01*
X225372741Y-102578890D01*
X225337609Y-102517195D01*
X225341409Y-102446300D01*
X225382935Y-102388714D01*
X225442151Y-102363523D01*
X225477042Y-102358464D01*
X225574032Y-102344402D01*
X225574037Y-102344401D01*
X225579746Y-102343573D01*
X225585210Y-102341718D01*
X225585215Y-102341717D01*
X225774512Y-102277460D01*
X225774517Y-102277458D01*
X225779984Y-102275602D01*
X225964482Y-102172278D01*
X226127062Y-102037062D01*
X226262278Y-101874482D01*
X226365602Y-101689984D01*
X226367458Y-101684517D01*
X226367460Y-101684512D01*
X226431717Y-101495215D01*
X226431718Y-101495210D01*
X226433573Y-101489746D01*
X226434401Y-101484037D01*
X226434402Y-101484032D01*
X226463383Y-101284148D01*
X226463916Y-101280474D01*
X226465500Y-101220000D01*
X226452589Y-101079487D01*
X226446680Y-101015181D01*
X226446679Y-101015178D01*
X226446151Y-101009427D01*
X226437784Y-100979758D01*
X226390320Y-100811465D01*
X226390319Y-100811463D01*
X226388752Y-100805906D01*
X226374897Y-100777809D01*
X226297781Y-100621434D01*
X226295226Y-100616253D01*
X226168704Y-100446820D01*
X226013424Y-100303280D01*
X226008541Y-100300199D01*
X226008537Y-100300196D01*
X225839470Y-100193523D01*
X225839465Y-100193521D01*
X225834586Y-100190442D01*
X225638180Y-100112084D01*
X225455005Y-100075648D01*
X225435650Y-100071798D01*
X225372741Y-100038890D01*
X225337609Y-99977195D01*
X225341409Y-99906300D01*
X225382935Y-99848714D01*
X225442151Y-99823523D01*
X225477042Y-99818464D01*
X225574032Y-99804402D01*
X225574037Y-99804401D01*
X225579746Y-99803573D01*
X225585210Y-99801718D01*
X225585215Y-99801717D01*
X225774512Y-99737460D01*
X225774517Y-99737458D01*
X225779984Y-99735602D01*
X225964482Y-99632278D01*
X226127062Y-99497062D01*
X226262278Y-99334482D01*
X226365602Y-99149984D01*
X226367458Y-99144517D01*
X226367460Y-99144512D01*
X226431717Y-98955215D01*
X226431718Y-98955210D01*
X226433573Y-98949746D01*
X226434401Y-98944037D01*
X226434402Y-98944032D01*
X226463383Y-98744148D01*
X226463916Y-98740474D01*
X226465500Y-98680000D01*
X226446151Y-98469427D01*
X226437784Y-98439758D01*
X226390320Y-98271465D01*
X226390319Y-98271463D01*
X226388752Y-98265906D01*
X226374897Y-98237809D01*
X226297781Y-98081434D01*
X226295226Y-98076253D01*
X226168704Y-97906820D01*
X226013424Y-97763280D01*
X226008541Y-97760199D01*
X226008537Y-97760196D01*
X225839470Y-97653523D01*
X225839465Y-97653521D01*
X225834586Y-97650442D01*
X225638180Y-97572084D01*
X225496592Y-97543920D01*
X225435650Y-97531798D01*
X225372741Y-97498890D01*
X225337609Y-97437195D01*
X225341409Y-97366300D01*
X225382935Y-97308714D01*
X225442151Y-97283523D01*
X225477042Y-97278464D01*
X225574032Y-97264402D01*
X225574037Y-97264401D01*
X225579746Y-97263573D01*
X225585210Y-97261718D01*
X225585215Y-97261717D01*
X225774512Y-97197460D01*
X225774517Y-97197458D01*
X225779984Y-97195602D01*
X225786922Y-97191717D01*
X225901660Y-97127460D01*
X225964482Y-97092278D01*
X226127062Y-96957062D01*
X226262278Y-96794482D01*
X226365602Y-96609984D01*
X226367458Y-96604517D01*
X226367460Y-96604512D01*
X226431717Y-96415215D01*
X226431718Y-96415210D01*
X226433573Y-96409746D01*
X226434401Y-96404037D01*
X226434402Y-96404032D01*
X226456625Y-96250760D01*
X226463916Y-96200474D01*
X226465500Y-96140000D01*
X226448285Y-95952652D01*
X226446680Y-95935181D01*
X226446679Y-95935178D01*
X226446151Y-95929427D01*
X226440785Y-95910398D01*
X226390320Y-95731465D01*
X226390319Y-95731463D01*
X226388752Y-95725906D01*
X226374897Y-95697809D01*
X226297781Y-95541434D01*
X226295226Y-95536253D01*
X226168704Y-95366820D01*
X226013424Y-95223280D01*
X226008541Y-95220199D01*
X226008537Y-95220196D01*
X225839470Y-95113523D01*
X225839465Y-95113521D01*
X225834586Y-95110442D01*
X225638180Y-95032084D01*
X225455005Y-94995648D01*
X225435650Y-94991798D01*
X225372741Y-94958890D01*
X225337609Y-94897195D01*
X225341409Y-94826300D01*
X225382935Y-94768714D01*
X225442151Y-94743523D01*
X225477042Y-94738464D01*
X225574032Y-94724402D01*
X225574037Y-94724401D01*
X225579746Y-94723573D01*
X225585210Y-94721718D01*
X225585215Y-94721717D01*
X225774512Y-94657460D01*
X225774517Y-94657458D01*
X225779984Y-94655602D01*
X225786922Y-94651717D01*
X225901660Y-94587460D01*
X225964482Y-94552278D01*
X226127062Y-94417062D01*
X226262278Y-94254482D01*
X226365602Y-94069984D01*
X226367458Y-94064517D01*
X226367460Y-94064512D01*
X226431717Y-93875215D01*
X226431718Y-93875210D01*
X226433573Y-93869746D01*
X226434401Y-93864037D01*
X226434402Y-93864032D01*
X226460694Y-93682695D01*
X226463916Y-93660474D01*
X226465500Y-93600000D01*
X226448987Y-93420290D01*
X226446680Y-93395181D01*
X226446679Y-93395178D01*
X226446151Y-93389427D01*
X226437784Y-93359758D01*
X226390320Y-93191465D01*
X226390319Y-93191463D01*
X226388752Y-93185906D01*
X226374897Y-93157809D01*
X226297781Y-93001434D01*
X226295226Y-92996253D01*
X226168704Y-92826820D01*
X226013424Y-92683280D01*
X226008541Y-92680199D01*
X226008537Y-92680196D01*
X225839470Y-92573523D01*
X225839465Y-92573521D01*
X225834586Y-92570442D01*
X225638180Y-92492084D01*
X225455005Y-92455648D01*
X225435650Y-92451798D01*
X225372741Y-92418890D01*
X225337609Y-92357195D01*
X225341409Y-92286300D01*
X225382935Y-92228714D01*
X225442151Y-92203523D01*
X225477042Y-92198464D01*
X225574032Y-92184402D01*
X225574037Y-92184401D01*
X225579746Y-92183573D01*
X225585210Y-92181718D01*
X225585215Y-92181717D01*
X225774512Y-92117460D01*
X225774517Y-92117458D01*
X225779984Y-92115602D01*
X225786670Y-92111858D01*
X225901660Y-92047460D01*
X225964482Y-92012278D01*
X226127062Y-91877062D01*
X226262278Y-91714482D01*
X226365602Y-91529984D01*
X226367458Y-91524517D01*
X226367460Y-91524512D01*
X226431717Y-91335215D01*
X226431718Y-91335210D01*
X226433573Y-91329746D01*
X226434401Y-91324037D01*
X226434402Y-91324032D01*
X226463383Y-91124148D01*
X226463916Y-91120474D01*
X226465500Y-91060000D01*
X226446151Y-90849427D01*
X226443041Y-90838397D01*
X226390320Y-90651465D01*
X226390319Y-90651463D01*
X226388752Y-90645906D01*
X226374897Y-90617809D01*
X226297781Y-90461434D01*
X226295226Y-90456253D01*
X226168704Y-90286820D01*
X226013424Y-90143280D01*
X226008541Y-90140199D01*
X226008537Y-90140196D01*
X225839470Y-90033523D01*
X225839465Y-90033521D01*
X225834586Y-90030442D01*
X225638180Y-89952084D01*
X225455005Y-89915648D01*
X225435650Y-89911798D01*
X225372741Y-89878890D01*
X225337609Y-89817195D01*
X225341409Y-89746300D01*
X225382935Y-89688714D01*
X225442151Y-89663523D01*
X225477042Y-89658464D01*
X225574032Y-89644402D01*
X225574037Y-89644401D01*
X225579746Y-89643573D01*
X225585210Y-89641718D01*
X225585215Y-89641717D01*
X225774512Y-89577460D01*
X225774517Y-89577458D01*
X225779984Y-89575602D01*
X225964482Y-89472278D01*
X226127062Y-89337062D01*
X226262278Y-89174482D01*
X226359462Y-89000948D01*
X226362778Y-88995027D01*
X226362779Y-88995025D01*
X226365602Y-88989984D01*
X226367458Y-88984517D01*
X226367460Y-88984512D01*
X226431717Y-88795215D01*
X226431718Y-88795210D01*
X226433573Y-88789746D01*
X226434401Y-88784037D01*
X226434402Y-88784032D01*
X226463383Y-88584148D01*
X226463916Y-88580474D01*
X226465500Y-88520000D01*
X226446151Y-88309427D01*
X226437784Y-88279758D01*
X226390320Y-88111465D01*
X226390319Y-88111463D01*
X226388752Y-88105906D01*
X226374897Y-88077809D01*
X226297781Y-87921434D01*
X226295226Y-87916253D01*
X226168704Y-87746820D01*
X226013424Y-87603280D01*
X226008541Y-87600199D01*
X226008537Y-87600196D01*
X225839470Y-87493523D01*
X225839465Y-87493521D01*
X225834586Y-87490442D01*
X225638180Y-87412084D01*
X225447891Y-87374233D01*
X225435650Y-87371798D01*
X225372741Y-87338890D01*
X225337609Y-87277195D01*
X225341409Y-87206300D01*
X225382935Y-87148714D01*
X225442151Y-87123523D01*
X225477042Y-87118464D01*
X225574032Y-87104402D01*
X225574037Y-87104401D01*
X225579746Y-87103573D01*
X225585210Y-87101718D01*
X225585215Y-87101717D01*
X225774512Y-87037460D01*
X225774517Y-87037458D01*
X225779984Y-87035602D01*
X225964482Y-86932278D01*
X226127062Y-86797062D01*
X226262278Y-86634482D01*
X226331185Y-86511439D01*
X226362778Y-86455027D01*
X226362779Y-86455025D01*
X226365602Y-86449984D01*
X226367458Y-86444517D01*
X226367460Y-86444512D01*
X226431717Y-86255215D01*
X226431718Y-86255210D01*
X226433573Y-86249746D01*
X226434401Y-86244037D01*
X226434402Y-86244032D01*
X226458988Y-86074464D01*
X226463916Y-86040474D01*
X226465500Y-85980000D01*
X226453524Y-85849665D01*
X226446680Y-85775181D01*
X226446679Y-85775178D01*
X226446151Y-85769427D01*
X226437784Y-85739758D01*
X226390320Y-85571465D01*
X226390319Y-85571463D01*
X226388752Y-85565906D01*
X226374897Y-85537809D01*
X226297781Y-85381434D01*
X226295226Y-85376253D01*
X226168704Y-85206820D01*
X226063345Y-85109427D01*
X226017669Y-85067204D01*
X226013424Y-85063280D01*
X226008541Y-85060199D01*
X226008537Y-85060196D01*
X225839470Y-84953523D01*
X225839465Y-84953521D01*
X225834586Y-84950442D01*
X225638180Y-84872084D01*
X225455005Y-84835648D01*
X225435650Y-84831798D01*
X225372741Y-84798890D01*
X225337609Y-84737195D01*
X225341409Y-84666300D01*
X225382935Y-84608714D01*
X225442151Y-84583523D01*
X225477042Y-84578464D01*
X225574032Y-84564402D01*
X225574037Y-84564401D01*
X225579746Y-84563573D01*
X225585210Y-84561718D01*
X225585215Y-84561717D01*
X225774512Y-84497460D01*
X225774517Y-84497458D01*
X225779984Y-84495602D01*
X225964482Y-84392278D01*
X226127062Y-84257062D01*
X226262278Y-84094482D01*
X226343912Y-83948714D01*
X226362778Y-83915027D01*
X226362779Y-83915025D01*
X226365602Y-83909984D01*
X226367458Y-83904517D01*
X226367460Y-83904512D01*
X226431717Y-83715215D01*
X226431718Y-83715210D01*
X226433573Y-83709746D01*
X226434401Y-83704037D01*
X226434402Y-83704032D01*
X226458988Y-83534464D01*
X226463916Y-83500474D01*
X226465500Y-83440000D01*
X226453524Y-83309665D01*
X226446680Y-83235181D01*
X226446679Y-83235178D01*
X226446151Y-83229427D01*
X226440601Y-83209746D01*
X226390320Y-83031465D01*
X226390319Y-83031463D01*
X226388752Y-83025906D01*
X226378023Y-83004148D01*
X226297781Y-82841434D01*
X226295226Y-82836253D01*
X226168704Y-82666820D01*
X226063345Y-82569427D01*
X226017669Y-82527204D01*
X226013424Y-82523280D01*
X226008541Y-82520199D01*
X226008537Y-82520196D01*
X225839470Y-82413523D01*
X225839465Y-82413521D01*
X225834586Y-82410442D01*
X225638180Y-82332084D01*
X225455005Y-82295648D01*
X225435650Y-82291798D01*
X225372741Y-82258890D01*
X225337609Y-82197195D01*
X225341409Y-82126300D01*
X225382935Y-82068714D01*
X225442151Y-82043523D01*
X225477042Y-82038464D01*
X225574032Y-82024402D01*
X225574037Y-82024401D01*
X225579746Y-82023573D01*
X225585210Y-82021718D01*
X225585215Y-82021717D01*
X225774512Y-81957460D01*
X225774517Y-81957458D01*
X225779984Y-81955602D01*
X225785836Y-81952325D01*
X225864444Y-81908302D01*
X225964482Y-81852278D01*
X226127062Y-81717062D01*
X226262278Y-81554482D01*
X226351318Y-81395490D01*
X226362778Y-81375027D01*
X226362779Y-81375025D01*
X226365602Y-81369984D01*
X226367458Y-81364517D01*
X226367460Y-81364512D01*
X226431717Y-81175215D01*
X226431718Y-81175210D01*
X226433573Y-81169746D01*
X226434401Y-81164037D01*
X226434402Y-81164032D01*
X226458988Y-80994464D01*
X226463916Y-80960474D01*
X226465500Y-80900000D01*
X226453524Y-80769665D01*
X226446680Y-80695181D01*
X226446679Y-80695178D01*
X226446151Y-80689427D01*
X226437784Y-80659758D01*
X226390320Y-80491465D01*
X226390319Y-80491463D01*
X226388752Y-80485906D01*
X226374897Y-80457809D01*
X226297781Y-80301434D01*
X226295226Y-80296253D01*
X226280141Y-80276051D01*
X226172161Y-80131450D01*
X226168704Y-80126820D01*
X226063345Y-80029427D01*
X226017669Y-79987204D01*
X226013424Y-79983280D01*
X226008541Y-79980199D01*
X226008537Y-79980196D01*
X225839470Y-79873523D01*
X225839465Y-79873521D01*
X225834586Y-79870442D01*
X225638180Y-79792084D01*
X225445679Y-79753793D01*
X225435650Y-79751798D01*
X225372741Y-79718890D01*
X225337609Y-79657195D01*
X225341409Y-79586300D01*
X225382935Y-79528714D01*
X225442151Y-79503523D01*
X225477042Y-79498464D01*
X225574032Y-79484402D01*
X225574037Y-79484401D01*
X225579746Y-79483573D01*
X225585210Y-79481718D01*
X225585215Y-79481717D01*
X225774512Y-79417460D01*
X225774517Y-79417458D01*
X225779984Y-79415602D01*
X225964482Y-79312278D01*
X226127062Y-79177062D01*
X226262278Y-79014482D01*
X226353158Y-78852204D01*
X226362778Y-78835027D01*
X226362779Y-78835025D01*
X226365602Y-78829984D01*
X226367458Y-78824517D01*
X226367460Y-78824512D01*
X226431717Y-78635215D01*
X226431718Y-78635210D01*
X226433573Y-78629746D01*
X226434401Y-78624037D01*
X226434402Y-78624032D01*
X226463383Y-78424148D01*
X226463916Y-78420474D01*
X226465500Y-78360000D01*
X226462721Y-78329753D01*
X252094896Y-78329753D01*
X252108726Y-78540760D01*
X252160778Y-78745714D01*
X252249308Y-78937750D01*
X252371351Y-79110437D01*
X252392415Y-79130957D01*
X252512354Y-79247796D01*
X252522820Y-79257992D01*
X252527616Y-79261197D01*
X252527619Y-79261199D01*
X252621957Y-79324233D01*
X252698643Y-79375473D01*
X252703946Y-79377751D01*
X252703949Y-79377753D01*
X252887624Y-79456666D01*
X252892931Y-79458946D01*
X252993564Y-79481717D01*
X253089932Y-79503523D01*
X253099177Y-79505615D01*
X253104949Y-79505842D01*
X253110678Y-79506596D01*
X253110383Y-79508834D01*
X253168329Y-79528363D01*
X253212669Y-79583811D01*
X253219993Y-79654429D01*
X253187975Y-79717796D01*
X253126781Y-79753793D01*
X253117418Y-79755771D01*
X252956761Y-79783377D01*
X252945641Y-79786357D01*
X252758176Y-79855516D01*
X252747798Y-79860466D01*
X252576076Y-79962629D01*
X252566764Y-79969394D01*
X252416534Y-80101143D01*
X252408617Y-80109486D01*
X252284909Y-80266408D01*
X252278647Y-80276051D01*
X252185608Y-80452891D01*
X252181207Y-80463515D01*
X252129916Y-80628700D01*
X252129698Y-80642799D01*
X252136429Y-80646000D01*
X254355271Y-80646000D01*
X254368802Y-80642027D01*
X254369971Y-80633892D01*
X254329853Y-80491644D01*
X254325731Y-80480905D01*
X254237354Y-80301695D01*
X254231344Y-80291887D01*
X254111785Y-80131778D01*
X254104096Y-80123238D01*
X253957354Y-79987592D01*
X253948238Y-79980598D01*
X253779245Y-79873970D01*
X253768994Y-79868746D01*
X253583402Y-79794703D01*
X253572374Y-79791436D01*
X253374175Y-79752012D01*
X253311265Y-79719104D01*
X253276133Y-79657409D01*
X253279933Y-79586515D01*
X253321459Y-79528929D01*
X253380675Y-79503737D01*
X253417331Y-79498422D01*
X253514032Y-79484402D01*
X253514037Y-79484401D01*
X253519746Y-79483573D01*
X253525210Y-79481718D01*
X253525215Y-79481717D01*
X253714512Y-79417460D01*
X253714517Y-79417458D01*
X253719984Y-79415602D01*
X253904482Y-79312278D01*
X254067062Y-79177062D01*
X254202278Y-79014482D01*
X254293158Y-78852204D01*
X254302778Y-78835027D01*
X254302779Y-78835025D01*
X254305602Y-78829984D01*
X254307458Y-78824517D01*
X254307460Y-78824512D01*
X254371717Y-78635215D01*
X254371718Y-78635210D01*
X254373573Y-78629746D01*
X254374401Y-78624037D01*
X254374402Y-78624032D01*
X254403383Y-78424148D01*
X254403916Y-78420474D01*
X254405500Y-78360000D01*
X254386151Y-78149427D01*
X254377784Y-78119758D01*
X254330320Y-77951465D01*
X254330319Y-77951463D01*
X254328752Y-77945906D01*
X254314897Y-77917809D01*
X254237781Y-77761434D01*
X254235226Y-77756253D01*
X254108704Y-77586820D01*
X253953424Y-77443280D01*
X253948541Y-77440199D01*
X253948537Y-77440196D01*
X253779470Y-77333523D01*
X253779465Y-77333521D01*
X253774586Y-77330442D01*
X253578180Y-77252084D01*
X253572520Y-77250958D01*
X253572516Y-77250957D01*
X253376450Y-77211957D01*
X253376447Y-77211957D01*
X253370783Y-77210830D01*
X253365008Y-77210754D01*
X253365004Y-77210754D01*
X253259064Y-77209367D01*
X253159341Y-77208062D01*
X253153644Y-77209041D01*
X253153643Y-77209041D01*
X252956632Y-77242894D01*
X252950935Y-77243873D01*
X252752544Y-77317063D01*
X252570814Y-77425181D01*
X252411830Y-77564606D01*
X252280916Y-77730670D01*
X252182457Y-77917809D01*
X252119750Y-78119758D01*
X252094896Y-78329753D01*
X226462721Y-78329753D01*
X226446151Y-78149427D01*
X226437784Y-78119758D01*
X226390320Y-77951465D01*
X226390319Y-77951463D01*
X226388752Y-77945906D01*
X226374897Y-77917809D01*
X226297781Y-77761434D01*
X226295226Y-77756253D01*
X226168704Y-77586820D01*
X226013424Y-77443280D01*
X226008541Y-77440199D01*
X226008537Y-77440196D01*
X225839470Y-77333523D01*
X225839465Y-77333521D01*
X225834586Y-77330442D01*
X225638180Y-77252084D01*
X225632520Y-77250958D01*
X225632516Y-77250957D01*
X225436450Y-77211957D01*
X225436447Y-77211957D01*
X225430783Y-77210830D01*
X225425008Y-77210754D01*
X225425004Y-77210754D01*
X225319064Y-77209367D01*
X225219341Y-77208062D01*
X225213644Y-77209041D01*
X225213643Y-77209041D01*
X225016632Y-77242894D01*
X225010935Y-77243873D01*
X224812544Y-77317063D01*
X224630814Y-77425181D01*
X224471830Y-77564606D01*
X224340916Y-77730670D01*
X224242457Y-77917809D01*
X224179750Y-78119758D01*
X224154896Y-78329753D01*
X224168726Y-78540760D01*
X224220778Y-78745714D01*
X224309308Y-78937750D01*
X224431351Y-79110437D01*
X224452415Y-79130957D01*
X224572354Y-79247796D01*
X224582820Y-79257992D01*
X224587616Y-79261197D01*
X224587619Y-79261199D01*
X224681957Y-79324233D01*
X224758643Y-79375473D01*
X224763946Y-79377751D01*
X224763949Y-79377753D01*
X224947624Y-79456666D01*
X224952931Y-79458946D01*
X225159177Y-79505615D01*
X225164950Y-79505842D01*
X225170299Y-79506546D01*
X225235227Y-79535268D01*
X225274319Y-79594532D01*
X225275164Y-79665524D01*
X225237495Y-79725703D01*
X225175192Y-79755648D01*
X225016632Y-79782894D01*
X225010935Y-79783873D01*
X224812544Y-79857063D01*
X224630814Y-79965181D01*
X224471830Y-80104606D01*
X224340916Y-80270670D01*
X224338227Y-80275781D01*
X224338225Y-80275784D01*
X224325235Y-80300474D01*
X224242457Y-80457809D01*
X224179750Y-80659758D01*
X224154896Y-80869753D01*
X224168726Y-81080760D01*
X224220778Y-81285714D01*
X224309308Y-81477750D01*
X224431351Y-81650437D01*
X224452416Y-81670958D01*
X224572627Y-81788062D01*
X224582820Y-81797992D01*
X224587616Y-81801197D01*
X224587619Y-81801199D01*
X224686403Y-81867204D01*
X224758643Y-81915473D01*
X224763946Y-81917751D01*
X224763949Y-81917753D01*
X224946516Y-81996190D01*
X224952931Y-81998946D01*
X225159177Y-82045615D01*
X225164950Y-82045842D01*
X225170299Y-82046546D01*
X225235227Y-82075268D01*
X225274319Y-82134532D01*
X225275164Y-82205524D01*
X225237495Y-82265703D01*
X225175192Y-82295648D01*
X225016632Y-82322894D01*
X225010935Y-82323873D01*
X224812544Y-82397063D01*
X224630814Y-82505181D01*
X224471830Y-82644606D01*
X224340916Y-82810670D01*
X224338227Y-82815781D01*
X224338225Y-82815784D01*
X224325235Y-82840474D01*
X224242457Y-82997809D01*
X224179750Y-83199758D01*
X224154896Y-83409753D01*
X224168726Y-83620760D01*
X224220778Y-83825714D01*
X224309308Y-84017750D01*
X224431351Y-84190437D01*
X224582820Y-84337992D01*
X224587616Y-84341197D01*
X224587619Y-84341199D01*
X224686403Y-84407204D01*
X224758643Y-84455473D01*
X224763946Y-84457751D01*
X224763949Y-84457753D01*
X224947624Y-84536666D01*
X224952931Y-84538946D01*
X225159177Y-84585615D01*
X225164950Y-84585842D01*
X225170299Y-84586546D01*
X225235227Y-84615268D01*
X225274319Y-84674532D01*
X225275164Y-84745524D01*
X225237495Y-84805703D01*
X225175192Y-84835648D01*
X225016632Y-84862894D01*
X225010935Y-84863873D01*
X224812544Y-84937063D01*
X224630814Y-85045181D01*
X224471830Y-85184606D01*
X224340916Y-85350670D01*
X224338227Y-85355781D01*
X224338225Y-85355784D01*
X224325235Y-85380474D01*
X224242457Y-85537809D01*
X224179750Y-85739758D01*
X224154896Y-85949753D01*
X224168726Y-86160760D01*
X224220778Y-86365714D01*
X224309308Y-86557750D01*
X224431351Y-86730437D01*
X224582820Y-86877992D01*
X224587616Y-86881197D01*
X224587619Y-86881199D01*
X224658530Y-86928580D01*
X224758643Y-86995473D01*
X224763946Y-86997751D01*
X224763949Y-86997753D01*
X224845472Y-87032778D01*
X224952931Y-87078946D01*
X225159177Y-87125615D01*
X225164950Y-87125842D01*
X225170299Y-87126546D01*
X225235227Y-87155268D01*
X225274319Y-87214532D01*
X225275164Y-87285524D01*
X225237495Y-87345703D01*
X225175192Y-87375648D01*
X225016632Y-87402894D01*
X225010935Y-87403873D01*
X224812544Y-87477063D01*
X224630814Y-87585181D01*
X224471830Y-87724606D01*
X224340916Y-87890670D01*
X224242457Y-88077809D01*
X224179750Y-88279758D01*
X224154896Y-88489753D01*
X224168726Y-88700760D01*
X224220778Y-88905714D01*
X224309308Y-89097750D01*
X224431351Y-89270437D01*
X224435485Y-89274464D01*
X224574985Y-89410359D01*
X224582820Y-89417992D01*
X224587616Y-89421197D01*
X224587619Y-89421199D01*
X224658530Y-89468580D01*
X224758643Y-89535473D01*
X224763946Y-89537751D01*
X224763949Y-89537753D01*
X224922801Y-89606001D01*
X224952931Y-89618946D01*
X225159177Y-89665615D01*
X225164950Y-89665842D01*
X225170299Y-89666546D01*
X225235227Y-89695268D01*
X225274319Y-89754532D01*
X225275164Y-89825524D01*
X225237495Y-89885703D01*
X225175192Y-89915648D01*
X225016632Y-89942894D01*
X225010935Y-89943873D01*
X224812544Y-90017063D01*
X224807583Y-90020015D01*
X224807582Y-90020015D01*
X224753439Y-90052227D01*
X224630814Y-90125181D01*
X224471830Y-90264606D01*
X224340916Y-90430670D01*
X224242457Y-90617809D01*
X224179750Y-90819758D01*
X224154896Y-91029753D01*
X224168726Y-91240760D01*
X224220778Y-91445714D01*
X224309308Y-91637750D01*
X224431351Y-91810437D01*
X224582820Y-91957992D01*
X224587616Y-91961197D01*
X224587619Y-91961199D01*
X224728551Y-92055366D01*
X224758643Y-92075473D01*
X224763946Y-92077751D01*
X224763949Y-92077753D01*
X224917948Y-92143916D01*
X224952931Y-92158946D01*
X225159177Y-92205615D01*
X225164950Y-92205842D01*
X225170299Y-92206546D01*
X225235227Y-92235268D01*
X225274319Y-92294532D01*
X225275164Y-92365524D01*
X225237495Y-92425703D01*
X225175192Y-92455648D01*
X225016632Y-92482894D01*
X225010935Y-92483873D01*
X224812544Y-92557063D01*
X224807583Y-92560015D01*
X224807582Y-92560015D01*
X224673639Y-92639703D01*
X224630814Y-92665181D01*
X224471830Y-92804606D01*
X224340916Y-92970670D01*
X224338227Y-92975781D01*
X224338225Y-92975784D01*
X224286022Y-93075005D01*
X224242457Y-93157809D01*
X224179750Y-93359758D01*
X224154896Y-93569753D01*
X224168726Y-93780760D01*
X224220778Y-93985714D01*
X224309308Y-94177750D01*
X224431351Y-94350437D01*
X224582820Y-94497992D01*
X224587616Y-94501197D01*
X224587619Y-94501199D01*
X224728551Y-94595366D01*
X224758643Y-94615473D01*
X224763946Y-94617751D01*
X224763949Y-94617753D01*
X224917948Y-94683916D01*
X224952931Y-94698946D01*
X225159177Y-94745615D01*
X225164950Y-94745842D01*
X225170299Y-94746546D01*
X225235227Y-94775268D01*
X225274319Y-94834532D01*
X225275164Y-94905524D01*
X225237495Y-94965703D01*
X225175192Y-94995648D01*
X225016632Y-95022894D01*
X225010935Y-95023873D01*
X224812544Y-95097063D01*
X224807583Y-95100015D01*
X224807582Y-95100015D01*
X224660473Y-95187536D01*
X224630814Y-95205181D01*
X224471830Y-95344606D01*
X224340916Y-95510670D01*
X224338227Y-95515781D01*
X224338225Y-95515784D01*
X224299837Y-95588748D01*
X224242457Y-95697809D01*
X224179750Y-95899758D01*
X224154896Y-96109753D01*
X224168726Y-96320760D01*
X224220778Y-96525714D01*
X224309308Y-96717750D01*
X224431351Y-96890437D01*
X224582820Y-97037992D01*
X224587616Y-97041197D01*
X224587619Y-97041199D01*
X224725022Y-97133008D01*
X224758643Y-97155473D01*
X224763946Y-97157751D01*
X224763949Y-97157753D01*
X224899155Y-97215842D01*
X224952931Y-97238946D01*
X225159177Y-97285615D01*
X225164950Y-97285842D01*
X225170299Y-97286546D01*
X225235227Y-97315268D01*
X225274319Y-97374532D01*
X225275164Y-97445524D01*
X225237495Y-97505703D01*
X225175192Y-97535648D01*
X225016632Y-97562894D01*
X225010935Y-97563873D01*
X224812544Y-97637063D01*
X224807583Y-97640015D01*
X224807582Y-97640015D01*
X224685558Y-97712612D01*
X224630814Y-97745181D01*
X224471830Y-97884606D01*
X224340916Y-98050670D01*
X224242457Y-98237809D01*
X224179750Y-98439758D01*
X224154896Y-98649753D01*
X224168726Y-98860760D01*
X224220778Y-99065714D01*
X224309308Y-99257750D01*
X224431351Y-99430437D01*
X224582820Y-99577992D01*
X224587616Y-99581197D01*
X224587619Y-99581199D01*
X224658530Y-99628580D01*
X224758643Y-99695473D01*
X224763946Y-99697751D01*
X224763949Y-99697753D01*
X224845472Y-99732778D01*
X224952931Y-99778946D01*
X225159177Y-99825615D01*
X225164950Y-99825842D01*
X225170299Y-99826546D01*
X225235227Y-99855268D01*
X225274319Y-99914532D01*
X225275164Y-99985524D01*
X225237495Y-100045703D01*
X225175192Y-100075648D01*
X225016632Y-100102894D01*
X225010935Y-100103873D01*
X224812544Y-100177063D01*
X224630814Y-100285181D01*
X224471830Y-100424606D01*
X224340916Y-100590670D01*
X224242457Y-100777809D01*
X224179750Y-100979758D01*
X224154896Y-101189753D01*
X224168726Y-101400760D01*
X224220778Y-101605714D01*
X224309308Y-101797750D01*
X224431351Y-101970437D01*
X224582820Y-102117992D01*
X224587616Y-102121197D01*
X224587619Y-102121199D01*
X224655995Y-102166886D01*
X224758643Y-102235473D01*
X224763946Y-102237751D01*
X224763949Y-102237753D01*
X224845472Y-102272778D01*
X224952931Y-102318946D01*
X225159177Y-102365615D01*
X225164950Y-102365842D01*
X225170299Y-102366546D01*
X225235227Y-102395268D01*
X225274319Y-102454532D01*
X225275164Y-102525524D01*
X225237495Y-102585703D01*
X225175192Y-102615648D01*
X225016632Y-102642894D01*
X225010935Y-102643873D01*
X224812544Y-102717063D01*
X224807583Y-102720015D01*
X224807582Y-102720015D01*
X224643952Y-102817365D01*
X224630814Y-102825181D01*
X224471830Y-102964606D01*
X224340916Y-103130670D01*
X224338227Y-103135781D01*
X224338225Y-103135784D01*
X224305994Y-103197045D01*
X224242457Y-103317809D01*
X224179750Y-103519758D01*
X224154896Y-103729753D01*
X224168726Y-103940760D01*
X224220778Y-104145714D01*
X224309308Y-104337750D01*
X224431351Y-104510437D01*
X224582820Y-104657992D01*
X224587616Y-104661197D01*
X224587619Y-104661199D01*
X224658530Y-104708580D01*
X224758643Y-104775473D01*
X224763946Y-104777751D01*
X224763949Y-104777753D01*
X224845472Y-104812778D01*
X224952931Y-104858946D01*
X225159177Y-104905615D01*
X225164950Y-104905842D01*
X225170299Y-104906546D01*
X225235227Y-104935268D01*
X225274319Y-104994532D01*
X225275164Y-105065524D01*
X225237495Y-105125703D01*
X225175192Y-105155648D01*
X225016632Y-105182894D01*
X225010935Y-105183873D01*
X224812544Y-105257063D01*
X224630814Y-105365181D01*
X224471830Y-105504606D01*
X224340916Y-105670670D01*
X224338227Y-105675781D01*
X224338225Y-105675784D01*
X224329890Y-105691626D01*
X224242457Y-105857809D01*
X224179750Y-106059758D01*
X224154896Y-106269753D01*
X224168726Y-106480760D01*
X224220778Y-106685714D01*
X224309308Y-106877750D01*
X224431351Y-107050437D01*
X224582820Y-107197992D01*
X224587616Y-107201197D01*
X224587619Y-107201199D01*
X224658530Y-107248580D01*
X224758643Y-107315473D01*
X224763946Y-107317751D01*
X224763949Y-107317753D01*
X224845472Y-107352778D01*
X224952931Y-107398946D01*
X225159177Y-107445615D01*
X225164950Y-107445842D01*
X225170299Y-107446546D01*
X225235227Y-107475268D01*
X225274319Y-107534532D01*
X225275164Y-107605524D01*
X225237495Y-107665703D01*
X225175192Y-107695648D01*
X225016632Y-107722894D01*
X225010935Y-107723873D01*
X224812544Y-107797063D01*
X224630814Y-107905181D01*
X224471830Y-108044606D01*
X224340916Y-108210670D01*
X224242457Y-108397809D01*
X224179750Y-108599758D01*
X224154896Y-108809753D01*
X224168726Y-109020760D01*
X224220778Y-109225714D01*
X224309308Y-109417750D01*
X224431351Y-109590437D01*
X224582820Y-109737992D01*
X224587616Y-109741197D01*
X224587619Y-109741199D01*
X224633191Y-109771649D01*
X224758643Y-109855473D01*
X224763946Y-109857751D01*
X224763949Y-109857753D01*
X224913551Y-109922027D01*
X224952931Y-109938946D01*
X225159177Y-109985615D01*
X225164950Y-109985842D01*
X225170299Y-109986546D01*
X225235227Y-110015268D01*
X225274319Y-110074532D01*
X225275164Y-110145524D01*
X225237495Y-110205703D01*
X225175192Y-110235648D01*
X225016632Y-110262894D01*
X225010935Y-110263873D01*
X224812544Y-110337063D01*
X224807583Y-110340015D01*
X224807582Y-110340015D01*
X224642930Y-110437973D01*
X224630814Y-110445181D01*
X224471830Y-110584606D01*
X224340916Y-110750670D01*
X224242457Y-110937809D01*
X224179750Y-111139758D01*
X224154896Y-111349753D01*
X224168726Y-111560760D01*
X224220778Y-111765714D01*
X224309308Y-111957750D01*
X224431351Y-112130437D01*
X224582820Y-112277992D01*
X224587616Y-112281197D01*
X224587619Y-112281199D01*
X224633191Y-112311649D01*
X224758643Y-112395473D01*
X224763946Y-112397751D01*
X224763949Y-112397753D01*
X224894616Y-112453892D01*
X224952931Y-112478946D01*
X225053564Y-112501717D01*
X225114948Y-112515607D01*
X225176975Y-112550150D01*
X225210479Y-112612743D01*
X225204825Y-112683515D01*
X225161806Y-112739994D01*
X225095081Y-112764249D01*
X225087140Y-112764500D01*
X224460000Y-112764500D01*
X224458559Y-112764567D01*
X224458542Y-112764567D01*
X224444442Y-112765219D01*
X224431812Y-112765803D01*
X224323827Y-112796528D01*
X224234233Y-112864186D01*
X224175130Y-112959641D01*
X224172986Y-112971113D01*
X224172985Y-112971114D01*
X224169467Y-112989935D01*
X224154500Y-113070000D01*
X220195805Y-113070000D01*
X220221228Y-112995106D01*
X220222469Y-112989935D01*
X220220767Y-112977993D01*
X220207199Y-112974000D01*
X217995955Y-112974000D01*
X217982424Y-112977973D01*
X217981132Y-112986962D01*
X218009828Y-113099952D01*
X218013666Y-113110790D01*
X218097323Y-113292255D01*
X218103074Y-113302216D01*
X218218399Y-113465397D01*
X218225865Y-113474139D01*
X218369001Y-113613577D01*
X218377934Y-113620811D01*
X218544078Y-113731824D01*
X218554188Y-113737314D01*
X218737778Y-113816190D01*
X218748721Y-113819745D01*
X218943606Y-113863844D01*
X218960743Y-113866100D01*
X218960444Y-113868369D01*
X219018282Y-113887851D01*
X219062631Y-113943292D01*
X219069967Y-114013908D01*
X219037959Y-114077281D01*
X218976771Y-114113288D01*
X218967390Y-114115270D01*
X218800935Y-114143873D01*
X218602544Y-114217063D01*
X218420814Y-114325181D01*
X218261830Y-114464606D01*
X218130916Y-114630670D01*
X218032457Y-114817809D01*
X217969750Y-115019758D01*
X217969071Y-115025496D01*
X217955097Y-115143562D01*
X217927227Y-115208859D01*
X217868478Y-115248723D01*
X217797504Y-115250497D01*
X217736837Y-115213618D01*
X217705740Y-115149794D01*
X217704499Y-115140281D01*
X217696680Y-115055181D01*
X217696679Y-115055178D01*
X217696151Y-115049427D01*
X217692488Y-115036436D01*
X217640320Y-114851465D01*
X217640319Y-114851463D01*
X217638752Y-114845906D01*
X217624897Y-114817809D01*
X217547781Y-114661434D01*
X217545226Y-114656253D01*
X217418704Y-114486820D01*
X217263424Y-114343280D01*
X217258541Y-114340199D01*
X217258537Y-114340196D01*
X217089470Y-114233523D01*
X217089465Y-114233521D01*
X217084586Y-114230442D01*
X216888180Y-114152084D01*
X216792965Y-114133144D01*
X216684188Y-114111507D01*
X216621279Y-114078599D01*
X216586147Y-114016904D01*
X216589947Y-113946009D01*
X216631473Y-113888423D01*
X216690690Y-113863232D01*
X216823915Y-113843916D01*
X216835098Y-113841231D01*
X217024313Y-113777001D01*
X217034816Y-113772325D01*
X217209162Y-113674687D01*
X217218637Y-113668175D01*
X217372276Y-113540394D01*
X217380394Y-113532276D01*
X217508175Y-113378637D01*
X217514687Y-113369162D01*
X217612325Y-113194816D01*
X217617001Y-113184313D01*
X217681231Y-112995098D01*
X217683916Y-112983915D01*
X217712884Y-112784122D01*
X217713514Y-112776740D01*
X217714903Y-112723704D01*
X217714660Y-112716305D01*
X217696188Y-112515275D01*
X217694090Y-112503954D01*
X217682483Y-112462799D01*
X217979698Y-112462799D01*
X217986429Y-112466000D01*
X220205271Y-112466000D01*
X220218802Y-112462027D01*
X220219971Y-112453892D01*
X220179853Y-112311644D01*
X220175731Y-112300905D01*
X220087354Y-112121695D01*
X220081344Y-112111887D01*
X219961785Y-111951778D01*
X219954096Y-111943238D01*
X219807354Y-111807592D01*
X219798238Y-111800598D01*
X219629245Y-111693970D01*
X219618994Y-111688746D01*
X219433402Y-111614703D01*
X219422376Y-111611437D01*
X219222712Y-111571721D01*
X219159803Y-111538813D01*
X219124671Y-111477118D01*
X219128471Y-111406224D01*
X219169997Y-111348638D01*
X219229214Y-111323446D01*
X219363915Y-111303916D01*
X219375098Y-111301231D01*
X219564313Y-111237001D01*
X219574816Y-111232325D01*
X219749162Y-111134687D01*
X219758637Y-111128175D01*
X219912276Y-111000394D01*
X219920394Y-110992276D01*
X220048175Y-110838637D01*
X220054687Y-110829162D01*
X220152325Y-110654816D01*
X220157001Y-110644313D01*
X220221228Y-110455106D01*
X220222469Y-110449935D01*
X220220767Y-110437993D01*
X220207199Y-110434000D01*
X217995955Y-110434000D01*
X217982424Y-110437973D01*
X217981132Y-110446962D01*
X218009828Y-110559952D01*
X218013666Y-110570790D01*
X218097323Y-110752255D01*
X218103074Y-110762216D01*
X218218399Y-110925397D01*
X218225865Y-110934139D01*
X218369001Y-111073577D01*
X218377934Y-111080811D01*
X218544078Y-111191824D01*
X218554188Y-111197314D01*
X218737778Y-111276190D01*
X218748721Y-111279745D01*
X218943606Y-111323844D01*
X218960743Y-111326100D01*
X218960534Y-111327688D01*
X219020673Y-111347945D01*
X219065022Y-111403386D01*
X219072358Y-111474002D01*
X219040350Y-111537375D01*
X218979163Y-111573382D01*
X218969779Y-111575365D01*
X218806761Y-111603377D01*
X218795641Y-111606357D01*
X218608176Y-111675516D01*
X218597798Y-111680466D01*
X218426076Y-111782629D01*
X218416764Y-111789394D01*
X218266534Y-111921143D01*
X218258617Y-111929486D01*
X218134909Y-112086408D01*
X218128649Y-112096048D01*
X218035608Y-112272891D01*
X218031207Y-112283515D01*
X217979916Y-112448700D01*
X217979698Y-112462799D01*
X217682483Y-112462799D01*
X217639854Y-112311649D01*
X217635729Y-112300902D01*
X217547354Y-112121695D01*
X217541344Y-112111887D01*
X217421785Y-111951778D01*
X217414096Y-111943238D01*
X217267354Y-111807592D01*
X217258238Y-111800598D01*
X217089245Y-111693970D01*
X217078994Y-111688746D01*
X216893402Y-111614703D01*
X216882376Y-111611437D01*
X216682712Y-111571721D01*
X216619803Y-111538813D01*
X216584671Y-111477118D01*
X216588471Y-111406224D01*
X216629997Y-111348638D01*
X216689214Y-111323446D01*
X216823915Y-111303916D01*
X216835098Y-111301231D01*
X217024313Y-111237001D01*
X217034816Y-111232325D01*
X217209162Y-111134687D01*
X217218637Y-111128175D01*
X217372276Y-111000394D01*
X217380394Y-110992276D01*
X217508175Y-110838637D01*
X217514687Y-110829162D01*
X217612325Y-110654816D01*
X217617001Y-110644313D01*
X217681231Y-110455098D01*
X217683916Y-110443915D01*
X217712884Y-110244122D01*
X217713514Y-110236740D01*
X217714903Y-110183704D01*
X217714660Y-110176305D01*
X217696188Y-109975275D01*
X217694090Y-109963954D01*
X217682483Y-109922799D01*
X217979698Y-109922799D01*
X217986429Y-109926000D01*
X218827885Y-109926000D01*
X218843124Y-109921525D01*
X218844329Y-109920135D01*
X218846000Y-109912452D01*
X218846000Y-109077676D01*
X219354000Y-109077676D01*
X219354000Y-109907885D01*
X219358475Y-109923124D01*
X219359865Y-109924329D01*
X219367548Y-109926000D01*
X220205271Y-109926000D01*
X220218802Y-109922027D01*
X220219971Y-109913892D01*
X220179853Y-109771644D01*
X220175731Y-109760905D01*
X220087354Y-109581695D01*
X220081344Y-109571887D01*
X219961785Y-109411778D01*
X219954096Y-109403238D01*
X219807354Y-109267592D01*
X219798238Y-109260598D01*
X219629245Y-109153970D01*
X219618994Y-109148746D01*
X219433402Y-109074703D01*
X219422374Y-109071436D01*
X219371770Y-109061371D01*
X219358894Y-109062523D01*
X219354000Y-109077676D01*
X218846000Y-109077676D01*
X218846000Y-109074749D01*
X218842194Y-109061787D01*
X218827279Y-109059851D01*
X218806756Y-109063378D01*
X218795644Y-109066355D01*
X218608176Y-109135516D01*
X218597798Y-109140466D01*
X218426076Y-109242629D01*
X218416764Y-109249394D01*
X218266534Y-109381143D01*
X218258617Y-109389486D01*
X218134909Y-109546408D01*
X218128649Y-109556048D01*
X218035608Y-109732891D01*
X218031207Y-109743515D01*
X217979916Y-109908700D01*
X217979698Y-109922799D01*
X217682483Y-109922799D01*
X217639854Y-109771649D01*
X217635729Y-109760902D01*
X217547354Y-109581695D01*
X217541344Y-109571887D01*
X217421785Y-109411778D01*
X217414096Y-109403238D01*
X217267354Y-109267592D01*
X217258238Y-109260598D01*
X217089245Y-109153970D01*
X217078994Y-109148746D01*
X216893402Y-109074703D01*
X216882374Y-109071436D01*
X216831770Y-109061371D01*
X216818894Y-109062523D01*
X216814000Y-109077676D01*
X216814000Y-110308000D01*
X216793998Y-110376121D01*
X216740342Y-110422614D01*
X216688000Y-110434000D01*
X215455955Y-110434000D01*
X215442424Y-110437973D01*
X215441132Y-110446962D01*
X215469828Y-110559952D01*
X215473666Y-110570790D01*
X215557323Y-110752255D01*
X215563074Y-110762216D01*
X215678399Y-110925397D01*
X215685865Y-110934139D01*
X215829001Y-111073577D01*
X215837934Y-111080811D01*
X216004078Y-111191824D01*
X216014188Y-111197314D01*
X216197778Y-111276190D01*
X216208721Y-111279745D01*
X216403606Y-111323844D01*
X216420743Y-111326100D01*
X216420534Y-111327688D01*
X216480673Y-111347945D01*
X216525022Y-111403386D01*
X216532358Y-111474002D01*
X216500350Y-111537375D01*
X216439163Y-111573382D01*
X216429779Y-111575365D01*
X216266761Y-111603377D01*
X216255641Y-111606357D01*
X216068176Y-111675516D01*
X216057798Y-111680466D01*
X215886076Y-111782629D01*
X215876764Y-111789394D01*
X215726534Y-111921143D01*
X215718617Y-111929486D01*
X215594909Y-112086408D01*
X215588649Y-112096048D01*
X215495608Y-112272891D01*
X215491207Y-112283515D01*
X215439916Y-112448700D01*
X215439698Y-112462799D01*
X215446429Y-112466000D01*
X216688000Y-112466000D01*
X216756121Y-112486002D01*
X216802614Y-112539658D01*
X216814000Y-112592000D01*
X216814000Y-112848000D01*
X216793998Y-112916121D01*
X216740342Y-112962614D01*
X216688000Y-112974000D01*
X215455955Y-112974000D01*
X215442424Y-112977973D01*
X215441132Y-112986962D01*
X215469828Y-113099952D01*
X215473666Y-113110790D01*
X215557323Y-113292255D01*
X215563074Y-113302216D01*
X215678399Y-113465397D01*
X215685865Y-113474139D01*
X215829001Y-113613577D01*
X215837934Y-113620811D01*
X216004078Y-113731824D01*
X216014188Y-113737314D01*
X216197778Y-113816190D01*
X216208721Y-113819745D01*
X216403606Y-113863844D01*
X216420743Y-113866100D01*
X216420444Y-113868369D01*
X216478282Y-113887851D01*
X216522631Y-113943292D01*
X216529967Y-114013908D01*
X216497959Y-114077281D01*
X216436771Y-114113288D01*
X216427390Y-114115270D01*
X216260935Y-114143873D01*
X216062544Y-114217063D01*
X215880814Y-114325181D01*
X215721830Y-114464606D01*
X215590916Y-114630670D01*
X215492457Y-114817809D01*
X215429750Y-115019758D01*
X215404896Y-115229753D01*
X212925000Y-115229753D01*
X212925000Y-109922799D01*
X215439698Y-109922799D01*
X215446429Y-109926000D01*
X216287885Y-109926000D01*
X216303124Y-109921525D01*
X216304329Y-109920135D01*
X216306000Y-109912452D01*
X216306000Y-109074749D01*
X216302194Y-109061787D01*
X216287279Y-109059851D01*
X216266756Y-109063378D01*
X216255644Y-109066355D01*
X216068176Y-109135516D01*
X216057798Y-109140466D01*
X215886076Y-109242629D01*
X215876764Y-109249394D01*
X215726534Y-109381143D01*
X215718617Y-109389486D01*
X215594909Y-109546408D01*
X215588649Y-109556048D01*
X215495608Y-109732891D01*
X215491207Y-109743515D01*
X215439916Y-109908700D01*
X215439698Y-109922799D01*
X212925000Y-109922799D01*
X212925000Y-99475000D01*
X165376000Y-99475000D01*
X165307879Y-99454998D01*
X165261386Y-99401342D01*
X165250000Y-99349000D01*
X165250000Y-93393920D01*
X210442104Y-93393920D01*
X210460705Y-93562410D01*
X210468045Y-93582466D01*
X210507777Y-93691038D01*
X210518960Y-93721598D01*
X210613505Y-93862296D01*
X210738882Y-93976381D01*
X210745557Y-93980005D01*
X210750739Y-93983688D01*
X210794678Y-94039454D01*
X210801493Y-94110122D01*
X210769020Y-94173257D01*
X210760577Y-94181342D01*
X210695711Y-94237928D01*
X210598240Y-94376615D01*
X210536665Y-94534549D01*
X210535227Y-94545473D01*
X210517971Y-94676546D01*
X210514539Y-94702612D01*
X210533140Y-94871102D01*
X210535750Y-94878233D01*
X210576955Y-94990830D01*
X210591395Y-95030290D01*
X210685940Y-95170988D01*
X210811317Y-95285073D01*
X210957116Y-95364235D01*
X210957119Y-95364237D01*
X210960288Y-95365957D01*
X210960001Y-95366485D01*
X211011752Y-95406864D01*
X211035229Y-95473867D01*
X211018753Y-95542926D01*
X210967185Y-95592308D01*
X210823450Y-95666495D01*
X210817728Y-95671487D01*
X210817726Y-95671488D01*
X210787554Y-95697809D01*
X210695711Y-95777928D01*
X210663166Y-95824235D01*
X210623385Y-95880838D01*
X210598240Y-95916615D01*
X210536665Y-96074549D01*
X210532030Y-96109753D01*
X210520087Y-96200474D01*
X210514539Y-96242612D01*
X210533140Y-96411102D01*
X210549466Y-96455714D01*
X210577003Y-96530961D01*
X210591395Y-96570290D01*
X210685940Y-96710988D01*
X210811317Y-96825073D01*
X210817990Y-96828696D01*
X210817994Y-96828699D01*
X210916761Y-96882324D01*
X210967082Y-96932406D01*
X210982339Y-97001744D01*
X210957687Y-97068323D01*
X210914429Y-97105020D01*
X210860204Y-97133008D01*
X210860198Y-97133012D01*
X210853450Y-97136495D01*
X210847728Y-97141487D01*
X210847726Y-97141488D01*
X210831695Y-97155473D01*
X210725711Y-97247928D01*
X210700120Y-97284340D01*
X210642518Y-97366300D01*
X210628240Y-97386615D01*
X210566665Y-97544549D01*
X210563188Y-97570958D01*
X210553006Y-97648302D01*
X210544539Y-97712612D01*
X210563140Y-97881102D01*
X210621395Y-98040290D01*
X210625631Y-98046593D01*
X210625631Y-98046594D01*
X210642452Y-98071626D01*
X210715940Y-98180988D01*
X210841317Y-98295073D01*
X210990288Y-98375957D01*
X211154253Y-98418973D01*
X211242481Y-98420359D01*
X211316147Y-98421516D01*
X211316150Y-98421516D01*
X211323745Y-98421635D01*
X211382841Y-98408100D01*
X211481577Y-98385487D01*
X211481581Y-98385486D01*
X211488980Y-98383791D01*
X211640418Y-98307626D01*
X211736354Y-98225689D01*
X211801143Y-98196658D01*
X211818184Y-98195500D01*
X212090852Y-98195500D01*
X212158973Y-98215502D01*
X212179947Y-98232405D01*
X216735779Y-102788238D01*
X216743059Y-102797348D01*
X216743474Y-102796995D01*
X216749290Y-102803829D01*
X216754081Y-102811422D01*
X216760809Y-102817364D01*
X216760810Y-102817365D01*
X216792946Y-102845746D01*
X216798634Y-102851093D01*
X216808457Y-102860916D01*
X216813602Y-102864772D01*
X216815407Y-102866125D01*
X216823247Y-102872507D01*
X216849285Y-102895502D01*
X216856195Y-102901605D01*
X216864319Y-102905419D01*
X216869632Y-102908909D01*
X216876496Y-102913033D01*
X216882070Y-102916085D01*
X216889253Y-102921468D01*
X216924210Y-102934573D01*
X216930402Y-102936894D01*
X216939722Y-102940821D01*
X216979515Y-102959504D01*
X216988386Y-102960885D01*
X216994472Y-102962746D01*
X217002208Y-102964775D01*
X217008413Y-102966139D01*
X217016820Y-102969291D01*
X217040041Y-102971016D01*
X217060663Y-102972549D01*
X217070708Y-102973703D01*
X217073753Y-102974177D01*
X217082249Y-102975500D01*
X217095693Y-102975500D01*
X217105030Y-102975846D01*
X217152681Y-102979387D01*
X217161457Y-102977514D01*
X217170414Y-102976903D01*
X217170417Y-102976954D01*
X217184190Y-102975500D01*
X217923142Y-102975500D01*
X217991263Y-102995502D01*
X218007941Y-103008306D01*
X218081317Y-103075073D01*
X218230288Y-103155957D01*
X218394253Y-103198973D01*
X218482481Y-103200359D01*
X218556147Y-103201516D01*
X218556150Y-103201516D01*
X218563745Y-103201635D01*
X218655986Y-103180509D01*
X218721577Y-103165487D01*
X218721581Y-103165486D01*
X218728980Y-103163791D01*
X218880418Y-103087626D01*
X218973289Y-103008306D01*
X219003544Y-102982466D01*
X219003545Y-102982465D01*
X219009316Y-102977536D01*
X219108234Y-102839877D01*
X219115329Y-102822227D01*
X219168626Y-102689650D01*
X219168627Y-102689648D01*
X219171461Y-102682597D01*
X219195345Y-102514775D01*
X219195500Y-102500000D01*
X219189998Y-102454532D01*
X219176048Y-102339258D01*
X219176048Y-102339257D01*
X219175135Y-102331715D01*
X219115217Y-102173145D01*
X219110918Y-102166890D01*
X219110916Y-102166886D01*
X219023505Y-102039703D01*
X219023504Y-102039701D01*
X219019203Y-102033444D01*
X219013534Y-102028393D01*
X219008507Y-102022691D01*
X219009931Y-102021435D01*
X218977629Y-101969612D01*
X218978610Y-101898622D01*
X218996682Y-101862261D01*
X219049871Y-101788241D01*
X219051137Y-101789150D01*
X219095289Y-101745249D01*
X219164706Y-101730355D01*
X219231155Y-101755355D01*
X219244454Y-101766913D01*
X220165779Y-102688238D01*
X220173059Y-102697348D01*
X220173474Y-102696995D01*
X220179290Y-102703829D01*
X220184081Y-102711422D01*
X220190809Y-102717364D01*
X220190810Y-102717365D01*
X220222946Y-102745746D01*
X220228634Y-102751093D01*
X220238457Y-102760916D01*
X220245418Y-102766133D01*
X220253251Y-102772511D01*
X220279464Y-102795662D01*
X220279471Y-102795666D01*
X220286195Y-102801605D01*
X220294319Y-102805419D01*
X220299631Y-102808908D01*
X220306486Y-102813027D01*
X220312066Y-102816082D01*
X220319252Y-102821468D01*
X220349560Y-102832830D01*
X220360414Y-102836899D01*
X220369727Y-102840824D01*
X220409515Y-102859504D01*
X220418381Y-102860885D01*
X220424439Y-102862737D01*
X220432195Y-102864772D01*
X220438414Y-102866139D01*
X220446819Y-102869290D01*
X220482269Y-102871924D01*
X220490647Y-102872547D01*
X220500696Y-102873701D01*
X220507436Y-102874751D01*
X220507442Y-102874751D01*
X220512249Y-102875500D01*
X220525710Y-102875500D01*
X220535048Y-102875847D01*
X220573730Y-102878722D01*
X220573732Y-102878722D01*
X220582681Y-102879387D01*
X220591456Y-102877514D01*
X220600418Y-102876903D01*
X220600421Y-102876953D01*
X220614190Y-102875500D01*
X221283142Y-102875500D01*
X221351263Y-102895502D01*
X221367941Y-102908306D01*
X221441317Y-102975073D01*
X221590288Y-103055957D01*
X221754253Y-103098973D01*
X221842481Y-103100359D01*
X221916147Y-103101516D01*
X221916150Y-103101516D01*
X221923745Y-103101635D01*
X222070371Y-103068053D01*
X222141237Y-103072342D01*
X222198535Y-103114264D01*
X222224073Y-103180509D01*
X222224500Y-103190873D01*
X222224500Y-105428078D01*
X222204498Y-105496199D01*
X222186385Y-105517172D01*
X222186517Y-105517291D01*
X222181436Y-105522933D01*
X222175711Y-105527928D01*
X222078240Y-105666615D01*
X222016665Y-105824549D01*
X221994539Y-105992612D01*
X222013140Y-106161102D01*
X222015750Y-106168233D01*
X222062618Y-106296305D01*
X222071395Y-106320290D01*
X222075631Y-106326593D01*
X222075631Y-106326594D01*
X222084557Y-106339877D01*
X222165940Y-106460988D01*
X222291317Y-106575073D01*
X222440288Y-106655957D01*
X222604253Y-106698973D01*
X222692481Y-106700359D01*
X222766147Y-106701516D01*
X222766150Y-106701516D01*
X222773745Y-106701635D01*
X222832841Y-106688100D01*
X222931577Y-106665487D01*
X222931581Y-106665486D01*
X222938980Y-106663791D01*
X223090418Y-106587626D01*
X223219316Y-106477536D01*
X223318234Y-106339877D01*
X223381461Y-106182597D01*
X223395512Y-106083866D01*
X223404764Y-106018859D01*
X223404764Y-106018856D01*
X223405345Y-106014775D01*
X223405500Y-106000000D01*
X223391066Y-105880726D01*
X223386048Y-105839258D01*
X223386048Y-105839257D01*
X223385135Y-105831715D01*
X223382427Y-105824549D01*
X223327902Y-105680250D01*
X223327901Y-105680248D01*
X223325217Y-105673145D01*
X223320918Y-105666890D01*
X223320916Y-105666886D01*
X223233505Y-105539703D01*
X223233504Y-105539701D01*
X223229203Y-105533444D01*
X223217679Y-105523177D01*
X223180125Y-105462927D01*
X223175500Y-105429102D01*
X223175500Y-102096850D01*
X223176794Y-102085264D01*
X223176251Y-102085220D01*
X223176971Y-102076274D01*
X223178952Y-102067518D01*
X223175742Y-102015777D01*
X223175500Y-102007976D01*
X223175500Y-101994071D01*
X223174267Y-101985462D01*
X223173238Y-101975414D01*
X223171072Y-101940505D01*
X223170516Y-101931543D01*
X223167467Y-101923097D01*
X223166179Y-101916878D01*
X223164240Y-101909101D01*
X223162459Y-101903010D01*
X223161186Y-101894123D01*
X223142989Y-101854102D01*
X223139183Y-101844751D01*
X223127305Y-101811848D01*
X223124256Y-101803402D01*
X223118960Y-101796152D01*
X223115987Y-101790561D01*
X223111919Y-101783601D01*
X223108514Y-101778277D01*
X223104798Y-101770104D01*
X223098939Y-101763304D01*
X223098937Y-101763301D01*
X223076104Y-101736801D01*
X223069819Y-101728886D01*
X223065799Y-101723383D01*
X223065795Y-101723379D01*
X223062923Y-101719447D01*
X223053418Y-101709942D01*
X223047060Y-101703094D01*
X223021733Y-101673700D01*
X223021728Y-101673695D01*
X223015869Y-101666896D01*
X223008335Y-101662013D01*
X223001573Y-101656114D01*
X223001607Y-101656075D01*
X222990841Y-101647365D01*
X222630227Y-101286751D01*
X222622947Y-101277641D01*
X222622532Y-101277994D01*
X222616716Y-101271160D01*
X222611925Y-101263567D01*
X222573059Y-101229242D01*
X222567372Y-101223896D01*
X222557549Y-101214073D01*
X222552257Y-101210107D01*
X222550599Y-101208864D01*
X222542759Y-101202482D01*
X222516538Y-101179325D01*
X222509811Y-101173384D01*
X222501687Y-101169570D01*
X222496374Y-101166080D01*
X222489510Y-101161956D01*
X222483936Y-101158904D01*
X222476753Y-101153521D01*
X222435604Y-101138095D01*
X222426284Y-101134168D01*
X222420679Y-101131537D01*
X222386491Y-101115485D01*
X222377620Y-101114104D01*
X222371534Y-101112243D01*
X222363798Y-101110214D01*
X222357593Y-101108850D01*
X222349186Y-101105698D01*
X222325965Y-101103973D01*
X222305343Y-101102440D01*
X222295298Y-101101286D01*
X222292253Y-101100812D01*
X222283757Y-101099489D01*
X222270313Y-101099489D01*
X222260976Y-101099143D01*
X222246752Y-101098086D01*
X222213325Y-101095602D01*
X222204549Y-101097475D01*
X222195592Y-101098086D01*
X222195589Y-101098035D01*
X222181816Y-101099489D01*
X221074138Y-101099489D01*
X221006017Y-101079487D01*
X220985043Y-101062584D01*
X213035529Y-93113070D01*
X213028249Y-93103960D01*
X213027834Y-93104313D01*
X213022018Y-93097479D01*
X213018947Y-93092612D01*
X215244539Y-93092612D01*
X215263140Y-93261102D01*
X215265750Y-93268233D01*
X215310101Y-93389427D01*
X215321395Y-93420290D01*
X215325631Y-93426593D01*
X215325631Y-93426594D01*
X215334557Y-93439877D01*
X215415940Y-93560988D01*
X215541317Y-93675073D01*
X215690288Y-93755957D01*
X215854253Y-93798973D01*
X215942481Y-93800359D01*
X216016147Y-93801516D01*
X216016150Y-93801516D01*
X216023745Y-93801635D01*
X216114890Y-93780760D01*
X216181577Y-93765487D01*
X216181581Y-93765486D01*
X216188980Y-93763791D01*
X216340418Y-93687626D01*
X216419755Y-93619865D01*
X216463544Y-93582466D01*
X216463545Y-93582465D01*
X216469316Y-93577536D01*
X216568234Y-93439877D01*
X216600442Y-93359758D01*
X216628626Y-93289650D01*
X216628627Y-93289648D01*
X216631461Y-93282597D01*
X216655345Y-93114775D01*
X216655500Y-93100000D01*
X216635135Y-92931715D01*
X216632311Y-92924242D01*
X216577902Y-92780250D01*
X216577901Y-92780248D01*
X216575217Y-92773145D01*
X216570918Y-92766890D01*
X216570916Y-92766886D01*
X216483505Y-92639703D01*
X216483504Y-92639701D01*
X216479203Y-92633444D01*
X216472802Y-92627741D01*
X216472424Y-92627135D01*
X216468509Y-92622694D01*
X216469249Y-92622041D01*
X216435249Y-92567489D01*
X216436232Y-92496499D01*
X216467530Y-92444573D01*
X217544881Y-91367222D01*
X217555970Y-91357367D01*
X217556744Y-91356757D01*
X217582045Y-91336811D01*
X217587398Y-91329066D01*
X217587400Y-91329064D01*
X217615406Y-91288543D01*
X217617706Y-91285325D01*
X217646960Y-91245717D01*
X217652555Y-91238142D01*
X217654946Y-91231332D01*
X217659052Y-91225392D01*
X217662326Y-91215040D01*
X217676744Y-91169453D01*
X217677996Y-91165701D01*
X217694309Y-91119246D01*
X217694309Y-91119244D01*
X217697432Y-91110352D01*
X217697714Y-91103163D01*
X217697725Y-91103106D01*
X217699892Y-91096256D01*
X217700500Y-91088531D01*
X217700500Y-91034738D01*
X217700597Y-91029792D01*
X217702379Y-90984429D01*
X217702749Y-90975016D01*
X217700921Y-90968121D01*
X217700500Y-90960473D01*
X217700500Y-90294398D01*
X217720502Y-90226277D01*
X217744668Y-90198588D01*
X217763543Y-90182467D01*
X217763544Y-90182465D01*
X217769316Y-90177536D01*
X217868234Y-90039877D01*
X217877405Y-90017063D01*
X217928626Y-89889650D01*
X217928627Y-89889648D01*
X217931461Y-89882597D01*
X217950413Y-89749432D01*
X217954764Y-89718859D01*
X217954764Y-89718856D01*
X217955345Y-89714775D01*
X217955500Y-89700000D01*
X217948772Y-89644402D01*
X217936048Y-89539258D01*
X217936048Y-89539257D01*
X217935135Y-89531715D01*
X217932427Y-89524549D01*
X217877902Y-89380250D01*
X217877901Y-89380248D01*
X217875217Y-89373145D01*
X217870918Y-89366890D01*
X217870916Y-89366886D01*
X217783505Y-89239703D01*
X217783504Y-89239701D01*
X217779203Y-89233444D01*
X217652638Y-89120679D01*
X217502829Y-89041359D01*
X217338423Y-89000063D01*
X217330825Y-89000023D01*
X217330823Y-89000023D01*
X217257792Y-88999641D01*
X217168912Y-88999176D01*
X217161533Y-89000948D01*
X217161529Y-89000948D01*
X217011461Y-89036976D01*
X217011457Y-89036977D01*
X217004082Y-89038748D01*
X216853450Y-89116495D01*
X216725711Y-89227928D01*
X216628240Y-89366615D01*
X216566665Y-89524549D01*
X216560316Y-89572778D01*
X216547971Y-89666546D01*
X216544539Y-89692612D01*
X216563140Y-89861102D01*
X216621395Y-90020290D01*
X216625631Y-90026593D01*
X216625631Y-90026594D01*
X216630287Y-90033523D01*
X216715940Y-90160988D01*
X216721556Y-90166098D01*
X216758300Y-90199533D01*
X216795222Y-90260173D01*
X216799500Y-90292726D01*
X216799500Y-90786207D01*
X216779498Y-90854328D01*
X216762595Y-90875302D01*
X215655114Y-91982782D01*
X215644025Y-91992637D01*
X215617955Y-92013189D01*
X215612601Y-92020936D01*
X215584597Y-92061454D01*
X215582324Y-92064635D01*
X215547445Y-92111858D01*
X215545054Y-92118668D01*
X215540948Y-92124608D01*
X215534842Y-92143916D01*
X215523256Y-92180547D01*
X215522004Y-92184299D01*
X215505691Y-92230754D01*
X215502568Y-92239648D01*
X215502286Y-92246837D01*
X215502275Y-92246894D01*
X215500108Y-92253744D01*
X215499500Y-92261469D01*
X215499500Y-92315262D01*
X215499403Y-92320208D01*
X215497251Y-92374984D01*
X215499079Y-92381879D01*
X215499500Y-92389527D01*
X215499500Y-92506269D01*
X215479498Y-92574390D01*
X215456332Y-92601216D01*
X215425711Y-92627928D01*
X215401605Y-92662227D01*
X215344460Y-92743537D01*
X215328240Y-92766615D01*
X215266665Y-92924549D01*
X215265674Y-92932078D01*
X215248608Y-93061706D01*
X215244539Y-93092612D01*
X213018947Y-93092612D01*
X213017227Y-93089886D01*
X212978361Y-93055561D01*
X212972674Y-93050215D01*
X212962851Y-93040392D01*
X212957559Y-93036426D01*
X212955901Y-93035183D01*
X212948061Y-93028801D01*
X212921840Y-93005644D01*
X212915113Y-92999703D01*
X212906989Y-92995889D01*
X212901676Y-92992399D01*
X212894812Y-92988275D01*
X212889238Y-92985223D01*
X212882055Y-92979840D01*
X212840906Y-92964414D01*
X212831586Y-92960487D01*
X212825981Y-92957856D01*
X212791793Y-92941804D01*
X212782922Y-92940423D01*
X212776836Y-92938562D01*
X212769100Y-92936533D01*
X212762895Y-92935169D01*
X212754488Y-92932017D01*
X212731267Y-92930292D01*
X212710645Y-92928759D01*
X212700600Y-92927605D01*
X212697555Y-92927131D01*
X212689059Y-92925808D01*
X212675615Y-92925808D01*
X212666278Y-92925462D01*
X212652054Y-92924405D01*
X212618627Y-92921921D01*
X212609851Y-92923794D01*
X212600894Y-92924405D01*
X212600891Y-92924354D01*
X212587118Y-92925808D01*
X211714717Y-92925808D01*
X211646596Y-92905806D01*
X211630898Y-92893884D01*
X211555875Y-92827040D01*
X211555872Y-92827038D01*
X211550203Y-92821987D01*
X211400394Y-92742667D01*
X211235988Y-92701371D01*
X211228390Y-92701331D01*
X211228388Y-92701331D01*
X211155357Y-92700949D01*
X211066477Y-92700484D01*
X211059098Y-92702256D01*
X211059094Y-92702256D01*
X210909026Y-92738284D01*
X210909022Y-92738285D01*
X210901647Y-92740056D01*
X210751015Y-92817803D01*
X210745293Y-92822795D01*
X210745291Y-92822796D01*
X210740426Y-92827040D01*
X210623276Y-92929236D01*
X210589925Y-92976689D01*
X210550950Y-93032146D01*
X210525805Y-93067923D01*
X210464230Y-93225857D01*
X210463239Y-93233386D01*
X210443428Y-93383866D01*
X210442104Y-93393920D01*
X165250000Y-93393920D01*
X165250000Y-87600000D01*
X219044500Y-87600000D01*
X219044500Y-89300000D01*
X219044567Y-89301441D01*
X219044567Y-89301458D01*
X219045219Y-89315558D01*
X219045803Y-89328188D01*
X219076528Y-89436173D01*
X219144186Y-89525767D01*
X219239641Y-89584870D01*
X219251113Y-89587014D01*
X219251114Y-89587015D01*
X219344275Y-89604430D01*
X219344277Y-89604430D01*
X219350000Y-89605500D01*
X219985473Y-89605500D01*
X220053594Y-89625502D01*
X220100087Y-89679158D01*
X220110191Y-89749432D01*
X220080697Y-89814012D01*
X220020971Y-89852396D01*
X220006811Y-89855680D01*
X219933758Y-89868233D01*
X219900935Y-89873873D01*
X219702544Y-89947063D01*
X219697583Y-89950015D01*
X219697582Y-89950015D01*
X219536174Y-90046043D01*
X219520814Y-90055181D01*
X219361830Y-90194606D01*
X219230916Y-90360670D01*
X219228227Y-90365781D01*
X219228225Y-90365784D01*
X219180627Y-90456253D01*
X219132457Y-90547809D01*
X219069750Y-90749758D01*
X219044896Y-90959753D01*
X219058726Y-91170760D01*
X219110778Y-91375714D01*
X219199308Y-91567750D01*
X219321351Y-91740437D01*
X219472820Y-91887992D01*
X219477616Y-91891197D01*
X219477619Y-91891199D01*
X219582382Y-91961199D01*
X219648643Y-92005473D01*
X219653946Y-92007751D01*
X219653949Y-92007753D01*
X219837624Y-92086666D01*
X219842931Y-92088946D01*
X220049177Y-92135615D01*
X220054950Y-92135842D01*
X220060299Y-92136546D01*
X220125227Y-92165268D01*
X220164319Y-92224532D01*
X220165164Y-92295524D01*
X220127495Y-92355703D01*
X220065192Y-92385648D01*
X219906632Y-92412894D01*
X219900935Y-92413873D01*
X219702544Y-92487063D01*
X219697583Y-92490015D01*
X219697582Y-92490015D01*
X219555761Y-92574390D01*
X219520814Y-92595181D01*
X219361830Y-92734606D01*
X219230916Y-92900670D01*
X219228227Y-92905781D01*
X219228225Y-92905784D01*
X219182655Y-92992399D01*
X219132457Y-93087809D01*
X219069750Y-93289758D01*
X219044896Y-93499753D01*
X219058726Y-93710760D01*
X219110778Y-93915714D01*
X219199308Y-94107750D01*
X219321351Y-94280437D01*
X219472820Y-94427992D01*
X219477616Y-94431197D01*
X219477619Y-94431199D01*
X219582382Y-94501199D01*
X219648643Y-94545473D01*
X219653946Y-94547751D01*
X219653949Y-94547753D01*
X219837624Y-94626666D01*
X219842931Y-94628946D01*
X220049177Y-94675615D01*
X220054950Y-94675842D01*
X220060299Y-94676546D01*
X220125227Y-94705268D01*
X220164319Y-94764532D01*
X220165164Y-94835524D01*
X220127495Y-94895703D01*
X220065192Y-94925648D01*
X219906632Y-94952894D01*
X219900935Y-94953873D01*
X219702544Y-95027063D01*
X219697583Y-95030015D01*
X219697582Y-95030015D01*
X219562397Y-95110442D01*
X219520814Y-95135181D01*
X219361830Y-95274606D01*
X219230916Y-95440670D01*
X219228227Y-95445781D01*
X219228225Y-95445784D01*
X219180627Y-95536253D01*
X219132457Y-95627809D01*
X219069750Y-95829758D01*
X219044896Y-96039753D01*
X219058726Y-96250760D01*
X219110778Y-96455714D01*
X219199308Y-96647750D01*
X219321351Y-96820437D01*
X219325485Y-96824464D01*
X219453297Y-96948973D01*
X219472820Y-96967992D01*
X219477616Y-96971197D01*
X219477619Y-96971199D01*
X219579161Y-97039047D01*
X219648643Y-97085473D01*
X219653946Y-97087751D01*
X219653949Y-97087753D01*
X219837624Y-97166666D01*
X219842931Y-97168946D01*
X219943564Y-97191717D01*
X220035747Y-97212576D01*
X220049177Y-97215615D01*
X220054946Y-97215842D01*
X220054949Y-97215842D01*
X220135242Y-97218996D01*
X220260474Y-97223916D01*
X220348693Y-97211125D01*
X220464032Y-97194402D01*
X220464037Y-97194401D01*
X220469746Y-97193573D01*
X220475210Y-97191718D01*
X220475215Y-97191717D01*
X220664512Y-97127460D01*
X220664517Y-97127458D01*
X220669984Y-97125602D01*
X220854482Y-97022278D01*
X221017062Y-96887062D01*
X221152278Y-96724482D01*
X221255602Y-96539984D01*
X221257458Y-96534517D01*
X221257460Y-96534512D01*
X221321717Y-96345215D01*
X221321718Y-96345210D01*
X221323573Y-96339746D01*
X221324401Y-96334037D01*
X221324402Y-96334032D01*
X221344304Y-96196765D01*
X221353916Y-96130474D01*
X221355500Y-96070000D01*
X221339779Y-95898907D01*
X221336680Y-95865181D01*
X221336679Y-95865178D01*
X221336151Y-95859427D01*
X221330717Y-95840157D01*
X221280320Y-95661465D01*
X221280319Y-95661463D01*
X221278752Y-95655906D01*
X221264897Y-95627809D01*
X221187781Y-95471434D01*
X221185226Y-95466253D01*
X221058704Y-95296820D01*
X220903424Y-95153280D01*
X220898541Y-95150199D01*
X220898537Y-95150196D01*
X220729470Y-95043523D01*
X220729465Y-95043521D01*
X220724586Y-95040442D01*
X220528180Y-94962084D01*
X220345005Y-94925648D01*
X220325650Y-94921798D01*
X220262741Y-94888890D01*
X220227609Y-94827195D01*
X220231409Y-94756300D01*
X220272935Y-94698714D01*
X220332151Y-94673523D01*
X220367042Y-94668464D01*
X220464032Y-94654402D01*
X220464037Y-94654401D01*
X220469746Y-94653573D01*
X220475210Y-94651718D01*
X220475215Y-94651717D01*
X220664512Y-94587460D01*
X220664517Y-94587458D01*
X220669984Y-94585602D01*
X220854482Y-94482278D01*
X221017062Y-94347062D01*
X221152278Y-94184482D01*
X221255602Y-93999984D01*
X221257458Y-93994517D01*
X221257460Y-93994512D01*
X221321717Y-93805215D01*
X221321718Y-93805210D01*
X221323573Y-93799746D01*
X221324401Y-93794037D01*
X221324402Y-93794032D01*
X221344304Y-93656765D01*
X221353916Y-93590474D01*
X221355500Y-93530000D01*
X221339857Y-93359758D01*
X221336680Y-93325181D01*
X221336679Y-93325178D01*
X221336151Y-93319427D01*
X221327784Y-93289758D01*
X221280320Y-93121465D01*
X221280319Y-93121463D01*
X221278752Y-93115906D01*
X221276161Y-93110650D01*
X221187781Y-92931434D01*
X221185226Y-92926253D01*
X221169958Y-92905806D01*
X221111140Y-92827040D01*
X221058704Y-92756820D01*
X220903424Y-92613280D01*
X220898541Y-92610199D01*
X220898537Y-92610196D01*
X220729470Y-92503523D01*
X220729465Y-92503521D01*
X220724586Y-92500442D01*
X220528180Y-92422084D01*
X220334035Y-92383466D01*
X220325650Y-92381798D01*
X220262741Y-92348890D01*
X220227609Y-92287195D01*
X220231409Y-92216300D01*
X220272935Y-92158714D01*
X220332151Y-92133523D01*
X220367042Y-92128464D01*
X220464032Y-92114402D01*
X220464037Y-92114401D01*
X220469746Y-92113573D01*
X220475210Y-92111718D01*
X220475215Y-92111717D01*
X220664512Y-92047460D01*
X220664517Y-92047458D01*
X220669984Y-92045602D01*
X220727862Y-92013189D01*
X220747371Y-92002263D01*
X220854482Y-91942278D01*
X221017062Y-91807062D01*
X221152278Y-91644482D01*
X221255602Y-91459984D01*
X221257458Y-91454517D01*
X221257460Y-91454512D01*
X221321717Y-91265215D01*
X221321718Y-91265210D01*
X221323573Y-91259746D01*
X221324401Y-91254037D01*
X221324402Y-91254032D01*
X221343766Y-91120474D01*
X221353916Y-91050474D01*
X221355500Y-90990000D01*
X221339857Y-90819758D01*
X221336680Y-90785181D01*
X221336679Y-90785178D01*
X221336151Y-90779427D01*
X221327784Y-90749758D01*
X221280320Y-90581465D01*
X221280319Y-90581463D01*
X221278752Y-90575906D01*
X221264897Y-90547809D01*
X221187781Y-90391434D01*
X221185226Y-90386253D01*
X221058704Y-90216820D01*
X220903424Y-90073280D01*
X220898541Y-90070199D01*
X220898537Y-90070196D01*
X220729470Y-89963523D01*
X220729465Y-89963521D01*
X220724586Y-89960442D01*
X220528180Y-89882084D01*
X220522520Y-89880958D01*
X220522516Y-89880957D01*
X220409055Y-89858389D01*
X220392417Y-89855079D01*
X220329507Y-89822171D01*
X220294375Y-89760476D01*
X220298175Y-89689582D01*
X220339701Y-89631996D01*
X220405768Y-89606001D01*
X220416998Y-89605500D01*
X221050000Y-89605500D01*
X221051441Y-89605433D01*
X221051458Y-89605433D01*
X221065558Y-89604781D01*
X221078188Y-89604197D01*
X221186173Y-89573472D01*
X221275767Y-89505814D01*
X221334870Y-89410359D01*
X221340499Y-89380250D01*
X221354430Y-89305725D01*
X221354430Y-89305723D01*
X221355500Y-89300000D01*
X221355500Y-87600000D01*
X221355236Y-87594275D01*
X221354533Y-87579084D01*
X221354197Y-87571812D01*
X221323472Y-87463827D01*
X221255814Y-87374233D01*
X221160359Y-87315130D01*
X221148887Y-87312986D01*
X221148886Y-87312985D01*
X221055725Y-87295570D01*
X221055723Y-87295570D01*
X221050000Y-87294500D01*
X219350000Y-87294500D01*
X219348559Y-87294567D01*
X219348542Y-87294567D01*
X219334442Y-87295219D01*
X219321812Y-87295803D01*
X219213827Y-87326528D01*
X219124233Y-87394186D01*
X219065130Y-87489641D01*
X219044500Y-87600000D01*
X165250000Y-87600000D01*
X165250000Y-76850000D01*
X183844500Y-76850000D01*
X183844500Y-78550000D01*
X183844567Y-78551441D01*
X183844567Y-78551458D01*
X183845219Y-78565558D01*
X183845803Y-78578188D01*
X183876528Y-78686173D01*
X183944186Y-78775767D01*
X184039641Y-78834870D01*
X184051113Y-78837014D01*
X184051114Y-78837015D01*
X184144275Y-78854430D01*
X184144277Y-78854430D01*
X184150000Y-78855500D01*
X184785473Y-78855500D01*
X184853594Y-78875502D01*
X184900087Y-78929158D01*
X184910191Y-78999432D01*
X184880697Y-79064012D01*
X184820971Y-79102396D01*
X184806811Y-79105680D01*
X184755692Y-79114464D01*
X184700935Y-79123873D01*
X184502544Y-79197063D01*
X184497583Y-79200015D01*
X184497582Y-79200015D01*
X184374346Y-79273333D01*
X184320814Y-79305181D01*
X184161830Y-79444606D01*
X184030916Y-79610670D01*
X183932457Y-79797809D01*
X183869750Y-79999758D01*
X183844896Y-80209753D01*
X183858726Y-80420760D01*
X183910778Y-80625714D01*
X183999308Y-80817750D01*
X184121351Y-80990437D01*
X184272820Y-81137992D01*
X184277616Y-81141197D01*
X184277619Y-81141199D01*
X184320343Y-81169746D01*
X184448643Y-81255473D01*
X184453946Y-81257751D01*
X184453949Y-81257753D01*
X184530845Y-81290790D01*
X184642931Y-81338946D01*
X184849177Y-81385615D01*
X184854950Y-81385842D01*
X184860299Y-81386546D01*
X184925227Y-81415268D01*
X184964319Y-81474532D01*
X184965164Y-81545524D01*
X184927495Y-81605703D01*
X184865192Y-81635648D01*
X184706632Y-81662894D01*
X184700935Y-81663873D01*
X184502544Y-81737063D01*
X184497583Y-81740015D01*
X184497582Y-81740015D01*
X184356630Y-81823873D01*
X184320814Y-81845181D01*
X184161830Y-81984606D01*
X184030916Y-82150670D01*
X184028227Y-82155781D01*
X184028225Y-82155784D01*
X184022419Y-82166820D01*
X183932457Y-82337809D01*
X183869750Y-82539758D01*
X183844896Y-82749753D01*
X183858726Y-82960760D01*
X183910778Y-83165714D01*
X183999308Y-83357750D01*
X184121351Y-83530437D01*
X184272820Y-83677992D01*
X184277616Y-83681197D01*
X184277619Y-83681199D01*
X184320343Y-83709746D01*
X184448643Y-83795473D01*
X184453946Y-83797751D01*
X184453949Y-83797753D01*
X184637624Y-83876666D01*
X184642931Y-83878946D01*
X184849177Y-83925615D01*
X184854950Y-83925842D01*
X184860299Y-83926546D01*
X184925227Y-83955268D01*
X184964319Y-84014532D01*
X184965164Y-84085524D01*
X184927495Y-84145703D01*
X184865192Y-84175648D01*
X184706632Y-84202894D01*
X184700935Y-84203873D01*
X184502544Y-84277063D01*
X184497583Y-84280015D01*
X184497582Y-84280015D01*
X184400132Y-84337992D01*
X184320814Y-84385181D01*
X184161830Y-84524606D01*
X184030916Y-84690670D01*
X183932457Y-84877809D01*
X183869750Y-85079758D01*
X183844896Y-85289753D01*
X183858726Y-85500760D01*
X183910778Y-85705714D01*
X183999308Y-85897750D01*
X184121351Y-86070437D01*
X184272820Y-86217992D01*
X184277616Y-86221197D01*
X184277619Y-86221199D01*
X184320343Y-86249746D01*
X184448643Y-86335473D01*
X184453946Y-86337751D01*
X184453949Y-86337753D01*
X184531243Y-86370961D01*
X184642931Y-86418946D01*
X184849177Y-86465615D01*
X184854946Y-86465842D01*
X184854949Y-86465842D01*
X184935242Y-86468996D01*
X185060474Y-86473916D01*
X185148693Y-86461125D01*
X185264032Y-86444402D01*
X185264037Y-86444401D01*
X185269746Y-86443573D01*
X185275210Y-86441718D01*
X185275215Y-86441717D01*
X185464512Y-86377460D01*
X185464517Y-86377458D01*
X185469984Y-86375602D01*
X185487641Y-86365714D01*
X185547371Y-86332263D01*
X185654482Y-86272278D01*
X185817062Y-86137062D01*
X185952278Y-85974482D01*
X186055602Y-85789984D01*
X186057458Y-85784517D01*
X186057460Y-85784512D01*
X186121717Y-85595215D01*
X186121718Y-85595210D01*
X186123573Y-85589746D01*
X186124401Y-85584037D01*
X186124402Y-85584032D01*
X186153383Y-85384148D01*
X186153916Y-85380474D01*
X186155500Y-85320000D01*
X186136151Y-85109427D01*
X186127784Y-85079758D01*
X186080320Y-84911465D01*
X186080319Y-84911463D01*
X186078752Y-84905906D01*
X186064897Y-84877809D01*
X185987781Y-84721434D01*
X185985226Y-84716253D01*
X185858704Y-84546820D01*
X185703424Y-84403280D01*
X185698541Y-84400199D01*
X185698537Y-84400196D01*
X185529470Y-84293523D01*
X185529465Y-84293521D01*
X185524586Y-84290442D01*
X185328180Y-84212084D01*
X185145005Y-84175648D01*
X185125650Y-84171798D01*
X185062741Y-84138890D01*
X185027609Y-84077195D01*
X185031409Y-84006300D01*
X185072935Y-83948714D01*
X185132151Y-83923523D01*
X185167042Y-83918464D01*
X185264032Y-83904402D01*
X185264037Y-83904401D01*
X185269746Y-83903573D01*
X185275210Y-83901718D01*
X185275215Y-83901717D01*
X185464512Y-83837460D01*
X185464517Y-83837458D01*
X185469984Y-83835602D01*
X185487641Y-83825714D01*
X185610227Y-83757062D01*
X185654482Y-83732278D01*
X185817062Y-83597062D01*
X185952278Y-83434482D01*
X186055602Y-83249984D01*
X186057458Y-83244517D01*
X186057460Y-83244512D01*
X186121717Y-83055215D01*
X186121718Y-83055210D01*
X186123573Y-83049746D01*
X186124401Y-83044037D01*
X186124402Y-83044032D01*
X186153383Y-82844148D01*
X186153916Y-82840474D01*
X186155500Y-82780000D01*
X186136151Y-82569427D01*
X186127784Y-82539758D01*
X186080320Y-82371465D01*
X186080319Y-82371463D01*
X186078752Y-82365906D01*
X186064897Y-82337809D01*
X185987781Y-82181434D01*
X185985226Y-82176253D01*
X185981640Y-82171450D01*
X185909817Y-82075268D01*
X185858704Y-82006820D01*
X185703424Y-81863280D01*
X185698541Y-81860199D01*
X185698537Y-81860196D01*
X185529470Y-81753523D01*
X185529465Y-81753521D01*
X185524586Y-81750442D01*
X185328180Y-81672084D01*
X185145005Y-81635648D01*
X185125650Y-81631798D01*
X185062741Y-81598890D01*
X185027609Y-81537195D01*
X185031409Y-81466300D01*
X185072935Y-81408714D01*
X185132151Y-81383523D01*
X185167042Y-81378464D01*
X185264032Y-81364402D01*
X185264037Y-81364401D01*
X185269746Y-81363573D01*
X185275210Y-81361718D01*
X185275215Y-81361717D01*
X185464512Y-81297460D01*
X185464517Y-81297458D01*
X185469984Y-81295602D01*
X185478577Y-81290790D01*
X185561817Y-81244173D01*
X185654482Y-81192278D01*
X185817062Y-81057062D01*
X185952278Y-80894482D01*
X186055602Y-80709984D01*
X186057458Y-80704517D01*
X186057460Y-80704512D01*
X186121717Y-80515215D01*
X186121718Y-80515210D01*
X186123573Y-80509746D01*
X186124401Y-80504037D01*
X186124402Y-80504032D01*
X186153383Y-80304148D01*
X186153916Y-80300474D01*
X186155500Y-80240000D01*
X186136151Y-80029427D01*
X186127784Y-79999758D01*
X186080320Y-79831465D01*
X186080319Y-79831463D01*
X186078752Y-79825906D01*
X186064897Y-79797809D01*
X185987781Y-79641434D01*
X185985226Y-79636253D01*
X185920818Y-79550000D01*
X219044500Y-79550000D01*
X219044500Y-81250000D01*
X219044567Y-81251441D01*
X219044567Y-81251458D01*
X219044858Y-81257753D01*
X219045803Y-81278188D01*
X219076528Y-81386173D01*
X219144186Y-81475767D01*
X219239641Y-81534870D01*
X219251113Y-81537014D01*
X219251114Y-81537015D01*
X219344275Y-81554430D01*
X219344277Y-81554430D01*
X219350000Y-81555500D01*
X219985473Y-81555500D01*
X220053594Y-81575502D01*
X220100087Y-81629158D01*
X220110191Y-81699432D01*
X220080697Y-81764012D01*
X220020971Y-81802396D01*
X220006811Y-81805680D01*
X219900935Y-81823873D01*
X219702544Y-81897063D01*
X219697583Y-81900015D01*
X219697582Y-81900015D01*
X219535927Y-81996190D01*
X219520814Y-82005181D01*
X219361830Y-82144606D01*
X219230916Y-82310670D01*
X219228227Y-82315781D01*
X219228225Y-82315784D01*
X219204580Y-82360726D01*
X219132457Y-82497809D01*
X219069750Y-82699758D01*
X219044896Y-82909753D01*
X219058726Y-83120760D01*
X219110778Y-83325714D01*
X219199308Y-83517750D01*
X219321351Y-83690437D01*
X219472820Y-83837992D01*
X219477616Y-83841197D01*
X219477619Y-83841199D01*
X219534112Y-83878946D01*
X219648643Y-83955473D01*
X219653946Y-83957751D01*
X219653949Y-83957753D01*
X219781388Y-84012505D01*
X219842931Y-84038946D01*
X220049177Y-84085615D01*
X220054946Y-84085842D01*
X220054949Y-84085842D01*
X220135242Y-84088996D01*
X220260474Y-84093916D01*
X220348693Y-84081125D01*
X220464032Y-84064402D01*
X220464037Y-84064401D01*
X220469746Y-84063573D01*
X220475210Y-84061718D01*
X220475215Y-84061717D01*
X220664512Y-83997460D01*
X220664517Y-83997458D01*
X220669984Y-83995602D01*
X220854482Y-83892278D01*
X221017062Y-83757062D01*
X221152278Y-83594482D01*
X221240862Y-83436305D01*
X221252778Y-83415027D01*
X221252779Y-83415025D01*
X221255602Y-83409984D01*
X221257458Y-83404517D01*
X221257460Y-83404512D01*
X221321717Y-83215215D01*
X221321718Y-83215210D01*
X221323573Y-83209746D01*
X221324401Y-83204037D01*
X221324402Y-83204032D01*
X221347600Y-83044032D01*
X221353916Y-83000474D01*
X221355500Y-82940000D01*
X221340798Y-82780000D01*
X221336680Y-82735181D01*
X221336679Y-82735178D01*
X221336151Y-82729427D01*
X221327784Y-82699758D01*
X221280320Y-82531465D01*
X221280319Y-82531463D01*
X221278752Y-82525906D01*
X221275937Y-82520196D01*
X221187781Y-82341434D01*
X221185226Y-82336253D01*
X221175982Y-82323873D01*
X221126255Y-82257281D01*
X221058704Y-82166820D01*
X220927586Y-82045615D01*
X220907669Y-82027204D01*
X220903424Y-82023280D01*
X220898541Y-82020199D01*
X220898537Y-82020196D01*
X220729470Y-81913523D01*
X220729465Y-81913521D01*
X220724586Y-81910442D01*
X220528180Y-81832084D01*
X220522520Y-81830958D01*
X220522516Y-81830957D01*
X220409055Y-81808389D01*
X220392417Y-81805079D01*
X220329507Y-81772171D01*
X220294375Y-81710476D01*
X220298175Y-81639582D01*
X220339701Y-81581996D01*
X220405768Y-81556001D01*
X220416998Y-81555500D01*
X221050000Y-81555500D01*
X221051441Y-81555433D01*
X221051458Y-81555433D01*
X221065558Y-81554781D01*
X221078188Y-81554197D01*
X221186173Y-81523472D01*
X221275767Y-81455814D01*
X221334870Y-81360359D01*
X221346976Y-81295602D01*
X221354430Y-81255725D01*
X221354430Y-81255723D01*
X221355500Y-81250000D01*
X221355500Y-79550000D01*
X221355236Y-79544275D01*
X221354533Y-79529084D01*
X221354197Y-79521812D01*
X221323472Y-79413827D01*
X221255814Y-79324233D01*
X221160359Y-79265130D01*
X221148887Y-79262986D01*
X221148886Y-79262985D01*
X221055725Y-79245570D01*
X221055723Y-79245570D01*
X221050000Y-79244500D01*
X219350000Y-79244500D01*
X219348559Y-79244567D01*
X219348542Y-79244567D01*
X219334442Y-79245219D01*
X219321812Y-79245803D01*
X219213827Y-79276528D01*
X219124233Y-79344186D01*
X219065130Y-79439641D01*
X219062986Y-79451113D01*
X219062985Y-79451114D01*
X219053188Y-79503523D01*
X219044500Y-79550000D01*
X185920818Y-79550000D01*
X185858704Y-79466820D01*
X185703424Y-79323280D01*
X185698541Y-79320199D01*
X185698537Y-79320196D01*
X185529470Y-79213523D01*
X185529465Y-79213521D01*
X185524586Y-79210442D01*
X185328180Y-79132084D01*
X185322520Y-79130958D01*
X185322516Y-79130957D01*
X185195650Y-79105722D01*
X185192417Y-79105079D01*
X185129507Y-79072171D01*
X185094375Y-79010476D01*
X185098175Y-78939582D01*
X185139701Y-78881996D01*
X185205768Y-78856001D01*
X185216998Y-78855500D01*
X185850000Y-78855500D01*
X185851441Y-78855433D01*
X185851458Y-78855433D01*
X185865558Y-78854781D01*
X185878188Y-78854197D01*
X185986173Y-78823472D01*
X186075767Y-78755814D01*
X186134870Y-78660359D01*
X186139571Y-78635215D01*
X186154430Y-78555725D01*
X186154430Y-78555723D01*
X186155500Y-78550000D01*
X186155500Y-76850000D01*
X186155236Y-76844275D01*
X186154533Y-76829084D01*
X186154197Y-76821812D01*
X186123472Y-76713827D01*
X186055814Y-76624233D01*
X185960359Y-76565130D01*
X185948887Y-76562986D01*
X185948886Y-76562985D01*
X185855725Y-76545570D01*
X185855723Y-76545570D01*
X185850000Y-76544500D01*
X184150000Y-76544500D01*
X184148559Y-76544567D01*
X184148542Y-76544567D01*
X184134442Y-76545219D01*
X184121812Y-76545803D01*
X184013827Y-76576528D01*
X183924233Y-76644186D01*
X183865130Y-76739641D01*
X183844500Y-76850000D01*
X165250000Y-76850000D01*
X165250000Y-71950000D01*
X206444500Y-71950000D01*
X206444500Y-73650000D01*
X206444567Y-73651441D01*
X206444567Y-73651458D01*
X206445219Y-73665558D01*
X206445803Y-73678188D01*
X206476528Y-73786173D01*
X206544186Y-73875767D01*
X206639641Y-73934870D01*
X206651113Y-73937014D01*
X206651114Y-73937015D01*
X206744275Y-73954430D01*
X206744277Y-73954430D01*
X206750000Y-73955500D01*
X208450000Y-73955500D01*
X208451441Y-73955433D01*
X208451458Y-73955433D01*
X208465558Y-73954781D01*
X208478188Y-73954197D01*
X208586173Y-73923472D01*
X208675767Y-73855814D01*
X208734870Y-73760359D01*
X208747282Y-73693965D01*
X208754430Y-73655725D01*
X208754430Y-73655723D01*
X208755500Y-73650000D01*
X208755500Y-73029034D01*
X208775502Y-72960913D01*
X208829158Y-72914420D01*
X208899432Y-72904316D01*
X208964012Y-72933810D01*
X209003623Y-72998019D01*
X209049827Y-73179947D01*
X209053668Y-73190793D01*
X209137323Y-73372255D01*
X209143074Y-73382216D01*
X209258399Y-73545397D01*
X209265865Y-73554139D01*
X209409001Y-73693577D01*
X209417934Y-73700811D01*
X209584078Y-73811824D01*
X209594188Y-73817314D01*
X209777785Y-73896193D01*
X209788712Y-73899743D01*
X209868330Y-73917759D01*
X209882405Y-73916871D01*
X209886000Y-73907473D01*
X209886000Y-71697676D01*
X210394000Y-71697676D01*
X210394000Y-73907238D01*
X210397966Y-73920744D01*
X210409966Y-73922462D01*
X210415106Y-73921228D01*
X210604313Y-73857001D01*
X210614816Y-73852325D01*
X210789162Y-73754687D01*
X210798637Y-73748175D01*
X210952276Y-73620394D01*
X210960394Y-73612276D01*
X211088175Y-73458637D01*
X211094687Y-73449162D01*
X211192325Y-73274816D01*
X211197001Y-73264313D01*
X211261231Y-73075098D01*
X211263915Y-73063915D01*
X211284906Y-72919144D01*
X211314476Y-72854598D01*
X211374247Y-72816286D01*
X211445244Y-72816370D01*
X211504924Y-72854825D01*
X211534341Y-72919441D01*
X211535332Y-72928982D01*
X211537425Y-72960913D01*
X211538726Y-72980760D01*
X211590778Y-73185714D01*
X211679308Y-73377750D01*
X211801351Y-73550437D01*
X211952820Y-73697992D01*
X211957616Y-73701197D01*
X211957619Y-73701199D01*
X212027924Y-73748175D01*
X212128643Y-73815473D01*
X212133946Y-73817751D01*
X212133949Y-73817753D01*
X212283290Y-73881915D01*
X212322931Y-73898946D01*
X212529177Y-73945615D01*
X212534946Y-73945842D01*
X212534949Y-73945842D01*
X212615242Y-73948996D01*
X212740474Y-73953916D01*
X212828693Y-73941125D01*
X212944032Y-73924402D01*
X212944037Y-73924401D01*
X212949746Y-73923573D01*
X212955210Y-73921718D01*
X212955215Y-73921717D01*
X213144512Y-73857460D01*
X213144517Y-73857458D01*
X213149984Y-73855602D01*
X213155836Y-73852325D01*
X213228155Y-73811824D01*
X213334482Y-73752278D01*
X213497062Y-73617062D01*
X213632278Y-73454482D01*
X213735602Y-73269984D01*
X213737458Y-73264517D01*
X213737460Y-73264512D01*
X213801717Y-73075215D01*
X213801718Y-73075210D01*
X213803573Y-73069746D01*
X213804401Y-73064037D01*
X213804402Y-73064032D01*
X213825063Y-72921533D01*
X213854633Y-72856987D01*
X213914405Y-72818675D01*
X213985401Y-72818759D01*
X214045082Y-72857214D01*
X214074498Y-72921830D01*
X214075489Y-72931371D01*
X214078726Y-72980760D01*
X214130778Y-73185714D01*
X214219308Y-73377750D01*
X214341351Y-73550437D01*
X214492820Y-73697992D01*
X214497616Y-73701197D01*
X214497619Y-73701199D01*
X214567924Y-73748175D01*
X214668643Y-73815473D01*
X214673946Y-73817751D01*
X214673949Y-73817753D01*
X214823290Y-73881915D01*
X214862931Y-73898946D01*
X215069177Y-73945615D01*
X215074946Y-73945842D01*
X215074949Y-73945842D01*
X215155242Y-73948996D01*
X215280474Y-73953916D01*
X215368693Y-73941125D01*
X215484032Y-73924402D01*
X215484037Y-73924401D01*
X215489746Y-73923573D01*
X215495210Y-73921718D01*
X215495215Y-73921717D01*
X215684512Y-73857460D01*
X215684517Y-73857458D01*
X215689984Y-73855602D01*
X215695836Y-73852325D01*
X215768155Y-73811824D01*
X215874482Y-73752278D01*
X216037062Y-73617062D01*
X216172278Y-73454482D01*
X216275602Y-73269984D01*
X216277458Y-73264517D01*
X216277460Y-73264512D01*
X216341717Y-73075215D01*
X216341718Y-73075210D01*
X216343573Y-73069746D01*
X216344401Y-73064037D01*
X216344402Y-73064032D01*
X216373383Y-72864148D01*
X216373916Y-72860474D01*
X216375500Y-72800000D01*
X216356812Y-72596620D01*
X216356680Y-72595181D01*
X216356679Y-72595178D01*
X216356151Y-72589427D01*
X216352246Y-72575578D01*
X216300320Y-72391465D01*
X216300319Y-72391463D01*
X216298752Y-72385906D01*
X216284897Y-72357809D01*
X216207781Y-72201434D01*
X216205226Y-72196253D01*
X216190141Y-72176051D01*
X216082161Y-72031450D01*
X216078704Y-72026820D01*
X215972974Y-71929084D01*
X215927669Y-71887204D01*
X215923424Y-71883280D01*
X215918541Y-71880199D01*
X215918537Y-71880196D01*
X215749470Y-71773523D01*
X215749465Y-71773521D01*
X215744586Y-71770442D01*
X215613352Y-71718085D01*
X215553544Y-71694224D01*
X215548180Y-71692084D01*
X215542520Y-71690958D01*
X215542516Y-71690957D01*
X215346450Y-71651957D01*
X215346447Y-71651957D01*
X215340783Y-71650830D01*
X215335008Y-71650754D01*
X215335004Y-71650754D01*
X215229064Y-71649367D01*
X215129341Y-71648062D01*
X215123644Y-71649041D01*
X215123643Y-71649041D01*
X214928791Y-71682523D01*
X214920935Y-71683873D01*
X214722544Y-71757063D01*
X214540814Y-71865181D01*
X214381830Y-72004606D01*
X214250916Y-72170670D01*
X214152457Y-72357809D01*
X214089750Y-72559758D01*
X214085387Y-72596620D01*
X214075097Y-72683562D01*
X214047227Y-72748859D01*
X213988478Y-72788723D01*
X213917504Y-72790497D01*
X213856837Y-72753618D01*
X213825740Y-72689794D01*
X213824499Y-72680281D01*
X213822677Y-72660444D01*
X213816812Y-72596620D01*
X213816680Y-72595181D01*
X213816679Y-72595178D01*
X213816151Y-72589427D01*
X213812246Y-72575578D01*
X213760320Y-72391465D01*
X213760319Y-72391463D01*
X213758752Y-72385906D01*
X213744897Y-72357809D01*
X213667781Y-72201434D01*
X213665226Y-72196253D01*
X213650141Y-72176051D01*
X213542161Y-72031450D01*
X213538704Y-72026820D01*
X213432974Y-71929084D01*
X213387669Y-71887204D01*
X213383424Y-71883280D01*
X213378541Y-71880199D01*
X213378537Y-71880196D01*
X213209470Y-71773523D01*
X213209465Y-71773521D01*
X213204586Y-71770442D01*
X213073352Y-71718085D01*
X213013544Y-71694224D01*
X213008180Y-71692084D01*
X213002520Y-71690958D01*
X213002516Y-71690957D01*
X212806450Y-71651957D01*
X212806447Y-71651957D01*
X212800783Y-71650830D01*
X212795008Y-71650754D01*
X212795004Y-71650754D01*
X212689064Y-71649367D01*
X212589341Y-71648062D01*
X212583644Y-71649041D01*
X212583643Y-71649041D01*
X212388791Y-71682523D01*
X212380935Y-71683873D01*
X212182544Y-71757063D01*
X212000814Y-71865181D01*
X211841830Y-72004606D01*
X211710916Y-72170670D01*
X211612457Y-72357809D01*
X211549750Y-72559758D01*
X211535486Y-72680281D01*
X211534816Y-72685940D01*
X211506946Y-72751238D01*
X211448198Y-72791102D01*
X211377223Y-72792877D01*
X211316556Y-72755998D01*
X211285459Y-72692174D01*
X211284218Y-72682661D01*
X211276188Y-72595274D01*
X211274090Y-72583954D01*
X211219854Y-72391649D01*
X211215729Y-72380902D01*
X211127354Y-72201695D01*
X211121344Y-72191887D01*
X211001785Y-72031778D01*
X210994096Y-72023238D01*
X210847354Y-71887592D01*
X210838238Y-71880598D01*
X210669245Y-71773970D01*
X210658994Y-71768746D01*
X210473402Y-71694703D01*
X210462374Y-71691436D01*
X210411770Y-71681371D01*
X210398894Y-71682523D01*
X210394000Y-71697676D01*
X209886000Y-71697676D01*
X209886000Y-71694749D01*
X209882194Y-71681787D01*
X209867279Y-71679851D01*
X209846756Y-71683378D01*
X209835644Y-71686355D01*
X209648176Y-71755516D01*
X209637798Y-71760466D01*
X209466076Y-71862629D01*
X209456764Y-71869394D01*
X209306534Y-72001143D01*
X209298617Y-72009486D01*
X209174909Y-72166408D01*
X209168647Y-72176051D01*
X209075608Y-72352891D01*
X209071207Y-72363515D01*
X209011953Y-72554345D01*
X209009561Y-72565599D01*
X209006627Y-72590388D01*
X208978756Y-72655685D01*
X208920008Y-72695549D01*
X208849034Y-72697323D01*
X208788367Y-72660444D01*
X208757269Y-72596620D01*
X208755500Y-72575578D01*
X208755500Y-71950000D01*
X208755236Y-71944275D01*
X208754533Y-71929084D01*
X208754197Y-71921812D01*
X208723472Y-71813827D01*
X208655814Y-71724233D01*
X208560359Y-71665130D01*
X208548887Y-71662986D01*
X208548886Y-71662985D01*
X208455725Y-71645570D01*
X208455723Y-71645570D01*
X208450000Y-71644500D01*
X206750000Y-71644500D01*
X206748559Y-71644567D01*
X206748542Y-71644567D01*
X206734442Y-71645219D01*
X206721812Y-71645803D01*
X206613827Y-71676528D01*
X206524233Y-71744186D01*
X206465130Y-71839641D01*
X206462986Y-71851113D01*
X206462985Y-71851114D01*
X206456972Y-71883280D01*
X206444500Y-71950000D01*
X165250000Y-71950000D01*
X165250000Y-68876000D01*
X165270002Y-68807879D01*
X165323658Y-68761386D01*
X165376000Y-68750000D01*
X257774000Y-68750000D01*
X257842121Y-68770002D01*
G37*
%TD.AperFunction*%
M02*
