%TF.GenerationSoftware,KiCad,Pcbnew,(5.99.0-9565-gc0f3e53b52)*%
%TF.CreationDate,2021-04-08T11:44:11+02:00*%
%TF.ProjectId,Smogly1,536d6f67-6c79-4312-9e6b-696361645f70,rev?*%
%TF.SameCoordinates,Original*%
%TF.FileFunction,Legend,Top*%
%TF.FilePolarity,Positive*%
%FSLAX46Y46*%
G04 Gerber Fmt 4.6, Leading zero omitted, Abs format (unit mm)*
G04 Created by KiCad (PCBNEW (5.99.0-9565-gc0f3e53b52)) date 2021-04-08 11:44:11*
%MOMM*%
%LPD*%
G01*
G04 APERTURE LIST*
%ADD10C,0.100000*%
%ADD11C,0.150000*%
%ADD12C,0.250000*%
%ADD13C,0.300000*%
%ADD14C,0.120000*%
G04 APERTURE END LIST*
D10*
X222290000Y-85020000D02*
X209700000Y-85020000D01*
X217900000Y-78270000D02*
X222290000Y-78270000D01*
D11*
X228380000Y-131855000D02*
X216250000Y-131855000D01*
X216250000Y-131855000D02*
X216250000Y-134450000D01*
X216250000Y-134450000D02*
X228380000Y-134450000D01*
X228380000Y-134450000D02*
X228380000Y-131855000D01*
X214750000Y-113950000D02*
X222600000Y-113950000D01*
X222600000Y-113950000D02*
X222600000Y-116550000D01*
X222600000Y-116550000D02*
X214750000Y-116550000D01*
X214750000Y-116550000D02*
X214750000Y-113950000D01*
X204800000Y-69800000D02*
X217900000Y-69800000D01*
X217900000Y-69800000D02*
X217900000Y-80900000D01*
X217900000Y-80900000D02*
X204800000Y-80900000D01*
X204800000Y-80900000D02*
X204800000Y-69800000D01*
D10*
X209700000Y-85020000D02*
X209700000Y-80900000D01*
D11*
X222210000Y-86400000D02*
X215720000Y-86400000D01*
X215720000Y-86400000D02*
X215720000Y-98080000D01*
X215720000Y-98080000D02*
X222210000Y-98080000D01*
X222210000Y-98080000D02*
X222210000Y-86400000D01*
D10*
X222290000Y-78270000D02*
X222290000Y-85020000D01*
D11*
X222600000Y-116550000D02*
X214750000Y-116550000D01*
X214750000Y-116550000D02*
X214750000Y-120050000D01*
X214750000Y-120050000D02*
X222600000Y-120050000D01*
X222600000Y-120050000D02*
X222600000Y-116550000D01*
X165650000Y-135700000D02*
X212500000Y-135700000D01*
X212500000Y-135700000D02*
X212500000Y-99850000D01*
X212500000Y-99850000D02*
X165650000Y-99850000D01*
X165650000Y-99850000D02*
X165650000Y-135700000D01*
X222600000Y-113950000D02*
X214750000Y-113950000D01*
X214750000Y-113950000D02*
X214750000Y-108400000D01*
X214750000Y-108400000D02*
X222600000Y-108400000D01*
X222600000Y-108400000D02*
X222600000Y-113950000D01*
X170950000Y-87450000D02*
X187050000Y-87450000D01*
X187050000Y-87450000D02*
X187050000Y-75400000D01*
X187050000Y-75400000D02*
X170950000Y-75400000D01*
X170950000Y-75400000D02*
X170950000Y-87450000D01*
X255300000Y-69150000D02*
X223250000Y-69150000D01*
X223250000Y-69150000D02*
X223250000Y-127150000D01*
X223250000Y-127150000D02*
X255300000Y-127150000D01*
X255300000Y-127150000D02*
X255300000Y-69150000D01*
X255300000Y-136350000D02*
X242300000Y-136350000D01*
X242300000Y-136350000D02*
X242300000Y-121300000D01*
X242300000Y-121300000D02*
X255300000Y-121300000D01*
X255300000Y-121300000D02*
X255300000Y-136350000D01*
X216250000Y-131860000D02*
X228380000Y-131860000D01*
X228380000Y-131860000D02*
X228380000Y-129255000D01*
X228380000Y-129255000D02*
X216250000Y-129255000D01*
X216250000Y-129255000D02*
X216250000Y-131860000D01*
X216261904Y-88802380D02*
X216261904Y-87802380D01*
X216500000Y-87802380D01*
X216642857Y-87850000D01*
X216738095Y-87945238D01*
X216785714Y-88040476D01*
X216833333Y-88230952D01*
X216833333Y-88373809D01*
X216785714Y-88564285D01*
X216738095Y-88659523D01*
X216642857Y-88754761D01*
X216500000Y-88802380D01*
X216261904Y-88802380D01*
X217404761Y-88230952D02*
X217309523Y-88183333D01*
X217261904Y-88135714D01*
X217214285Y-88040476D01*
X217214285Y-87992857D01*
X217261904Y-87897619D01*
X217309523Y-87850000D01*
X217404761Y-87802380D01*
X217595238Y-87802380D01*
X217690476Y-87850000D01*
X217738095Y-87897619D01*
X217785714Y-87992857D01*
X217785714Y-88040476D01*
X217738095Y-88135714D01*
X217690476Y-88183333D01*
X217595238Y-88230952D01*
X217404761Y-88230952D01*
X217309523Y-88278571D01*
X217261904Y-88326190D01*
X217214285Y-88421428D01*
X217214285Y-88611904D01*
X217261904Y-88707142D01*
X217309523Y-88754761D01*
X217404761Y-88802380D01*
X217595238Y-88802380D01*
X217690476Y-88754761D01*
X217738095Y-88707142D01*
X217785714Y-88611904D01*
X217785714Y-88421428D01*
X217738095Y-88326190D01*
X217690476Y-88278571D01*
X217595238Y-88230952D01*
X245692857Y-130602380D02*
X245692857Y-129935714D01*
X245692857Y-130030952D02*
X245740476Y-129983333D01*
X245835714Y-129935714D01*
X245978571Y-129935714D01*
X246073809Y-129983333D01*
X246121428Y-130078571D01*
X246121428Y-130602380D01*
X246121428Y-130078571D02*
X246169047Y-129983333D01*
X246264285Y-129935714D01*
X246407142Y-129935714D01*
X246502380Y-129983333D01*
X246550000Y-130078571D01*
X246550000Y-130602380D01*
X247026190Y-130602380D02*
X247026190Y-129935714D01*
X247026190Y-129602380D02*
X246978571Y-129650000D01*
X247026190Y-129697619D01*
X247073809Y-129650000D01*
X247026190Y-129602380D01*
X247026190Y-129697619D01*
X247930952Y-130554761D02*
X247835714Y-130602380D01*
X247645238Y-130602380D01*
X247550000Y-130554761D01*
X247502380Y-130507142D01*
X247454761Y-130411904D01*
X247454761Y-130126190D01*
X247502380Y-130030952D01*
X247550000Y-129983333D01*
X247645238Y-129935714D01*
X247835714Y-129935714D01*
X247930952Y-129983333D01*
X248359523Y-130602380D02*
X248359523Y-129935714D01*
X248359523Y-130126190D02*
X248407142Y-130030952D01*
X248454761Y-129983333D01*
X248550000Y-129935714D01*
X248645238Y-129935714D01*
X249121428Y-130602380D02*
X249026190Y-130554761D01*
X248978571Y-130507142D01*
X248930952Y-130411904D01*
X248930952Y-130126190D01*
X248978571Y-130030952D01*
X249026190Y-129983333D01*
X249121428Y-129935714D01*
X249264285Y-129935714D01*
X249359523Y-129983333D01*
X249407142Y-130030952D01*
X249454761Y-130126190D01*
X249454761Y-130411904D01*
X249407142Y-130507142D01*
X249359523Y-130554761D01*
X249264285Y-130602380D01*
X249121428Y-130602380D01*
X249883333Y-129602380D02*
X249883333Y-130411904D01*
X249930952Y-130507142D01*
X249978571Y-130554761D01*
X250073809Y-130602380D01*
X250264285Y-130602380D01*
X250359523Y-130554761D01*
X250407142Y-130507142D01*
X250454761Y-130411904D01*
X250454761Y-129602380D01*
X250883333Y-130554761D02*
X251026190Y-130602380D01*
X251264285Y-130602380D01*
X251359523Y-130554761D01*
X251407142Y-130507142D01*
X251454761Y-130411904D01*
X251454761Y-130316666D01*
X251407142Y-130221428D01*
X251359523Y-130173809D01*
X251264285Y-130126190D01*
X251073809Y-130078571D01*
X250978571Y-130030952D01*
X250930952Y-129983333D01*
X250883333Y-129888095D01*
X250883333Y-129792857D01*
X250930952Y-129697619D01*
X250978571Y-129650000D01*
X251073809Y-129602380D01*
X251311904Y-129602380D01*
X251454761Y-129650000D01*
X252216666Y-130078571D02*
X252359523Y-130126190D01*
X252407142Y-130173809D01*
X252454761Y-130269047D01*
X252454761Y-130411904D01*
X252407142Y-130507142D01*
X252359523Y-130554761D01*
X252264285Y-130602380D01*
X251883333Y-130602380D01*
X251883333Y-129602380D01*
X252216666Y-129602380D01*
X252311904Y-129650000D01*
X252359523Y-129697619D01*
X252407142Y-129792857D01*
X252407142Y-129888095D01*
X252359523Y-129983333D01*
X252311904Y-130030952D01*
X252216666Y-130078571D01*
X251883333Y-130078571D01*
X221200000Y-111811904D02*
X221152380Y-111907142D01*
X221152380Y-112050000D01*
X221200000Y-112192857D01*
X221295238Y-112288095D01*
X221390476Y-112335714D01*
X221580952Y-112383333D01*
X221723809Y-112383333D01*
X221914285Y-112335714D01*
X222009523Y-112288095D01*
X222104761Y-112192857D01*
X222152380Y-112050000D01*
X222152380Y-111954761D01*
X222104761Y-111811904D01*
X222057142Y-111764285D01*
X221723809Y-111764285D01*
X221723809Y-111954761D01*
X222152380Y-111335714D02*
X221152380Y-111335714D01*
X222152380Y-110764285D01*
X221152380Y-110764285D01*
X222152380Y-110288095D02*
X221152380Y-110288095D01*
X221152380Y-110050000D01*
X221200000Y-109907142D01*
X221295238Y-109811904D01*
X221390476Y-109764285D01*
X221580952Y-109716666D01*
X221723809Y-109716666D01*
X221914285Y-109764285D01*
X222009523Y-109811904D01*
X222104761Y-109907142D01*
X222152380Y-110050000D01*
X222152380Y-110288095D01*
X210600952Y-83482380D02*
X210600952Y-82482380D01*
X210839047Y-82482380D01*
X210981904Y-82530000D01*
X211077142Y-82625238D01*
X211124761Y-82720476D01*
X211172380Y-82910952D01*
X211172380Y-83053809D01*
X211124761Y-83244285D01*
X211077142Y-83339523D01*
X210981904Y-83434761D01*
X210839047Y-83482380D01*
X210600952Y-83482380D01*
X211981904Y-83434761D02*
X211886666Y-83482380D01*
X211696190Y-83482380D01*
X211600952Y-83434761D01*
X211553333Y-83339523D01*
X211553333Y-82958571D01*
X211600952Y-82863333D01*
X211696190Y-82815714D01*
X211886666Y-82815714D01*
X211981904Y-82863333D01*
X212029523Y-82958571D01*
X212029523Y-83053809D01*
X211553333Y-83149047D01*
X212839047Y-83434761D02*
X212743809Y-83482380D01*
X212553333Y-83482380D01*
X212458095Y-83434761D01*
X212410476Y-83339523D01*
X212410476Y-82958571D01*
X212458095Y-82863333D01*
X212553333Y-82815714D01*
X212743809Y-82815714D01*
X212839047Y-82863333D01*
X212886666Y-82958571D01*
X212886666Y-83053809D01*
X212410476Y-83149047D01*
X213315238Y-82815714D02*
X213315238Y-83815714D01*
X213315238Y-82863333D02*
X213410476Y-82815714D01*
X213600952Y-82815714D01*
X213696190Y-82863333D01*
X213743809Y-82910952D01*
X213791428Y-83006190D01*
X213791428Y-83291904D01*
X213743809Y-83387142D01*
X213696190Y-83434761D01*
X213600952Y-83482380D01*
X213410476Y-83482380D01*
X213315238Y-83434761D01*
X214172380Y-83434761D02*
X214315238Y-83482380D01*
X214553333Y-83482380D01*
X214648571Y-83434761D01*
X214696190Y-83387142D01*
X214743809Y-83291904D01*
X214743809Y-83196666D01*
X214696190Y-83101428D01*
X214648571Y-83053809D01*
X214553333Y-83006190D01*
X214362857Y-82958571D01*
X214267619Y-82910952D01*
X214220000Y-82863333D01*
X214172380Y-82768095D01*
X214172380Y-82672857D01*
X214220000Y-82577619D01*
X214267619Y-82530000D01*
X214362857Y-82482380D01*
X214600952Y-82482380D01*
X214743809Y-82530000D01*
X215315238Y-83482380D02*
X215220000Y-83434761D01*
X215172380Y-83339523D01*
X215172380Y-82482380D01*
X216077142Y-83434761D02*
X215981904Y-83482380D01*
X215791428Y-83482380D01*
X215696190Y-83434761D01*
X215648571Y-83339523D01*
X215648571Y-82958571D01*
X215696190Y-82863333D01*
X215791428Y-82815714D01*
X215981904Y-82815714D01*
X216077142Y-82863333D01*
X216124761Y-82958571D01*
X216124761Y-83053809D01*
X215648571Y-83149047D01*
X216934285Y-83434761D02*
X216839047Y-83482380D01*
X216648571Y-83482380D01*
X216553333Y-83434761D01*
X216505714Y-83339523D01*
X216505714Y-82958571D01*
X216553333Y-82863333D01*
X216648571Y-82815714D01*
X216839047Y-82815714D01*
X216934285Y-82863333D01*
X216981904Y-82958571D01*
X216981904Y-83053809D01*
X216505714Y-83149047D01*
X217410476Y-82815714D02*
X217410476Y-83815714D01*
X217410476Y-82863333D02*
X217505714Y-82815714D01*
X217696190Y-82815714D01*
X217791428Y-82863333D01*
X217839047Y-82910952D01*
X217886666Y-83006190D01*
X217886666Y-83291904D01*
X217839047Y-83387142D01*
X217791428Y-83434761D01*
X217696190Y-83482380D01*
X217505714Y-83482380D01*
X217410476Y-83434761D01*
X207997619Y-75409523D02*
X207997619Y-74933333D01*
X207521428Y-74885714D01*
X207569047Y-74933333D01*
X207616666Y-75028571D01*
X207616666Y-75266666D01*
X207569047Y-75361904D01*
X207521428Y-75409523D01*
X207426190Y-75457142D01*
X207188095Y-75457142D01*
X207092857Y-75409523D01*
X207045238Y-75361904D01*
X206997619Y-75266666D01*
X206997619Y-75028571D01*
X207045238Y-74933333D01*
X207092857Y-74885714D01*
X207997619Y-75742857D02*
X206997619Y-76076190D01*
X207997619Y-76409523D01*
X216361904Y-96552380D02*
X216361904Y-95552380D01*
X216600000Y-95552380D01*
X216742857Y-95600000D01*
X216838095Y-95695238D01*
X216885714Y-95790476D01*
X216933333Y-95980952D01*
X216933333Y-96123809D01*
X216885714Y-96314285D01*
X216838095Y-96409523D01*
X216742857Y-96504761D01*
X216600000Y-96552380D01*
X216361904Y-96552380D01*
X217838095Y-95552380D02*
X217361904Y-95552380D01*
X217314285Y-96028571D01*
X217361904Y-95980952D01*
X217457142Y-95933333D01*
X217695238Y-95933333D01*
X217790476Y-95980952D01*
X217838095Y-96028571D01*
X217885714Y-96123809D01*
X217885714Y-96361904D01*
X217838095Y-96457142D01*
X217790476Y-96504761D01*
X217695238Y-96552380D01*
X217457142Y-96552380D01*
X217361904Y-96504761D01*
X217314285Y-96457142D01*
X180961904Y-80652380D02*
X180961904Y-79652380D01*
X181200000Y-79652380D01*
X181342857Y-79700000D01*
X181438095Y-79795238D01*
X181485714Y-79890476D01*
X181533333Y-80080952D01*
X181533333Y-80223809D01*
X181485714Y-80414285D01*
X181438095Y-80509523D01*
X181342857Y-80604761D01*
X181200000Y-80652380D01*
X180961904Y-80652380D01*
X182390476Y-79985714D02*
X182390476Y-80652380D01*
X182152380Y-79604761D02*
X181914285Y-80319047D01*
X182533333Y-80319047D01*
X216311904Y-91502380D02*
X216311904Y-90502380D01*
X216550000Y-90502380D01*
X216692857Y-90550000D01*
X216788095Y-90645238D01*
X216835714Y-90740476D01*
X216883333Y-90930952D01*
X216883333Y-91073809D01*
X216835714Y-91264285D01*
X216788095Y-91359523D01*
X216692857Y-91454761D01*
X216550000Y-91502380D01*
X216311904Y-91502380D01*
X217216666Y-90502380D02*
X217883333Y-90502380D01*
X217454761Y-91502380D01*
X180568095Y-82260000D02*
X180472857Y-82212380D01*
X180330000Y-82212380D01*
X180187142Y-82260000D01*
X180091904Y-82355238D01*
X180044285Y-82450476D01*
X179996666Y-82640952D01*
X179996666Y-82783809D01*
X180044285Y-82974285D01*
X180091904Y-83069523D01*
X180187142Y-83164761D01*
X180330000Y-83212380D01*
X180425238Y-83212380D01*
X180568095Y-83164761D01*
X180615714Y-83117142D01*
X180615714Y-82783809D01*
X180425238Y-82783809D01*
X181044285Y-83212380D02*
X181044285Y-82212380D01*
X181615714Y-83212380D01*
X181615714Y-82212380D01*
X182091904Y-83212380D02*
X182091904Y-82212380D01*
X182330000Y-82212380D01*
X182472857Y-82260000D01*
X182568095Y-82355238D01*
X182615714Y-82450476D01*
X182663333Y-82640952D01*
X182663333Y-82783809D01*
X182615714Y-82974285D01*
X182568095Y-83069523D01*
X182472857Y-83164761D01*
X182330000Y-83212380D01*
X182091904Y-83212380D01*
D12*
X235050000Y-97052380D02*
X235050000Y-96052380D01*
X235621428Y-97052380D01*
X235621428Y-96052380D01*
X236240476Y-97052380D02*
X236145238Y-97004761D01*
X236097619Y-96957142D01*
X236050000Y-96861904D01*
X236050000Y-96576190D01*
X236097619Y-96480952D01*
X236145238Y-96433333D01*
X236240476Y-96385714D01*
X236383333Y-96385714D01*
X236478571Y-96433333D01*
X236526190Y-96480952D01*
X236573809Y-96576190D01*
X236573809Y-96861904D01*
X236526190Y-96957142D01*
X236478571Y-97004761D01*
X236383333Y-97052380D01*
X236240476Y-97052380D01*
X237430952Y-97052380D02*
X237430952Y-96052380D01*
X237430952Y-97004761D02*
X237335714Y-97052380D01*
X237145238Y-97052380D01*
X237050000Y-97004761D01*
X237002380Y-96957142D01*
X236954761Y-96861904D01*
X236954761Y-96576190D01*
X237002380Y-96480952D01*
X237050000Y-96433333D01*
X237145238Y-96385714D01*
X237335714Y-96385714D01*
X237430952Y-96433333D01*
X238288095Y-97004761D02*
X238192857Y-97052380D01*
X238002380Y-97052380D01*
X237907142Y-97004761D01*
X237859523Y-96909523D01*
X237859523Y-96528571D01*
X237907142Y-96433333D01*
X238002380Y-96385714D01*
X238192857Y-96385714D01*
X238288095Y-96433333D01*
X238335714Y-96528571D01*
X238335714Y-96623809D01*
X237859523Y-96719047D01*
X238764285Y-97052380D02*
X238764285Y-96052380D01*
X239097619Y-96766666D01*
X239430952Y-96052380D01*
X239430952Y-97052380D01*
X240478571Y-96957142D02*
X240430952Y-97004761D01*
X240288095Y-97052380D01*
X240192857Y-97052380D01*
X240050000Y-97004761D01*
X239954761Y-96909523D01*
X239907142Y-96814285D01*
X239859523Y-96623809D01*
X239859523Y-96480952D01*
X239907142Y-96290476D01*
X239954761Y-96195238D01*
X240050000Y-96100000D01*
X240192857Y-96052380D01*
X240288095Y-96052380D01*
X240430952Y-96100000D01*
X240478571Y-96147619D01*
X240907142Y-96052380D02*
X240907142Y-96861904D01*
X240954761Y-96957142D01*
X241002380Y-97004761D01*
X241097619Y-97052380D01*
X241288095Y-97052380D01*
X241383333Y-97004761D01*
X241430952Y-96957142D01*
X241478571Y-96861904D01*
X241478571Y-96052380D01*
X242573809Y-96052380D02*
X242907142Y-97052380D01*
X243240476Y-96052380D01*
X243478571Y-96052380D02*
X244097619Y-96052380D01*
X243764285Y-96433333D01*
X243907142Y-96433333D01*
X244002380Y-96480952D01*
X244050000Y-96528571D01*
X244097619Y-96623809D01*
X244097619Y-96861904D01*
X244050000Y-96957142D01*
X244002380Y-97004761D01*
X243907142Y-97052380D01*
X243621428Y-97052380D01*
X243526190Y-97004761D01*
X243478571Y-96957142D01*
D11*
X221252380Y-115490476D02*
X221252380Y-115966666D01*
X221728571Y-116014285D01*
X221680952Y-115966666D01*
X221633333Y-115871428D01*
X221633333Y-115633333D01*
X221680952Y-115538095D01*
X221728571Y-115490476D01*
X221823809Y-115442857D01*
X222061904Y-115442857D01*
X222157142Y-115490476D01*
X222204761Y-115538095D01*
X222252380Y-115633333D01*
X222252380Y-115871428D01*
X222204761Y-115966666D01*
X222157142Y-116014285D01*
X221252380Y-115157142D02*
X222252380Y-114823809D01*
X221252380Y-114490476D01*
D13*
X170988095Y-95159523D02*
X171178571Y-95254761D01*
X171559523Y-95254761D01*
X171750000Y-95159523D01*
X171845238Y-94969047D01*
X171845238Y-94873809D01*
X171750000Y-94683333D01*
X171559523Y-94588095D01*
X171273809Y-94588095D01*
X171083333Y-94492857D01*
X170988095Y-94302380D01*
X170988095Y-94207142D01*
X171083333Y-94016666D01*
X171273809Y-93921428D01*
X171559523Y-93921428D01*
X171750000Y-94016666D01*
X172702380Y-95254761D02*
X172702380Y-93921428D01*
X172702380Y-94111904D02*
X172797619Y-94016666D01*
X172988095Y-93921428D01*
X173273809Y-93921428D01*
X173464285Y-94016666D01*
X173559523Y-94207142D01*
X173559523Y-95254761D01*
X173559523Y-94207142D02*
X173654761Y-94016666D01*
X173845238Y-93921428D01*
X174130952Y-93921428D01*
X174321428Y-94016666D01*
X174416666Y-94207142D01*
X174416666Y-95254761D01*
X175654761Y-95254761D02*
X175464285Y-95159523D01*
X175369047Y-95064285D01*
X175273809Y-94873809D01*
X175273809Y-94302380D01*
X175369047Y-94111904D01*
X175464285Y-94016666D01*
X175654761Y-93921428D01*
X175940476Y-93921428D01*
X176130952Y-94016666D01*
X176226190Y-94111904D01*
X176321428Y-94302380D01*
X176321428Y-94873809D01*
X176226190Y-95064285D01*
X176130952Y-95159523D01*
X175940476Y-95254761D01*
X175654761Y-95254761D01*
X178035714Y-93921428D02*
X178035714Y-95540476D01*
X177940476Y-95730952D01*
X177845238Y-95826190D01*
X177654761Y-95921428D01*
X177369047Y-95921428D01*
X177178571Y-95826190D01*
X178035714Y-95159523D02*
X177845238Y-95254761D01*
X177464285Y-95254761D01*
X177273809Y-95159523D01*
X177178571Y-95064285D01*
X177083333Y-94873809D01*
X177083333Y-94302380D01*
X177178571Y-94111904D01*
X177273809Y-94016666D01*
X177464285Y-93921428D01*
X177845238Y-93921428D01*
X178035714Y-94016666D01*
X179273809Y-95254761D02*
X179083333Y-95159523D01*
X178988095Y-94969047D01*
X178988095Y-93254761D01*
X179845238Y-93921428D02*
X180321428Y-95254761D01*
X180797619Y-93921428D02*
X180321428Y-95254761D01*
X180130952Y-95730952D01*
X180035714Y-95826190D01*
X179845238Y-95921428D01*
X181559523Y-95064285D02*
X181654761Y-95159523D01*
X181559523Y-95254761D01*
X181464285Y-95159523D01*
X181559523Y-95064285D01*
X181559523Y-95254761D01*
X182797619Y-95254761D02*
X182607142Y-95159523D01*
X182511904Y-95064285D01*
X182416666Y-94873809D01*
X182416666Y-94302380D01*
X182511904Y-94111904D01*
X182607142Y-94016666D01*
X182797619Y-93921428D01*
X183083333Y-93921428D01*
X183273809Y-94016666D01*
X183369047Y-94111904D01*
X183464285Y-94302380D01*
X183464285Y-94873809D01*
X183369047Y-95064285D01*
X183273809Y-95159523D01*
X183083333Y-95254761D01*
X182797619Y-95254761D01*
X184321428Y-95254761D02*
X184321428Y-93921428D01*
X184321428Y-94302380D02*
X184416666Y-94111904D01*
X184511904Y-94016666D01*
X184702380Y-93921428D01*
X184892857Y-93921428D01*
X186416666Y-93921428D02*
X186416666Y-95540476D01*
X186321428Y-95730952D01*
X186226190Y-95826190D01*
X186035714Y-95921428D01*
X185750000Y-95921428D01*
X185559523Y-95826190D01*
X186416666Y-95159523D02*
X186226190Y-95254761D01*
X185845238Y-95254761D01*
X185654761Y-95159523D01*
X185559523Y-95064285D01*
X185464285Y-94873809D01*
X185464285Y-94302380D01*
X185559523Y-94111904D01*
X185654761Y-94016666D01*
X185845238Y-93921428D01*
X186226190Y-93921428D01*
X186416666Y-94016666D01*
D11*
X221302380Y-119776190D02*
X221302380Y-119157142D01*
X221683333Y-119490476D01*
X221683333Y-119347619D01*
X221730952Y-119252380D01*
X221778571Y-119204761D01*
X221873809Y-119157142D01*
X222111904Y-119157142D01*
X222207142Y-119204761D01*
X222254761Y-119252380D01*
X222302380Y-119347619D01*
X222302380Y-119633333D01*
X222254761Y-119728571D01*
X222207142Y-119776190D01*
X222207142Y-118728571D02*
X222254761Y-118680952D01*
X222302380Y-118728571D01*
X222254761Y-118776190D01*
X222207142Y-118728571D01*
X222302380Y-118728571D01*
X221302380Y-118347619D02*
X221302380Y-117728571D01*
X221683333Y-118061904D01*
X221683333Y-117919047D01*
X221730952Y-117823809D01*
X221778571Y-117776190D01*
X221873809Y-117728571D01*
X222111904Y-117728571D01*
X222207142Y-117776190D01*
X222254761Y-117823809D01*
X222302380Y-117919047D01*
X222302380Y-118204761D01*
X222254761Y-118300000D01*
X222207142Y-118347619D01*
X221302380Y-117442857D02*
X222302380Y-117109523D01*
X221302380Y-116776190D01*
X208107142Y-80152380D02*
X208107142Y-79152380D01*
X208488095Y-79152380D01*
X208583333Y-79200000D01*
X208630952Y-79247619D01*
X208678571Y-79342857D01*
X208678571Y-79485714D01*
X208630952Y-79580952D01*
X208583333Y-79628571D01*
X208488095Y-79676190D01*
X208107142Y-79676190D01*
X209107142Y-80152380D02*
X209107142Y-79152380D01*
X209440476Y-79866666D01*
X209773809Y-79152380D01*
X209773809Y-80152380D01*
X210202380Y-80104761D02*
X210345238Y-80152380D01*
X210583333Y-80152380D01*
X210678571Y-80104761D01*
X210726190Y-80057142D01*
X210773809Y-79961904D01*
X210773809Y-79866666D01*
X210726190Y-79771428D01*
X210678571Y-79723809D01*
X210583333Y-79676190D01*
X210392857Y-79628571D01*
X210297619Y-79580952D01*
X210250000Y-79533333D01*
X210202380Y-79438095D01*
X210202380Y-79342857D01*
X210250000Y-79247619D01*
X210297619Y-79200000D01*
X210392857Y-79152380D01*
X210630952Y-79152380D01*
X210773809Y-79200000D01*
X211107142Y-80152380D02*
X211630952Y-79485714D01*
X211107142Y-79485714D02*
X211630952Y-80152380D01*
X212202380Y-79152380D02*
X212297619Y-79152380D01*
X212392857Y-79200000D01*
X212440476Y-79247619D01*
X212488095Y-79342857D01*
X212535714Y-79533333D01*
X212535714Y-79771428D01*
X212488095Y-79961904D01*
X212440476Y-80057142D01*
X212392857Y-80104761D01*
X212297619Y-80152380D01*
X212202380Y-80152380D01*
X212107142Y-80104761D01*
X212059523Y-80057142D01*
X212011904Y-79961904D01*
X211964285Y-79771428D01*
X211964285Y-79533333D01*
X212011904Y-79342857D01*
X212059523Y-79247619D01*
X212107142Y-79200000D01*
X212202380Y-79152380D01*
X213154761Y-79152380D02*
X213250000Y-79152380D01*
X213345238Y-79200000D01*
X213392857Y-79247619D01*
X213440476Y-79342857D01*
X213488095Y-79533333D01*
X213488095Y-79771428D01*
X213440476Y-79961904D01*
X213392857Y-80057142D01*
X213345238Y-80104761D01*
X213250000Y-80152380D01*
X213154761Y-80152380D01*
X213059523Y-80104761D01*
X213011904Y-80057142D01*
X212964285Y-79961904D01*
X212916666Y-79771428D01*
X212916666Y-79533333D01*
X212964285Y-79342857D01*
X213011904Y-79247619D01*
X213059523Y-79200000D01*
X213154761Y-79152380D01*
X213821428Y-79152380D02*
X214440476Y-79152380D01*
X214107142Y-79533333D01*
X214250000Y-79533333D01*
X214345238Y-79580952D01*
X214392857Y-79628571D01*
X214440476Y-79723809D01*
X214440476Y-79961904D01*
X214392857Y-80057142D01*
X214345238Y-80104761D01*
X214250000Y-80152380D01*
X213964285Y-80152380D01*
X213869047Y-80104761D01*
X213821428Y-80057142D01*
X210550000Y-75288095D02*
X210597619Y-75192857D01*
X210597619Y-75050000D01*
X210550000Y-74907142D01*
X210454761Y-74811904D01*
X210359523Y-74764285D01*
X210169047Y-74716666D01*
X210026190Y-74716666D01*
X209835714Y-74764285D01*
X209740476Y-74811904D01*
X209645238Y-74907142D01*
X209597619Y-75050000D01*
X209597619Y-75145238D01*
X209645238Y-75288095D01*
X209692857Y-75335714D01*
X210026190Y-75335714D01*
X210026190Y-75145238D01*
X209597619Y-75764285D02*
X210597619Y-75764285D01*
X209597619Y-76335714D01*
X210597619Y-76335714D01*
X209597619Y-76811904D02*
X210597619Y-76811904D01*
X210597619Y-77050000D01*
X210550000Y-77192857D01*
X210454761Y-77288095D01*
X210359523Y-77335714D01*
X210169047Y-77383333D01*
X210026190Y-77383333D01*
X209835714Y-77335714D01*
X209740476Y-77288095D01*
X209645238Y-77192857D01*
X209597619Y-77050000D01*
X209597619Y-76811904D01*
X214747619Y-74761904D02*
X215747619Y-74761904D01*
X215747619Y-75000000D01*
X215700000Y-75142857D01*
X215604761Y-75238095D01*
X215509523Y-75285714D01*
X215319047Y-75333333D01*
X215176190Y-75333333D01*
X214985714Y-75285714D01*
X214890476Y-75238095D01*
X214795238Y-75142857D01*
X214747619Y-75000000D01*
X214747619Y-74761904D01*
X214747619Y-76285714D02*
X214747619Y-75714285D01*
X214747619Y-76000000D02*
X215747619Y-76000000D01*
X215604761Y-75904761D01*
X215509523Y-75809523D01*
X215461904Y-75714285D01*
D13*
X182914285Y-118104761D02*
X182914285Y-116104761D01*
X183676190Y-116104761D01*
X183866666Y-116200000D01*
X183961904Y-116295238D01*
X184057142Y-116485714D01*
X184057142Y-116771428D01*
X183961904Y-116961904D01*
X183866666Y-117057142D01*
X183676190Y-117152380D01*
X182914285Y-117152380D01*
X184914285Y-118104761D02*
X184914285Y-116104761D01*
X185580952Y-117533333D01*
X186247619Y-116104761D01*
X186247619Y-118104761D01*
X187104761Y-118009523D02*
X187390476Y-118104761D01*
X187866666Y-118104761D01*
X188057142Y-118009523D01*
X188152380Y-117914285D01*
X188247619Y-117723809D01*
X188247619Y-117533333D01*
X188152380Y-117342857D01*
X188057142Y-117247619D01*
X187866666Y-117152380D01*
X187485714Y-117057142D01*
X187295238Y-116961904D01*
X187200000Y-116866666D01*
X187104761Y-116676190D01*
X187104761Y-116485714D01*
X187200000Y-116295238D01*
X187295238Y-116200000D01*
X187485714Y-116104761D01*
X187961904Y-116104761D01*
X188247619Y-116200000D01*
X188914285Y-118104761D02*
X189961904Y-116771428D01*
X188914285Y-116771428D02*
X189961904Y-118104761D01*
X191104761Y-116104761D02*
X191295238Y-116104761D01*
X191485714Y-116200000D01*
X191580952Y-116295238D01*
X191676190Y-116485714D01*
X191771428Y-116866666D01*
X191771428Y-117342857D01*
X191676190Y-117723809D01*
X191580952Y-117914285D01*
X191485714Y-118009523D01*
X191295238Y-118104761D01*
X191104761Y-118104761D01*
X190914285Y-118009523D01*
X190819047Y-117914285D01*
X190723809Y-117723809D01*
X190628571Y-117342857D01*
X190628571Y-116866666D01*
X190723809Y-116485714D01*
X190819047Y-116295238D01*
X190914285Y-116200000D01*
X191104761Y-116104761D01*
X193009523Y-116104761D02*
X193200000Y-116104761D01*
X193390476Y-116200000D01*
X193485714Y-116295238D01*
X193580952Y-116485714D01*
X193676190Y-116866666D01*
X193676190Y-117342857D01*
X193580952Y-117723809D01*
X193485714Y-117914285D01*
X193390476Y-118009523D01*
X193200000Y-118104761D01*
X193009523Y-118104761D01*
X192819047Y-118009523D01*
X192723809Y-117914285D01*
X192628571Y-117723809D01*
X192533333Y-117342857D01*
X192533333Y-116866666D01*
X192628571Y-116485714D01*
X192723809Y-116295238D01*
X192819047Y-116200000D01*
X193009523Y-116104761D01*
X194342857Y-116104761D02*
X195580952Y-116104761D01*
X194914285Y-116866666D01*
X195200000Y-116866666D01*
X195390476Y-116961904D01*
X195485714Y-117057142D01*
X195580952Y-117247619D01*
X195580952Y-117723809D01*
X195485714Y-117914285D01*
X195390476Y-118009523D01*
X195200000Y-118104761D01*
X194628571Y-118104761D01*
X194438095Y-118009523D01*
X194342857Y-117914285D01*
D11*
X216311904Y-93952380D02*
X216311904Y-92952380D01*
X216550000Y-92952380D01*
X216692857Y-93000000D01*
X216788095Y-93095238D01*
X216835714Y-93190476D01*
X216883333Y-93380952D01*
X216883333Y-93523809D01*
X216835714Y-93714285D01*
X216788095Y-93809523D01*
X216692857Y-93904761D01*
X216550000Y-93952380D01*
X216311904Y-93952380D01*
X217740476Y-92952380D02*
X217550000Y-92952380D01*
X217454761Y-93000000D01*
X217407142Y-93047619D01*
X217311904Y-93190476D01*
X217264285Y-93380952D01*
X217264285Y-93761904D01*
X217311904Y-93857142D01*
X217359523Y-93904761D01*
X217454761Y-93952380D01*
X217645238Y-93952380D01*
X217740476Y-93904761D01*
X217788095Y-93857142D01*
X217835714Y-93761904D01*
X217835714Y-93523809D01*
X217788095Y-93428571D01*
X217740476Y-93380952D01*
X217645238Y-93333333D01*
X217454761Y-93333333D01*
X217359523Y-93380952D01*
X217311904Y-93428571D01*
X217264285Y-93523809D01*
X217795238Y-130005000D02*
X217700000Y-129957380D01*
X217557142Y-129957380D01*
X217414285Y-130005000D01*
X217319047Y-130100238D01*
X217271428Y-130195476D01*
X217223809Y-130385952D01*
X217223809Y-130528809D01*
X217271428Y-130719285D01*
X217319047Y-130814523D01*
X217414285Y-130909761D01*
X217557142Y-130957380D01*
X217652380Y-130957380D01*
X217795238Y-130909761D01*
X217842857Y-130862142D01*
X217842857Y-130528809D01*
X217652380Y-130528809D01*
X218271428Y-130957380D02*
X218271428Y-129957380D01*
X218842857Y-130957380D01*
X218842857Y-129957380D01*
X219319047Y-130957380D02*
X219319047Y-129957380D01*
X219557142Y-129957380D01*
X219700000Y-130005000D01*
X219795238Y-130100238D01*
X219842857Y-130195476D01*
X219890476Y-130385952D01*
X219890476Y-130528809D01*
X219842857Y-130719285D01*
X219795238Y-130814523D01*
X219700000Y-130909761D01*
X219557142Y-130957380D01*
X219319047Y-130957380D01*
X221080952Y-130576428D02*
X221842857Y-130576428D01*
X223080952Y-130957380D02*
X223080952Y-129957380D01*
X223557142Y-130957380D02*
X223557142Y-129957380D01*
X224128571Y-130957380D01*
X224128571Y-129957380D01*
X212197619Y-74761904D02*
X213197619Y-74761904D01*
X213197619Y-75000000D01*
X213150000Y-75142857D01*
X213054761Y-75238095D01*
X212959523Y-75285714D01*
X212769047Y-75333333D01*
X212626190Y-75333333D01*
X212435714Y-75285714D01*
X212340476Y-75238095D01*
X212245238Y-75142857D01*
X212197619Y-75000000D01*
X212197619Y-74761904D01*
X213102380Y-75714285D02*
X213150000Y-75761904D01*
X213197619Y-75857142D01*
X213197619Y-76095238D01*
X213150000Y-76190476D01*
X213102380Y-76238095D01*
X213007142Y-76285714D01*
X212911904Y-76285714D01*
X212769047Y-76238095D01*
X212197619Y-75666666D01*
X212197619Y-76285714D01*
X181011904Y-78052380D02*
X181011904Y-77052380D01*
X181250000Y-77052380D01*
X181392857Y-77100000D01*
X181488095Y-77195238D01*
X181535714Y-77290476D01*
X181583333Y-77480952D01*
X181583333Y-77623809D01*
X181535714Y-77814285D01*
X181488095Y-77909523D01*
X181392857Y-78004761D01*
X181250000Y-78052380D01*
X181011904Y-78052380D01*
X181916666Y-77052380D02*
X182535714Y-77052380D01*
X182202380Y-77433333D01*
X182345238Y-77433333D01*
X182440476Y-77480952D01*
X182488095Y-77528571D01*
X182535714Y-77623809D01*
X182535714Y-77861904D01*
X182488095Y-77957142D01*
X182440476Y-78004761D01*
X182345238Y-78052380D01*
X182059523Y-78052380D01*
X181964285Y-78004761D01*
X181916666Y-77957142D01*
X217271428Y-133271428D02*
X218033333Y-133271428D01*
X217652380Y-133652380D02*
X217652380Y-132890476D01*
X218985714Y-132652380D02*
X218509523Y-132652380D01*
X218461904Y-133128571D01*
X218509523Y-133080952D01*
X218604761Y-133033333D01*
X218842857Y-133033333D01*
X218938095Y-133080952D01*
X218985714Y-133128571D01*
X219033333Y-133223809D01*
X219033333Y-133461904D01*
X218985714Y-133557142D01*
X218938095Y-133604761D01*
X218842857Y-133652380D01*
X218604761Y-133652380D01*
X218509523Y-133604761D01*
X218461904Y-133557142D01*
X219319047Y-132652380D02*
X219652380Y-133652380D01*
X219985714Y-132652380D01*
X221080952Y-133271428D02*
X221842857Y-133271428D01*
X223080952Y-133652380D02*
X223080952Y-132652380D01*
X223557142Y-133652380D02*
X223557142Y-132652380D01*
X224128571Y-133652380D01*
X224128571Y-132652380D01*
X175478571Y-83580952D02*
X175526190Y-83438095D01*
X175573809Y-83390476D01*
X175669047Y-83342857D01*
X175811904Y-83342857D01*
X175907142Y-83390476D01*
X175954761Y-83438095D01*
X176002380Y-83533333D01*
X176002380Y-83914285D01*
X175002380Y-83914285D01*
X175002380Y-83580952D01*
X175050000Y-83485714D01*
X175097619Y-83438095D01*
X175192857Y-83390476D01*
X175288095Y-83390476D01*
X175383333Y-83438095D01*
X175430952Y-83485714D01*
X175478571Y-83580952D01*
X175478571Y-83914285D01*
X176002380Y-82914285D02*
X175002380Y-82914285D01*
X175716666Y-82580952D01*
X175002380Y-82247619D01*
X176002380Y-82247619D01*
X175478571Y-81771428D02*
X175478571Y-81438095D01*
X176002380Y-81295238D02*
X176002380Y-81771428D01*
X175002380Y-81771428D01*
X175002380Y-81295238D01*
X175097619Y-80914285D02*
X175050000Y-80866666D01*
X175002380Y-80771428D01*
X175002380Y-80533333D01*
X175050000Y-80438095D01*
X175097619Y-80390476D01*
X175192857Y-80342857D01*
X175288095Y-80342857D01*
X175430952Y-80390476D01*
X176002380Y-80961904D01*
X176002380Y-80342857D01*
X175430952Y-79771428D02*
X175383333Y-79866666D01*
X175335714Y-79914285D01*
X175240476Y-79961904D01*
X175192857Y-79961904D01*
X175097619Y-79914285D01*
X175050000Y-79866666D01*
X175002380Y-79771428D01*
X175002380Y-79580952D01*
X175050000Y-79485714D01*
X175097619Y-79438095D01*
X175192857Y-79390476D01*
X175240476Y-79390476D01*
X175335714Y-79438095D01*
X175383333Y-79485714D01*
X175430952Y-79580952D01*
X175430952Y-79771428D01*
X175478571Y-79866666D01*
X175526190Y-79914285D01*
X175621428Y-79961904D01*
X175811904Y-79961904D01*
X175907142Y-79914285D01*
X175954761Y-79866666D01*
X176002380Y-79771428D01*
X176002380Y-79580952D01*
X175954761Y-79485714D01*
X175907142Y-79438095D01*
X175811904Y-79390476D01*
X175621428Y-79390476D01*
X175526190Y-79438095D01*
X175478571Y-79485714D01*
X175430952Y-79580952D01*
X175002380Y-78771428D02*
X175002380Y-78676190D01*
X175050000Y-78580952D01*
X175097619Y-78533333D01*
X175192857Y-78485714D01*
X175383333Y-78438095D01*
X175621428Y-78438095D01*
X175811904Y-78485714D01*
X175907142Y-78533333D01*
X175954761Y-78580952D01*
X176002380Y-78676190D01*
X176002380Y-78771428D01*
X175954761Y-78866666D01*
X175907142Y-78914285D01*
X175811904Y-78961904D01*
X175621428Y-79009523D01*
X175383333Y-79009523D01*
X175192857Y-78961904D01*
X175097619Y-78914285D01*
X175050000Y-78866666D01*
X175002380Y-78771428D01*
X179663809Y-84932380D02*
X180282857Y-84932380D01*
X179949523Y-85313333D01*
X180092380Y-85313333D01*
X180187619Y-85360952D01*
X180235238Y-85408571D01*
X180282857Y-85503809D01*
X180282857Y-85741904D01*
X180235238Y-85837142D01*
X180187619Y-85884761D01*
X180092380Y-85932380D01*
X179806666Y-85932380D01*
X179711428Y-85884761D01*
X179663809Y-85837142D01*
X180711428Y-85837142D02*
X180759047Y-85884761D01*
X180711428Y-85932380D01*
X180663809Y-85884761D01*
X180711428Y-85837142D01*
X180711428Y-85932380D01*
X181092380Y-84932380D02*
X181711428Y-84932380D01*
X181378095Y-85313333D01*
X181520952Y-85313333D01*
X181616190Y-85360952D01*
X181663809Y-85408571D01*
X181711428Y-85503809D01*
X181711428Y-85741904D01*
X181663809Y-85837142D01*
X181616190Y-85884761D01*
X181520952Y-85932380D01*
X181235238Y-85932380D01*
X181140000Y-85884761D01*
X181092380Y-85837142D01*
X181997142Y-84932380D02*
X182330476Y-85932380D01*
X182663809Y-84932380D01*
D14*
%TO.C,J2*%
X216550000Y-74130000D02*
X216550000Y-71470000D01*
X207600000Y-74130000D02*
X206270000Y-74130000D01*
X208870000Y-74130000D02*
X208870000Y-71470000D01*
X206270000Y-74130000D02*
X206270000Y-72800000D01*
X208870000Y-71470000D02*
X216550000Y-71470000D01*
X208870000Y-74130000D02*
X216550000Y-74130000D01*
%TO.C,J1*%
X228380000Y-134455000D02*
X227050000Y-134455000D01*
X228380000Y-133125000D02*
X228380000Y-134455000D01*
X225720000Y-131855000D02*
X225720000Y-129255000D01*
X228380000Y-131855000D02*
X225720000Y-131855000D01*
X228380000Y-129255000D02*
X225720000Y-129255000D01*
X228380000Y-131855000D02*
X228380000Y-129255000D01*
%TO.C,J8*%
X218870000Y-89720000D02*
X221530000Y-89720000D01*
X218870000Y-87120000D02*
X220200000Y-87120000D01*
X221530000Y-89720000D02*
X221530000Y-97400000D01*
X218870000Y-89720000D02*
X218870000Y-97400000D01*
X218870000Y-97400000D02*
X221530000Y-97400000D01*
X218870000Y-88450000D02*
X218870000Y-87120000D01*
%TO.C,J6*%
X218870000Y-79070000D02*
X220200000Y-79070000D01*
X218870000Y-81670000D02*
X221530000Y-81670000D01*
X221530000Y-81670000D02*
X221530000Y-84270000D01*
X218870000Y-84270000D02*
X221530000Y-84270000D01*
X218870000Y-81670000D02*
X218870000Y-84270000D01*
X218870000Y-80400000D02*
X218870000Y-79070000D01*
%TO.C,J10*%
X251920000Y-112650000D02*
X251920000Y-77030000D01*
X254580000Y-112650000D02*
X251920000Y-112650000D01*
X254580000Y-77030000D02*
X251920000Y-77030000D01*
X254580000Y-112650000D02*
X254580000Y-77030000D01*
X254580000Y-113920000D02*
X254580000Y-115250000D01*
X254580000Y-115250000D02*
X253250000Y-115250000D01*
%TO.C,J5*%
X217830000Y-116530000D02*
X217830000Y-119130000D01*
X215230000Y-119130000D02*
X215230000Y-108850000D01*
X220430000Y-119130000D02*
X219100000Y-119130000D01*
X220430000Y-108850000D02*
X215230000Y-108850000D01*
X220430000Y-116530000D02*
X217830000Y-116530000D01*
X220430000Y-117800000D02*
X220430000Y-119130000D01*
X220430000Y-116530000D02*
X220430000Y-108850000D01*
X217830000Y-119130000D02*
X215230000Y-119130000D01*
%TO.C,J11*%
X223980000Y-112650000D02*
X223980000Y-77030000D01*
X226640000Y-115250000D02*
X225310000Y-115250000D01*
X226640000Y-77030000D02*
X223980000Y-77030000D01*
X226640000Y-113920000D02*
X226640000Y-115250000D01*
X226640000Y-112650000D02*
X226640000Y-77030000D01*
X226640000Y-112650000D02*
X223980000Y-112650000D01*
%TO.C,J4*%
X243725000Y-124130000D02*
X242395000Y-124130000D01*
X244995000Y-121470000D02*
X255215000Y-121470000D01*
X244995000Y-124130000D02*
X244995000Y-121470000D01*
X244995000Y-124130000D02*
X255215000Y-124130000D01*
X242395000Y-124130000D02*
X242395000Y-122800000D01*
X255215000Y-124130000D02*
X255215000Y-121470000D01*
%TO.C,J3*%
X186330000Y-78970000D02*
X186330000Y-86650000D01*
X183670000Y-78970000D02*
X183670000Y-86650000D01*
X183670000Y-86650000D02*
X186330000Y-86650000D01*
X183670000Y-77700000D02*
X183670000Y-76370000D01*
X183670000Y-76370000D02*
X185000000Y-76370000D01*
X183670000Y-78970000D02*
X186330000Y-78970000D01*
%TD*%
M02*
