  0
SECTION
  2
HEADER
  9
$ANGBASE
  50
0.0
  9
$ANGDIR
  70
1
  9
$MEASUREMENT
  70
0
  0
ENDSEC
  0
SECTION
  2
TABLES
  0
TABLE
  2
LTYPE
  70
4
  0
LTYPE
  5
40F
  2
CONTINUOUS
  70
0
  3
Solid line
  72
65
  73
0
  40
0.0
  0
LTYPE
  5
410
  2
DASHDOT
 70
0
  3
Dash Dot ____ _ ____ _
 72
65
 73
4
 40
2.0
 49
1.25
 49
-0.25
 49
0.25
 49
-0.25
  0
LTYPE
  5
411
  2
DASHED
 70
0
  3
Dashed __ __ __ __ __
 72
65
 73
2
 40
0.75
 49
0.5
 49
-0.25
  0
LTYPE
  5
43B
  2
DOTTED
 70
0
  3
Dotted .  .  .  .
 72
65
 73
2
 40
0.2
 49
0.0
 49
-0.2
  0
ENDTAB
  0
TABLE
  2
STYLE
  70
4
  0
STYLE
  2
KICAD
  70
0
  40
0
  41
1
  42
1
  50
0
  71
0
  3
isocp.shx
  0
STYLE
  2
KICADB
  70
0
  40
0
  41
1
  42
1
  50
0
  71
0
  3
isocp.shx
  0
STYLE
  2
KICADI
  70
0
  40
0
  41
1
  42
1
  50
15
  71
0
  3
isocp.shx
  0
STYLE
  2
KICADBI
  70
0
  40
0
  41
1
  42
1
  50
15
  71
0
  3
isocp.shx
  0
ENDTAB
  0
TABLE
  2
LAYER
  70
1
  0
LAYER
  2
BLACK
  70
0
  62
7
  6
CONTINUOUS
  0
ENDTAB
  0
ENDSEC
  0
SECTION
  2
ENTITIES
0
LINE
8
BLACK
6
CONTINUOUS
10
10.126
20
-5.37205
11
10.126
21
-2.69488
0
LINE
8
BLACK
6
CONTINUOUS
10
10.126
20
-2.69488
11
6.49409
21
-2.69488
0
LINE
8
BLACK
6
CONTINUOUS
10
6.49409
20
-5.37205
11
10.126
21
-5.37205
0
LINE
8
BLACK
6
CONTINUOUS
10
6.49409
20
-2.69488
11
6.49409
21
-5.37205
0
LINE
8
BLACK
6
CONTINUOUS
10
6.5906
20
-5.49607
11
6.5906
21
-5.41733
0
LINE
8
BLACK
6
CONTINUOUS
10
6.5906
20
-5.41733
11
6.60935
21
-5.41733
0
LINE
8
BLACK
6
CONTINUOUS
10
6.60935
20
-5.41733
11
6.62059
21
-5.42108
0
LINE
8
BLACK
6
CONTINUOUS
10
6.62059
20
-5.42108
11
6.62809
21
-5.42858
0
LINE
8
BLACK
6
CONTINUOUS
10
6.62809
20
-5.42858
11
6.63184
21
-5.43608
0
LINE
8
BLACK
6
CONTINUOUS
10
6.63184
20
-5.43608
11
6.63559
21
-5.45108
0
LINE
8
BLACK
6
CONTINUOUS
10
6.63559
20
-5.45108
11
6.63559
21
-5.46233
0
LINE
8
BLACK
6
CONTINUOUS
10
6.63559
20
-5.46233
11
6.63184
21
-5.47732
0
LINE
8
BLACK
6
CONTINUOUS
10
6.63184
20
-5.47732
11
6.62809
21
-5.48482
0
LINE
8
BLACK
6
CONTINUOUS
10
6.62809
20
-5.48482
11
6.62059
21
-5.49232
0
LINE
8
BLACK
6
CONTINUOUS
10
6.62059
20
-5.49232
11
6.60935
21
-5.49607
0
LINE
8
BLACK
6
CONTINUOUS
10
6.60935
20
-5.49607
11
6.5906
21
-5.49607
0
LINE
8
BLACK
6
CONTINUOUS
10
6.66934
20
-5.49607
11
6.66934
21
-5.44358
0
LINE
8
BLACK
6
CONTINUOUS
10
6.66934
20
-5.45858
11
6.67309
21
-5.45108
0
LINE
8
BLACK
6
CONTINUOUS
10
6.67309
20
-5.45108
11
6.67684
21
-5.44733
0
LINE
8
BLACK
6
CONTINUOUS
10
6.67684
20
-5.44733
11
6.68434
21
-5.44358
0
LINE
8
BLACK
6
CONTINUOUS
10
6.68434
20
-5.44358
11
6.69184
21
-5.44358
0
LINE
8
BLACK
6
CONTINUOUS
10
6.71808
20
-5.49607
11
6.71808
21
-5.44358
0
LINE
8
BLACK
6
CONTINUOUS
10
6.71808
20
-5.41733
11
6.71433
21
-5.42108
0
LINE
8
BLACK
6
CONTINUOUS
10
6.71433
20
-5.42108
11
6.71808
21
-5.42483
0
LINE
8
BLACK
6
CONTINUOUS
10
6.71808
20
-5.42483
11
6.72183
21
-5.42108
0
LINE
8
BLACK
6
CONTINUOUS
10
6.72183
20
-5.42108
11
6.71808
21
-5.41733
0
LINE
8
BLACK
6
CONTINUOUS
10
6.71808
20
-5.41733
11
6.71808
21
-5.42483
0
LINE
8
BLACK
6
CONTINUOUS
10
6.76683
20
-5.49607
11
6.75933
21
-5.49232
0
LINE
8
BLACK
6
CONTINUOUS
10
6.75933
20
-5.49232
11
6.75558
21
-5.48482
0
LINE
8
BLACK
6
CONTINUOUS
10
6.75558
20
-5.48482
11
6.75558
21
-5.41733
0
LINE
8
BLACK
6
CONTINUOUS
10
6.80807
20
-5.49607
11
6.80057
21
-5.49232
0
LINE
8
BLACK
6
CONTINUOUS
10
6.80057
20
-5.49232
11
6.79682
21
-5.48482
0
LINE
8
BLACK
6
CONTINUOUS
10
6.79682
20
-5.48482
11
6.79682
21
-5.41733
0
LINE
8
BLACK
6
CONTINUOUS
10
6.89806
20
-5.49607
11
6.89806
21
-5.41733
0
LINE
8
BLACK
6
CONTINUOUS
10
6.89806
20
-5.41733
11
6.92431
21
-5.47358
0
LINE
8
BLACK
6
CONTINUOUS
10
6.92431
20
-5.47358
11
6.95055
21
-5.41733
0
LINE
8
BLACK
6
CONTINUOUS
10
6.95055
20
-5.41733
11
6.95055
21
-5.49607
0
LINE
8
BLACK
6
CONTINUOUS
10
7.02179
20
-5.49607
11
7.02179
21
-5.45483
0
LINE
8
BLACK
6
CONTINUOUS
10
7.02179
20
-5.45483
11
7.01804
21
-5.44733
0
LINE
8
BLACK
6
CONTINUOUS
10
7.01804
20
-5.44733
11
7.01055
21
-5.44358
0
LINE
8
BLACK
6
CONTINUOUS
10
7.01055
20
-5.44358
11
6.99555
21
-5.44358
0
LINE
8
BLACK
6
CONTINUOUS
10
6.99555
20
-5.44358
11
6.98805
21
-5.44733
0
LINE
8
BLACK
6
CONTINUOUS
10
7.02179
20
-5.49232
11
7.0143
21
-5.49607
0
LINE
8
BLACK
6
CONTINUOUS
10
7.0143
20
-5.49607
11
6.99555
21
-5.49607
0
LINE
8
BLACK
6
CONTINUOUS
10
6.99555
20
-5.49607
11
6.98805
21
-5.49232
0
LINE
8
BLACK
6
CONTINUOUS
10
6.98805
20
-5.49232
11
6.9843
21
-5.48482
0
LINE
8
BLACK
6
CONTINUOUS
10
6.9843
20
-5.48482
11
6.9843
21
-5.47732
0
LINE
8
BLACK
6
CONTINUOUS
10
6.9843
20
-5.47732
11
6.98805
21
-5.46983
0
LINE
8
BLACK
6
CONTINUOUS
10
6.98805
20
-5.46983
11
6.99555
21
-5.46608
0
LINE
8
BLACK
6
CONTINUOUS
10
6.99555
20
-5.46608
11
7.0143
21
-5.46608
0
LINE
8
BLACK
6
CONTINUOUS
10
7.0143
20
-5.46608
11
7.02179
21
-5.46233
0
LINE
8
BLACK
6
CONTINUOUS
10
7.05929
20
-5.44358
11
7.05929
21
-5.52232
0
LINE
8
BLACK
6
CONTINUOUS
10
7.05929
20
-5.44733
11
7.06679
21
-5.44358
0
LINE
8
BLACK
6
CONTINUOUS
10
7.06679
20
-5.44358
11
7.08179
21
-5.44358
0
LINE
8
BLACK
6
CONTINUOUS
10
7.08179
20
-5.44358
11
7.08929
21
-5.44733
0
LINE
8
BLACK
6
CONTINUOUS
10
7.08929
20
-5.44733
11
7.09304
21
-5.45108
0
LINE
8
BLACK
6
CONTINUOUS
10
7.09304
20
-5.45108
11
7.09678
21
-5.45858
0
LINE
8
BLACK
6
CONTINUOUS
10
7.09678
20
-5.45858
11
7.09678
21
-5.48107
0
LINE
8
BLACK
6
CONTINUOUS
10
7.09678
20
-5.48107
11
7.09304
21
-5.48857
0
LINE
8
BLACK
6
CONTINUOUS
10
7.09304
20
-5.48857
11
7.08929
21
-5.49232
0
LINE
8
BLACK
6
CONTINUOUS
10
7.08929
20
-5.49232
11
7.08179
21
-5.49607
0
LINE
8
BLACK
6
CONTINUOUS
10
7.08179
20
-5.49607
11
7.06679
21
-5.49607
0
LINE
8
BLACK
6
CONTINUOUS
10
7.06679
20
-5.49607
11
7.05929
21
-5.49232
0
LINE
8
BLACK
6
CONTINUOUS
10
7.13053
20
-5.48857
11
7.13428
21
-5.49232
0
LINE
8
BLACK
6
CONTINUOUS
10
7.13428
20
-5.49232
11
7.13053
21
-5.49607
0
LINE
8
BLACK
6
CONTINUOUS
10
7.13053
20
-5.49607
11
7.12678
21
-5.49232
0
LINE
8
BLACK
6
CONTINUOUS
10
7.12678
20
-5.49232
11
7.13053
21
-5.48857
0
LINE
8
BLACK
6
CONTINUOUS
10
7.13053
20
-5.48857
11
7.13053
21
-5.49607
0
LINE
8
BLACK
6
CONTINUOUS
10
7.13053
20
-5.44733
11
7.13428
21
-5.45108
0
LINE
8
BLACK
6
CONTINUOUS
10
7.13428
20
-5.45108
11
7.13053
21
-5.45483
0
LINE
8
BLACK
6
CONTINUOUS
10
7.13053
20
-5.45483
11
7.12678
21
-5.45108
0
LINE
8
BLACK
6
CONTINUOUS
10
7.12678
20
-5.45108
11
7.13053
21
-5.44733
0
LINE
8
BLACK
6
CONTINUOUS
10
7.13053
20
-5.44733
11
7.13053
21
-5.45483
  0
ENDSEC
  0
EOF
