%FSLAX45Y45*%
G04 Gerber Fmt 4.5, Leading zero omitted, Abs format (unit mm)*
G04 Created by KiCad (PCBNEW (5.99.0-9565-gc0f3e53b52)) date 2021-04-08 11:44:06*
%MOMM*%
%LPD*%
G01*
G04 APERTURE LIST*
%TA.AperFunction,Profile*%
%ADD10C,0.050000*%
%TD*%
%ADD11C,0.200000*%
%ADD12C,0.040000*%
%ADD13C,0.100000*%
G04 APERTURE END LIST*
D10*
X25820000Y-13645000D02*
X25820000Y-6845000D01*
X25820000Y-6845000D02*
X16495000Y-6845000D01*
X16495000Y-13645000D02*
X25820000Y-13645000D01*
X16495000Y-6845000D02*
X16495000Y-13645000D01*
D11*
D12*
X21094757Y-9320131D02*
X21134757Y-9360131D01*
X21134757Y-9320131D02*
X21094757Y-9360131D01*
X21102000Y-9451000D02*
X21142000Y-9491000D01*
X21142000Y-9451000D02*
X21102000Y-9491000D01*
X21102000Y-9605000D02*
X21142000Y-9645000D01*
X21142000Y-9605000D02*
X21102000Y-9645000D01*
X21105000Y-9752000D02*
X21145000Y-9792000D01*
X21145000Y-9752000D02*
X21105000Y-9792000D01*
X21575000Y-9290000D02*
X21615000Y-9330000D01*
X21615000Y-9290000D02*
X21575000Y-9330000D01*
X21705000Y-8950000D02*
X21745000Y-8990000D01*
X21745000Y-8950000D02*
X21705000Y-8990000D01*
X21823164Y-10124836D02*
X21863164Y-10164836D01*
X21863164Y-10124836D02*
X21823164Y-10164836D01*
X21829000Y-10230000D02*
X21869000Y-10270000D01*
X21869000Y-10230000D02*
X21829000Y-10270000D01*
X22165000Y-10220000D02*
X22205000Y-10260000D01*
X22205000Y-10220000D02*
X22165000Y-10260000D01*
X22180000Y-11485000D02*
X22220000Y-11525000D01*
X22220000Y-11485000D02*
X22180000Y-11525000D01*
X22250000Y-10580000D02*
X22290000Y-10620000D01*
X22290000Y-10580000D02*
X22250000Y-10620000D01*
X22385000Y-13035000D02*
X22425000Y-13075000D01*
X22425000Y-13035000D02*
X22385000Y-13075000D01*
D13*
X18550000Y-7770000D02*
G75*
G03*
X18550000Y-7770000I-50000J0D01*
G01*
X18550000Y-8024000D02*
G75*
G03*
X18550000Y-8024000I-50000J0D01*
G01*
X18550000Y-8278000D02*
G75*
G03*
X18550000Y-8278000I-50000J0D01*
G01*
X18550000Y-8532000D02*
G75*
G03*
X18550000Y-8532000I-50000J0D01*
G01*
X20810000Y-7280000D02*
G75*
G03*
X20810000Y-7280000I-50000J0D01*
G01*
X21064000Y-7280000D02*
G75*
G03*
X21064000Y-7280000I-50000J0D01*
G01*
X21318000Y-7280000D02*
G75*
G03*
X21318000Y-7280000I-50000J0D01*
G01*
X21572000Y-7280000D02*
G75*
G03*
X21572000Y-7280000I-50000J0D01*
G01*
X21706000Y-11018000D02*
G75*
G03*
X21706000Y-11018000I-50000J0D01*
G01*
X21706000Y-11272000D02*
G75*
G03*
X21706000Y-11272000I-50000J0D01*
G01*
X21706000Y-11526000D02*
G75*
G03*
X21706000Y-11526000I-50000J0D01*
G01*
X21706000Y-11780000D02*
G75*
G03*
X21706000Y-11780000I-50000J0D01*
G01*
X21960000Y-11018000D02*
G75*
G03*
X21960000Y-11018000I-50000J0D01*
G01*
X21960000Y-11272000D02*
G75*
G03*
X21960000Y-11272000I-50000J0D01*
G01*
X21960000Y-11526000D02*
G75*
G03*
X21960000Y-11526000I-50000J0D01*
G01*
X21960000Y-11780000D02*
G75*
G03*
X21960000Y-11780000I-50000J0D01*
G01*
X22070000Y-8040000D02*
G75*
G03*
X22070000Y-8040000I-50000J0D01*
G01*
X22070000Y-8294000D02*
G75*
G03*
X22070000Y-8294000I-50000J0D01*
G01*
X22070000Y-8845000D02*
G75*
G03*
X22070000Y-8845000I-50000J0D01*
G01*
X22070000Y-9099000D02*
G75*
G03*
X22070000Y-9099000I-50000J0D01*
G01*
X22070000Y-9353000D02*
G75*
G03*
X22070000Y-9353000I-50000J0D01*
G01*
X22070000Y-9607000D02*
G75*
G03*
X22070000Y-9607000I-50000J0D01*
G01*
X22581000Y-7836000D02*
G75*
G03*
X22581000Y-7836000I-50000J0D01*
G01*
X22581000Y-8090000D02*
G75*
G03*
X22581000Y-8090000I-50000J0D01*
G01*
X22581000Y-8344000D02*
G75*
G03*
X22581000Y-8344000I-50000J0D01*
G01*
X22581000Y-8598000D02*
G75*
G03*
X22581000Y-8598000I-50000J0D01*
G01*
X22581000Y-8852000D02*
G75*
G03*
X22581000Y-8852000I-50000J0D01*
G01*
X22581000Y-9106000D02*
G75*
G03*
X22581000Y-9106000I-50000J0D01*
G01*
X22581000Y-9360000D02*
G75*
G03*
X22581000Y-9360000I-50000J0D01*
G01*
X22581000Y-9614000D02*
G75*
G03*
X22581000Y-9614000I-50000J0D01*
G01*
X22581000Y-9868000D02*
G75*
G03*
X22581000Y-9868000I-50000J0D01*
G01*
X22581000Y-10122000D02*
G75*
G03*
X22581000Y-10122000I-50000J0D01*
G01*
X22581000Y-10376000D02*
G75*
G03*
X22581000Y-10376000I-50000J0D01*
G01*
X22581000Y-10630000D02*
G75*
G03*
X22581000Y-10630000I-50000J0D01*
G01*
X22581000Y-10884000D02*
G75*
G03*
X22581000Y-10884000I-50000J0D01*
G01*
X22581000Y-11138000D02*
G75*
G03*
X22581000Y-11138000I-50000J0D01*
G01*
X22581000Y-11392000D02*
G75*
G03*
X22581000Y-11392000I-50000J0D01*
G01*
X22755000Y-13058500D02*
G75*
G03*
X22755000Y-13058500I-50000J0D01*
G01*
X22755000Y-13312500D02*
G75*
G03*
X22755000Y-13312500I-50000J0D01*
G01*
X24422500Y-12280000D02*
G75*
G03*
X24422500Y-12280000I-50000J0D01*
G01*
X24676500Y-12280000D02*
G75*
G03*
X24676500Y-12280000I-50000J0D01*
G01*
X24930500Y-12280000D02*
G75*
G03*
X24930500Y-12280000I-50000J0D01*
G01*
X25184500Y-12280000D02*
G75*
G03*
X25184500Y-12280000I-50000J0D01*
G01*
X25375000Y-7836000D02*
G75*
G03*
X25375000Y-7836000I-50000J0D01*
G01*
X25375000Y-8090000D02*
G75*
G03*
X25375000Y-8090000I-50000J0D01*
G01*
X25375000Y-8344000D02*
G75*
G03*
X25375000Y-8344000I-50000J0D01*
G01*
X25375000Y-8598000D02*
G75*
G03*
X25375000Y-8598000I-50000J0D01*
G01*
X25375000Y-8852000D02*
G75*
G03*
X25375000Y-8852000I-50000J0D01*
G01*
X25375000Y-9106000D02*
G75*
G03*
X25375000Y-9106000I-50000J0D01*
G01*
X25375000Y-9360000D02*
G75*
G03*
X25375000Y-9360000I-50000J0D01*
G01*
X25375000Y-9614000D02*
G75*
G03*
X25375000Y-9614000I-50000J0D01*
G01*
X25375000Y-9868000D02*
G75*
G03*
X25375000Y-9868000I-50000J0D01*
G01*
X25375000Y-10122000D02*
G75*
G03*
X25375000Y-10122000I-50000J0D01*
G01*
X25375000Y-10376000D02*
G75*
G03*
X25375000Y-10376000I-50000J0D01*
G01*
X25375000Y-10630000D02*
G75*
G03*
X25375000Y-10630000I-50000J0D01*
G01*
X25375000Y-10884000D02*
G75*
G03*
X25375000Y-10884000I-50000J0D01*
G01*
X25375000Y-11138000D02*
G75*
G03*
X25375000Y-11138000I-50000J0D01*
G01*
X25375000Y-11392000D02*
G75*
G03*
X25375000Y-11392000I-50000J0D01*
G01*
X25438500Y-12280000D02*
G75*
G03*
X25438500Y-12280000I-50000J0D01*
G01*
D11*
X16750119Y-13957976D02*
X16750119Y-13757976D01*
X16797738Y-13757976D01*
X16826310Y-13767500D01*
X16845357Y-13786548D01*
X16854881Y-13805595D01*
X16864405Y-13843690D01*
X16864405Y-13872262D01*
X16854881Y-13910357D01*
X16845357Y-13929405D01*
X16826310Y-13948452D01*
X16797738Y-13957976D01*
X16750119Y-13957976D01*
X16950119Y-13957976D02*
X16950119Y-13824643D01*
X16950119Y-13862738D02*
X16959643Y-13843690D01*
X16969167Y-13834167D01*
X16988214Y-13824643D01*
X17007262Y-13824643D01*
X17073929Y-13957976D02*
X17073929Y-13824643D01*
X17073929Y-13757976D02*
X17064405Y-13767500D01*
X17073929Y-13777024D01*
X17083452Y-13767500D01*
X17073929Y-13757976D01*
X17073929Y-13777024D01*
X17197738Y-13957976D02*
X17178690Y-13948452D01*
X17169167Y-13929405D01*
X17169167Y-13757976D01*
X17302500Y-13957976D02*
X17283452Y-13948452D01*
X17273929Y-13929405D01*
X17273929Y-13757976D01*
X17531071Y-13957976D02*
X17531071Y-13757976D01*
X17597738Y-13900833D01*
X17664405Y-13757976D01*
X17664405Y-13957976D01*
X17845357Y-13957976D02*
X17845357Y-13853214D01*
X17835833Y-13834167D01*
X17816786Y-13824643D01*
X17778690Y-13824643D01*
X17759643Y-13834167D01*
X17845357Y-13948452D02*
X17826310Y-13957976D01*
X17778690Y-13957976D01*
X17759643Y-13948452D01*
X17750119Y-13929405D01*
X17750119Y-13910357D01*
X17759643Y-13891309D01*
X17778690Y-13881786D01*
X17826310Y-13881786D01*
X17845357Y-13872262D01*
X17940595Y-13824643D02*
X17940595Y-14024643D01*
X17940595Y-13834167D02*
X17959643Y-13824643D01*
X17997738Y-13824643D01*
X18016786Y-13834167D01*
X18026310Y-13843690D01*
X18035833Y-13862738D01*
X18035833Y-13919881D01*
X18026310Y-13938928D01*
X18016786Y-13948452D01*
X17997738Y-13957976D01*
X17959643Y-13957976D01*
X17940595Y-13948452D01*
X18121548Y-13938928D02*
X18131071Y-13948452D01*
X18121548Y-13957976D01*
X18112024Y-13948452D01*
X18121548Y-13938928D01*
X18121548Y-13957976D01*
X18121548Y-13834167D02*
X18131071Y-13843690D01*
X18121548Y-13853214D01*
X18112024Y-13843690D01*
X18121548Y-13834167D01*
X18121548Y-13853214D01*
D12*
X16452500Y-14267500D02*
X16492500Y-14307500D01*
X16492500Y-14267500D02*
X16452500Y-14307500D01*
D11*
X16788214Y-14177976D02*
X16807262Y-14177976D01*
X16826310Y-14187500D01*
X16835833Y-14197024D01*
X16845357Y-14216071D01*
X16854881Y-14254167D01*
X16854881Y-14301786D01*
X16845357Y-14339881D01*
X16835833Y-14358928D01*
X16826310Y-14368452D01*
X16807262Y-14377976D01*
X16788214Y-14377976D01*
X16769167Y-14368452D01*
X16759643Y-14358928D01*
X16750119Y-14339881D01*
X16740595Y-14301786D01*
X16740595Y-14254167D01*
X16750119Y-14216071D01*
X16759643Y-14197024D01*
X16769167Y-14187500D01*
X16788214Y-14177976D01*
X16940595Y-14358928D02*
X16950119Y-14368452D01*
X16940595Y-14377976D01*
X16931071Y-14368452D01*
X16940595Y-14358928D01*
X16940595Y-14377976D01*
X17121548Y-14244643D02*
X17121548Y-14377976D01*
X17073929Y-14168452D02*
X17026310Y-14311309D01*
X17150119Y-14311309D01*
X17264405Y-14177976D02*
X17283452Y-14177976D01*
X17302500Y-14187500D01*
X17312024Y-14197024D01*
X17321548Y-14216071D01*
X17331071Y-14254167D01*
X17331071Y-14301786D01*
X17321548Y-14339881D01*
X17312024Y-14358928D01*
X17302500Y-14368452D01*
X17283452Y-14377976D01*
X17264405Y-14377976D01*
X17245357Y-14368452D01*
X17235833Y-14358928D01*
X17226310Y-14339881D01*
X17216786Y-14301786D01*
X17216786Y-14254167D01*
X17226310Y-14216071D01*
X17235833Y-14197024D01*
X17245357Y-14187500D01*
X17264405Y-14177976D01*
X17454881Y-14177976D02*
X17473929Y-14177976D01*
X17492976Y-14187500D01*
X17502500Y-14197024D01*
X17512024Y-14216071D01*
X17521548Y-14254167D01*
X17521548Y-14301786D01*
X17512024Y-14339881D01*
X17502500Y-14358928D01*
X17492976Y-14368452D01*
X17473929Y-14377976D01*
X17454881Y-14377976D01*
X17435833Y-14368452D01*
X17426310Y-14358928D01*
X17416786Y-14339881D01*
X17407262Y-14301786D01*
X17407262Y-14254167D01*
X17416786Y-14216071D01*
X17426310Y-14197024D01*
X17435833Y-14187500D01*
X17454881Y-14177976D01*
X17607262Y-14377976D02*
X17607262Y-14244643D01*
X17607262Y-14263690D02*
X17616786Y-14254167D01*
X17635833Y-14244643D01*
X17664405Y-14244643D01*
X17683452Y-14254167D01*
X17692976Y-14273214D01*
X17692976Y-14377976D01*
X17692976Y-14273214D02*
X17702500Y-14254167D01*
X17721548Y-14244643D01*
X17750119Y-14244643D01*
X17769167Y-14254167D01*
X17778690Y-14273214D01*
X17778690Y-14377976D01*
X17873929Y-14377976D02*
X17873929Y-14244643D01*
X17873929Y-14263690D02*
X17883452Y-14254167D01*
X17902500Y-14244643D01*
X17931071Y-14244643D01*
X17950119Y-14254167D01*
X17959643Y-14273214D01*
X17959643Y-14377976D01*
X17959643Y-14273214D02*
X17969167Y-14254167D01*
X17988214Y-14244643D01*
X18016786Y-14244643D01*
X18035833Y-14254167D01*
X18045357Y-14273214D01*
X18045357Y-14377976D01*
X18435833Y-14168452D02*
X18264405Y-14425595D01*
X18692976Y-14177976D02*
X18712024Y-14177976D01*
X18731071Y-14187500D01*
X18740595Y-14197024D01*
X18750119Y-14216071D01*
X18759643Y-14254167D01*
X18759643Y-14301786D01*
X18750119Y-14339881D01*
X18740595Y-14358928D01*
X18731071Y-14368452D01*
X18712024Y-14377976D01*
X18692976Y-14377976D01*
X18673929Y-14368452D01*
X18664405Y-14358928D01*
X18654881Y-14339881D01*
X18645357Y-14301786D01*
X18645357Y-14254167D01*
X18654881Y-14216071D01*
X18664405Y-14197024D01*
X18673929Y-14187500D01*
X18692976Y-14177976D01*
X18845357Y-14358928D02*
X18854881Y-14368452D01*
X18845357Y-14377976D01*
X18835833Y-14368452D01*
X18845357Y-14358928D01*
X18845357Y-14377976D01*
X18978690Y-14177976D02*
X18997738Y-14177976D01*
X19016786Y-14187500D01*
X19026310Y-14197024D01*
X19035833Y-14216071D01*
X19045357Y-14254167D01*
X19045357Y-14301786D01*
X19035833Y-14339881D01*
X19026310Y-14358928D01*
X19016786Y-14368452D01*
X18997738Y-14377976D01*
X18978690Y-14377976D01*
X18959643Y-14368452D01*
X18950119Y-14358928D01*
X18940595Y-14339881D01*
X18931071Y-14301786D01*
X18931071Y-14254167D01*
X18940595Y-14216071D01*
X18950119Y-14197024D01*
X18959643Y-14187500D01*
X18978690Y-14177976D01*
X19235833Y-14377976D02*
X19121548Y-14377976D01*
X19178690Y-14377976D02*
X19178690Y-14177976D01*
X19159643Y-14206548D01*
X19140595Y-14225595D01*
X19121548Y-14235119D01*
X19416786Y-14177976D02*
X19321548Y-14177976D01*
X19312024Y-14273214D01*
X19321548Y-14263690D01*
X19340595Y-14254167D01*
X19388214Y-14254167D01*
X19407262Y-14263690D01*
X19416786Y-14273214D01*
X19426310Y-14292262D01*
X19426310Y-14339881D01*
X19416786Y-14358928D01*
X19407262Y-14368452D01*
X19388214Y-14377976D01*
X19340595Y-14377976D01*
X19321548Y-14368452D01*
X19312024Y-14358928D01*
X19492976Y-14177976D02*
X19626310Y-14177976D01*
X19540595Y-14377976D01*
X19692976Y-14177976D02*
X19692976Y-14216071D01*
X19769167Y-14177976D02*
X19769167Y-14216071D01*
X20064405Y-14454167D02*
X20054881Y-14444643D01*
X20035833Y-14416071D01*
X20026310Y-14397024D01*
X20016786Y-14368452D01*
X20007262Y-14320833D01*
X20007262Y-14282738D01*
X20016786Y-14235119D01*
X20026310Y-14206548D01*
X20035833Y-14187500D01*
X20054881Y-14158928D01*
X20064405Y-14149405D01*
X20245357Y-14377976D02*
X20131071Y-14377976D01*
X20188214Y-14377976D02*
X20188214Y-14177976D01*
X20169167Y-14206548D01*
X20150119Y-14225595D01*
X20131071Y-14235119D01*
X20321548Y-14197024D02*
X20331071Y-14187500D01*
X20350119Y-14177976D01*
X20397738Y-14177976D01*
X20416786Y-14187500D01*
X20426310Y-14197024D01*
X20435833Y-14216071D01*
X20435833Y-14235119D01*
X20426310Y-14263690D01*
X20312024Y-14377976D01*
X20435833Y-14377976D01*
X20673929Y-14377976D02*
X20673929Y-14177976D01*
X20759643Y-14377976D02*
X20759643Y-14273214D01*
X20750119Y-14254167D01*
X20731071Y-14244643D01*
X20702500Y-14244643D01*
X20683452Y-14254167D01*
X20673929Y-14263690D01*
X20883452Y-14377976D02*
X20864405Y-14368452D01*
X20854881Y-14358928D01*
X20845357Y-14339881D01*
X20845357Y-14282738D01*
X20854881Y-14263690D01*
X20864405Y-14254167D01*
X20883452Y-14244643D01*
X20912024Y-14244643D01*
X20931071Y-14254167D01*
X20940595Y-14263690D01*
X20950119Y-14282738D01*
X20950119Y-14339881D01*
X20940595Y-14358928D01*
X20931071Y-14368452D01*
X20912024Y-14377976D01*
X20883452Y-14377976D01*
X21064405Y-14377976D02*
X21045357Y-14368452D01*
X21035833Y-14349405D01*
X21035833Y-14177976D01*
X21216786Y-14368452D02*
X21197738Y-14377976D01*
X21159643Y-14377976D01*
X21140595Y-14368452D01*
X21131071Y-14349405D01*
X21131071Y-14273214D01*
X21140595Y-14254167D01*
X21159643Y-14244643D01*
X21197738Y-14244643D01*
X21216786Y-14254167D01*
X21226310Y-14273214D01*
X21226310Y-14292262D01*
X21131071Y-14311309D01*
X21302500Y-14368452D02*
X21321548Y-14377976D01*
X21359643Y-14377976D01*
X21378690Y-14368452D01*
X21388214Y-14349405D01*
X21388214Y-14339881D01*
X21378690Y-14320833D01*
X21359643Y-14311309D01*
X21331071Y-14311309D01*
X21312024Y-14301786D01*
X21302500Y-14282738D01*
X21302500Y-14273214D01*
X21312024Y-14254167D01*
X21331071Y-14244643D01*
X21359643Y-14244643D01*
X21378690Y-14254167D01*
X21454881Y-14454167D02*
X21464405Y-14444643D01*
X21483452Y-14416071D01*
X21492976Y-14397024D01*
X21502500Y-14368452D01*
X21512024Y-14320833D01*
X21512024Y-14282738D01*
X21502500Y-14235119D01*
X21492976Y-14206548D01*
X21483452Y-14187500D01*
X21464405Y-14158928D01*
X21454881Y-14149405D01*
D13*
X16492500Y-14551500D02*
G75*
G03*
X16492500Y-14551500I-50000J0D01*
G01*
D11*
X16854881Y-14641976D02*
X16740595Y-14641976D01*
X16797738Y-14641976D02*
X16797738Y-14441976D01*
X16778690Y-14470548D01*
X16759643Y-14489595D01*
X16740595Y-14499119D01*
X16940595Y-14622928D02*
X16950119Y-14632452D01*
X16940595Y-14641976D01*
X16931071Y-14632452D01*
X16940595Y-14622928D01*
X16940595Y-14641976D01*
X17073929Y-14441976D02*
X17092976Y-14441976D01*
X17112024Y-14451500D01*
X17121548Y-14461024D01*
X17131071Y-14480071D01*
X17140595Y-14518167D01*
X17140595Y-14565786D01*
X17131071Y-14603881D01*
X17121548Y-14622928D01*
X17112024Y-14632452D01*
X17092976Y-14641976D01*
X17073929Y-14641976D01*
X17054881Y-14632452D01*
X17045357Y-14622928D01*
X17035833Y-14603881D01*
X17026310Y-14565786D01*
X17026310Y-14518167D01*
X17035833Y-14480071D01*
X17045357Y-14461024D01*
X17054881Y-14451500D01*
X17073929Y-14441976D01*
X17264405Y-14441976D02*
X17283452Y-14441976D01*
X17302500Y-14451500D01*
X17312024Y-14461024D01*
X17321548Y-14480071D01*
X17331071Y-14518167D01*
X17331071Y-14565786D01*
X17321548Y-14603881D01*
X17312024Y-14622928D01*
X17302500Y-14632452D01*
X17283452Y-14641976D01*
X17264405Y-14641976D01*
X17245357Y-14632452D01*
X17235833Y-14622928D01*
X17226310Y-14603881D01*
X17216786Y-14565786D01*
X17216786Y-14518167D01*
X17226310Y-14480071D01*
X17235833Y-14461024D01*
X17245357Y-14451500D01*
X17264405Y-14441976D01*
X17454881Y-14441976D02*
X17473929Y-14441976D01*
X17492976Y-14451500D01*
X17502500Y-14461024D01*
X17512024Y-14480071D01*
X17521548Y-14518167D01*
X17521548Y-14565786D01*
X17512024Y-14603881D01*
X17502500Y-14622928D01*
X17492976Y-14632452D01*
X17473929Y-14641976D01*
X17454881Y-14641976D01*
X17435833Y-14632452D01*
X17426310Y-14622928D01*
X17416786Y-14603881D01*
X17407262Y-14565786D01*
X17407262Y-14518167D01*
X17416786Y-14480071D01*
X17426310Y-14461024D01*
X17435833Y-14451500D01*
X17454881Y-14441976D01*
X17607262Y-14641976D02*
X17607262Y-14508643D01*
X17607262Y-14527690D02*
X17616786Y-14518167D01*
X17635833Y-14508643D01*
X17664405Y-14508643D01*
X17683452Y-14518167D01*
X17692976Y-14537214D01*
X17692976Y-14641976D01*
X17692976Y-14537214D02*
X17702500Y-14518167D01*
X17721548Y-14508643D01*
X17750119Y-14508643D01*
X17769167Y-14518167D01*
X17778690Y-14537214D01*
X17778690Y-14641976D01*
X17873929Y-14641976D02*
X17873929Y-14508643D01*
X17873929Y-14527690D02*
X17883452Y-14518167D01*
X17902500Y-14508643D01*
X17931071Y-14508643D01*
X17950119Y-14518167D01*
X17959643Y-14537214D01*
X17959643Y-14641976D01*
X17959643Y-14537214D02*
X17969167Y-14518167D01*
X17988214Y-14508643D01*
X18016786Y-14508643D01*
X18035833Y-14518167D01*
X18045357Y-14537214D01*
X18045357Y-14641976D01*
X18435833Y-14432452D02*
X18264405Y-14689595D01*
X18692976Y-14441976D02*
X18712024Y-14441976D01*
X18731071Y-14451500D01*
X18740595Y-14461024D01*
X18750119Y-14480071D01*
X18759643Y-14518167D01*
X18759643Y-14565786D01*
X18750119Y-14603881D01*
X18740595Y-14622928D01*
X18731071Y-14632452D01*
X18712024Y-14641976D01*
X18692976Y-14641976D01*
X18673929Y-14632452D01*
X18664405Y-14622928D01*
X18654881Y-14603881D01*
X18645357Y-14565786D01*
X18645357Y-14518167D01*
X18654881Y-14480071D01*
X18664405Y-14461024D01*
X18673929Y-14451500D01*
X18692976Y-14441976D01*
X18845357Y-14622928D02*
X18854881Y-14632452D01*
X18845357Y-14641976D01*
X18835833Y-14632452D01*
X18845357Y-14622928D01*
X18845357Y-14641976D01*
X18978690Y-14441976D02*
X18997738Y-14441976D01*
X19016786Y-14451500D01*
X19026310Y-14461024D01*
X19035833Y-14480071D01*
X19045357Y-14518167D01*
X19045357Y-14565786D01*
X19035833Y-14603881D01*
X19026310Y-14622928D01*
X19016786Y-14632452D01*
X18997738Y-14641976D01*
X18978690Y-14641976D01*
X18959643Y-14632452D01*
X18950119Y-14622928D01*
X18940595Y-14603881D01*
X18931071Y-14565786D01*
X18931071Y-14518167D01*
X18940595Y-14480071D01*
X18950119Y-14461024D01*
X18959643Y-14451500D01*
X18978690Y-14441976D01*
X19112024Y-14441976D02*
X19235833Y-14441976D01*
X19169167Y-14518167D01*
X19197738Y-14518167D01*
X19216786Y-14527690D01*
X19226310Y-14537214D01*
X19235833Y-14556262D01*
X19235833Y-14603881D01*
X19226310Y-14622928D01*
X19216786Y-14632452D01*
X19197738Y-14641976D01*
X19140595Y-14641976D01*
X19121548Y-14632452D01*
X19112024Y-14622928D01*
X19331071Y-14641976D02*
X19369167Y-14641976D01*
X19388214Y-14632452D01*
X19397738Y-14622928D01*
X19416786Y-14594357D01*
X19426310Y-14556262D01*
X19426310Y-14480071D01*
X19416786Y-14461024D01*
X19407262Y-14451500D01*
X19388214Y-14441976D01*
X19350119Y-14441976D01*
X19331071Y-14451500D01*
X19321548Y-14461024D01*
X19312024Y-14480071D01*
X19312024Y-14527690D01*
X19321548Y-14546738D01*
X19331071Y-14556262D01*
X19350119Y-14565786D01*
X19388214Y-14565786D01*
X19407262Y-14556262D01*
X19416786Y-14546738D01*
X19426310Y-14527690D01*
X19597738Y-14508643D02*
X19597738Y-14641976D01*
X19550119Y-14432452D02*
X19502500Y-14575309D01*
X19626310Y-14575309D01*
X19692976Y-14441976D02*
X19692976Y-14480071D01*
X19769167Y-14441976D02*
X19769167Y-14480071D01*
X20064405Y-14718167D02*
X20054881Y-14708643D01*
X20035833Y-14680071D01*
X20026310Y-14661024D01*
X20016786Y-14632452D01*
X20007262Y-14584833D01*
X20007262Y-14546738D01*
X20016786Y-14499119D01*
X20026310Y-14470548D01*
X20035833Y-14451500D01*
X20054881Y-14422928D01*
X20064405Y-14413405D01*
X20235833Y-14441976D02*
X20140595Y-14441976D01*
X20131071Y-14537214D01*
X20140595Y-14527690D01*
X20159643Y-14518167D01*
X20207262Y-14518167D01*
X20226310Y-14527690D01*
X20235833Y-14537214D01*
X20245357Y-14556262D01*
X20245357Y-14603881D01*
X20235833Y-14622928D01*
X20226310Y-14632452D01*
X20207262Y-14641976D01*
X20159643Y-14641976D01*
X20140595Y-14632452D01*
X20131071Y-14622928D01*
X20340595Y-14641976D02*
X20378690Y-14641976D01*
X20397738Y-14632452D01*
X20407262Y-14622928D01*
X20426310Y-14594357D01*
X20435833Y-14556262D01*
X20435833Y-14480071D01*
X20426310Y-14461024D01*
X20416786Y-14451500D01*
X20397738Y-14441976D01*
X20359643Y-14441976D01*
X20340595Y-14451500D01*
X20331071Y-14461024D01*
X20321548Y-14480071D01*
X20321548Y-14527690D01*
X20331071Y-14546738D01*
X20340595Y-14556262D01*
X20359643Y-14565786D01*
X20397738Y-14565786D01*
X20416786Y-14556262D01*
X20426310Y-14546738D01*
X20435833Y-14527690D01*
X20673929Y-14641976D02*
X20673929Y-14441976D01*
X20759643Y-14641976D02*
X20759643Y-14537214D01*
X20750119Y-14518167D01*
X20731071Y-14508643D01*
X20702500Y-14508643D01*
X20683452Y-14518167D01*
X20673929Y-14527690D01*
X20883452Y-14641976D02*
X20864405Y-14632452D01*
X20854881Y-14622928D01*
X20845357Y-14603881D01*
X20845357Y-14546738D01*
X20854881Y-14527690D01*
X20864405Y-14518167D01*
X20883452Y-14508643D01*
X20912024Y-14508643D01*
X20931071Y-14518167D01*
X20940595Y-14527690D01*
X20950119Y-14546738D01*
X20950119Y-14603881D01*
X20940595Y-14622928D01*
X20931071Y-14632452D01*
X20912024Y-14641976D01*
X20883452Y-14641976D01*
X21064405Y-14641976D02*
X21045357Y-14632452D01*
X21035833Y-14613405D01*
X21035833Y-14441976D01*
X21216786Y-14632452D02*
X21197738Y-14641976D01*
X21159643Y-14641976D01*
X21140595Y-14632452D01*
X21131071Y-14613405D01*
X21131071Y-14537214D01*
X21140595Y-14518167D01*
X21159643Y-14508643D01*
X21197738Y-14508643D01*
X21216786Y-14518167D01*
X21226310Y-14537214D01*
X21226310Y-14556262D01*
X21131071Y-14575309D01*
X21302500Y-14632452D02*
X21321548Y-14641976D01*
X21359643Y-14641976D01*
X21378690Y-14632452D01*
X21388214Y-14613405D01*
X21388214Y-14603881D01*
X21378690Y-14584833D01*
X21359643Y-14575309D01*
X21331071Y-14575309D01*
X21312024Y-14565786D01*
X21302500Y-14546738D01*
X21302500Y-14537214D01*
X21312024Y-14518167D01*
X21331071Y-14508643D01*
X21359643Y-14508643D01*
X21378690Y-14518167D01*
X21454881Y-14718167D02*
X21464405Y-14708643D01*
X21483452Y-14680071D01*
X21492976Y-14661024D01*
X21502500Y-14632452D01*
X21512024Y-14584833D01*
X21512024Y-14546738D01*
X21502500Y-14499119D01*
X21492976Y-14470548D01*
X21483452Y-14451500D01*
X21464405Y-14422928D01*
X21454881Y-14413405D01*
M02*
