  0
SECTION
  2
HEADER
  9
$ANGBASE
  50
0.0
  9
$ANGDIR
  70
1
  9
$MEASUREMENT
  70
0
  0
ENDSEC
  0
SECTION
  2
TABLES
  0
TABLE
  2
LTYPE
  70
4
  0
LTYPE
  5
40F
  2
CONTINUOUS
  70
0
  3
Solid line
  72
65
  73
0
  40
0.0
  0
LTYPE
  5
410
  2
DASHDOT
 70
0
  3
Dash Dot ____ _ ____ _
 72
65
 73
4
 40
2.0
 49
1.25
 49
-0.25
 49
0.25
 49
-0.25
  0
LTYPE
  5
411
  2
DASHED
 70
0
  3
Dashed __ __ __ __ __
 72
65
 73
2
 40
0.75
 49
0.5
 49
-0.25
  0
LTYPE
  5
43B
  2
DOTTED
 70
0
  3
Dotted .  .  .  .
 72
65
 73
2
 40
0.2
 49
0.0
 49
-0.2
  0
ENDTAB
  0
TABLE
  2
STYLE
  70
4
  0
STYLE
  2
KICAD
  70
0
  40
0
  41
1
  42
1
  50
0
  71
0
  3
isocp.shx
  0
STYLE
  2
KICADB
  70
0
  40
0
  41
1
  42
1
  50
0
  71
0
  3
isocp.shx
  0
STYLE
  2
KICADI
  70
0
  40
0
  41
1
  42
1
  50
15
  71
0
  3
isocp.shx
  0
STYLE
  2
KICADBI
  70
0
  40
0
  41
1
  42
1
  50
15
  71
0
  3
isocp.shx
  0
ENDTAB
  0
TABLE
  2
LAYER
  70
1
  0
LAYER
  2
BLACK
  70
0
  62
7
  6
CONTINUOUS
  0
ENDTAB
  0
ENDSEC
  0
SECTION
  2
ENTITIES
0
LINE
8
BLACK
6
CONTINUOUS
10
10.126
20
-5.37205
11
10.126
21
-2.69488
0
LINE
8
BLACK
6
CONTINUOUS
10
10.126
20
-2.69488
11
6.49409
21
-2.69488
0
LINE
8
BLACK
6
CONTINUOUS
10
6.49409
20
-5.37205
11
10.126
21
-5.37205
0
LINE
8
BLACK
6
CONTINUOUS
10
6.49409
20
-2.69488
11
6.49409
21
-5.37205
0
LINE
8
BLACK
6
CONTINUOUS
10
6.55394
20
-4.67205
11
6.56969
21
-4.6878
0
LINE
8
BLACK
6
CONTINUOUS
10
6.56969
20
-4.67205
11
6.55394
21
-4.6878
0
LINE
8
BLACK
6
CONTINUOUS
10
6.59173
20
-3.80354
11
6.60748
21
-3.81929
0
LINE
8
BLACK
6
CONTINUOUS
10
6.60748
20
-3.80354
11
6.59173
21
-3.81929
0
LINE
8
BLACK
6
CONTINUOUS
10
6.64285
20
-4.66235
11
6.6586
21
-4.67809
0
LINE
8
BLACK
6
CONTINUOUS
10
6.6586
20
-4.66235
11
6.64285
21
-4.67809
0
LINE
8
BLACK
6
CONTINUOUS
10
6.75866
20
-4.66772
11
6.77441
21
-4.68346
0
LINE
8
BLACK
6
CONTINUOUS
10
6.77441
20
-4.66772
11
6.75866
21
-4.68346
0
LINE
8
BLACK
6
CONTINUOUS
10
6.81417
20
-5.15315
11
6.82992
21
-5.1689
0
LINE
8
BLACK
6
CONTINUOUS
10
6.82992
20
-5.15315
11
6.81417
21
-5.1689
0
LINE
8
BLACK
6
CONTINUOUS
10
6.88228
20
-4.66772
11
6.89803
21
-4.68346
0
LINE
8
BLACK
6
CONTINUOUS
10
6.89803
20
-4.66772
11
6.88228
21
-4.68346
0
LINE
8
BLACK
6
CONTINUOUS
10
6.89567
20
-5.09961
11
6.91142
21
-5.11535
0
LINE
8
BLACK
6
CONTINUOUS
10
6.91142
20
-5.09961
11
6.89567
21
-5.11535
0
LINE
8
BLACK
6
CONTINUOUS
10
6.97087
20
-4.33346
11
6.98661
21
-4.34921
0
LINE
8
BLACK
6
CONTINUOUS
10
6.98661
20
-4.33346
11
6.97087
21
-4.34921
0
LINE
8
BLACK
6
CONTINUOUS
10
6.98346
20
-4.66929
11
6.99921
21
-4.68504
0
LINE
8
BLACK
6
CONTINUOUS
10
6.99921
20
-4.66929
11
6.98346
21
-4.68504
0
LINE
8
BLACK
6
CONTINUOUS
10
7.06024
20
-4.35039
11
7.07598
21
-4.36614
0
LINE
8
BLACK
6
CONTINUOUS
10
7.07598
20
-4.35039
11
7.06024
21
-4.36614
0
LINE
8
BLACK
6
CONTINUOUS
10
7.39055
20
-2.87205
11
7.4063
21
-2.8878
0
LINE
8
BLACK
6
CONTINUOUS
10
7.4063
20
-2.87205
11
7.39055
21
-2.8878
0
LINE
8
BLACK
6
CONTINUOUS
10
7.41575
20
-3.4622
11
7.4315
21
-3.47795
0
LINE
8
BLACK
6
CONTINUOUS
10
7.4315
20
-3.4622
11
7.41575
21
-3.47795
0
LINE
8
BLACK
6
CONTINUOUS
10
7.47756
20
-3.37598
11
7.49331
21
-3.39173
0
LINE
8
BLACK
6
CONTINUOUS
10
7.49331
20
-3.37598
11
7.47756
21
-3.39173
0
LINE
8
BLACK
6
CONTINUOUS
10
7.51378
20
-3.29882
11
7.52953
21
-3.31457
0
LINE
8
BLACK
6
CONTINUOUS
10
7.52953
20
-3.29882
11
7.51378
21
-3.31457
0
LINE
8
BLACK
6
CONTINUOUS
10
7.54291
20
-3.22126
11
7.55866
21
-3.23701
0
LINE
8
BLACK
6
CONTINUOUS
10
7.55866
20
-3.22126
11
7.54291
21
-3.23701
0
LINE
8
BLACK
6
CONTINUOUS
10
7.64921
20
-3.81496
11
7.66496
21
-3.83071
0
LINE
8
BLACK
6
CONTINUOUS
10
7.66496
20
-3.81496
11
7.64921
21
-3.83071
0
LINE
8
BLACK
6
CONTINUOUS
10
7.74803
20
-3.24252
11
7.76378
21
-3.25827
0
LINE
8
BLACK
6
CONTINUOUS
10
7.76378
20
-3.24252
11
7.74803
21
-3.25827
0
LINE
8
BLACK
6
CONTINUOUS
10
7.84803
20
-3.24213
11
7.86378
21
-3.25787
0
LINE
8
BLACK
6
CONTINUOUS
10
7.86378
20
-3.24213
11
7.84803
21
-3.25787
0
LINE
8
BLACK
6
CONTINUOUS
10
7.88071
20
-3.66654
11
7.89646
21
-3.68228
0
LINE
8
BLACK
6
CONTINUOUS
10
7.89646
20
-3.66654
11
7.88071
21
-3.68228
0
LINE
8
BLACK
6
CONTINUOUS
10
7.88858
20
-3.6063
11
7.90433
21
-3.62205
0
LINE
8
BLACK
6
CONTINUOUS
10
7.90433
20
-3.6063
11
7.88858
21
-3.62205
0
LINE
8
BLACK
6
CONTINUOUS
10
7.89646
20
-3.53386
11
7.9122
21
-3.54961
0
LINE
8
BLACK
6
CONTINUOUS
10
7.9122
20
-3.53386
11
7.89646
21
-3.54961
0
LINE
8
BLACK
6
CONTINUOUS
10
7.89882
20
-3.47795
11
7.91457
21
-3.4937
0
LINE
8
BLACK
6
CONTINUOUS
10
7.91457
20
-3.47795
11
7.89882
21
-3.4937
0
LINE
8
BLACK
6
CONTINUOUS
10
7.95157
20
-3.24173
11
7.96732
21
-3.25748
0
LINE
8
BLACK
6
CONTINUOUS
10
7.96732
20
-3.24173
11
7.95157
21
-3.25748
0
LINE
8
BLACK
6
CONTINUOUS
10
8.03917
20
-3.33012
11
8.05492
21
-3.34587
0
LINE
8
BLACK
6
CONTINUOUS
10
8.05492
20
-3.33012
11
8.03917
21
-3.34587
0
LINE
8
BLACK
6
CONTINUOUS
10
8.05157
20
-3.24606
11
8.06732
21
-3.26181
0
LINE
8
BLACK
6
CONTINUOUS
10
8.06732
20
-3.24606
11
8.05157
21
-3.26181
0
LINE
8
BLACK
6
CONTINUOUS
10
8.29843
20
-2.94409
11
8.31417
21
-2.95984
0
LINE
8
BLACK
6
CONTINUOUS
10
8.31417
20
-2.94409
11
8.29843
21
-2.95984
0
LINE
8
BLACK
6
CONTINUOUS
10
8.50236
20
-4.16969
11
8.51811
21
-4.18543
0
LINE
8
BLACK
6
CONTINUOUS
10
8.51811
20
-4.16969
11
8.50236
21
-4.18543
0
LINE
8
BLACK
6
CONTINUOUS
10
8.59409
20
-3.89016
11
8.60984
21
-3.90591
0
LINE
8
BLACK
6
CONTINUOUS
10
8.60984
20
-3.89016
11
8.59409
21
-3.90591
0
LINE
8
BLACK
6
CONTINUOUS
10
8.59449
20
-4.14882
11
8.61024
21
-4.16457
0
LINE
8
BLACK
6
CONTINUOUS
10
8.61024
20
-4.14882
11
8.59449
21
-4.16457
0
LINE
8
BLACK
6
CONTINUOUS
10
8.60472
20
-4.92205
11
8.62047
21
-4.9378
0
LINE
8
BLACK
6
CONTINUOUS
10
8.62047
20
-4.92205
11
8.60472
21
-4.9378
0
LINE
8
BLACK
6
CONTINUOUS
10
8.67205
20
-4.10433
11
8.6878
21
-4.12008
0
LINE
8
BLACK
6
CONTINUOUS
10
8.6878
20
-4.10433
11
8.67205
21
-4.12008
0
LINE
8
BLACK
6
CONTINUOUS
10
8.70748
20
-3.9
11
8.72323
21
-3.91575
0
LINE
8
BLACK
6
CONTINUOUS
10
8.72323
20
-3.9
11
8.70748
21
-3.91575
0
LINE
8
BLACK
6
CONTINUOUS
10
8.73228
20
-4.52165
11
8.74803
21
-4.5374
0
LINE
8
BLACK
6
CONTINUOUS
10
8.74803
20
-4.52165
11
8.73228
21
-4.5374
0
LINE
8
BLACK
6
CONTINUOUS
10
8.76142
20
-3.72795
11
8.77717
21
-3.7437
0
LINE
8
BLACK
6
CONTINUOUS
10
8.77717
20
-3.72795
11
8.76142
21
-3.7437
0
LINE
8
BLACK
6
CONTINUOUS
10
8.76181
20
-3.52362
11
8.77756
21
-3.53937
0
LINE
8
BLACK
6
CONTINUOUS
10
8.77756
20
-3.52362
11
8.76181
21
-3.53937
0
LINE
8
BLACK
6
CONTINUOUS
10
8.7622
20
-3.62283
11
8.77795
21
-3.63858
0
LINE
8
BLACK
6
CONTINUOUS
10
8.77795
20
-3.62283
11
8.7622
21
-3.63858
0
LINE
8
BLACK
6
CONTINUOUS
10
8.81299
20
-5.13189
11
8.82874
21
-5.14764
0
LINE
8
BLACK
6
CONTINUOUS
10
8.82874
20
-5.13189
11
8.81299
21
-5.14764
0
LINE
8
BLACK
6
CONTINUOUS
10
8.94291
20
-3.48268
11
8.95866
21
-3.49843
0
LINE
8
BLACK
6
CONTINUOUS
10
8.95866
20
-3.48268
11
8.94291
21
-3.49843
0
LINE
8
BLACK
6
CONTINUOUS
10
8.99685
20
-4.5374
11
9.0126
21
-4.55315
0
LINE
8
BLACK
6
CONTINUOUS
10
9.0126
20
-4.5374
11
8.99685
21
-4.55315
0
LINE
8
BLACK
6
CONTINUOUS
10
9.05
20
-4.87835
11
9.06575
21
-4.89409
0
LINE
8
BLACK
6
CONTINUOUS
10
9.06575
20
-4.87835
11
9.05
21
-4.89409
0
LINE
8
BLACK
6
CONTINUOUS
10
9.22598
20
-4.9248
11
9.24173
21
-4.94055
0
LINE
8
BLACK
6
CONTINUOUS
10
9.24173
20
-4.9248
11
9.22598
21
-4.94055
0
LINE
8
BLACK
6
CONTINUOUS
10
9.37244
20
-5.20866
11
9.38819
21
-5.22441
0
LINE
8
BLACK
6
CONTINUOUS
10
9.38819
20
-5.20866
11
9.37244
21
-5.22441
0
LINE
8
BLACK
6
CONTINUOUS
10
9.39252
20
-3.57677
11
9.40827
21
-3.59252
0
LINE
8
BLACK
6
CONTINUOUS
10
9.40827
20
-3.57677
11
9.39252
21
-3.59252
0
LINE
8
BLACK
6
CONTINUOUS
10
9.46417
20
-4.07559
11
9.47992
21
-4.09134
0
LINE
8
BLACK
6
CONTINUOUS
10
9.47992
20
-4.07559
11
9.46417
21
-4.09134
0
LINE
8
BLACK
6
CONTINUOUS
10
9.54213
20
-3.89961
11
9.55787
21
-3.91535
0
LINE
8
BLACK
6
CONTINUOUS
10
9.55787
20
-3.89961
11
9.54213
21
-3.91535
0
LINE
8
BLACK
6
CONTINUOUS
10
9.63661
20
-4.3878
11
9.65236
21
-4.40354
0
LINE
8
BLACK
6
CONTINUOUS
10
9.65236
20
-4.3878
11
9.63661
21
-4.40354
0
LINE
8
BLACK
6
CONTINUOUS
10
9.70748
20
-3.19882
11
9.72323
21
-3.21457
0
LINE
8
BLACK
6
CONTINUOUS
10
9.72323
20
-3.19882
11
9.70748
21
-3.21457
0
LINE
8
BLACK
6
CONTINUOUS
10
9.72323
20
-3.30906
11
9.73898
21
-3.3248
0
LINE
8
BLACK
6
CONTINUOUS
10
9.73898
20
-3.30906
11
9.72323
21
-3.3248
0
LINE
8
BLACK
6
CONTINUOUS
10
9.72815
20
-3.9498
11
9.7439
21
-3.96555
0
LINE
8
BLACK
6
CONTINUOUS
10
9.7439
20
-3.9498
11
9.72815
21
-3.96555
0
LINE
8
BLACK
6
CONTINUOUS
10
9.73898
20
-3.49016
11
9.75472
21
-3.50591
0
LINE
8
BLACK
6
CONTINUOUS
10
9.75472
20
-3.49016
11
9.73898
21
-3.50591
0
LINE
8
BLACK
6
CONTINUOUS
10
10.0146
20
-3.34843
11
10.0303
21
-3.36417
0
LINE
8
BLACK
6
CONTINUOUS
10
10.0303
20
-3.34843
11
10.0146
21
-3.36417
0
LINE
8
BLACK
6
CONTINUOUS
10
10.0224
20
-4.00197
11
10.0382
21
-4.01772
0
LINE
8
BLACK
6
CONTINUOUS
10
10.0382
20
-4.00197
11
10.0224
21
-4.01772
0
CIRCLE
8
BLACK
10
6.69213
20
-4.96063
40
0.0137795
0
CIRCLE
8
BLACK
10
6.69213
20
-5.01063
40
0.0137795
0
CIRCLE
8
BLACK
10
6.69213
20
-5.06063
40
0.0137795
0
CIRCLE
8
BLACK
10
6.69213
20
-5.11063
40
0.0137795
0
CIRCLE
8
BLACK
10
6.69213
20
-5.16063
40
0.0137795
0
CIRCLE
8
BLACK
10
6.74213
20
-4.96063
40
0.0137795
0
CIRCLE
8
BLACK
10
6.74213
20
-5.01063
40
0.0137795
0
CIRCLE
8
BLACK
10
6.74213
20
-5.06063
40
0.0137795
0
CIRCLE
8
BLACK
10
6.74213
20
-5.11063
40
0.0137795
0
CIRCLE
8
BLACK
10
6.74213
20
-5.16063
40
0.0137795
0
LINE
8
BLACK
6
CONTINUOUS
10
7.28346
20
-3.03937
11
7.28346
21
-3.07874
0
LINE
8
BLACK
6
CONTINUOUS
10
7.26378
20
-3.05906
11
7.30315
21
-3.05906
0
LINE
8
BLACK
6
CONTINUOUS
10
7.28346
20
-3.13937
11
7.28346
21
-3.17874
0
LINE
8
BLACK
6
CONTINUOUS
10
7.26378
20
-3.15906
11
7.30315
21
-3.15906
0
LINE
8
BLACK
6
CONTINUOUS
10
7.28346
20
-3.23937
11
7.28346
21
-3.27874
0
LINE
8
BLACK
6
CONTINUOUS
10
7.26378
20
-3.25906
11
7.30315
21
-3.25906
0
LINE
8
BLACK
6
CONTINUOUS
10
7.28346
20
-3.33937
11
7.28346
21
-3.37874
0
LINE
8
BLACK
6
CONTINUOUS
10
7.26378
20
-3.35906
11
7.30315
21
-3.35906
0
LINE
8
BLACK
6
CONTINUOUS
10
7.75591
20
-2.84685
11
7.75591
21
-2.88622
0
LINE
8
BLACK
6
CONTINUOUS
10
7.73622
20
-2.86654
11
7.77559
21
-2.86654
0
LINE
8
BLACK
6
CONTINUOUS
10
7.85591
20
-2.84685
11
7.85591
21
-2.88622
0
LINE
8
BLACK
6
CONTINUOUS
10
7.83622
20
-2.86654
11
7.87559
21
-2.86654
0
LINE
8
BLACK
6
CONTINUOUS
10
7.95591
20
-2.84685
11
7.95591
21
-2.88622
0
LINE
8
BLACK
6
CONTINUOUS
10
7.93622
20
-2.86654
11
7.97559
21
-2.86654
0
LINE
8
BLACK
6
CONTINUOUS
10
8.05591
20
-2.84685
11
8.05591
21
-2.88622
0
LINE
8
BLACK
6
CONTINUOUS
10
8.03622
20
-2.86654
11
8.07559
21
-2.86654
0
LINE
8
BLACK
6
CONTINUOUS
10
8.52598
20
-4.31811
11
8.52598
21
-4.35748
0
LINE
8
BLACK
6
CONTINUOUS
10
8.5063
20
-4.3378
11
8.54567
21
-4.3378
0
LINE
8
BLACK
6
CONTINUOUS
10
8.52598
20
-4.41811
11
8.52598
21
-4.45748
0
LINE
8
BLACK
6
CONTINUOUS
10
8.5063
20
-4.4378
11
8.54567
21
-4.4378
0
LINE
8
BLACK
6
CONTINUOUS
10
8.52598
20
-4.51811
11
8.52598
21
-4.55748
0
LINE
8
BLACK
6
CONTINUOUS
10
8.5063
20
-4.5378
11
8.54567
21
-4.5378
0
LINE
8
BLACK
6
CONTINUOUS
10
8.52598
20
-4.61811
11
8.52598
21
-4.65748
0
LINE
8
BLACK
6
CONTINUOUS
10
8.5063
20
-4.6378
11
8.54567
21
-4.6378
0
LINE
8
BLACK
6
CONTINUOUS
10
8.62598
20
-4.31811
11
8.62598
21
-4.35748
0
LINE
8
BLACK
6
CONTINUOUS
10
8.6063
20
-4.3378
11
8.64567
21
-4.3378
0
LINE
8
BLACK
6
CONTINUOUS
10
8.62598
20
-4.41811
11
8.62598
21
-4.45748
0
LINE
8
BLACK
6
CONTINUOUS
10
8.6063
20
-4.4378
11
8.64567
21
-4.4378
0
LINE
8
BLACK
6
CONTINUOUS
10
8.62598
20
-4.51811
11
8.62598
21
-4.55748
0
LINE
8
BLACK
6
CONTINUOUS
10
8.6063
20
-4.5378
11
8.64567
21
-4.5378
0
LINE
8
BLACK
6
CONTINUOUS
10
8.62598
20
-4.61811
11
8.62598
21
-4.65748
0
LINE
8
BLACK
6
CONTINUOUS
10
8.6063
20
-4.6378
11
8.64567
21
-4.6378
0
LINE
8
BLACK
6
CONTINUOUS
10
8.66929
20
-3.4626
11
8.66929
21
-3.50197
0
LINE
8
BLACK
6
CONTINUOUS
10
8.64961
20
-3.48228
11
8.68898
21
-3.48228
0
LINE
8
BLACK
6
CONTINUOUS
10
8.66929
20
-3.5626
11
8.66929
21
-3.60197
0
LINE
8
BLACK
6
CONTINUOUS
10
8.64961
20
-3.58228
11
8.68898
21
-3.58228
0
LINE
8
BLACK
6
CONTINUOUS
10
8.66929
20
-3.6626
11
8.66929
21
-3.70197
0
LINE
8
BLACK
6
CONTINUOUS
10
8.64961
20
-3.68228
11
8.68898
21
-3.68228
0
LINE
8
BLACK
6
CONTINUOUS
10
8.66929
20
-3.7626
11
8.66929
21
-3.80197
0
LINE
8
BLACK
6
CONTINUOUS
10
8.64961
20
-3.78228
11
8.68898
21
-3.78228
0
LINE
8
BLACK
6
CONTINUOUS
10
8.87047
20
-3.12992
11
8.87047
21
-3.16929
0
LINE
8
BLACK
6
CONTINUOUS
10
8.85079
20
-3.14961
11
8.89016
21
-3.14961
0
LINE
8
BLACK
6
CONTINUOUS
10
8.87047
20
-3.22992
11
8.87047
21
-3.26929
0
LINE
8
BLACK
6
CONTINUOUS
10
8.85079
20
-3.24961
11
8.89016
21
-3.24961
0
LINE
8
BLACK
6
CONTINUOUS
10
8.87047
20
-3.32992
11
8.87047
21
-3.36929
0
LINE
8
BLACK
6
CONTINUOUS
10
8.85079
20
-3.34961
11
8.89016
21
-3.34961
0
LINE
8
BLACK
6
CONTINUOUS
10
8.87047
20
-3.42992
11
8.87047
21
-3.46929
0
LINE
8
BLACK
6
CONTINUOUS
10
8.85079
20
-3.44961
11
8.89016
21
-3.44961
0
LINE
8
BLACK
6
CONTINUOUS
10
8.87047
20
-3.52992
11
8.87047
21
-3.56929
0
LINE
8
BLACK
6
CONTINUOUS
10
8.85079
20
-3.54961
11
8.89016
21
-3.54961
0
LINE
8
BLACK
6
CONTINUOUS
10
8.87047
20
-3.62992
11
8.87047
21
-3.66929
0
LINE
8
BLACK
6
CONTINUOUS
10
8.85079
20
-3.64961
11
8.89016
21
-3.64961
0
LINE
8
BLACK
6
CONTINUOUS
10
8.87047
20
-3.72992
11
8.87047
21
-3.76929
0
LINE
8
BLACK
6
CONTINUOUS
10
8.85079
20
-3.74961
11
8.89016
21
-3.74961
0
LINE
8
BLACK
6
CONTINUOUS
10
8.87047
20
-3.82992
11
8.87047
21
-3.86929
0
LINE
8
BLACK
6
CONTINUOUS
10
8.85079
20
-3.84961
11
8.89016
21
-3.84961
0
LINE
8
BLACK
6
CONTINUOUS
10
8.87047
20
-3.92992
11
8.87047
21
-3.96929
0
LINE
8
BLACK
6
CONTINUOUS
10
8.85079
20
-3.94961
11
8.89016
21
-3.94961
0
LINE
8
BLACK
6
CONTINUOUS
10
8.87047
20
-4.02992
11
8.87047
21
-4.06929
0
LINE
8
BLACK
6
CONTINUOUS
10
8.85079
20
-4.04961
11
8.89016
21
-4.04961
0
LINE
8
BLACK
6
CONTINUOUS
10
8.87047
20
-4.12992
11
8.87047
21
-4.16929
0
LINE
8
BLACK
6
CONTINUOUS
10
8.85079
20
-4.14961
11
8.89016
21
-4.14961
0
LINE
8
BLACK
6
CONTINUOUS
10
8.87047
20
-4.22992
11
8.87047
21
-4.26929
0
LINE
8
BLACK
6
CONTINUOUS
10
8.85079
20
-4.24961
11
8.89016
21
-4.24961
0
LINE
8
BLACK
6
CONTINUOUS
10
8.87047
20
-4.32992
11
8.87047
21
-4.36929
0
LINE
8
BLACK
6
CONTINUOUS
10
8.85079
20
-4.34961
11
8.89016
21
-4.34961
0
LINE
8
BLACK
6
CONTINUOUS
10
8.87047
20
-4.42992
11
8.87047
21
-4.46929
0
LINE
8
BLACK
6
CONTINUOUS
10
8.85079
20
-4.44961
11
8.89016
21
-4.44961
0
LINE
8
BLACK
6
CONTINUOUS
10
8.87047
20
-4.52992
11
8.87047
21
-4.56929
0
LINE
8
BLACK
6
CONTINUOUS
10
8.85079
20
-4.54961
11
8.89016
21
-4.54961
0
LINE
8
BLACK
6
CONTINUOUS
10
8.93898
20
-5.12146
11
8.93898
21
-5.16083
0
LINE
8
BLACK
6
CONTINUOUS
10
8.91929
20
-5.14114
11
8.95866
21
-5.14114
0
LINE
8
BLACK
6
CONTINUOUS
10
8.93898
20
-5.22146
11
8.93898
21
-5.26083
0
LINE
8
BLACK
6
CONTINUOUS
10
8.91929
20
-5.24114
11
8.95866
21
-5.24114
0
LINE
8
BLACK
6
CONTINUOUS
10
9.59547
20
-4.81496
11
9.59547
21
-4.85433
0
LINE
8
BLACK
6
CONTINUOUS
10
9.57579
20
-4.83465
11
9.61516
21
-4.83465
0
LINE
8
BLACK
6
CONTINUOUS
10
9.69547
20
-4.81496
11
9.69547
21
-4.85433
0
LINE
8
BLACK
6
CONTINUOUS
10
9.67579
20
-4.83465
11
9.71516
21
-4.83465
0
LINE
8
BLACK
6
CONTINUOUS
10
9.79547
20
-4.81496
11
9.79547
21
-4.85433
0
LINE
8
BLACK
6
CONTINUOUS
10
9.77579
20
-4.83465
11
9.81516
21
-4.83465
0
LINE
8
BLACK
6
CONTINUOUS
10
9.8622
20
-3.12992
11
9.8622
21
-3.16929
0
LINE
8
BLACK
6
CONTINUOUS
10
9.84252
20
-3.14961
11
9.88189
21
-3.14961
0
LINE
8
BLACK
6
CONTINUOUS
10
9.8622
20
-3.22992
11
9.8622
21
-3.26929
0
LINE
8
BLACK
6
CONTINUOUS
10
9.84252
20
-3.24961
11
9.88189
21
-3.24961
0
LINE
8
BLACK
6
CONTINUOUS
10
9.8622
20
-3.32992
11
9.8622
21
-3.36929
0
LINE
8
BLACK
6
CONTINUOUS
10
9.84252
20
-3.34961
11
9.88189
21
-3.34961
0
LINE
8
BLACK
6
CONTINUOUS
10
9.8622
20
-3.42992
11
9.8622
21
-3.46929
0
LINE
8
BLACK
6
CONTINUOUS
10
9.84252
20
-3.44961
11
9.88189
21
-3.44961
0
LINE
8
BLACK
6
CONTINUOUS
10
9.8622
20
-3.52992
11
9.8622
21
-3.56929
0
LINE
8
BLACK
6
CONTINUOUS
10
9.84252
20
-3.54961
11
9.88189
21
-3.54961
0
LINE
8
BLACK
6
CONTINUOUS
10
9.8622
20
-3.62992
11
9.8622
21
-3.66929
0
LINE
8
BLACK
6
CONTINUOUS
10
9.84252
20
-3.64961
11
9.88189
21
-3.64961
0
LINE
8
BLACK
6
CONTINUOUS
10
9.8622
20
-3.72992
11
9.8622
21
-3.76929
0
LINE
8
BLACK
6
CONTINUOUS
10
9.84252
20
-3.74961
11
9.88189
21
-3.74961
0
LINE
8
BLACK
6
CONTINUOUS
10
9.8622
20
-3.82992
11
9.8622
21
-3.86929
0
LINE
8
BLACK
6
CONTINUOUS
10
9.84252
20
-3.84961
11
9.88189
21
-3.84961
0
LINE
8
BLACK
6
CONTINUOUS
10
9.8622
20
-3.92992
11
9.8622
21
-3.96929
0
LINE
8
BLACK
6
CONTINUOUS
10
9.84252
20
-3.94961
11
9.88189
21
-3.94961
0
LINE
8
BLACK
6
CONTINUOUS
10
9.8622
20
-4.02992
11
9.8622
21
-4.06929
0
LINE
8
BLACK
6
CONTINUOUS
10
9.84252
20
-4.04961
11
9.88189
21
-4.04961
0
LINE
8
BLACK
6
CONTINUOUS
10
9.8622
20
-4.12992
11
9.8622
21
-4.16929
0
LINE
8
BLACK
6
CONTINUOUS
10
9.84252
20
-4.14961
11
9.88189
21
-4.14961
0
LINE
8
BLACK
6
CONTINUOUS
10
9.8622
20
-4.22992
11
9.8622
21
-4.26929
0
LINE
8
BLACK
6
CONTINUOUS
10
9.84252
20
-4.24961
11
9.88189
21
-4.24961
0
LINE
8
BLACK
6
CONTINUOUS
10
9.8622
20
-4.32992
11
9.8622
21
-4.36929
0
LINE
8
BLACK
6
CONTINUOUS
10
9.84252
20
-4.34961
11
9.88189
21
-4.34961
0
LINE
8
BLACK
6
CONTINUOUS
10
9.8622
20
-4.42992
11
9.8622
21
-4.46929
0
LINE
8
BLACK
6
CONTINUOUS
10
9.84252
20
-4.44961
11
9.88189
21
-4.44961
0
LINE
8
BLACK
6
CONTINUOUS
10
9.8622
20
-4.52992
11
9.8622
21
-4.56929
0
LINE
8
BLACK
6
CONTINUOUS
10
9.84252
20
-4.54961
11
9.88189
21
-4.54961
0
LINE
8
BLACK
6
CONTINUOUS
10
9.89547
20
-4.81496
11
9.89547
21
-4.85433
0
LINE
8
BLACK
6
CONTINUOUS
10
9.87579
20
-4.83465
11
9.91516
21
-4.83465
0
LINE
8
BLACK
6
CONTINUOUS
10
9.99547
20
-4.81496
11
9.99547
21
-4.85433
0
LINE
8
BLACK
6
CONTINUOUS
10
9.97579
20
-4.83465
11
10.0152
21
-4.83465
0
LINE
8
BLACK
6
CONTINUOUS
10
6.5906
20
-5.49607
11
6.5906
21
-5.41733
0
LINE
8
BLACK
6
CONTINUOUS
10
6.5906
20
-5.41733
11
6.60935
21
-5.41733
0
LINE
8
BLACK
6
CONTINUOUS
10
6.60935
20
-5.41733
11
6.62059
21
-5.42108
0
LINE
8
BLACK
6
CONTINUOUS
10
6.62059
20
-5.42108
11
6.62809
21
-5.42858
0
LINE
8
BLACK
6
CONTINUOUS
10
6.62809
20
-5.42858
11
6.63184
21
-5.43608
0
LINE
8
BLACK
6
CONTINUOUS
10
6.63184
20
-5.43608
11
6.63559
21
-5.45108
0
LINE
8
BLACK
6
CONTINUOUS
10
6.63559
20
-5.45108
11
6.63559
21
-5.46233
0
LINE
8
BLACK
6
CONTINUOUS
10
6.63559
20
-5.46233
11
6.63184
21
-5.47732
0
LINE
8
BLACK
6
CONTINUOUS
10
6.63184
20
-5.47732
11
6.62809
21
-5.48482
0
LINE
8
BLACK
6
CONTINUOUS
10
6.62809
20
-5.48482
11
6.62059
21
-5.49232
0
LINE
8
BLACK
6
CONTINUOUS
10
6.62059
20
-5.49232
11
6.60935
21
-5.49607
0
LINE
8
BLACK
6
CONTINUOUS
10
6.60935
20
-5.49607
11
6.5906
21
-5.49607
0
LINE
8
BLACK
6
CONTINUOUS
10
6.66934
20
-5.49607
11
6.66934
21
-5.44358
0
LINE
8
BLACK
6
CONTINUOUS
10
6.66934
20
-5.45858
11
6.67309
21
-5.45108
0
LINE
8
BLACK
6
CONTINUOUS
10
6.67309
20
-5.45108
11
6.67684
21
-5.44733
0
LINE
8
BLACK
6
CONTINUOUS
10
6.67684
20
-5.44733
11
6.68434
21
-5.44358
0
LINE
8
BLACK
6
CONTINUOUS
10
6.68434
20
-5.44358
11
6.69184
21
-5.44358
0
LINE
8
BLACK
6
CONTINUOUS
10
6.71808
20
-5.49607
11
6.71808
21
-5.44358
0
LINE
8
BLACK
6
CONTINUOUS
10
6.71808
20
-5.41733
11
6.71433
21
-5.42108
0
LINE
8
BLACK
6
CONTINUOUS
10
6.71433
20
-5.42108
11
6.71808
21
-5.42483
0
LINE
8
BLACK
6
CONTINUOUS
10
6.71808
20
-5.42483
11
6.72183
21
-5.42108
0
LINE
8
BLACK
6
CONTINUOUS
10
6.72183
20
-5.42108
11
6.71808
21
-5.41733
0
LINE
8
BLACK
6
CONTINUOUS
10
6.71808
20
-5.41733
11
6.71808
21
-5.42483
0
LINE
8
BLACK
6
CONTINUOUS
10
6.76683
20
-5.49607
11
6.75933
21
-5.49232
0
LINE
8
BLACK
6
CONTINUOUS
10
6.75933
20
-5.49232
11
6.75558
21
-5.48482
0
LINE
8
BLACK
6
CONTINUOUS
10
6.75558
20
-5.48482
11
6.75558
21
-5.41733
0
LINE
8
BLACK
6
CONTINUOUS
10
6.80807
20
-5.49607
11
6.80057
21
-5.49232
0
LINE
8
BLACK
6
CONTINUOUS
10
6.80057
20
-5.49232
11
6.79682
21
-5.48482
0
LINE
8
BLACK
6
CONTINUOUS
10
6.79682
20
-5.48482
11
6.79682
21
-5.41733
0
LINE
8
BLACK
6
CONTINUOUS
10
6.89806
20
-5.49607
11
6.89806
21
-5.41733
0
LINE
8
BLACK
6
CONTINUOUS
10
6.89806
20
-5.41733
11
6.92431
21
-5.47358
0
LINE
8
BLACK
6
CONTINUOUS
10
6.92431
20
-5.47358
11
6.95055
21
-5.41733
0
LINE
8
BLACK
6
CONTINUOUS
10
6.95055
20
-5.41733
11
6.95055
21
-5.49607
0
LINE
8
BLACK
6
CONTINUOUS
10
7.02179
20
-5.49607
11
7.02179
21
-5.45483
0
LINE
8
BLACK
6
CONTINUOUS
10
7.02179
20
-5.45483
11
7.01804
21
-5.44733
0
LINE
8
BLACK
6
CONTINUOUS
10
7.01804
20
-5.44733
11
7.01055
21
-5.44358
0
LINE
8
BLACK
6
CONTINUOUS
10
7.01055
20
-5.44358
11
6.99555
21
-5.44358
0
LINE
8
BLACK
6
CONTINUOUS
10
6.99555
20
-5.44358
11
6.98805
21
-5.44733
0
LINE
8
BLACK
6
CONTINUOUS
10
7.02179
20
-5.49232
11
7.0143
21
-5.49607
0
LINE
8
BLACK
6
CONTINUOUS
10
7.0143
20
-5.49607
11
6.99555
21
-5.49607
0
LINE
8
BLACK
6
CONTINUOUS
10
6.99555
20
-5.49607
11
6.98805
21
-5.49232
0
LINE
8
BLACK
6
CONTINUOUS
10
6.98805
20
-5.49232
11
6.9843
21
-5.48482
0
LINE
8
BLACK
6
CONTINUOUS
10
6.9843
20
-5.48482
11
6.9843
21
-5.47732
0
LINE
8
BLACK
6
CONTINUOUS
10
6.9843
20
-5.47732
11
6.98805
21
-5.46983
0
LINE
8
BLACK
6
CONTINUOUS
10
6.98805
20
-5.46983
11
6.99555
21
-5.46608
0
LINE
8
BLACK
6
CONTINUOUS
10
6.99555
20
-5.46608
11
7.0143
21
-5.46608
0
LINE
8
BLACK
6
CONTINUOUS
10
7.0143
20
-5.46608
11
7.02179
21
-5.46233
0
LINE
8
BLACK
6
CONTINUOUS
10
7.05929
20
-5.44358
11
7.05929
21
-5.52232
0
LINE
8
BLACK
6
CONTINUOUS
10
7.05929
20
-5.44733
11
7.06679
21
-5.44358
0
LINE
8
BLACK
6
CONTINUOUS
10
7.06679
20
-5.44358
11
7.08179
21
-5.44358
0
LINE
8
BLACK
6
CONTINUOUS
10
7.08179
20
-5.44358
11
7.08929
21
-5.44733
0
LINE
8
BLACK
6
CONTINUOUS
10
7.08929
20
-5.44733
11
7.09304
21
-5.45108
0
LINE
8
BLACK
6
CONTINUOUS
10
7.09304
20
-5.45108
11
7.09678
21
-5.45858
0
LINE
8
BLACK
6
CONTINUOUS
10
7.09678
20
-5.45858
11
7.09678
21
-5.48107
0
LINE
8
BLACK
6
CONTINUOUS
10
7.09678
20
-5.48107
11
7.09304
21
-5.48857
0
LINE
8
BLACK
6
CONTINUOUS
10
7.09304
20
-5.48857
11
7.08929
21
-5.49232
0
LINE
8
BLACK
6
CONTINUOUS
10
7.08929
20
-5.49232
11
7.08179
21
-5.49607
0
LINE
8
BLACK
6
CONTINUOUS
10
7.08179
20
-5.49607
11
7.06679
21
-5.49607
0
LINE
8
BLACK
6
CONTINUOUS
10
7.06679
20
-5.49607
11
7.05929
21
-5.49232
0
LINE
8
BLACK
6
CONTINUOUS
10
7.13053
20
-5.48857
11
7.13428
21
-5.49232
0
LINE
8
BLACK
6
CONTINUOUS
10
7.13428
20
-5.49232
11
7.13053
21
-5.49607
0
LINE
8
BLACK
6
CONTINUOUS
10
7.13053
20
-5.49607
11
7.12678
21
-5.49232
0
LINE
8
BLACK
6
CONTINUOUS
10
7.12678
20
-5.49232
11
7.13053
21
-5.48857
0
LINE
8
BLACK
6
CONTINUOUS
10
7.13053
20
-5.48857
11
7.13053
21
-5.49607
0
LINE
8
BLACK
6
CONTINUOUS
10
7.13053
20
-5.44733
11
7.13428
21
-5.45108
0
LINE
8
BLACK
6
CONTINUOUS
10
7.13428
20
-5.45108
11
7.13053
21
-5.45483
0
LINE
8
BLACK
6
CONTINUOUS
10
7.13053
20
-5.45483
11
7.12678
21
-5.45108
0
LINE
8
BLACK
6
CONTINUOUS
10
7.12678
20
-5.45108
11
7.13053
21
-5.44733
0
LINE
8
BLACK
6
CONTINUOUS
10
7.13053
20
-5.44733
11
7.13053
21
-5.45483
0
LINE
8
BLACK
6
CONTINUOUS
10
6.47736
20
-5.61713
11
6.49311
21
-5.63287
0
LINE
8
BLACK
6
CONTINUOUS
10
6.49311
20
-5.61713
11
6.47736
21
-5.63287
0
LINE
8
BLACK
6
CONTINUOUS
10
6.6056
20
-5.58269
11
6.6131
21
-5.58269
0
LINE
8
BLACK
6
CONTINUOUS
10
6.6131
20
-5.58269
11
6.62059
21
-5.58644
0
LINE
8
BLACK
6
CONTINUOUS
10
6.62059
20
-5.58644
11
6.62434
21
-5.59019
0
LINE
8
BLACK
6
CONTINUOUS
10
6.62434
20
-5.59019
11
6.62809
21
-5.59768
0
LINE
8
BLACK
6
CONTINUOUS
10
6.62809
20
-5.59768
11
6.63184
21
-5.61268
0
LINE
8
BLACK
6
CONTINUOUS
10
6.63184
20
-5.61268
11
6.63184
21
-5.63143
0
LINE
8
BLACK
6
CONTINUOUS
10
6.63184
20
-5.63143
11
6.62809
21
-5.64643
0
LINE
8
BLACK
6
CONTINUOUS
10
6.62809
20
-5.64643
11
6.62434
21
-5.65393
0
LINE
8
BLACK
6
CONTINUOUS
10
6.62434
20
-5.65393
11
6.62059
21
-5.65768
0
LINE
8
BLACK
6
CONTINUOUS
10
6.62059
20
-5.65768
11
6.6131
21
-5.66143
0
LINE
8
BLACK
6
CONTINUOUS
10
6.6131
20
-5.66143
11
6.6056
21
-5.66143
0
LINE
8
BLACK
6
CONTINUOUS
10
6.6056
20
-5.66143
11
6.5981
21
-5.65768
0
LINE
8
BLACK
6
CONTINUOUS
10
6.5981
20
-5.65768
11
6.59435
21
-5.65393
0
LINE
8
BLACK
6
CONTINUOUS
10
6.59435
20
-5.65393
11
6.5906
21
-5.64643
0
LINE
8
BLACK
6
CONTINUOUS
10
6.5906
20
-5.64643
11
6.58685
21
-5.63143
0
LINE
8
BLACK
6
CONTINUOUS
10
6.58685
20
-5.63143
11
6.58685
21
-5.61268
0
LINE
8
BLACK
6
CONTINUOUS
10
6.58685
20
-5.61268
11
6.5906
21
-5.59768
0
LINE
8
BLACK
6
CONTINUOUS
10
6.5906
20
-5.59768
11
6.59435
21
-5.59019
0
LINE
8
BLACK
6
CONTINUOUS
10
6.59435
20
-5.59019
11
6.5981
21
-5.58644
0
LINE
8
BLACK
6
CONTINUOUS
10
6.5981
20
-5.58644
11
6.6056
21
-5.58269
0
LINE
8
BLACK
6
CONTINUOUS
10
6.66559
20
-5.65393
11
6.66934
21
-5.65768
0
LINE
8
BLACK
6
CONTINUOUS
10
6.66934
20
-5.65768
11
6.66559
21
-5.66143
0
LINE
8
BLACK
6
CONTINUOUS
10
6.66559
20
-5.66143
11
6.66184
21
-5.65768
0
LINE
8
BLACK
6
CONTINUOUS
10
6.66184
20
-5.65768
11
6.66559
21
-5.65393
0
LINE
8
BLACK
6
CONTINUOUS
10
6.66559
20
-5.65393
11
6.66559
21
-5.66143
0
LINE
8
BLACK
6
CONTINUOUS
10
6.73683
20
-5.60893
11
6.73683
21
-5.66143
0
LINE
8
BLACK
6
CONTINUOUS
10
6.71808
20
-5.57894
11
6.69933
21
-5.63518
0
LINE
8
BLACK
6
CONTINUOUS
10
6.69933
20
-5.63518
11
6.74808
21
-5.63518
0
LINE
8
BLACK
6
CONTINUOUS
10
6.79307
20
-5.58269
11
6.80057
21
-5.58269
0
LINE
8
BLACK
6
CONTINUOUS
10
6.80057
20
-5.58269
11
6.80807
21
-5.58644
0
LINE
8
BLACK
6
CONTINUOUS
10
6.80807
20
-5.58644
11
6.81182
21
-5.59019
0
LINE
8
BLACK
6
CONTINUOUS
10
6.81182
20
-5.59019
11
6.81557
21
-5.59768
0
LINE
8
BLACK
6
CONTINUOUS
10
6.81557
20
-5.59768
11
6.81932
21
-5.61268
0
LINE
8
BLACK
6
CONTINUOUS
10
6.81932
20
-5.61268
11
6.81932
21
-5.63143
0
LINE
8
BLACK
6
CONTINUOUS
10
6.81932
20
-5.63143
11
6.81557
21
-5.64643
0
LINE
8
BLACK
6
CONTINUOUS
10
6.81557
20
-5.64643
11
6.81182
21
-5.65393
0
LINE
8
BLACK
6
CONTINUOUS
10
6.81182
20
-5.65393
11
6.80807
21
-5.65768
0
LINE
8
BLACK
6
CONTINUOUS
10
6.80807
20
-5.65768
11
6.80057
21
-5.66143
0
LINE
8
BLACK
6
CONTINUOUS
10
6.80057
20
-5.66143
11
6.79307
21
-5.66143
0
LINE
8
BLACK
6
CONTINUOUS
10
6.79307
20
-5.66143
11
6.78557
21
-5.65768
0
LINE
8
BLACK
6
CONTINUOUS
10
6.78557
20
-5.65768
11
6.78182
21
-5.65393
0
LINE
8
BLACK
6
CONTINUOUS
10
6.78182
20
-5.65393
11
6.77807
21
-5.64643
0
LINE
8
BLACK
6
CONTINUOUS
10
6.77807
20
-5.64643
11
6.77433
21
-5.63143
0
LINE
8
BLACK
6
CONTINUOUS
10
6.77433
20
-5.63143
11
6.77433
21
-5.61268
0
LINE
8
BLACK
6
CONTINUOUS
10
6.77433
20
-5.61268
11
6.77807
21
-5.59768
0
LINE
8
BLACK
6
CONTINUOUS
10
6.77807
20
-5.59768
11
6.78182
21
-5.59019
0
LINE
8
BLACK
6
CONTINUOUS
10
6.78182
20
-5.59019
11
6.78557
21
-5.58644
0
LINE
8
BLACK
6
CONTINUOUS
10
6.78557
20
-5.58644
11
6.79307
21
-5.58269
0
LINE
8
BLACK
6
CONTINUOUS
10
6.86806
20
-5.58269
11
6.87556
21
-5.58269
0
LINE
8
BLACK
6
CONTINUOUS
10
6.87556
20
-5.58269
11
6.88306
21
-5.58644
0
LINE
8
BLACK
6
CONTINUOUS
10
6.88306
20
-5.58644
11
6.88681
21
-5.59019
0
LINE
8
BLACK
6
CONTINUOUS
10
6.88681
20
-5.59019
11
6.89056
21
-5.59768
0
LINE
8
BLACK
6
CONTINUOUS
10
6.89056
20
-5.59768
11
6.89431
21
-5.61268
0
LINE
8
BLACK
6
CONTINUOUS
10
6.89431
20
-5.61268
11
6.89431
21
-5.63143
0
LINE
8
BLACK
6
CONTINUOUS
10
6.89431
20
-5.63143
11
6.89056
21
-5.64643
0
LINE
8
BLACK
6
CONTINUOUS
10
6.89056
20
-5.64643
11
6.88681
21
-5.65393
0
LINE
8
BLACK
6
CONTINUOUS
10
6.88681
20
-5.65393
11
6.88306
21
-5.65768
0
LINE
8
BLACK
6
CONTINUOUS
10
6.88306
20
-5.65768
11
6.87556
21
-5.66143
0
LINE
8
BLACK
6
CONTINUOUS
10
6.87556
20
-5.66143
11
6.86806
21
-5.66143
0
LINE
8
BLACK
6
CONTINUOUS
10
6.86806
20
-5.66143
11
6.86056
21
-5.65768
0
LINE
8
BLACK
6
CONTINUOUS
10
6.86056
20
-5.65768
11
6.85681
21
-5.65393
0
LINE
8
BLACK
6
CONTINUOUS
10
6.85681
20
-5.65393
11
6.85307
21
-5.64643
0
LINE
8
BLACK
6
CONTINUOUS
10
6.85307
20
-5.64643
11
6.84932
21
-5.63143
0
LINE
8
BLACK
6
CONTINUOUS
10
6.84932
20
-5.63143
11
6.84932
21
-5.61268
0
LINE
8
BLACK
6
CONTINUOUS
10
6.84932
20
-5.61268
11
6.85307
21
-5.59768
0
LINE
8
BLACK
6
CONTINUOUS
10
6.85307
20
-5.59768
11
6.85681
21
-5.59019
0
LINE
8
BLACK
6
CONTINUOUS
10
6.85681
20
-5.59019
11
6.86056
21
-5.58644
0
LINE
8
BLACK
6
CONTINUOUS
10
6.86056
20
-5.58644
11
6.86806
21
-5.58269
0
LINE
8
BLACK
6
CONTINUOUS
10
6.92806
20
-5.66143
11
6.92806
21
-5.60893
0
LINE
8
BLACK
6
CONTINUOUS
10
6.92806
20
-5.61643
11
6.93181
21
-5.61268
0
LINE
8
BLACK
6
CONTINUOUS
10
6.93181
20
-5.61268
11
6.9393
21
-5.60893
0
LINE
8
BLACK
6
CONTINUOUS
10
6.9393
20
-5.60893
11
6.95055
21
-5.60893
0
LINE
8
BLACK
6
CONTINUOUS
10
6.95055
20
-5.60893
11
6.95805
21
-5.61268
0
LINE
8
BLACK
6
CONTINUOUS
10
6.95805
20
-5.61268
11
6.9618
21
-5.62018
0
LINE
8
BLACK
6
CONTINUOUS
10
6.9618
20
-5.62018
11
6.9618
21
-5.66143
0
LINE
8
BLACK
6
CONTINUOUS
10
6.9618
20
-5.62018
11
6.96555
21
-5.61268
0
LINE
8
BLACK
6
CONTINUOUS
10
6.96555
20
-5.61268
11
6.97305
21
-5.60893
0
LINE
8
BLACK
6
CONTINUOUS
10
6.97305
20
-5.60893
11
6.9843
21
-5.60893
0
LINE
8
BLACK
6
CONTINUOUS
10
6.9843
20
-5.60893
11
6.9918
21
-5.61268
0
LINE
8
BLACK
6
CONTINUOUS
10
6.9918
20
-5.61268
11
6.99555
21
-5.62018
0
LINE
8
BLACK
6
CONTINUOUS
10
6.99555
20
-5.62018
11
6.99555
21
-5.66143
0
LINE
8
BLACK
6
CONTINUOUS
10
7.03304
20
-5.66143
11
7.03304
21
-5.60893
0
LINE
8
BLACK
6
CONTINUOUS
10
7.03304
20
-5.61643
11
7.03679
21
-5.61268
0
LINE
8
BLACK
6
CONTINUOUS
10
7.03679
20
-5.61268
11
7.04429
21
-5.60893
0
LINE
8
BLACK
6
CONTINUOUS
10
7.04429
20
-5.60893
11
7.05554
21
-5.60893
0
LINE
8
BLACK
6
CONTINUOUS
10
7.05554
20
-5.60893
11
7.06304
21
-5.61268
0
LINE
8
BLACK
6
CONTINUOUS
10
7.06304
20
-5.61268
11
7.06679
21
-5.62018
0
LINE
8
BLACK
6
CONTINUOUS
10
7.06679
20
-5.62018
11
7.06679
21
-5.66143
0
LINE
8
BLACK
6
CONTINUOUS
10
7.06679
20
-5.62018
11
7.07054
21
-5.61268
0
LINE
8
BLACK
6
CONTINUOUS
10
7.07054
20
-5.61268
11
7.07804
21
-5.60893
0
LINE
8
BLACK
6
CONTINUOUS
10
7.07804
20
-5.60893
11
7.08929
21
-5.60893
0
LINE
8
BLACK
6
CONTINUOUS
10
7.08929
20
-5.60893
11
7.09678
21
-5.61268
0
LINE
8
BLACK
6
CONTINUOUS
10
7.09678
20
-5.61268
11
7.10053
21
-5.62018
0
LINE
8
BLACK
6
CONTINUOUS
10
7.10053
20
-5.62018
11
7.10053
21
-5.66143
0
LINE
8
BLACK
6
CONTINUOUS
10
7.25427
20
-5.57894
11
7.18677
21
-5.68017
0
LINE
8
BLACK
6
CONTINUOUS
10
7.3555
20
-5.58269
11
7.363
21
-5.58269
0
LINE
8
BLACK
6
CONTINUOUS
10
7.363
20
-5.58269
11
7.3705
21
-5.58644
0
LINE
8
BLACK
6
CONTINUOUS
10
7.3705
20
-5.58644
11
7.37425
21
-5.59019
0
LINE
8
BLACK
6
CONTINUOUS
10
7.37425
20
-5.59019
11
7.378
21
-5.59768
0
LINE
8
BLACK
6
CONTINUOUS
10
7.378
20
-5.59768
11
7.38175
21
-5.61268
0
LINE
8
BLACK
6
CONTINUOUS
10
7.38175
20
-5.61268
11
7.38175
21
-5.63143
0
LINE
8
BLACK
6
CONTINUOUS
10
7.38175
20
-5.63143
11
7.378
21
-5.64643
0
LINE
8
BLACK
6
CONTINUOUS
10
7.378
20
-5.64643
11
7.37425
21
-5.65393
0
LINE
8
BLACK
6
CONTINUOUS
10
7.37425
20
-5.65393
11
7.3705
21
-5.65768
0
LINE
8
BLACK
6
CONTINUOUS
10
7.3705
20
-5.65768
11
7.363
21
-5.66143
0
LINE
8
BLACK
6
CONTINUOUS
10
7.363
20
-5.66143
11
7.3555
21
-5.66143
0
LINE
8
BLACK
6
CONTINUOUS
10
7.3555
20
-5.66143
11
7.348
21
-5.65768
0
LINE
8
BLACK
6
CONTINUOUS
10
7.348
20
-5.65768
11
7.34425
21
-5.65393
0
LINE
8
BLACK
6
CONTINUOUS
10
7.34425
20
-5.65393
11
7.3405
21
-5.64643
0
LINE
8
BLACK
6
CONTINUOUS
10
7.3405
20
-5.64643
11
7.33675
21
-5.63143
0
LINE
8
BLACK
6
CONTINUOUS
10
7.33675
20
-5.63143
11
7.33675
21
-5.61268
0
LINE
8
BLACK
6
CONTINUOUS
10
7.33675
20
-5.61268
11
7.3405
21
-5.59768
0
LINE
8
BLACK
6
CONTINUOUS
10
7.3405
20
-5.59768
11
7.34425
21
-5.59019
0
LINE
8
BLACK
6
CONTINUOUS
10
7.34425
20
-5.59019
11
7.348
21
-5.58644
0
LINE
8
BLACK
6
CONTINUOUS
10
7.348
20
-5.58644
11
7.3555
21
-5.58269
0
LINE
8
BLACK
6
CONTINUOUS
10
7.41549
20
-5.65393
11
7.41924
21
-5.65768
0
LINE
8
BLACK
6
CONTINUOUS
10
7.41924
20
-5.65768
11
7.41549
21
-5.66143
0
LINE
8
BLACK
6
CONTINUOUS
10
7.41549
20
-5.66143
11
7.41175
21
-5.65768
0
LINE
8
BLACK
6
CONTINUOUS
10
7.41175
20
-5.65768
11
7.41549
21
-5.65393
0
LINE
8
BLACK
6
CONTINUOUS
10
7.41549
20
-5.65393
11
7.41549
21
-5.66143
0
LINE
8
BLACK
6
CONTINUOUS
10
7.46799
20
-5.58269
11
7.47549
21
-5.58269
0
LINE
8
BLACK
6
CONTINUOUS
10
7.47549
20
-5.58269
11
7.48299
21
-5.58644
0
LINE
8
BLACK
6
CONTINUOUS
10
7.48299
20
-5.58644
11
7.48674
21
-5.59019
0
LINE
8
BLACK
6
CONTINUOUS
10
7.48674
20
-5.59019
11
7.49049
21
-5.59768
0
LINE
8
BLACK
6
CONTINUOUS
10
7.49049
20
-5.59768
11
7.49424
21
-5.61268
0
LINE
8
BLACK
6
CONTINUOUS
10
7.49424
20
-5.61268
11
7.49424
21
-5.63143
0
LINE
8
BLACK
6
CONTINUOUS
10
7.49424
20
-5.63143
11
7.49049
21
-5.64643
0
LINE
8
BLACK
6
CONTINUOUS
10
7.49049
20
-5.64643
11
7.48674
21
-5.65393
0
LINE
8
BLACK
6
CONTINUOUS
10
7.48674
20
-5.65393
11
7.48299
21
-5.65768
0
LINE
8
BLACK
6
CONTINUOUS
10
7.48299
20
-5.65768
11
7.47549
21
-5.66143
0
LINE
8
BLACK
6
CONTINUOUS
10
7.47549
20
-5.66143
11
7.46799
21
-5.66143
0
LINE
8
BLACK
6
CONTINUOUS
10
7.46799
20
-5.66143
11
7.46049
21
-5.65768
0
LINE
8
BLACK
6
CONTINUOUS
10
7.46049
20
-5.65768
11
7.45674
21
-5.65393
0
LINE
8
BLACK
6
CONTINUOUS
10
7.45674
20
-5.65393
11
7.45299
21
-5.64643
0
LINE
8
BLACK
6
CONTINUOUS
10
7.45299
20
-5.64643
11
7.44924
21
-5.63143
0
LINE
8
BLACK
6
CONTINUOUS
10
7.44924
20
-5.63143
11
7.44924
21
-5.61268
0
LINE
8
BLACK
6
CONTINUOUS
10
7.44924
20
-5.61268
11
7.45299
21
-5.59768
0
LINE
8
BLACK
6
CONTINUOUS
10
7.45299
20
-5.59768
11
7.45674
21
-5.59019
0
LINE
8
BLACK
6
CONTINUOUS
10
7.45674
20
-5.59019
11
7.46049
21
-5.58644
0
LINE
8
BLACK
6
CONTINUOUS
10
7.46049
20
-5.58644
11
7.46799
21
-5.58269
0
LINE
8
BLACK
6
CONTINUOUS
10
7.56923
20
-5.66143
11
7.52423
21
-5.66143
0
LINE
8
BLACK
6
CONTINUOUS
10
7.54673
20
-5.66143
11
7.54673
21
-5.58269
0
LINE
8
BLACK
6
CONTINUOUS
10
7.54673
20
-5.58269
11
7.53923
21
-5.59394
0
LINE
8
BLACK
6
CONTINUOUS
10
7.53923
20
-5.59394
11
7.53173
21
-5.60143
0
LINE
8
BLACK
6
CONTINUOUS
10
7.53173
20
-5.60143
11
7.52423
21
-5.60518
0
LINE
8
BLACK
6
CONTINUOUS
10
7.64047
20
-5.58269
11
7.60297
21
-5.58269
0
LINE
8
BLACK
6
CONTINUOUS
10
7.60297
20
-5.58269
11
7.59922
21
-5.62018
0
LINE
8
BLACK
6
CONTINUOUS
10
7.59922
20
-5.62018
11
7.60297
21
-5.61643
0
LINE
8
BLACK
6
CONTINUOUS
10
7.60297
20
-5.61643
11
7.61047
21
-5.61268
0
LINE
8
BLACK
6
CONTINUOUS
10
7.61047
20
-5.61268
11
7.62922
21
-5.61268
0
LINE
8
BLACK
6
CONTINUOUS
10
7.62922
20
-5.61268
11
7.63672
21
-5.61643
0
LINE
8
BLACK
6
CONTINUOUS
10
7.63672
20
-5.61643
11
7.64047
21
-5.62018
0
LINE
8
BLACK
6
CONTINUOUS
10
7.64047
20
-5.62018
11
7.64422
21
-5.62768
0
LINE
8
BLACK
6
CONTINUOUS
10
7.64422
20
-5.62768
11
7.64422
21
-5.64643
0
LINE
8
BLACK
6
CONTINUOUS
10
7.64422
20
-5.64643
11
7.64047
21
-5.65393
0
LINE
8
BLACK
6
CONTINUOUS
10
7.64047
20
-5.65393
11
7.63672
21
-5.65768
0
LINE
8
BLACK
6
CONTINUOUS
10
7.63672
20
-5.65768
11
7.62922
21
-5.66143
0
LINE
8
BLACK
6
CONTINUOUS
10
7.62922
20
-5.66143
11
7.61047
21
-5.66143
0
LINE
8
BLACK
6
CONTINUOUS
10
7.61047
20
-5.66143
11
7.60297
21
-5.65768
0
LINE
8
BLACK
6
CONTINUOUS
10
7.60297
20
-5.65768
11
7.59922
21
-5.65393
0
LINE
8
BLACK
6
CONTINUOUS
10
7.67046
20
-5.58269
11
7.72296
21
-5.58269
0
LINE
8
BLACK
6
CONTINUOUS
10
7.72296
20
-5.58269
11
7.68921
21
-5.66143
0
LINE
8
BLACK
6
CONTINUOUS
10
7.7492
20
-5.58269
11
7.7492
21
-5.59768
0
LINE
8
BLACK
6
CONTINUOUS
10
7.7792
20
-5.58269
11
7.7792
21
-5.59768
0
LINE
8
BLACK
6
CONTINUOUS
10
7.89544
20
-5.69142
11
7.89169
21
-5.68767
0
LINE
8
BLACK
6
CONTINUOUS
10
7.89169
20
-5.68767
11
7.88419
21
-5.67642
0
LINE
8
BLACK
6
CONTINUOUS
10
7.88419
20
-5.67642
11
7.88044
21
-5.66893
0
LINE
8
BLACK
6
CONTINUOUS
10
7.88044
20
-5.66893
11
7.87669
21
-5.65768
0
LINE
8
BLACK
6
CONTINUOUS
10
7.87669
20
-5.65768
11
7.87294
21
-5.63893
0
LINE
8
BLACK
6
CONTINUOUS
10
7.87294
20
-5.63893
11
7.87294
21
-5.62393
0
LINE
8
BLACK
6
CONTINUOUS
10
7.87294
20
-5.62393
11
7.87669
21
-5.60518
0
LINE
8
BLACK
6
CONTINUOUS
10
7.87669
20
-5.60518
11
7.88044
21
-5.59394
0
LINE
8
BLACK
6
CONTINUOUS
10
7.88044
20
-5.59394
11
7.88419
21
-5.58644
0
LINE
8
BLACK
6
CONTINUOUS
10
7.88419
20
-5.58644
11
7.89169
21
-5.57519
0
LINE
8
BLACK
6
CONTINUOUS
10
7.89169
20
-5.57519
11
7.89544
21
-5.57144
0
LINE
8
BLACK
6
CONTINUOUS
10
7.96293
20
-5.58269
11
7.92543
21
-5.58269
0
LINE
8
BLACK
6
CONTINUOUS
10
7.92543
20
-5.58269
11
7.92168
21
-5.62018
0
LINE
8
BLACK
6
CONTINUOUS
10
7.92168
20
-5.62018
11
7.92543
21
-5.61643
0
LINE
8
BLACK
6
CONTINUOUS
10
7.92543
20
-5.61643
11
7.93293
21
-5.61268
0
LINE
8
BLACK
6
CONTINUOUS
10
7.93293
20
-5.61268
11
7.95168
21
-5.61268
0
LINE
8
BLACK
6
CONTINUOUS
10
7.95168
20
-5.61268
11
7.95918
21
-5.61643
0
LINE
8
BLACK
6
CONTINUOUS
10
7.95918
20
-5.61643
11
7.96293
21
-5.62018
0
LINE
8
BLACK
6
CONTINUOUS
10
7.96293
20
-5.62018
11
7.96668
21
-5.62768
0
LINE
8
BLACK
6
CONTINUOUS
10
7.96668
20
-5.62768
11
7.96668
21
-5.64643
0
LINE
8
BLACK
6
CONTINUOUS
10
7.96668
20
-5.64643
11
7.96293
21
-5.65393
0
LINE
8
BLACK
6
CONTINUOUS
10
7.96293
20
-5.65393
11
7.95918
21
-5.65768
0
LINE
8
BLACK
6
CONTINUOUS
10
7.95918
20
-5.65768
11
7.95168
21
-5.66143
0
LINE
8
BLACK
6
CONTINUOUS
10
7.95168
20
-5.66143
11
7.93293
21
-5.66143
0
LINE
8
BLACK
6
CONTINUOUS
10
7.93293
20
-5.66143
11
7.92543
21
-5.65768
0
LINE
8
BLACK
6
CONTINUOUS
10
7.92543
20
-5.65768
11
7.92168
21
-5.65393
0
LINE
8
BLACK
6
CONTINUOUS
10
7.99667
20
-5.59019
11
8.00042
21
-5.58644
0
LINE
8
BLACK
6
CONTINUOUS
10
8.00042
20
-5.58644
11
8.00792
21
-5.58269
0
LINE
8
BLACK
6
CONTINUOUS
10
8.00792
20
-5.58269
11
8.02667
21
-5.58269
0
LINE
8
BLACK
6
CONTINUOUS
10
8.02667
20
-5.58269
11
8.03417
21
-5.58644
0
LINE
8
BLACK
6
CONTINUOUS
10
8.03417
20
-5.58644
11
8.03792
21
-5.59019
0
LINE
8
BLACK
6
CONTINUOUS
10
8.03792
20
-5.59019
11
8.04167
21
-5.59768
0
LINE
8
BLACK
6
CONTINUOUS
10
8.04167
20
-5.59768
11
8.04167
21
-5.60518
0
LINE
8
BLACK
6
CONTINUOUS
10
8.04167
20
-5.60518
11
8.03792
21
-5.61643
0
LINE
8
BLACK
6
CONTINUOUS
10
8.03792
20
-5.61643
11
7.99292
21
-5.66143
0
LINE
8
BLACK
6
CONTINUOUS
10
7.99292
20
-5.66143
11
8.04167
21
-5.66143
0
LINE
8
BLACK
6
CONTINUOUS
10
8.13541
20
-5.66143
11
8.13541
21
-5.58269
0
LINE
8
BLACK
6
CONTINUOUS
10
8.16915
20
-5.66143
11
8.16915
21
-5.62018
0
LINE
8
BLACK
6
CONTINUOUS
10
8.16915
20
-5.62018
11
8.1654
21
-5.61268
0
LINE
8
BLACK
6
CONTINUOUS
10
8.1654
20
-5.61268
11
8.1579
21
-5.60893
0
LINE
8
BLACK
6
CONTINUOUS
10
8.1579
20
-5.60893
11
8.14665
21
-5.60893
0
LINE
8
BLACK
6
CONTINUOUS
10
8.14665
20
-5.60893
11
8.13915
21
-5.61268
0
LINE
8
BLACK
6
CONTINUOUS
10
8.13915
20
-5.61268
11
8.13541
21
-5.61643
0
LINE
8
BLACK
6
CONTINUOUS
10
8.21789
20
-5.66143
11
8.2104
21
-5.65768
0
LINE
8
BLACK
6
CONTINUOUS
10
8.2104
20
-5.65768
11
8.20665
21
-5.65393
0
LINE
8
BLACK
6
CONTINUOUS
10
8.20665
20
-5.65393
11
8.2029
21
-5.64643
0
LINE
8
BLACK
6
CONTINUOUS
10
8.2029
20
-5.64643
11
8.2029
21
-5.62393
0
LINE
8
BLACK
6
CONTINUOUS
10
8.2029
20
-5.62393
11
8.20665
21
-5.61643
0
LINE
8
BLACK
6
CONTINUOUS
10
8.20665
20
-5.61643
11
8.2104
21
-5.61268
0
LINE
8
BLACK
6
CONTINUOUS
10
8.2104
20
-5.61268
11
8.21789
21
-5.60893
0
LINE
8
BLACK
6
CONTINUOUS
10
8.21789
20
-5.60893
11
8.22914
21
-5.60893
0
LINE
8
BLACK
6
CONTINUOUS
10
8.22914
20
-5.60893
11
8.23664
21
-5.61268
0
LINE
8
BLACK
6
CONTINUOUS
10
8.23664
20
-5.61268
11
8.24039
21
-5.61643
0
LINE
8
BLACK
6
CONTINUOUS
10
8.24039
20
-5.61643
11
8.24414
21
-5.62393
0
LINE
8
BLACK
6
CONTINUOUS
10
8.24414
20
-5.62393
11
8.24414
21
-5.64643
0
LINE
8
BLACK
6
CONTINUOUS
10
8.24414
20
-5.64643
11
8.24039
21
-5.65393
0
LINE
8
BLACK
6
CONTINUOUS
10
8.24039
20
-5.65393
11
8.23664
21
-5.65768
0
LINE
8
BLACK
6
CONTINUOUS
10
8.23664
20
-5.65768
11
8.22914
21
-5.66143
0
LINE
8
BLACK
6
CONTINUOUS
10
8.22914
20
-5.66143
11
8.21789
21
-5.66143
0
LINE
8
BLACK
6
CONTINUOUS
10
8.28914
20
-5.66143
11
8.28164
21
-5.65768
0
LINE
8
BLACK
6
CONTINUOUS
10
8.28164
20
-5.65768
11
8.27789
21
-5.65018
0
LINE
8
BLACK
6
CONTINUOUS
10
8.27789
20
-5.65018
11
8.27789
21
-5.58269
0
LINE
8
BLACK
6
CONTINUOUS
10
8.34913
20
-5.65768
11
8.34163
21
-5.66143
0
LINE
8
BLACK
6
CONTINUOUS
10
8.34163
20
-5.66143
11
8.32663
21
-5.66143
0
LINE
8
BLACK
6
CONTINUOUS
10
8.32663
20
-5.66143
11
8.31913
21
-5.65768
0
LINE
8
BLACK
6
CONTINUOUS
10
8.31913
20
-5.65768
11
8.31538
21
-5.65018
0
LINE
8
BLACK
6
CONTINUOUS
10
8.31538
20
-5.65018
11
8.31538
21
-5.62018
0
LINE
8
BLACK
6
CONTINUOUS
10
8.31538
20
-5.62018
11
8.31913
21
-5.61268
0
LINE
8
BLACK
6
CONTINUOUS
10
8.31913
20
-5.61268
11
8.32663
21
-5.60893
0
LINE
8
BLACK
6
CONTINUOUS
10
8.32663
20
-5.60893
11
8.34163
21
-5.60893
0
LINE
8
BLACK
6
CONTINUOUS
10
8.34163
20
-5.60893
11
8.34913
21
-5.61268
0
LINE
8
BLACK
6
CONTINUOUS
10
8.34913
20
-5.61268
11
8.35288
21
-5.62018
0
LINE
8
BLACK
6
CONTINUOUS
10
8.35288
20
-5.62018
11
8.35288
21
-5.62768
0
LINE
8
BLACK
6
CONTINUOUS
10
8.35288
20
-5.62768
11
8.31538
21
-5.63518
0
LINE
8
BLACK
6
CONTINUOUS
10
8.38287
20
-5.65768
11
8.39037
21
-5.66143
0
LINE
8
BLACK
6
CONTINUOUS
10
8.39037
20
-5.66143
11
8.40537
21
-5.66143
0
LINE
8
BLACK
6
CONTINUOUS
10
8.40537
20
-5.66143
11
8.41287
21
-5.65768
0
LINE
8
BLACK
6
CONTINUOUS
10
8.41287
20
-5.65768
11
8.41662
21
-5.65018
0
LINE
8
BLACK
6
CONTINUOUS
10
8.41662
20
-5.65018
11
8.41662
21
-5.64643
0
LINE
8
BLACK
6
CONTINUOUS
10
8.41662
20
-5.64643
11
8.41287
21
-5.63893
0
LINE
8
BLACK
6
CONTINUOUS
10
8.41287
20
-5.63893
11
8.40537
21
-5.63518
0
LINE
8
BLACK
6
CONTINUOUS
10
8.40537
20
-5.63518
11
8.39412
21
-5.63518
0
LINE
8
BLACK
6
CONTINUOUS
10
8.39412
20
-5.63518
11
8.38662
21
-5.63143
0
LINE
8
BLACK
6
CONTINUOUS
10
8.38662
20
-5.63143
11
8.38287
21
-5.62393
0
LINE
8
BLACK
6
CONTINUOUS
10
8.38287
20
-5.62393
11
8.38287
21
-5.62018
0
LINE
8
BLACK
6
CONTINUOUS
10
8.38287
20
-5.62018
11
8.38662
21
-5.61268
0
LINE
8
BLACK
6
CONTINUOUS
10
8.38662
20
-5.61268
11
8.39412
21
-5.60893
0
LINE
8
BLACK
6
CONTINUOUS
10
8.39412
20
-5.60893
11
8.40537
21
-5.60893
0
LINE
8
BLACK
6
CONTINUOUS
10
8.40537
20
-5.60893
11
8.41287
21
-5.61268
0
LINE
8
BLACK
6
CONTINUOUS
10
8.44287
20
-5.69142
11
8.44662
21
-5.68767
0
LINE
8
BLACK
6
CONTINUOUS
10
8.44662
20
-5.68767
11
8.45412
21
-5.67642
0
LINE
8
BLACK
6
CONTINUOUS
10
8.45412
20
-5.67642
11
8.45786
21
-5.66893
0
LINE
8
BLACK
6
CONTINUOUS
10
8.45786
20
-5.66893
11
8.46161
21
-5.65768
0
LINE
8
BLACK
6
CONTINUOUS
10
8.46161
20
-5.65768
11
8.46536
21
-5.63893
0
LINE
8
BLACK
6
CONTINUOUS
10
8.46536
20
-5.63893
11
8.46536
21
-5.62393
0
LINE
8
BLACK
6
CONTINUOUS
10
8.46536
20
-5.62393
11
8.46161
21
-5.60518
0
LINE
8
BLACK
6
CONTINUOUS
10
8.46161
20
-5.60518
11
8.45786
21
-5.59394
0
LINE
8
BLACK
6
CONTINUOUS
10
8.45786
20
-5.59394
11
8.45412
21
-5.58644
0
LINE
8
BLACK
6
CONTINUOUS
10
8.45412
20
-5.58644
11
8.44662
21
-5.57519
0
LINE
8
BLACK
6
CONTINUOUS
10
8.44662
20
-5.57519
11
8.44287
21
-5.57144
0
CIRCLE
8
BLACK
10
6.47933
20
-5.72894
40
0.0137795
0
LINE
8
BLACK
6
CONTINUOUS
10
6.6056
20
-5.68662
11
6.6131
21
-5.68662
0
LINE
8
BLACK
6
CONTINUOUS
10
6.6131
20
-5.68662
11
6.62059
21
-5.69037
0
LINE
8
BLACK
6
CONTINUOUS
10
6.62059
20
-5.69037
11
6.62434
21
-5.69412
0
LINE
8
BLACK
6
CONTINUOUS
10
6.62434
20
-5.69412
11
6.62809
21
-5.70162
0
LINE
8
BLACK
6
CONTINUOUS
10
6.62809
20
-5.70162
11
6.63184
21
-5.71662
0
LINE
8
BLACK
6
CONTINUOUS
10
6.63184
20
-5.71662
11
6.63184
21
-5.73537
0
LINE
8
BLACK
6
CONTINUOUS
10
6.63184
20
-5.73537
11
6.62809
21
-5.75037
0
LINE
8
BLACK
6
CONTINUOUS
10
6.62809
20
-5.75037
11
6.62434
21
-5.75786
0
LINE
8
BLACK
6
CONTINUOUS
10
6.62434
20
-5.75786
11
6.62059
21
-5.76161
0
LINE
8
BLACK
6
CONTINUOUS
10
6.62059
20
-5.76161
11
6.6131
21
-5.76536
0
LINE
8
BLACK
6
CONTINUOUS
10
6.6131
20
-5.76536
11
6.6056
21
-5.76536
0
LINE
8
BLACK
6
CONTINUOUS
10
6.6056
20
-5.76536
11
6.5981
21
-5.76161
0
LINE
8
BLACK
6
CONTINUOUS
10
6.5981
20
-5.76161
11
6.59435
21
-5.75786
0
LINE
8
BLACK
6
CONTINUOUS
10
6.59435
20
-5.75786
11
6.5906
21
-5.75037
0
LINE
8
BLACK
6
CONTINUOUS
10
6.5906
20
-5.75037
11
6.58685
21
-5.73537
0
LINE
8
BLACK
6
CONTINUOUS
10
6.58685
20
-5.73537
11
6.58685
21
-5.71662
0
LINE
8
BLACK
6
CONTINUOUS
10
6.58685
20
-5.71662
11
6.5906
21
-5.70162
0
LINE
8
BLACK
6
CONTINUOUS
10
6.5906
20
-5.70162
11
6.59435
21
-5.69412
0
LINE
8
BLACK
6
CONTINUOUS
10
6.59435
20
-5.69412
11
6.5981
21
-5.69037
0
LINE
8
BLACK
6
CONTINUOUS
10
6.5981
20
-5.69037
11
6.6056
21
-5.68662
0
LINE
8
BLACK
6
CONTINUOUS
10
6.66559
20
-5.75786
11
6.66934
21
-5.76161
0
LINE
8
BLACK
6
CONTINUOUS
10
6.66934
20
-5.76161
11
6.66559
21
-5.76536
0
LINE
8
BLACK
6
CONTINUOUS
10
6.66559
20
-5.76536
11
6.66184
21
-5.76161
0
LINE
8
BLACK
6
CONTINUOUS
10
6.66184
20
-5.76161
11
6.66559
21
-5.75786
0
LINE
8
BLACK
6
CONTINUOUS
10
6.66559
20
-5.75786
11
6.66559
21
-5.76536
0
LINE
8
BLACK
6
CONTINUOUS
10
6.69558
20
-5.68662
11
6.74808
21
-5.68662
0
LINE
8
BLACK
6
CONTINUOUS
10
6.74808
20
-5.68662
11
6.71433
21
-5.76536
0
LINE
8
BLACK
6
CONTINUOUS
10
6.79307
20
-5.68662
11
6.80057
21
-5.68662
0
LINE
8
BLACK
6
CONTINUOUS
10
6.80057
20
-5.68662
11
6.80807
21
-5.69037
0
LINE
8
BLACK
6
CONTINUOUS
10
6.80807
20
-5.69037
11
6.81182
21
-5.69412
0
LINE
8
BLACK
6
CONTINUOUS
10
6.81182
20
-5.69412
11
6.81557
21
-5.70162
0
LINE
8
BLACK
6
CONTINUOUS
10
6.81557
20
-5.70162
11
6.81932
21
-5.71662
0
LINE
8
BLACK
6
CONTINUOUS
10
6.81932
20
-5.71662
11
6.81932
21
-5.73537
0
LINE
8
BLACK
6
CONTINUOUS
10
6.81932
20
-5.73537
11
6.81557
21
-5.75037
0
LINE
8
BLACK
6
CONTINUOUS
10
6.81557
20
-5.75037
11
6.81182
21
-5.75786
0
LINE
8
BLACK
6
CONTINUOUS
10
6.81182
20
-5.75786
11
6.80807
21
-5.76161
0
LINE
8
BLACK
6
CONTINUOUS
10
6.80807
20
-5.76161
11
6.80057
21
-5.76536
0
LINE
8
BLACK
6
CONTINUOUS
10
6.80057
20
-5.76536
11
6.79307
21
-5.76536
0
LINE
8
BLACK
6
CONTINUOUS
10
6.79307
20
-5.76536
11
6.78557
21
-5.76161
0
LINE
8
BLACK
6
CONTINUOUS
10
6.78557
20
-5.76161
11
6.78182
21
-5.75786
0
LINE
8
BLACK
6
CONTINUOUS
10
6.78182
20
-5.75786
11
6.77807
21
-5.75037
0
LINE
8
BLACK
6
CONTINUOUS
10
6.77807
20
-5.75037
11
6.77433
21
-5.73537
0
LINE
8
BLACK
6
CONTINUOUS
10
6.77433
20
-5.73537
11
6.77433
21
-5.71662
0
LINE
8
BLACK
6
CONTINUOUS
10
6.77433
20
-5.71662
11
6.77807
21
-5.70162
0
LINE
8
BLACK
6
CONTINUOUS
10
6.77807
20
-5.70162
11
6.78182
21
-5.69412
0
LINE
8
BLACK
6
CONTINUOUS
10
6.78182
20
-5.69412
11
6.78557
21
-5.69037
0
LINE
8
BLACK
6
CONTINUOUS
10
6.78557
20
-5.69037
11
6.79307
21
-5.68662
0
LINE
8
BLACK
6
CONTINUOUS
10
6.86806
20
-5.68662
11
6.87556
21
-5.68662
0
LINE
8
BLACK
6
CONTINUOUS
10
6.87556
20
-5.68662
11
6.88306
21
-5.69037
0
LINE
8
BLACK
6
CONTINUOUS
10
6.88306
20
-5.69037
11
6.88681
21
-5.69412
0
LINE
8
BLACK
6
CONTINUOUS
10
6.88681
20
-5.69412
11
6.89056
21
-5.70162
0
LINE
8
BLACK
6
CONTINUOUS
10
6.89056
20
-5.70162
11
6.89431
21
-5.71662
0
LINE
8
BLACK
6
CONTINUOUS
10
6.89431
20
-5.71662
11
6.89431
21
-5.73537
0
LINE
8
BLACK
6
CONTINUOUS
10
6.89431
20
-5.73537
11
6.89056
21
-5.75037
0
LINE
8
BLACK
6
CONTINUOUS
10
6.89056
20
-5.75037
11
6.88681
21
-5.75786
0
LINE
8
BLACK
6
CONTINUOUS
10
6.88681
20
-5.75786
11
6.88306
21
-5.76161
0
LINE
8
BLACK
6
CONTINUOUS
10
6.88306
20
-5.76161
11
6.87556
21
-5.76536
0
LINE
8
BLACK
6
CONTINUOUS
10
6.87556
20
-5.76536
11
6.86806
21
-5.76536
0
LINE
8
BLACK
6
CONTINUOUS
10
6.86806
20
-5.76536
11
6.86056
21
-5.76161
0
LINE
8
BLACK
6
CONTINUOUS
10
6.86056
20
-5.76161
11
6.85681
21
-5.75786
0
LINE
8
BLACK
6
CONTINUOUS
10
6.85681
20
-5.75786
11
6.85307
21
-5.75037
0
LINE
8
BLACK
6
CONTINUOUS
10
6.85307
20
-5.75037
11
6.84932
21
-5.73537
0
LINE
8
BLACK
6
CONTINUOUS
10
6.84932
20
-5.73537
11
6.84932
21
-5.71662
0
LINE
8
BLACK
6
CONTINUOUS
10
6.84932
20
-5.71662
11
6.85307
21
-5.70162
0
LINE
8
BLACK
6
CONTINUOUS
10
6.85307
20
-5.70162
11
6.85681
21
-5.69412
0
LINE
8
BLACK
6
CONTINUOUS
10
6.85681
20
-5.69412
11
6.86056
21
-5.69037
0
LINE
8
BLACK
6
CONTINUOUS
10
6.86056
20
-5.69037
11
6.86806
21
-5.68662
0
LINE
8
BLACK
6
CONTINUOUS
10
6.92806
20
-5.76536
11
6.92806
21
-5.71287
0
LINE
8
BLACK
6
CONTINUOUS
10
6.92806
20
-5.72037
11
6.93181
21
-5.71662
0
LINE
8
BLACK
6
CONTINUOUS
10
6.93181
20
-5.71662
11
6.9393
21
-5.71287
0
LINE
8
BLACK
6
CONTINUOUS
10
6.9393
20
-5.71287
11
6.95055
21
-5.71287
0
LINE
8
BLACK
6
CONTINUOUS
10
6.95055
20
-5.71287
11
6.95805
21
-5.71662
0
LINE
8
BLACK
6
CONTINUOUS
10
6.95805
20
-5.71662
11
6.9618
21
-5.72412
0
LINE
8
BLACK
6
CONTINUOUS
10
6.9618
20
-5.72412
11
6.9618
21
-5.76536
0
LINE
8
BLACK
6
CONTINUOUS
10
6.9618
20
-5.72412
11
6.96555
21
-5.71662
0
LINE
8
BLACK
6
CONTINUOUS
10
6.96555
20
-5.71662
11
6.97305
21
-5.71287
0
LINE
8
BLACK
6
CONTINUOUS
10
6.97305
20
-5.71287
11
6.9843
21
-5.71287
0
LINE
8
BLACK
6
CONTINUOUS
10
6.9843
20
-5.71287
11
6.9918
21
-5.71662
0
LINE
8
BLACK
6
CONTINUOUS
10
6.9918
20
-5.71662
11
6.99555
21
-5.72412
0
LINE
8
BLACK
6
CONTINUOUS
10
6.99555
20
-5.72412
11
6.99555
21
-5.76536
0
LINE
8
BLACK
6
CONTINUOUS
10
7.03304
20
-5.76536
11
7.03304
21
-5.71287
0
LINE
8
BLACK
6
CONTINUOUS
10
7.03304
20
-5.72037
11
7.03679
21
-5.71662
0
LINE
8
BLACK
6
CONTINUOUS
10
7.03679
20
-5.71662
11
7.04429
21
-5.71287
0
LINE
8
BLACK
6
CONTINUOUS
10
7.04429
20
-5.71287
11
7.05554
21
-5.71287
0
LINE
8
BLACK
6
CONTINUOUS
10
7.05554
20
-5.71287
11
7.06304
21
-5.71662
0
LINE
8
BLACK
6
CONTINUOUS
10
7.06304
20
-5.71662
11
7.06679
21
-5.72412
0
LINE
8
BLACK
6
CONTINUOUS
10
7.06679
20
-5.72412
11
7.06679
21
-5.76536
0
LINE
8
BLACK
6
CONTINUOUS
10
7.06679
20
-5.72412
11
7.07054
21
-5.71662
0
LINE
8
BLACK
6
CONTINUOUS
10
7.07054
20
-5.71662
11
7.07804
21
-5.71287
0
LINE
8
BLACK
6
CONTINUOUS
10
7.07804
20
-5.71287
11
7.08929
21
-5.71287
0
LINE
8
BLACK
6
CONTINUOUS
10
7.08929
20
-5.71287
11
7.09678
21
-5.71662
0
LINE
8
BLACK
6
CONTINUOUS
10
7.09678
20
-5.71662
11
7.10053
21
-5.72412
0
LINE
8
BLACK
6
CONTINUOUS
10
7.10053
20
-5.72412
11
7.10053
21
-5.76536
0
LINE
8
BLACK
6
CONTINUOUS
10
7.25427
20
-5.68287
11
7.18677
21
-5.78411
0
LINE
8
BLACK
6
CONTINUOUS
10
7.3555
20
-5.68662
11
7.363
21
-5.68662
0
LINE
8
BLACK
6
CONTINUOUS
10
7.363
20
-5.68662
11
7.3705
21
-5.69037
0
LINE
8
BLACK
6
CONTINUOUS
10
7.3705
20
-5.69037
11
7.37425
21
-5.69412
0
LINE
8
BLACK
6
CONTINUOUS
10
7.37425
20
-5.69412
11
7.378
21
-5.70162
0
LINE
8
BLACK
6
CONTINUOUS
10
7.378
20
-5.70162
11
7.38175
21
-5.71662
0
LINE
8
BLACK
6
CONTINUOUS
10
7.38175
20
-5.71662
11
7.38175
21
-5.73537
0
LINE
8
BLACK
6
CONTINUOUS
10
7.38175
20
-5.73537
11
7.378
21
-5.75037
0
LINE
8
BLACK
6
CONTINUOUS
10
7.378
20
-5.75037
11
7.37425
21
-5.75786
0
LINE
8
BLACK
6
CONTINUOUS
10
7.37425
20
-5.75786
11
7.3705
21
-5.76161
0
LINE
8
BLACK
6
CONTINUOUS
10
7.3705
20
-5.76161
11
7.363
21
-5.76536
0
LINE
8
BLACK
6
CONTINUOUS
10
7.363
20
-5.76536
11
7.3555
21
-5.76536
0
LINE
8
BLACK
6
CONTINUOUS
10
7.3555
20
-5.76536
11
7.348
21
-5.76161
0
LINE
8
BLACK
6
CONTINUOUS
10
7.348
20
-5.76161
11
7.34425
21
-5.75786
0
LINE
8
BLACK
6
CONTINUOUS
10
7.34425
20
-5.75786
11
7.3405
21
-5.75037
0
LINE
8
BLACK
6
CONTINUOUS
10
7.3405
20
-5.75037
11
7.33675
21
-5.73537
0
LINE
8
BLACK
6
CONTINUOUS
10
7.33675
20
-5.73537
11
7.33675
21
-5.71662
0
LINE
8
BLACK
6
CONTINUOUS
10
7.33675
20
-5.71662
11
7.3405
21
-5.70162
0
LINE
8
BLACK
6
CONTINUOUS
10
7.3405
20
-5.70162
11
7.34425
21
-5.69412
0
LINE
8
BLACK
6
CONTINUOUS
10
7.34425
20
-5.69412
11
7.348
21
-5.69037
0
LINE
8
BLACK
6
CONTINUOUS
10
7.348
20
-5.69037
11
7.3555
21
-5.68662
0
LINE
8
BLACK
6
CONTINUOUS
10
7.41549
20
-5.75786
11
7.41924
21
-5.76161
0
LINE
8
BLACK
6
CONTINUOUS
10
7.41924
20
-5.76161
11
7.41549
21
-5.76536
0
LINE
8
BLACK
6
CONTINUOUS
10
7.41549
20
-5.76536
11
7.41175
21
-5.76161
0
LINE
8
BLACK
6
CONTINUOUS
10
7.41175
20
-5.76161
11
7.41549
21
-5.75786
0
LINE
8
BLACK
6
CONTINUOUS
10
7.41549
20
-5.75786
11
7.41549
21
-5.76536
0
LINE
8
BLACK
6
CONTINUOUS
10
7.46799
20
-5.68662
11
7.47549
21
-5.68662
0
LINE
8
BLACK
6
CONTINUOUS
10
7.47549
20
-5.68662
11
7.48299
21
-5.69037
0
LINE
8
BLACK
6
CONTINUOUS
10
7.48299
20
-5.69037
11
7.48674
21
-5.69412
0
LINE
8
BLACK
6
CONTINUOUS
10
7.48674
20
-5.69412
11
7.49049
21
-5.70162
0
LINE
8
BLACK
6
CONTINUOUS
10
7.49049
20
-5.70162
11
7.49424
21
-5.71662
0
LINE
8
BLACK
6
CONTINUOUS
10
7.49424
20
-5.71662
11
7.49424
21
-5.73537
0
LINE
8
BLACK
6
CONTINUOUS
10
7.49424
20
-5.73537
11
7.49049
21
-5.75037
0
LINE
8
BLACK
6
CONTINUOUS
10
7.49049
20
-5.75037
11
7.48674
21
-5.75786
0
LINE
8
BLACK
6
CONTINUOUS
10
7.48674
20
-5.75786
11
7.48299
21
-5.76161
0
LINE
8
BLACK
6
CONTINUOUS
10
7.48299
20
-5.76161
11
7.47549
21
-5.76536
0
LINE
8
BLACK
6
CONTINUOUS
10
7.47549
20
-5.76536
11
7.46799
21
-5.76536
0
LINE
8
BLACK
6
CONTINUOUS
10
7.46799
20
-5.76536
11
7.46049
21
-5.76161
0
LINE
8
BLACK
6
CONTINUOUS
10
7.46049
20
-5.76161
11
7.45674
21
-5.75786
0
LINE
8
BLACK
6
CONTINUOUS
10
7.45674
20
-5.75786
11
7.45299
21
-5.75037
0
LINE
8
BLACK
6
CONTINUOUS
10
7.45299
20
-5.75037
11
7.44924
21
-5.73537
0
LINE
8
BLACK
6
CONTINUOUS
10
7.44924
20
-5.73537
11
7.44924
21
-5.71662
0
LINE
8
BLACK
6
CONTINUOUS
10
7.44924
20
-5.71662
11
7.45299
21
-5.70162
0
LINE
8
BLACK
6
CONTINUOUS
10
7.45299
20
-5.70162
11
7.45674
21
-5.69412
0
LINE
8
BLACK
6
CONTINUOUS
10
7.45674
20
-5.69412
11
7.46049
21
-5.69037
0
LINE
8
BLACK
6
CONTINUOUS
10
7.46049
20
-5.69037
11
7.46799
21
-5.68662
0
LINE
8
BLACK
6
CONTINUOUS
10
7.52423
20
-5.69412
11
7.52798
21
-5.69037
0
LINE
8
BLACK
6
CONTINUOUS
10
7.52798
20
-5.69037
11
7.53548
21
-5.68662
0
LINE
8
BLACK
6
CONTINUOUS
10
7.53548
20
-5.68662
11
7.55423
21
-5.68662
0
LINE
8
BLACK
6
CONTINUOUS
10
7.55423
20
-5.68662
11
7.56173
21
-5.69037
0
LINE
8
BLACK
6
CONTINUOUS
10
7.56173
20
-5.69037
11
7.56548
21
-5.69412
0
LINE
8
BLACK
6
CONTINUOUS
10
7.56548
20
-5.69412
11
7.56923
21
-5.70162
0
LINE
8
BLACK
6
CONTINUOUS
10
7.56923
20
-5.70162
11
7.56923
21
-5.70912
0
LINE
8
BLACK
6
CONTINUOUS
10
7.56923
20
-5.70912
11
7.56548
21
-5.72037
0
LINE
8
BLACK
6
CONTINUOUS
10
7.56548
20
-5.72037
11
7.52048
21
-5.76536
0
LINE
8
BLACK
6
CONTINUOUS
10
7.52048
20
-5.76536
11
7.56923
21
-5.76536
0
LINE
8
BLACK
6
CONTINUOUS
10
7.59547
20
-5.68662
11
7.64797
21
-5.68662
0
LINE
8
BLACK
6
CONTINUOUS
10
7.64797
20
-5.68662
11
7.61422
21
-5.76536
0
LINE
8
BLACK
6
CONTINUOUS
10
7.71171
20
-5.68662
11
7.69671
21
-5.68662
0
LINE
8
BLACK
6
CONTINUOUS
10
7.69671
20
-5.68662
11
7.68921
21
-5.69037
0
LINE
8
BLACK
6
CONTINUOUS
10
7.68921
20
-5.69037
11
7.68546
21
-5.69412
0
LINE
8
BLACK
6
CONTINUOUS
10
7.68546
20
-5.69412
11
7.67796
21
-5.70537
0
LINE
8
BLACK
6
CONTINUOUS
10
7.67796
20
-5.70537
11
7.67421
21
-5.72037
0
LINE
8
BLACK
6
CONTINUOUS
10
7.67421
20
-5.72037
11
7.67421
21
-5.75037
0
LINE
8
BLACK
6
CONTINUOUS
10
7.67421
20
-5.75037
11
7.67796
21
-5.75786
0
LINE
8
BLACK
6
CONTINUOUS
10
7.67796
20
-5.75786
11
7.68171
21
-5.76161
0
LINE
8
BLACK
6
CONTINUOUS
10
7.68171
20
-5.76161
11
7.68921
21
-5.76536
0
LINE
8
BLACK
6
CONTINUOUS
10
7.68921
20
-5.76536
11
7.70421
21
-5.76536
0
LINE
8
BLACK
6
CONTINUOUS
10
7.70421
20
-5.76536
11
7.71171
21
-5.76161
0
LINE
8
BLACK
6
CONTINUOUS
10
7.71171
20
-5.76161
11
7.71546
21
-5.75786
0
LINE
8
BLACK
6
CONTINUOUS
10
7.71546
20
-5.75786
11
7.71921
21
-5.75037
0
LINE
8
BLACK
6
CONTINUOUS
10
7.71921
20
-5.75037
11
7.71921
21
-5.73162
0
LINE
8
BLACK
6
CONTINUOUS
10
7.71921
20
-5.73162
11
7.71546
21
-5.72412
0
LINE
8
BLACK
6
CONTINUOUS
10
7.71546
20
-5.72412
11
7.71171
21
-5.72037
0
LINE
8
BLACK
6
CONTINUOUS
10
7.71171
20
-5.72037
11
7.70421
21
-5.71662
0
LINE
8
BLACK
6
CONTINUOUS
10
7.70421
20
-5.71662
11
7.68921
21
-5.71662
0
LINE
8
BLACK
6
CONTINUOUS
10
7.68921
20
-5.71662
11
7.68171
21
-5.72037
0
LINE
8
BLACK
6
CONTINUOUS
10
7.68171
20
-5.72037
11
7.67796
21
-5.72412
0
LINE
8
BLACK
6
CONTINUOUS
10
7.67796
20
-5.72412
11
7.67421
21
-5.73162
0
LINE
8
BLACK
6
CONTINUOUS
10
7.7492
20
-5.68662
11
7.7492
21
-5.70162
0
LINE
8
BLACK
6
CONTINUOUS
10
7.7792
20
-5.68662
11
7.7792
21
-5.70162
0
LINE
8
BLACK
6
CONTINUOUS
10
7.89544
20
-5.79536
11
7.89169
21
-5.79161
0
LINE
8
BLACK
6
CONTINUOUS
10
7.89169
20
-5.79161
11
7.88419
21
-5.78036
0
LINE
8
BLACK
6
CONTINUOUS
10
7.88419
20
-5.78036
11
7.88044
21
-5.77286
0
LINE
8
BLACK
6
CONTINUOUS
10
7.88044
20
-5.77286
11
7.87669
21
-5.76161
0
LINE
8
BLACK
6
CONTINUOUS
10
7.87669
20
-5.76161
11
7.87294
21
-5.74287
0
LINE
8
BLACK
6
CONTINUOUS
10
7.87294
20
-5.74287
11
7.87294
21
-5.72787
0
LINE
8
BLACK
6
CONTINUOUS
10
7.87294
20
-5.72787
11
7.87669
21
-5.70912
0
LINE
8
BLACK
6
CONTINUOUS
10
7.87669
20
-5.70912
11
7.88044
21
-5.69787
0
LINE
8
BLACK
6
CONTINUOUS
10
7.88044
20
-5.69787
11
7.88419
21
-5.69037
0
LINE
8
BLACK
6
CONTINUOUS
10
7.88419
20
-5.69037
11
7.89169
21
-5.67912
0
LINE
8
BLACK
6
CONTINUOUS
10
7.89169
20
-5.67912
11
7.89544
21
-5.67537
0
LINE
8
BLACK
6
CONTINUOUS
10
7.96668
20
-5.76536
11
7.92168
21
-5.76536
0
LINE
8
BLACK
6
CONTINUOUS
10
7.94418
20
-5.76536
11
7.94418
21
-5.68662
0
LINE
8
BLACK
6
CONTINUOUS
10
7.94418
20
-5.68662
11
7.93668
21
-5.69787
0
LINE
8
BLACK
6
CONTINUOUS
10
7.93668
20
-5.69787
11
7.92918
21
-5.70537
0
LINE
8
BLACK
6
CONTINUOUS
10
7.92918
20
-5.70537
11
7.92168
21
-5.70912
0
LINE
8
BLACK
6
CONTINUOUS
10
8.01542
20
-5.68662
11
8.02292
21
-5.68662
0
LINE
8
BLACK
6
CONTINUOUS
10
8.02292
20
-5.68662
11
8.03042
21
-5.69037
0
LINE
8
BLACK
6
CONTINUOUS
10
8.03042
20
-5.69037
11
8.03417
21
-5.69412
0
LINE
8
BLACK
6
CONTINUOUS
10
8.03417
20
-5.69412
11
8.03792
21
-5.70162
0
LINE
8
BLACK
6
CONTINUOUS
10
8.03792
20
-5.70162
11
8.04167
21
-5.71662
0
LINE
8
BLACK
6
CONTINUOUS
10
8.04167
20
-5.71662
11
8.04167
21
-5.73537
0
LINE
8
BLACK
6
CONTINUOUS
10
8.04167
20
-5.73537
11
8.03792
21
-5.75037
0
LINE
8
BLACK
6
CONTINUOUS
10
8.03792
20
-5.75037
11
8.03417
21
-5.75786
0
LINE
8
BLACK
6
CONTINUOUS
10
8.03417
20
-5.75786
11
8.03042
21
-5.76161
0
LINE
8
BLACK
6
CONTINUOUS
10
8.03042
20
-5.76161
11
8.02292
21
-5.76536
0
LINE
8
BLACK
6
CONTINUOUS
10
8.02292
20
-5.76536
11
8.01542
21
-5.76536
0
LINE
8
BLACK
6
CONTINUOUS
10
8.01542
20
-5.76536
11
8.00792
21
-5.76161
0
LINE
8
BLACK
6
CONTINUOUS
10
8.00792
20
-5.76161
11
8.00417
21
-5.75786
0
LINE
8
BLACK
6
CONTINUOUS
10
8.00417
20
-5.75786
11
8.00042
21
-5.75037
0
LINE
8
BLACK
6
CONTINUOUS
10
8.00042
20
-5.75037
11
7.99667
21
-5.73537
0
LINE
8
BLACK
6
CONTINUOUS
10
7.99667
20
-5.73537
11
7.99667
21
-5.71662
0
LINE
8
BLACK
6
CONTINUOUS
10
7.99667
20
-5.71662
11
8.00042
21
-5.70162
0
LINE
8
BLACK
6
CONTINUOUS
10
8.00042
20
-5.70162
11
8.00417
21
-5.69412
0
LINE
8
BLACK
6
CONTINUOUS
10
8.00417
20
-5.69412
11
8.00792
21
-5.69037
0
LINE
8
BLACK
6
CONTINUOUS
10
8.00792
20
-5.69037
11
8.01542
21
-5.68662
0
LINE
8
BLACK
6
CONTINUOUS
10
8.13541
20
-5.76536
11
8.13541
21
-5.68662
0
LINE
8
BLACK
6
CONTINUOUS
10
8.16915
20
-5.76536
11
8.16915
21
-5.72412
0
LINE
8
BLACK
6
CONTINUOUS
10
8.16915
20
-5.72412
11
8.1654
21
-5.71662
0
LINE
8
BLACK
6
CONTINUOUS
10
8.1654
20
-5.71662
11
8.1579
21
-5.71287
0
LINE
8
BLACK
6
CONTINUOUS
10
8.1579
20
-5.71287
11
8.14665
21
-5.71287
0
LINE
8
BLACK
6
CONTINUOUS
10
8.14665
20
-5.71287
11
8.13915
21
-5.71662
0
LINE
8
BLACK
6
CONTINUOUS
10
8.13915
20
-5.71662
11
8.13541
21
-5.72037
0
LINE
8
BLACK
6
CONTINUOUS
10
8.21789
20
-5.76536
11
8.2104
21
-5.76161
0
LINE
8
BLACK
6
CONTINUOUS
10
8.2104
20
-5.76161
11
8.20665
21
-5.75786
0
LINE
8
BLACK
6
CONTINUOUS
10
8.20665
20
-5.75786
11
8.2029
21
-5.75037
0
LINE
8
BLACK
6
CONTINUOUS
10
8.2029
20
-5.75037
11
8.2029
21
-5.72787
0
LINE
8
BLACK
6
CONTINUOUS
10
8.2029
20
-5.72787
11
8.20665
21
-5.72037
0
LINE
8
BLACK
6
CONTINUOUS
10
8.20665
20
-5.72037
11
8.2104
21
-5.71662
0
LINE
8
BLACK
6
CONTINUOUS
10
8.2104
20
-5.71662
11
8.21789
21
-5.71287
0
LINE
8
BLACK
6
CONTINUOUS
10
8.21789
20
-5.71287
11
8.22914
21
-5.71287
0
LINE
8
BLACK
6
CONTINUOUS
10
8.22914
20
-5.71287
11
8.23664
21
-5.71662
0
LINE
8
BLACK
6
CONTINUOUS
10
8.23664
20
-5.71662
11
8.24039
21
-5.72037
0
LINE
8
BLACK
6
CONTINUOUS
10
8.24039
20
-5.72037
11
8.24414
21
-5.72787
0
LINE
8
BLACK
6
CONTINUOUS
10
8.24414
20
-5.72787
11
8.24414
21
-5.75037
0
LINE
8
BLACK
6
CONTINUOUS
10
8.24414
20
-5.75037
11
8.24039
21
-5.75786
0
LINE
8
BLACK
6
CONTINUOUS
10
8.24039
20
-5.75786
11
8.23664
21
-5.76161
0
LINE
8
BLACK
6
CONTINUOUS
10
8.23664
20
-5.76161
11
8.22914
21
-5.76536
0
LINE
8
BLACK
6
CONTINUOUS
10
8.22914
20
-5.76536
11
8.21789
21
-5.76536
0
LINE
8
BLACK
6
CONTINUOUS
10
8.28914
20
-5.76536
11
8.28164
21
-5.76161
0
LINE
8
BLACK
6
CONTINUOUS
10
8.28164
20
-5.76161
11
8.27789
21
-5.75412
0
LINE
8
BLACK
6
CONTINUOUS
10
8.27789
20
-5.75412
11
8.27789
21
-5.68662
0
LINE
8
BLACK
6
CONTINUOUS
10
8.34913
20
-5.76161
11
8.34163
21
-5.76536
0
LINE
8
BLACK
6
CONTINUOUS
10
8.34163
20
-5.76536
11
8.32663
21
-5.76536
0
LINE
8
BLACK
6
CONTINUOUS
10
8.32663
20
-5.76536
11
8.31913
21
-5.76161
0
LINE
8
BLACK
6
CONTINUOUS
10
8.31913
20
-5.76161
11
8.31538
21
-5.75412
0
LINE
8
BLACK
6
CONTINUOUS
10
8.31538
20
-5.75412
11
8.31538
21
-5.72412
0
LINE
8
BLACK
6
CONTINUOUS
10
8.31538
20
-5.72412
11
8.31913
21
-5.71662
0
LINE
8
BLACK
6
CONTINUOUS
10
8.31913
20
-5.71662
11
8.32663
21
-5.71287
0
LINE
8
BLACK
6
CONTINUOUS
10
8.32663
20
-5.71287
11
8.34163
21
-5.71287
0
LINE
8
BLACK
6
CONTINUOUS
10
8.34163
20
-5.71287
11
8.34913
21
-5.71662
0
LINE
8
BLACK
6
CONTINUOUS
10
8.34913
20
-5.71662
11
8.35288
21
-5.72412
0
LINE
8
BLACK
6
CONTINUOUS
10
8.35288
20
-5.72412
11
8.35288
21
-5.73162
0
LINE
8
BLACK
6
CONTINUOUS
10
8.35288
20
-5.73162
11
8.31538
21
-5.73912
0
LINE
8
BLACK
6
CONTINUOUS
10
8.38287
20
-5.76161
11
8.39037
21
-5.76536
0
LINE
8
BLACK
6
CONTINUOUS
10
8.39037
20
-5.76536
11
8.40537
21
-5.76536
0
LINE
8
BLACK
6
CONTINUOUS
10
8.40537
20
-5.76536
11
8.41287
21
-5.76161
0
LINE
8
BLACK
6
CONTINUOUS
10
8.41287
20
-5.76161
11
8.41662
21
-5.75412
0
LINE
8
BLACK
6
CONTINUOUS
10
8.41662
20
-5.75412
11
8.41662
21
-5.75037
0
LINE
8
BLACK
6
CONTINUOUS
10
8.41662
20
-5.75037
11
8.41287
21
-5.74287
0
LINE
8
BLACK
6
CONTINUOUS
10
8.41287
20
-5.74287
11
8.40537
21
-5.73912
0
LINE
8
BLACK
6
CONTINUOUS
10
8.40537
20
-5.73912
11
8.39412
21
-5.73912
0
LINE
8
BLACK
6
CONTINUOUS
10
8.39412
20
-5.73912
11
8.38662
21
-5.73537
0
LINE
8
BLACK
6
CONTINUOUS
10
8.38662
20
-5.73537
11
8.38287
21
-5.72787
0
LINE
8
BLACK
6
CONTINUOUS
10
8.38287
20
-5.72787
11
8.38287
21
-5.72412
0
LINE
8
BLACK
6
CONTINUOUS
10
8.38287
20
-5.72412
11
8.38662
21
-5.71662
0
LINE
8
BLACK
6
CONTINUOUS
10
8.38662
20
-5.71662
11
8.39412
21
-5.71287
0
LINE
8
BLACK
6
CONTINUOUS
10
8.39412
20
-5.71287
11
8.40537
21
-5.71287
0
LINE
8
BLACK
6
CONTINUOUS
10
8.40537
20
-5.71287
11
8.41287
21
-5.71662
0
LINE
8
BLACK
6
CONTINUOUS
10
8.44287
20
-5.79536
11
8.44662
21
-5.79161
0
LINE
8
BLACK
6
CONTINUOUS
10
8.44662
20
-5.79161
11
8.45412
21
-5.78036
0
LINE
8
BLACK
6
CONTINUOUS
10
8.45412
20
-5.78036
11
8.45786
21
-5.77286
0
LINE
8
BLACK
6
CONTINUOUS
10
8.45786
20
-5.77286
11
8.46161
21
-5.76161
0
LINE
8
BLACK
6
CONTINUOUS
10
8.46161
20
-5.76161
11
8.46536
21
-5.74287
0
LINE
8
BLACK
6
CONTINUOUS
10
8.46536
20
-5.74287
11
8.46536
21
-5.72787
0
LINE
8
BLACK
6
CONTINUOUS
10
8.46536
20
-5.72787
11
8.46161
21
-5.70912
0
LINE
8
BLACK
6
CONTINUOUS
10
8.46161
20
-5.70912
11
8.45786
21
-5.69787
0
LINE
8
BLACK
6
CONTINUOUS
10
8.45786
20
-5.69787
11
8.45412
21
-5.69037
0
LINE
8
BLACK
6
CONTINUOUS
10
8.45412
20
-5.69037
11
8.44662
21
-5.67912
0
LINE
8
BLACK
6
CONTINUOUS
10
8.44662
20
-5.67912
11
8.44287
21
-5.67537
0
LINE
8
BLACK
6
CONTINUOUS
10
6.47343
20
-5.81319
11
6.47343
21
-5.85256
0
LINE
8
BLACK
6
CONTINUOUS
10
6.45374
20
-5.83287
11
6.49311
21
-5.83287
0
LINE
8
BLACK
6
CONTINUOUS
10
6.63184
20
-5.8693
11
6.58685
21
-5.8693
0
LINE
8
BLACK
6
CONTINUOUS
10
6.60935
20
-5.8693
11
6.60935
21
-5.79056
0
LINE
8
BLACK
6
CONTINUOUS
10
6.60935
20
-5.79056
11
6.60185
21
-5.80181
0
LINE
8
BLACK
6
CONTINUOUS
10
6.60185
20
-5.80181
11
6.59435
21
-5.80931
0
LINE
8
BLACK
6
CONTINUOUS
10
6.59435
20
-5.80931
11
6.58685
21
-5.81306
0
LINE
8
BLACK
6
CONTINUOUS
10
6.66559
20
-5.8618
11
6.66934
21
-5.86555
0
LINE
8
BLACK
6
CONTINUOUS
10
6.66934
20
-5.86555
11
6.66559
21
-5.8693
0
LINE
8
BLACK
6
CONTINUOUS
10
6.66559
20
-5.8693
11
6.66184
21
-5.86555
0
LINE
8
BLACK
6
CONTINUOUS
10
6.66184
20
-5.86555
11
6.66559
21
-5.8618
0
LINE
8
BLACK
6
CONTINUOUS
10
6.66559
20
-5.8618
11
6.66559
21
-5.8693
0
LINE
8
BLACK
6
CONTINUOUS
10
6.71808
20
-5.79056
11
6.72558
21
-5.79056
0
LINE
8
BLACK
6
CONTINUOUS
10
6.72558
20
-5.79056
11
6.73308
21
-5.79431
0
LINE
8
BLACK
6
CONTINUOUS
10
6.73308
20
-5.79431
11
6.73683
21
-5.79806
0
LINE
8
BLACK
6
CONTINUOUS
10
6.73683
20
-5.79806
11
6.74058
21
-5.80556
0
LINE
8
BLACK
6
CONTINUOUS
10
6.74058
20
-5.80556
11
6.74433
21
-5.82056
0
LINE
8
BLACK
6
CONTINUOUS
10
6.74433
20
-5.82056
11
6.74433
21
-5.8393
0
LINE
8
BLACK
6
CONTINUOUS
10
6.74433
20
-5.8393
11
6.74058
21
-5.8543
0
LINE
8
BLACK
6
CONTINUOUS
10
6.74058
20
-5.8543
11
6.73683
21
-5.8618
0
LINE
8
BLACK
6
CONTINUOUS
10
6.73683
20
-5.8618
11
6.73308
21
-5.86555
0
LINE
8
BLACK
6
CONTINUOUS
10
6.73308
20
-5.86555
11
6.72558
21
-5.8693
0
LINE
8
BLACK
6
CONTINUOUS
10
6.72558
20
-5.8693
11
6.71808
21
-5.8693
0
LINE
8
BLACK
6
CONTINUOUS
10
6.71808
20
-5.8693
11
6.71058
21
-5.86555
0
LINE
8
BLACK
6
CONTINUOUS
10
6.71058
20
-5.86555
11
6.70683
21
-5.8618
0
LINE
8
BLACK
6
CONTINUOUS
10
6.70683
20
-5.8618
11
6.70308
21
-5.8543
0
LINE
8
BLACK
6
CONTINUOUS
10
6.70308
20
-5.8543
11
6.69933
21
-5.8393
0
LINE
8
BLACK
6
CONTINUOUS
10
6.69933
20
-5.8393
11
6.69933
21
-5.82056
0
LINE
8
BLACK
6
CONTINUOUS
10
6.69933
20
-5.82056
11
6.70308
21
-5.80556
0
LINE
8
BLACK
6
CONTINUOUS
10
6.70308
20
-5.80556
11
6.70683
21
-5.79806
0
LINE
8
BLACK
6
CONTINUOUS
10
6.70683
20
-5.79806
11
6.71058
21
-5.79431
0
LINE
8
BLACK
6
CONTINUOUS
10
6.71058
20
-5.79431
11
6.71808
21
-5.79056
0
LINE
8
BLACK
6
CONTINUOUS
10
6.79307
20
-5.79056
11
6.80057
21
-5.79056
0
LINE
8
BLACK
6
CONTINUOUS
10
6.80057
20
-5.79056
11
6.80807
21
-5.79431
0
LINE
8
BLACK
6
CONTINUOUS
10
6.80807
20
-5.79431
11
6.81182
21
-5.79806
0
LINE
8
BLACK
6
CONTINUOUS
10
6.81182
20
-5.79806
11
6.81557
21
-5.80556
0
LINE
8
BLACK
6
CONTINUOUS
10
6.81557
20
-5.80556
11
6.81932
21
-5.82056
0
LINE
8
BLACK
6
CONTINUOUS
10
6.81932
20
-5.82056
11
6.81932
21
-5.8393
0
LINE
8
BLACK
6
CONTINUOUS
10
6.81932
20
-5.8393
11
6.81557
21
-5.8543
0
LINE
8
BLACK
6
CONTINUOUS
10
6.81557
20
-5.8543
11
6.81182
21
-5.8618
0
LINE
8
BLACK
6
CONTINUOUS
10
6.81182
20
-5.8618
11
6.80807
21
-5.86555
0
LINE
8
BLACK
6
CONTINUOUS
10
6.80807
20
-5.86555
11
6.80057
21
-5.8693
0
LINE
8
BLACK
6
CONTINUOUS
10
6.80057
20
-5.8693
11
6.79307
21
-5.8693
0
LINE
8
BLACK
6
CONTINUOUS
10
6.79307
20
-5.8693
11
6.78557
21
-5.86555
0
LINE
8
BLACK
6
CONTINUOUS
10
6.78557
20
-5.86555
11
6.78182
21
-5.8618
0
LINE
8
BLACK
6
CONTINUOUS
10
6.78182
20
-5.8618
11
6.77807
21
-5.8543
0
LINE
8
BLACK
6
CONTINUOUS
10
6.77807
20
-5.8543
11
6.77433
21
-5.8393
0
LINE
8
BLACK
6
CONTINUOUS
10
6.77433
20
-5.8393
11
6.77433
21
-5.82056
0
LINE
8
BLACK
6
CONTINUOUS
10
6.77433
20
-5.82056
11
6.77807
21
-5.80556
0
LINE
8
BLACK
6
CONTINUOUS
10
6.77807
20
-5.80556
11
6.78182
21
-5.79806
0
LINE
8
BLACK
6
CONTINUOUS
10
6.78182
20
-5.79806
11
6.78557
21
-5.79431
0
LINE
8
BLACK
6
CONTINUOUS
10
6.78557
20
-5.79431
11
6.79307
21
-5.79056
0
LINE
8
BLACK
6
CONTINUOUS
10
6.86806
20
-5.79056
11
6.87556
21
-5.79056
0
LINE
8
BLACK
6
CONTINUOUS
10
6.87556
20
-5.79056
11
6.88306
21
-5.79431
0
LINE
8
BLACK
6
CONTINUOUS
10
6.88306
20
-5.79431
11
6.88681
21
-5.79806
0
LINE
8
BLACK
6
CONTINUOUS
10
6.88681
20
-5.79806
11
6.89056
21
-5.80556
0
LINE
8
BLACK
6
CONTINUOUS
10
6.89056
20
-5.80556
11
6.89431
21
-5.82056
0
LINE
8
BLACK
6
CONTINUOUS
10
6.89431
20
-5.82056
11
6.89431
21
-5.8393
0
LINE
8
BLACK
6
CONTINUOUS
10
6.89431
20
-5.8393
11
6.89056
21
-5.8543
0
LINE
8
BLACK
6
CONTINUOUS
10
6.89056
20
-5.8543
11
6.88681
21
-5.8618
0
LINE
8
BLACK
6
CONTINUOUS
10
6.88681
20
-5.8618
11
6.88306
21
-5.86555
0
LINE
8
BLACK
6
CONTINUOUS
10
6.88306
20
-5.86555
11
6.87556
21
-5.8693
0
LINE
8
BLACK
6
CONTINUOUS
10
6.87556
20
-5.8693
11
6.86806
21
-5.8693
0
LINE
8
BLACK
6
CONTINUOUS
10
6.86806
20
-5.8693
11
6.86056
21
-5.86555
0
LINE
8
BLACK
6
CONTINUOUS
10
6.86056
20
-5.86555
11
6.85681
21
-5.8618
0
LINE
8
BLACK
6
CONTINUOUS
10
6.85681
20
-5.8618
11
6.85307
21
-5.8543
0
LINE
8
BLACK
6
CONTINUOUS
10
6.85307
20
-5.8543
11
6.84932
21
-5.8393
0
LINE
8
BLACK
6
CONTINUOUS
10
6.84932
20
-5.8393
11
6.84932
21
-5.82056
0
LINE
8
BLACK
6
CONTINUOUS
10
6.84932
20
-5.82056
11
6.85307
21
-5.80556
0
LINE
8
BLACK
6
CONTINUOUS
10
6.85307
20
-5.80556
11
6.85681
21
-5.79806
0
LINE
8
BLACK
6
CONTINUOUS
10
6.85681
20
-5.79806
11
6.86056
21
-5.79431
0
LINE
8
BLACK
6
CONTINUOUS
10
6.86056
20
-5.79431
11
6.86806
21
-5.79056
0
LINE
8
BLACK
6
CONTINUOUS
10
6.92806
20
-5.8693
11
6.92806
21
-5.81681
0
LINE
8
BLACK
6
CONTINUOUS
10
6.92806
20
-5.82431
11
6.93181
21
-5.82056
0
LINE
8
BLACK
6
CONTINUOUS
10
6.93181
20
-5.82056
11
6.9393
21
-5.81681
0
LINE
8
BLACK
6
CONTINUOUS
10
6.9393
20
-5.81681
11
6.95055
21
-5.81681
0
LINE
8
BLACK
6
CONTINUOUS
10
6.95055
20
-5.81681
11
6.95805
21
-5.82056
0
LINE
8
BLACK
6
CONTINUOUS
10
6.95805
20
-5.82056
11
6.9618
21
-5.82806
0
LINE
8
BLACK
6
CONTINUOUS
10
6.9618
20
-5.82806
11
6.9618
21
-5.8693
0
LINE
8
BLACK
6
CONTINUOUS
10
6.9618
20
-5.82806
11
6.96555
21
-5.82056
0
LINE
8
BLACK
6
CONTINUOUS
10
6.96555
20
-5.82056
11
6.97305
21
-5.81681
0
LINE
8
BLACK
6
CONTINUOUS
10
6.97305
20
-5.81681
11
6.9843
21
-5.81681
0
LINE
8
BLACK
6
CONTINUOUS
10
6.9843
20
-5.81681
11
6.9918
21
-5.82056
0
LINE
8
BLACK
6
CONTINUOUS
10
6.9918
20
-5.82056
11
6.99555
21
-5.82806
0
LINE
8
BLACK
6
CONTINUOUS
10
6.99555
20
-5.82806
11
6.99555
21
-5.8693
0
LINE
8
BLACK
6
CONTINUOUS
10
7.03304
20
-5.8693
11
7.03304
21
-5.81681
0
LINE
8
BLACK
6
CONTINUOUS
10
7.03304
20
-5.82431
11
7.03679
21
-5.82056
0
LINE
8
BLACK
6
CONTINUOUS
10
7.03679
20
-5.82056
11
7.04429
21
-5.81681
0
LINE
8
BLACK
6
CONTINUOUS
10
7.04429
20
-5.81681
11
7.05554
21
-5.81681
0
LINE
8
BLACK
6
CONTINUOUS
10
7.05554
20
-5.81681
11
7.06304
21
-5.82056
0
LINE
8
BLACK
6
CONTINUOUS
10
7.06304
20
-5.82056
11
7.06679
21
-5.82806
0
LINE
8
BLACK
6
CONTINUOUS
10
7.06679
20
-5.82806
11
7.06679
21
-5.8693
0
LINE
8
BLACK
6
CONTINUOUS
10
7.06679
20
-5.82806
11
7.07054
21
-5.82056
0
LINE
8
BLACK
6
CONTINUOUS
10
7.07054
20
-5.82056
11
7.07804
21
-5.81681
0
LINE
8
BLACK
6
CONTINUOUS
10
7.07804
20
-5.81681
11
7.08929
21
-5.81681
0
LINE
8
BLACK
6
CONTINUOUS
10
7.08929
20
-5.81681
11
7.09678
21
-5.82056
0
LINE
8
BLACK
6
CONTINUOUS
10
7.09678
20
-5.82056
11
7.10053
21
-5.82806
0
LINE
8
BLACK
6
CONTINUOUS
10
7.10053
20
-5.82806
11
7.10053
21
-5.8693
0
LINE
8
BLACK
6
CONTINUOUS
10
7.25427
20
-5.78681
11
7.18677
21
-5.88805
0
LINE
8
BLACK
6
CONTINUOUS
10
7.3555
20
-5.79056
11
7.363
21
-5.79056
0
LINE
8
BLACK
6
CONTINUOUS
10
7.363
20
-5.79056
11
7.3705
21
-5.79431
0
LINE
8
BLACK
6
CONTINUOUS
10
7.3705
20
-5.79431
11
7.37425
21
-5.79806
0
LINE
8
BLACK
6
CONTINUOUS
10
7.37425
20
-5.79806
11
7.378
21
-5.80556
0
LINE
8
BLACK
6
CONTINUOUS
10
7.378
20
-5.80556
11
7.38175
21
-5.82056
0
LINE
8
BLACK
6
CONTINUOUS
10
7.38175
20
-5.82056
11
7.38175
21
-5.8393
0
LINE
8
BLACK
6
CONTINUOUS
10
7.38175
20
-5.8393
11
7.378
21
-5.8543
0
LINE
8
BLACK
6
CONTINUOUS
10
7.378
20
-5.8543
11
7.37425
21
-5.8618
0
LINE
8
BLACK
6
CONTINUOUS
10
7.37425
20
-5.8618
11
7.3705
21
-5.86555
0
LINE
8
BLACK
6
CONTINUOUS
10
7.3705
20
-5.86555
11
7.363
21
-5.8693
0
LINE
8
BLACK
6
CONTINUOUS
10
7.363
20
-5.8693
11
7.3555
21
-5.8693
0
LINE
8
BLACK
6
CONTINUOUS
10
7.3555
20
-5.8693
11
7.348
21
-5.86555
0
LINE
8
BLACK
6
CONTINUOUS
10
7.348
20
-5.86555
11
7.34425
21
-5.8618
0
LINE
8
BLACK
6
CONTINUOUS
10
7.34425
20
-5.8618
11
7.3405
21
-5.8543
0
LINE
8
BLACK
6
CONTINUOUS
10
7.3405
20
-5.8543
11
7.33675
21
-5.8393
0
LINE
8
BLACK
6
CONTINUOUS
10
7.33675
20
-5.8393
11
7.33675
21
-5.82056
0
LINE
8
BLACK
6
CONTINUOUS
10
7.33675
20
-5.82056
11
7.3405
21
-5.80556
0
LINE
8
BLACK
6
CONTINUOUS
10
7.3405
20
-5.80556
11
7.34425
21
-5.79806
0
LINE
8
BLACK
6
CONTINUOUS
10
7.34425
20
-5.79806
11
7.348
21
-5.79431
0
LINE
8
BLACK
6
CONTINUOUS
10
7.348
20
-5.79431
11
7.3555
21
-5.79056
0
LINE
8
BLACK
6
CONTINUOUS
10
7.41549
20
-5.8618
11
7.41924
21
-5.86555
0
LINE
8
BLACK
6
CONTINUOUS
10
7.41924
20
-5.86555
11
7.41549
21
-5.8693
0
LINE
8
BLACK
6
CONTINUOUS
10
7.41549
20
-5.8693
11
7.41175
21
-5.86555
0
LINE
8
BLACK
6
CONTINUOUS
10
7.41175
20
-5.86555
11
7.41549
21
-5.8618
0
LINE
8
BLACK
6
CONTINUOUS
10
7.41549
20
-5.8618
11
7.41549
21
-5.8693
0
LINE
8
BLACK
6
CONTINUOUS
10
7.46799
20
-5.79056
11
7.47549
21
-5.79056
0
LINE
8
BLACK
6
CONTINUOUS
10
7.47549
20
-5.79056
11
7.48299
21
-5.79431
0
LINE
8
BLACK
6
CONTINUOUS
10
7.48299
20
-5.79431
11
7.48674
21
-5.79806
0
LINE
8
BLACK
6
CONTINUOUS
10
7.48674
20
-5.79806
11
7.49049
21
-5.80556
0
LINE
8
BLACK
6
CONTINUOUS
10
7.49049
20
-5.80556
11
7.49424
21
-5.82056
0
LINE
8
BLACK
6
CONTINUOUS
10
7.49424
20
-5.82056
11
7.49424
21
-5.8393
0
LINE
8
BLACK
6
CONTINUOUS
10
7.49424
20
-5.8393
11
7.49049
21
-5.8543
0
LINE
8
BLACK
6
CONTINUOUS
10
7.49049
20
-5.8543
11
7.48674
21
-5.8618
0
LINE
8
BLACK
6
CONTINUOUS
10
7.48674
20
-5.8618
11
7.48299
21
-5.86555
0
LINE
8
BLACK
6
CONTINUOUS
10
7.48299
20
-5.86555
11
7.47549
21
-5.8693
0
LINE
8
BLACK
6
CONTINUOUS
10
7.47549
20
-5.8693
11
7.46799
21
-5.8693
0
LINE
8
BLACK
6
CONTINUOUS
10
7.46799
20
-5.8693
11
7.46049
21
-5.86555
0
LINE
8
BLACK
6
CONTINUOUS
10
7.46049
20
-5.86555
11
7.45674
21
-5.8618
0
LINE
8
BLACK
6
CONTINUOUS
10
7.45674
20
-5.8618
11
7.45299
21
-5.8543
0
LINE
8
BLACK
6
CONTINUOUS
10
7.45299
20
-5.8543
11
7.44924
21
-5.8393
0
LINE
8
BLACK
6
CONTINUOUS
10
7.44924
20
-5.8393
11
7.44924
21
-5.82056
0
LINE
8
BLACK
6
CONTINUOUS
10
7.44924
20
-5.82056
11
7.45299
21
-5.80556
0
LINE
8
BLACK
6
CONTINUOUS
10
7.45299
20
-5.80556
11
7.45674
21
-5.79806
0
LINE
8
BLACK
6
CONTINUOUS
10
7.45674
20
-5.79806
11
7.46049
21
-5.79431
0
LINE
8
BLACK
6
CONTINUOUS
10
7.46049
20
-5.79431
11
7.46799
21
-5.79056
0
LINE
8
BLACK
6
CONTINUOUS
10
7.52048
20
-5.79056
11
7.56923
21
-5.79056
0
LINE
8
BLACK
6
CONTINUOUS
10
7.56923
20
-5.79056
11
7.54298
21
-5.82056
0
LINE
8
BLACK
6
CONTINUOUS
10
7.54298
20
-5.82056
11
7.55423
21
-5.82056
0
LINE
8
BLACK
6
CONTINUOUS
10
7.55423
20
-5.82056
11
7.56173
21
-5.82431
0
LINE
8
BLACK
6
CONTINUOUS
10
7.56173
20
-5.82431
11
7.56548
21
-5.82806
0
LINE
8
BLACK
6
CONTINUOUS
10
7.56548
20
-5.82806
11
7.56923
21
-5.83555
0
LINE
8
BLACK
6
CONTINUOUS
10
7.56923
20
-5.83555
11
7.56923
21
-5.8543
0
LINE
8
BLACK
6
CONTINUOUS
10
7.56923
20
-5.8543
11
7.56548
21
-5.8618
0
LINE
8
BLACK
6
CONTINUOUS
10
7.56548
20
-5.8618
11
7.56173
21
-5.86555
0
LINE
8
BLACK
6
CONTINUOUS
10
7.56173
20
-5.86555
11
7.55423
21
-5.8693
0
LINE
8
BLACK
6
CONTINUOUS
10
7.55423
20
-5.8693
11
7.53173
21
-5.8693
0
LINE
8
BLACK
6
CONTINUOUS
10
7.53173
20
-5.8693
11
7.52423
21
-5.86555
0
LINE
8
BLACK
6
CONTINUOUS
10
7.52423
20
-5.86555
11
7.52048
21
-5.8618
0
LINE
8
BLACK
6
CONTINUOUS
10
7.60672
20
-5.8693
11
7.62172
21
-5.8693
0
LINE
8
BLACK
6
CONTINUOUS
10
7.62172
20
-5.8693
11
7.62922
21
-5.86555
0
LINE
8
BLACK
6
CONTINUOUS
10
7.62922
20
-5.86555
11
7.63297
21
-5.8618
0
LINE
8
BLACK
6
CONTINUOUS
10
7.63297
20
-5.8618
11
7.64047
21
-5.85055
0
LINE
8
BLACK
6
CONTINUOUS
10
7.64047
20
-5.85055
11
7.64422
21
-5.83555
0
LINE
8
BLACK
6
CONTINUOUS
10
7.64422
20
-5.83555
11
7.64422
21
-5.80556
0
LINE
8
BLACK
6
CONTINUOUS
10
7.64422
20
-5.80556
11
7.64047
21
-5.79806
0
LINE
8
BLACK
6
CONTINUOUS
10
7.64047
20
-5.79806
11
7.63672
21
-5.79431
0
LINE
8
BLACK
6
CONTINUOUS
10
7.63672
20
-5.79431
11
7.62922
21
-5.79056
0
LINE
8
BLACK
6
CONTINUOUS
10
7.62922
20
-5.79056
11
7.61422
21
-5.79056
0
LINE
8
BLACK
6
CONTINUOUS
10
7.61422
20
-5.79056
11
7.60672
21
-5.79431
0
LINE
8
BLACK
6
CONTINUOUS
10
7.60672
20
-5.79431
11
7.60297
21
-5.79806
0
LINE
8
BLACK
6
CONTINUOUS
10
7.60297
20
-5.79806
11
7.59922
21
-5.80556
0
LINE
8
BLACK
6
CONTINUOUS
10
7.59922
20
-5.80556
11
7.59922
21
-5.82431
0
LINE
8
BLACK
6
CONTINUOUS
10
7.59922
20
-5.82431
11
7.60297
21
-5.83181
0
LINE
8
BLACK
6
CONTINUOUS
10
7.60297
20
-5.83181
11
7.60672
21
-5.83555
0
LINE
8
BLACK
6
CONTINUOUS
10
7.60672
20
-5.83555
11
7.61422
21
-5.8393
0
LINE
8
BLACK
6
CONTINUOUS
10
7.61422
20
-5.8393
11
7.62922
21
-5.8393
0
LINE
8
BLACK
6
CONTINUOUS
10
7.62922
20
-5.8393
11
7.63672
21
-5.83555
0
LINE
8
BLACK
6
CONTINUOUS
10
7.63672
20
-5.83555
11
7.64047
21
-5.83181
0
LINE
8
BLACK
6
CONTINUOUS
10
7.64047
20
-5.83181
11
7.64422
21
-5.82431
0
LINE
8
BLACK
6
CONTINUOUS
10
7.71171
20
-5.81681
11
7.71171
21
-5.8693
0
LINE
8
BLACK
6
CONTINUOUS
10
7.69296
20
-5.78681
11
7.67421
21
-5.84305
0
LINE
8
BLACK
6
CONTINUOUS
10
7.67421
20
-5.84305
11
7.72296
21
-5.84305
0
LINE
8
BLACK
6
CONTINUOUS
10
7.7492
20
-5.79056
11
7.7492
21
-5.80556
0
LINE
8
BLACK
6
CONTINUOUS
10
7.7792
20
-5.79056
11
7.7792
21
-5.80556
0
LINE
8
BLACK
6
CONTINUOUS
10
7.89544
20
-5.8993
11
7.89169
21
-5.89555
0
LINE
8
BLACK
6
CONTINUOUS
10
7.89169
20
-5.89555
11
7.88419
21
-5.8843
0
LINE
8
BLACK
6
CONTINUOUS
10
7.88419
20
-5.8843
11
7.88044
21
-5.8768
0
LINE
8
BLACK
6
CONTINUOUS
10
7.88044
20
-5.8768
11
7.87669
21
-5.86555
0
LINE
8
BLACK
6
CONTINUOUS
10
7.87669
20
-5.86555
11
7.87294
21
-5.8468
0
LINE
8
BLACK
6
CONTINUOUS
10
7.87294
20
-5.8468
11
7.87294
21
-5.83181
0
LINE
8
BLACK
6
CONTINUOUS
10
7.87294
20
-5.83181
11
7.87669
21
-5.81306
0
LINE
8
BLACK
6
CONTINUOUS
10
7.87669
20
-5.81306
11
7.88044
21
-5.80181
0
LINE
8
BLACK
6
CONTINUOUS
10
7.88044
20
-5.80181
11
7.88419
21
-5.79431
0
LINE
8
BLACK
6
CONTINUOUS
10
7.88419
20
-5.79431
11
7.89169
21
-5.78306
0
LINE
8
BLACK
6
CONTINUOUS
10
7.89169
20
-5.78306
11
7.89544
21
-5.77931
0
LINE
8
BLACK
6
CONTINUOUS
10
7.96293
20
-5.79056
11
7.92543
21
-5.79056
0
LINE
8
BLACK
6
CONTINUOUS
10
7.92543
20
-5.79056
11
7.92168
21
-5.82806
0
LINE
8
BLACK
6
CONTINUOUS
10
7.92168
20
-5.82806
11
7.92543
21
-5.82431
0
LINE
8
BLACK
6
CONTINUOUS
10
7.92543
20
-5.82431
11
7.93293
21
-5.82056
0
LINE
8
BLACK
6
CONTINUOUS
10
7.93293
20
-5.82056
11
7.95168
21
-5.82056
0
LINE
8
BLACK
6
CONTINUOUS
10
7.95168
20
-5.82056
11
7.95918
21
-5.82431
0
LINE
8
BLACK
6
CONTINUOUS
10
7.95918
20
-5.82431
11
7.96293
21
-5.82806
0
LINE
8
BLACK
6
CONTINUOUS
10
7.96293
20
-5.82806
11
7.96668
21
-5.83555
0
LINE
8
BLACK
6
CONTINUOUS
10
7.96668
20
-5.83555
11
7.96668
21
-5.8543
0
LINE
8
BLACK
6
CONTINUOUS
10
7.96668
20
-5.8543
11
7.96293
21
-5.8618
0
LINE
8
BLACK
6
CONTINUOUS
10
7.96293
20
-5.8618
11
7.95918
21
-5.86555
0
LINE
8
BLACK
6
CONTINUOUS
10
7.95918
20
-5.86555
11
7.95168
21
-5.8693
0
LINE
8
BLACK
6
CONTINUOUS
10
7.95168
20
-5.8693
11
7.93293
21
-5.8693
0
LINE
8
BLACK
6
CONTINUOUS
10
7.93293
20
-5.8693
11
7.92543
21
-5.86555
0
LINE
8
BLACK
6
CONTINUOUS
10
7.92543
20
-5.86555
11
7.92168
21
-5.8618
0
LINE
8
BLACK
6
CONTINUOUS
10
7.99292
20
-5.79056
11
8.04542
21
-5.79056
0
LINE
8
BLACK
6
CONTINUOUS
10
8.04542
20
-5.79056
11
8.01167
21
-5.8693
0
LINE
8
BLACK
6
CONTINUOUS
10
8.13541
20
-5.8693
11
8.13541
21
-5.79056
0
LINE
8
BLACK
6
CONTINUOUS
10
8.16915
20
-5.8693
11
8.16915
21
-5.82806
0
LINE
8
BLACK
6
CONTINUOUS
10
8.16915
20
-5.82806
11
8.1654
21
-5.82056
0
LINE
8
BLACK
6
CONTINUOUS
10
8.1654
20
-5.82056
11
8.1579
21
-5.81681
0
LINE
8
BLACK
6
CONTINUOUS
10
8.1579
20
-5.81681
11
8.14665
21
-5.81681
0
LINE
8
BLACK
6
CONTINUOUS
10
8.14665
20
-5.81681
11
8.13915
21
-5.82056
0
LINE
8
BLACK
6
CONTINUOUS
10
8.13915
20
-5.82056
11
8.13541
21
-5.82431
0
LINE
8
BLACK
6
CONTINUOUS
10
8.21789
20
-5.8693
11
8.2104
21
-5.86555
0
LINE
8
BLACK
6
CONTINUOUS
10
8.2104
20
-5.86555
11
8.20665
21
-5.8618
0
LINE
8
BLACK
6
CONTINUOUS
10
8.20665
20
-5.8618
11
8.2029
21
-5.8543
0
LINE
8
BLACK
6
CONTINUOUS
10
8.2029
20
-5.8543
11
8.2029
21
-5.83181
0
LINE
8
BLACK
6
CONTINUOUS
10
8.2029
20
-5.83181
11
8.20665
21
-5.82431
0
LINE
8
BLACK
6
CONTINUOUS
10
8.20665
20
-5.82431
11
8.2104
21
-5.82056
0
LINE
8
BLACK
6
CONTINUOUS
10
8.2104
20
-5.82056
11
8.21789
21
-5.81681
0
LINE
8
BLACK
6
CONTINUOUS
10
8.21789
20
-5.81681
11
8.22914
21
-5.81681
0
LINE
8
BLACK
6
CONTINUOUS
10
8.22914
20
-5.81681
11
8.23664
21
-5.82056
0
LINE
8
BLACK
6
CONTINUOUS
10
8.23664
20
-5.82056
11
8.24039
21
-5.82431
0
LINE
8
BLACK
6
CONTINUOUS
10
8.24039
20
-5.82431
11
8.24414
21
-5.83181
0
LINE
8
BLACK
6
CONTINUOUS
10
8.24414
20
-5.83181
11
8.24414
21
-5.8543
0
LINE
8
BLACK
6
CONTINUOUS
10
8.24414
20
-5.8543
11
8.24039
21
-5.8618
0
LINE
8
BLACK
6
CONTINUOUS
10
8.24039
20
-5.8618
11
8.23664
21
-5.86555
0
LINE
8
BLACK
6
CONTINUOUS
10
8.23664
20
-5.86555
11
8.22914
21
-5.8693
0
LINE
8
BLACK
6
CONTINUOUS
10
8.22914
20
-5.8693
11
8.21789
21
-5.8693
0
LINE
8
BLACK
6
CONTINUOUS
10
8.28914
20
-5.8693
11
8.28164
21
-5.86555
0
LINE
8
BLACK
6
CONTINUOUS
10
8.28164
20
-5.86555
11
8.27789
21
-5.85805
0
LINE
8
BLACK
6
CONTINUOUS
10
8.27789
20
-5.85805
11
8.27789
21
-5.79056
0
LINE
8
BLACK
6
CONTINUOUS
10
8.34913
20
-5.86555
11
8.34163
21
-5.8693
0
LINE
8
BLACK
6
CONTINUOUS
10
8.34163
20
-5.8693
11
8.32663
21
-5.8693
0
LINE
8
BLACK
6
CONTINUOUS
10
8.32663
20
-5.8693
11
8.31913
21
-5.86555
0
LINE
8
BLACK
6
CONTINUOUS
10
8.31913
20
-5.86555
11
8.31538
21
-5.85805
0
LINE
8
BLACK
6
CONTINUOUS
10
8.31538
20
-5.85805
11
8.31538
21
-5.82806
0
LINE
8
BLACK
6
CONTINUOUS
10
8.31538
20
-5.82806
11
8.31913
21
-5.82056
0
LINE
8
BLACK
6
CONTINUOUS
10
8.31913
20
-5.82056
11
8.32663
21
-5.81681
0
LINE
8
BLACK
6
CONTINUOUS
10
8.32663
20
-5.81681
11
8.34163
21
-5.81681
0
LINE
8
BLACK
6
CONTINUOUS
10
8.34163
20
-5.81681
11
8.34913
21
-5.82056
0
LINE
8
BLACK
6
CONTINUOUS
10
8.34913
20
-5.82056
11
8.35288
21
-5.82806
0
LINE
8
BLACK
6
CONTINUOUS
10
8.35288
20
-5.82806
11
8.35288
21
-5.83555
0
LINE
8
BLACK
6
CONTINUOUS
10
8.35288
20
-5.83555
11
8.31538
21
-5.84305
0
LINE
8
BLACK
6
CONTINUOUS
10
8.38287
20
-5.86555
11
8.39037
21
-5.8693
0
LINE
8
BLACK
6
CONTINUOUS
10
8.39037
20
-5.8693
11
8.40537
21
-5.8693
0
LINE
8
BLACK
6
CONTINUOUS
10
8.40537
20
-5.8693
11
8.41287
21
-5.86555
0
LINE
8
BLACK
6
CONTINUOUS
10
8.41287
20
-5.86555
11
8.41662
21
-5.85805
0
LINE
8
BLACK
6
CONTINUOUS
10
8.41662
20
-5.85805
11
8.41662
21
-5.8543
0
LINE
8
BLACK
6
CONTINUOUS
10
8.41662
20
-5.8543
11
8.41287
21
-5.8468
0
LINE
8
BLACK
6
CONTINUOUS
10
8.41287
20
-5.8468
11
8.40537
21
-5.84305
0
LINE
8
BLACK
6
CONTINUOUS
10
8.40537
20
-5.84305
11
8.39412
21
-5.84305
0
LINE
8
BLACK
6
CONTINUOUS
10
8.39412
20
-5.84305
11
8.38662
21
-5.8393
0
LINE
8
BLACK
6
CONTINUOUS
10
8.38662
20
-5.8393
11
8.38287
21
-5.83181
0
LINE
8
BLACK
6
CONTINUOUS
10
8.38287
20
-5.83181
11
8.38287
21
-5.82806
0
LINE
8
BLACK
6
CONTINUOUS
10
8.38287
20
-5.82806
11
8.38662
21
-5.82056
0
LINE
8
BLACK
6
CONTINUOUS
10
8.38662
20
-5.82056
11
8.39412
21
-5.81681
0
LINE
8
BLACK
6
CONTINUOUS
10
8.39412
20
-5.81681
11
8.40537
21
-5.81681
0
LINE
8
BLACK
6
CONTINUOUS
10
8.40537
20
-5.81681
11
8.41287
21
-5.82056
0
LINE
8
BLACK
6
CONTINUOUS
10
8.44287
20
-5.8993
11
8.44662
21
-5.89555
0
LINE
8
BLACK
6
CONTINUOUS
10
8.44662
20
-5.89555
11
8.45412
21
-5.8843
0
LINE
8
BLACK
6
CONTINUOUS
10
8.45412
20
-5.8843
11
8.45786
21
-5.8768
0
LINE
8
BLACK
6
CONTINUOUS
10
8.45786
20
-5.8768
11
8.46161
21
-5.86555
0
LINE
8
BLACK
6
CONTINUOUS
10
8.46161
20
-5.86555
11
8.46536
21
-5.8468
0
LINE
8
BLACK
6
CONTINUOUS
10
8.46536
20
-5.8468
11
8.46536
21
-5.83181
0
LINE
8
BLACK
6
CONTINUOUS
10
8.46536
20
-5.83181
11
8.46161
21
-5.81306
0
LINE
8
BLACK
6
CONTINUOUS
10
8.46161
20
-5.81306
11
8.45786
21
-5.80181
0
LINE
8
BLACK
6
CONTINUOUS
10
8.45786
20
-5.80181
11
8.45412
21
-5.79431
0
LINE
8
BLACK
6
CONTINUOUS
10
8.45412
20
-5.79431
11
8.44662
21
-5.78306
0
LINE
8
BLACK
6
CONTINUOUS
10
8.44662
20
-5.78306
11
8.44287
21
-5.77931
  0
ENDSEC
  0
EOF
