M48
; DRILL file {KiCad (5.99.0-10363-g902a2c9f58)} date Tuesday, April 20, 2021 at 12:18:20 PM
; FORMAT={-:-/ absolute / inch / decimal}
; #@! TF.CreationDate,2021-04-20T12:18:20+02:00
; #@! TF.GenerationSoftware,Kicad,Pcbnew,(5.99.0-10363-g902a2c9f58)
; #@! TF.FileFunction,MixedPlating,1,2
FMAT,2
INCH
; #@! TA.AperFunction,Plated,PTH,ViaDrill
T1C0.0157
; #@! TA.AperFunction,Plated,PTH,ComponentDrill
T2C0.0276
; #@! TA.AperFunction,Plated,PTH,ComponentDrill
T3C0.0394
%
G90
G05
T1
X6.8945Y-5.1465
X6.9953Y-4.3614
X7.0681Y-4.3583
X7.7559Y-3.2504
X7.8559Y-3.25
X7.9594Y-3.2496
X8.0594Y-3.2539
X8.3129Y-3.6772
X8.3157Y-3.7287
X8.3157Y-3.7894
X8.3169Y-3.8472
X8.502Y-3.6654
X8.5997Y-3.994
X8.602Y-4.0354
X8.7353Y-4.0827
X8.7402Y-4.5295
X8.7677Y-4.1732
X8.8209Y-5.1398
X9.1815Y-5.1567
X9.4902Y-4.6846
T2
X6.6724Y-5.0
X6.6724Y-5.05
X6.6724Y-5.1
X6.6724Y-5.15
X6.6724Y-5.2
X6.7224Y-5.0
X6.7224Y-5.05
X6.7224Y-5.1
X6.7224Y-5.15
X6.7224Y-5.2
T3
X7.2835Y-3.0591
X7.2835Y-3.1591
X7.2835Y-3.2591
X7.2835Y-3.3591
X7.7559Y-2.8665
X7.8559Y-2.8665
X7.9559Y-2.8665
X8.0559Y-2.8665
X8.526Y-4.3378
X8.526Y-4.4378
X8.526Y-4.5378
X8.526Y-4.6378
X8.626Y-4.3378
X8.626Y-4.4378
X8.626Y-4.5378
X8.626Y-4.6378
X8.6693Y-3.1654
X8.6693Y-3.2654
X8.6693Y-3.4823
X8.6693Y-3.5823
X8.6693Y-3.6823
X8.6693Y-3.7823
X8.8705Y-3.085
X8.8705Y-3.185
X8.8705Y-3.285
X8.8705Y-3.385
X8.8705Y-3.485
X8.8705Y-3.585
X8.8705Y-3.685
X8.8705Y-3.785
X8.8705Y-3.885
X8.8705Y-3.985
X8.8705Y-4.085
X8.8705Y-4.185
X8.8705Y-4.285
X8.8705Y-4.385
X8.8705Y-4.485
X8.939Y-5.1411
X8.939Y-5.2411
X9.5955Y-4.8346
X9.6955Y-4.8346
X9.7955Y-4.8346
X9.8955Y-4.8346
X9.9705Y-3.085
X9.9705Y-3.185
X9.9705Y-3.285
X9.9705Y-3.385
X9.9705Y-3.485
X9.9705Y-3.585
X9.9705Y-3.685
X9.9705Y-3.785
X9.9705Y-3.885
X9.9705Y-3.985
X9.9705Y-4.085
X9.9705Y-4.185
X9.9705Y-4.285
X9.9705Y-4.385
X9.9705Y-4.485
X9.9955Y-4.8346
T0
M30
